<svg width="40" height="40" fill="none" xmlns="http://www.w3.org/2000/svg"><path fill-rule="evenodd" clip-rule="evenodd" d="M26.486 5.475c0 4.442 3.606 8.043 8.054 8.043a8.07 8.07 0 001.46-.14v15.945C36 36.03 32.043 40 25.325 40H10.693C3.957 40 0 36.031 0 29.323v-14.61C0 8.002 3.957 4 10.693 4h15.933a7.64 7.64 0 00-.14 1.475zM22.3 25.793l5.716-7.375v-.036a1.509 1.509 0 00-.282-2.09 1.461 1.461 0 00-2.075.3L20.84 22.79l-5.487-4.32a1.479 1.479 0 00-2.093.281l-5.909 7.622c-.207.259-.32.581-.316.913a1.478 1.478 0 002.726.86l4.942-6.392 5.486 4.303a1.479 1.479 0 002.11-.264z" fill="#3F408C"/><circle cx="35" cy="5" r="5" fill="#2DDD9D"/></svg>