<svg width="120" height="22" fill="none" xmlns="http://www.w3.org/2000/svg"><path d="M11.524 10.97c0 2.747-2.238 4.542-5.01 4.542H-.003V0h6.07c2.702 0 4.896 1.75 4.896 4.432a3.883 3.883 0 01-1.352 3.035 4.003 4.003 0 011.912 3.502zM3.55 3.323v2.748h2.526a1.31 1.31 0 001.352-1.374 1.298 1.298 0 00-1.352-1.374H3.55zm4.432 7.38A1.401 1.401 0 006.519 9.22h-2.97v2.97h2.97a1.401 1.401 0 001.459-1.488h.003zm5.577-3.412h5.23a1.595 1.595 0 010 3.19h-5.23a1.595 1.595 0 110-3.19zm17.904 6.515a1.707 1.707 0 01-1.707 1.706h-8.045V0h7.933a1.706 1.706 0 110 3.412h-4.387v2.572h3.856a1.684 1.684 0 010 3.368h-3.856V12.1h4.498a1.707 1.707 0 011.708 1.706zm13.023-3.834a5.74 5.74 0 015.872-5.85 5.708 5.708 0 015.01 2.837l-2.903 1.684a2.292 2.292 0 00-2.149-1.241 2.438 2.438 0 00-2.504 2.57 2.439 2.439 0 002.504 2.57 2.27 2.27 0 002.15-1.24l2.903 1.661a5.654 5.654 0 01-5.011 2.859 5.74 5.74 0 01-5.872-5.85z" fill="#fff"/><path d="M66.001 8.71v6.802h-3.325V9.2a1.828 1.828 0 00-1.926-2.017c-1.22 0-2.062.706-2.062 2.283v6.05h-3.324V0h3.324v5.474a3.79 3.79 0 013.17-1.353C64.095 4.122 66 5.719 66 8.71zm12.318-4.278v11.08h-3.324V14.47a4.164 4.164 0 01-3.303 1.353c-2.901 0-5.293-2.549-5.293-5.85 0-3.303 2.394-5.851 5.293-5.851a4.164 4.164 0 013.303 1.352V4.432h3.324zm-3.324 5.54A2.53 2.53 0 0072.36 7.27a2.531 2.531 0 00-2.638 2.703 2.53 2.53 0 002.638 2.703 2.532 2.532 0 002.636-2.703zM90.06 8.71v6.803h-3.324V9.197a1.83 1.83 0 00-1.928-2.017c-1.22 0-2.061.705-2.061 2.283v6.05h-3.324V4.432h3.324v1.04a3.789 3.789 0 013.17-1.35c2.237 0 4.143 1.595 4.143 4.587zm12.32-4.278v10.525c0 3.724-2.904 5.297-5.85 5.297-2.305 0-4.235-.864-5.253-2.682l2.837-1.64a2.531 2.531 0 002.527 1.396c1.552 0 2.503-.798 2.503-2.371v-1.018a3.933 3.933 0 01-3.233 1.44 5.488 5.488 0 01-5.451-5.628 5.488 5.488 0 015.45-5.628 3.937 3.937 0 013.237 1.44V4.434l3.233-.002zM99.144 9.75a2.51 2.51 0 00-2.682-2.572A2.51 2.51 0 0093.78 9.75a2.507 2.507 0 002.682 2.57 2.507 2.507 0 002.682-2.57zm9.969 3.103a2.898 2.898 0 002.128-.842l2.659 1.529a5.627 5.627 0 01-4.831 2.282c-3.789 0-6.14-2.548-6.14-5.85a5.7 5.7 0 01.401-2.277 5.69 5.69 0 015.493-3.574 5.592 5.592 0 015.276 3.623 5.6 5.6 0 01.353 2.227c.002.447-.043.893-.133 1.33h-7.862c.419 1.15 1.437 1.552 2.656 1.552zm2.039-4.033a2.285 2.285 0 00-2.349-1.751 2.287 2.287 0 00-2.415 1.75h4.764zM35.068 9.938l3.215 2.894-2.365 2.127a2.149 2.149 0 01-2.877-3.194l2.027-1.827zm9.167-3.421a2.148 2.148 0 01-.714 1.599L41.495 9.94l-3.212-2.894 2.364-2.128a2.148 2.148 0 013.588 1.598z" fill="#fff"/><path d="M41.495 9.94l-3.212 2.894-3.216-2.893 3.216-2.894 3.212 2.894z" fill="#fff"/><path d="M38.283 7.05l-3.215 2.894-2.027-1.828a2.146 2.146 0 01-.71-1.598 2.15 2.15 0 013.587-1.597l2.365 2.13zm5.398 7.75a2.149 2.149 0 01-3.035.16l-2.364-2.127 3.212-2.893 2.026 1.822a2.148 2.148 0 01.161 3.039zm73.945-.668h-.555v1.684h-.494v-1.684h-.556v-.475h1.603l.002.475zm2.375 1.684h-.494V14.56l-.558.918h-.056l-.557-.918v1.256h-.494v-2.16h.494l.586.96.585-.96h.494v2.16zm-97.697 2.901a.034.034 0 01.01-.03.034.034 0 01.029-.009h.46a.058.058 0 01.061.039l.665 1.5h.016l.653-1.5a.06.06 0 01.025-.03.06.06 0 01.037-.009h.453l.016.001a.034.034 0 01.021.022c.002.005.003.01.002.016v2.551a.033.033 0 01-.01.03.034.034 0 01-.03.01h-.436a.034.034 0 01-.039-.04v-1.482h-.015l-.487 1.11a.077.077 0 01-.07.05h-.268a.077.077 0 01-.07-.05l-.487-1.11h-.015v1.482a.035.035 0 01-.04.04h-.436c-.005 0-.01 0-.015-.002a.035.035 0 01-.023-.038l-.007-2.551zm5.903 0a.049.049 0 01.05-.04h.487a.048.048 0 01.05.04l.89 2.551c.007.026 0 .04-.028.04h-.501a.05.05 0 01-.05-.04l-.152-.46h-.918l-.147.46a.048.048 0 01-.05.04h-.506c-.027 0-.036-.014-.027-.04l.902-2.551zm.592 1.608l-.298-.917h-.011l-.298.917h.607zm3.436-1.608c-.001-.005 0-.01.001-.016a.034.034 0 01.022-.022.035.035 0 01.016 0h.494c.005-.002.01-.001.015 0 .005.002.01.005.014.009a.034.034 0 01.01.029v1.136l.873-1.14a.074.074 0 01.066-.035h.56a.02.02 0 01.014.005.02.02 0 01.007.012.033.033 0 01-.006.032l-.795.998.87 1.535a.031.031 0 01.003.032.029.029 0 01-.026.014h-.569a.063.063 0 01-.058-.035l-.595-1.106-.344.434v.668a.035.035 0 01-.01.03.034.034 0 01-.03.01h-.493c-.005 0-.01 0-.016-.002a.034.034 0 01-.021-.022.034.034 0 01-.002-.016v-2.55zm4.738 0a.033.033 0 01.01-.03.034.034 0 01.03-.009h.494a.033.033 0 01.038.023c.002.005.002.01.001.016v2.551a.035.035 0 01-.01.03.035.035 0 01-.03.01h-.493a.035.035 0 01-.04-.04v-2.551zm3.315 0c0-.005 0-.01.002-.016a.034.034 0 01.022-.022.035.035 0 01.015 0h.465a.07.07 0 01.065.038l.928 1.654h.02v-1.654a.034.034 0 01.01-.03.035.035 0 01.013-.008.036.036 0 01.016 0h.438c.005-.002.01-.001.015 0a.034.034 0 01.022.022c.002.005.002.01.001.016v2.551a.042.042 0 01-.001.016.034.034 0 01-.022.022.034.034 0 01-.015.002h-.461a.071.071 0 01-.066-.04l-.932-1.65h-.02v1.65a.033.033 0 01-.008.03.034.034 0 01-.03.01h-.438c-.005 0-.01 0-.015-.002a.035.035 0 01-.023-.038v-2.551zm4.729 1.761a3.687 3.687 0 01-.021-.485c0-.145 0-.274.01-.388a1.3 1.3 0 01.064-.332.847.847 0 01.353-.475c.184-.112.396-.168.611-.162a1.16 1.16 0 01.565.14.8.8 0 01.376.44v.017a.04.04 0 01-.022.025l-.414.174c-.028.008-.046 0-.055-.02a.499.499 0 00-.452-.27.4.4 0 00-.423.294 2.297 2.297 0 00-.042.561c-.01.19.005.379.042.565a.404.404 0 00.429.29.498.498 0 00.267-.07.352.352 0 00.154-.2.927.927 0 00.031-.26c0-.015-.008-.022-.024-.022h-.353c-.005 0-.01 0-.016-.002a.034.034 0 01-.023-.038v-.37a.034.034 0 01.01-.029.034.034 0 01.03-.01h.904a.034.034 0 01.03.01.035.035 0 01.009.03v.212c.007.2-.015.398-.066.591a.876.876 0 01-.353.485c-.18.118-.392.178-.607.172a1.108 1.108 0 01-.61-.162.847.847 0 01-.354-.476 1.79 1.79 0 01-.05-.235zm7.879-1.761a.034.034 0 01.039-.039h.494l.016.001a.034.034 0 01.021.022c.002.005.002.01.002.016v2.06c0 .016.008.023.024.023h1.16a.035.035 0 01.028.01.035.035 0 01.01.03v.428l-.001.016a.035.035 0 01-.022.022.034.034 0 01-.016.002h-1.713a.034.034 0 01-.03-.01.035.035 0 01-.01-.03l-.002-2.551zm4.372 0l.001-.016a.034.034 0 01.022-.022.035.035 0 01.016 0h.494c.005-.002.01-.001.016 0a.034.034 0 01.021.022c.002.005.002.01.002.016v2.551a.034.034 0 01-.01.03.034.034 0 01-.03.01h-.493c-.006 0-.01 0-.016-.002a.035.035 0 01-.023-.038v-2.551zm3.315 0v-.016a.034.034 0 01.038-.023h1.686l.016.001a.034.034 0 01.022.022c.002.005.002.01.001.016v.414l-.001.015a.034.034 0 01-.022.022.034.034 0 01-.016.001h-1.129a.021.021 0 00-.024.024v.553a.021.021 0 00.015.022h.953a.034.034 0 01.038.04v.425a.034.034 0 01-.038.023h-.954a.021.021 0 00-.014.023v.989l-.001.015a.034.034 0 01-.022.022.034.034 0 01-.016.002h-.494a.034.034 0 01-.029-.01.035.035 0 01-.01-.03v-2.55zm4.397 0c0-.005 0-.01.002-.016a.034.034 0 01.038-.023h1.686l.015.001a.034.034 0 01.022.022c.002.005.002.01.001.016v.429a.034.034 0 01-.023.022.034.034 0 01-.016.001h-1.129a.021.021 0 00-.024.024v.522c0 .003 0 .006.002.01a.02.02 0 00.013.012.02.02 0 00.01 0h.943a.034.034 0 01.037.024c.002.005.002.01.002.015v.41c0 .005 0 .01-.002.015a.035.035 0 01-.037.024h-.95c-.015 0-.023.007-.023.023v.545c0 .016.008.023.024.023H66.7a.035.035 0 01.029.01.035.035 0 01.01.029v.413a.034.034 0 01-.01.03.034.034 0 01-.03.01h-1.685c-.005 0-.01 0-.016-.002a.035.035 0 01-.023-.038l.006-2.551zm7.588 0c-.001-.005 0-.01.001-.016a.034.034 0 01.022-.022.035.035 0 01.016 0h1.686c.005-.002.01-.001.015 0a.034.034 0 01.022.022c.002.005.002.01.001.016v.429a.034.034 0 01-.038.023h-1.13c-.016 0-.024.008-.024.024v.522c0 .003 0 .006.002.01a.02.02 0 00.005.007.02.02 0 00.017.006h.943a.035.035 0 01.038.023c.001.005.002.01.001.015v.41l-.001.015a.035.035 0 01-.022.023.034.034 0 01-.016.001h-.943c-.016 0-.024.007-.024.023v.545c0 .016.008.023.024.023h1.13a.035.035 0 01.029.01.035.035 0 01.01.029v.413a.034.034 0 01-.01.03.034.034 0 01-.03.01h-1.685c-.006 0-.011 0-.016-.002a.035.035 0 01-.023-.038v-2.551zm5.136 0a.048.048 0 01.05-.04h.488a.048.048 0 01.05.04l.889 2.551c.007.026-.001.04-.027.04h-.502a.048.048 0 01-.05-.04l-.151-.46h-.918l-.147.46a.049.049 0 01-.05.04h-.507c-.026 0-.034-.014-.026-.04l.901-2.551zm.592 1.608l-.297-.917h-.012l-.297.917h.606zm3.748.92a1.287 1.287 0 01-.44-.255.045.045 0 01-.014-.033.045.045 0 01.015-.033l.293-.337c.015-.02.035-.021.058 0 .19.167.434.262.688.27a.509.509 0 00.315-.086.27.27 0 00.114-.226.228.228 0 00-.093-.192.683.683 0 00-.313-.103l-.141-.019c-.555-.077-.832-.34-.832-.788a.736.736 0 01.255-.585 1 1 0 01.676-.22 1.65 1.65 0 01.494.071c.145.043.281.11.403.201.022.016.025.035.006.058l-.235.353a.036.036 0 01-.04.018 1.12 1.12 0 00-.625-.207.385.385 0 00-.26.08.258.258 0 00-.092.206c0 .155.136.251.41.29l.14.02c.552.074.828.34.827.796a.748.748 0 01-.268.597 1.14 1.14 0 01-.763.23 1.63 1.63 0 01-.578-.106zm4.763.063a.034.034 0 01-.03-.01.035.035 0 01-.009-.03V20.26l-.776-1.543c-.01-.026 0-.038.027-.038h.502a.055.055 0 01.057.039l.476.959h.012l.475-.96a.057.057 0 01.058-.038h.487a.03.03 0 01.027.011.027.027 0 010 .027l-.776 1.542v1.01a.035.035 0 01-.01.029.034.034 0 01-.03.01h-.49z" fill="#fff"/></svg>