<svg width="62" height="59" fill="none" xmlns="http://www.w3.org/2000/svg"><path fill-rule="evenodd" clip-rule="evenodd" d="M43.635 10.68c-.89-1.038-1.781-1.512-3.14-1.512H10.432c-.712 0-1.291-.542-1.358-1.267L8.65 2.845A1.695 1.695 0 007.27 1.31L1.96.5A1.703 1.703 0 00.024 1.897a1.697 1.697 0 001.358 1.941 4.42 4.42 0 013.644 3.988l1.765 21.206c.245 2.98 2.694 5.28 5.655 5.28h24.288c2.827 0 5.231-2.097 5.632-4.944l2.115-14.807c.2-1.353.044-2.842-.846-3.88z" fill="url(#paint0_linear)"/><g filter="url(#filter0_f)"><rect x="10.587" y="15.207" width="26.698" height="15.904" rx="5" fill="#0DB97A" fill-opacity=".5"/></g><g filter="url(#filter1_b)"><mask id="a" maskUnits="userSpaceOnUse" x="12" y="8.416" width="52" height="51" fill="#000"><path fill="#fff" d="M12 8.416h52v51H12z"/><path fill-rule="evenodd" clip-rule="evenodd" d="M17.965 18.863c-1.477 0-2.445.515-3.414 1.644-.968 1.13-1.137 2.75-.92 4.22l2.3 16.102c.436 3.095 3.05 5.375 6.125 5.375h26.41c3.22 0 5.883-2.501 6.149-5.741l2.227-26.757 3.655-.639a1.846 1.846 0 001.477-2.11 1.852 1.852 0 00-2.106-1.52l-5.774.881a1.844 1.844 0 00-1.5 1.67l-.46 5.498c-.073.787-.702 1.377-1.477 1.377H17.965zm30.889 31.221c2.033 0 3.68 1.67 3.68 3.731 0 2.037-1.647 3.707-3.68 3.707-2.01 0-3.655-1.67-3.655-3.707 0-2.062 1.646-3.73 3.655-3.73zm-27.233 0c2.033 0 3.68 1.67 3.68 3.731 0 2.037-1.647 3.707-3.68 3.707-2.01 0-3.656-1.67-3.656-3.707 0-2.062 1.646-3.73 3.656-3.73z"/></mask><path fill-rule="evenodd" clip-rule="evenodd" d="M17.965 18.863c-1.477 0-2.445.515-3.414 1.644-.968 1.13-1.137 2.75-.92 4.22l2.3 16.102c.436 3.095 3.05 5.375 6.125 5.375h26.41c3.22 0 5.883-2.501 6.149-5.741l2.227-26.757 3.655-.639a1.846 1.846 0 001.477-2.11 1.852 1.852 0 00-2.106-1.52l-5.774.881a1.844 1.844 0 00-1.5 1.67l-.46 5.498c-.073.787-.702 1.377-1.477 1.377H17.965zm30.889 31.221c2.033 0 3.68 1.67 3.68 3.731 0 2.037-1.647 3.707-3.68 3.707-2.01 0-3.655-1.67-3.655-3.707 0-2.062 1.646-3.73 3.655-3.73zm-27.233 0c2.033 0 3.68 1.67 3.68 3.731 0 2.037-1.647 3.707-3.68 3.707-2.01 0-3.656-1.67-3.656-3.707 0-2.062 1.646-3.73 3.656-3.73z" fill="#2DDD9D" fill-opacity=".35"/><path d="M13.632 24.727l.989-.147v.005l-.99.142zm2.3 16.102l.99-.142v.002l-.99.14zm38.683-.366l-.997-.082v-.001l.997.083zm2.227-26.757l-.997-.083a1 1 0 01.825-.902l.172.985zm3.655-.639l.175.985h-.003l-.172-.985zm1.477-2.11l-.985.17-.001-.004.986-.167zm-2.106-1.52l-.15-.989.15.989zm-5.774.881l-.178-.984a.957.957 0 01.028-.004l.15.988zm-1.5 1.67l-.997-.084v-.003l.997.086zm-.46 5.498l.996.083v.008l-.996-.091zm-38.342 2.37c.542-.631 1.129-1.144 1.833-1.491.71-.35 1.479-.502 2.34-.502v2c-.616 0-1.07.106-1.455.295-.391.193-.773.503-1.2 1l-1.518-1.302zm-1.15 5.017c-.237-1.602-.089-3.572 1.15-5.017l1.518 1.302c-.697.813-.888 2.084-.69 3.422l-1.978.293zm2.3 16.097l-2.3-16.102 1.98-.283 2.3 16.102-1.98.283zm7.114 6.234c-3.58 0-6.61-2.654-7.115-6.236l1.98-.279c.368 2.609 2.566 4.515 5.135 4.515v2zm26.41 0h-26.41v-2h26.41v2zm7.145-6.66c-.307 3.746-3.39 6.66-7.145 6.66v-2c2.685 0 4.928-2.088 5.152-4.823l1.993.164zM57.84 13.79l-2.227 26.757-1.994-.166 2.227-26.757 1.994.166zm2.83.264l-3.655.638-.344-1.97 3.655-.639.344 1.97zm2.29-3.267c.263 1.525-.777 2.998-2.287 3.266l-.35-1.97a.846.846 0 00.667-.956l1.97-.34zm-3.24-2.338a2.85 2.85 0 013.241 2.342l-1.972.333a.852.852 0 00-.97-.697l-.3-1.978zm-5.775.882l5.773-.882.302 1.978-5.774.88-.301-1.976zm-2.347 2.57a2.844 2.844 0 012.319-2.566l.357 1.968a.844.844 0 00-.683.772l-1.993-.173zm-.46 5.502l.46-5.498 1.993.167-.46 5.498-1.993-.167zm-.48.46c.237 0 .454-.174.48-.468l1.992.183c-.118 1.282-1.16 2.286-2.472 2.286v-2zm-32.692 0h32.692v2H17.965v-2zm33.569 35.953c0-1.523-1.212-2.73-2.68-2.73v-2c2.599 0 4.68 2.13 4.68 4.73h-2zm-2.68 2.707c1.472 0 2.68-1.213 2.68-2.707h2c0 2.58-2.086 4.707-4.68 4.707v-2zM46.2 53.816c0 1.498 1.211 2.707 2.655 2.707v2c-2.575 0-4.655-2.13-4.655-4.707h2zm2.655-2.73c-1.44 0-2.655 1.203-2.655 2.73h-2c0-2.597 2.076-4.73 4.655-4.73v2zM24.3 53.814c0-1.523-1.211-2.73-2.68-2.73v-2c2.6 0 4.68 2.13 4.68 4.73h-2zm-2.68 2.707c1.473 0 2.68-1.213 2.68-2.707h2c0 2.58-2.085 4.707-4.68 4.707v-2zm-2.655-2.707c0 1.498 1.212 2.707 2.656 2.707v2c-2.575 0-4.656-2.13-4.656-4.707h2zm2.656-2.73c-1.44 0-2.656 1.203-2.656 2.73h-2c0-2.597 2.077-4.73 4.656-4.73v2z" fill="url(#paint1_linear)" mask="url(#a)"/></g><g filter="url(#filter2_bd)"><mask id="b" fill="#fff"><path fill-rule="evenodd" clip-rule="evenodd" d="M25.929 31.623h6.705c1.017 0 1.816-.834 1.816-1.84 0-1.032-.799-1.842-1.816-1.842H25.93c-1.017 0-1.816.81-1.816 1.841 0 1.007.8 1.841 1.816 1.841z"/></mask><path fill-rule="evenodd" clip-rule="evenodd" d="M25.929 31.623h6.705c1.017 0 1.816-.834 1.816-1.84 0-1.032-.799-1.842-1.816-1.842H25.93c-1.017 0-1.816.81-1.816 1.841 0 1.007.8 1.841 1.816 1.841z" fill="url(#paint2_linear)"/><path d="M25.929 31.423h6.705v.4H25.93v-.4zm6.705 0c.902 0 1.616-.74 1.616-1.64h.4c0 1.112-.884 2.04-2.016 2.04v-.4zm1.616-1.64c0-.924-.712-1.642-1.616-1.642v-.4c1.13 0 2.016.903 2.016 2.041h-.4zm-1.616-1.642H25.93v-.4h6.705v.4zm-6.705 0c-.904 0-1.616.718-1.616 1.641h-.4c0-1.138.886-2.04 2.016-2.04v.4zm-1.616 1.641c0 .9.714 1.641 1.616 1.641v.4c-1.132 0-2.016-.928-2.016-2.04h.4z" fill="url(#paint3_linear)" fill-opacity=".5" mask="url(#b)"/></g><defs><linearGradient id="paint0_linear" x1="0" y1="4.786" x2="41.151" y2="38.604" gradientUnits="userSpaceOnUse"><stop stop-color="#66DC91"/><stop offset="1" stop-color="#53B9AB"/></linearGradient><linearGradient id="paint1_linear" x1="54.287" y1="15.02" x2="23.648" y2="53.241" gradientUnits="userSpaceOnUse"><stop stop-color="#fff" stop-opacity=".25"/><stop offset="1" stop-color="#fff" stop-opacity="0"/></linearGradient><linearGradient id="paint2_linear" x1="24.846" y1="28.606" x2="36.277" y2="29.653" gradientUnits="userSpaceOnUse"><stop stop-color="#fff"/><stop offset="1" stop-color="#fff" stop-opacity=".2"/></linearGradient><linearGradient id="paint3_linear" x1="33.337" y1="29.177" x2="24.561" y2="29.313" gradientUnits="userSpaceOnUse"><stop stop-color="#fff"/><stop offset="1" stop-color="#fff" stop-opacity="0"/></linearGradient><filter id="filter0_f" x="-3.413" y="1.207" width="54.699" height="43.904" filterUnits="userSpaceOnUse" color-interpolation-filters="sRGB"><feFlood flood-opacity="0" result="BackgroundImageFix"/><feBlend in="SourceGraphic" in2="BackgroundImageFix" result="shape"/><feGaussianBlur stdDeviation="7" result="effect1_foregroundBlur"/></filter><filter id="filter1_b" x="-11.452" y="-15.584" width="98.453" height="98.106" filterUnits="userSpaceOnUse" color-interpolation-filters="sRGB"><feFlood flood-opacity="0" result="BackgroundImageFix"/><feGaussianBlur in="BackgroundImage" stdDeviation="12"/><feComposite in2="SourceAlpha" operator="in" result="effect1_backgroundBlur"/><feBlend in="SourceGraphic" in2="effect1_backgroundBlur" result="shape"/></filter><filter id="filter2_bd" x="9.113" y="12.941" width="40.337" height="33.682" filterUnits="userSpaceOnUse" color-interpolation-filters="sRGB"><feFlood flood-opacity="0" result="BackgroundImageFix"/><feGaussianBlur in="BackgroundImage" stdDeviation="7.5"/><feComposite in2="SourceAlpha" operator="in" result="effect1_backgroundBlur"/><feColorMatrix in="SourceAlpha" values="0 0 0 0 0 0 0 0 0 0 0 0 0 0 0 0 0 0 127 0"/><feOffset dx="5" dy="5"/><feGaussianBlur stdDeviation="5"/><feColorMatrix values="0 0 0 0 0.176471 0 0 0 0 0.866667 0 0 0 0 0.615686 0 0 0 0.5 0"/><feBlend in2="effect1_backgroundBlur" result="effect2_dropShadow"/><feBlend in="SourceGraphic" in2="effect2_dropShadow" result="shape"/></filter></defs></svg>