<svg width="40" height="44" fill="none" xmlns="http://www.w3.org/2000/svg"><circle cx="20" cy="20" r="20" fill="url(#paint0_linear)"/><g filter="url(#filter0_d)"><path fill-rule="evenodd" clip-rule="evenodd" d="M16.684 13.735l.02 3.97h5.878c1.044 0 1.89-.822 1.885-1.834l-.002-.301c-.005-1.012-.859-1.835-1.903-1.835h-5.878zm8.529 10.006l-.002-.319c-.005-1.128-.957-2.045-2.121-2.045h-6.368l.022 4.41h6.368c1.164 0 2.107-.919 2.1-2.046zm1.865-4.507c1.17 1.045 1.912 2.533 1.92 4.188l.002.32c.016 3.15-2.617 5.714-5.87 5.714h-.144l.008 1.687h-3.787l-.008-1.687h-1.552l.008 1.687h-3.787l-.008-1.687h-2.762l-.019-3.67h1.878l-.022-4.409-.018-3.671-.02-3.97h-1.879L11 10.062h2.762L13.752 8h3.787l.01 2.063h1.553L19.09 8h3.787l.01 2.08c2.974.176 5.35 2.567 5.364 5.49l.002.301a5.343 5.343 0 01-1.176 3.363z" fill="#fff"/></g><defs><linearGradient id="paint0_linear" x1="0" y1="0" x2="40.791" y2="39.176" gradientUnits="userSpaceOnUse"><stop stop-color="#FFC542"/><stop offset="1" stop-color="#FF4D55"/></linearGradient><filter id="filter0_d" x="3" y="4" width="34" height="39.143" filterUnits="userSpaceOnUse" color-interpolation-filters="sRGB"><feFlood flood-opacity="0" result="BackgroundImageFix"/><feColorMatrix in="SourceAlpha" values="0 0 0 0 0 0 0 0 0 0 0 0 0 0 0 0 0 0 127 0"/><feOffset dy="4"/><feGaussianBlur stdDeviation="4"/><feColorMatrix values="0 0 0 0 0 0 0 0 0 0 0 0 0 0 0 0 0 0 0.0744452 0"/><feBlend in2="BackgroundImageFix" result="effect1_dropShadow"/><feBlend in="SourceGraphic" in2="effect1_dropShadow" result="shape"/></filter></defs></svg>