<svg width="62" height="62" fill="none" xmlns="http://www.w3.org/2000/svg"><g clip-path="url(#clip0)"><path d="M40.993 12.107L26.869 8.353c-5.124-1.361-8.894.76-10.242 5.75L12.06 31.01c-1.37 5.073.843 8.713 5.966 10.075l14.125 3.753c5.205 1.384 8.873-.694 10.244-5.767l4.567-16.905c1.348-4.991-.763-8.674-5.97-10.058z" fill="url(#paint0_linear)"/><g opacity=".5" filter="url(#filter0_f)"><path d="M24.937 26.395a5.469 5.469 0 010-10.882l4.843-.489a5.96 5.96 0 110 11.86l-4.843-.489z" fill="#2DDD9D"/></g><g filter="url(#filter1_b)"><path d="M52.026 29.3c0-7.03-4.283-11.171-11.53-11.171h-18.99c-7.25 0-11.532 4.14-11.532 11.171v15.312c0 7.03 4.282 11.188 11.532 11.188h18.997c7.248 0 11.53-4.157 11.53-11.188 0-7.03-.007-14.535-.007-15.312z" fill="#2DDD9D" fill-opacity=".35"/><path d="M52.526 29.3c0-3.618-1.105-6.552-3.2-8.581-2.092-2.027-5.113-3.09-8.83-3.09h-18.99c-3.719 0-6.74 1.063-8.832 3.09-2.096 2.029-3.2 4.963-3.2 8.581v15.312c0 3.618 1.104 6.556 3.2 8.59 2.092 2.03 5.113 3.098 8.832 3.098h18.997c3.718 0 6.739-1.068 8.831-3.099 2.095-2.032 3.2-4.97 3.2-8.589 0-3.515-.002-7.149-.004-10.001l-.003-3.593-.001-1.718z" stroke="url(#paint1_linear)" stroke-linecap="round" stroke-linejoin="round"/></g><g filter="url(#filter2_b)"><path d="M37.068 38.713c.56 2.687 2.798 4.578 5.352 4.529h11.455c1.063 0 1.925-.927 1.925-2.073v-7.152c-.002-1.144-.862-2.073-1.925-2.076h-11.66c-2.906.01-5.252 2.55-5.248 5.68 0 .366.035.733.1 1.092z" fill="#2DDD9D" fill-opacity=".35"/><path d="M36.576 38.803h0l.002.012c.605 2.896 3.03 4.979 5.846 4.927h11.451c1.373 0 2.425-1.186 2.425-2.573v-7.153c-.003-1.383-1.05-2.571-2.424-2.575h0-11.663c-3.215.011-5.75 2.81-5.746 6.18 0 .398.037.794.109 1.182z" stroke="url(#paint2_linear)" stroke-linecap="round" stroke-linejoin="round"/></g><g filter="url(#filter3_bd)"><circle cx="42.303" cy="36.651" fill="url(#paint3_linear)" r="2.197"/><path d="M44.4 36.65a2.097 2.097 0 11-4.194 0 2.097 2.097 0 014.194 0z" stroke="url(#paint4_linear)" stroke-opacity=".5" stroke-width=".2"/></g><g filter="url(#filter4_bd)"><path d="M32.206 28.803H20.362c-.886-.003-1.603-.709-1.6-1.575.004-.862.72-1.56 1.6-1.564h11.852c.886-.004 1.61.696 1.614 1.562.004.868-.713 1.574-1.6 1.577h-.022z" fill="url(#paint5_linear)"/><path d="M32.214 25.764h0c.834-.003 1.511.654 1.514 1.463.004.81-.666 1.473-1.5 1.476H20.362c-.833-.003-1.503-.666-1.5-1.474.004-.806.672-1.461 1.5-1.465h11.852z" stroke="url(#paint6_linear)" stroke-opacity=".5" stroke-width=".2"/></g></g><defs><linearGradient id="paint0_linear" x1="46.928" y1="13.684" x2="7.803" y2="26.046" gradientUnits="userSpaceOnUse"><stop stop-color="#2DDD9D"/><stop offset="1" stop-color="#09C480"/></linearGradient><linearGradient id="paint1_linear" x1="16.669" y1="22.518" x2="47.216" y2="57.261" gradientUnits="userSpaceOnUse"><stop stop-color="#fff" stop-opacity=".25"/><stop offset="1" stop-color="#fff" stop-opacity="0"/></linearGradient><linearGradient id="paint2_linear" x1="39.965" y1="33.258" x2="48.047" y2="46.977" gradientUnits="userSpaceOnUse"><stop stop-color="#fff" stop-opacity=".25"/><stop offset="1" stop-color="#fff" stop-opacity="0"/></linearGradient><linearGradient id="paint3_linear" x1="44.189" y1="35.247" x2="39.294" y2="35.406" gradientUnits="userSpaceOnUse"><stop stop-color="#fff"/><stop offset="1" stop-color="#fff" stop-opacity=".2"/></linearGradient><linearGradient id="paint4_linear" x1="40.579" y1="35.927" x2="44.311" y2="35.948" gradientUnits="userSpaceOnUse"><stop stop-color="#fff"/><stop offset="1" stop-color="#fff" stop-opacity="0"/></linearGradient><linearGradient id="paint5_linear" x1="32.76" y1="26.231" x2="16.362" y2="28.797" gradientUnits="userSpaceOnUse"><stop stop-color="#fff"/><stop offset="1" stop-color="#fff" stop-opacity=".2"/></linearGradient><linearGradient id="paint6_linear" x1="20.385" y1="26.717" x2="33.17" y2="27.056" gradientUnits="userSpaceOnUse"><stop stop-color="#fff"/><stop offset="1" stop-color="#fff" stop-opacity="0"/></linearGradient><filter id="filter0_f" x=".018" y="-5.006" width="56.322" height="51.922" filterUnits="userSpaceOnUse" color-interpolation-filters="sRGB"><feFlood flood-opacity="0" result="BackgroundImageFix"/><feBlend in="SourceGraphic" in2="BackgroundImageFix" result="shape"/><feGaussianBlur stdDeviation="10" result="effect1_foregroundBlur"/></filter><filter id="filter1_b" x="-15.026" y="-6.871" width="92.059" height="87.671" filterUnits="userSpaceOnUse" color-interpolation-filters="sRGB"><feFlood flood-opacity="0" result="BackgroundImageFix"/><feGaussianBlur in="BackgroundImage" stdDeviation="12"/><feComposite in2="SourceAlpha" operator="in" result="effect1_backgroundBlur"/><feBlend in="SourceGraphic" in2="effect1_backgroundBlur" result="shape"/></filter><filter id="filter2_b" x="11.967" y="6.941" width="68.833" height="61.301" filterUnits="userSpaceOnUse" color-interpolation-filters="sRGB"><feFlood flood-opacity="0" result="BackgroundImageFix"/><feGaussianBlur in="BackgroundImage" stdDeviation="12"/><feComposite in2="SourceAlpha" operator="in" result="effect1_backgroundBlur"/><feBlend in="SourceGraphic" in2="effect1_backgroundBlur" result="shape"/></filter><filter id="filter3_bd" x="25.106" y="19.453" width="34.394" height="34.395" filterUnits="userSpaceOnUse" color-interpolation-filters="sRGB"><feFlood flood-opacity="0" result="BackgroundImageFix"/><feGaussianBlur in="BackgroundImage" stdDeviation="7.5"/><feComposite in2="SourceAlpha" operator="in" result="effect1_backgroundBlur"/><feColorMatrix in="SourceAlpha" values="0 0 0 0 0 0 0 0 0 0 0 0 0 0 0 0 0 0 127 0"/><feOffset dx="5" dy="5"/><feGaussianBlur stdDeviation="5"/><feColorMatrix values="0 0 0 0 0.176471 0 0 0 0 0.866667 0 0 0 0 0.615686 0 0 0 0.5 0"/><feBlend in2="effect1_backgroundBlur" result="effect2_dropShadow"/><feBlend in="SourceGraphic" in2="effect2_dropShadow" result="shape"/></filter><filter id="filter4_bd" x="3.762" y="10.664" width="45.066" height="33.139" filterUnits="userSpaceOnUse" color-interpolation-filters="sRGB"><feFlood flood-opacity="0" result="BackgroundImageFix"/><feGaussianBlur in="BackgroundImage" stdDeviation="7.5"/><feComposite in2="SourceAlpha" operator="in" result="effect1_backgroundBlur"/><feColorMatrix in="SourceAlpha" values="0 0 0 0 0 0 0 0 0 0 0 0 0 0 0 0 0 0 127 0"/><feOffset dx="5" dy="5"/><feGaussianBlur stdDeviation="5"/><feColorMatrix values="0 0 0 0 0.130556 0 0 0 0 0.666667 0 0 0 0 0.471717 0 0 0 0.5 0"/><feBlend in2="effect1_backgroundBlur" result="effect2_dropShadow"/><feBlend in="SourceGraphic" in2="effect2_dropShadow" result="shape"/></filter><clipPath id="clip0"><path fill="#fff" d="M0 0h62v62H0z"/></clipPath></defs></svg>