<svg width="40" height="40" fill="none" xmlns="http://www.w3.org/2000/svg"><path d="M16.305 32.889c.102-.207.17-.43.2-.658l.557-8.28.276-4.161a4.28 4.28 0 01.2-1.262 2.086 2.086 0 012.01-1.262l13.315.87a2.196 2.196 0 001.547-.599c.346-.327.569-.756.64-1.217l.023-.28C34.522 8.41 28.918 2.047 21.305.404 13.69-1.239 5.884 2.231 2.12 8.93a16.429 16.429 0 00-1.99 6.292 12.036 12.036 0 00-.127 1.973c-.012 8.18 5.813 15.251 13.967 16.956a2.182 2.182 0 002.336-1.262z" fill="#3F408C"/><path d="M21.74 39.998c9.12-.232 16.785-6.79 18.26-15.623l-.014-.065-.04-.095.005-.26a1.601 1.601 0 00-.383-.944 1.654 1.654 0 00-.925-.543l-.219-.03-15.361-.995a1.835 1.835 0 00-1.4.453c-.317.282-.52.664-.576 1.075L20.055 38.31a.243.243 0 000 .16c.015.423.2.822.517 1.11a1.63 1.63 0 001.168.418z" fill="#2DDD9D"/></svg>