<svg width="120" height="43" fill="none" xmlns="http://www.w3.org/2000/svg"><path d="M18.631 34.625a13.253 13.253 0 119.42-22.566l3.904-3.93a18.716 18.716 0 10-.285 26.736l-4.01-3.788a13.199 13.199 0 01-8.984 3.512" fill="#fff"/><path d="M18.632 25.703a4.332 4.332 0 113.163-7.281l3.681-3.734a9.571 9.571 0 10-.543 13.894l-3.85-3.627a4.232 4.232 0 01-2.451.766M16.884 0v6.461l-4.483 2.763V0h4.483zm-4.483 33.653l4.483 1.266v7.833h-4.483v-9.099zM22.874 0v7.442l-4.492-.731V0h4.492zm-4.492 35.337l4.492 1.266v6.15h-4.492v-7.416zm28.831-16.389a6.718 6.718 0 01-6.15 1.372 6.845 6.845 0 01-4.037-3.102 6.64 6.64 0 01-.677-1.613 6.74 6.74 0 016.497-8.52 6.711 6.711 0 012.335.41 6.524 6.524 0 012.032 1.203l-1.381 2.264a3.797 3.797 0 00-1.355-.945 4.156 4.156 0 00-5.784 3.815c0 .551.111 1.097.33 1.604.21.49.513.934.891 1.31.377.38.825.683 1.319.891a3.895 3.895 0 001.613.33 4.21 4.21 0 001.631-.33 3.94 3.94 0 001.355-.953l1.381 2.264zm4.02 1.337h-2.478v-9.733h.606l.81 1.159a4.35 4.35 0 012.942-1.14h2.192v2.477h-2.192a1.88 1.88 0 00-1.88 1.871v5.366zm7.797 3.707v-2.504h1.382c.237.002.472-.037.695-.116.223-.08.433-.19.624-.33.39-.278.687-.666.856-1.114l-.83.348a2.21 2.21 0 01-.89.169 4.455 4.455 0 01-1.694-.32 3.983 3.983 0 01-1.381-.892 4.056 4.056 0 01-.882-1.408 4.877 4.877 0 01-.348-1.88v-5.348h2.478v5.347c-.008.304.044.607.151.891.086.24.223.46.401.642.167.174.371.309.597.392.235.084.482.126.731.125.251-.002.499-.063.722-.178a2.28 2.28 0 00.597-.464c.166-.197.299-.42.392-.66.098-.24.15-.497.152-.757v-5.347h2.495v8.502a4.896 4.896 0 01-3.021 4.528 4.876 4.876 0 01-1.934.392l-1.292-.018zm10.927 0h-2.504v-13.44h.606l.99 1.177a6.08 6.08 0 01.73-.597c.26-.19.538-.355.83-.49a5.41 5.41 0 01.89-.322c.306-.08.62-.122.936-.124a4.938 4.938 0 011.925.374 4.742 4.742 0 011.596 1.016 5.142 5.142 0 011.069 1.622c.266.675.396 1.396.383 2.121a5.678 5.678 0 01-.383 2.157 4.992 4.992 0 01-1.07 1.631 4.722 4.722 0 01-1.586 1.025 5.274 5.274 0 01-1.925.348 2.674 2.674 0 01-.65-.072 3.99 3.99 0 01-.633-.196 5.531 5.531 0 01-.624-.276 7.338 7.338 0 01-.58-.321v4.367zm4.965-8.663a2.908 2.908 0 00-.188-1.07 2.318 2.318 0 00-.534-.89 2.372 2.372 0 00-.793-.526 2.674 2.674 0 00-1.925 0 2.334 2.334 0 00-1.31 1.417 3.162 3.162 0 000 2.192c.116.31.295.592.525.83a2.487 2.487 0 002.674.543 2.408 2.408 0 001.319-1.373c.135-.346.201-.715.196-1.087m9.002 4.92a4.287 4.287 0 01-1.694-.34 4.376 4.376 0 01-1.38-.944 4.216 4.216 0 01-.892-1.381 4.134 4.134 0 01-.339-1.694v-2.878H78.3V10.57h1.212V6.684h2.469v3.886h3.76v2.478h-3.734v2.878c-.003.254.045.506.143.74.096.22.232.419.401.588.173.172.375.31.597.41.234.1.486.151.74.152h1.88v2.469h-1.88zm12.967-4.955a5.232 5.232 0 01-1.452 3.662 4.884 4.884 0 01-3.52 1.47 4.83 4.83 0 01-1.926-.392 5.01 5.01 0 01-1.577-1.078 5.08 5.08 0 01-1.07-1.63 5.257 5.257 0 01-.392-2.033 5.347 5.347 0 01.392-2.05 4.892 4.892 0 011.07-1.63 5.01 5.01 0 011.577-1.079 4.831 4.831 0 011.925-.392 5.028 5.028 0 011.943.374c.593.23 1.13.582 1.578 1.034a4.972 4.972 0 011.06 1.622c.267.672.4 1.39.392 2.112v.01zm-2.495-.01a3.066 3.066 0 00-.196-1.06 2.674 2.674 0 00-.535-.83 2.273 2.273 0 00-.784-.534 2.549 2.549 0 00-1.916 0 2.273 2.273 0 00-.785.535 2.61 2.61 0 00-.517.829 2.877 2.877 0 00-.196 1.087c-.004.36.062.717.197 1.052.118.306.293.587.516.828.22.24.487.431.785.562.3.135.624.205.953.205.33.003.658-.061.963-.187.295-.128.561-.313.784-.544.23-.239.412-.52.535-.829.127-.354.187-.729.178-1.105M49.78 37.539h-2.673v-9.305c0-.175-.036-.348-.107-.508a1.442 1.442 0 00-.277-.41 1.228 1.228 0 00-.419-.276 1.176 1.176 0 00-.508-.098 1.23 1.23 0 00-.508.098 1.29 1.29 0 00-.686.686 1.23 1.23 0 00-.098.508v9.305H41.93v-9.305a1.403 1.403 0 00-.098-.508 1.446 1.446 0 00-.277-.41 1.23 1.23 0 00-.419-.276 1.177 1.177 0 00-.508-.098 1.23 1.23 0 00-.508.098 1.29 1.29 0 00-.686.686 1.23 1.23 0 00-.098.508v9.305h-2.611v-9.305a3.77 3.77 0 01.303-1.515 3.913 3.913 0 015-2.13c.447.17.859.425 1.212.749a3.842 3.842 0 011.194-.749 3.94 3.94 0 012.914.045c.465.197.889.482 1.248.837.355.358.636.782.829 1.248.207.478.313.994.312 1.515l.044 9.305zm11.63 0h-.596l-.963-1.337c-.24.211-.49.41-.749.597a5.218 5.218 0 01-.837.481c-.288.133-.586.24-.892.321-.29.075-.59.114-.89.116a5.502 5.502 0 01-1.926-.339 4.555 4.555 0 01-1.578-1.007 4.644 4.644 0 01-1.114-1.613 5.73 5.73 0 01-.392-2.175 5.453 5.453 0 01.392-2.076 4.892 4.892 0 011.07-1.631 4.688 4.688 0 011.578-1.06 4.972 4.972 0 011.925-.375 3.71 3.71 0 01.944.116c.308.08.606.19.892.33.293.137.574.301.837.49.26.184.508.387.74.606l.962-1.159h.598v9.715zm-2.495-4.956a2.674 2.674 0 00-.196-.98 2.969 2.969 0 00-.535-.891 2.556 2.556 0 00-.784-.588 2.094 2.094 0 00-.962-.223 2.62 2.62 0 00-.954.17 2.211 2.211 0 00-.784.507c-.225.24-.4.521-.517.829a3.386 3.386 0 000 2.273c.114.308.29.59.517.828.222.224.49.397.784.508.304.116.628.173.953.17.335.003.665-.073.963-.223.297-.144.563-.343.784-.588.225-.25.406-.536.535-.847.128-.314.194-.65.196-.99m14.099 3.771a4.653 4.653 0 01-.392 1.925 4.919 4.919 0 01-2.674 2.673 4.796 4.796 0 01-1.925.393h-1.248v-2.531h1.23c.336.006.67-.046.99-.152.252-.091.486-.23.686-.41.184-.172.337-.374.454-.597a4.45 4.45 0 00.268-.704c-.106.16-.25.292-.42.383a3.065 3.065 0 01-.605.24 2.924 2.924 0 01-.686.134 6.058 6.058 0 01-.669 0 5.348 5.348 0 01-1.934-.347 4.645 4.645 0 01-2.62-2.558 5.676 5.676 0 01-.392-2.157c-.004-.7.129-1.392.392-2.04a5.027 5.027 0 012.674-2.719 4.867 4.867 0 011.934-.383c.3.002.6.041.89.116.308.081.606.191.892.33.29.139.567.303.829.49.262.182.51.385.74.606l.962-1.159h.597l.027 8.467zm-2.495-3.726a2.504 2.504 0 00-.197-.98 2.67 2.67 0 00-.534-.891 2.557 2.557 0 00-.784-.588 2.06 2.06 0 00-.954-.223 2.675 2.675 0 00-.963.17 2.174 2.174 0 00-.775.507c-.23.237-.41.52-.526.829a3.257 3.257 0 00-.187 1.132c0 .391.075.779.223 1.14.114.311.293.594.526.83.217.23.481.413.775.534.305.125.632.189.962.187.332.004.659-.072.954-.222a2.56 2.56 0 00.784-.589 2.67 2.67 0 00.535-.846 2.51 2.51 0 00.196-.99m14.073 4.956h-.606l-.962-1.337a7.13 7.13 0 01-.749.597 5.07 5.07 0 01-.829.481c-.287.132-.585.24-.89.321a3.69 3.69 0 01-.892.116 5.464 5.464 0 01-1.925-.339 4.68 4.68 0 01-1.587-1.007 4.768 4.768 0 01-1.114-1.613 5.74 5.74 0 01-.338-2.175 5.445 5.445 0 01.383-2.076 5.035 5.035 0 011.07-1.631 4.813 4.813 0 011.586-1.06 4.936 4.936 0 011.925-.375c.3.002.6.041.891.116.307.08.606.19.891.33.291.137.569.301.83.49.261.182.509.385.739.606l.962-1.159h.606l.01 9.715zm-2.504-4.956a2.506 2.506 0 00-.196-.98 2.763 2.763 0 00-.526-.891 2.67 2.67 0 00-.784-.588 2.121 2.121 0 00-.963-.223 2.586 2.586 0 00-.953.17 2.21 2.21 0 00-.785.507 2.54 2.54 0 00-.525.829 3.564 3.564 0 000 2.273c.117.309.296.59.525.828a2.2 2.2 0 00.785.508c.304.117.628.174.953.17a2.13 2.13 0 00.963-.223 2.672 2.672 0 001.31-1.435c.131-.313.198-.65.196-.99m12.281 5.001h-8.11l4.1-7.237h-4.1v-2.478h8.11l-4.1 7.246h4.1v2.469zm4.599-12.371c.002.221-.044.44-.134.642a1.782 1.782 0 01-.357.526 1.87 1.87 0 01-.534.356 1.659 1.659 0 01-1.827-.356 1.666 1.666 0 01-.357-.526 1.523 1.523 0 01-.125-.642 1.603 1.603 0 01.482-1.167c.15-.152.329-.273.526-.357a1.674 1.674 0 012.192.892c.088.202.134.42.134.641v-.009zm-.428 12.38H96.07v-9.742h2.505v9.741zm4.679-.009h-2.495v-9.733h.597l.82.945a4.54 4.54 0 011.355-.838 4.35 4.35 0 011.586-.294 4.272 4.272 0 011.684.339 4.339 4.339 0 012.309 2.344 4.19 4.19 0 01.338 1.693v5.561h-2.477v-5.579a1.826 1.826 0 00-.143-.722 2.064 2.064 0 00-.401-.597 1.877 1.877 0 00-3.191 1.319l.018 5.562zm12.13-2.379c.092.03.188.05.285.062h.294c.235-.001.469-.034.695-.099a2.63 2.63 0 00.633-.285c.197-.124.374-.277.526-.454.157-.179.286-.38.383-.597l1.782 1.782a4.365 4.365 0 01-.793.891 4.954 4.954 0 01-3.253 1.212 4.895 4.895 0 01-4.581-3.065 5.364 5.364 0 01-.392-2.068 5.546 5.546 0 01.392-2.103 4.842 4.842 0 012.647-2.674 5.01 5.01 0 011.934-.366c.4-.002.798.046 1.186.143.384.093.755.234 1.105.419.353.181.682.406.98.668.304.26.571.56.793.892l-4.616 5.641zm1.239-5.116a1.179 1.179 0 00-.339-.08h-.348a2.5 2.5 0 00-.962.187 2.34 2.34 0 00-1.301 1.363c-.13.348-.193.716-.188 1.087v.66l.081.347c.026.1.065.196.115.286l2.942-3.85z" fill="#fff"/></svg>