<svg width="40" height="40" fill="none" xmlns="http://www.w3.org/2000/svg"><path d="M29.351 0H10.667C3.857 0 0 3.858 0 10.667v18.666C0 36.143 3.858 40 10.667 40H29.35C36.16 40 40 36.142 40 29.333V10.667C40 3.857 36.16 0 29.351 0z" fill="#2DDD9D"/><path d="M10.737 14.738c-.906 0-1.653.747-1.653 1.671v13.742a1.662 1.662 0 003.324 0V16.41a1.67 1.67 0 00-1.67-1.671zm9.333-6.56c-.906 0-1.653.747-1.653 1.671v20.302a1.662 1.662 0 003.324 0V9.85a1.67 1.67 0 00-1.67-1.671zm9.21 13.813a1.67 1.67 0 00-1.672 1.671v6.49a1.662 1.662 0 003.325 0v-6.49c0-.924-.747-1.67-1.654-1.67z" fill="#3F408C"/></svg>