<svg width="110" height="28" fill="none" xmlns="http://www.w3.org/2000/svg"><g clip-path="url(#clip0)" fill="#fff"><path d="M0 27.26c.263-1.57.517-3.055.77-4.53.678-3.936 1.36-7.865 2.05-11.788.066-.367.188-.498.555-.498h23.359c.13.009.258.028.385.056-.31 1.777-.601 3.525-.94 5.273-.338 1.749-.573 3.648-.94 5.452a7.643 7.643 0 01-7.379 6.035H0zm3.28-19.1c.216-1.317.423-2.576.64-3.836.216-1.26.45-2.481.63-3.76C4.623.15 4.783 0 5.244 0h17.447a5.057 5.057 0 015.179 5.856c-.085.752-.226 1.504-.348 2.285L3.28 8.159zm28.239 13V7.868a3.61 3.61 0 01.441-.057c1.956 0 3.93-.084 5.866.104a5.97 5.97 0 015.556 5.94 9.326 9.326 0 01-.414 3.178 5.697 5.697 0 01-4.7 3.995c-.4.078-.806.12-1.213.122-1.87.019-3.666.01-5.536.01zm2.51-2.426h2.622a3.92 3.92 0 004.24-4.014 3.91 3.91 0 00-3.29-4.38 25.211 25.211 0 00-3.582 0l.01 8.394zM77.081 7.858c2.378 0 4.7-.15 7.013.047a4.455 4.455 0 014.117 5.067 4.588 4.588 0 01-4.7 4.258H79.61v3.873h-2.53V7.858zm2.51 7.013c1.457 0 2.82.085 4.202 0a2.106 2.106 0 001.88-2.303 2.162 2.162 0 00-2.012-2.294c-1.363-.094-2.735 0-4.136 0l.066 4.597zm17.146-3.093h2.143v9.335h-2.134l-.103-.94c-.694.446-1.435.815-2.21 1.1-2.904.752-5.339-1.138-5.64-4.277-.375-3.629 2.623-6.308 5.97-5.293.655.253 1.284.568 1.88.94l.094-.865zm-.17 4.7a2.734 2.734 0 00-3.76-2.56 2.736 2.736 0 103.76 2.56zm-41.934 4.644H52.51l-.141-1.1c-2.18 1.88-4.916 1.833-6.627 0a5.64 5.64 0 01.066-7.134 4.766 4.766 0 016.58-.047l.15-1.053h2.143l-.047 9.334zm-7.774-4.7a2.736 2.736 0 105.472 0 2.736 2.736 0 00-5.472 0zm54.878 8.658c.545-1.288 1.072-2.426 1.523-3.6a1.52 1.52 0 000-.997c-1.062-2.68-2.153-5.34-3.234-8.009-.084-.207-.16-.414-.282-.733h2.463c.15 0 .348.31.423.507.62 1.758 1.231 3.525 1.88 5.283.075.226.16.46.291.809l.433-1.081c.686-1.692 1.372-3.375 2.04-5.076a.61.61 0 01.686-.48h2.068c-.094.263-.16.47-.245.668-1.729 4.023-3.468 8.046-5.179 12.088a.818.818 0 01-.94.602c-.62-.01-1.203.018-1.927.018zM55.724 13.93v-2.039h1.701c-.084-1.823.357-3.43 2.237-4.051a4.164 4.164 0 013.76.545l-.817 1.683c-.79-.33-1.58-.753-2.35-.123-.583.47-.555 1.175-.49 1.927h2.172c.451 0 .602.15.574.583-.029.432 0 .893 0 1.438h-2.755v7.238h-2.284v-7.2h-1.748zm10.866-1.362c1.608-1.316 3.63-1.382 4.936-.094l-.94 1.795a10.827 10.827 0 00-1.88-.385 1.986 1.986 0 00-2.19 2.096c-.047 1.457 0 2.924 0 4.39v.799H64.55a.498.498 0 01-.348-.357v-9.043a11.03 11.03 0 011.88 0c.16.047.3.498.508.799zm8.122 8.554h-2.237v-9.344h2.237v9.344zM73.593 10.5a1.306 1.306 0 01-1.391-1.326 1.372 1.372 0 112.735 0 1.289 1.289 0 01-1.344 1.326z"/></g><defs><clipPath id="clip0"><path fill="#fff" d="M0 0h110v27.251H0z"/></clipPath></defs></svg>