<svg width="140" height="16" fill="none" xmlns="http://www.w3.org/2000/svg"><g clip-path="url(#clip0)" fill="#fff"><path d="M19.105 4.132h3.481a5.035 5.035 0 013.476 1.166 4.02 4.02 0 011.311 3.158 4.283 4.283 0 01-1.403 3.315 5.073 5.073 0 01-3.56 1.281h-3.305v-8.92zm3.481 7.103a2.406 2.406 0 001.79-.67 2.558 2.558 0 00.667-1.875 2.744 2.744 0 00-.712-2.02 2.577 2.577 0 00-1.918-.721h-1.085v5.287h1.258zm12.392-4.921v6.738h-2.061v-.84a2.572 2.572 0 01-2.142 1.057 2.787 2.787 0 01-2.094-.901 3.19 3.19 0 01-.862-2.296 3.572 3.572 0 011.126-2.688A3.776 3.776 0 0131.656 6.3c.653.01 1.299.129 1.912.352l1.41-.339zm-2.142 4.664V8.253a2.203 2.203 0 00-1.152-.328 1.602 1.602 0 00-1.173.46 1.822 1.822 0 00-.468 1.356c-.025.473.122.94.413 1.314a1.389 1.389 0 001.12.488 1.556 1.556 0 001.26-.565zm5.801-5.66c-.2.255-.297.577-.27.901v.328h2.29V8.2h-2.292v4.852h-2.141V6.301c0-1.962.994-2.943 2.982-2.943.686-.005 1.368.1 2.02.313v1.68a4.842 4.842 0 00-1.708-.328 1.158 1.158 0 00-.881.295zm7.469 1.105v2.074a2.943 2.943 0 00-.963-.163 2.012 2.012 0 00-1.873 1.07v3.648h-2.14V6.749l2.06-.435v1.508c.232-.435.562-.811.963-1.098.343-.25.756-.388 1.18-.393.26-.003.52.028.773.092zm.698-1.011a1.102 1.102 0 01-.36-.847 1.128 1.128 0 01.36-.847 1.227 1.227 0 01.888-.346 1.25 1.25 0 01.894.346 1.115 1.115 0 01.366.847 1.092 1.092 0 01-.366.847 1.283 1.283 0 01-.894.333c-.328.01-.647-.11-.888-.333zm-.17 1.337l2.142-.435v6.738h-2.142V6.75zm2.697-.801V4.13h8.203v1.817H54.55v7.104h-2.224V5.948H49.33zm15.413 6.182a4.908 4.908 0 01-3.295 1.192 4.085 4.085 0 01-2.772-.921 3.086 3.086 0 01-1.061-2.454 3.467 3.467 0 011.105-2.623 3.825 3.825 0 012.745-1.05 3.311 3.311 0 012.325.814 2.754 2.754 0 01.888 2.128c.008.395-.066.788-.217 1.153H59.78c.262.867.972 1.301 2.128 1.301a4.178 4.178 0 002.099-.61l.737 1.07zm-4.318-4.074a1.62 1.62 0 00-.656.887h3.037c-.03-.33-.18-.64-.42-.868a1.326 1.326 0 00-.936-.327 1.836 1.836 0 00-1.025.308zm5.63 4.332a3.189 3.189 0 01-.99-2.426 3.487 3.487 0 011.097-2.65 3.764 3.764 0 012.685-1.038 5.029 5.029 0 012.278.541v1.843a3.226 3.226 0 00-1.993-.678 1.907 1.907 0 00-1.356.482 1.655 1.655 0 00-.516 1.268 1.756 1.756 0 00.489 1.311 1.81 1.81 0 001.328.481 3.308 3.308 0 001.83-.597l.787 1.192A4.29 4.29 0 0170.3 13a4.4 4.4 0 01-1.654.328 3.613 3.613 0 01-2.59-.939zM78.42 7.053c.493.577.742 1.324.691 2.081v3.919H76.97V9.799c0-1.121-.388-1.681-1.165-1.681a1.86 1.86 0 00-1.48.8v4.135h-2.14V3.914l2.14-.433v3.837a3.036 3.036 0 012.32-.99 2.345 2.345 0 011.775.725zm8.039 0a2.9 2.9 0 01.69 2.081v3.918h-2.143V9.799c0-1.121-.388-1.681-1.166-1.68a1.892 1.892 0 00-1.464.772v4.162h-2.14V6.749l2.06-.435v1.084c.29-.343.657-.615 1.07-.792a3.255 3.255 0 011.316-.279 2.348 2.348 0 011.777.726zm2.431 5.294a3.157 3.157 0 01-1.079-2.441 3.402 3.402 0 011.115-2.596 3.917 3.917 0 012.78-1.037 3.84 3.84 0 012.689.983 3.179 3.179 0 011.078 2.448 3.391 3.391 0 01-1.115 2.583 3.918 3.918 0 01-2.78 1.036 3.862 3.862 0 01-2.689-.976zm3.966-1.119c.296-.38.446-.854.42-1.335a2.234 2.234 0 00-.454-1.477 1.534 1.534 0 00-1.242-.543 1.432 1.432 0 00-1.152.496 2.016 2.016 0 00-.42 1.348 2.207 2.207 0 00.454 1.465 1.53 1.53 0 001.24.541 1.436 1.436 0 001.154-.495zm3.372-7.314l2.142-.433v9.574h-2.142v-9.14zm3.981 8.433a3.162 3.162 0 01-1.077-2.441 3.402 3.402 0 011.115-2.596 3.913 3.913 0 012.779-1.037 3.843 3.843 0 012.688.983 3.175 3.175 0 011.078 2.448 3.395 3.395 0 01-1.115 2.583 3.918 3.918 0 01-2.78 1.036 3.861 3.861 0 01-2.688-.976zm3.966-1.119c.297-.38.446-.854.421-1.335a2.232 2.232 0 00-.455-1.477 1.525 1.525 0 00-1.243-.545 1.429 1.429 0 00-1.152.495 2.017 2.017 0 00-.421 1.348 2.216 2.216 0 00.458 1.467 1.529 1.529 0 001.24.542 1.43 1.43 0 001.151-.495h.001zm11.306-2.88l-1.586-.109c.251.357.384.784.379 1.22a2.436 2.436 0 01-.99 1.968 3.858 3.858 0 01-2.508.8 2.847 2.847 0 01-.328-.014l-1.057 1.682a5.474 5.474 0 013.104-1.018c1.662 0 2.561.919 2.699 2.755l-2.238.271a1.384 1.384 0 00-.441-.962 1.508 1.508 0 00-.929-.258 6.014 6.014 0 00-3.131.963l-1.302-.831 1.342-3.187a2.56 2.56 0 01-1.356-2.291 2.715 2.715 0 011.024-2.129 3.778 3.778 0 012.557-.881c.461-.002.919.072 1.356.218h3.403l.002 1.803zm-3.688 1.999a1.274 1.274 0 00.421-1.01 1.379 1.379 0 00-.447-1.071 1.557 1.557 0 00-1.085-.407c-.385-.01-.76.125-1.049.38a1.294 1.294 0 00-.427 1.017 1.34 1.34 0 00.459 1.057 1.61 1.61 0 001.099.407c.377.01.744-.124 1.027-.373h.002zm4.273-4.934a1.093 1.093 0 01-.359-.848 1.13 1.13 0 01.359-.847 1.219 1.219 0 01.888-.346 1.25 1.25 0 01.895.346 1.113 1.113 0 01.366.847 1.104 1.104 0 01-.366.848 1.281 1.281 0 01-.895.332 1.26 1.26 0 01-.888-.332zm-.169 1.336l2.142-.435v6.738h-2.142V6.75zm10.046 5.381a4.912 4.912 0 01-3.296 1.192 4.086 4.086 0 01-2.772-.921 3.09 3.09 0 01-1.064-2.454 3.473 3.473 0 011.105-2.623 3.83 3.83 0 012.746-1.05 3.31 3.31 0 012.325.814 2.753 2.753 0 01.888 2.129c.008.394-.066.787-.218 1.152h-4.677c.263.867.972 1.301 2.129 1.301a4.173 4.173 0 002.098-.61l.736 1.07zm-4.319-4.074a1.62 1.62 0 00-.656.887h3.037c-.03-.33-.18-.64-.421-.868a1.323 1.323 0 00-.935-.327 1.841 1.841 0 00-1.025.308zm6.14 5.002a6.195 6.195 0 01-1.579-.655l.555-1.275a6.16 6.16 0 002.885.691c.815 0 1.221-.185 1.221-.556a.333.333 0 00-.244-.332 4.783 4.783 0 00-.895-.17 12.742 12.742 0 00-.366-.04 8.93 8.93 0 01-1.181-.23 4.367 4.367 0 01-.914-.366 1.594 1.594 0 01-.645-.61 1.77 1.77 0 01-.216-.896 2.008 2.008 0 01.852-1.722 3.911 3.911 0 012.346-.623 6.89 6.89 0 012.725.542V8.43a4.312 4.312 0 00-1.246-.495 6.094 6.094 0 00-1.452-.183c-.84 0-1.26.19-1.26.57a.343.343 0 00.278.345c.349.09.705.156 1.064.197.361.054.66.104.895.149.278.056.552.13.82.223.266.08.517.206.739.372.194.16.353.36.469.583.134.26.202.549.196.84a1.965 1.965 0 01-.834 1.675 3.792 3.792 0 01-2.295.617c-.649 0-1.294-.09-1.918-.265zM.032 1.23c.512.52.987 1.006 1.467 1.488 3.07 3.071 6.142 6.141 9.216 9.21a.28.28 0 01.047.422 5.293 5.293 0 01-1.817 1.786.257.257 0 01-.374-.045 7047.17 7047.17 0 00-8.458-8.47.374.374 0 01-.107-.236 548.322 548.322 0 010-4.022.977.977 0 01.026-.133zm11.463 9.281l-9.294-9.3c-.02.019-.01 0 0 0 1.415.013 2.835-.022 4.25.054a5.028 5.028 0 013.943 2.046 6.482 6.482 0 011.19 3.12c.074.566.07 1.14.097 1.712a9.647 9.647 0 01-.186 2.368zM0 7.682l7.1 7.139c-.573.052-1.14.14-1.708.146-1.731.017-3.463 0-5.195 0-.225 0-.197-.136-.197-.27l.01-5.102c0-.55-.007-1.098-.01-1.647v-.266zm137.556-4.979h-.341v.573h-.427V1.563h.83c.18-.01.358.043.503.15a.5.5 0 01.183.407.515.515 0 01-.088.297.584.584 0 01-.24.204l.401.655h-.501l-.32-.573zm-.341-.339h.365a.303.303 0 00.203-.065.21.21 0 00.055-.078.203.203 0 00.017-.094.196.196 0 00-.017-.093.212.212 0 00-.057-.074.307.307 0 00-.201-.062h-.365v.466z"/><path d="M137.581 4.84a2.424 2.424 0 01-2.419-2.419 2.425 2.425 0 012.419-2.419 2.42 2.42 0 010 4.838zm0-4.492a2.077 2.077 0 00-2.073 2.073 2.072 2.072 0 003.539 1.466 2.075 2.075 0 00-1.466-3.541v.002z"/></g><defs><clipPath id="clip0"><path fill="#fff" d="M0 0h140v15.9H0z"/></clipPath></defs></svg>