<svg width="100" height="53" fill="none" xmlns="http://www.w3.org/2000/svg"><g clip-path="url(#clip0)" fill="#fff"><path d="M34.871 8.41c.745-.164 1.49-.327 2.236-.467a49.954 49.954 0 0110.855-.955 41.37 41.37 0 0111.647 1.875c.827.268.827.268 1.048 1.083 1.413 5.016 2.81 10.02 4.193 15.013.042.125.073.254.093.385h-.07a.874.874 0 00-.105-.175 35.408 35.408 0 00-8.222-7.594 57.07 57.07 0 00-11.647-6.01 80.607 80.607 0 00-9.655-3.028l-.396-.105.023-.023z"/><path d="M27.824 16.504a4.216 4.216 0 01-.443-2.178 2.644 2.644 0 012.167-2.33c.358-.107.737-.13 1.106-.07l-.42.385c-.384.36-.791.71-1.164 1.165-.307.312-.49.726-.512 1.164-.01.16-.01.319 0 .478l.326-.094c.57-.22 1.165-.442 1.712-.687a15.701 15.701 0 016.324-1.164c2.7.072 5.373.568 7.92 1.467a49.678 49.678 0 0111.32 5.51c2.19 1.408 4.287 2.934 6.36 4.507.35.267.687.57 1.165.92H49.674a1.527 1.527 0 01-1.165-.56l-.233-.29a22.362 22.362 0 00-12.323-8.91 21.775 21.775 0 00-3.342-.78 5.242 5.242 0 00-4.659 1.373l-.128.094zm46.949 36.315l-1.62-.944a1.818 1.818 0 010-.175 17.178 17.178 0 001.701-4.984c.416-2.191.576-4.423.478-6.65a10.695 10.695 0 00-.396-2.715 6.99 6.99 0 00-.431-1.06 2.959 2.959 0 00-4.927-.186 5.66 5.66 0 00-.745 1.945 11.185 11.185 0 00-.21 2.33v3.307h4.752v1.852H68.6v3.855h-4.38v-8.269a8.993 8.993 0 01.781-3.704 7.408 7.408 0 017.21-4.402 7.128 7.128 0 015.73 3.086 8.968 8.968 0 011.712 5.137 15.303 15.303 0 01-1.7 7.232 14.186 14.186 0 01-2.808 4.018 4.413 4.413 0 00-.372.327zM0 49.371V33.38h7.198a8.456 8.456 0 016.405 2.83 7.827 7.827 0 01-1.735 11.81 8.375 8.375 0 01-4.565 1.386H.314L0 49.37zm4.426-1.537a20.24 20.24 0 002.061 0 4.659 4.659 0 001.98-.723 5.206 5.206 0 002.155-2.911 9.177 9.177 0 000-5.649 5.078 5.078 0 00-2.47-3.086 5.37 5.37 0 00-2.329-.594h-1.35l-.047 12.963zm23.329-8.537c.116-.21.21-.362.302-.501l1.165-2.015a.443.443 0 01.454-.256h1.083c.094.337.105 12.322 0 12.811h-3.645V47.95c-.095.07-.185.148-.268.233a4.214 4.214 0 01-3.098 1.456 6.092 6.092 0 01-2.784-.454 5.638 5.638 0 01-3.12-3.145 7.895 7.895 0 010-6.196 5.823 5.823 0 016.288-3.576 4.402 4.402 0 013.494 2.54c0 .07.059.15.094.22l.035.269zm-6.79 3.878c0 .35.07.943.163 1.526.097.76.372 1.486.803 2.12a2.446 2.446 0 003.948.08 5.15 5.15 0 00.816-1.641 8.875 8.875 0 00.198-4.135 5.977 5.977 0 00-.606-1.782 2.597 2.597 0 00-4.542 0 5.3 5.3 0 00-.396.908 9.829 9.829 0 00-.385 2.924zM62.206 1.06l-.28.314c-1.281 1.293-2.574 2.574-3.843 3.879a.699.699 0 01-.653.21c-1.607-.222-3.203-.455-4.798-.618a43.207 43.207 0 00-12.497.617 33.322 33.322 0 00-9.854 3.634.536.536 0 01-.29.093l.244-.256a32.355 32.355 0 0113.417-7.652 34.65 34.65 0 0110.54-1.28 44.34 44.34 0 017.64.943l.373.116zM38.877 36.513h3.855v1.49h-3.879v11.368H35.08V38.027h-2.33c-.058-.512 0-.978 0-1.468a5.67 5.67 0 011.165 0h1.165c0-.558.07-1.071.128-1.583.06-.654.209-1.297.443-1.91a4.437 4.437 0 013.202-2.912 9.562 9.562 0 015.183.07c.74.219 1.429.583 2.027 1.071l-2.097 3.494c-.093-.43-.14-.757-.233-1.083a2.959 2.959 0 00-.78-1.42 2.48 2.48 0 00-2.784-.397 1.78 1.78 0 00-.826.99 7.25 7.25 0 00-.315 1.165c-.062.444-.1.891-.116 1.34-.047.349-.035.721-.035 1.129zm14.698 4.647l-.373-1.025a4.1 4.1 0 00-1.164-1.782 1.642 1.642 0 00-2.178.093 2.71 2.71 0 00-.548.757 7.27 7.27 0 00-.489 1.386 9.71 9.71 0 00-.256 2.4v6.382H44.7V36.559h1.281c.187 0 .222.152.28.268l1.165 2.26.22.407.176-.279c.287-.514.602-1.012.943-1.49a3.877 3.877 0 012.993-1.457 5.824 5.824 0 012.76.513c.48.174.89.502 1.165.931l-2.108 3.448zM100 37.69c-.675 1.164-1.35 2.259-2.073 3.493l-.093-.326c-.221-.512-.431-1.036-.664-1.537a2.725 2.725 0 00-.815-.967 1.654 1.654 0 00-2.178.093 3.178 3.178 0 00-.78 1.247 7.745 7.745 0 00-.478 2.573v7.07h-3.774c-.081-.303-.105-12.23 0-12.811h1.282c.093 0 .21.163.256.267.396.734.768 1.48 1.164 2.225l.245.43c.082-.162.14-.279.21-.395.235-.43.495-.847.78-1.246a3.925 3.925 0 013.18-1.608 5.893 5.893 0 012.713.536c.44.194.801.53 1.025.955zm-42.768-1.119h3.74v12.812a30.363 30.363 0 01-3.74 0V36.57z"/><path d="M45.866 23.643l-1.41.245a19.568 19.568 0 01-4.286.29c-.36 0-.733-.069-1.095-.127a5.602 5.602 0 01-3.61-2.33 6.792 6.792 0 01-.338-.465 5.823 5.823 0 00-4.426-2.703 7.115 7.115 0 01-2.527-.791l-.221-.164-.058-.104a6.892 6.892 0 011.362-.21 19.73 19.73 0 019.003 1.572 29.618 29.618 0 017.49 4.59l.139.092-.023.105zm40.018 25.728h-3.739V36.618a26.535 26.535 0 013.74 0V49.37zM61.17 33.415a2.073 2.073 0 01-4.135 0 2.073 2.073 0 014.135 0zm22.85-2.038a2.062 2.062 0 11-2.061 2.05 2.039 2.039 0 012.061-2.05zM32.215 10.96l5.94-1.072v.07a4.26 4.26 0 01-.396.21 5.439 5.439 0 00-1.48 1.001 2.9 2.9 0 01-3.971 0 .959.959 0 01-.093-.21z"/></g><defs><clipPath id="clip0"><path fill="#fff" d="M0 0h100v52.819H0z"/></clipPath></defs></svg>