<svg width="110" height="30" fill="none" xmlns="http://www.w3.org/2000/svg"><g clip-path="url(#clip0)" fill="#fff"><path d="M38.756 0c.733 1.145 1.43 2.298 2.19 3.425a529.327 529.327 0 004.91 7.154c.152.223.34.429.608.778.635-.894 1.198-1.637 1.735-2.415.742-1.082 1.458-2.173 2.2-3.246.134-.188.366-.429.554-.429h3.917s.08.072.224.188a66.53 66.53 0 01-1.789 2.683c-1.35 1.967-2.683 3.961-4.069 5.893a1.162 1.162 0 000 1.582 345.868 345.868 0 015.151 7.458c.2.284.28.633.224.975-.054.179-.555.304-.895.313-3.067.071-3.058.063-4.793-2.53-.733-1.154-1.529-2.281-2.423-3.533-.24.242-.463.5-.67.77-2.281 3.299-4.561 6.59-6.806 9.916a1.52 1.52 0 01-1.475.76h-3.577c.599-.894 1.082-1.699 1.6-2.459 2.728-3.952 5.446-7.914 8.2-11.849a.966.966 0 00-.098-1.296C40.443 9.428 37.212 4.716 33.981 0h4.775zM0 8.2a44.962 44.962 0 016.117.099c2.96.41 4.64 3.085 4.363 6.43a5.472 5.472 0 01-5.463 5.159c-1.673.045-3.345.063-5.017.09V8.2zm2.253 9.55c1.002 0 1.941.054 2.862 0 1.788-.134 2.978-1.394 3.192-3.38.188-1.788-.795-3.576-2.342-3.898a26.26 26.26 0 00-3.712-.322v7.6zm96.604-6.92l1.404 1.027a2.297 2.297 0 01-.277.457 1.064 1.064 0 00-.143 1.475 3.787 3.787 0 01-1.082 4.802v.152a3.05 3.05 0 011.341 3.613 3.573 3.573 0 01-3.13 2.638c-2.485.474-4.766-.94-5.052-3.121a4.008 4.008 0 010-.465h1.878c.698 1.511 1.6 2.012 3.005 1.636a1.717 1.717 0 001.377-1.716 1.663 1.663 0 00-1.467-1.539c-.438-.08-.894-.089-1.35-.152a3.765 3.765 0 01-3.47-3.854 3.98 3.98 0 013.255-4.355 4.882 4.882 0 012.102.063c.653.206 1.001.116 1.314-.438.045-.072.161-.117.295-.224zm-.652 4.73a2.155 2.155 0 00-2.147-2.352 2.207 2.207 0 00-2.146 2.378 2.146 2.146 0 002.173 2.245 2.1 2.1 0 002.12-2.271zm-79.551 4.274l-.134-.957a3.756 3.756 0 01-3.237 1.252 3.864 3.864 0 01-3.005-1.69 4.963 4.963 0 01.537-5.92c1.484-1.421 3.702-1.457 5.642-.044l.206-.832h1.842v8.191h-1.85zm-.197-4.14a2.414 2.414 0 10-4.828 0 2.414 2.414 0 004.828 0zm60.119-3.174l.117-.895h1.86v8.191h-1.789l-.179-.939a3.791 3.791 0 01-3.523 1.19 3.855 3.855 0 01-2.495-1.288 5.026 5.026 0 01.17-6.09c1.484-1.6 3.81-1.681 5.84-.17zm0 3.254a2.433 2.433 0 10-4.855 0 2.433 2.433 0 104.855 0zm-8.244 4.069h-2.04v-4.418c-.062-1.26-.706-1.985-1.788-2.003a1.995 1.995 0 00-2.12 1.968c-.062 1.162 0 2.334 0 3.496v.895h-2.056V8.155h2.021v4.15a12.28 12.28 0 012.352-.814 3.031 3.031 0 013.577 2.683c.062.294.104.593.125.894a119.93 119.93 0 00-.072 4.775zm39.659-3.371h-6.545c.223 1.788 2.369 2.298 4.641 1.046l1.073 1.324c-1.145 1.27-3.631 1.68-5.545.894-1.681-.733-2.557-2.415-2.369-4.588a4.028 4.028 0 013.049-3.577c2.191-.563 4.301.152 5.053 1.896.314.978.53 1.984.643 3.005zm-2.226-1.735a1.896 1.896 0 00-.792-1.253 1.894 1.894 0 00-1.453-.294c-1.127.054-1.86.626-1.949 1.547h4.194zm-17.313 5.106h-1.994v-4.417a1.968 1.968 0 00-3.076-1.735 2.2 2.2 0 00-1.01 1.95v4.211h-2.004v-8.227h1.789l.187.894a10.563 10.563 0 011.94-.894 3.3 3.3 0 014.177 3.032c.09 1.727.087 3.459-.009 5.186zm-67.497-6.268l-1.493-.099v-1.681l1.466-.098c0-1.503.287-2.898 1.851-3.515a3.47 3.47 0 013.47.412l-.68 1.421c-2.038-.58-2.682-.17-2.476 1.726H27.4v1.744h-2.361v6.34h-2.084v-6.25z"/><path d="M60.03 17.545l1.243 1.18c-1.198 1.735-4.274 1.905-6.152.376-1.69-1.377-1.788-4.73-.241-6.43 1.547-1.699 5.008-1.788 6.26 0-.26.269-.537.537-.788.841a.636.636 0 01-.894.179 2.29 2.29 0 00-3.12.617 2.602 2.602 0 00.151 3.157 2.576 2.576 0 003.202.321l.34-.241zm-29.063 2.307h-2.012V11.75c1.27-.34 1.789-.214 2.102.564a3.166 3.166 0 013.576-.635c.644.232.85.581.412 1.198a6.526 6.526 0 00-.483.894 9.094 9.094 0 00-1.619-.304 1.79 1.79 0 00-2.003 2.012c.01 1.44.027 2.853.027 4.373zm5.285-.018v-8.209h1.94v8.21h-1.94zm2.2-10.597a1.118 1.118 0 01-1.144 1.208 1.145 1.145 0 01-1.252-1.11 1.215 1.215 0 011.171-1.287 1.163 1.163 0 011.225 1.19z"/></g><defs><clipPath id="clip0"><path fill="#fff" d="M0 0h110v29.742H0z"/></clipPath></defs></svg>