<svg width="125" height="38" fill="none" xmlns="http://www.w3.org/2000/svg"><g clip-path="url(#clip0)"><path d="M50.342 26.085V10.573h3.368c1.678 0 2.86.38 3.55 1.14.69.76 1.034 1.958 1.034 3.593v5.707a5.957 5.957 0 01-1.025 3.814c-.683.84-1.817 1.259-3.401 1.26l-3.526-.002zm2.16-1.554h1.217c.295.005.59-.028.876-.098.219-.053.43-.13.63-.233a1.11 1.11 0 00.426-.436c.246-.39.383-.84.398-1.3.031-.33.05-.613.057-.847.006-.234.01-.573.01-1.016v-5.043c0-.374-.007-.69-.02-.943a9.373 9.373 0 00-.073-.768 2.315 2.315 0 00-.17-.626 2.139 2.139 0 00-.29-.463 1.166 1.166 0 00-.44-.337 2.72 2.72 0 00-.617-.182 4.642 4.642 0 00-.833-.066h-1.17V24.53zm9.739 1.713a1.972 1.972 0 01-1.585-.782 2.744 2.744 0 01-.641-1.791c-.007-.488.08-.973.257-1.428.139-.365.323-.712.547-1.033a3.44 3.44 0 011.006-.819c.36-.22.73-.421 1.11-.603.26-.119.719-.312 1.374-.58a.88.88 0 01.085-.039v-.798a3.802 3.802 0 00-.218-1.529.893.893 0 00-.893-.453c-.774 0-1.161.524-1.161 1.572v.551l-2.032-.073c0-.111.005-.248.019-.411a3.395 3.395 0 01.925-2.414 3.428 3.428 0 012.386-.757 2.812 2.812 0 012.311.87c.53.772.78 1.701.71 2.635v5.061c.004.89.067 1.777.188 2.658h-1.872a16.265 16.265 0 01-.271-1.637 2.87 2.87 0 01-.799 1.27 2.043 2.043 0 01-1.446.53zm.815-1.778a1.22 1.22 0 00.772-.31c.22-.17.411-.376.566-.608v-3.135c-.497.262-.972.562-1.423.897a2.176 2.176 0 00-.898 1.732c-.021.366.067.73.253 1.047a.824.824 0 00.73.377zm6.016 1.618v-9.552h-1.338v-1.524h1.338v-.57c0-.45.016-.83.047-1.142.03-.308.096-.613.196-.906.081-.262.22-.503.408-.703.196-.19.433-.332.692-.416.34-.111.695-.164 1.052-.155.445.008.888.043 1.329.103v1.535l-.758-.094a.761.761 0 00-.744.35 2.423 2.423 0 00-.183 1.072v.926h1.694v1.524H71.11v9.552h-2.04zm4.892.001V15.007h2.048v1.582a3.96 3.96 0 011.175-1.339c.38-.248.824-.382 1.277-.383.113 0 .225.006.336.019v2.262a3.175 3.175 0 00-1.122-.217 1.742 1.742 0 00-.903.228 2.435 2.435 0 00-.763.828v8.098h-2.048zm6.24-12.715v-2.152h2.059v2.152h-2.059zm0 12.715V15.007h2.05v11.078h-2.05zm4.426 0V10.573h6.006v1.596H86.79v5.128h3.125v1.543H86.79v5.688h3.892v1.553l-6.052.004zm9.768.159a2.903 2.903 0 01-2.177-.846 3.556 3.556 0 01-.95-2.27l1.712-.514c.032.562.195 1.109.477 1.596a1.16 1.16 0 001.02.52 1.188 1.188 0 00.898-.364 1.17 1.17 0 00.317-.913 2.236 2.236 0 00-.897-1.552l-1.887-1.619a4.532 4.532 0 01-1.03-1.192 2.862 2.862 0 01-.336-1.512 2.736 2.736 0 01.798-2.011 2.903 2.903 0 012.068-.71 2.507 2.507 0 011.979.818c.5.587.794 1.321.836 2.09l-1.384.516a3.601 3.601 0 00-.43-1.427 1.021 1.021 0 00-.927-.492 1.053 1.053 0 00-.804.327 1.096 1.096 0 00-.3.805 1.463 1.463 0 00.552 1.122l1.965 1.797c.452.383.842.834 1.156 1.337a3.16 3.16 0 01.415 1.656 2.652 2.652 0 01-.828 2.11 3.276 3.276 0 01-2.243.728zm7.539 0a2.25 2.25 0 01-1.82-.665 3.101 3.101 0 01-.575-1.984v-7.222H98.38v-1.366h1.16V11.78h2.049v3.227h1.778v1.366h-1.778v7.082a1.57 1.57 0 00.211.936.97.97 0 00.798.272 5.49 5.49 0 00.758-.047v1.516c-.471.065-.945.102-1.42.112zm4.941 0a1.97 1.97 0 01-1.585-.782 2.74 2.74 0 01-.641-1.791c-.007-.488.08-.973.257-1.428.138-.365.322-.713.547-1.033a3.406 3.406 0 011.005-.819c.359-.22.729-.421 1.109-.603.261-.119.72-.312 1.375-.58.037-.02.066-.031.084-.039v-.798a3.788 3.788 0 00-.218-1.529.891.891 0 00-.893-.453c-.774 0-1.161.524-1.161 1.572v.551l-2.032-.073c0-.111.006-.248.019-.411a3.39 3.39 0 01.925-2.414 3.43 3.43 0 012.387-.757 2.812 2.812 0 012.31.87c.53.772.781 1.701.712 2.635v5.061c.004.89.067 1.777.187 2.658h-1.87a15.918 15.918 0 01-.272-1.637 2.866 2.866 0 01-.798 1.27 2.043 2.043 0 01-1.447.53zm.814-1.778c.286-.01.559-.12.772-.31.22-.17.412-.376.566-.608v-3.135a11.14 11.14 0 00-1.423.897 2.177 2.177 0 00-.897 1.732 1.85 1.85 0 00.252 1.047.832.832 0 00.73.377zm8.139 1.778a2.249 2.249 0 01-1.82-.665 3.104 3.104 0 01-.576-1.984v-7.222h-1.161v-1.366h1.161V11.78h2.049v3.227h1.778v1.366h-1.778v7.082a1.57 1.57 0 00.21.936.974.974 0 00.799.272c.253.002.506-.014.757-.047v1.516c-.47.065-.944.102-1.419.112zm6.026 0a4.139 4.139 0 01-1.619-.276 2.14 2.14 0 01-1.005-.861 3.982 3.982 0 01-.508-1.366 10.856 10.856 0 01-.145-1.923v-2.535c-.01-.65.042-1.3.156-1.941.086-.484.262-.947.518-1.366.239-.38.591-.677 1.007-.847a4.067 4.067 0 011.585-.271 4.47 4.47 0 011.049.111c.277.064.543.168.79.31.224.133.417.313.566.528.153.218.281.454.378.702.109.29.186.591.23.898.056.349.093.7.112 1.052.019.35.028.758.028 1.227l-.01.898h-4.358v1.596c0 .312 0 .543.004.693.005.15.016.344.037.584.011.183.047.364.108.538.057.13.126.256.206.374a.703.703 0 00.342.275c.163.056.335.083.508.08a.923.923 0 00.902-.454c.184-.432.265-.901.238-1.37v-.673h2.002v.435c.002 2.388-1.038 3.582-3.121 3.582zm-1.226-6.775h2.348v-1.001c0-.293-.008-.54-.024-.739a3.453 3.453 0 00-.093-.58 1.202 1.202 0 00-.191-.44.83.83 0 00-.335-.251 1.24 1.24 0 00-.508-.094.944.944 0 00-.964.523 5.596 5.596 0 00-.233 1.984v.598zm-86.264 4.035v3.439C20.713 29.432 8.853 37.555 8.853 37.555l-1.65-3.07A102.833 102.833 0 0128.056 25.3a98.333 98.333 0 016.31-1.796zm0-3.172a41.767 41.767 0 00-7.578 1.643 60.056 60.056 0 00-4.774 1.694 93.659 93.659 0 00-16.11 8.452l-1.892-2.246a79.13 79.13 0 0113.915-7.644c1.46-.62 2.87-1.165 4.209-1.643a71.829 71.829 0 015.805-1.814 60.329 60.329 0 016.423-1.352v2.91h.002zm0-9.118a55.497 55.497 0 00-6.322 1.035 68.93 68.93 0 00-6.03 1.637c-1.297.415-2.66.893-4.082 1.439a72.93 72.93 0 00-4.217 1.779 74.154 74.154 0 00-3.428 1.669A80.228 80.228 0 000 25.153l2.126 2.483a63.098 63.098 0 0111.595-7.184 61.742 61.742 0 013.66-1.669 69.065 69.065 0 014.747-1.819c1.483-.5 3.03-.965 4.637-1.378 2.5-.65 5.039-1.14 7.6-1.467l.17-.017c-.05-.016-.107-.028-.17-.045l.002-2.843z" fill="#fff"/><path d="M34.367 10.606v3.445a96.756 96.756 0 01-6.322-1.802A102.846 102.846 0 017.202 3.07L8.853 0s11.86 8.117 25.514 10.606zm-7.601 4.975a61.633 61.633 0 01-4.752-1.695A93.477 93.477 0 015.906 5.43L4.013 7.674a79.252 79.252 0 0013.92 7.65 71.63 71.63 0 004.195 1.638 73.07 73.07 0 005.816 1.814 60.179 60.179 0 006.423 1.353v-2.903a42.011 42.011 0 01-7.601-1.645zm7.6 7.858a59.396 59.396 0 01-7.577-1.46 61.914 61.914 0 01-4.648-1.388 68.512 68.512 0 01-4.758-1.807 75.118 75.118 0 01-3.666-1.677 63.506 63.506 0 01-11.59-7.184L0 12.397a79.459 79.459 0 0013.722 8.054 72.5 72.5 0 008.295 3.218 67.7 67.7 0 006.042 1.631 52.75 52.75 0 006.31 1.034v-2.83c.068-.017.13-.035.187-.046-.065-.005-.127-.02-.19-.02zm.17-9.343l-.17.017v-.062c.063.016.12.028.17.045z" fill="#fff"/><path d="M34.366 23.436c.063.005.125.017.187.023-.056.01-.119.027-.187.045v-.068z" fill="#fff"/><path d="M34.366 20.332v-.205" stroke="#fff"/></g><defs><clipPath id="clip0"><path fill="#fff" d="M0 0h125v37.555H0z"/></clipPath></defs></svg>