<svg width="125" height="20" fill="none" xmlns="http://www.w3.org/2000/svg"><path fill="#E5E5E5" d="M0 0h125v20H0z"/><g clip-path="url(#clip0)"><path fill="#fff" d="M-112-1499h1440v6086H-112z"/><path d="M-112-1354h1440V54.99L1420 885s-516-272-898-10-634-226-634-226v-2003z" fill="#121214"/><rect x="-21" y="-49" width="166" height="118" rx="16" fill="#1B1B1E"/><path d="M29.675 16.298a.03.03 0 01.009-.026.03.03 0 01.011-.007.03.03 0 01.014-.001h.861a.93.93 0 01.514.133c.139.09.24.228.287.388.082.42.082.852 0 1.273a.744.744 0 01-.264.372.858.858 0 01-.536.149h-.86a.03.03 0 01-.034-.034l-.002-2.247zm.521 1.835h.262c.234 0 .376-.086.427-.257.05-.302.05-.61 0-.912-.051-.171-.195-.257-.427-.257h-.27a.018.018 0 00-.012.02v1.383a.017.017 0 000 .009c0 .003.001.006.003.008a.019.019 0 00.017.006zm3.124-1.835a.03.03 0 01.008-.026.03.03 0 01.026-.008h.432a.03.03 0 01.026.008.03.03 0 01.008.026v2.247a.03.03 0 01-.008.025.03.03 0 01-.026.008h-.432a.03.03 0 01-.026-.008.03.03 0 01-.008-.026v-2.246zm2.398 1.551a6.078 6.078 0 01-.01-.768c.006-.1.025-.198.057-.293a.75.75 0 01.313-.419.984.984 0 01.537-.143c.174-.002.346.04.5.123a.704.704 0 01.33.384.035.035 0 01-.007.03.035.035 0 01-.012.008l-.364.153c-.026.007-.043 0-.048-.017a.438.438 0 00-.399-.238.35.35 0 00-.37.256 1.968 1.968 0 00-.038.494c-.008.166.004.334.038.497a.355.355 0 00.377.257.434.434 0 00.235-.063.303.303 0 00.136-.175.808.808 0 00.027-.237.018.018 0 00-.005-.007.017.017 0 00-.007-.005.02.02 0 00-.008 0h-.313a.03.03 0 01-.014-.002.03.03 0 01-.02-.032v-.325a.03.03 0 01.034-.034h.797l.013.001a.03.03 0 01.02.033v.19c.008.176-.012.352-.057.522a.773.773 0 01-.31.427.935.935 0 01-.535.152.979.979 0 01-.537-.143.75.75 0 01-.313-.419 1.619 1.619 0 01-.047-.207zm3.68-1.551l.001-.014a.03.03 0 01.033-.02h.432a.03.03 0 01.026.008.03.03 0 01.008.026v2.247l-.001.013a.03.03 0 01-.007.012.029.029 0 01-.012.007.03.03 0 01-.014.001h-.432a.03.03 0 01-.025-.008.03.03 0 01-.01-.026v-2.246zm2.952 2.28a.03.03 0 01-.025-.008.03.03 0 01-.008-.025V16.73c0-.003 0-.006-.002-.008a.017.017 0 00-.004-.007.018.018 0 00-.016-.005h-.585a.03.03 0 01-.014-.002.03.03 0 01-.019-.018.03.03 0 010-.014v-.378a.022.022 0 010-.014.03.03 0 01.02-.02.03.03 0 01.013 0h1.712a.03.03 0 01.034.034v.378a.03.03 0 01-.009.025.03.03 0 01-.025.008h-.586l-.008.001a.018.018 0 00-.011.012.017.017 0 00-.001.008v1.814a.03.03 0 01-.009.026.03.03 0 01-.025.008h-.432zm3.293-2.28a.043.043 0 01.043-.033h.428c.01 0 .02.003.027.009a.043.043 0 01.016.024l.783 2.247c.007.023 0 .034-.024.034h-.443a.043.043 0 01-.043-.034l-.133-.405h-.81l-.128.405a.043.043 0 01-.043.034h-.445c-.023 0-.03-.011-.024-.034l.796-2.247zm.52 1.417l-.26-.813h-.011l-.263.813h.535zm2.548-1.417a.03.03 0 01.009-.026.03.03 0 01.026-.008h.432a.03.03 0 01.025.008.03.03 0 01.009.026v1.822a.017.017 0 00.012.012h1.03a.03.03 0 01.032.02.03.03 0 01.001.014v.392a.031.031 0 01-.008.012.03.03 0 01-.025.008h-1.509a.03.03 0 01-.025-.008.03.03 0 01-.009-.026v-2.246zm3.372 0c0-.005 0-.01.002-.014a.03.03 0 01.019-.02.03.03 0 01.014 0h.431a.03.03 0 01.033.02c.002.004.002.009.002.014v2.247c0 .004 0 .009-.002.013a.03.03 0 01-.019.02.03.03 0 01-.014 0h-.431a.03.03 0 01-.033-.02.03.03 0 01-.002-.014v-2.246zm2.717 2.226a1.13 1.13 0 01-.396-.237.041.041 0 01-.005-.015.038.038 0 01.011-.03l.257-.296c.014-.019.03-.02.051-.004a.968.968 0 00.606.239.448.448 0 00.278-.077.24.24 0 00.1-.2.202.202 0 00-.082-.168.607.607 0 00-.276-.09l-.122-.017c-.488-.068-.732-.3-.732-.694a.647.647 0 01.225-.514.88.88 0 01.596-.194c.146 0 .291.022.431.065a1.126 1.126 0 01.366.186.03.03 0 01-.005.042l-.207.31a.032.032 0 01-.022.016.031.031 0 01-.026-.006.987.987 0 00-.537-.177.342.342 0 00-.229.07.227.227 0 00-.081.182c0 .136.12.222.36.256l.123.017c.485.066.728.3.728.702a.659.659 0 01-.237.525 1.003 1.003 0 01-.672.203 1.45 1.45 0 01-.504-.093zm3.251-2.226l.001-.014a.03.03 0 01.02-.02.03.03 0 01.013 0h.432a.03.03 0 01.026.008.03.03 0 01.007.012.03.03 0 01.002.014v2.247c0 .004 0 .009-.002.013a.03.03 0 01-.019.02.03.03 0 01-.014 0h-.432a.03.03 0 01-.033-.02.03.03 0 010-.014v-2.246zm2.441 0a.03.03 0 01.009-.026.03.03 0 01.025-.008h.408a.064.064 0 01.059.034l.817 1.456h.016v-1.456a.03.03 0 01.009-.026.03.03 0 01.026-.008h.385a.03.03 0 01.033.034v2.247a.03.03 0 01-.008.025.03.03 0 01-.025.008h-.406a.065.065 0 01-.058-.034l-.82-1.454h-.017v1.454a.03.03 0 01-.009.026.03.03 0 01-.025.008h-.385a.03.03 0 01-.033-.02.03.03 0 01-.002-.014v-2.246zm3.686 1.551a6.217 6.217 0 01-.01-.768c.006-.1.025-.198.056-.293a.752.752 0 01.313-.419.984.984 0 01.538-.143c.174-.002.346.04.499.123a.7.7 0 01.33.384.034.034 0 01-.019.038l-.364.153c-.025.007-.042 0-.047-.017a.44.44 0 00-.399-.238.35.35 0 00-.37.256 1.987 1.987 0 00-.038.494c-.008.166.004.334.037.497a.355.355 0 00.378.257.434.434 0 00.235-.063.304.304 0 00.136-.175.826.826 0 00.027-.237.018.018 0 00-.02-.012h-.313a.03.03 0 01-.025-.009.03.03 0 01-.01-.025v-.325a.03.03 0 01.035-.034h.796l.014.001a.03.03 0 01.02.033v.19c.007.176-.013.352-.058.522a.773.773 0 01-.31.427.935.935 0 01-.534.152.98.98 0 01-.538-.143.752.752 0 01-.313-.419 1.67 1.67 0 01-.046-.207zm6.606-1.551a.043.043 0 01.043-.033h.428c.01 0 .02.003.027.009a.043.043 0 01.016.024l.783 2.247c.007.023 0 .034-.024.034h-.443a.043.043 0 01-.043-.034l-.133-.405h-.81l-.128.405a.043.043 0 01-.043.034h-.445c-.023 0-.03-.011-.025-.034l.797-2.247zm.52 1.417l-.261-.813h-.01l-.263.813h.535zm2.549-1.417l.001-.014a.03.03 0 01.033-.02h1.484a.03.03 0 01.026.008.03.03 0 01.008.026v.364a.03.03 0 01-.02.033.03.03 0 01-.014 0h-.997c-.003 0-.006 0-.008.002a.018.018 0 00-.012.02v.486c0 .014.006.02.02.02h.832c.005 0 .01 0 .014.002a.03.03 0 01.02.033v.36a.03.03 0 01-.02.033.03.03 0 01-.014.002h-.838a.018.018 0 00-.007.005.02.02 0 00-.005.007.02.02 0 000 .008v.872c0 .004 0 .009-.002.013a.03.03 0 01-.019.02.031.031 0 01-.014 0h-.445a.03.03 0 01-.02-.033l-.003-2.247zm4.675 2.282a.05.05 0 01-.05-.035l-.4-.847h-.309a.018.018 0 00-.02.02v.827l-.001.014a.03.03 0 01-.02.019.03.03 0 01-.013.001h-.432a.03.03 0 01-.014-.001.03.03 0 01-.02-.033v-2.26a.03.03 0 01.02-.02.03.03 0 01.014 0h.922a.804.804 0 01.568.2.67.67 0 01.218.517.695.695 0 01-.412.645l.456.912a.028.028 0 010 .028.025.025 0 01-.023.013h-.484zm-.124-1.388a.272.272 0 00.086-.21.265.265 0 00-.086-.207.326.326 0 00-.226-.078h-.409a.018.018 0 00-.02.02v.535a.018.018 0 00.005.015.018.018 0 00.016.005h.408a.323.323 0 00.226-.08zm2.468-.894c0-.005 0-.01.002-.014a.03.03 0 01.033-.02h.445a.03.03 0 01.02.034v2.247a.03.03 0 01-.008.025.03.03 0 01-.025.008h-.446a.03.03 0 01-.02-.033v-2.247zm2.4 1.552a3.252 3.252 0 01-.018-.427c0-.11.001-.214.005-.317a1.05 1.05 0 01.06-.309.796.796 0 01.304-.424.998.998 0 011.018-.01c.14.09.248.223.308.379.011.02.006.034-.017.043l-.37.166a.031.031 0 01-.03.004.031.031 0 01-.019-.02.381.381 0 00-.368-.263.335.335 0 00-.347.257c-.05.33-.05.665 0 .994a.335.335 0 00.347.257.381.381 0 00.368-.262.032.032 0 01.007-.013.031.031 0 01.04-.004l.372.166c.023.007.028.02.017.043a.786.786 0 01-.308.38.997.997 0 01-1.018-.01.796.796 0 01-.305-.425 1.495 1.495 0 01-.046-.205zm4.122-1.552a.043.043 0 01.043-.033h.428c.01 0 .02.003.027.009a.043.043 0 01.016.024l.783 2.247c.007.023 0 .034-.023.034h-.444a.043.043 0 01-.043-.034l-.133-.405h-.81l-.128.405a.043.043 0 01-.043.034h-.445c-.023 0-.03-.011-.024-.034l.796-2.247zm.521 1.417l-.261-.813h-.011l-.262.813h.534zM33.71 1.191a5.212 5.212 0 012.104.402 4.714 4.714 0 011.554 1.07c.419.44.747.959.966 1.526.222.564.335 1.165.335 1.77a4.94 4.94 0 01-.328 1.772 4.559 4.559 0 01-.96 1.526 4.685 4.685 0 01-1.56 1.07 5.263 5.263 0 01-2.112.402h-3.501V1.19h3.501zm-1.295 1.907V8.82h1.186a2.85 2.85 0 001.192-.238 2.64 2.64 0 00.885-.642c.24-.266.427-.576.552-.912a3.075 3.075 0 000-2.133 2.822 2.822 0 00-.552-.919 2.647 2.647 0 00-.885-.641 2.85 2.85 0 00-1.192-.24l-1.186.003zm13.911 1.063v6.567H44.24v-.926a1.71 1.71 0 01-.327.428c-.14.135-.299.25-.47.342a2.879 2.879 0 01-.58.232 2.292 2.292 0 01-.626.088 3.143 3.143 0 01-1.301-.265 3.08 3.08 0 01-1.015-.723 3.196 3.196 0 01-.652-1.091 4.166 4.166 0 010-2.738c.142-.404.365-.774.654-1.09a3.08 3.08 0 011.014-.722 3.15 3.15 0 011.301-.266c.213 0 .423.03.627.089.202.056.396.136.579.238.172.096.33.216.47.354.128.126.238.268.328.423V4.16l2.083.001zm-3.652 4.96a1.48 1.48 0 00.642-.137 1.558 1.558 0 00.81-.892c.078-.207.117-.427.116-.648a1.758 1.758 0 00-.435-1.171 1.514 1.514 0 00-.491-.368 1.57 1.57 0 00-1.28 0 1.516 1.516 0 00-.491.368c-.284.324-.439.74-.436 1.17-.001.222.038.442.116.649a1.558 1.558 0 00.81.892c.2.092.419.14.64.136zm9.006-6.404a2.315 2.315 0 00-.64-.081c-.115 0-.23.006-.343.02a.606.606 0 00-.287.109.622.622 0 00-.197.252 1.107 1.107 0 00-.075.45v.694h1.54v1.553h-1.525v5.014H48.07V5.714h-1.184V4.161h1.185V3.59c-.022-.48.06-.958.239-1.403.132-.303.34-.566.606-.763.238-.17.514-.28.804-.32.275-.04.553-.06.83-.062a3.479 3.479 0 011.132.178l-.002 1.498zm5.215 3.338a3.679 3.679 0 00-.368-.075 2.84 2.84 0 00-.367-.02 1.888 1.888 0 00-1.376.504c-.346.336-.519.904-.518 1.703v2.561h-2.084V4.162h2.084v1.062a2.14 2.14 0 01.77-.817 2.19 2.19 0 011.233-.354c.214-.006.427.031.627.109v1.893zm.124-4.073a1.279 1.279 0 01.382-.942 1.295 1.295 0 01.953-.38 1.363 1.363 0 01.96.38 1.327 1.327 0 01.388.94c0 .176-.034.35-.103.512a1.344 1.344 0 01-.713.708c-.17.07-.35.104-.532.102a1.31 1.31 0 01-.524-.102 1.344 1.344 0 01-.709-.708 1.275 1.275 0 01-.102-.51zm.3 2.182h2.084v6.566h-2.085V4.164zm8.623 1.524h4.946v1.648h-.98a4.886 4.886 0 01-.519 1.485 3.788 3.788 0 01-.967 1.145c-.422.33-.9.58-1.412.742a5.866 5.866 0 01-1.832.265 5.264 5.264 0 01-2.132-.408 4.62 4.62 0 01-1.567-1.096 4.76 4.76 0 01-.967-1.595 5.492 5.492 0 01-.334-1.914 5.312 5.312 0 01.342-1.886 4.752 4.752 0 012.561-2.712A5.073 5.073 0 0165.18.946a5.341 5.341 0 011.723.266c.49.16.949.405 1.355.722.37.292.68.653.913 1.063.224.396.364.835.409 1.288h-2.357a1.544 1.544 0 00-.218-.545 1.691 1.691 0 00-.428-.457 2.15 2.15 0 00-.62-.313 2.807 2.807 0 00-1.975.143 2.59 2.59 0 00-.851.695 2.961 2.961 0 00-.518 1.001 4.136 4.136 0 00.007 2.37c.11.365.294.703.538.995.248.293.56.526.911.682.406.176.845.262 1.288.252.305.005.61-.044.898-.143.249-.087.48-.219.681-.388a2.04 2.04 0 00.695-1.241h-1.69l.001-1.648zm10.232.367a3.68 3.68 0 00-.368-.075 2.837 2.837 0 00-.368-.02 1.89 1.89 0 00-1.376.504c-.345.336-.517.904-.517 1.703v2.561H71.46V4.162h2.085v1.062a2.14 2.14 0 01.77-.817 2.19 2.19 0 011.232-.354c.215-.006.428.031.628.109v1.893z" fill="#fff"/><path d="M79.47 10.905a3.947 3.947 0 01-1.518-.279 3.473 3.473 0 01-1.144-.749 3.249 3.249 0 01-.723-1.096 3.663 3.663 0 010-2.67c.164-.412.41-.785.723-1.098a3.482 3.482 0 011.144-.749 4.307 4.307 0 013.051 0c.427.172.816.426 1.144.75.313.312.56.685.723 1.096a3.663 3.663 0 010 2.67 3.25 3.25 0 01-.723 1.097 3.474 3.474 0 01-1.144.75 3.984 3.984 0 01-1.533.278zm0-1.784c.223.003.444-.041.648-.129.19-.082.36-.206.497-.361.138-.157.246-.336.32-.531a1.89 1.89 0 000-1.301 1.55 1.55 0 00-.817-.892 1.529 1.529 0 00-.648-.137 1.477 1.477 0 00-.641.136 1.525 1.525 0 00-.804.893c-.145.421-.145.88 0 1.3.07.196.176.376.313.532.136.154.303.277.49.361.203.089.422.132.642.129zm10.927-4.959v6.566h-2.085v-.94a1.922 1.922 0 01-.824.812 3.173 3.173 0 01-2.432.095 1.797 1.797 0 01-.737-.553 1.922 1.922 0 01-.409-.878 6.503 6.503 0 01-.095-1.206V4.162h2.071v3.365c-.017.399.07.795.252 1.15a.951.951 0 00.905.444 1.08 1.08 0 00.961-.45c.222-.364.329-.786.307-1.212V4.162h2.086zm3.31.939c.09-.154.2-.296.326-.422.142-.14.303-.26.478-.354.183-.1.377-.18.579-.238.206-.06.419-.09.633-.09.448-.004.892.086 1.301.267.384.169.73.414 1.015.721.289.316.511.687.655 1.09a4.16 4.16 0 010 2.738 3.202 3.202 0 01-.654 1.09c-.286.307-.63.553-1.015.722-.41.18-.853.27-1.3.266a2.27 2.27 0 01-.634-.089 2.818 2.818 0 01-.58-.238 2.217 2.217 0 01-.477-.348 1.705 1.705 0 01-.326-.428v3.91h-2.085V4.161h2.085l-.001.94zm1.58.668a1.522 1.522 0 00-1.144.497c-.14.155-.248.336-.32.532a1.872 1.872 0 000 1.294c.072.196.18.376.32.531a1.533 1.533 0 001.144.497c.217.003.431-.044.627-.136a1.562 1.562 0 00.81-.892 1.865 1.865 0 000-1.294 1.575 1.575 0 00-.812-.894 1.449 1.449 0 00-.625-.135zm7.262-4.577h3.991c.491-.007.979.088 1.431.279a3.27 3.27 0 011.798 1.846c.327.85.327 1.792 0 2.643a3.27 3.27 0 01-1.798 1.846c-.452.19-.94.286-1.431.28h-1.784v2.642h-2.207V1.192zm3.717 5.094a1.473 1.473 0 001.11-.497 1.61 1.61 0 00.307-.524 1.86 1.86 0 000-1.253 1.61 1.61 0 00-.307-.525 1.49 1.49 0 00-.483-.36 1.44 1.44 0 00-.627-.137h-1.512v3.296h1.512zm9.307 2.534v1.908h-4.92V1.191h2.207v7.63h2.713zM125 7.308a4.337 4.337 0 01-.525 1.431 4.23 4.23 0 01-1.001 1.165 4.729 4.729 0 01-1.431.783 5.86 5.86 0 01-3.957-.122 4.884 4.884 0 01-1.608-1.097 4.7 4.7 0 01-1.008-1.6 5.362 5.362 0 01-.348-1.92 5.252 5.252 0 01.342-1.881 4.776 4.776 0 012.561-2.705 5.074 5.074 0 012.097-.415 5.752 5.752 0 011.968.314 4.55 4.55 0 011.471.844c.401.35.727.776.961 1.253.237.485.393 1.005.463 1.54h-2.303a2.586 2.586 0 00-.279-.776 2.23 2.23 0 00-1.226-1.035 2.693 2.693 0 00-.919-.15 2.878 2.878 0 00-1.234.252 2.767 2.767 0 00-.905.667 2.861 2.861 0 00-.557.961 3.4 3.4 0 00-.191 1.13c-.003.402.064.801.198 1.18a2.732 2.732 0 001.525 1.62 3.19 3.19 0 001.275.238c.264.002.526-.041.776-.128.241-.084.468-.204.675-.354.202-.148.379-.328.524-.532.143-.2.249-.424.313-.66L125 7.307zM24.523 9.8l-9.663 9.492-4.71-4.634-.96-.944-.525-.518-.954-.939-.949-.933a88.731 88.731 0 00-.536-.528l.735-.737c.195-.195.145-.295-.01-.45l-.774-.774a1285.527 1285.527 0 002.432-2.462l.022-.022.905-.918L14.905 0l1.69 1.647c.187.183.36.385.563.548.22.178.165.307-.003.478a3885.346 3885.346 0 00-5.166 5.265l-.904.921a.377.377 0 01-.022.023l-.691.706c-.052.052-.095.113-.169.201l.955.95.524.52.954.949.222.22c.583.58 1.172 1.153 1.746 1.741.188.192.327.208.527.017a1083.69 1083.69 0 014.593-4.349c.017-.015.02-.045.01-.024-.444-.47-.87-.928-1.315-1.369a.336.336 0 00-.32.038c-.369.353-.712.734-1.077 1.091a.572.572 0 01-.346.172l-1.729-1.669 3.696-4.099 5.88 5.824z" fill="#fff"/><path d="M10.204 9.79l1.48 1.47-2.493 2.453-1.48-1.454c-1.471 1.476-2.931 2.963-4.402 4.439-.303.305-.613.605-.926.905l-.947-.98c.636-.616 1.266-1.203 1.873-1.814a945.235 945.235 0 003.453-3.484 688.057 688.057 0 011.635-1.642c.194-.195.145-.295-.011-.45L7.078 7.925l-4.775-4.77c.52-.528 1.041-1.06 1.58-1.609 1.583 1.618 3.159 3.227 4.726 4.83.31-.314 1.223-1.232 1.532-1.546l2.453 2.505c-.309.315-1.221 1.234-1.53 1.549l-.691.705c-.051.05-.095.112-.169.2z" fill="#fff"/><path d="M12.637 12.208c-.83.817-1.66 1.633-2.487 2.45l-.96-.945c-.492-.484-.985-.97-1.48-1.454l.685-.688c.195-.194.145-.295-.01-.45l-.714-.713a31017.878 31017.878 0 00-5.866-5.862c-.444-.443-.447-.435-.02-.868l.517-.523 1.58-1.609a14472.951 14472.951 0 017.181 7.338l-.692.705c-.05.052-.094.113-.168.202a5542.093 5542.093 0 002.434 2.417z" fill="#fff"/><path d="M12.06 9.853l-.899.886c-.832.82-1.663 1.64-2.495 2.457l-6.325 6.227L0 16.997c.637-.614 1.267-1.202 1.874-1.812 1.454-1.46 2.898-2.93 4.352-4.39l.735-.737c.195-.195.145-.295-.01-.45A22131.9 22131.9 0 01.37 3.033c-.443-.443-.447-.435-.019-.868.691-.7 1.379-1.403 2.096-2.132L8.632 6.35l2.456 2.508.972.995z" fill="#fff"/></g><defs><clipPath id="clip0"><path fill="#fff" transform="translate(-112 -1499)" d="M0 0h1440v6086H0z"/></clipPath></defs></svg>