<svg width="125" height="28" fill="none" xmlns="http://www.w3.org/2000/svg"><g clip-path="url(#clip0)" fill="#fff"><path d="M123.979 18.334h-.174a1.055 1.055 0 00-.535.608.565.565 0 000 .058.992.992 0 01-.318.347 2.878 2.878 0 00-.513.5l-.13.064a.961.961 0 00-.672.615 1.45 1.45 0 00-.086.853v.087a.73.73 0 01-.152.195 1.18 1.18 0 00-.391.637 1 1 0 00.058.723v.101a1.025 1.025 0 00.217.854.96.96 0 00.723.318 1.37 1.37 0 00.962-.398c.19-.215.344-.459.456-.723.13-.33.316-.636.549-.904a1.517 1.517 0 00.369-1.308.741.741 0 010-.115.936.936 0 00.361-.767 3.382 3.382 0 00-.332-1.576.497.497 0 00-.391-.167l-.001-.002zm-.159 1.714c0 .087 0 .087-.072.152-.06.052-.115.107-.167.166a.884.884 0 00-.116.673c.027.202-.003.407-.086.593a4.174 4.174 0 00-.723 1.156 2.875 2.875 0 01-.283.521.547.547 0 01-.347.13.275.275 0 01-.094 0 .34.34 0 010-.173.987.987 0 00-.086-.557.17.17 0 010-.159c0-.086.05-.123.159-.224.171-.15.299-.346.368-.564a.872.872 0 000-.448.613.613 0 01.037-.404c0-.094 0-.094.137-.123.217-.058.41-.185.55-.362.098-.127.215-.24.347-.332.139-.098.263-.214.369-.347.009.1.012.201.009.302h-.002zm-2.587-1.866v-.134a3.783 3.783 0 00-.397-1.135c-.181-.369-.21-.426 0-.773.108-.152 1.005-1.446 1.251-1.742a5.55 5.55 0 01.896-.868 3.889 3.889 0 001.323-1.663c.087-.224.189-.434.274-.63a3.19 3.19 0 00.42-1.402.862.862 0 00-.919-.788 2.169 2.169 0 00-.896.239 3.38 3.38 0 01-.947.347h-.066a.98.98 0 00-.108-.217 2.327 2.327 0 00-.636-.932 1.93 1.93 0 00-.434-.275c-.159-.087-.42-.224-.441-.317a2.1 2.1 0 00-.651-1.2.611.611 0 01-.239-.383 1.636 1.636 0 00-.549-1.108 1.223 1.223 0 01-.159-.167 1.74 1.74 0 01-.499-1.563 1.442 1.442 0 00-.347-1.308c-.448-.499-.99-.542-1.879-.072a.653.653 0 01-.318.094 1.759 1.759 0 01-.528-.109 3.447 3.447 0 00-1.164-.238 2.005 2.005 0 00-1.395.542l-.137.109a4.912 4.912 0 00-1.446-.846c-.311-.115-.333-.23-.376-.499a1.244 1.244 0 00-.426-.817 1.027 1.027 0 00-.658-.217 2.313 2.313 0 00-.326 0c-.2.043-.407.043-.607 0a2.894 2.894 0 00-1.577 0c-.274.066-.556.1-.838.102a4.61 4.61 0 01-.557 0h-.484a2.24 2.24 0 00-1.605.68 2.245 2.245 0 00-.629 1.076.883.883 0 01-.607.723 2.896 2.896 0 00-1.76 1.642 2.167 2.167 0 01-.304.434 2.208 2.208 0 00-.549 1.959c.069.41-.024.83-.26 1.17a1.389 1.389 0 00-.152 1.447c.097.219.231.42.397.593l.55-.687a.918.918 0 01-.152-.239c-.116-.282-.065-.36.101-.636a2.435 2.435 0 00.369-1.72 1.45 1.45 0 01.361-1.308 2.94 2.94 0 00.413-.608 2.103 2.103 0 011.344-1.258 1.726 1.726 0 001.103-1.318 1.4 1.4 0 01.39-.723 1.355 1.355 0 011.019-.455h.413c.209.024.419.036.629.036a4.594 4.594 0 001.034-.123 2.11 2.11 0 011.142 0c.313.074.637.089.955.043h.21a.223.223 0 01.137 0c.051.044.066.102.102.29a1.327 1.327 0 00.925 1.155 4.63 4.63 0 011.2.724.86.86 0 00.55.21c.258-.018.5-.131.679-.318.226-.203.521-.312.824-.304.294.01.584.066.86.167.256.092.524.143.795.152.253-.002.502-.067.723-.189a1.55 1.55 0 01.637-.224c.058 0 .108 0 .202.109.094.108.202.23.152.65a2.623 2.623 0 00.723 2.242l.217.217a.833.833 0 01.296.622c.054.333.223.638.477.86.225.198.372.47.413.766a1.448 1.448 0 00.889.911c.097.043.189.096.274.159.183.171.322.384.404.621a.977.977 0 00.904.724h.174a4.23 4.23 0 001.185-.42c.5-.23.622-.152.593-.137-.08.331-.199.652-.354.955-.087.202-.188.426-.282.651a3.12 3.12 0 01-1.07 1.33 6.45 6.45 0 00-.984.997c-.282.348-1.207 1.677-1.294 1.793a1.382 1.382 0 00-.087 1.655c.157.276.265.576.318.89v.144c.145.817.253 1.446-.723 2.003a2.383 2.383 0 00-1.403 2.27c0 .332 0 .455-.137.564l-.181.174c-.507.489-.972 1.02-1.389 1.59-.224.31-.465.606-.723.889-.506.52-.823.629-1.005.629a.326.326 0 01-.145 0 1.595 1.595 0 00-.549-.094 2.54 2.54 0 00-.723.13 1.399 1.399 0 01-.355.08.259.259 0 01-.137 0c-.18-.123-.238-.325-.332-.723a4.547 4.547 0 00-.781-1.778.723.723 0 01-.116-.579c-.289.06-.581.104-.875.13-.014.348.09.69.296.97.314.43.531.923.636 1.446a1.814 1.814 0 00.723 1.243c.181.124.396.19.615.188.207-.007.412-.046.608-.115.228-.1.483-.118.723-.05.621.223 1.308 0 2.074-.81a11 11 0 00.803-.97c.431-.592.915-1.144 1.446-1.649a1.459 1.459 0 00.419-1.185c0-.5 0-.976.984-1.547a2.485 2.485 0 001.093-2.966zM15.825 7.549a7.94 7.94 0 00-4.981-1.338h-.492c-.664 0-1.597 0-2.804.065h-.723c-1.28 0-2.257 0-2.892-.065l-.065.44c.412-.031.825.052 1.193.24a.802.802 0 01.325.723 3.686 3.686 0 01-.178.954L2.277 19.513c-.102.42-.254.824-.454 1.207a1.135 1.135 0 01-.621.513 4.21 4.21 0 01-1.136.18l-.065.434c.78-.043 1.887-.065 3.319-.065.643 0 1.395 0 2.248.044h1.365a10.956 10.956 0 005.668-1.526 9.918 9.918 0 003.701-3.906 10.611 10.611 0 001.243-4.93 4.688 4.688 0 00-1.72-3.919v.004zm-2.733 8.306a10.048 10.048 0 01-2.53 4.027 5.487 5.487 0 01-3.617 1.56H6.51a1.446 1.446 0 01-.724-.144.586.586 0 01-.252-.535c.05-.411.135-.818.252-1.215L8.675 8.51a7.72 7.72 0 01.398-1.243c.091-.219.251-.402.456-.521a1.91 1.91 0 01.845-.145 3.304 3.304 0 012.718 1.055 4.81 4.81 0 01.86 3.125 15.184 15.184 0 01-.86 5.074zm16.548-5.741a16.478 16.478 0 01-3.202.34l-.326 1.106a1.67 1.67 0 00-.426-1.063 1.345 1.345 0 00-.962-.383 4.763 4.763 0 00-3.158 1.482 11.883 11.883 0 00-2.665 3.68 9.673 9.673 0 00-1.049 4.167c-.044.722.18 1.435.63 2.002a2.32 2.32 0 001.843.723 3.145 3.145 0 002.024-.723 6.37 6.37 0 001.67-2.364 4.871 4.871 0 00-.202 1.303c-.025.393.085.783.311 1.105a1.866 1.866 0 001.634.687 2.992 2.992 0 001.713-.535 3.333 3.333 0 001.222-1.756l.556-1.613h-.42l-.397 1.063c-.397 1.156-.853 1.742-1.373 1.742-.274 0-.42-.159-.42-.484.01-.211.046-.42.11-.622l2.887-9.857zm-3.76 2.277l-.983 3.507.109-.528a17.017 17.017 0 01-1.027 3.014c-.094.21-.196.413-.29.593a7.068 7.068 0 01-.882 1.352 1.564 1.564 0 01-1.07.673.498.498 0 01-.478-.318 2.833 2.833 0 01-.145-1.056c.017-1.337.244-2.665.673-3.932a12.883 12.883 0 011.64-3.412c.637-.897 1.208-1.352 1.714-1.352a.63.63 0 01.557.29c.067.108.116.228.145.353.033.16.05.322.05.485a1.68 1.68 0 01-.029.332h.017zm11.713-7.257a1.814 1.814 0 00-1.2-.361 2.4 2.4 0 00-1.59.527 1.83 1.83 0 00-.665 1.447 1.222 1.222 0 00.376 1.048c.34.28.775.42 1.215.39a2.4 2.4 0 001.634-.577 1.85 1.85 0 00.664-1.448 1.244 1.244 0 00-.434-1.027zm-1.447 8.075c.16-.416.244-.857.246-1.303.02-.475-.146-.94-.463-1.294a1.94 1.94 0 00-1.446-.496 3.059 3.059 0 00-3.07 2.276l-.615 1.677h.42l.44-1.12c.17-.482.414-.933.724-1.338a.933.933 0 01.723-.413c.267 0 .397.152.397.441-.057.223-.14.439-.245.643l-2.17 6.362a5.122 5.122 0 00-.333 1.678c0 1.22.665 1.835 2.01 1.835a2.952 2.952 0 002.978-2.276l.578-1.613h-.42l-.397 1.063c-.16.494-.405.956-.723 1.366a.925.925 0 01-.673.376c-.296 0-.44-.152-.44-.463.01-.22.054-.436.13-.643l2.35-6.758zm6.267 6.668l.556-1.612h-.426l-.397 1.063c-.427 1.164-.868 1.742-1.323 1.742-.311 0-.463-.18-.463-.55.002-.188.03-.375.087-.556l4.641-15.677a13.28 13.28 0 01-2.385.658c-.905.16-1.821.241-2.74.246l-.152.462c.397-.03.794.04 1.157.203a.672.672 0 01.339.636c-.01.21-.047.42-.108.622L37.726 18.68a5.423 5.423 0 00-.26 1.547 1.965 1.965 0 00.506 1.446 2.01 2.01 0 001.503.521 3.08 3.08 0 001.728-.556 3.275 3.275 0 001.21-1.76zm10.403-9.762a1.444 1.444 0 00-1.077.412 1.49 1.49 0 00-.412 1.092 2.48 2.48 0 00.55 1.612 4.34 4.34 0 001.445 1.236c-.25.96-.599 1.89-1.041 2.778a21.334 21.334 0 01-1.676 2.839l-.97-7.577a3.282 3.282 0 00-.722-1.857 1.98 1.98 0 00-1.446-.535 2.58 2.58 0 00-1.606.513 3.694 3.694 0 00-1.113 1.764l-.557 1.612h.424l.398-1.077c.132-.453.308-.891.527-1.309a.607.607 0 01.463-.332.382.382 0 01.347.217c.114.263.192.54.231.824l1.72 10.561a10.84 10.84 0 01-2.891 2.031 2.942 2.942 0 00-2.358-1.523 1.583 1.583 0 00-1.099.39 1.26 1.26 0 00-.426.976 1.13 1.13 0 00.405.911c.325.233.72.349 1.12.327a4.672 4.672 0 001.563-.329 9.752 9.752 0 002.79-1.525 15.5 15.5 0 002.488-2.385 22.215 22.215 0 003.072-4.894 11.623 11.623 0 001.285-4.736c.026-1.344-.458-2.016-1.434-2.016zm11.777-4.013H60.87l-5.676 15.723v.08H58.7l.955-2.696h6.362l.94 2.66h3.332L64.608 6.146l-.015-.044zm-3.867 10.1l2.11-5.957 2.119 5.956h-4.23zM75.48 9.275c0-.817.383-1.221 1.178-1.221.16-.01.319-.01.477 0h.073V5.27l-.99-.05a4.027 4.027 0 00-2.892 1.033 4.142 4.142 0 00-1.07 3.094v.868H70.57v2.588h1.656v9.101h3.253v-9.101h1.793v-2.588H75.48v-.94zm6.521 2.285v-1.345h-3.015v11.69h3.254V16.12a3.232 3.232 0 01.68-2.262 2.726 2.726 0 012.046-.724c.204.002.407.024.607.066h.072v-3.085h-.434A3.65 3.65 0 0082 11.563l.002-.003zm8.133-6.63a1.88 1.88 0 00-1.446.565 1.923 1.923 0 00-.49 1.395 2.003 2.003 0 003.368 1.395 1.886 1.886 0 00.55-1.395 1.9 1.9 0 00-1.96-1.96h-.022zm-3.022 8.098h1.395v8.876h3.254V10.215h-4.649v2.813z"/><path d="M103.163 12.934l.824-.94 1.568-1.779h-4.092l-.087.109-.665.824-3.385 4.214V5.221h-3.252v16.684h3.254v-2.624l1.684-1.91 2.978 4.534h3.853l-4.677-6.702 1.997-2.269zm10.436 7.822v1.15h2.892v-7.588a4.093 4.093 0 00-1.302-3.224 5.675 5.675 0 00-3.839-1.142 5.572 5.572 0 00-3.838 1.164c-.109.094-.21.195-.304.303a4.232 4.232 0 00-1.135 2.588v.058h3.217v-.05a1.45 1.45 0 01.252-.68 1.949 1.949 0 011.742-.68c1.352 0 2.018.514 2.018 1.577v.426h-2.242a8.437 8.437 0 00-1.236.058c-.289.022-.576.06-.86.116a4.919 4.919 0 00-1.844.723 3.235 3.235 0 00-1.308 2.891 3.712 3.712 0 001.005 2.704 4.182 4.182 0 003.116 1.049h.462c.317-.011.631-.05.941-.116a3.474 3.474 0 002.263-1.322v-.005zm-3.614-1.192a1.09 1.09 0 01-1.018-1.143.99.99 0 01.6-1.034c.212-.084.433-.14.658-.166.297-.049.597-.076.897-.08h2.17v.072a2.516 2.516 0 01-.593 1.807 2.616 2.616 0 01-1.823.608h-.224a3.278 3.278 0 01-.667-.064z"/></g><defs><clipPath id="clip0"><path fill="#fff" d="M0 0h125v27.472H0z"/></clipPath></defs></svg>