<svg width="100" height="29" fill="none" xmlns="http://www.w3.org/2000/svg"><path d="M26.79 0H3.375A3.376 3.376 0 000 3.376v22.23a3.377 3.377 0 003.376 3.376H26.79a3.376 3.376 0 003.377-3.377V3.376A3.377 3.377 0 0026.789 0zm-3.705 12.558l-1.078 6.348a4.522 4.522 0 01-1.527 2.727 4.255 4.255 0 01-2.91 1.13H6.6l1.75-10.205h14.735zm.427-2.482l-.19 1.107H8.585l.856-4.965h10.984a2.995 2.995 0 012.292.909 3.154 3.154 0 01.886 2.292c-.003.22-.02.44-.053.657m18.99 4.262c.046 2.75-1.627 5.53-5.43 5.53h-4.263V8.999h4.27c3.727 0 5.385 2.659 5.431 5.348l-.008-.008zm-7.63 3.567h2.237c2.468 0 3.446-1.802 3.4-3.575a3.23 3.23 0 00-3.4-3.384h-2.276l.038 6.96zm14.292-5.683h1.818v7.639h-1.788l-.091-1.123a2.902 2.902 0 01-2.483 1.352c-2.292 0-3.95-1.383-3.95-4.064a3.728 3.728 0 013.996-4.01 2.803 2.803 0 012.437 1.245l.06-1.039zm-4.584 3.82a2.2 2.2 0 002.292 2.33c2.98 0 2.98-4.645 0-4.645a2.184 2.184 0 00-2.291 2.291m7.845 3.843v-5.882h-1.429v-1.657h1.429v-.512a2.775 2.775 0 012.918-2.995c.708.01 1.397.226 1.986.619l-.703 1.413a2.055 2.055 0 00-1.161-.405c-.657 0-1.154.436-1.154 1.368v.511h2.254v1.658H54.35v5.882h-1.886zm6.454-7.639l.138.879a2.293 2.293 0 012.162-1.085c.73-.003 1.433.27 1.97.764l-.855 1.604a1.864 1.864 0 00-1.368-.497 1.765 1.765 0 00-1.91 1.94v4.034H57.17v-7.639h1.75z" fill="#fff"/><path d="M65.19 10.053a1.116 1.116 0 11-2.232 0 1.116 1.116 0 012.231 0zm-2.063 9.808h1.895v-7.639h-1.895v7.639zm11.795-7.708a2.208 2.208 0 01-1.406 2.093 2.657 2.657 0 011.734 2.422c0 2.429-1.818 3.193-4.064 3.193H66.03V8.998h5.156c2.14 0 3.736.963 3.736 3.155zm-6.875 1.207h3.14c1.283 0 1.703-.542 1.703-1.16 0-.497-.405-1.338-1.704-1.338h-3.14v2.498zm0 4.584h3.14c.832 0 2.031-.283 2.031-1.307 0-1.023-1.199-1.49-2.032-1.49h-3.14v2.796zm13.803-5.722h1.818v7.639h-1.787l-.092-1.123a2.91 2.91 0 01-2.483 1.352c-2.291 0-3.949-1.383-3.949-4.064a3.728 3.728 0 013.988-4.01 2.811 2.811 0 012.444 1.245l.061-1.039zm-4.583 3.82a2.192 2.192 0 002.292 2.33c2.979 0 2.979-4.645 0-4.645a2.186 2.186 0 00-2.292 2.292m12.871 3.841v-4.002a1.825 1.825 0 00-1.848-2.047 2.018 2.018 0 00-1.956 2.139v3.91h-1.879v-7.638h1.696l.122 1.039a3.437 3.437 0 012.513-1.146c1.803 0 3.247 1.345 3.247 3.75v3.996h-1.895zm4.584-10.846v6.271l2.574-3.07h2.269v.107l-3.125 3.49 3.56 3.912v.145h-2.284l-2.994-3.46v3.46h-1.895V9.014h1.895zM50.485 22.198a.764.764 0 01-.252.634.893.893 0 01-.65.222 3.27 3.27 0 01-.42 0v-1.596a2.77 2.77 0 01.489-.07.962.962 0 01.619.184.764.764 0 01.236.596l-.022.03zm-.283-.03a.528.528 0 00-.137-.39.512.512 0 00-.383-.145.809.809 0 00-.206 0v1.1h.184a.511.511 0 00.405-.168.657.657 0 00.137-.435m1.987-.688h-.29v1.589h.29v-1.589zM55 22.916a1.161 1.161 0 01-.528.123.818.818 0 01-.603-.222.764.764 0 01-.237-.596.766.766 0 01.23-.603.826.826 0 01.61-.214c.163.005.324.041.474.107l-.1.237a1.054 1.054 0 00-.397-.092.483.483 0 00-.374.145.55.55 0 00-.138.39.68.68 0 00.13.428.518.518 0 00.405.168.765.765 0 00.252-.038.287.287 0 010-.077v-.489H55v.733zm1.734-1.474h-.29v1.589h.29v-1.589zm2.574.252h-.497v1.337h-.282v-1.337h-.459v-.252h1.238v.252zm2.566 1.337h-.328l-.153-.405h-.603l-.16.405h-.283l.649-1.589h.275l.603 1.589zm-.573-.657l-.206-.535-.206.535h.412zm2.873.657h-.94v-1.589h.29v1.337h.65v.252zm4.117-.443c0 .313-.221.466-.664.466a2.568 2.568 0 01-.397-.038v-1.528c.13-.029.263-.047.397-.053.405 0 .61.152.61.45a.336.336 0 01-.068.207.42.42 0 01-.168.137.374.374 0 01.29.382v-.023zm-.351-.687a.183.183 0 00-.092-.176.472.472 0 00-.206-.038h-.122v.405h.137c.191 0 .283-.07.283-.207v.016zm.053.68c0-.16-.107-.237-.328-.237h-.145v.45h.13c.229 0 .343-.076.343-.229m3.102.466h-.32l-.161-.405h-.604l-.16.405h-.336l.649-1.589h.275l.657 1.589zm-.573-.657l-.206-.535-.207.535h.413zm3.3.634a.451.451 0 01-.169.038.343.343 0 01-.32-.206l-.589-1.016a.341.341 0 000-.053v1.26h-.29v-1.589h.428l.65 1.177v.068-1.245h.282v1.566h.008zm2.727.023h-.375l-.473-.565a.467.467 0 00-.107-.107v.672h-.29v-1.589h.32v.619l.55-.619h.375l-.703.764c.038.01.071.035.092.069l.61.756zm4.484-.795a.886.886 0 01-.191.581.688.688 0 01-.558.237.68.68 0 01-.542-.23.977.977 0 010-1.168.688.688 0 01.557-.237.673.673 0 01.55.237c.13.165.198.37.191.58h-.007zm-.306 0a.672.672 0 00-.1-.389.35.35 0 00-.335-.176.366.366 0 00-.336.176.763.763 0 00-.092.39.672.672 0 00.1.39.382.382 0 00.335.175.358.358 0 00.329-.176.672.672 0 00.1-.39zm2.636-.542h-.634v.39h.527v.237h-.527v.71h-.283v-1.589h.917v.252zm4.483 1.337h-.32l-.161-.405h-.604l-.152.405h-.29l.649-1.589h.275l.603 1.589zm-.573-.657l-.206-.535-.206.535h.412zm2.835-.68h-.626v.39h.527v.237h-.527v.71h-.29v-1.589h.916v.252zm2.559 1.337h-.336l-.321-.534-.077-.1h-.152v.642h-.283V21.51c.133-.029.269-.044.405-.046.412 0 .619.16.619.482a.474.474 0 01-.092.206.374.374 0 01-.237.145s.077.046.13.122l.344.611zm-.443-1.138c0-.153-.107-.23-.306-.23h-.137v.49h.13a.352.352 0 00.221-.069.276.276 0 00.092-.206m2.062-.436h-.29v1.589h.29v-1.589zm2.643 1.474a.925.925 0 01-.735.055.764.764 0 01-.436-.448.81.81 0 01-.051-.317.863.863 0 01.206-.588.764.764 0 01.565-.23c.156.006.31.042.45.108l-.098.236a.863.863 0 00-.36-.091.397.397 0 00-.343.168.588.588 0 00-.115.374.619.619 0 00.138.42.505.505 0 00.397.16.764.764 0 00.313-.068l.069.221zm2.803.115h-.328l-.153-.405h-.603l-.16.405h-.306l.649-1.589h.275l.626 1.589zm-.573-.657l-.206-.535-.206.535h.412z" fill="#fff"/></svg>