<svg width="40" height="36" fill="none" xmlns="http://www.w3.org/2000/svg"><path fill-rule="evenodd" clip-rule="evenodd" d="M39.993 10.75h-8.47c-3.94.007-7.134 3.12-7.14 6.963-.006 3.852 3.19 6.979 7.14 6.984H40v.612C40 32.027 35.927 36 29.035 36H10.967C4.073 36 0 32.027 0 25.309V10.676C0 3.957 4.073 0 10.967 0h18.06c6.893 0 10.966 3.957 10.966 10.676v.074zm-30.514-.015h11.302c.844-.004 1.527-.675 1.523-1.5-.003-.823-.693-1.489-1.538-1.485H9.48c-.839.003-1.52.667-1.523 1.487-.004.823.679 1.494 1.523 1.498z" fill="#3F408C"/><path d="M28.075 18.593c.418 1.903 2.086 3.241 3.99 3.206h6.5c.792 0 1.435-.656 1.435-1.467V15.27c-.002-.81-.643-1.467-1.435-1.469h-6.653c-2.166.007-3.915 1.805-3.912 4.02 0 .26.026.52.075.773z" fill="#2DDD9D"/><circle cx="32" cy="17.8" r="2" fill="#3F408C"/></svg>