<svg width="48" height="48" fill="none" xmlns="http://www.w3.org/2000/svg"><path d="M32.68 4H15.34C8.56 4 4 8.76 4 15.84v16.34C4 39.24 8.56 44 15.34 44h17.34C39.46 44 44 39.24 44 32.18V15.84C44 8.76 39.46 4 32.68 4z" fill="#2DDD9D"/><path d="M25.755 17.474v4.838c1.274.37 2.612.838 3.647 1.646 1.1.86 1.848 2.098 1.848 3.966 0 1.381-.41 2.74-1.342 3.79-.899 1.013-2.263 1.717-4.154 1.894v1.467c0 .633-.487 1.17-1.118 1.174-.64.03-1.16-.49-1.188-1.131v-.012h0v-.01l-.002-.021v-1.429c-1.967-.125-3.837-.951-5.303-2.344l-.005-.005-.005-.006a1.44 1.44 0 01-.383-.988v-.002l.25.002c-.009-.7.5-1.285 1.162-1.334l6.593-11.495zm0 0a6.33 6.33 0 012.563 1.252h0l.01.008c.215.155.468.24.732.244h.003c.825 0 1.476-.697 1.484-1.535v-.002a1.44 1.44 0 00-.383-.99l-.007-.007-.008-.007a7.621 7.621 0 00-4.409-1.955v-1.556c0-.631-.484-1.166-1.111-1.174-.02-.002-.036-.002-.043-.002 0 0 0 0 0 0-.64-.008-1.145.528-1.154 1.172h0v1.502c-3.206.332-5.423 2.488-5.423 5.38 0 1.802.732 2.973 1.817 3.781 1.017.758 2.338 1.192 3.606 1.558v5.578l2.323-13.247zm0 13.279V25.87c.665.217 1.228.466 1.64.803.461.377.736.867.73 1.582v.002a2.37 2.37 0 01-.578 1.56c-.366.42-.939.775-1.792.936zM23.447 17.34v4.333c-.643-.21-1.185-.424-1.582-.711-.445-.322-.702-.728-.702-1.341 0-.634.247-1.174.681-1.573.387-.356.932-.609 1.603-.707z" fill="#3F408C" stroke="#3F408C" stroke-width=".5"/></svg>