<svg width="108" height="109" fill="none" xmlns="http://www.w3.org/2000/svg"><g filter="url(#filter0_b)"><path d="M90.618 49.809c0 23.09-18.718 41.809-41.81 41.809C25.719 91.618 7 72.9 7 49.808 7 26.723 25.718 8 48.809 8c23.09 0 41.809 18.722 41.809 41.809z" fill="url(#paint0_linear)"/></g><g filter="url(#filter1_f)"><path d="M48.917 22.596c-14.846 0-26.896 12.052-26.896 26.896 0 14.85 12.05 26.896 26.896 26.896 14.874 0 26.896-12.047 26.896-26.896 0-14.844-12.022-26.896-26.896-26.896z" fill="url(#paint1_linear)"/></g><g filter="url(#filter2_b)"><path d="M107 66.191C107 89.282 88.282 108 65.19 108c-23.09 0-41.808-18.718-41.808-41.809 0-23.087 18.718-41.809 41.809-41.809 23.09 0 41.809 18.722 41.809 41.81z" fill="#2DDD9D" fill-opacity=".35"/><path d="M65.19 108.5c23.368 0 42.31-18.942 42.31-42.309 0-23.363-18.942-42.309-42.31-42.309-23.366 0-42.308 18.946-42.308 42.31 0 23.366 18.942 42.308 42.309 42.308z" stroke="url(#paint2_linear)" stroke-linecap="round" stroke-linejoin="round"/></g><g filter="url(#filter3_bd)"><path fill-rule="evenodd" clip-rule="evenodd" d="M49.233 63.14h5.108c.233-4.059 1.005-7.797 2.197-10.81a15.761 15.761 0 00-7.305 10.81zm15.532-18.376a21 21 0 100 42 21 21 0 000-42zm0 5.25c-.2 0-.61.084-1.221.688-.625.614-1.305 1.636-1.935 3.103-1.02 2.38-1.766 5.623-2.01 9.334H69.93c-.245-3.711-.99-6.953-2.011-9.334-.63-1.47-1.313-2.489-1.935-3.103-.611-.603-1.02-.688-1.22-.688zM75.189 63.14c-.234-4.058-1.006-7.796-2.198-10.81a15.761 15.761 0 017.306 10.81h-5.108zm-5.258 5.25H59.599c.244 3.712.99 6.954 2.01 9.335.63 1.47 1.313 2.489 1.935 3.103.612.603 1.021.688 1.22.688.2 0 .61-.085 1.221-.688.625-.614 1.308-1.636 1.935-3.103 1.021-2.38 1.766-5.623 2.01-9.335zm3.06 10.81c1.192-3.01 1.964-6.751 2.198-10.81h5.108A15.761 15.761 0 0172.99 79.2zm-16.453 0c-1.192-3.013-1.964-6.751-2.195-10.81h-5.11a15.761 15.761 0 007.305 10.81z" fill="url(#paint3_linear)"/></g><defs><linearGradient id="paint0_linear" x1="48.809" y1="8" x2="48.809" y2="91.618" gradientUnits="userSpaceOnUse"><stop stop-color="#2DDD9D"/><stop offset="1" stop-color="#2DDD9D" stop-opacity="0"/></linearGradient><linearGradient id="paint1_linear" x1="48.917" y1="22.596" x2="48.917" y2="76.388" gradientUnits="userSpaceOnUse"><stop stop-color="#2DDD9D"/><stop offset="1" stop-color="#2DDD9D" stop-opacity="0"/></linearGradient><linearGradient id="paint2_linear" x1="36.692" y1="34.124" x2="90.032" y2="100.186" gradientUnits="userSpaceOnUse"><stop stop-color="#fff" stop-opacity=".25"/><stop offset="1" stop-color="#fff" stop-opacity="0"/></linearGradient><linearGradient id="paint3_linear" x1="50.59" y1="51.59" x2="79.265" y2="97.264" gradientUnits="userSpaceOnUse"><stop stop-color="#fff"/><stop offset="1" stop-color="#fff" stop-opacity="0"/></linearGradient><filter id="filter0_b" x="-6" y="-5" width="109.618" height="109.618" filterUnits="userSpaceOnUse" color-interpolation-filters="sRGB"><feFlood flood-opacity="0" result="BackgroundImageFix"/><feGaussianBlur in="BackgroundImage" stdDeviation="6.5"/><feComposite in2="SourceAlpha" operator="in" result="effect1_backgroundBlur"/><feBlend in="SourceGraphic" in2="effect1_backgroundBlur" result="shape"/></filter><filter id="filter1_f" x=".021" y=".596" width="97.791" height="97.791" filterUnits="userSpaceOnUse" color-interpolation-filters="sRGB"><feFlood flood-opacity="0" result="BackgroundImageFix"/><feBlend in="SourceGraphic" in2="BackgroundImageFix" result="shape"/><feGaussianBlur stdDeviation="11" result="effect1_foregroundBlur"/></filter><filter id="filter2_b" x="7.382" y="8.382" width="115.618" height="115.618" filterUnits="userSpaceOnUse" color-interpolation-filters="sRGB"><feFlood flood-opacity="0" result="BackgroundImageFix"/><feGaussianBlur in="BackgroundImage" stdDeviation="7.5"/><feComposite in2="SourceAlpha" operator="in" result="effect1_backgroundBlur"/><feBlend in="SourceGraphic" in2="effect1_backgroundBlur" result="shape"/></filter><filter id="filter3_bd" x="24.765" y="25.765" width="80" height="80" filterUnits="userSpaceOnUse" color-interpolation-filters="sRGB"><feFlood flood-opacity="0" result="BackgroundImageFix"/><feGaussianBlur in="BackgroundImage" stdDeviation="7.5"/><feComposite in2="SourceAlpha" operator="in" result="effect1_backgroundBlur"/><feColorMatrix in="SourceAlpha" values="0 0 0 0 0 0 0 0 0 0 0 0 0 0 0 0 0 0 127 0"/><feOffset dx="5" dy="5"/><feGaussianBlur stdDeviation="5"/><feColorMatrix values="0 0 0 0 0.0409028 0 0 0 0 0.516667 0 0 0 0 0.342404 0 0 0 0.3 0"/><feBlend in2="effect1_backgroundBlur" result="effect2_dropShadow"/><feBlend in="SourceGraphic" in2="effect2_dropShadow" result="shape"/></filter></defs></svg>