<svg width="15" height="14" fill="none" xmlns="http://www.w3.org/2000/svg"><path fill-rule="evenodd" clip-rule="evenodd" d="M.595.205a.72.72 0 011.006 0l2.163 2.129A7.892 7.892 0 017.5 1.4c3.505 0 6.47 2.267 7.467 5.39a.69.69 0 010 .42 7.714 7.714 0 01-2.526 3.662l1.964 1.933a.692.692 0 010 .99.72.72 0 01-1.006 0l-2.552-2.512-2.322-2.284a.716.716 0 01-.02-.019L5.488 6.01a.702.702 0 01-.018-.019L.595 1.195a.692.692 0 010-.99zm7.91 8.775zm1.446-.558a2.766 2.766 0 00-.44-3.402 2.88 2.88 0 00-3.457-.432l-1.23-1.212A6.456 6.456 0 017.498 2.8H7.5c2.787 0 5.159 1.752 6.039 4.2a6.323 6.323 0 01-2.11 2.876L9.95 8.422zm-1.077-1.06a1.379 1.379 0 00-.368-1.352 1.435 1.435 0 00-1.374-.362l1.742 1.714zm-7.1-3.18a.718.718 0 01.552.203l7.01 6.898a.692.692 0 01.178.7.707.707 0 01-.548.482c-.483.09-.974.135-1.467.135-3.504 0-6.469-2.267-7.466-5.39a.69.69 0 010-.42 7.635 7.635 0 011.223-2.333.715.715 0 01.518-.276zm.162 1.798l5.3 5.215C4.563 11.088 2.312 9.37 1.46 7c.127-.354.286-.695.475-1.02z" fill="#969696"/></svg>