<svg width="125" height="14" fill="none" xmlns="http://www.w3.org/2000/svg"><path d="M95.7.408c-.18 1.031-.35 2.033-.548 3.035 0 .142-.199.275-.322.388L89.006 9.57l-.208.227h5.399a377.78 377.78 0 00-.643 3.65H78.597l-.303-1.892a.543.543 0 00-.132 0h-3.848a.475.475 0 00-.331.208c-.293.511-.558 1.04-.86 1.551a.445.445 0 01-.322.217h-4.595l.53-.879-.388.16a10.211 10.211 0 01-6.618.89 5.323 5.323 0 01-4.539-5.673 7.828 7.828 0 012.685-6.117A7.507 7.507 0 0165.446.02c1.06.032 2.103.27 3.072.7.59.27 1.105.679 1.503 1.19l-2.836 3.026a2.515 2.515 0 00-1.475-.945 3.224 3.224 0 00-3.876 2.392 5.38 5.38 0 00-.095 1.824 1.891 1.891 0 001.702 1.787 8.287 8.287 0 001.607 0 .378.378 0 00.407-.416c.032-.267.08-.532.142-.794H63.46l.595-3.366h5.91l-1.23 6.997h.048l.236-.36L76.015.74a.653.653 0 01.643-.368h4.104l2.118 12.092h.075c.133-.756.255-1.503.407-2.25.05-.223.157-.428.312-.596a1572.25 1572.25 0 015.55-5.427c.07-.069.136-.141.198-.217h-4.727L85.29.408H95.7zM75.77 8.152h2.165l-.407-3.234-1.758 3.234zM39.379 5.958c-.36.7-.71 1.4-1.069 2.09-.87 1.711-1.749 3.422-2.61 5.143a.425.425 0 01-.444.284h-2.741L31.36 5.977h-.066l-1.116 7.47H26.16c.17-.946.331-1.891.492-2.837L28.41.692c0-.227.104-.321.34-.312h5.182c.378 2.373.756 4.728 1.153 7.224.322-.681.605-1.258.88-1.844.813-1.702 1.62-3.404 2.42-5.106.085-.18.16-.302.397-.302h5.72L42.31 12.87h.075l.312-.492L49.873.711a.615.615 0 01.615-.34h4.113c.756 4.358 1.522 8.698 2.288 13.057h-4.463c-.085-.568-.17-1.125-.246-1.683 0-.208-.085-.293-.312-.293h-3.706a.444.444 0 00-.33.198c-.303.51-.568 1.04-.87 1.55a.483.483 0 01-.35.228h-8.585l1.427-7.45-.075-.02zm10.23 2.194h2.165l-.35-3.11h-.076l-1.74 3.11zm50.847 5.294c.775-4.368 1.532-8.698 2.307-13.066h3.82a.471.471 0 01.529.36c.785 2.05 1.579 4.083 2.373 6.135l.114.293c0-.123.085-.189.104-.255.321-2.07.652-4.141.945-6.202 0-.17 0-.322.255-.322h3.971c-.775 4.387-1.541 8.727-2.307 13.086h-4.141c-.104 0-.245-.17-.293-.294a487.457 487.457 0 01-2.297-5.72c0-.132-.114-.264-.208-.491-.35 2.231-.681 4.349-1.021 6.495l-4.151-.019zM16.073 9.542l-1.04 1.333c-.615.765-1.22 1.55-1.891 2.307a.624.624 0 01-.407.245H8.008a.8.8 0 01-.142 0l.218-.264a1504.85 1504.85 0 015.559-6.193.473.473 0 00.076-.634c-.946-1.768-1.806-3.536-2.714-5.304-.075-.16-.151-.33-.255-.53.104-.006.208-.006.312 0h4.113a.454.454 0 01.491.332c.35.945.728 1.806 1.097 2.704.047.123.104.246.18.406.085-.085.164-.177.236-.274.756-.945 1.513-1.947 2.279-2.912a.643.643 0 01.397-.312h4.822l-.256.312c-1.673 1.834-3.337 3.669-5.01 5.493a.52.52 0 00-.095.7c1.068 2.052 2.108 4.122 3.167 6.183.021.098.06.19.114.274H18.2a.577.577 0 01-.643-.434 133.227 133.227 0 00-1.276-3.035 4.455 4.455 0 00-.208-.397zm102.715.35h5.068c-.208 1.21-.406 2.363-.614 3.545h-9.105c.17-.945.331-1.89.491-2.79.587-3.327 1.182-6.617 1.759-9.974 0-.208.094-.293.321-.293H125c-.208 1.191-.416 2.364-.624 3.565h-4.51l-.217 1.21h4.311l-.633 3.375h-3.886c-.341 0-.482.095-.501.444a6.325 6.325 0 01-.152.918z" fill="#fff"/><path d="M0 13.38c.208-1.172.407-2.335.605-3.498.539-3.035 1.078-6.08 1.607-9.096.048-.255.142-.35.407-.35h8.008c-.085.492-.16.946-.236 1.419-.076.473-.208 1.172-.303 1.749 0 .255-.132.35-.406.34H6.164c-.293 0-.416.085-.453.388-.038.302-.123.718-.208 1.163H9.51c-.17.945-.321 1.89-.482 2.76-.123.662-.132.653-.794.653h-2.96c-.292 0-.387.113-.425.369a308.685 308.685 0 01-.671 3.782c0 .18 0 .33-.293.33H.104s-.038.029-.104-.009zm98.942.066h-4.33c.776-4.349 1.545-8.695 2.307-13.038h4.33l-2.306 13.038z" fill="#fff"/></svg>