<svg width="100" height="100" fill="none" xmlns="http://www.w3.org/2000/svg"><path fill-rule="evenodd" clip-rule="evenodd" d="M47.072 18.434l1.075 4.633c5.707.583 10.684 4.535 11.991 10.162l3.465 14.917c1.618 6.966-2.985 13.77-10.276 15.194L27.14 68.457c-7.294 1.425-14.52-3.067-16.138-10.033L7.538 43.508C6.23 37.88 9.023 32.41 13.97 29.745l-1.076-4.633C10.835 16.1 16.78 7.31 26.15 5.48c9.495-1.856 18.83 3.948 20.922 12.955zm-19.44-7.578c6.416-1.251 12.79 2.713 14.216 8.843l.932 4.003-23.292 4.544-.946-4.064c-1.387-6.106 2.675-12.074 9.09-13.326zm11.339 37.65c.34 1.465-.607 2.87-2.135 3.169-1.498.293-2.985-.636-3.325-2.1l-1.539-6.638c-.333-1.435.614-2.84 2.11-3.132 1.53-.3 3.017.629 3.35 2.064l1.539 6.637z" fill="url(#paint0_linear)"/><g opacity=".5" filter="url(#filter0_f)"><rect width="31.688" height="21.22" rx="5" transform="matrix(.9802 -.19817 .2275 .97397 17.413 37.582)" fill="#0DB97A"/></g><g filter="url(#filter1_bd)"><path d="M81.991 43.416l-3.644 12.14a16.702 16.702 0 00-4.16-1.691l-2.559-.669 3.476-11.58c2.278-7.588-2.364-15.453-10.354-17.54-7.989-2.088-16.322 2.346-18.628 9.886l-3.499 11.655-2.518-.658c-1.535-.401-3.048-.595-4.548-.544l3.655-12.178c3.405-11.203 15.695-17.788 27.423-14.723C78.52 20.62 85.357 32.202 81.991 43.416z" fill="url(#paint1_linear)"/><path d="M81.798 43.365l-3.57 11.892a16.993 16.993 0 00-3.984-1.584l-2.365-.618 3.419-11.389c2.311-7.7-2.402-15.668-10.49-17.782-8.088-2.113-16.54 2.373-18.88 10.026v.002l-3.44 11.463-2.326-.608c-1.459-.38-2.901-.578-4.335-.556l3.579-11.923c3.371-11.091 15.544-17.62 27.172-14.582 11.786 3.08 18.552 14.559 15.22 25.659z" stroke="url(#paint2_linear)" stroke-width=".4"/></g><g filter="url(#filter2_b)"><mask id="a" maskUnits="userSpaceOnUse" x="11.109" y="30.992" width="83.759" height="70.17" fill="#000"><path fill="#fff" d="M11.109 30.992h83.759v70.17H11.109z"/><path d="M76.838 44.888l-32.602-8.385c-9.082-2.337-18.605 2.851-21.269 11.585l-5.703 18.704c-2.664 8.734 2.54 17.71 11.622 20.046l32.602 8.385c9.082 2.336 18.605-2.851 21.269-11.585l5.703-18.704c2.664-8.734-2.54-17.71-11.622-20.046z"/></mask><path d="M76.838 44.888l-32.602-8.385c-9.082-2.337-18.605 2.851-21.269 11.585l-5.703 18.704c-2.664 8.734 2.54 17.71 11.622 20.046l32.602 8.385c9.082 2.336 18.605-2.851 21.269-11.585l5.703-18.704c2.664-8.734-2.54-17.71-11.622-20.046z" fill="#2DDD9D" fill-opacity=".35"/><path d="M22.967 48.088l.968.252-.968-.252zm-5.703 18.704l-.968-.252.968.252zm44.224 28.431l.29-.957-.29.957zm21.269-11.585l.968.251-.968-.251zm5.703-18.704l-.968-.251.968.251zM77.127 43.931l-32.602-8.386-.578 1.915 32.602 8.386.578-1.915zm-32.602-8.386C34.934 33.078 24.831 38.551 22 47.837l1.936.503c2.496-8.183 11.44-13.085 20.012-10.88l.578-1.915zM22 47.837L16.296 66.54l1.936.503 5.703-18.703L22 47.837zM16.296 66.54c-2.832 9.288 2.708 18.787 12.301 21.255l.579-1.915c-8.571-2.204-13.439-10.656-10.944-18.837l-1.936-.503zm12.301 21.255L61.2 96.181l.578-1.915-32.601-8.386-.579 1.915zM61.2 96.181c9.592 2.467 19.694-3.006 22.526-12.292l-1.936-.503c-2.496 8.183-11.44 13.085-20.012 10.88L61.2 96.18zm22.526-12.292l5.703-18.703-1.936-.503-5.703 18.703 1.936.503zm5.703-18.703c2.833-9.288-2.707-18.788-12.301-21.255l-.578 1.915c8.57 2.204 13.438 10.656 10.943 18.837l1.936.503z" fill="url(#paint3_linear)" mask="url(#a)"/></g><g filter="url(#filter3_bd)"><path d="M55.008 70.856c-.552 1.825-2.502 2.885-4.4 2.393-1.86-.483-2.931-2.327-2.38-4.151l2.5-8.266c.54-1.787 2.49-2.847 4.35-2.364 1.897.492 2.97 2.336 2.429 4.123l-2.5 8.265z" fill="url(#paint4_linear)"/><path d="M54.814 70.806c-.518 1.714-2.352 2.717-4.148 2.251-1.756-.456-2.762-2.194-2.244-3.909l2.5-8.265c.506-1.677 2.34-2.68 4.097-2.224 1.798.467 2.8 2.207 2.294 3.882l-2.499 8.265z" stroke="url(#paint5_linear)" stroke-width=".4"/></g><defs><linearGradient id="paint0_linear" x1="26.335" y1="5.442" x2="38.411" y2="66.3" gradientUnits="userSpaceOnUse"><stop stop-color="#2DDD9D"/><stop offset="1" stop-color="#2DDDAD" stop-opacity="0"/></linearGradient><linearGradient id="paint1_linear" x1="83.29" y1="28.191" x2="35.509" y2="16.036" gradientUnits="userSpaceOnUse"><stop stop-color="#fff"/><stop offset="1" stop-color="#fff" stop-opacity=".2"/></linearGradient><linearGradient id="paint2_linear" x1="50.979" y1="17.503" x2="61.515" y2="52.979" gradientUnits="userSpaceOnUse"><stop stop-color="#fff" stop-opacity=".25"/><stop offset="1" stop-color="#fff" stop-opacity="0"/></linearGradient><linearGradient id="paint3_linear" x1="36.403" y1="40.766" x2="53.065" y2="95.36" gradientUnits="userSpaceOnUse"><stop stop-color="#fff" stop-opacity=".25"/><stop offset="1" stop-color="#fff" stop-opacity="0"/></linearGradient><linearGradient id="paint4_linear" x1="57.199" y1="61.896" x2="49.693" y2="59.748" gradientUnits="userSpaceOnUse"><stop stop-color="#fff"/><stop offset="1" stop-color="#fff" stop-opacity=".2"/></linearGradient><linearGradient id="paint5_linear" x1="52.266" y1="59.595" x2="59.052" y2="66.524" gradientUnits="userSpaceOnUse"><stop stop-color="#fff" stop-opacity=".25"/><stop offset="1" stop-color="#fff" stop-opacity="0"/></linearGradient><filter id="filter0_f" x="3.419" y="17.192" width="63.876" height="55.167" filterUnits="userSpaceOnUse" color-interpolation-filters="sRGB"><feFlood flood-opacity="0" result="BackgroundImageFix"/><feBlend in="SourceGraphic" in2="BackgroundImageFix" result="shape"/><feGaussianBlur stdDeviation="7.5" result="effect1_foregroundBlur"/></filter><filter id="filter1_bd" x="20.557" y="1.762" width="77.292" height="68.794" filterUnits="userSpaceOnUse" color-interpolation-filters="sRGB"><feFlood flood-opacity="0" result="BackgroundImageFix"/><feGaussianBlur in="BackgroundImage" stdDeviation="7.5"/><feComposite in2="SourceAlpha" operator="in" result="effect1_backgroundBlur"/><feColorMatrix in="SourceAlpha" values="0 0 0 0 0 0 0 0 0 0 0 0 0 0 0 0 0 0 127 0"/><feOffset dx="5" dy="5"/><feGaussianBlur stdDeviation="5"/><feColorMatrix values="0 0 0 0 0.0509804 0 0 0 0 0.72549 0 0 0 0 0.478431 0 0 0 0.5 0"/><feBlend in2="effect1_backgroundBlur" result="effect2_dropShadow"/><feBlend in="SourceGraphic" in2="effect2_dropShadow" result="shape"/></filter><filter id="filter2_b" x="-8.445" y="10.954" width="122.615" height="109.819" filterUnits="userSpaceOnUse" color-interpolation-filters="sRGB"><feFlood flood-opacity="0" result="BackgroundImageFix"/><feGaussianBlur in="BackgroundImage" stdDeviation="12"/><feComposite in2="SourceAlpha" operator="in" result="effect1_backgroundBlur"/><feBlend in="SourceGraphic" in2="effect1_backgroundBlur" result="shape"/></filter><filter id="filter3_bd" x="33.083" y="43.351" width="39.563" height="45.018" filterUnits="userSpaceOnUse" color-interpolation-filters="sRGB"><feFlood flood-opacity="0" result="BackgroundImageFix"/><feGaussianBlur in="BackgroundImage" stdDeviation="7.5"/><feComposite in2="SourceAlpha" operator="in" result="effect1_backgroundBlur"/><feColorMatrix in="SourceAlpha" values="0 0 0 0 0 0 0 0 0 0 0 0 0 0 0 0 0 0 127 0"/><feOffset dx="5" dy="5"/><feGaussianBlur stdDeviation="5"/><feColorMatrix values="0 0 0 0 0.0509804 0 0 0 0 0.72549 0 0 0 0 0.478431 0 0 0 0.5 0"/><feBlend in2="effect1_backgroundBlur" result="effect2_dropShadow"/><feBlend in="SourceGraphic" in2="effect2_dropShadow" result="shape"/></filter></defs></svg>