<svg width="175" height="54" fill="none" xmlns="http://www.w3.org/2000/svg"><g clip-path="url(#clip0)" fill="#fff"><path d="M47.5 0l18 27L47 53.5h9l14-20 7.5 10.313h9L74.687 27 86.5 9.5H77L70 20 56.5 0h-9z"/><path d="M7.512 18.248c1.76 0 3.304.344 4.632 1.032 1.344.688 2.376 1.672 3.096 2.952.736 1.264 1.104 2.736 1.104 4.416 0 1.68-.368 3.152-1.104 4.416-.72 1.248-1.752 2.216-3.096 2.904C10.816 34.656 9.272 35 7.512 35H1.656V18.248h5.856zm-.12 13.896c1.76 0 3.12-.48 4.08-1.44s1.44-2.312 1.44-4.056c0-1.744-.48-3.104-1.44-4.08-.96-.992-2.32-1.488-4.08-1.488H5.016v11.064h2.376zm10.603-3.84c0-1.344.264-2.536.792-3.576.544-1.04 1.272-1.84 2.184-2.4.928-.56 1.96-.84 3.096-.84.992 0 1.856.2 2.592.6.752.4 1.352.904 1.8 1.512v-1.896h3.384V35H28.46v-1.944c-.432.624-1.032 1.144-1.8 1.56-.752.4-1.624.6-2.616.6a5.71 5.71 0 01-3.072-.864c-.912-.576-1.64-1.384-2.184-2.424-.528-1.056-.792-2.264-.792-3.624zm10.464.048c0-.816-.16-1.512-.48-2.088-.32-.592-.752-1.04-1.296-1.344a3.397 3.397 0 00-1.752-.48c-.624 0-1.2.152-1.728.456-.528.304-.96.752-1.296 1.344-.32.576-.48 1.264-.48 2.064s.16 1.504.48 2.112c.336.592.768 1.048 1.296 1.368.544.32 1.12.48 1.728.48.624 0 1.208-.152 1.752-.456.544-.32.976-.768 1.296-1.344.32-.592.48-1.296.48-2.112zm12.762-3.888h-2.328V35h-3.408V24.464h-1.512v-2.76h1.512v-.672c0-1.632.464-2.832 1.392-3.6.928-.768 2.328-1.128 4.2-1.08v2.832c-.816-.016-1.384.12-1.704.408-.32.288-.48.808-.48 1.56v.552h2.328v2.76zm5.537-.696a4.755 4.755 0 011.68-1.656c.704-.4 1.504-.6 2.4-.6v3.528h-.888c-1.056 0-1.856.248-2.4.744-.528.496-.792 1.36-.792 2.592V35h-3.36V21.704h3.36v2.064zm8.047-3.648c-.592 0-1.088-.184-1.488-.552a1.925 1.925 0 01-.576-1.416c0-.56.192-1.024.576-1.392.4-.384.896-.576 1.488-.576s1.08.192 1.464.576c.4.368.6.832.6 1.392 0 .56-.2 1.032-.6 1.416-.384.368-.872.552-1.464.552zm1.656 1.584V35h-3.36V21.704h3.36zm25.331 6.648c0-1.376.28-2.576.84-3.6.56-1.04 1.336-1.84 2.328-2.4.992-.576 2.128-.864 3.408-.864 1.648 0 3.008.416 4.08 1.248 1.088.816 1.816 1.968 2.184 3.456h-3.624c-.192-.576-.52-1.024-.984-1.344-.448-.336-1.008-.504-1.68-.504-.96 0-1.72.352-2.28 1.056-.56.688-.84 1.672-.84 2.952 0 1.264.28 2.248.84 2.952.56.688 1.32 1.032 2.28 1.032 1.36 0 2.248-.608 2.664-1.824h3.624c-.368 1.44-1.096 2.584-2.184 3.432-1.088.848-2.448 1.272-4.08 1.272-1.28 0-2.416-.28-3.408-.84a6.108 6.108 0 01-2.328-2.4c-.56-1.04-.84-2.248-.84-3.624zm22.79-6.84c1.008 0 1.904.224 2.688.672.784.432 1.392 1.08 1.824 1.944.448.848.672 1.872.672 3.072V35h-3.36v-7.344c0-1.056-.264-1.864-.792-2.424-.528-.576-1.248-.864-2.16-.864-.928 0-1.664.288-2.208.864-.528.56-.792 1.368-.792 2.424V35h-3.36V17.24h3.36v6.12c.432-.576 1.008-1.024 1.728-1.344.72-.336 1.52-.504 2.4-.504zm7.515 6.792c0-1.344.264-2.536.792-3.576.544-1.04 1.272-1.84 2.184-2.4.928-.56 1.96-.84 3.096-.84.992 0 1.856.2 2.592.6.752.4 1.352.904 1.8 1.512v-1.896h3.384V35h-3.384v-1.944c-.432.624-1.032 1.144-1.8 1.56-.752.4-1.624.6-2.616.6a5.71 5.71 0 01-3.072-.864c-.912-.576-1.64-1.384-2.184-2.424-.528-1.056-.792-2.264-.792-3.624zm10.464.048c0-.816-.16-1.512-.48-2.088-.32-.592-.752-1.04-1.296-1.344a3.397 3.397 0 00-1.752-.48c-.624 0-1.2.152-1.728.456-.528.304-.96.752-1.296 1.344-.32.576-.48 1.264-.48 2.064s.16 1.504.48 2.112c.336.592.768 1.048 1.296 1.368.544.32 1.12.48 1.728.48.624 0 1.208-.152 1.752-.456.544-.32.976-.768 1.296-1.344.32-.592.48-1.296.48-2.112zm14.033-6.84c1.584 0 2.864.504 3.84 1.512.976.992 1.464 2.384 1.464 4.176V35h-3.36v-7.344c0-1.056-.264-1.864-.792-2.424-.528-.576-1.248-.864-2.16-.864-.928 0-1.664.288-2.208.864-.528.56-.792 1.368-.792 2.424V35h-3.36V21.704h3.36v1.656a4.555 4.555 0 011.704-1.344 5.28 5.28 0 012.304-.504zm13.708-.024c.992 0 1.864.2 2.616.6.752.384 1.344.888 1.776 1.512v-1.896h3.384v13.392c0 1.232-.248 2.328-.744 3.288-.496.976-1.24 1.744-2.232 2.304-.992.576-2.192.864-3.6.864-1.888 0-3.44-.44-4.656-1.32-1.2-.88-1.88-2.08-2.04-3.6h3.336c.176.608.552 1.088 1.128 1.44.592.368 1.304.552 2.136.552.976 0 1.768-.296 2.376-.888.608-.576.912-1.456.912-2.64v-2.064c-.432.624-1.032 1.144-1.8 1.56-.752.416-1.616.624-2.592.624a5.71 5.71 0 01-3.072-.864c-.928-.576-1.664-1.384-2.209-2.424-.528-1.056-.792-2.264-.792-3.624 0-1.344.264-2.536.792-3.576.545-1.04 1.273-1.84 2.185-2.4.928-.56 1.96-.84 3.096-.84zm4.392 6.864c0-.816-.16-1.512-.48-2.088-.32-.592-.752-1.04-1.296-1.344a3.397 3.397 0 00-1.752-.48c-.624 0-1.2.152-1.728.456-.528.304-.96.752-1.296 1.344-.32.576-.48 1.264-.48 2.064s.16 1.504.48 2.112c.336.592.768 1.048 1.296 1.368.544.32 1.12.48 1.728.48.624 0 1.208-.152 1.752-.456.544-.32.976-.768 1.296-1.344.32-.592.48-1.296.48-2.112zm19.025-.288c0 .48-.032.912-.096 1.296h-9.72c.08.96.416 1.712 1.008 2.256.592.544 1.32.816 2.184.816 1.248 0 2.136-.536 2.664-1.608h3.624c-.384 1.28-1.12 2.336-2.208 3.168-1.088.816-2.424 1.224-4.008 1.224-1.28 0-2.432-.28-3.456-.84a6.182 6.182 0 01-2.376-2.424c-.56-1.04-.84-2.24-.84-3.6 0-1.376.28-2.584.84-3.624a5.861 5.861 0 012.352-2.4c1.008-.56 2.168-.84 3.48-.84 1.264 0 2.392.272 3.384.816a5.63 5.63 0 012.328 2.328c.56.992.84 2.136.84 3.432zm-3.48-.96c-.016-.864-.328-1.552-.936-2.064-.608-.528-1.352-.792-2.232-.792-.832 0-1.536.256-2.112.768-.56.496-.904 1.192-1.032 2.088h6.312zm-80.806 14.76H89L89.767 38h2.28l-.084.429h-1.847l-.25 1.245h1.81l-.084.43h-1.815l-.344 1.76zm3.462 0h-.39l.557-2.798h.391l-.088.429c.132-.166.27-.288.412-.365a1.05 1.05 0 01.527-.122l-.09.446a.619.619 0 00-.197-.023.72.72 0 00-.407.133 1.24 1.24 0 00-.323.325l-.392 1.975zm2.843-3.198a.23.23 0 01-.172-.07.267.267 0 01-.068-.185.32.32 0 01.094-.237.286.286 0 01.204-.093c.066 0 .121.025.167.075a.25.25 0 01.073.18.32.32 0 01-.094.238.286.286 0 01-.204.092zm-.47 3.198h-.39l.558-2.798h.391l-.558 2.798zm2.69.07c-.344 0-.624-.112-.84-.336-.212-.224-.318-.53-.318-.916 0-.463.138-.859.412-1.187.275-.332.61-.498 1.007-.498.442 0 .756.173.944.521l-.297.25c-.129-.256-.34-.383-.636-.383a.877.877 0 00-.741.382 1.491 1.491 0 00-.282.91c0 .278.073.492.22.643.149.15.338.226.568.226.25 0 .462-.11.636-.33l.224.29c-.25.285-.549.428-.897.428zm2.734 0c-.181 0-.322-.042-.422-.127-.101-.086-.152-.213-.152-.383 0-.05.006-.104.016-.162l.365-1.82h-.417l.078-.376h.417l.152-.765h.391l-.151.765h.511l-.079.377h-.511l-.344 1.726a.791.791 0 00-.01.116c0 .174.083.26.25.26.097 0 .177-.03.24-.092l.047.348a.567.567 0 01-.381.133zm2.29-3.268a.233.233 0 01-.173-.07.268.268 0 01-.067-.185c0-.096.031-.175.094-.237a.284.284 0 01.203-.093c.066 0 .122.025.167.075.049.05.073.11.073.18a.318.318 0 01-.094.238.286.286 0 01-.203.092zm-.47 3.198h-.391l.558-2.798h.391l-.558 2.798zm2.684.07c-.354 0-.636-.112-.845-.336-.205-.228-.307-.53-.307-.904 0-.452.133-.848.401-1.188.271-.34.605-.51 1.002-.51.354 0 .634.114.839.342.209.228.313.53.313.904 0 .452-.135.848-.406 1.188-.268.336-.6.504-.997.504zm.011-.388c.278 0 .511-.13.699-.388a1.52 1.52 0 00.281-.904c0-.267-.066-.477-.198-.632-.132-.158-.316-.237-.553-.237-.278 0-.511.131-.699.394a1.494 1.494 0 00-.281.898c0 .266.066.479.198.637.132.154.316.232.553.232zm4.466.318h-.391l.365-1.836a1.47 1.47 0 00.031-.191c0-.155-.047-.269-.141-.342a.543.543 0 00-.354-.11c-.285 0-.553.147-.804.44l-.406 2.04h-.392l.558-2.799h.392l-.084.406c.299-.317.597-.476.892-.476.226 0 .407.062.543.186.139.12.208.29.208.51 0 .077-.01.154-.031.231l-.386 1.941zm1.824 0h-.391l.767-3.864h.391l-.767 3.864zm2.763.07c-.379 0-.68-.112-.903-.336-.219-.224-.328-.525-.328-.904 0-.467.137-.867.412-1.2.275-.331.61-.498 1.007-.498.326 0 .589.114.787.342.198.228.297.522.297.881 0 .116-.013.245-.041.388h-2.055a.845.845 0 01-.006.064v.07c0 .231.075.428.225.59.149.163.36.244.631.244.278 0 .52-.091.725-.273l.13.302c-.25.22-.544.33-.881.33zm-.783-1.645h1.69a.861.861 0 00-.193-.701c-.132-.155-.32-.232-.563-.232a.817.817 0 00-.605.278c-.177.181-.287.4-.329.654zm4.014 1.645c-.473 0-.828-.164-1.064-.492l.25-.302a1.005 1.005 0 00.835.44.588.588 0 00.417-.144.45.45 0 00.162-.348c0-.096-.045-.181-.136-.255a1.206 1.206 0 00-.334-.185 28.8 28.8 0 01-.391-.168.93.93 0 01-.328-.244.567.567 0 01-.136-.376c0-.243.085-.448.255-.614.171-.166.404-.25.699-.25.209 0 .399.045.569.134a.958.958 0 01.391.324l-.224.284a.733.733 0 00-.308-.272.927.927 0 00-.448-.116.614.614 0 00-.397.122.384.384 0 00-.146.307c0 .092.045.173.136.243.09.066.2.126.328.18.132.05.263.106.392.168a.87.87 0 01.333.255.583.583 0 01.136.388c0 .255-.09.473-.271.654-.178.178-.418.267-.72.267zm3.076 0c-.472 0-.827-.164-1.064-.492l.251-.302a1.004 1.004 0 00.834.44.593.593 0 00.418-.144.453.453 0 00.161-.348c0-.096-.045-.181-.135-.255a1.22 1.22 0 00-.334-.185c-.129-.054-.259-.11-.391-.168a.943.943 0 01-.329-.244.572.572 0 01-.136-.376c0-.243.086-.448.256-.614.17-.166.403-.25.699-.25.209 0 .398.045.569.134a.965.965 0 01.391.324l-.225.284a.73.73 0 00-.307-.272.93.93 0 00-.449-.116.613.613 0 00-.396.122.381.381 0 00-.146.307c0 .092.045.173.135.243.091.066.2.126.329.18a5.1 5.1 0 01.391.168.873.873 0 01.334.255c.09.108.136.237.136.388a.894.894 0 01-.272.654c-.177.178-.417.267-.72.267zm7.525-.07h-.433l.647-3.25-1.831 3.25h-.177l-.537-3.25-.642 3.25h-.433l.767-3.864h.6l.49 2.978L128.217 38h.642l-.767 3.864zm2.7.07c-.355 0-.636-.112-.845-.336-.205-.228-.308-.53-.308-.904 0-.452.134-.848.402-1.188.271-.34.605-.51 1.001-.51.355 0 .635.114.84.342.209.228.313.53.313.904 0 .452-.136.848-.407 1.188-.267.336-.6.504-.996.504zm.01-.388c.279 0 .512-.13.699-.388.188-.263.282-.564.282-.904 0-.267-.066-.477-.198-.632-.132-.158-.317-.237-.553-.237-.278 0-.511.131-.699.394a1.488 1.488 0 00-.282.898c0 .266.066.479.199.637.132.154.316.232.552.232zm4.467.318h-.392l.366-1.836a1.69 1.69 0 00.031-.191c0-.155-.047-.269-.141-.342a.545.545 0 00-.355-.11c-.285 0-.553.147-.803.44l-.407 2.04h-.391l.558-2.799h.391l-.083.406c.299-.317.596-.476.892-.476.226 0 .407.062.542.186.139.12.209.29.209.51 0 .077-.01.154-.031.231l-.386 1.941zm2.763.07c-.379 0-.68-.112-.902-.336-.219-.224-.329-.525-.329-.904 0-.467.137-.867.412-1.2.275-.331.61-.498 1.007-.498.327 0 .589.114.787.342.199.228.298.522.298.881 0 .116-.014.245-.042.388h-2.055l-.005.064v.07c0 .231.074.428.224.59.149.163.36.244.631.244.278 0 .52-.091.725-.273l.13.302c-.25.22-.544.33-.881.33zm-.782-1.645h1.69a.866.866 0 00-.193-.701c-.133-.155-.32-.232-.564-.232-.226 0-.427.092-.605.278-.177.181-.287.4-.328.654zm2.693 2.647l.136-.388a.555.555 0 00.245.046c.139 0 .265-.092.376-.278l.255-.434-.48-2.816h.413l.375 2.294 1.299-2.294H143l-1.94 3.366c-.219.379-.482.568-.788.568a.793.793 0 01-.329-.064z"/></g><defs><clipPath id="clip0"><path fill="#fff" d="M0 0h175v53.5H0z"/></clipPath></defs></svg>