<svg width="100" height="33" fill="none" xmlns="http://www.w3.org/2000/svg"><path d="M7.888 11.64v.364c.093 3.185.183 6.373.27 9.564l.117 4.429c0 .418 0 .426-.404.426H.411c-.411 0-.411 0-.411-.426V.006h11.215a.388.388 0 01.419.326l4.534 13.495c.031.053.07.1.116.14.037.05.079.096.124.139.039-.054.101-.094.116-.155.116-.374.226-.776.334-1.133C18.06 8.651 19.267 4.484 20.477.316c.061-.217.139-.31.38-.31H32.49v25.967c0 .435 0 .435-.442.435h-7.757c-.412 0-.412 0-.412-.396.057-3.102.109-6.186.155-9.252l.094-4.653v-.435h-.11a2.547 2.547 0 00-.163.326c-.69 1.97-1.365 3.91-1.986 5.849-.905 2.761-1.815 5.52-2.73 8.276-.07.232-.193.287-.419.287H13.2a.44.44 0 01-.504-.374c-1.52-4.716-3.047-9.424-4.58-14.125-.038-.108-.093-.209-.139-.31l-.09.038zm69.984 0c-.046.1-.115.193-.155.302-.729 2.21-1.466 4.42-2.195 6.636-.83 2.513-1.667 5.033-2.49 7.554a.348.348 0 01-.388.28h-5.622a.373.373 0 01-.419-.326c-1.551-4.72-3.087-9.447-4.607-14.178a2.6 2.6 0 00-.132-.295h-.093v.28c.098 3.827.201 7.65.31 11.471 0 .877 0 1.761.07 2.638 0 .287-.062.388-.365.388h-7.531c-.287 0-.374-.101-.374-.374V.013h11.272a.388.388 0 01.434.326l3.569 10.634.977 2.897c.047.092.105.178.171.256.055-.077.102-.16.14-.248C71.74 9.37 73.04 4.866 74.344.363a.411.411 0 01.472-.356h11.541v25.98c0 .427 0 .427-.442.427h-7.757c-.418 0-.426 0-.418-.426l.217-12.077V11.69l-.085-.05zm-24.836 6.98v7.33c0 .473 0 .473-.467.473H35.903c-.458 0-.458 0-.458-.45V.037h8.904V18.62h8.687zm30.099 14.33H67.16c-.644 0-.83-.187-.83-.842v-4.654c0-.52.217-.776.776-.776h32.118c.52 0 .775.226.775.776v4.767c0 .527-.217.775-.775.775l-16.09-.047zm1.66-1.707c-.287-.923-.59-1.909-.9-2.885-.109-.341-.14-.776-.374-.962-.235-.186-.683-.038-1.028-.062-.233 0-.31.078-.374.288-.374 1.225-.776 2.45-1.14 3.676-.094.28-.179.566-.271.884h1.288c.046-.193.085-.395.147-.59.063-.194.116-.186.179-.193h1.24c.048.187.102.341.125.496a.374.374 0 00.395.326h4.58v-1.093h-2.265c.085-.124.14-.202.202-.28.561-.706 1.086-1.443 1.69-2.102.396-.442.281-.908.295-1.389h-3.498v1.04h1.974l-2.265 2.846zM72.27 27.364h-1.473c-.07 0-.178.132-.201.226-.156.682-.295 1.38-.443 2.07a1.64 1.64 0 01-.115.412c-.217-.822-.388-1.629-.567-2.436 0-.1-.108-.263-.17-.263h-1.513v4.86h.736c.24 0 .287-.07.287-.295v-2.94h.062l.682 3.21h.148c.776 0 .776 0 .946-.729.187-.876.38-1.753.566-2.621h.054v3.32h1.001v-4.814zm22.415 0h-1.202v2.575l-.209-.348-1.156-2.032c-.047-.085-.14-.202-.217-.21H90.84v4.84h1.187v-2.454a9.984 9.984 0 011.056 1.69 1.122 1.122 0 001.365.776c.217 0 .287-.078.287-.303v-3.364l-.048-1.17zm-14.084 1.292a1.224 1.224 0 000-.193 1.551 1.551 0 00-1.551-1.202 1.979 1.979 0 00-2.327 1.551 3.513 3.513 0 00.061 2.219 1.698 1.698 0 001.156 1.156 2.73 2.73 0 002.606-.59.25.25 0 00.108-.17v-1.963H78.75v1.008h.83a.886.886 0 01-.062.426.923.923 0 01-1.495-.148 2.396 2.396 0 010-1.946.714.714 0 011.016-.357c.16.137.305.29.434.458l1.13-.249zm17.746.481H96.47v-.775h2.032v-1.009h-3.289v4.825h3.341V31.03h-2.078v-.892h1.876l-.005-1zm-25.99 3.065h1.07c.178 0 .24-.062.286-.225.155-.59.163-.59.776-.59h.124c.597 0 .59 0 .776.581 0 .085.116.217.178.217h1.187c-.046-.163-.077-.287-.115-.411l-1.075-3.404c-.101-.341-.125-.776-.349-.97-.224-.193-.706-.053-1.063-.077a.31.31 0 00-.364.264c-.287.977-.597 1.947-.9 2.916l-.532 1.699zm16.628 0h.935c.294 0 .333-.062.326-.318v-4.523h-1.241l-.02 4.84z" fill="#fff"/><path d="M83.294 30.324h-.83l.388-1.551h.054l.388 1.551zm-8.339-.007h-.83l.388-1.552h.061l.38 1.552z" fill="#fff"/></svg>