<svg width="40" height="40" fill="none" xmlns="http://www.w3.org/2000/svg"><path d="M28.151 0h6.772C37.728 0 40 2.292 40 5.12v6.829c0 2.828-2.272 5.12-5.077 5.12h-6.772c-2.804 0-5.077-2.292-5.077-5.12v-6.83C23.074 2.293 25.347 0 28.151 0z" fill="#2DDD9D"/><path fill-rule="evenodd" clip-rule="evenodd" d="M5.077 0h6.772c2.804 0 5.077 2.292 5.077 5.12v6.829c0 2.828-2.272 5.12-5.077 5.12H5.077C2.273 17.069 0 14.777 0 11.949v-6.83C0 2.293 2.273 0 5.077 0zm0 22.931h6.772c2.804 0 5.077 2.292 5.077 5.12v6.83c0 2.825-2.272 5.119-5.077 5.119H5.077C2.273 40 0 37.706 0 34.88v-6.829c0-2.828 2.273-5.12 5.077-5.12zm29.846 0h-6.772c-2.805 0-5.077 2.292-5.077 5.12v6.83c0 2.825 2.272 5.119 5.077 5.119h6.772C37.727 40 40 37.706 40 34.88v-6.829c0-2.828-2.273-5.12-5.077-5.12z" fill="#3F408C"/></svg>