<svg width="101" height="100" fill="none" xmlns="http://www.w3.org/2000/svg"><path d="M50.106 64.747c-.31.187-.66.3-1.021.318l-11.663.59c-3.31.166-6.158-.172-8.709-1.03-5.581-1.876-10.265-5.784-13.185-11.011L5.912 36.413c-1.11-1.985-.862-4.52.612-6.31L19.73 14.115a5.41 5.41 0 013.062-1.876l19.764-4.233a5.099 5.099 0 015.55 2.523l9.623 17.214c2.919 5.218 3.883 11.404 2.72 17.418-.535 2.76-1.649 5.526-3.402 8.457L50.868 63.97a2.268 2.268 0 01-.762.777z" fill="url(#paint0_linear)"/><g filter="url(#filter0_f)"><path d="M44.948 54.498a1.68 1.68 0 01-.682.236l-7.68.817c-2.18.231-4.038.135-5.682-.293-3.598-.933-6.535-3.148-8.267-6.242l-5.704-10.18c-.658-1.175-.405-2.74.627-3.897l9.24-10.326a4.173 4.173 0 012.077-1.271l13.13-3.37c1.468-.379 2.898.158 3.554 1.333l5.708 10.188c1.73 3.088 2.144 6.846 1.166 10.583-.449 1.714-1.279 3.455-2.534 5.322l-4.425 6.594a1.707 1.707 0 01-.528.506z" fill="#0DB97A"/></g><g filter="url(#filter1_b)"><mask id="a" maskUnits="userSpaceOnUse" x="22.772" y="9.042" width="78.619" height="92.368" fill="#000"><path fill="#fff" d="M22.772 9.042h78.619v92.368H22.772z"/><path d="M56.68 94.652a2.998 2.998 0 01-1.322-.57L42.67 84.431c-3.6-2.742-6.316-5.597-8.308-8.728-4.36-6.849-6.17-15.008-5.083-22.98l3.563-26.236c.41-3.028 2.682-5.429 5.646-5.982l26.516-4.902c1.576-.305 3.247-.034 4.696.754l24.067 13.016c2.695 1.452 4.228 4.467 3.814 7.49L94.013 63.12c-1.08 7.96-4.975 15.2-10.964 20.392-2.748 2.38-6.109 4.259-10.27 5.746l-14.684 5.26a2.833 2.833 0 01-1.414.134z"/></mask><path d="M56.68 94.652a2.998 2.998 0 01-1.322-.57L42.67 84.431c-3.6-2.742-6.316-5.597-8.308-8.728-4.36-6.849-6.17-15.008-5.083-22.98l3.563-26.236c.41-3.028 2.682-5.429 5.646-5.982l26.516-4.902c1.576-.305 3.247-.034 4.696.754l24.067 13.016c2.695 1.452 4.228 4.467 3.814 7.49L94.013 63.12c-1.08 7.96-4.975 15.2-10.964 20.392-2.748 2.38-6.109 4.259-10.27 5.746l-14.684 5.26a2.833 2.833 0 01-1.414.134z" fill="#2DDD9D" fill-opacity=".5"/><path d="M56.54 95.642a.972.972 0 001.127-.826 1.03 1.03 0 00-.845-1.154l-.282 1.98zm-1.182-1.56l.59-.795-.59.795zM42.67 84.431l-.59.795h.001l.59-.796zm-8.308-8.728l.836-.528-.836.528zm-5.083-22.98l.987.16v-.001l-.988-.158zm3.563-26.236l.987.158-.987-.158zm5.646-5.982l-.201-.987h-.002l.203.987zm26.516-4.902l.201.987.008-.002-.21-.986zm4.696.754l-.458.88.002.002.456-.882zm24.067 13.016l-.456.881.002.001.454-.882zm3.814 7.49l-.987-.159v.001l.987.159zM94.013 63.12l-.987-.159.987.159zM83.05 83.511l.66.767-.66-.767zm-10.27 5.746l-.353-.947.352.947zm-14.684 5.26l-.353-.946-.004.002.357.945zm-1.282-.858a.972.972 0 00-1.12.836 1.03 1.03 0 00.855 1.147l.265-1.983zm.009.002a1.98 1.98 0 01-.875-.375l-1.178 1.591a4.014 4.014 0 001.771.764l.282-1.98zm-.875-.375l-12.69-9.652-1.177 1.591 12.69 9.652 1.177-1.591zm-12.689-9.652c-3.523-2.683-6.148-5.451-8.062-8.46l-1.67 1.056c2.07 3.254 4.877 6.196 8.554 8.995l1.178-1.591zm-8.062-8.46c-4.23-6.644-5.984-14.56-4.931-22.293l-1.975-.317c-1.118 8.209.744 16.612 5.236 23.666l1.67-1.056zm-4.931-22.293l3.563-26.237-1.974-.316-3.564 26.236 1.975.317zm3.564-26.237c.353-2.61 2.312-4.677 4.861-5.153l-.406-1.974c-3.378.63-5.963 3.364-6.43 6.81l1.975.317zm4.86-5.152l26.515-4.903-.403-1.975-26.515 4.903.403 1.974zm26.523-4.905c1.346-.26 2.782-.029 4.029.65l.916-1.761c-1.65-.898-3.557-1.21-5.363-.86l.418 1.971zm4.031.651l24.068 13.015.91-1.763-24.066-13.015-.912 1.763zm24.069 13.016a6.384 6.384 0 013.28 6.45l1.975.318c.471-3.442-1.272-6.876-4.346-8.533l-.91 1.765zm3.28 6.45L93.027 62.96l1.975.317 3.566-26.256-1.974-.317zM93.027 62.96C91.978 70.684 88.2 77.71 82.39 82.745l1.32 1.534C89.877 78.932 93.889 71.475 95 63.278l-1.975-.317zM82.39 82.744c-2.64 2.288-5.89 4.112-9.963 5.567l.704 1.894c4.251-1.52 7.723-3.452 10.579-5.926l-1.32-1.535zm-9.964 5.567l-14.683 5.261.706 1.893 14.683-5.26-.706-1.894zm-14.687 5.263a1.851 1.851 0 01-.925.086l-.265 1.983c.635.1 1.29.045 1.905-.18l-.715-1.89z" fill="url(#paint1_linear)" mask="url(#a)"/></g><g filter="url(#filter2_bd)"><path d="M58.076 63.792a2.967 2.967 0 01-1.92-1.174l-6.261-8.477c-.967-1.315-.718-3.148.559-4.098 1.277-.954 3.098-.662 4.069.65l4.506 6.097 14.675-10.944c1.28-.953 3.102-.662 4.069.65.97 1.316.72 3.152-.556 4.099L60.225 63.268a2.818 2.818 0 01-2.149.524z" fill="url(#paint2_linear)"/><path d="M50.514 50.124h0c1.233-.92 2.992-.64 3.929.628l4.506 6.096.06.082.08-.06 14.675-10.943c1.237-.92 2.996-.639 3.93.627.936 1.272.695 3.046-.537 3.96h0L60.165 63.186h0a2.72 2.72 0 01-2.075.506 2.865 2.865 0 01-1.854-1.134s0 0 0 0l-6.262-8.476s0 0 0 0c-.933-1.271-.692-3.042.54-3.959z" stroke="url(#paint3_linear)" stroke-opacity=".5" stroke-width=".2"/></g><defs><linearGradient id="paint0_linear" x1="21.223" y1="12.841" x2="51.953" y2="63.629" gradientUnits="userSpaceOnUse"><stop stop-color="#2DDD9D"/><stop offset="1" stop-color="#2DDD9D" stop-opacity="0"/></linearGradient><linearGradient id="paint1_linear" x1="44.17" y1="21.12" x2="88.015" y2="82.288" gradientUnits="userSpaceOnUse"><stop stop-color="#fff" stop-opacity=".25"/><stop offset="1" stop-color="#fff" stop-opacity="0"/></linearGradient><linearGradient id="paint2_linear" x1="76.233" y1="49.254" x2="44.939" y2="46.186" gradientUnits="userSpaceOnUse"><stop stop-color="#fff"/><stop offset="1" stop-color="#fff" stop-opacity=".2"/></linearGradient><linearGradient id="paint3_linear" x1="52.873" y1="48.682" x2="76.605" y2="52.235" gradientUnits="userSpaceOnUse"><stop stop-color="#fff"/><stop offset="1" stop-color="#fff" stop-opacity="0"/></linearGradient><filter id="filter0_f" x=".57" y="3.852" width="68.384" height="67.821" filterUnits="userSpaceOnUse" color-interpolation-filters="sRGB"><feFlood flood-opacity="0" result="BackgroundImageFix"/><feBlend in="SourceGraphic" in2="BackgroundImageFix" result="shape"/><feGaussianBlur stdDeviation="8" result="effect1_foregroundBlur"/></filter><filter id="filter1_b" x="3.974" y="-9.523" width="118.67" height="129.214" filterUnits="userSpaceOnUse" color-interpolation-filters="sRGB"><feFlood flood-opacity="0" result="BackgroundImageFix"/><feGaussianBlur in="BackgroundImage" stdDeviation="12"/><feComposite in2="SourceAlpha" operator="in" result="effect1_backgroundBlur"/><feBlend in="SourceGraphic" in2="effect1_backgroundBlur" result="shape"/></filter><filter id="filter2_bd" x="34.306" y="30.285" width="59.058" height="48.544" filterUnits="userSpaceOnUse" color-interpolation-filters="sRGB"><feFlood flood-opacity="0" result="BackgroundImageFix"/><feGaussianBlur in="BackgroundImage" stdDeviation="7.5"/><feComposite in2="SourceAlpha" operator="in" result="effect1_backgroundBlur"/><feColorMatrix in="SourceAlpha" values="0 0 0 0 0 0 0 0 0 0 0 0 0 0 0 0 0 0 127 0"/><feOffset dx="5" dy="5"/><feGaussianBlur stdDeviation="5"/><feColorMatrix values="0 0 0 0 0.368627 0 0 0 0 0.792157 0 0 0 0 0.752941 0 0 0 0.5 0"/><feBlend in2="effect1_backgroundBlur" result="effect2_dropShadow"/><feBlend in="SourceGraphic" in2="effect2_dropShadow" result="shape"/></filter></defs></svg>