<svg width="65" height="90" fill="none" xmlns="http://www.w3.org/2000/svg"><g clip-path="url(#clip0)" fill="#fff"><path d="M26.069 45.515c-.038-.007-.136-.03-.233-.045a5.943 5.943 0 01-4.538-3.42.757.757 0 00-.647-.476 2.21 2.21 0 01-1.7-2.23 1.619 1.619 0 001.457.183 1.864 1.864 0 000-.2 12.46 12.46 0 01.943-6.098c.21-.56.354-1.142.429-1.735a3.85 3.85 0 00-.705-3.045 1.774 1.774 0 012.222 1.484l2.242-1.986c-.051-.075-.063-.107-.081-.122a15.203 15.203 0 00-7.06-2.664A7.71 7.71 0 0013 26.528a4.684 4.684 0 00-1.668 5.763 4.029 4.029 0 002.884 2.529 4.582 4.582 0 004.936-2.304c.141-.242.266-.49.399-.736a2.4 2.4 0 01-.047.712 4.066 4.066 0 01-4.054 3.493 5.414 5.414 0 01-5.026-3.48c-.201-.545-.337-1.114-.507-1.683-.791 1.073-1.531 1.375-2.521 1.052-.81-.266-1.415-.9-1.415-1.483.299.01.597-.013.89-.067.318-.056.61-.209.839-.437a5.832 5.832 0 012.116-1.754 8.46 8.46 0 002.45-2.53c-1.241.393-1.992-.162-2.71-.945.197-.162.361-.311.538-.443a8.155 8.155 0 014.39-1.519c2.993-.18 5.968.581 8.506 2.178.303.18.597.376.809.512 0-.679.011-1.376-.004-2.075a10.41 10.41 0 00-.1-1.34 1.657 1.657 0 00-1.1-1.505 1.31 1.31 0 00-.92.106.785.785 0 00-.019 1.366.583.583 0 00.479-.04c.061-.036.012-.279-.008-.425-.008-.058-.073-.108-.113-.162a.647.647 0 01.879-.102.828.828 0 01.308.957 1.316 1.316 0 01-2.072.548 1.693 1.693 0 01-.486-2.236 1.745 1.745 0 012.24-.772c.204.087.395.204.62.324l.225-.538c.137.169.227.288.323.4a3.84 3.84 0 01.79 3.033c-.062.655-.08 1.313-.054 1.97a2.643 2.643 0 001.457 2.209c1.798-1.7 1.887-7.921-1.029-10.28a5.332 5.332 0 014.036.926c1.582 1.264 1.522 2.993 1.222 4.773a10.01 10.01 0 001.327-2.82 3 3 0 00-.995-3.271 46.696 46.696 0 00-.993-.842 3.41 3.41 0 01-1.351-3.52 4.859 4.859 0 011.083-2.088 2.451 2.451 0 00.617-1.644 1.133 1.133 0 00-.927-1.064 1.002 1.002 0 00-1.14.662c-.06.31-.02.632.113.919.072.166.369.237.566.35l.074-.144c-.045-.022-.11-.032-.135-.069a1.087 1.087 0 01-.25-.445c-.007-.09.22-.286.317-.27a.692.692 0 01.449.287.63.63 0 01-.364.846 1.1 1.1 0 01-1.566-.995 2.322 2.322 0 011.923-2.404c.425-.101.862-.15 1.314-.226l-.31-.572.933-.065a2.361 2.361 0 01.405-2.542 7.42 7.42 0 01.723-.722v-.35l.19.175c.07-.064.14-.128.209-.194V1.9c.257.224.499.466.723.723a2.36 2.36 0 01.405 2.542l.933.065-.31.572c.451.076.89.124 1.314.226a2.32 2.32 0 011.922 2.402 1.1 1.1 0 01-1.566.996.631.631 0 01-.364-.845.693.693 0 01.449-.288c.097-.015.323.182.318.271-.01.155-.153.302-.251.446-.025.036-.088.046-.135.069l.074.144c.196-.114.491-.184.566-.352.133-.287.173-.608.114-.919a1.003 1.003 0 00-1.141-.662 1.133 1.133 0 00-.927 1.064A2.452 2.452 0 0035.436 10a4.859 4.859 0 011.083 2.088 3.411 3.411 0 01-1.35 3.521 66.75 66.75 0 00-.993.841 2.998 2.998 0 00-.996 3.272 10.02 10.02 0 001.328 2.82c-.3-1.78-.36-3.506 1.222-4.774a5.33 5.33 0 014.036-.926c-2.913 2.36-2.828 8.576-1.029 10.28a2.64 2.64 0 001.456-2.208 14.79 14.79 0 00-.053-1.97 3.84 3.84 0 01.79-3.033c.1-.11.19-.23.323-.4l.225.538c.224-.118.416-.235.62-.323a1.745 1.745 0 012.24.771 1.694 1.694 0 01-.486 2.237 1.317 1.317 0 01-2.072-.549.827.827 0 01.308-.957.647.647 0 01.879.103c-.039.054-.106.104-.113.162-.02.146-.07.389-.008.424a.582.582 0 00.479.04.786.786 0 00-.019-1.366 1.313 1.313 0 00-.92-.106 1.656 1.656 0 00-1.101 1.505 10.29 10.29 0 00-.099 1.34c-.016.697-.004 1.396-.004 2.075.215-.136.51-.33.81-.51A14.341 14.341 0 0150.5 22.72c1.58.07 3.105.597 4.39 1.518.176.131.34.28.538.442-.719.78-1.47 1.338-2.71.945a8.446 8.446 0 002.462 2.526 5.838 5.838 0 012.117 1.754c.228.229.52.382.839.438.293.054.591.076.89.065 0 .584-.608 1.219-1.414 1.483-.99.324-1.73.021-2.522-1.051-.169.566-.306 1.138-.507 1.683a5.414 5.414 0 01-5.026 3.48 4.066 4.066 0 01-4.054-3.493 2.398 2.398 0 01-.047-.712c.133.242.257.495.4.736a4.58 4.58 0 004.935 2.303 4.03 4.03 0 002.884-2.53 4.683 4.683 0 00-1.668-5.761 7.709 7.709 0 00-5.398-1.367 15.192 15.192 0 00-7.059 2.664c-.022.014-.034.046-.08.121l2.24 1.986a1.772 1.772 0 012.223-1.484 3.85 3.85 0 00-.704 3.045c.075.593.219 1.175.429 1.735a12.45 12.45 0 01.942 6.097 1.864 1.864 0 000 .2 1.618 1.618 0 001.457-.183 2.21 2.21 0 01-1.7 2.23.756.756 0 00-.646.477 5.942 5.942 0 01-4.538 3.42c-.098.016-.196.037-.233.044.201.496.352 1.01.448 1.537a3.671 3.671 0 01-3.145 3.673 5.208 5.208 0 01-3.75-.87 5.195 5.195 0 01-3.722.851 3.672 3.672 0 01-3.146-3.672c.096-.525.244-1.04.444-1.536zM9.715 29.129a2.624 2.624 0 01-1.896 1.826c.932.373 1.972-.777 1.896-1.826zm47.47 1.844a2.623 2.623 0 01-1.896-1.827c-.077 1.05.964 2.201 1.895 1.827zm-35.21 4.057a8.52 8.52 0 00-.25 4.182l3.398-1.7-.025-.143a1.483 1.483 0 01-1.456-.91 1.227 1.227 0 01.145-1.243c.258.641.71.72 1.295.597a1.42 1.42 0 01.875.11 2.2 2.2 0 001.78.038 3.581 3.581 0 013.416.41c.081.059.175.1.335.19-.255-1.508-.511-2.936-1.611-4.019a1.79 1.79 0 00-2.7.064.846.846 0 00.133 1.32c.068-.302.19-.592.356-.854a.756.756 0 011.028-.076 1.01 1.01 0 01.345 1.123 1.44 1.44 0 01-1.25.953 1.583 1.583 0 01-1.555-.696 1.927 1.927 0 01.656-2.788 2.636 2.636 0 012.205-.22l.09-.098-2.52-2.606c-1.83 1.996-3.792 3.788-4.69 6.366zm3.49 1.569l-1.305-.229a.97.97 0 001.302.229h.003zm.507 2.757a1.075 1.075 0 00-.075 1.143 1.376 1.376 0 001.209.763 1.766 1.766 0 01-1.134-1.904v-.002zm1.446-21.473a6.282 6.282 0 011.421 5.469 3.74 3.74 0 00-1.421-5.469zm3.155-10.841c.918.742.605 1.608.35 2.462-.213.714-.486 1.412-.656 2.136-.324 1.388.313 2.238 1.819 2.433a2.508 2.508 0 01-.77-2.513c.119-.885.301-1.763.445-2.644.034-.222.048-.446.044-.67-.01-.834-.315-1.147-1.236-1.207l.004.003zm1.923-4.626A2.78 2.78 0 0031.836 5c.02.13.065.258.09.389a.964.964 0 00.6.836.979.979 0 00.56-.818c.024-.13.07-.258.09-.39a2.775 2.775 0 00-.683-2.602l.004.001zm2.246 9.241c-.167-.723-.442-1.421-.656-2.135-.255-.853-.566-1.72.35-2.463-.92.06-1.226.373-1.232 1.204-.005.224.01.448.043.67.144.882.324 1.76.445 2.645a2.509 2.509 0 01-.77 2.513c1.503-.198 2.137-1.048 1.816-2.436l.005.002zm2.845 6.247a3.738 3.738 0 00-1.421 5.467 6.282 6.282 0 011.418-5.469l.003.002zm-2.399 7.466a21.386 21.386 0 01-2.69-3.898 21.417 21.417 0 01-2.679 3.88c-.772.89-1.583 1.746-2.42 2.664 1.966 1.788 3.742 3.745 4.548 6.391l.132-.033a2.763 2.763 0 00-.404-1.578c-.949-1.646-.623-3.262.137-4.844.135-.259.3-.5.494-.717v-.472c.061.08.126.162.191.243.072-.086.142-.17.207-.26v.508c.193.219.36.46.495.718.76 1.582 1.085 3.197.136 4.844a2.76 2.76 0 00-.404 1.578l.132.033c.809-2.646 2.582-4.604 4.548-6.391-.843-.922-1.654-1.777-2.426-2.668l.003.002zm-2.679 6.149a2.468 2.468 0 00-.01-2.192 2.463 2.463 0 00.007 2.183l.003.009zm10.519 3.535c-.899-2.578-2.86-4.368-4.693-6.364l-2.521 2.605.09.098a2.634 2.634 0 012.205.22 1.925 1.925 0 01.656 2.787 1.582 1.582 0 01-1.555.697 1.441 1.441 0 01-1.25-.953 1.011 1.011 0 01.346-1.123.756.756 0 011.027.075c.167.263.288.552.357.855a.845.845 0 00.133-1.32 1.79 1.79 0 00-2.7-.064c-1.1 1.081-1.356 2.508-1.612 4.02.162-.091.254-.134.335-.192a3.582 3.582 0 013.418-.41 2.203 2.203 0 001.78-.037c.272-.128.578-.167.874-.11.585.123 1.037.044 1.295-.597a1.226 1.226 0 01.145 1.244 1.482 1.482 0 01-1.457.91l-.023.143 3.398 1.699a8.52 8.52 0 00-.25-4.188l.002.005zm-5.13 6.23a1.37 1.37 0 001.209-.762 1.075 1.075 0 00-.076-1.142 1.764 1.764 0 01-1.135 1.899l.002.005zm1.64-4.662a.97.97 0 001.305-.228l-1.305.228zm3.009 4.812a3.161 3.161 0 01-2.112-1.603 2.692 2.692 0 01-2.121 2.362 2.103 2.103 0 01-2.137-1.104c.17-.053.34-.098.503-.157a2.246 2.246 0 001.48-2.676 2.142 2.142 0 00-2.37-1.614 2.17 2.17 0 00-2.147 2.064 5.423 5.423 0 001.896 4.326 3.984 3.984 0 002.37 1.168 5.07 5.07 0 004.636-2.771l.002.005zm-14.603 7.652a4.016 4.016 0 003.625.022c.25-.1.495-.212.734-.337v-.18l.181.09c.073-.036.145-.073.218-.108v.216c.239.125.484.238.734.338a4.018 4.018 0 003.625-.023 2.09 2.09 0 00.69-2.952 1.17 1.17 0 00-1.178-.491.833.833 0 00-.21 1.592c-.657.456-1.231.476-1.567-.023a2.298 2.298 0 01-.333-1.078c-.048-.679.413-1.105.964-1.475a6.877 6.877 0 01-2.34-2.532l-.385.342v.337l-.19-.169-.209.188v-.375l-.384-.342a6.877 6.877 0 01-2.34 2.532c.55.372 1.012.797.964 1.475-.02.382-.135.752-.334 1.078-.336.5-.91.48-1.567.023a.833.833 0 00-.21-1.592 1.171 1.171 0 00-1.178.491 2.09 2.09 0 00.688 2.949l.002.004zm-.848-4.904c.9-.108 1.735-.52 2.369-1.168a5.421 5.421 0 001.896-4.326 2.17 2.17 0 00-2.147-2.065 2.14 2.14 0 00-2.37 1.614 2.246 2.246 0 001.48 2.676c.161.06.333.104.503.157a2.104 2.104 0 01-2.137 1.104 2.692 2.692 0 01-2.122-2.362 3.163 3.163 0 01-2.111 1.603 5.069 5.069 0 004.638 2.761v.006z"/><path d="M19.953 51.07c.122.43.198.87.295 1.305a8.732 8.732 0 00-3.074-4.278 5.75 5.75 0 00-5.06-.984 3.441 3.441 0 01.848-2.341 2.697 2.697 0 012.76-.576c-.728-.921-1.476-1.593-2.603-1.547a2.92 2.92 0 00-2.608 1.805 3.5 3.5 0 01-1.81-1.585c-.478-1.042-.032-1.93.574-2.784a4.06 4.06 0 00-4.347 2.258 6.035 6.035 0 00-.258 4.374c.088.232.195.457.32.673A1.71 1.71 0 016 45.72a1.625 1.625 0 011.89.384 1.596 1.596 0 01.28 1.831 2.451 2.451 0 01-1.488 1.28 4.58 4.58 0 01-4.95-1.43 6.942 6.942 0 01-1.39-6.21c.778-3.464 3.182-5.345 6.507-6.018 2.827-.572 5.34.396 7.563 2.154a18.507 18.507 0 015.112 6.892c.396.842.748 1.706 1.126 2.572 1.309-1.794 2.993-2.157 4.597-.992-.109.08-.21.161-.314.242a6.597 6.597 0 00-2.56 3.641c-.256 1.01-.367 2.055-.543 3.084h-.27c-.015-.311-.025-.623-.047-.935-.129-1.82.025-3.566 1.312-5.016a.778.778 0 00.081-.145c-1.79.576-1.723 2.143-1.928 3.64-.061-.12-.096-.179-.124-.242-.763-1.753-1.468-3.534-2.3-5.252a18.716 18.716 0 00-4.208-5.821 7.917 7.917 0 00-7.043-2.203c-2.845.525-4.95 2.551-5.088 5.489a5.63 5.63 0 00.729 3.1.658.658 0 00-.022-.26 5.522 5.522 0 012.514-6.32 7.405 7.405 0 015.005-.97c1.277.145 2.46.74 3.339 1.677.217.259.421.529.61.81a1.057 1.057 0 01-.438-.106 3.048 3.048 0 00-3.269.538 1.355 1.355 0 00-.475 1.32c.175-.15.305-.266.439-.377a3.177 3.177 0 014.126-.297 11.366 11.366 0 014.063 5.317c-1.127-1.239-2.427-1.968-4.16-1.537.852.055 1.67.35 2.363.848a8.42 8.42 0 012.913 4.662z"/><path d="M9.61 47.809a4.612 4.612 0 002.347.809c.98.108 1.952.272 2.913.49a3.162 3.162 0 012.132 3.356 24.467 24.467 0 00-2.023-1.41 3.042 3.042 0 00-3.282.05 5.501 5.501 0 00-1.9 2.046H5.04c1.693-1.077 3.168-2.535 5.248-2.943a3.597 3.597 0 01-.677-2.398zm-12.432 3.86a2.545 2.545 0 013.28 1.478h-7.812l2.623-.856c.636-.209 1.263-.455 1.909-.622z"/><path d="M13.305 52.157a4.013 4.013 0 013.231.99h-4.85a2.31 2.31 0 011.62-.99zm3.597-2.135a2.642 2.642 0 011.79 3.125h-1.527c.578-1.085.23-2.104-.263-3.125zm-1.246-18.984a1.332 1.332 0 01.15-1.548 1.301 1.301 0 011.456-.414 1.91 1.91 0 011.312 2.175 3.253 3.253 0 01-3.262 2.646 3.389 3.389 0 01-3.189-3.228 4.685 4.685 0 013.177-4.197 8.556 8.556 0 016.037.373c.302.149.592.318.87.508l-.056.106c-.571-.104-1.14-.224-1.713-.306a9.937 9.937 0 00-4.53.227 3.27 3.27 0 00-2.473 2.572 2.241 2.241 0 001.512 2.577 1.814 1.814 0 002.295-.834l-.182.024a1.352 1.352 0 01-1.404-.68zM-3.406 50.822a1.693 1.693 0 01.89-1.805 2.694 2.694 0 01-1.991-1.17 7.995 7.995 0 00-.956-.935 6.06 6.06 0 014.092-.036c2.228.809 3.42 3.344 3.56 6.06-1.63-1.413-3.376-2.411-5.595-2.114zm2.889-.793a2.547 2.547 0 00-2.446-2.347c.507.272.987.592 1.433.955.382.43.721.896 1.013 1.392zm19.673-36.302a3.65 3.65 0 013.988-1.753c2.22.442 3.753 1.903 5.178 3.514a.549.549 0 01-.213-.123 9.028 9.028 0 00-4.413-2.147 2.853 2.853 0 00-3.351 2.085 3.076 3.076 0 00.574 2.448 2.734 2.734 0 01-1.763-4.024z"/><path d="M5.604 53.052c-.953-.126-1.788-.19-2.601-.36a4.207 4.207 0 01-1.343-.577 1.261 1.261 0 01-.595-1.505 1.915 1.915 0 011.465-1.295c-.32.947.297 1.308 1.001 1.609.042.018.081.034.123.055a4.52 4.52 0 011.95 2.073zm18.73-34.956a2.522 2.522 0 01-2.482-.582 2.04 2.04 0 01.6-3.374 1.497 1.497 0 011.884.67 1.087 1.087 0 01-.366 1.312.883.883 0 01-1.243-.162c-.09-.092-.174-.19-.265-.29-.702.923.192 2.046 1.872 2.426zM4.186 34.91a.484.484 0 01-.081.043 1.156 1.156 0 01-1.336-.144 1.017 1.017 0 01-.228-1.192 1.326 1.326 0 011.08-.906 4.848 4.848 0 014.089 1.284 4.037 4.037 0 00-3.524.914zM14.72 19.183a1.088 1.088 0 01-.971-.684 1.007 1.007 0 01.233-1.116 1.434 1.434 0 011.56-.394c.983.29 1.841.9 2.441 1.73.244.33.468.673.673 1.028l-.106.114a3.68 3.68 0 00-3.428-.696 1.301 1.301 0 01-.402.018zm-3.187 2.282a.627.627 0 01-.614.595.638.638 0 01-.625-.632.611.611 0 01.587-.616.64.64 0 01.652.653zM13 21a.55.55 0 01-.55.588.561.561 0 11-.037-1.123.547.547 0 01.587.536zm.973.353a.44.44 0 01-.523-.473c.02-.209.234-.399.362-.598l.22-.005c.137.191.353.368.393.579.055.28-.16.478-.452.497zm1.577-.968c.108.18.313.37.296.537a.624.624 0 01-.424.405.362.362 0 01-.428-.435c.031-.186.222-.343.341-.514l.214.007zm1.886.753c-.271.18-.442.378-.572.354a.551.551 0 01-.338-.404c-.011-.105.228-.332.356-.332.146.002.293.192.554.382zm1.164.427c.014.1-.158.228-.324.447-.14-.243-.286-.384-.276-.514.01-.108.202-.201.314-.3.1.121.266.234.285.367zm1.333.555c0 .08-.17.215-.26.21-.088-.005-.242-.156-.236-.236.005-.11.133-.213.267-.404.117.205.233.32.23.43zM-.287 37.532c-.065.007-.22-.178-.209-.26.015-.11.148-.207.292-.385.107.198.235.323.213.424a.393.393 0 01-.296.22zm40.354 8.912c-.103-.081-.206-.162-.313-.243 1.605-1.164 3.288-.801 4.597.993.378-.868.728-1.731 1.126-2.573a18.524 18.524 0 015.112-6.892c2.22-1.757 4.736-2.725 7.563-2.153 3.324.672 5.729 2.555 6.506 6.017a6.943 6.943 0 01-1.39 6.21 4.58 4.58 0 01-4.949 1.432 2.455 2.455 0 01-1.488-1.28 1.596 1.596 0 01.28-1.832 1.626 1.626 0 011.89-.384 1.709 1.709 0 011.012 1.67c.125-.216.233-.44.323-.673a6.04 6.04 0 00-.258-4.374 4.063 4.063 0 00-4.347-2.258c.607.854 1.052 1.743.573 2.785a3.5 3.5 0 01-1.81 1.584 2.92 2.92 0 00-2.607-1.804c-1.127-.045-1.875.626-2.604 1.546a2.699 2.699 0 012.76.576c.567.65.87 1.486.849 2.347a5.75 5.75 0 00-5.06.984 8.728 8.728 0 00-3.075 4.278c.097-.436.174-.877.296-1.305a8.418 8.418 0 012.912-4.666 4.54 4.54 0 012.362-.849c-1.73-.432-3.032.297-4.16 1.538a11.374 11.374 0 014.064-5.318 3.18 3.18 0 014.126.298c.133.11.264.227.438.377a1.356 1.356 0 00-.475-1.32 3.05 3.05 0 00-3.27-.538 1.055 1.055 0 01-.438.105c.19-.28.393-.55.61-.81a5.413 5.413 0 013.339-1.676 7.402 7.402 0 015.005.971 5.523 5.523 0 012.515 6.32.647.647 0 00-.022.261 5.631 5.631 0 00.728-3.1c-.14-2.94-2.243-4.965-5.088-5.49a7.918 7.918 0 00-7.043 2.203 18.711 18.711 0 00-4.207 5.82c-.832 1.72-1.537 3.5-2.301 5.254-.028.063-.062.122-.124.242-.205-1.497-.138-3.063-1.928-3.64.022.05.05.098.081.143 1.287 1.451 1.441 3.196 1.313 5.017-.022.31-.032.623-.047.934h-.27c-.176-1.029-.287-2.074-.544-3.083a6.595 6.595 0 00-2.562-3.644z"/><path d="M50.136 49.123c.96-.22 1.933-.383 2.912-.49a4.61 4.61 0 002.347-.81 3.597 3.597 0 01-.678 2.395c2.081.405 3.556 1.867 5.248 2.943h-4.76a5.506 5.506 0 00-1.9-2.047 3.04 3.04 0 00-3.281-.05c-.718.405-1.363.946-2.023 1.41a3.161 3.161 0 012.135-3.35zm17.691 2.564c.647.169 1.272.414 1.908.623l2.624.855h-7.813a2.543 2.543 0 013.28-1.478z"/><path d="M51.7 52.175a2.311 2.311 0 011.618.99h-4.85a4.014 4.014 0 013.232-.99zm-3.598-2.135c-.492 1.022-.84 2.04-.262 3.125h-1.527a2.641 2.641 0 011.79-3.125zm-14.516-5.287c-.102.6-.251 1.19-.445 1.766a2.815 2.815 0 01-.44.674v.476a8.297 8.297 0 00-.192-.243 5.687 5.687 0 00-.207.261v-.512a2.83 2.83 0 01-.439-.674 11.575 11.575 0 01-.445-1.766l1.11.364 1.058-.346zM32.702 5.1a.206.206 0 00-.398.017v-.48a1.346 1.346 0 010-.971v-.523a1.1 1.1 0 01.19.184c.06-.076.13-.144.208-.202v.56a1.34 1.34 0 010 .971V5.1zm16.395 22.296a9.928 9.928 0 00-4.53-.227c-.574.081-1.143.202-1.713.306l-.056-.106c.277-.19.568-.36.87-.507a8.552 8.552 0 016.036-.374 4.685 4.685 0 013.173 4.199 3.387 3.387 0 01-3.188 3.227 3.252 3.252 0 01-3.262-2.645 1.908 1.908 0 011.311-2.175 1.302 1.302 0 011.456.413 1.332 1.332 0 01.15 1.548 1.351 1.351 0 01-1.4.681l-.182-.023a1.813 1.813 0 002.29.832 2.241 2.241 0 001.513-2.578 3.27 3.27 0 00-2.468-2.57zm17.276 19.498a6.058 6.058 0 014.09.038 7.934 7.934 0 00-.955.934 2.69 2.69 0 01-1.991 1.17 1.693 1.693 0 01.89 1.806c-2.219-.298-3.965.7-5.603 2.113.147-2.717 1.34-5.252 3.569-6.06zm.161 1.76a9.03 9.03 0 011.432-.955 2.547 2.547 0 00-2.445 2.347 8.854 8.854 0 011.014-1.393v.001zM36.68 15.508c1.428-1.612 2.96-3.075 5.179-3.515a3.651 3.651 0 013.987 1.753 2.734 2.734 0 01-1.764 4.026 3.075 3.075 0 00.574-2.448 2.852 2.852 0 00-3.351-2.085 9.029 9.029 0 00-4.413 2.146.555.555 0 01-.211.123z"/><path d="M63.345 52.44a4.234 4.234 0 01-1.343.576c-.814.17-1.649.235-2.602.36a4.518 4.518 0 011.95-2.07c.04-.02.081-.037.123-.055.703-.302 1.32-.662 1-1.608a1.916 1.916 0 011.466 1.294 1.263 1.263 0 01-.594 1.503zM42.276 15.978a.885.885 0 01-1.243.162 1.088 1.088 0 01-.366-1.313 1.498 1.498 0 011.884-.67 2.041 2.041 0 01.6 3.375 2.522 2.522 0 01-2.482.582c1.68-.38 2.574-1.503 1.871-2.427-.09.102-.173.198-.264.29zm18.621 18.994a.564.564 0 01-.081-.044 4.036 4.036 0 00-3.527-.913 4.85 4.85 0 014.088-1.285 1.327 1.327 0 011.081.906 1.017 1.017 0 01-.228 1.192 1.154 1.154 0 01-1.333.144zM47.023 18.737a4.628 4.628 0 012.441-1.73 1.434 1.434 0 011.56.393 1.007 1.007 0 01.233 1.116 1.086 1.086 0 01-.97.683 1.317 1.317 0 01-.405-.019 3.68 3.68 0 00-3.427.697l-.106-.114c.205-.355.43-.697.674-1.026zm7.687 2.709a.638.638 0 01-.626.633.628.628 0 01-.613-.596.643.643 0 01.652-.652.612.612 0 01.587.615zm-1.577-.386a.523.523 0 01-.577.545.551.551 0 01-.55-.587.547.547 0 01.587-.536.52.52 0 01.54.579zm-1.939-.76c.127.2.34.39.36.598.03.299-.203.493-.522.473-.293-.019-.507-.218-.453-.496.041-.21.256-.387.394-.58l.22.006zm-1.184.608a.363.363 0 01-.427.436.622.622 0 01-.424-.405c-.017-.167.189-.357.296-.536l.215-.01c.119.171.309.33.34.515zm-1.531.199a.553.553 0 01-.339.405c-.13.023-.3-.175-.572-.354.26-.191.405-.38.555-.38.127-.002.367.225.356.33zm-1.474.41c.01.13-.136.27-.275.514-.168-.219-.34-.347-.324-.447.02-.134.184-.243.287-.367.11.1.302.191.312.3zm-1.673.833a.335.335 0 01-.26-.211c-.004-.11.114-.225.23-.425.134.189.261.29.267.405.006.075-.15.226-.237.23zm19.96 15.2a.396.396 0 01-.296-.221c-.022-.098.106-.226.213-.425.144.178.278.274.291.386.012.083-.143.267-.208.26zm-26.05-2.974c0 4.066-3.103 7.363-6.659 7.363-3.555 0-6.66-3.3-6.66-7.363 0-4.063 3.105-7.363 6.66-7.363 3.556 0 6.66 3.298 6.66 7.363zm-2.475-.099c0-3.85-1.63-7.012-4.184-7.012-2.534 0-4.185 3.163-4.185 7.012 0 3.85 1.65 7.21 4.185 7.21 2.554 0 4.185-3.358 4.185-7.211v.001zM11.583 66.578c0 3.535-2.7 6.406-5.792 6.406C2.7 72.984 0 70.114 0 66.578c0-3.537 2.7-6.407 5.791-6.407 3.093 0 5.792 2.87 5.792 6.407zm-2.152-.081c0-3.349-1.419-6.099-3.641-6.099-2.204 0-3.641 2.75-3.641 6.099 0 3.348 1.434 6.269 3.64 6.269 2.223-.004 3.642-2.923 3.642-6.273v.004zm15.749-4.515v9.499c0 1.28 1.06 1.264 1.606 1.264v.242h-4.92v-.242c.581 0 1.503-.051 1.503-1.23v-9.703l-4.253 11.171h-.222L14.25 61.487v8.763c0 1.93 1.315 2.494 2.067 2.494v.243h-4.39v-.243c.82 0 2.103-.512 2.103-2.478v-8.369c0-1.127-1.28-1.11-1.572-1.11v-.291h3.434l4.03 9.686 3.673-9.686h2.956v.243c-1.301-.003-1.37.748-1.37 1.243zm14.795 10.779v.222h-4.323v-.222c.907 0 1.334-.614 1.025-1.537l-1.127-2.87h-4.39l-.58 1.504c-.958 2.374.682 2.903 1.486 2.903v.222H27.81v-.222c1.316 0 1.829-1.366 2.221-2.305.12-.29 3.212-8.03 3.127-8.183a1.121 1.121 0 00-.803-.648 3.803 3.803 0 001.999-1.145s4.167 10.643 4.202 10.711c.598 1.366.752 1.57 1.418 1.57zm-4.51-4.663l-2.103-5.381-2.118 5.381h4.221zm16.058-6.132v9.547a1.173 1.173 0 001.316 1.247v.222h-4.356v-.222c.666 0 1.294-.154 1.294-1.23v-4.663h-5.705v4.663c0 1.076.647 1.23 1.316 1.23v.222h-4.39v-.222a1.178 1.178 0 001.332-1.247v-9.53a1.192 1.192 0 00-1.333-1.265v-.222h4.391v.222c-.667 0-1.316.154-1.316 1.247v4.664h5.705v-4.682c0-1.075-.666-1.23-1.332-1.23v-.221H52.8v.222a1.15 1.15 0 00-1.278 1.248z"/><path d="M65 72.761v.222h-4.32v-.222c.905 0 1.332-.614 1.024-1.537l-1.127-2.87h-4.39l-.58 1.504c-.957 2.374.683 2.903 1.486 2.903v.222h-4.254v-.222c1.315 0 1.828-1.366 2.22-2.305.12-.29 3.212-8.03 3.127-8.183a1.121 1.121 0 00-.803-.648 3.802 3.802 0 001.999-1.145s4.168 10.643 4.202 10.711c.597 1.366.752 1.57 1.418 1.57zm-4.509-4.663l-2.104-5.381-2.118 5.381h4.222zM11.646 79.312a.378.378 0 01-.378-.384c0-.121.056-.171.092-.171.021 0 .035.014.039.038.407-.21.758-.515 1.02-.89 0-.02-.014-.032-.041-.032-.237 0-.838.314-1.954 1.98-.452.675-.81 1.25-1.151 1.7.842.258 1.71.42 2.589.485a.946.946 0 00.562-.125.033.033 0 01.03.023v.013a.095.095 0 01-.013.046c-.1.18-.22.346-.36.496a1.72 1.72 0 01-.682.104 9.754 9.754 0 01-2.575-.543 2.171 2.171 0 01-1.568.592c-.877 0-.922-.404-.922-.69 0-.284.227-.69 1.295-.69.314.009.626.05.932.124.474-.613.911-1.253 1.311-1.916.866-1.27 1.748-2.198 2.691-2.198a.503.503 0 01.572.51c.002.644-1.2 1.528-1.49 1.528zm-4.114 2.526c-.339 0-.463.057-.463.111s.12.107.269.107c.232 0 .46-.063.66-.182a3.546 3.546 0 00-.466-.036z"/><path d="M15.39 81.697a.383.383 0 01-.022.154 1.697 1.697 0 01-1.106.773.477.477 0 01-.516-.46 1.32 1.32 0 01.152-.628c-.346.44-.925 1.11-1.375 1.11a.456.456 0 01-.443-.467c.108-.574.333-1.12.661-1.603.343-.606.474-.867.664-.867a.296.296 0 01.242.232c-.348.637-.66 1.292-.936 1.963 0 .035.01.053.04.053.25 0 1.515-1.474 1.634-1.71a1.76 1.76 0 01.347-.51.927.927 0 01.449-.107c.035.008.08.115.08.15a.02.02 0 010 .011c-.304.592-.469.835-.554 1.01a3.996 3.996 0 00-.416 1.133c0 .093.031.15.112.15.297-.043.753-.62.816-.678a.128.128 0 01.081-.032.074.074 0 01.075.068c.01.085.015.17.014.255z"/><path d="M16.612 81.016c-.017.213-.029.42-.029.592 0 .285.029.485.097.485.297-.043.752-.62.816-.678a.11.11 0 01.075-.032c.09 0 .094.129.094.329a.404.404 0 01-.018.143 1.683 1.683 0 01-1.113.773c-.43 0-.511-.363-.511-.713 0-.125.01-.25.02-.353-.268.285-.646.699-.95 1.088a.117.117 0 01-.095.039c-.137 0-.328-.14-.328-.282a.27.27 0 01.014-.085 6.773 6.773 0 011.403-1.513 13.084 13.084 0 01-.015-.614c0-.018-.007-.026-.018-.026-.052 0-.201.207-.297.207-.109 0-.176-.228-.176-.303a.18.18 0 01.007-.046c.05-.133.417-.586.76-.586.07 0 .268.096.28.21.013.215.023.425.023.621a6.459 6.459 0 011.092-.985.17.17 0 01.095-.028c.075.005.146.03.208.071.05.04.139.107.139.186a.131.131 0 01-.054.1c-.107.093-1.031.953-1.52 1.4zm4.33.681a.382.382 0 01-.02.153 1.694 1.694 0 01-1.106.774.48.48 0 01-.516-.46c-.002-.219.05-.435.151-.628-.346.44-.925 1.11-1.375 1.11a.455.455 0 01-.442-.467c.108-.574.333-1.12.661-1.603.342-.607.473-.867.663-.867a.296.296 0 01.243.232 19.589 19.589 0 00-.937 1.963c0 .035.01.053.04.053.25 0 1.515-1.474 1.634-1.71a1.74 1.74 0 01.347-.51.92.92 0 01.448-.107c.035.008.081.115.081.15a.02.02 0 010 .011c-.303.592-.469.835-.554 1.01a3.982 3.982 0 00-.417 1.133c0 .093.031.15.113.15.296-.043.753-.62.816-.678a.128.128 0 01.08-.032.074.074 0 01.075.068c.011.084.016.17.015.255z"/><path d="M23.069 80.929a.235.235 0 01-.434-.162.937.937 0 01.261-.557l-.007-.007c-.485.358-.927.77-1.318 1.23-.264.293-.513.6-.745.92-.046.064-.135.153-.216.153a.962.962 0 01-.323-.125.056.056 0 01-.024-.056c.04-.16.112-.309.21-.44.305-.535.616-1.06.927-1.584.093-.175.197-.344.31-.506a.686.686 0 01.538-.204c.07 0 .081.08.081.139a3.322 3.322 0 01-.456.824c.332-.378.884-.956 1.42-.956a.312.312 0 01.333.324 3.436 3.436 0 01-.558 1.007zm.419 3.748c-.035 0-.068.007-.1.007a.295.295 0 01-.324-.332c.01-.183.06-.36.148-.52a4.92 4.92 0 01.883-1.067c.06-.09.209-.39.53-1.004a2.371 2.371 0 01-1.188.871h-.03a.514.514 0 01-.279-.096.379.379 0 01-.128-.314.21.21 0 010-.05c.043-.529.223-.629.69-1.492.331-.517.463-.942.597-.942.066 0 .268.103.268.271 0 .225-.926 1.699-.926 1.927 0 .021.01.03.028.03a6.235 6.235 0 001.788-1.767c.152-.228.297-.475.428-.475.03 0 .226.021.268.081.043.06.068.068.068.11a.317.317 0 01-.047.125c-.06.117-1.105 1.848-1.525 2.726a53.95 53.95 0 001.51-1.353.119.119 0 01.082-.032c.08 0 .11.143.11.34a.184.184 0 01-.036.132 14.809 14.809 0 00-1.989 1.834c-.07.075-.444.94-.826.99zm9.755-6.731c-.042.081-.08.09-.13.131-.209.182-1.042.147-1.114.19a.063.063 0 01-.032.014c-.021 0-.063-.032-.063-.107a.527.527 0 01.137-.25c-1.23.072-2.61 1.067-2.61 1.346 0 .114.116.26.876.46s1.78.493 1.78 1.257c0 .703-1.194 1.618-3.127 1.618-.83 0-1.105-.372-1.105-.668a.493.493 0 01.404-.46c.039 0 .064.018.064.043 0 .025-.046.065-.046.096 0 .14.48.293.88.293 1.077 0 2.221-.635 2.221-.956 0-.225-.622-.396-1.413-.585-.837-.197-1.264-.5-1.264-1.01 0-1.118 2.3-2.039 3.56-2.039.678 0 1.027.197 1.027.342a.791.791 0 01-.045.285zm-.241 4.678a.37.37 0 01-.389-.41c-.696 1.075-1.456 2.338-1.518 2.419-.036.046-.061.068-.086.068a.373.373 0 01-.254-.303.624.624 0 01.08-.343c.117-.196 3.133-5.196 3.318-5.315a.223.223 0 01.127-.042h.067c.021 0 .042-.008.064-.008.035 0 .06.019.088.108a.3.3 0 01.029.092.25.25 0 01-.07.14l-1.008 1.548s.883-.875 1.449-.875a.375.375 0 01.392.405c0 .622-1.158 2.516-2.289 2.516zm1.586-2.354c-.268 0-1.338 1.067-1.787 1.674a.303.303 0 00.247.114c.573 0 1.61-1.196 1.61-1.713a.071.071 0 00-.04-.067.07.07 0 00-.027-.007l-.003-.001zm3.897 1.426a.393.393 0 01-.021.154 1.692 1.692 0 01-1.109.774.533.533 0 01-.526-.596.84.84 0 01.07-.339 2.184 2.184 0 01-1.314.92.56.56 0 01-.55-.485 1.002 1.002 0 01-.015-.178 2.604 2.604 0 012.112-2.184c.272 0 .424.107.463.225.116-.182.173-.197.318-.197.145 0 .269.057.269.186a.23.23 0 01-.05.15 5.825 5.825 0 00-.759 1.674.386.386 0 00-.01.1c0 .088.024.196.113.196.282 0 .78-.631.837-.681a.119.119 0 01.08-.033.073.073 0 01.075.068c.011.082.017.164.017.246zm-2.292-.835c-.298.3-.51.673-.615 1.082 0 .057.02.09.07.09a5.06 5.06 0 001.208-1.046c.162-.204.4-.55.587-.804a1.788 1.788 0 00-1.25.678zm6.79-2.601l.07.004c.166.014.342.128.342.282 0 .453-.566.627-.848.627h-.035l-.137.28c.014 0 .024-.005.039-.005a.32.32 0 01.113.026c.075.029.151.235.151.292 0 .076-.106.126-.15.169a.858.858 0 01-.405.139l-.068.02c-.13.257-.268.543-.42.85a3.5 3.5 0 001.194-.696c.027-.047.063-.118.12-.118a.308.308 0 01.197.304c0 .463-.915 1.106-1.822 1.202-.152.347-.336.771-.375.836a.255.255 0 01-.219.1.266.266 0 01-.052.006c-.089 0-.178-.042-.184-.08a.532.532 0 01-.032-.109.11.11 0 01.01-.046c.07-.182.18-.432.318-.717a.647.647 0 01-.566-.631 1.218 1.218 0 01.755-1.013.53.53 0 01-.286-.478c0-.586.908-1.082 1.735-1.214.25-.496.423-.838.441-.868.092-.17.47-.242.526-.242a.099.099 0 01.092.096.09.09 0 01-.01.043c-.017.035-.162.291-.494.94zm-2.074 2.623c0 .125.063.168.14.179.118-.228.234-.478.358-.728-.391.2-.497.409-.497.549h-.001zm.366-1.367c0 .04.05.057.132.057.025 0 .161-.018.395-.04.103-.2.198-.395.29-.577-.409.175-.816.467-.816.56zm6.938.492c.519.057 1.14.336 1.14.942 0 .728-1.155 1.57-2.356 1.57-.883 0-1.123-.417-1.123-.539a.582.582 0 01.052-.22c-.116.214-.243.445-.378.71a.214.214 0 01-.21.105.302.302 0 01-.34-.302c0-.055.011-.11.03-.162a34.206 34.206 0 012.301-3.768c.081-.1.212-.139.512-.139.081 0 .162.007.162.071a.242.242 0 01-.042.111c-.367.606-.663 1.067-.918 1.477.932-.27 2.285-.981 2.285-1.52 0-.328-.476-.418-.897-.418a3.038 3.038 0 00-2.25.885c0 .03.014.036.035.036.02 0 .08-.025.102-.025.022 0 .022.007.022.02a.43.43 0 01-.396.243.342.342 0 01-.385-.36c0-.706 1.558-1.41 2.741-1.41s1.699.44 1.699 1.04c-.006.761-1.048 1.389-1.786 1.653zm-.69.446a1.645 1.645 0 00-.674.097c-.046 0-.08-.032-.141-.15-.243.389-.456.76-.703 1.207a.552.552 0 01.485-.232c.167 0 .213.028.213.053 0 .06-.188.039-.188.2 0 .096.081.256.54.256.912 0 1.644-.688 1.644-.988-.003-.143-.313-.443-1.176-.443zm5.072 1.556c-.28.324-.663.54-1.084.614a.599.599 0 01-.593-.578 3.337 3.337 0 01.682-1.5 1.64 1.64 0 00.187-.335l-.008-.007a7.892 7.892 0 00-1.317 1.227c-.265.296-.505.607-.738.92-.05.065-.139.154-.223.154a1.032 1.032 0 01-.323-.125.056.056 0 01-.025-.057c.041-.158.113-.308.211-.439.305-.535.615-1.06.927-1.584.092-.175.196-.345.31-.507a.688.688 0 01.537-.204c.08 0 .086.081.086.14a3.323 3.323 0 01-.456.824c.34-.379.884-.956 1.427-.956a.316.316 0 01.331.323 3.653 3.653 0 01-.566 1.01 3.3 3.3 0 00-.511 1.021c0 .114.109.157.21.157.337 0 .91-.728 1.011-.728.102 0 .093.257.093.324a.347.347 0 01-.168.306zm3.61-2.002c.52.057 1.14.336 1.14.942 0 .728-1.154 1.57-2.355 1.57-.883 0-1.123-.417-1.123-.54a.582.582 0 01.052-.22c-.116.214-.243.446-.378.71a.213.213 0 01-.21.106.301.301 0 01-.34-.302c0-.056.01-.11.03-.162a34.21 34.21 0 012.3-3.769c.081-.1.212-.139.512-.139.08 0 .161.007.161.071a.243.243 0 01-.042.111c-.367.606-.663 1.067-.918 1.478.933-.272 2.285-.982 2.285-1.52 0-.33-.476-.42-.897-.42a3.036 3.036 0 00-2.25.886c0 .03.014.036.035.036.021 0 .081-.025.103-.025.022 0 .02.007.02.02a.43.43 0 01-.395.243.342.342 0 01-.385-.36c0-.706 1.558-1.41 2.741-1.41s1.7.44 1.7 1.04c-.006.762-1.048 1.39-1.786 1.654zm-.689.446a1.645 1.645 0 00-.674.097c-.046 0-.08-.032-.141-.15-.243.389-.456.76-.703 1.207a.552.552 0 01.485-.232c.166 0 .213.028.213.053 0 .06-.188.039-.188.2 0 .096.081.256.54.256.912 0 1.644-.688 1.644-.988-.003-.143-.314-.443-1.176-.443zM22.4 88.8a.09.09 0 00.044-.08.093.093 0 00-.048-.082.446.446 0 00-.119-.053l-.156-.045a.986.986 0 01-.157-.06.298.298 0 01-.168-.277.314.314 0 01.127-.25.486.486 0 01.324-.105.54.54 0 01.455.215l-.173.167a.387.387 0 00-.293-.14c-.116 0-.175.036-.175.106a.08.08 0 00.05.068.55.55 0 00.119.048l.157.045a.89.89 0 01.157.06.306.306 0 01.166.281.332.332 0 01-.126.264.476.476 0 01-.314.106.66.66 0 01-.336-.081.51.51 0 01-.204-.205l.189-.156a.43.43 0 00.148.146c.06.036.127.054.196.054a.246.246 0 00.137-.026zm1.175-.337a.592.592 0 111.184.02.592.592 0 01-1.184-.02zm.365-.254a.381.381 0 000 .509.334.334 0 00.472 0 .353.353 0 00.095-.255.344.344 0 00-.207-.329.323.323 0 00-.36.074zm2.756-.329v.666a.623.623 0 01-.027.192.488.488 0 01-.075.145.452.452 0 01-.244.155.597.597 0 01-.146.018.531.531 0 01-.372-.136.493.493 0 01-.15-.385v-.655h.258v.626a.35.35 0 00.068.225.242.242 0 00.195.081c.157 0 .236-.1.236-.302v-.632l.257.003zm.857.242v-.243h1.004v.243h-.374v.924h-.257v-.924h-.373zm2.654.923v-.466h-.518v.466h-.257v-1.164h.257v.457h.518v-.457h.257v1.164h-.257zm2.281 0l.507-1.164h.196l.506 1.164h-.265l-.094-.216h-.49l-.094.216h-.266zm.605-.782l-.152.348h.302l-.15-.348zm1.474.782v-1.164h.882v.243h-.625v.255h.582v.242h-.582v.428l-.257-.004zm2.055 0h-.258V87.88h.471a.72.72 0 01.228.032.331.331 0 01.22.206.429.429 0 01.023.141.368.368 0 01-.227.341l.323.445h-.31l-.284-.398h-.186v.397zm.208-.924h-.208v.285h.217a.242.242 0 00.147-.04.127.127 0 00.051-.108.122.122 0 00-.045-.103.277.277 0 00-.162-.033v-.001zm1.453.924v-1.164h.258v1.164h-.258zm2.129-.384l.153.162a.521.521 0 01-.209.177.658.658 0 01-.286.061.58.58 0 01-.434-.161.599.599 0 01-.162-.437.59.59 0 01.367-.561.577.577 0 01.236-.041.646.646 0 01.282.06.45.45 0 01.189.162l-.175.161a.373.373 0 00-.278-.131.35.35 0 00-.336.486.355.355 0 00.333.219.392.392 0 00.32-.157zm.887.384l.506-1.164h.196l.506 1.164h-.265l-.094-.216h-.49l-.095.216H41.3zm.604-.782l-.151.348h.302l-.15-.348z"/></g><defs><clipPath id="clip0"><path fill="#fff" d="M0 0h65v89.072H0z"/></clipPath></defs></svg>