<svg width="65" height="91" fill="none" xmlns="http://www.w3.org/2000/svg"><g clip-path="url(#clip0)" fill="#fff"><path d="M11.381 72.774c0 3.475-2.65 6.301-5.685 6.301-3.035 0-5.696-2.826-5.696-6.3a6.081 6.081 0 015.696-6.29c3.035 0 5.685 2.793 5.685 6.29zm-2.11-.077c0-3.299-1.397-5.993-3.575-5.993-2.177 0-3.585 2.695-3.585 5.993 0 3.3 1.419 6.158 3.585 6.158 2.167 0 3.574-2.87 3.574-6.158zm17.12-5.894v.275c-1.275 0-1.341.737-1.341 1.232v9.765c-.029.356.06.71.252 1.011l-2.034-1.275v-9.72L19.09 79.086h-.22L14.295 67.77v8.621a2.199 2.199 0 002.034 2.442v.242h-4.233v-.242c.813 0 2.067-.495 2.067-2.43v-8.226c0-1.1-1.254-1.1-1.54-1.1v-.285H16l3.96 9.511 3.606-9.511 2.826.01zM39.73 78.856v.22h-4.244v-.22c.89 0 1.308-.605 1-1.507l-1.1-2.826h-4.32l-.572 1.474c-.935 2.342.67 2.859 1.462 2.859v.22h-4.179v-.22c1.287 0 1.793-1.342 2.2-2.266.12-.285 3.156-7.895 3.079-8.038l-.572-1.232a1.287 1.287 0 00-.517-.538l2.364.418 4.025 10.116c.572 1.342.715 1.54 1.374 1.54zm-4.398-4.586l-2.067-5.29-2.079 5.29h4.146zm16.088-6.026v9.39a1.1 1.1 0 001.286 1.222v.22h-4.321v-.22c.66 0 1.276-.154 1.276-1.21V73.06h-5.565v4.586c0 1.1.638 1.21 1.298 1.21v.22h-4.322v-.22a1.154 1.154 0 001.309-1.221v-9.37a1.165 1.165 0 00-1.309-1.187v-.22h4.322v.22c-.66 0-1.298.143-1.298 1.22v4.586h5.609v-4.651c0-1.1-.65-1.21-1.31-1.21v-.22h4.278v.275a1.1 1.1 0 00-1.253 1.166zM65 78.856v.22h-4.245v-.22c.891 0 1.309-.605 1.012-1.507l-1.1-2.826h-4.332l-.561 1.474c-.946 2.342.67 2.859 1.451 2.859v.22h-4.178v-.22c1.297 0 1.803-1.342 2.2-2.266.11-.285 3.155-7.895 3.067-8.038l-.572-1.232a1.287 1.287 0 00-.517-.538l2.365.418s3.991 10.04 4.035 10.116c.572 1.342.726 1.54 1.375 1.54zm-4.399-4.586l-2.1-5.29-2.078 5.29H60.6zM2.782 89.929v-3.662H3.3v1.44h2.2v-1.44h.45v3.662h-.54v-1.792H3.3v1.792h-.518zm7.698.099a1.846 1.846 0 01-1.364-.55 2.057 2.057 0 010-2.75 1.836 1.836 0 011.363-.538 1.837 1.837 0 011.364.539 2.024 2.024 0 010 2.749 1.848 1.848 0 01-1.364.55zm0-.429a1.364 1.364 0 001.022-.429 1.472 1.472 0 00.396-1.1 1.484 1.484 0 00-.396-1.1 1.352 1.352 0 00-1.023-.417 1.318 1.318 0 00-1.022.418 1.474 1.474 0 00-.407 1.1 1.43 1.43 0 00.407 1.1 1.33 1.33 0 001.022.428zm5.234.33V86.63h-1.54v-.418h3.542v.418h-1.54v3.299h-.462zm4.08 0v-3.662h2.881v.418h-2.408v1.1h1.473v.418h-1.473v1.308h2.573v.418h-3.046zm5.63 0v-3.662h.45v3.3h2.398v.417l-2.848-.055zm12.271-.989v-.54h-1v-.428h1.451v1.1a1.892 1.892 0 01-1.66.946 1.804 1.804 0 01-1.353-.55 1.935 1.935 0 012.255-3.058c.278.145.513.362.681.627l-.374.275a1.342 1.342 0 00-.505-.517 1.418 1.418 0 00-.726-.176 1.352 1.352 0 00-1.023.418 1.506 1.506 0 00-.396 1.1 1.473 1.473 0 00.396 1.1 1.363 1.363 0 001.023.428c.241.004.48-.052.693-.165.226-.135.412-.329.538-.56zm3.278.989v-3.662h2.1c.301-.017.599.077.836.264a.957.957 0 01.308.748.979.979 0 01-.231.693c-.157.194-.38.323-.627.363l.913 1.605h-.506l-.88-1.617h-1.463v1.606h-.45zm.45-2.034h1.617a.714.714 0 00.517-.154.527.527 0 00.176-.44.56.56 0 00-.176-.451.693.693 0 00-.495-.165h-1.639v1.21zm7.127 2.133a1.848 1.848 0 01-1.364-.55 2.034 2.034 0 010-2.749 1.792 1.792 0 011.353-.539 1.837 1.837 0 011.363.539 1.924 1.924 0 01-1.363 3.299h.01zm0-.429a1.362 1.362 0 001.022-.429 1.47 1.47 0 00.407-1.1 1.495 1.495 0 00-.407-1.099 1.317 1.317 0 00-1.022-.418 1.353 1.353 0 00-1.023.418 1.473 1.473 0 00-.407 1.1 1.43 1.43 0 00.407 1.1 1.361 1.361 0 001.023.428zm4.958-3.332v2.375a1.022 1.022 0 00.22.76c.247.16.543.23.836.197.293.036.59-.035.836-.198a1.022 1.022 0 00.22-.759v-2.375h.462v2.496a1.177 1.177 0 01-.352.968 2.398 2.398 0 01-2.31 0 1.21 1.21 0 01-.352-.968v-2.496h.44zm5.466 3.662v-3.662h2.089c.305-.017.606.077.847.264a.89.89 0 01.308.726 1.035 1.035 0 01-.297.77 1.1 1.1 0 01-.792.296H59.38v1.606h-.407zm.407-2.035h1.616a.714.714 0 00.517-.153.527.527 0 00.176-.44.561.561 0 00-.11-.43.693.693 0 00-.495-.164H59.38v1.188zM38.19 45.207c.937.081 1.88.04 2.805-.121a3.2 3.2 0 001.65-.913 2.838 2.838 0 011.099-.649c-.077.231-.11.407-.176.572a2.98 2.98 0 01-2.298 1.715c-1.364.253-2.76.374-4.146.561-.154 0-.198 0-.187-.165a3.179 3.179 0 011.55-2.55 18.91 18.91 0 014.4-2.112 17.506 17.506 0 001.495-.583 2.705 2.705 0 001.572-2.2c.035-.174.06-.35.077-.527a72.228 72.228 0 00-13.195 6.686l.153.165a3.299 3.299 0 011.694 1.528 4.201 4.201 0 01.583 3.2 3.299 3.299 0 01-3.85 2.276 3.298 3.298 0 01-2.352-2.342 2.837 2.837 0 01.132-1.836c.242-.583.527-1.1.813-1.716a.31.31 0 01.407-.165 4.047 4.047 0 012.287 2.1c.181.432.22.91.11 1.364a.505.505 0 01-.736.297.264.264 0 010-.187 2.079 2.079 0 00-1.452-2.452.198.198 0 00-.187 0 2.508 2.508 0 00-.462 2.54 2.364 2.364 0 004.52-.209c.13-.83-.05-1.68-.506-2.386a4.21 4.21 0 00-1.54-1.627c-2.694-1.617-5.399-3.222-8.236-4.586-1.154-.55-2.32-1.1-3.486-1.562a3.425 3.425 0 01-.44-.242.759.759 0 01-.33-.88c.124.026.245.059.364.1a91.594 91.594 0 0110.545 5.146c.209.121.407.253.616.363a1.308 1.308 0 001.33 0 70.548 70.548 0 018.259-4.256l4.53-1.968a5.333 5.333 0 002.013-1.353 3.189 3.189 0 00.77-2.705c-.188-1.308-.44-2.606-.66-3.914a5.003 5.003 0 01.23-2.948 4.19 4.19 0 011.375-1.715l.11-.055a.308.308 0 01.077.1c.539 1.319 1.1 2.638 1.627 3.969a2.782 2.782 0 01-.494 2.925c-.07.101-.155.19-.253.264a1.33 1.33 0 01-.143-.924 4.113 4.113 0 00-.429-3.365 6.694 6.694 0 01-.352-.682.506.506 0 00-.55-.34c-.242 0-.33.076-.34.296a8.841 8.841 0 00-.144 1.408c.055.803.187 1.594.308 2.397.121.803.363 1.848.43 2.782a4.07 4.07 0 01-1.716 3.662 1.409 1.409 0 00-.605 1 5.235 5.235 0 01-.616 1.848s0 .088-.077.176l.627-.055a13.955 13.955 0 005.685-2.2 34.913 34.913 0 003.442-2.65c.143-.11.286-.241.44-.34A1.034 1.034 0 0056.786 34a7.972 7.972 0 01.396-4.134c.084-.216.19-.423.319-.616a1.1 1.1 0 011.363-.517 1.1 1.1 0 01.847 1.1 5.961 5.961 0 01-.88 3.299c-.275.472-.594.934-.913 1.374a.77.77 0 00-.099.869c.561 1.1 1.1 2.331 1.65 3.497a3.3 3.3 0 01-.99 4.211 6.85 6.85 0 01-3.497 1.43c-.363 0-.725.066-1.1.099h-.22l1.188 1.44c.275.33.275.33.671.132a7.929 7.929 0 012.045-.715 1.913 1.913 0 012.31 1.309 1.495 1.495 0 01-1.463 1.98 1.22 1.22 0 01-1.1-1.782c0-.121.176-.187.264-.077.134.157.231.34.286.539.077.374.187.56.44.605a.758.758 0 00.836-.396 1.023 1.023 0 00-.396-1.298 1.32 1.32 0 00-1.1-.198c-.736.242-1.462.517-2.199.792a19.036 19.036 0 011.628 4.981c-.352-.077-.671-.132-.968-.209a18.318 18.318 0 01-3.706-1.308c-.176-.088-.242 0-.33.12a6.423 6.423 0 00-.857 2.255 1.21 1.21 0 00.527 1.1.956.956 0 001.1.077.736.736 0 00.352-.781c-.066-.286-.297-.363-.539-.396a.99.99 0 01-.66-.396 1.1 1.1 0 011.628.121 1.44 1.44 0 01-.572 2.2 1.803 1.803 0 01-2.463-1.298 3.3 3.3 0 01.264-1.99c.127-.301.27-.595.428-.88.22-.429.176-.616-.208-.89-.385-.276-.682-.54-1.023-.804l-.308-.263c0 .274-.066.505-.077.736a7.159 7.159 0 01-1.726 4.31 3.3 3.3 0 01-4.08.66 35.18 35.18 0 00-3.508-1.66.78.78 0 00-.759.154c-.681.429-1.363.869-2.078 1.243a5.102 5.102 0 01-2.045.55 5.009 5.009 0 01-.693 0 1.165 1.165 0 01-.99-.957 1.1 1.1 0 01.616-1.276 6.598 6.598 0 013.673-.66c.53.034 1.063.034 1.594 0a.484.484 0 00.33-.154 19.144 19.144 0 005.3-8.896c.11-.45.154-.923.231-1.407h-.11c-.89.57-1.856 1.011-2.87 1.308-1.044.385-2.056.836-3.079 1.287-.593.264-.89.836-1.275 1.386zm7.357 7.257c.03-.268.145-.519.33-.715a.637.637 0 00-.066-1.033 1.572 1.572 0 00-1.627 0 1.88 1.88 0 00.154 3.013 2.387 2.387 0 001.902.165 3.1 3.1 0 001.705-1.397 6.917 6.917 0 001.1-3.882V46.01a2.2 2.2 0 011.649-2.023 6.036 6.036 0 011.605-.066h2.32a5.685 5.685 0 003.662-1.573 2.507 2.507 0 00.858-2.276 1.782 1.782 0 00-2.056-1.66 1.54 1.54 0 00-1.463 1.65.924.924 0 00.572.912c.319.12.506.055.759-.275.12-.143.462-.253.527-.132.06.145.06.306 0 .45a.968.968 0 01-.604.617 1.408 1.408 0 01-1.628-.484 1.968 1.968 0 01-.319-1.76 2.255 2.255 0 012.1-1.649h.946l-.967-2.2-.132.11a24.466 24.466 0 01-3.882 3.014 15.77 15.77 0 01-6.312 2.43c-.473.077-.473.099-.55.56-.077.463-.154.968-.275 1.43a17.783 17.783 0 01-2.111 4.817 23.676 23.676 0 01-2.793 3.64c-.121.132-.264.241-.418.384l2.2.968v-.748a2.2 2.2 0 012.561-2.32 1.616 1.616 0 011.397 1.1 1.1 1.1 0 01-1.144 1.54zm8.908-5.762c-.308-.385-.55-.737-.836-1.1a2.913 2.913 0 00-2.441-1.1 1.648 1.648 0 00-1.54 1.804 3.09 3.09 0 00.946 2.079c.346.355.756.643 1.21.846a10.78 10.78 0 000-1.165 3.299 3.299 0 00-.87-1.76c-.164-.187-.076-.286 0-.407.078-.12.22-.23.44-.077.373.272.77.508 1.188.704a3.541 3.541 0 001.903.176zm-1.98.67v1.98a.484.484 0 00.352.506c.649.264 1.298.528 1.957.77.462.165.924.308 1.43.473v-.242c-.165-.473-.319-.946-.484-1.408-.165-.462-.396-1.1-.605-1.594-.077-.22-.209-.407-.473-.407l-2.177-.077zm-13.449 4.971h-.637a7.876 7.876 0 00-3.3.407 1.396 1.396 0 00-.45.253.484.484 0 00.23.847c.365.06.736.06 1.1 0a8.05 8.05 0 003.057-1.507zm18.386-18.562h.1c.044-.077.096-.15.153-.22a6.344 6.344 0 001.353-3.497.604.604 0 00-.429-.692.539.539 0 00-.638.373 4.595 4.595 0 00-.385 1.155c-.088.99-.099 1.925-.154 2.881zm-39.928 3.046c0-.363.1-.681.143-1 .121-1.1.253-2.123.374-3.19.088-.89.176-1.78.253-2.672.088-1.1.187-2.199.22-3.299v-4.123c0-.198-.099-.187-.242-.154-.616.132-1.22.297-1.847.374a4.134 4.134 0 01-3.63-1.1 2.98 2.98 0 01-.802-1.87c-.06-.484-.01-.976.143-1.44a3.023 3.023 0 012.012-1.858 2.892 2.892 0 013.453 1.044c.363.473.682.99 1.023 1.485.143.198.055.34-.099.484a3.299 3.299 0 01-1.484.726 3.3 3.3 0 01-1.804.066 2.386 2.386 0 01-.78-.396.483.483 0 010-.759c.087-.121.175-.099.296 0 .351.191.72.35 1.1.473a1.803 1.803 0 001.693-.594.176.176 0 000-.165 2.562 2.562 0 00-2.419-1.704 2.298 2.298 0 00-2.386 1.979 2.452 2.452 0 001.594 2.606 4.32 4.32 0 003.717-.242c3.013-1.693 6.026-3.398 8.863-5.388.726-.517 1.43-1.1 2.2-1.583.198-.152.411-.281.637-.385a.77.77 0 01.913.176c-.05.056-.105.108-.165.154a97.878 97.878 0 01-8.797 6.037c-.506.307-1.023.593-1.54.88a1.495 1.495 0 00-.824 1.583c.055.868 0 1.726 0 2.595 0 .484 0 .957-.055 1.44-.088 1.276-.176 2.563-.286 3.85-.11 1.286-.22 2.199-.34 3.353-.1.88-.22 1.76-.32 2.64a5.432 5.432 0 00.1 2.198 3.3 3.3 0 001.88 2.123c.868.385 1.77.682 2.672 1.011.91.252 1.782.621 2.595 1.1a4.145 4.145 0 011.803 2.958.087.087 0 010 .077.154.154 0 010 .077h-.692c-1.221-.165-2.43-.297-3.64-.495a2.882 2.882 0 01-2.123-1.418c-.11-.198-.22-.242-.407-.121l-.253.132c.264.56.517 1.1.792 1.66a22.453 22.453 0 003.453 4.784l.429.517a.726.726 0 00.726.263 8.797 8.797 0 013.849.132c.476.158.93.376 1.352.65a1.1 1.1 0 01.341 1.275 1.1 1.1 0 01-1.1.78 6.102 6.102 0 01-3.463-.945c-.43-.253-.836-.55-1.232-.836a.77.77 0 00-.847-.099c-1.155.55-2.31 1.1-3.453 1.628a3.299 3.299 0 01-4.398-1.1 6.994 6.994 0 01-1.287-3.497c0-.352-.066-.704-.11-1.1a.274.274 0 00-.099 0c-.462.352-.912.726-1.385 1.1a.429.429 0 00-.143.56c.22.562.44 1.1.648 1.672.18.415.238.873.165 1.32a1.836 1.836 0 01-2.584 1.33 1.363 1.363 0 01-.726-1.286 1.099 1.099 0 01.627-1.1 1.275 1.275 0 011.1 0c.154.066.187.22.055.308-.146.109-.31.19-.484.242-.44.088-.638.264-.638.616a.792.792 0 00.682.748 1.101 1.101 0 001.243-1.232 6.367 6.367 0 00-.88-2.551 19.135 19.135 0 01-4.904 1.594c.087-.373.131-.681.23-.978.396-1.166.814-2.332 1.221-3.486.154-.462.143-.484-.308-.66l-2.397-.924.088.22-.286.121a1.1 1.1 0 00-.704 1.265.748.748 0 00.89.572.582.582 0 00.43-.473c.077-.264.187-.517.286-.792a1.1 1.1 0 01-.253 1.836 1.485 1.485 0 01-2.068-1.1 1.891 1.891 0 012.277-2.089c.56.154 1.1.374 1.65.561.127.049.251.104.373.165.539.231.528.22.89-.242.364-.462.617-.77.935-1.165a1.286 1.286 0 00-.78-.242 7.05 7.05 0 01-4.091-1.628 3.222 3.222 0 01-1.1-2.199 3.728 3.728 0 01.506-2.2c.561-1.099 1.1-2.199 1.562-3.298a.67.67 0 00-.143-.693c-.352-.528-.726-1.1-1.034-1.617a5.575 5.575 0 01-.78-2.804 3.002 3.002 0 010-.55 1.1 1.1 0 011.099-.901 1.011 1.011 0 011.1.56 6.01 6.01 0 01.736 2.706c.06.822.028 1.648-.099 2.463a.704.704 0 00.198.638 19.86 19.86 0 007.544 4.86c.495.165.99.308 1.495.43.187.021.375.021.561 0-.132-.408-.264-.793-.374-1.178 0-.197-.066-.395-.11-.593a2.298 2.298 0 00-.868-1.265 3.793 3.793 0 01-1.44-2.375c-.11-.6-.11-1.215 0-1.814.22-1.254.472-2.508.67-3.772a3.97 3.97 0 00-.34-2.299l-.287-.615-.517.99a8.28 8.28 0 00-.835 2.012 3.089 3.089 0 000 1.583 2.2 2.2 0 010 1.243 1.568 1.568 0 01-.176-.121 2.11 2.11 0 01-.693-1.44 4.882 4.882 0 01.33-2.2c.473-1.1.945-2.2 1.407-3.299.033-.05.062-.1.088-.154l.32.22a3.773 3.773 0 011.44 2.936c.001.976-.102 1.95-.308 2.903-.154.957-.352 1.913-.44 2.881a2.925 2.925 0 001.1 2.628l.527.275zm4.685 16.066l2.2-.957-.177-.198c-.726-.88-1.484-1.726-2.199-2.639a16.681 16.681 0 01-3.244-7.5.55.55 0 00-.484-.505c-.8-.15-1.593-.341-2.375-.572a19.892 19.892 0 01-7.093-4.234l-.89-.78-.946 2.199c.326-.017.652-.017.978 0a2.199 2.199 0 012.145 1.88A1.716 1.716 0 018.797 41.7a1.1 1.1 0 01-1.396-1.276c.266.042.514.16.714.341a.615.615 0 001.023 0 1.628 1.628 0 00-.165-1.87 1.88 1.88 0 00-2.925.517 2.606 2.606 0 00.67 2.959 6.159 6.159 0 004.015 1.539h2.54c.292-.033.587-.033.88 0a2.408 2.408 0 011.89 2.705v3.112a5.673 5.673 0 001.332 3.299 2.617 2.617 0 003.035.869 1.792 1.792 0 001.1-1.859 1.583 1.583 0 00-1.353-1.506 1.1 1.1 0 00-1.1.385.561.561 0 00.154.901c.077.066.198.132.209.22.027.135.027.273 0 .407 0 0-.132.077-.198.066a1.1 1.1 0 01-.935-.913 1.407 1.407 0 01.627-1.451 2.089 2.089 0 011.781-.22 2.375 2.375 0 011.584 2.584c-.088.088-.1.275-.11.385zm-8.973-3.596c.253-.165.484-.319.715-.495a3.41 3.41 0 001.418-2.199 1.694 1.694 0 00-1.276-2.001 2.475 2.475 0 00-1.407.143 3.97 3.97 0 00-1.792 1.55l-.286.44a9.3 9.3 0 001.242 0 3.574 3.574 0 001.76-.858c.066 0 .187-.088.242 0 .146.093.282.2.407.32a3.497 3.497 0 00-1.023 3.1zM25.952 44.9a4.608 4.608 0 00-1.925-1.375c-1.473-.56-2.936-1.166-4.398-1.748h-.143l.517 2.199.55-.209a.22.22 0 01.164 0c.328.156.638.348.924.572a3.628 3.628 0 001.628.88 19.91 19.91 0 001.781.197c.78.011.56.078.924-.56l-.022.044zM8.874 51.112h.176l1.738-.638 1.308-.55a.484.484 0 00.363-.55 4.41 4.41 0 010-.759c0-.406.088-.802.132-1.231h-1.946a.616.616 0 00-.65.407 15.395 15.395 0 00-1.099 3.156.891.891 0 00-.022.165zm17.21 1.275l.407.275a7.091 7.091 0 002.815 1.22 1.253 1.253 0 001.1-.252.385.385 0 000-.627 1.672 1.672 0 00-.452-.264 6.267 6.267 0 00-2.914-.429c-.308.011-.648.044-.956.077zM7.522 33.837c0-.54 0-1.034.066-1.53a5.245 5.245 0 00-.44-2.353.924.924 0 00-.473-.483c-.341-.154-.594 0-.638.34a2.661 2.661 0 000 .781 7.29 7.29 0 001.485 3.244zM9.556 7.785a17.98 17.98 0 01-1.594-4.894l1.264.275c1.18.289 2.327.701 3.42 1.232.176.088.242 0 .319-.121.209-.495.45-.968.649-1.463a2.04 2.04 0 00.176-.792 1.462 1.462 0 00-.374-.923 1.099 1.099 0 00-.891-.33.759.759 0 00-.726.77.495.495 0 00.462.505c.3.047.573.199.77.43a1.1 1.1 0 01-1.837-.484 1.385 1.385 0 01.33-1.474 1.496 1.496 0 011.584-.44 1.858 1.858 0 011.32 2.122 6.78 6.78 0 01-.682 2.112c-.121.242-.22.495-.297.682.232.117.456.25.67.395.385.297.76.627 1.1.935.055-.495.088-1 .165-1.495A6.598 6.598 0 0117.132 1.1a3.299 3.299 0 013.904-.583c1.1.55 2.287 1.1 3.42 1.616a.825.825 0 00.99-.12A8.402 8.402 0 0128.59.429a4.85 4.85 0 011.66-.132 1.1 1.1 0 01.968.924 1.1 1.1 0 01-.55 1.264 6.94 6.94 0 01-3.673.693h-1.65a.616.616 0 00-.373.187 19.013 19.013 0 00-5.256 8.852c-.121.506-.154 1.034-.231 1.55v.22a.385.385 0 01-.407.408c-1.22.084-2.42.347-3.563.78a17.484 17.484 0 00-4.52 2.507c-.901.693-1.748 1.452-2.606 2.2a.759.759 0 00-.209.506c0 .417.088.835.11 1.253a7.532 7.532 0 01-.505 3.486 2.419 2.419 0 01-.297.517 1.2 1.2 0 01-2.2-.693 6.18 6.18 0 01.87-3.233c.274-.484.604-.946.923-1.396a.792.792 0 00.088-.913c-.561-1.1-1.1-2.31-1.639-3.464a3.299 3.299 0 011.067-4.212 6.95 6.95 0 013.64-1.44c.34 0 .693 0 1.1-.066l-.341-.451c-.297-.374-.594-.737-.88-1.1a.308.308 0 00-.407-.132c-.506.187-1 .396-1.507.561-.353.14-.722.236-1.1.286A1.727 1.727 0 015.41 8.6a1.66 1.66 0 01-.154-1.792 1.451 1.451 0 011.55-.726 1.199 1.199 0 01.683 1.98 3.298 3.298 0 01-.363-.704c-.1-.407-.198-.561-.517-.583a.759.759 0 00-.814.528 1.1 1.1 0 001.1 1.374 5.421 5.421 0 002.2-.582c.159-.094.313-.197.461-.308zm9.897-5.4c-.03.262-.146.506-.33.693a.627.627 0 000 1 1.517 1.517 0 001.88-.142 1.857 1.857 0 00-.33-2.837 2.518 2.518 0 00-2.804.297c-.6.518-1.07 1.17-1.374 1.902a6.785 6.785 0 00-.418 2.606c-.055.803 0 1.617 0 2.42.02.605-.14 1.202-.462 1.715a2.518 2.518 0 01-2.2.99h-3.067a5.388 5.388 0 00-3.3 1.242 2.595 2.595 0 00-1.099 2.485 1.836 1.836 0 002.991 1.309 1.474 1.474 0 00.33-1.77.704.704 0 00-1.22-.121.857.857 0 01-.638.252 1.1 1.1 0 01.912-1.231 1.363 1.363 0 011.1.275 1.903 1.903 0 01.572 2.056 2.199 2.199 0 01-2.1 1.639h-.891l.934 2.199.143-.11c1.162-1.045 2.4-2 3.706-2.86a15.471 15.471 0 016.301-2.506 1.507 1.507 0 001.1-.616h-.297v-.308c.16-.954.425-1.887.792-2.782a21.663 21.663 0 014.321-6.884c.11-.12.21-.275.341-.44l-2.2-.934v1.1a2.2 2.2 0 01-2.352 2.012 1.55 1.55 0 01-1.573-1.683 1.098 1.098 0 011.232-.968zm-6.257 3.211a2.562 2.562 0 00.11 1.628c.228.458.489.899.78 1.32.088.142.121.23 0 .34a.57.57 0 00-.12.11c-.1.143-.198.143-.341 0a5.08 5.08 0 00-.704-.495 3.068 3.068 0 00-2.331-.384c.198.274.373.538.56.78a3.474 3.474 0 002.134 1.353 1.703 1.703 0 002.111-1.694 3.233 3.233 0 00-.88-2.067 3.013 3.013 0 00-1.32-.89zm-4.31-1.825v.12a15.231 15.231 0 001.176 3.3.45.45 0 00.45.286h1.793c.209 0 .242-.077.242-.253v-1.76a.43.43 0 00-.33-.461l-1.99-.737-1.342-.495zm-1.32 17.121s-.077.066-.088.088a8.622 8.622 0 00-1.309 2.573 3.22 3.22 0 00-.154 1.441.473.473 0 00.341.418.484.484 0 00.594-.121c.097-.137.179-.284.242-.44a5.74 5.74 0 00.429-2.144c.01-.627-.033-1.199-.055-1.815zM25.875 2.507h1.198a6.488 6.488 0 001.958-.154c.385-.11.78-.23 1.154-.373a.484.484 0 00.363-.43c0-.22-.143-.318-.297-.428a1.254 1.254 0 00-1.1-.154 9.458 9.458 0 00-3.276 1.54zm27.766 7.698c.66.077 1.33.132 1.99.253a6.114 6.114 0 013.2 1.638 3.475 3.475 0 01.55 4.058c-.605 1.1-1.1 2.32-1.66 3.486-.121.253 0 .45.153.649.352.538.737 1.1 1.1 1.627a5.5 5.5 0 01.77 2.958c0 .693-.297 1.1-.88 1.243a1.1 1.1 0 01-1.308-.528 5.377 5.377 0 01-.781-2.738c0-.759 0-1.529.099-2.299a.936.936 0 00-.32-.78 21.356 21.356 0 00-5.783-4.08 14.587 14.587 0 00-3.442-1.1c-.407-.077-.825-.099-1.232-.165-.407-.066-.44-.175-.484-.538a13.36 13.36 0 00-1.627-5.092 22.929 22.929 0 00-3.629-5.07 2.43 2.43 0 01-.22-.252.912.912 0 00-.924-.319 8.555 8.555 0 01-3.98-.22 4.09 4.09 0 01-1.012-.484 1.1 1.1 0 01-.484-1.187 1.1 1.1 0 01.89-.935 4.97 4.97 0 011.1 0c1.004.16 1.96.535 2.805 1.1.352.198.703.407 1.1.626a.968.968 0 00.978 0c1.1-.55 2.265-1.1 3.398-1.627a3.299 3.299 0 014.398 1.287 7.015 7.015 0 011.221 3.365c0 .34.077.681.121 1.1l.154-.067 1.297-1.022a.44.44 0 00.154-.65c-.197-.472-.417-.934-.571-1.418a3.156 3.156 0 01-.132-1.748 1.803 1.803 0 012.133-1.21 1.462 1.462 0 01.979 1.903 1.198 1.198 0 01-1.892.417 4.09 4.09 0 01.704-.34c.418-.1.594-.242.583-.605a.76.76 0 00-.67-.726 1.1 1.1 0 00-1.276 1.1 1.562 1.562 0 000 .55c.23.703.472 1.396.714 2.089a.96.96 0 000 .099 19.002 19.002 0 014.96-1.617c0 .242-.077.473-.121.682a18.31 18.31 0 01-1.353 3.937c-.099.198-.055.286.121.374.67.419 1.419.7 2.2.824a1.231 1.231 0 001.1-.484.98.98 0 00.164-1.1.759.759 0 00-.814-.417c-.253 0-.374.187-.473.56a5.958 5.958 0 01-.297.727 1.166 1.166 0 01-.33-1.1 1.232 1.232 0 011.595-.89 1.539 1.539 0 01.88 2.286 1.891 1.891 0 01-2.364.891c-.704-.22-1.375-.506-2.057-.78-.165-.067-.242-.056-.352.087-.384.506-.802.98-1.198 1.474l.055.198zM42.809 1.958l-2.2.956a.717.717 0 00.1.121c.594.704 1.198 1.375 1.77 2.09a17.592 17.592 0 013.101 5.674c.264.868.418 1.77.616 2.66 0 .155.088.254.264.276a12.96 12.96 0 012.958.693 21.168 21.168 0 016.532 3.925c.363.297.704.616 1.1.946l.945-2.2h-.813a2.32 2.32 0 01-2.2-1.649 1.892 1.892 0 01.781-2.2 1.197 1.197 0 011.815.683v.308a.363.363 0 01-.484 0c-.077-.077-.11-.187-.187-.253s-.286-.22-.418-.21a.726.726 0 00-.715.484c-.09.288-.117.592-.077.891a1.572 1.572 0 001.55 1.342 1.838 1.838 0 001.903-1.947 2.673 2.673 0 00-1.012-2.133 5.719 5.719 0 00-3.816-1.418c-1.1 0-2.199 0-3.221-.055a2.31 2.31 0 01-2.2-2.54V5.453a6.037 6.037 0 00-1.1-3.299A2.76 2.76 0 0045.35.814a1.825 1.825 0 00-1.649.968 1.77 1.77 0 00.132 1.946 1.452 1.452 0 001.913.44.65.65 0 000-1.1.429.429 0 01-.198-.22c-.088-.198 0-.462.231-.45a1.199 1.199 0 01.968.89 1.484 1.484 0 01-1.1 1.705 2.199 2.199 0 01-2.914-2.134l.077-.901zm11.58 6.136h-1.1a3.629 3.629 0 00-1.892.88c-.054 0-.164.12-.186.098a1.672 1.672 0 01-.374-.363s.077-.176.132-.253l.373-.527a3.177 3.177 0 00.44-2.43c-.253.175-.494.34-.714.516a3.298 3.298 0 00-1.419 2.2 1.67 1.67 0 001.265 2.023c.361.084.738.084 1.1 0a3.717 3.717 0 002.374-2.144zm1.759-4.256h-.088c-1.172.268-2.308.67-3.387 1.199a.374.374 0 00-.209.384v1.804c0 .209.066.242.253.242h1.814a.407.407 0 00.44-.297l.99-2.628c.12-.231.121-.473.187-.704zM38.86 2.508v-.1l-.692-.45a6.235 6.235 0 00-2.397-.98 1.726 1.726 0 00-.946 0 .473.473 0 00-.187.848.91.91 0 00.352.241c.552.184 1.118.32 1.693.407.725.05 1.452.06 2.178.033zm18.617 18.594v.638a6.676 6.676 0 00.32 2.947c.08.218.199.42.351.594a.462.462 0 00.836-.23 2.804 2.804 0 000-.859 6.29 6.29 0 00-1.507-3.09zm-35.034-4.3a12.163 12.163 0 003.156-1.858c.67-.55 1.297-1.1 1.957-1.704a3.42 3.42 0 011.87-.803 3.97 3.97 0 012.738.836c1.374.99 2.727 2.023 4.101 3.013a71.677 71.677 0 008.127 5.256 1.1 1.1 0 01.582.836c.056.407.078.825.1 1.242 0 .792.066 1.584.087 2.376 0 1.352.1 2.716.154 4.068 0 .583 0 1.166.11 1.749.077.814.176 1.627.275 2.43 0 .407.1.803.154 1.21a.88.88 0 00.682-1.012c0-.473-.099-.946-.143-1.408-.11-1.022-.253-2.034-.308-3.046a76.725 76.725 0 01-.099-4.2V20.86a4.058 4.058 0 011.54-3.178 2.386 2.386 0 011.99-.582 2.198 2.198 0 012.001 2.694 2.584 2.584 0 01-2.584 2.2.594.594 0 01-.604-.617 1.924 1.924 0 01.593-1.583c.263-.205.547-.382.847-.528.088-.055.23-.055.187-.22a.692.692 0 00-.594-.45 1.3 1.3 0 00-.902.483 4.101 4.101 0 00-.934 1.814 3.091 3.091 0 000 1.452.352.352 0 00.385.319c.637 0 1.275-.077 1.902-.176a2.936 2.936 0 002.452-2.122 2.98 2.98 0 00-.693-3.178 3.299 3.299 0 00-4.75.055 5.785 5.785 0 00-1.463 2.55c-.11.375-.242.748-.373 1.155a93.8 93.8 0 01-12.097-8.115 3.684 3.684 0 012.409-.297c.656.234 1.253.61 1.748 1.1 1.1.857 2.122 1.737 3.222 2.54a4.024 4.024 0 003.002.847c.44-.057.865-.195 1.254-.407 0-.066-.066-.121-.11-.176l-1.683-2.287a5.312 5.312 0 00-2.54-2.057 2.09 2.09 0 00-1.1-.088c-.125.016-.25.038-.373.066v.088c.428.21.835.44 1.264.605a3.574 3.574 0 011.66 1.188c.374.517.682 1.1 1.001 1.627.1.154.165.33.275.539a3.738 3.738 0 01-1.891-.462 35.382 35.382 0 01-3.64-2.826 4.311 4.311 0 00-4.64-.88c-.46.176-.97.176-1.43 0a4.398 4.398 0 00-2.64-.165 5.927 5.927 0 00-2.088 1.243c-1.166.913-2.343 1.814-3.52 2.716a3.949 3.949 0 01-1.407.473 2.729 2.729 0 01-.187-.418.286.286 0 010-.23c.297-.474.594-.958.924-1.408a3.508 3.508 0 012.2-1.452 1.88 1.88 0 00.857-.572 1.568 1.568 0 00-.32-.11 2.584 2.584 0 00-2.528.803c-.759.858-1.452 1.77-2.2 2.661-.285.352-.55.704-.857 1.1a3.365 3.365 0 002.892.209zm9.776 6.049a6.784 6.784 0 00-5.507 2.889 6.752 6.752 0 002.23 9.757c1.363.703 4.717 1.1 5.091.538h-.132c-.59.039-1.18.039-1.77 0a5.409 5.409 0 01-4.146-2.683 8.15 8.15 0 01-.869-6.334 4.938 4.938 0 014.509-3.98l.605-.077-.011-.11zm.627.099c.197 0 .395 0 .593.088a5.499 5.499 0 014.179 3.42 8.797 8.797 0 01.352 5.663 4.937 4.937 0 01-3.233 3.673c-.05.026-.097.056-.143.088v.066l.308-.077a6.598 6.598 0 003.453-2.585 7.115 7.115 0 001.1-5.2 5.816 5.816 0 00-1.804-3.432 7.246 7.246 0 00-4.597-1.803.942.942 0 00-.242 0l.033.099zm16.692 19.99a1.485 1.485 0 01-1.495 1.507 1.507 1.507 0 010-3.002 1.472 1.472 0 011.495 1.495zm-1.506-.791a.76.76 0 00-.77.824.78.78 0 00.791.781.791.791 0 00.781-.814.759.759 0 00-.802-.791zm-31.065-.704a1.506 1.506 0 110 3.002 1.508 1.508 0 110-3.002zm0 .704a.77.77 0 00-.792.802.803.803 0 00.814.803.825.825 0 00.791-.803.79.79 0 00-.824-.802h.01zM15.46 11.887a1.495 1.495 0 011.496-1.495 1.54 1.54 0 011.517 1.495 1.562 1.562 0 01-1.517 1.518 1.54 1.54 0 01-1.496-1.518zm1.518-.791a.768.768 0 00-.814.78.804.804 0 00.792.825.836.836 0 00.813-.814.791.791 0 00-.791-.791zm32.56.802a1.508 1.508 0 11-3.004.257 1.508 1.508 0 013.004-.257zm-2.254-.022a.769.769 0 00.77.825.794.794 0 00.802-.803.76.76 0 00-.77-.802.749.749 0 00-.802.78z"/></g><defs><clipPath id="clip0"><path fill="#fff" d="M0 0h65v90.028H0z"/></clipPath></defs></svg>