<svg width="90" height="73" fill="none" xmlns="http://www.w3.org/2000/svg"><path d="M10.303 62.636l1.842 2.985H7.568l-1.436-2.43H3.86v2.434H0V55.227h8.16a4.027 4.027 0 012.138 7.409h.005zm-6.442-2.72h3.564c.387 0 .861 0 .861-.71 0-.709-.473-.709-.86-.709H3.86v1.419zm12.887-6.173v2.375h-3.562v-2.375h3.562zm0 2.968v8.91h-3.562v-8.91h3.562zm7.096-.149c3.52 0 5.732 1.13 6.031 3.936h-3.637c-.283-.758-1.114-.964-2.392-.964-1.588 0-2.492.326-2.492 1.632 0 1.306.904 1.633 2.492 1.633 1.278 0 2.109-.208 2.392-.966h3.637c-.297 2.806-2.51 3.935-6.03 3.935-3.785 0-6.058-1.3-6.058-4.602 0-3.302 2.273-4.604 6.057-4.604zm19.216 3.846v5.213h-3.568v-3.757c0-1.53-.55-2.182-2.153-2.182a4.34 4.34 0 00-2.865 1.127v4.81H30.91V53.744h3.564V57.9a7.271 7.271 0 014.305-1.338c2.014 0 4.282.625 4.282 3.846zm9.373-.563l6.295 5.776H55.03l-4.574-4.323-3.193 2.33v1.99h-2.671v-10.39h2.671v5.39l7.409-5.39h4.054l-6.294 4.617zm10.245-6.102v2.212h-2.537v-2.212h2.537zm0 3.133v8.745h-2.537v-8.745h2.537zm13.675-3.133V65.62h-2.538v-1.365a5.902 5.902 0 01-4.366 1.514c-2.805 0-5.21-1.172-5.21-4.513 0-3.34 2.406-4.528 5.21-4.528a5.902 5.902 0 014.365 1.514v-4.494l2.54-.005zm-2.538 7.512c0-1.737-1.248-2.406-3.52-2.406-2.271 0-3.505.669-3.505 2.406s1.232 2.39 3.505 2.39c2.273 0 3.52-.667 3.52-2.39zm6.64 1.291c0 .936.964 1.293 3.8 1.293 2.748 0 3.194-.179 3.194-.861 0-.683-.417-.71-3.489-.906-3.846-.221-5.732-.52-5.732-2.628 0-2.286 2.673-2.72 5.795-2.72 3.297 0 5.687.43 5.687 2.839h-2.554c0-.726-.92-.906-3.28-.906-2.407 0-3.089.18-3.089.685 0 .547.46.637 3.474.86 3.416.252 5.745.342 5.745 2.672 0 2.464-2.226 2.896-5.597 2.896-3.37 0-6.487-.432-6.487-3.223h2.533zm7.021-23.293a4.479 4.479 0 00-8.405.39c-.09.406-.153.818-.186 1.233.32-.174.589-.428.782-.737a2.943 2.943 0 013.69-.86 2.873 2.873 0 011.704 3.097 2.825 2.825 0 01-2.822 2.53 8.735 8.735 0 01-4.518-.647 41.188 41.188 0 01-4.827-2.72c-4.083-2.795-7.474-6.386-10.998-9.834-.806-.789-1.58-1.623-2.262-2.341l-.133-.108-.018-.017-1.154-1.411-1.189-1.447 3.702-4.296 2.777-3.23 2.175-2.52.01-.01.444-.568h1.925c.14-.016.274-.056.399-.118.124-.061.178-.213.266-.41H58.481v.552h.027l.294.027h2.92l-.694 1.037-.017.018-1.687 1.944-5.417 6.263-2.458 2.838a2.638 2.638 0 01-.018-.265c-.01-2.903-.027-5.805 0-8.707v-3.548c-2.068-.018-4.133-.03-6.194-.035h-.462c-2.743.01-5.494.018-8.236.054h-.497c-.772 0-1.537.01-2.307.018a10.93 10.93 0 00-4.872 1.287A6.131 6.131 0 0026.99 26.5a30.904 30.904 0 003.382 2.867c-.684.72-1.457 1.553-2.263 2.342-3.523 3.444-6.913 7.038-10.998 9.834a41.061 41.061 0 01-4.83 2.715 8.736 8.736 0 01-4.517.647 2.825 2.825 0 01-2.823-2.53 2.873 2.873 0 011.705-3.098 2.944 2.944 0 013.691.861c.192.31.461.563.78.737a9.103 9.103 0 00-.185-1.234 4.478 4.478 0 00-8.404-.389 4.456 4.456 0 001.056 4.961 7.672 7.672 0 005.12 2.2c4.11.252 8.181-.927 11.52-3.336a57.743 57.743 0 009.878-8.441c1.003-1.02 2.06-1.996 3-3.075a3.844 3.844 0 013.026-1.419c.166 0 .331.01.496.027.57.055 1.146.01 1.81.01.071.453.119.909.143 1.367.017 1.747.027 3.505-.01 5.244-.034 2.095-.479 2.602-2.502 3a3.43 3.43 0 00-.924.186c-.176.089-.23.39-.406.744h20.532c-.176-.355-.236-.656-.407-.744a3.43 3.43 0 00-.923-.187c-2.024-.4-2.466-.904-2.502-2.999a128.325 128.325 0 01-.018-3.755l2.483-2.893c.946-.91 2.165.473 2.999 1.42.946 1.073 1.997 2.048 2.999 3.074a57.821 57.821 0 009.879 8.44 17.827 17.827 0 0011.52 3.338 7.668 7.668 0 005.12-2.2 4.455 4.455 0 001.06-4.962zM38.573 27.644c-.024.37-.068.737-.133 1.101h-2.308c-.506 0-1.001 0-1.498-.01a5.501 5.501 0 01-5.281-4.197 5.743 5.743 0 012.601-6.7 7.946 7.946 0 014.09-.958c.17 0 .328 0 .498.009 1.739.071 2.023.31 2.031 2.05.027 2.9.01 5.802 0 8.705zm9.116 9.106c-.027 2.237-.578 2.875-2.689 3.075-2.113-.197-2.664-.834-2.689-3.075-.027-2.91 0-5.822 0-8.741h-.01c0-2.859-.009-5.716 0-8.583.01-2.156.613-2.885 2.7-3.123 2.085.236 2.688.967 2.698 3.123.007 2.867 0 5.724 0 8.583h-.01c0 2.92.025 5.83 0 8.74zm-30.29 34.855c.186.132.41.202.637.199a.635.635 0 00.325-.069.208.208 0 00.119-.185.21.21 0 00-.062-.158.474.474 0 00-.156-.101 3.942 3.942 0 00-.266-.095 2.911 2.911 0 01-.39-.144.702.702 0 01-.263-.213.584.584 0 01-.107-.364.662.662 0 01.406-.623c.142-.063.296-.094.451-.09a1.436 1.436 0 01.834.264l-.237.381a.976.976 0 00-.591-.209.502.502 0 00-.277.066.194.194 0 00-.039.314c.044.04.095.073.15.095.06.026.146.056.257.091a3.1 3.1 0 01.397.146.735.735 0 01.266.22.62.62 0 01.111.38.648.648 0 01-.118.383.743.743 0 01-.325.257c-.154.065-.32.097-.487.094a1.637 1.637 0 01-.457-.062 1.365 1.365 0 01-.393-.175l.215-.402zm5.771.635a1.282 1.282 0 01-.637-.16 1.13 1.13 0 01-.439-.441 1.358 1.358 0 010-1.275c.103-.185.255-.337.44-.44a1.37 1.37 0 011.273 0c.185.103.338.255.442.44a1.36 1.36 0 010 1.275 1.139 1.139 0 01-.442.442 1.291 1.291 0 01-.638.158zm0-.447a.768.768 0 00.393-.101.71.71 0 00.275-.28.837.837 0 00.099-.41.828.828 0 00-.1-.408.725.725 0 00-.274-.28.828.828 0 00-.787 0 .72.72 0 00-.272.28.839.839 0 00-.097.407.85.85 0 00.097.41.71.71 0 00.272.28c.12.07.255.104.393.102zm4.81.314a.926.926 0 01-.364-.376 1.212 1.212 0 01-.128-.57v-1.36h.473v1.329a.754.754 0 00.15.501.508.508 0 00.411.179.517.517 0 00.413-.179.755.755 0 00.151-.501v-1.328h.473v1.36a1.21 1.21 0 01-.129.569.913.913 0 01-.361.376 1.17 1.17 0 01-1.085 0h-.003zm6.686-1.862h-.843v1.96h-.473v-1.96h-.844v-.443h2.161v.443zm5.058-.443v2.406h-.473v-.994h-1.143v.994h-.473v-2.406h.473v.966h1.143v-.966h.473zm3.098 1.61v-.449h1.144v.449h-1.144zm5.698.19h-.99l-.226.603h-.508l.934-2.407h.591l.94 2.407h-.51l-.23-.603zm-.16-.433l-.333-.887-.336.887h.67zm4.345-.931v.558h1.064v.44h-1.064v.969h-.474v-2.403h1.664v.439l-1.19-.003zm5.557 1.968l-.592-.8h-.325v.8h-.473v-2.404h1.036a.884.884 0 01.626.215.77.77 0 01.236.592.812.812 0 01-.147.49.74.74 0 01-.409.275l.614.837-.566-.005zm-.911-1.217h.524a.474.474 0 00.316-.1.402.402 0 000-.557.473.473 0 00-.316-.096h-.524v.753zm4.525 1.217v-2.404h.473v2.406l-.473-.002zm4.182-.122a1.163 1.163 0 01-.445-.44 1.364 1.364 0 010-1.283c.105-.185.259-.338.445-.442.198-.108.421-.163.647-.158a1.157 1.157 0 01.89.372l-.329.325a.72.72 0 00-.564-.243.828.828 0 00-.4.097.695.695 0 00-.277.276.915.915 0 000 .828.69.69 0 00.277.277c.122.067.26.101.4.1a.733.733 0 00.568-.237l.325.32a1.158 1.158 0 01-.889.373 1.3 1.3 0 01-.648-.165zm6.034-.482h-.99l-.227.603h-.507l.934-2.407h.592l.939 2.407h-.51l-.23-.603zm-.16-.433l-.335-.887-.334.887h.67zM32.042 5.068l3.811-5.07v5.07h-3.811zm4.563 0V0h4.171l-4.17 5.068zm1.115 0l4.387-5.07 2.337 5.07H37.72zm7.118-.862L47.427 0h-4.53l1.941 4.206zm.504.864L47.966.504l4.421 4.566h-7.045zm7.873-.217V.005H48.65l4.566 4.848zm.755.215V0l3.99 5.07-3.99-.002zm-21.535.797h3.415l-1.403 2.122-2.012-2.122zm6.005 0h5.212l-2.301 2.366-2.911-2.366zm7.801 0h5.537l-2.804 2.122-2.733-2.122zm7.729 0h3.63l-2.28 2.283-1.35-2.283z" fill="#fff"/><path d="M53.07 5.865l1.403 2.839-8.7 7.478 3.632-7.37 3.666-2.947zm-8.231 0L48.11 8.85l-3.272 7.047-2.696-7.047 2.696-2.984zm-7.838 0l4.387 3.595 2.731 6.436-8.987-7.262 1.87-2.769z" fill="#fff"/></svg>