<svg width="100" height="59" fill="none" xmlns="http://www.w3.org/2000/svg"><g clip-path="url(#clip0)" fill="#fff"><path d="M12.651 9.313a2.444 2.444 0 01.85 1.878 2.263 2.263 0 01-.521 1.494 1.72 1.72 0 01-1.392.611 1.8 1.8 0 01-1.256-.464 1.663 1.663 0 01-.521-1.278 2.093 2.093 0 011.132-1.81.815.815 0 00-.725-.33 3.395 3.395 0 00-2.376 1.02 7.05 7.05 0 00-1.675 2.5 7.254 7.254 0 00-.61 2.784v7.095a2.433 2.433 0 00.893 2.15 4.82 4.82 0 002.66.6v.702h-.804c-2.263-.068-3.723-.102-4.357-.102-.633 0-1.89 0-3.949.136v-.702a2.93 2.93 0 001.98-.52 2.523 2.523 0 00.566-1.89V12.662a3.576 3.576 0 00-.566-2.264A2.41 2.41 0 00.034 9.72v-.667a21.87 21.87 0 002.082.102c1.175.03 2.348-.127 3.474-.464v4.187a8 8 0 011.935-3.033 4.074 4.074 0 012.931-1.301 3.191 3.191 0 012.195.77zm13.331 1.494c1.388 1.509 2.085 3.772 2.093 6.79.008 3.017-.69 5.28-2.093 6.79a7.198 7.198 0 01-5.511 2.262 7.198 7.198 0 01-5.511-2.263c-1.388-1.509-2.086-3.772-2.094-6.79-.007-3.017.69-5.28 2.094-6.79a7.162 7.162 0 015.51-2.262 7.163 7.163 0 015.512 2.263zm-8.691.509a13.4 13.4 0 00-1.132 6.382 13.286 13.286 0 001.132 6.371 3.497 3.497 0 006.36 0 13.286 13.286 0 001.131-6.37 13.4 13.4 0 00-1.131-6.383 3.486 3.486 0 00-6.36 0z"/><path d="M43.884 9.053v.679a1.879 1.879 0 00-1.132.6 5.442 5.442 0 00-.985 1.742l-5.522 14.36-1.131 2.909a6.008 6.008 0 01-1.483 2.342 2.964 2.964 0 01-1.2.668 5.068 5.068 0 01-1.402.203 2.41 2.41 0 01-1.641-.543 1.8 1.8 0 01-.645-1.471 1.776 1.776 0 01.475-1.29 1.696 1.696 0 011.301-.487c.44-.01.868.143 1.2.43a1.439 1.439 0 01.486 1.132 1.618 1.618 0 01-.905 1.516h.204c1.233 0 2.172-.86 2.851-2.602l1.132-3.056-6.031-14.597a3.825 3.825 0 00-1.132-1.505 2.06 2.06 0 00-1.132-.363v-.667c1.088.143 2.185.211 3.282.204 1.132 0 2.569-.068 4.357-.204v.713a5.522 5.522 0 00-1.754.192.906.906 0 00-.555.973c.024.568.159 1.125.396 1.641l4.029 9.992 3.711-9.686a4.876 4.876 0 00.385-1.562 1.256 1.256 0 00-.6-1.132 4.311 4.311 0 00-1.935-.497v-.634c1.132.068 2.116.102 2.807.102.996-.03 1.852-.064 2.569-.102zm.452 16.397a4.074 4.074 0 01-1.018-2.931 3.711 3.711 0 01.849-2.49 6.224 6.224 0 011.935-1.539 24.758 24.758 0 012.965-1.2 15.424 15.424 0 002.783-1.13 1.63 1.63 0 00.906-1.438v-2.127a3.452 3.452 0 00-.815-2.66 3.395 3.395 0 00-2.263-.724 4.029 4.029 0 00-3.316 1.211c.443.106.84.352 1.132.702.306.376.466.85.452 1.335a1.663 1.663 0 01-.543 1.324 1.935 1.935 0 01-1.37.487 1.663 1.663 0 01-1.402-.589 2.16 2.16 0 01-.476-1.414c-.017-.479.118-.95.385-1.347a5.124 5.124 0 011.132-1.132 7.334 7.334 0 012.048-.939 9.789 9.789 0 012.716-.362 5.658 5.658 0 013.915 1.29 3.801 3.801 0 011.132 1.867c.218.938.317 1.9.294 2.863v9.313c-.033.417.045.835.226 1.211a.905.905 0 00.804.362 1.61 1.61 0 00.758-.18c.27-.147.525-.322.758-.521l.362.565a7.83 7.83 0 01-1.494.962c-.491.2-1.02.297-1.55.283a2.75 2.75 0 01-2.263-.803 3.486 3.486 0 01-.634-2.184 5.77 5.77 0 01-2.263 2.33 6.425 6.425 0 01-2.953.657 4.209 4.209 0 01-3.192-1.052zm8.397-2.818V16.07c-.21.323-.497.588-.837.77-.363.203-.906.475-1.641.803-.712.29-1.4.634-2.06 1.03a4.527 4.527 0 00-1.358 1.312 3.734 3.734 0 00-.566 2.15 3.123 3.123 0 00.736 2.263 2.524 2.524 0 001.946.77 4.527 4.527 0 003.78-2.535z"/><path d="M62.985 23.153a2.524 2.524 0 00.566 1.89 2.93 2.93 0 001.98.52v.702c-2.06-.091-3.395-.136-4.051-.136-.656 0-2.003 0-4.051.136v-.702a2.897 2.897 0 001.969-.52 2.476 2.476 0 00.61-1.89V4.017a3.52 3.52 0 00-.576-2.263 2.377 2.377 0 00-2.003-.622V.373c.69 0 1.38.091 2.07.091A10.876 10.876 0 0062.985 0v23.153zM5.59 48.84a2.512 2.512 0 00.577 1.901 2.954 2.954 0 001.97.52v.702c-2.049-.09-3.395-.135-4.052-.135-.656 0-1.991 0-4.05.135v-.701c.7.065 1.401-.12 1.98-.52a2.558 2.558 0 00.565-1.902V38.361a3.632 3.632 0 00-.566-2.263 2.444 2.444 0 00-1.98-.69v-.702a21.87 21.87 0 002.082.102c1.177.033 2.35-.128 3.474-.475V48.84zm-.226-21.874a2.116 2.116 0 010 3.022 2.117 2.117 0 01-3.067 0 2.15 2.15 0 011.505-3.655 2.094 2.094 0 011.562.633zm17.788 7.74v.668a1.845 1.845 0 00-1.188.611 5.116 5.116 0 00-.996 1.743L15.48 52.133h-.577l-6.156-14.79a4.073 4.073 0 00-.973-1.505 1.55 1.55 0 00-.95-.43v-.702c1.161.09 2.146.136 2.953.136 1.72 0 3.168-.045 4.345-.136v.702a6.18 6.18 0 00-1.8.192c-.384.114-.576.442-.576.95.045.508.171 1.005.373 1.472l4.12 10.184 3.688-9.675a5.2 5.2 0 00.362-1.584 1.21 1.21 0 00-.588-1.132 4.628 4.628 0 00-1.89-.452v-.668c1.17.068 2.109.102 2.818.102.842.012 1.684-.018 2.523-.09z"/><path d="M37.795 34.706v.668a1.9 1.9 0 00-1.199.611 5.318 5.318 0 00-.984 1.743l-5.489 14.405-1.131 2.908a5.997 5.997 0 01-1.438 2.343 2.92 2.92 0 01-1.21.679 5.42 5.42 0 01-1.404.192 2.41 2.41 0 01-1.652-.543 1.823 1.823 0 01-.645-1.471 1.74 1.74 0 01.476-1.29 1.698 1.698 0 011.3-.487c.447-.02.883.13 1.223.419a1.436 1.436 0 01.487 1.131 1.606 1.606 0 01-.906 1.505.476.476 0 00.204 0c1.237 0 2.188-.87 2.852-2.613l1.131-3.044-6.02-14.519a3.94 3.94 0 00-1.131-1.505 2.071 2.071 0 00-1.132-.373v-.702a23.69 23.69 0 003.282.204c1.131 0 2.568-.068 4.356-.204v.702a5.455 5.455 0 00-1.754.203.906.906 0 00-.554.973c.024.57.162 1.127.407 1.641l4.017 9.981 3.712-9.675a4.935 4.935 0 00.373-1.55 1.234 1.234 0 00-.6-1.132 4.446 4.446 0 00-1.912-.475v-.668c1.188.068 2.116.102 2.818.102.958-.038 1.8-.09 2.523-.159zm16.262 11.927l-.838 2.445c-.803 2.263-2.15 3.451-4.05 3.451a2.264 2.264 0 01-2.105-.973c-.206-.34-.3-.735-.272-1.132.06-.894.25-1.775.566-2.614l3.19-9.584c.18-.531.29-1.082.329-1.641 0-.781-.35-1.132-1.132-1.132a4.49 4.49 0 00-2.896 1.867 23.072 23.072 0 00-3.192 5.104 45.085 45.085 0 00-2.715 7.208l-.544 2.422h-2.92l4.018-14.372c.126-.404.206-.822.238-1.244 0-.555-.25-.838-.736-.838a1.653 1.653 0 00-1.313.736c-.54.833-.967 1.735-1.267 2.682l-.441 1.245h-.6l.837-2.445c.804-2.263 2.14-3.451 3.984-3.451a1.958 1.958 0 011.527.51c.325.414.486.933.453 1.459-.052.92-.207 1.83-.464 2.716l-1.132 4.594a25.393 25.393 0 014.108-7.174 5.795 5.795 0 014.266-2.094c1.81 0 2.716.838 2.716 2.512a8.048 8.048 0 01-.498 2.547l-3.35 9.777a4.527 4.527 0 00-.26 1.278.71.71 0 00.804.804 1.72 1.72 0 001.29-.758c.564-.815 1-1.712 1.29-2.66l.43-1.245h.679zm14.914-.033h.634l-.837 2.444a5.873 5.873 0 01-1.71 2.67 3.395 3.395 0 01-2.138.815 2.58 2.58 0 01-1.132-.226 1.856 1.856 0 01-.735-.645 2.183 2.183 0 01-.305-1.132 6.109 6.109 0 01.237-1.584l.306-1.132.6-2.41a18.106 18.106 0 01-3.271 5.443 4.888 4.888 0 01-3.463 1.686 2.704 2.704 0 01-2.342-1.131A4.89 4.89 0 0154 48.444c.084-2.09.589-4.14 1.483-6.031a18.374 18.374 0 013.745-5.658 6.71 6.71 0 014.696-2.343 1.81 1.81 0 011.471.668c.416.54.65 1.197.668 1.878l.543-2.082a11.844 11.844 0 003.078-.464l-4.187 14.802-.135.52c-.065.236-.1.48-.102.724 0 .555.249.838.735.838.98 0 1.84-1.132 2.58-3.395l.396-1.302zm-8.577 3.394a18.603 18.603 0 002.557-3.836 28.665 28.665 0 002.071-5.103l.645-2.354a6.372 6.372 0 000-.747 4.187 4.187 0 00-.487-2.161 1.528 1.528 0 00-1.358-.781c-.961 0-1.98.735-3.044 2.263a20.19 20.19 0 00-2.704 5.488 19.589 19.589 0 00-1.132 6.156 4.64 4.64 0 00.306 1.97.927.927 0 00.871.61c.918-.19 1.73-.72 2.275-1.482v-.023zM74.8 36.449c0-.554-.25-.837-.736-.837a1.719 1.719 0 00-1.37.803c-.543.81-.973 1.689-1.278 2.614l-.464 1.245h-.645l.871-2.444c.302-1.062.931-2 1.8-2.682a4.028 4.028 0 012.353-.77c1.482 0 2.263.702 2.263 2.105a7.637 7.637 0 01-.61 2.58l-3.577 10.184a4.196 4.196 0 00-.271 1.245.724.724 0 00.803.838 1.687 1.687 0 001.301-.77c.556-.819.998-1.71 1.313-2.648l.464-1.245h.645l-.871 2.445a5.544 5.544 0 01-1.766 2.648 3.847 3.847 0 01-2.353.803c-1.573 0-2.354-.679-2.354-2.037a8.22 8.22 0 01.611-2.648l3.576-10.184c.16-.398.259-.818.294-1.245zm1.493-9.053a2.32 2.32 0 011.72-.78 1.64 1.64 0 011.233.543c.31.34.475.785.464 1.244a2.636 2.636 0 01-2.5 2.49 1.606 1.606 0 01-1.2-.487 1.688 1.688 0 01-.475-1.222 2.513 2.513 0 01.758-1.8v.012zm4.266 22.994c0 .6.26.906.77.906a1.618 1.618 0 001.312-.77 10.36 10.36 0 001.256-2.648l.441-1.245h.566l-.837 2.445c-.781 2.263-2.117 3.451-4.018 3.451-1.509 0-2.263-.724-2.263-2.173a9.95 9.95 0 01.464-2.512l5.466-18.105c.089-.306.142-.622.158-.94a1.042 1.042 0 00-.52-.973 3.813 3.813 0 00-1.754-.294l.237-.702a15.178 15.178 0 003.203-.373 12.658 12.658 0 002.76-1.007l-7.004 23.764a4.42 4.42 0 00-.237 1.176z"/><path d="M87.247 51.794c.291.051.587.074.883.068a3.396 3.396 0 002.433-.94 3.327 3.327 0 00.94-2.546 5.59 5.59 0 00-.397-2.093 11.052 11.052 0 00-1.347-2.331 19.63 19.63 0 01-1.652-2.524 4.888 4.888 0 01-.52-2.331 4.527 4.527 0 01.713-2.433 4.775 4.775 0 011.89-1.686c.807-.405 1.7-.61 2.602-.6a5.976 5.976 0 012.908.645 2.365 2.365 0 011.132 2.263 2.048 2.048 0 01-.385 1.132 1.324 1.324 0 01-1.131.566 1.3 1.3 0 01-.962-.396 1.449 1.449 0 01-.385-1.007c.049-.84.38-1.637.94-2.264a3.157 3.157 0 00-1.676-.396 2.794 2.794 0 00-2.093.849 3.248 3.248 0 00-.815 2.331 3.52 3.52 0 00.317 1.505c.344.627.722 1.236 1.132 1.822l.6.871a18.953 18.953 0 011.493 2.648c.32.712.486 1.483.487 2.264a4.809 4.809 0 01-.792 2.715 5.285 5.285 0 01-2.105 1.879 6.163 6.163 0 01-2.863.667 5.941 5.941 0 01-3.214-.814 2.76 2.76 0 01-1.313-2.501 1.822 1.822 0 01.317-1.041 1.132 1.132 0 01.996-.464 1.198 1.198 0 011.132.6c.248.472.358 1.006.317 1.539a9.668 9.668 0 01-.238 1.742c.206.115.427.203.656.26zm10.897.056a1.856 1.856 0 100-3.711 1.856 1.856 0 000 3.711z"/></g><defs><clipPath id="clip0"><path fill="#fff" d="M0 0h100v58.258H0z"/></clipPath></defs></svg>