<svg width="100" height="54" fill="none" xmlns="http://www.w3.org/2000/svg"><path fill="#E5E5E5" d="M0 0h100v54H0z"/><g clip-path="url(#clip0)"><path fill="#fff" d="M-852-1482H588v6086H-852z"/><path d="M-852-1337H588V71.99L680 902s-516-272-898-10-634-226-634-226v-2003z" fill="#121214"/><rect x="-33" y="-32" width="166" height="118" rx="16" fill="#1B1B1E"/><g clip-path="url(#clip1)" fill="#fff"><path d="M57.62 18.112a6.803 6.803 0 00-.222-1.746h-4.553c.412.485.618 1.112.575 1.746 0 2.454-1.967 2.454-3.227 2.454h-7.47v-4.2h-4.2v12.09h4.2v-4.365h6.774l2.641 4.365h4.94l-3.006-4.851a5.58 5.58 0 003.547-5.493zm-19.13-3.459V5.216l10.134 9.316s-10.2.055-10.133.121zm11.239-.066l-5.923-5.614 4-4 9.56 9.559-7.637.055zm7.636-.95V5.393l-4.188 3.945 4.188 4.299zM49.88 1.844L48.034 0 46.19 1.844l1.844 1.844 1.844-1.844zm-35.9 52.118a10.653 10.653 0 01-8.046-3.901l-.409-.431c-.652-.774-1.105-1.37-1.757-1.37h-.165v-.299h.817a3.226 3.226 0 003.25-3.57 3.415 3.415 0 00-3.25-3.502H2.597a1.216 1.216 0 01.298.906v10.144c0 .84.1.929.94.929H4.84v.176H0v-.154h.608c.84 0 .928-.089.928-.928V41.606c0-.84-.088-.917-.928-.917H0v-.166h4.542c2.785 0 4.63 1.547 4.63 3.868a3.868 3.868 0 01-3.647 3.757h-.342v.1a3.072 3.072 0 011.89 1.193c2.685 2.984 5.525 3.978 7.802 3.978a9.161 9.161 0 005.525-1.967l.1.122a10.222 10.222 0 01-6.52 2.387z"/><path d="M11.327 46.956a4.575 4.575 0 014.807-4.3c2.863 0 4.774 1.714 4.774 4.3a4.564 4.564 0 01-4.774 4.31c-2.873 0-4.807-1.725-4.807-4.31zm8.067.331c0-2.387-1.491-4.32-3.315-4.32-1.823 0-3.227 1.469-3.227 3.668 0 2.387 1.503 4.321 3.316 4.321 1.812 0 3.226-1.47 3.226-3.669zm3.946 5.603h1.503c.829 0 .917-.089.917-.928v-4.819l-2.73-5.26c-.42-.796-.64-1.216-1.105-1.216h-.364v-.143h3.315v.143H23.77c.22.089.43.453.718.973l2.21 4.288c.098.173.172.36.221.552h.122c.063-.19.14-.375.232-.552l2.088-4.045c.14-.232.228-.493.255-.763 0-.287-.2-.486-.74-.486h-1.05v-.143h3.315v.143h-.299c-.497 0-.696.343-1.16 1.238l-2.575 4.973v5.094c0 .84.088.929.917.929h1.293v.176H23.34v-.154zm7.835 0h.276c.442 0 .696-.486.962-1.105l4.884-11.283h1.381v.21c-.003.345.05.688.155 1.016l4.111 10.057c.343.84.453 1.105 1.028 1.105h.132v.155H40.79v-.155h1.337c-.232-.089-.42-.53-.541-.818l-.973-2.387h-6.929l-.939 2.21a.93.93 0 00-.088.398c0 .409.31.685.84.685h.85v.067h-3.171v-.155zm9.283-3.547l-2.962-7.26a1.692 1.692 0 01-.144-.697h-.154a2.333 2.333 0 01-.21.696l-3.172 7.26h6.642zm6.177 3.547h.608c.84 0 .917-.21.917-1.105v-10.2c0-.83-.078-.895-.917-.895h-.608v-.166h4.42v.166h-.608c-.829 0-.939.066-.939.895v10.222a1.271 1.271 0 01-.376.906h2.343c1.68 0 2.785-.331 2.929-2l.143-1.746h.343l-.343 4.94h-.177l.067-1.028c-.122.121-.2.154-.475.154h-7.327v-.143zm17.77 0h.608c.84 0 .928-.066.928-.906v-10.4c0-.828-.088-.894-.928-.894h-.608v-.166h4.42v.199h-.607c-.84 0-.94.066-.94.906v10.31c0 .84.1.907.94.907h.608v.199h-4.42v-.155zm10.432-12.366v.166h-1.349c.243.088.442.497.542.795l4 9.703c.086.196.135.405.144.619h.287a1.79 1.79 0 01.166-.696l3.901-9.383c.073-.148.114-.31.122-.475 0-.365-.255-.597-.851-.597H80.24v-.165h3.802v.165h-.21c-.552 0-.696.31-1.006 1.105L78.23 53.133l-.94.066-4.618-11.438c-.32-.784-.454-1.105-1.028-1.105h-.254v-.165l3.448.033zM88.275 52.89h1.491c.84 0 .918-.089.918-.928v-4.819l-2.73-5.26c-.42-.796-.64-1.216-1.105-1.216h-.365v-.143H89.8v.143h-1.105c.232.089.442.453.718.973l2.21 4.288c.097.173.172.36.221.552h.133a2.74 2.74 0 01.22-.552l2.09-4.045c.14-.232.227-.493.253-.763 0-.287-.187-.486-.74-.486h-1.105v-.143h3.315v.143h-.199c-.508 0-.707.343-1.171 1.238l-2.575 4.973v5.094c0 .84.088.929.917.929h1.293v.176h-6v-.154zm10.078-.84l-.364-.796H97.7v.774h-.453v-2.1h.851a.707.707 0 01.53.188.587.587 0 01.21.475.62.62 0 01-.11.365.641.641 0 01-.276.232l.42.85h-.52v.012zm-.121-1.282a.277.277 0 00.088-.199.232.232 0 00-.088-.188.276.276 0 00-.21-.077h-.376v.53h.398a.32.32 0 00.21-.066h-.022z"/><path d="M98.011 52.956A1.978 1.978 0 1198.033 49a1.978 1.978 0 01-.022 3.956zm0-3.69a1.724 1.724 0 101.724 1.712 1.712 1.712 0 00-1.724-1.713z"/></g></g><defs><clipPath id="clip0"><path fill="#fff" transform="translate(-852 -1482)" d="M0 0h1440v6086H0z"/></clipPath><clipPath id="clip1"><path fill="#fff" d="M0 0h100v53.962H0z"/></clipPath></defs></svg>