<svg width="100" height="70" fill="none" xmlns="http://www.w3.org/2000/svg"><g clip-path="url(#clip0)" fill="#fff"><path d="M15.115 11.167a2.916 2.916 0 011.031 2.239 2.713 2.713 0 01-.624 1.79 2.253 2.253 0 01-3.175.177 1.912 1.912 0 01-.624-1.52 2.496 2.496 0 011.357-2.17.977.977 0 00-.868-.407 4.07 4.07 0 00-2.85 1.234 8.575 8.575 0 00-2.008 2.985 8.982 8.982 0 00-.719 3.338v8.508a2.836 2.836 0 001.1 2.51 5.62 5.62 0 003.188.733v.84h-.964c-2.713-.08-4.477-.121-5.224-.121-.746 0-2.28 0-4.735.162v-.84A3.582 3.582 0 002.374 30a3.025 3.025 0 00.679-2.266V15.17a4.342 4.342 0 00-.679-2.714A2.932 2.932 0 000 11.642v-.787c.86.081 1.687.122 2.483.122a12.95 12.95 0 004.18-.57v5.02a9.62 9.62 0 012.306-3.622 4.924 4.924 0 013.514-1.574 3.745 3.745 0 012.632.936zm15.984 1.777c1.664 1.81 2.501 4.546 2.51 8.21.01 3.663-.828 6.377-2.51 8.14a8.643 8.643 0 01-6.608 2.714 8.615 8.615 0 01-6.608-2.714c-1.673-1.809-2.51-4.522-2.51-8.14 0-3.619.837-6.355 2.51-8.21a8.588 8.588 0 016.608-2.713 8.615 8.615 0 016.608 2.713zm-10.42.624a15.971 15.971 0 00-1.357 7.64 15.93 15.93 0 001.356 7.639 4.193 4.193 0 007.626 0 15.93 15.93 0 001.357-7.64 15.971 15.971 0 00-1.357-7.639 4.18 4.18 0 00-7.626 0z"/><path d="M52.55 10.855v.8c-.52.08-.998.333-1.356.72a6.689 6.689 0 00-1.18 2.089l-6.595 17.218-1.357 3.488a7.028 7.028 0 01-1.79 2.822 3.46 3.46 0 01-1.453.8 6.012 6.012 0 01-1.682.245 2.985 2.985 0 01-1.967-.638 2.213 2.213 0 01-.76-1.764 2.143 2.143 0 01.556-1.547 2.062 2.062 0 011.574-.583 2.154 2.154 0 011.465.502 1.737 1.737 0 01.584 1.357 1.954 1.954 0 01-1.086 1.804.502.502 0 00.231 0c1.483 0 2.623-1.044 3.42-3.134l1.356-3.65-7.232-17.49a4.492 4.492 0 00-1.357-1.805 2.442 2.442 0 00-1.356-.447v-.787a28.29 28.29 0 003.934.244c1.33 0 3.067-.081 5.21-.244v.841a6.61 6.61 0 00-2.103.244 1.085 1.085 0 00-.664 1.167c.03.682.196 1.35.488 1.968l4.817 11.954 4.45-11.602c.252-.59.403-1.218.448-1.858a1.48 1.48 0 00-.719-1.357 5.333 5.333 0 00-2.293-.61v-.747a59.96 59.96 0 003.365.122c1.185-.036 2.203-.077 3.053-.122zm.543 19.633a4.831 4.831 0 01-1.22-3.514 4.505 4.505 0 011.044-2.971 7.68 7.68 0 012.334-1.846 28.778 28.778 0 013.555-1.438 19.4 19.4 0 003.338-1.357 1.926 1.926 0 001.004-1.723v-2.537a4.18 4.18 0 00-.977-3.203 4.071 4.071 0 00-2.714-.854 4.844 4.844 0 00-4.016 1.438 2.51 2.51 0 011.357.841 2.4 2.4 0 01.542 1.615 2.02 2.02 0 01-.637 1.587 2.375 2.375 0 01-1.642.57 2.063 2.063 0 01-1.696-.692 2.713 2.713 0 01-.556-1.71 2.632 2.632 0 01.46-1.6 5.862 5.862 0 011.358-1.357 8.264 8.264 0 012.456-1.127 11.154 11.154 0 013.242-.447 6.785 6.785 0 014.804 1.56 4.478 4.478 0 011.356 2.225 14.57 14.57 0 01.34 3.433v11.113c-.035.495.059.99.271 1.438a1.059 1.059 0 00.963.448c.316-.003.627-.077.91-.217.32-.18.625-.39.909-.624l.434.678a9.214 9.214 0 01-1.791 1.14 4.383 4.383 0 01-1.86.339 3.243 3.243 0 01-2.713-.95 4.07 4.07 0 01-.773-2.618 7.015 7.015 0 01-2.714 2.795 7.883 7.883 0 01-3.528.773 5.034 5.034 0 01-3.84-1.208zm10.055-3.351v-7.87a2.55 2.55 0 01-1.004.923 20.81 20.81 0 01-1.968.963 18.87 18.87 0 00-2.47 1.235 5.239 5.239 0 00-1.614 1.574 4.478 4.478 0 00-.692 2.578 3.813 3.813 0 00.882 2.714 3.066 3.066 0 002.334.922 5.426 5.426 0 004.532-3.039z"/><path d="M75.441 27.748a3.026 3.026 0 00.679 2.266 3.582 3.582 0 002.374.624v.841c-2.47-.109-4.07-.163-4.857-.163-.787 0-2.402 0-4.858.163v-.841a3.54 3.54 0 002.361-.624 2.97 2.97 0 00.692-2.266V4.817a4.193 4.193 0 00-.692-2.714 2.85 2.85 0 00-2.36-.746V.434c.823.082 1.65.122 2.482.122A13.04 13.04 0 0075.442 0v27.748zM6.662 58.535a3.012 3.012 0 00.679 2.266c.69.486 1.533.708 2.374.624v.841c-2.456-.108-4.07-.163-4.857-.163-.787 0-2.402 0-4.858.163v-.841a3.514 3.514 0 002.374-.624 3.01 3.01 0 00.679-2.266V45.97a4.288 4.288 0 00-.679-2.713A2.89 2.89 0 000 42.442v-.854c.86.081 1.687.122 2.483.122a13.351 13.351 0 004.18-.557v17.382zM6.377 32.32a2.497 2.497 0 010 3.61 2.414 2.414 0 01-1.804.705 2.454 2.454 0 01-1.86-.706 2.523 2.523 0 010-3.609 2.456 2.456 0 011.805-.76 2.415 2.415 0 011.86.76zm21.329 9.268v.814a2.13 2.13 0 00-1.424.719 6.27 6.27 0 00-1.194 2.09l-6.581 17.204h-.679l-7.394-17.734a4.885 4.885 0 00-1.154-1.804 1.859 1.859 0 00-1.14-.435v-.854c1.357.108 2.565.162 3.528.162a49.495 49.495 0 005.224-.162v.854a7.622 7.622 0 00-2.17.218c-.462.149-.68.529-.68 1.14.056.606.202 1.2.435 1.763l4.94 12.212 4.395-11.642a6.254 6.254 0 00.434-1.886 1.452 1.452 0 00-.705-1.357 5.427 5.427 0 00-2.266-.529v-.814a61.1 61.1 0 003.379.122c1.018.032 2.037.005 3.052-.081z"/><path d="M45.251 41.587v.815a2.13 2.13 0 00-1.425.719 6.27 6.27 0 00-1.194 2.09l-6.58 17.204-1.357 3.487a7.205 7.205 0 01-1.737 2.823c-.41.375-.903.65-1.438.8a6.078 6.078 0 01-1.696.23 2.93 2.93 0 01-1.968-.556 2.198 2.198 0 01-.76-1.763 2.13 2.13 0 01.57-1.547 2.036 2.036 0 011.56-.584 2.157 2.157 0 011.466.502 1.723 1.723 0 01.584 1.357 1.94 1.94 0 01-1.086 1.805.59.59 0 00.244 0c1.466 0 2.605-1.045 3.406-3.121l1.357-3.663-7.219-17.504a4.587 4.587 0 00-1.357-1.804 2.47 2.47 0 00-1.356-.435v-.855c1.304.173 2.619.254 3.934.245 1.357 0 3.08-.082 5.224-.245v.855a6.785 6.785 0 00-2.116.231 1.1 1.1 0 00-.652 1.167c.023.681.185 1.35.475 1.967l4.817 11.968 4.45-11.642c.239-.59.385-1.212.435-1.845a1.506 1.506 0 00-.72-1.357 5.17 5.17 0 00-2.292-.556v-.815c1.429.082 2.555.122 3.378.122a28.15 28.15 0 003.053-.095zm1.369 20.475c.35.062.705.09 1.06.082a3.815 3.815 0 004.056-4.139 6.988 6.988 0 00-.475-2.51c-.427-.991-.97-1.93-1.614-2.795a24.53 24.53 0 01-1.981-3.026 5.862 5.862 0 01-.624-2.795 5.332 5.332 0 01.84-2.944 5.672 5.672 0 012.321-2.022 6.88 6.88 0 013.107-.719 7.03 7.03 0 013.5.787 2.823 2.823 0 011.358 2.714c-.016.488-.176.96-.462 1.356a1.64 1.64 0 01-2.985-1.004 4.396 4.396 0 011.127-2.713 3.704 3.704 0 00-2.009-.489 3.297 3.297 0 00-2.51 1.032 3.854 3.854 0 00-.99 2.781 4.07 4.07 0 00.352 1.832c.408.755.86 1.485 1.357 2.184l.72 1.045a24.227 24.227 0 011.79 3.175c.38.855.579 1.779.584 2.714a5.876 5.876 0 01-.95 3.256 6.31 6.31 0 01-2.524 2.24 7.436 7.436 0 01-3.432.813 7.137 7.137 0 01-3.854-.99 3.298 3.298 0 01-1.574-2.985c0-.445.133-.88.38-1.249a1.601 1.601 0 012.551.163c.305.565.442 1.205.394 1.846a11.608 11.608 0 01-.286 2.089c.243.13.504.22.774.271z"/><path d="M75.848 42.619a6.853 6.853 0 011.099 4.233 19.821 19.821 0 01-1.439 7.042 17.639 17.639 0 01-4.07 6.432 8.6 8.6 0 01-6.31 2.632 3.419 3.419 0 01-1.967-.624 3.527 3.527 0 01-1.275-1.71l-1.534 5.306a2.95 2.95 0 00-.162.963 1.533 1.533 0 00.881 1.479 5.78 5.78 0 002.538.448l-.245.84h-.84c-2.334-.08-3.84-.121-4.533-.121-.692 0-2.211 0-4.464.162l.245-.84a3.297 3.297 0 002.09-.53 3.88 3.88 0 001.125-2.008l7.504-26.77a22.618 22.618 0 01-2.809 4.735 41.232 41.232 0 01-3.976 4.287l-.447-.515c1.262-1.235 2.32-2.334 3.161-3.297a25.38 25.38 0 002.524-3.515 36.085 36.085 0 002.51-5.074l.163-.557a13.425 13.425 0 003.582-.57l-4.07 14.614a22.553 22.553 0 013.758-6.459 5.427 5.427 0 013.962-2.008 3.663 3.663 0 012.999 1.425zm-6.649 16.743a22.172 22.172 0 003.107-6.445 23.164 23.164 0 001.194-6.906 5.428 5.428 0 00-.502-2.592 1.533 1.533 0 00-1.357-.882c-.76 0-1.628.597-2.632 1.819a25.154 25.154 0 00-3.026 4.925 49.536 49.536 0 00-2.714 6.784l-1.044 3.65c.229.713.646 1.35 1.207 1.845.492.383 1.1.584 1.724.57a5.681 5.681 0 004.043-2.768zm25.13-3.514h.773l-1.004 2.931a7.097 7.097 0 01-2.049 3.189 4.07 4.07 0 01-2.578.99 2.85 2.85 0 01-1.357-.285 2.212 2.212 0 01-.882-.76 2.714 2.714 0 01-.366-1.357 7.246 7.246 0 01.285-1.886c.19-.692.299-1.14.353-1.356l.733-2.89a21.532 21.532 0 01-3.922 6.526 5.808 5.808 0 01-4.152 2.035 3.256 3.256 0 01-2.808-1.357 5.807 5.807 0 01-.964-3.528c.076-2.515.662-4.99 1.723-7.272a22.037 22.037 0 014.492-6.785 8.046 8.046 0 015.63-2.808 2.237 2.237 0 011.764.8c.523.627.84 1.399.91 2.212l.637-2.496a13.661 13.661 0 003.704-.557l-5.02 17.748-.163.624a3.326 3.326 0 00-.122.855c0 .678.299 1.004.882 1.004 1.18 0 2.212-1.357 3.094-4.07l.407-1.507zm-10.272 4.07a22.311 22.311 0 003.067-4.599 33.748 33.748 0 002.429-6.092l.732-2.85v-.895a4.967 4.967 0 00-.583-2.578 1.818 1.818 0 00-1.628-.95c-1.154 0-2.375.895-3.65 2.714a24.203 24.203 0 00-3.243 6.58 23.338 23.338 0 00-1.357 7.368c-.05.809.075 1.619.366 2.375a1.14 1.14 0 001.045.719 4.18 4.18 0 002.89-1.764l-.068-.027zm13.718 2.226a2.225 2.225 0 100-4.45 2.225 2.225 0 000 4.45z"/></g><defs><clipPath id="clip0"><path fill="#fff" d="M0 0h100v69.765H0z"/></clipPath></defs></svg>