<svg width="125" height="55" fill="none" xmlns="http://www.w3.org/2000/svg"><g clip-path="url(#clip0)" fill="#fff"><path d="M3.037 38.727c.076.745.445 1.43 1.026 1.904a3.695 3.695 0 002.358.708 3.27 3.27 0 002.031-.538 1.672 1.672 0 00.708-1.373c-.003-.408-.16-.8-.438-1.097a2.714 2.714 0 00-1.417-.752l-2.902-.707C1.572 36.226.168 34.725.191 32.37a4.36 4.36 0 01.375-1.933 4.246 4.246 0 011.185-1.48c.532-.43 1.14-.76 1.791-.97a6.942 6.942 0 012.209-.339 6.99 6.99 0 012.321.375 5.9 5.9 0 011.839 1.033c.533.443.978.98 1.314 1.586.34.64.563 1.335.658 2.053H8.806a3.193 3.193 0 00-1.02-1.805 3.143 3.143 0 00-2.08-.652 2.923 2.923 0 00-1.752.496 1.628 1.628 0 00-.714 1.415 1.516 1.516 0 00.51 1.182c.404.345.893.575 1.416.666l2.88.707a6.087 6.087 0 013.24 1.607 4.09 4.09 0 01.992 2.874 4.304 4.304 0 01-.446 1.869 4.508 4.508 0 01-1.182 1.508 5.66 5.66 0 01-1.848 1.005 7.62 7.62 0 01-2.435.319 7.787 7.787 0 01-2.452-.375 6.286 6.286 0 01-1.953-1.04 5.53 5.53 0 01-1.349-1.636A5.203 5.203 0 010 38.713l3.037.014zm25.666 4.933h-3.377l-1.324-3.807h-6.37L16.3 43.66h-3.198l5.854-15.762h3.92l5.827 15.762zm-5.663-6.533l-2.23-6.32-2.194 6.32h4.424zm7.334-9.23h10.78v2.725h-7.651v3.808h7.432v2.676h-7.432v3.83h7.652v2.725H30.374V27.897zm23.953 5.874a3.74 3.74 0 00-6.547-2.123 4.912 4.912 0 00-1.062 3.383v1.465a6.178 6.178 0 00.282 1.96c.164.533.434 1.026.793 1.452.338.39.762.699 1.239.9a4.057 4.057 0 001.6.304 3.677 3.677 0 002.452-.864 3.928 3.928 0 001.246-2.463h3a7.305 7.305 0 01-.707 2.562 6.371 6.371 0 01-1.465 1.94 6.3 6.3 0 01-2.073 1.226c-.8.295-1.646.444-2.499.438a7.59 7.59 0 01-2.88-.53 6.435 6.435 0 01-2.237-1.495 6.853 6.853 0 01-1.437-2.286 8.406 8.406 0 01-.517-2.994v-1.72a8.345 8.345 0 01.517-2.988 6.86 6.86 0 011.458-2.307 6.37 6.37 0 012.236-1.494 7.587 7.587 0 012.885-.53 7.078 7.078 0 012.548.437 6.37 6.37 0 012.053 1.246 6.526 6.526 0 011.416 1.954 7.6 7.6 0 01.707 2.527h-3.008zm5.628-5.874h10.788v2.725h-7.66v3.808h7.433v2.676h-7.432v3.83h7.659v2.725H59.955V27.897zm13.152 7.028a7.906 7.906 0 01.537-2.987c.34-.863.85-1.648 1.501-2.307a6.602 6.602 0 012.294-1.494 8.494 8.494 0 015.918 0c.86.331 1.642.84 2.293 1.494a6.83 6.83 0 011.494 2.307c.373.951.558 1.966.545 2.987v1.685a7.968 7.968 0 01-.547 2.993 6.825 6.825 0 01-1.494 2.322 6.57 6.57 0 01-2.3 1.493 8.494 8.494 0 01-5.918 0 6.606 6.606 0 01-2.293-1.493 6.845 6.845 0 01-1.522-2.287 7.97 7.97 0 01-.538-2.994l.03-1.719zm3.17 1.572c-.011.666.092 1.33.305 1.96a4.35 4.35 0 00.843 1.452c.356.395.8.703 1.295.899.534.21 1.104.314 1.678.305a4.34 4.34 0 001.657-.305 3.475 3.475 0 001.302-.9c.39-.416.69-.91.875-1.45a5.79 5.79 0 00.305-1.961v-1.459a4.742 4.742 0 00-1.132-3.39 4.304 4.304 0 00-5.967 0 4.743 4.743 0 00-1.139 3.39l-.021 1.459zM1.09 48.24a.544.544 0 00.199.375c.133.094.296.14.46.127a.708.708 0 00.374-.098.35.35 0 00.135-.27.29.29 0 00-.092-.212.566.566 0 00-.276-.149l-.566-.135c-.553-.12-.822-.418-.822-.87a.842.842 0 01.088-.383.757.757 0 01.227-.29c.104-.082.223-.144.35-.184a1.333 1.333 0 01.877.007c.132.043.254.11.361.198a.985.985 0 01.255.312.97.97 0 01.128.397h-.58a.587.587 0 00-.197-.35.601.601 0 00-.404-.129.551.551 0 00-.34.093.325.325 0 00-.141.275.311.311 0 00.099.234c.08.061.17.105.268.128l.567.135c.237.037.457.145.63.312a.8.8 0 01.19.56.9.9 0 01-.077.367.92.92 0 01-.234.29c-.107.088-.23.155-.36.198a1.62 1.62 0 01-.469.07 1.417 1.417 0 01-.474-.077 1.084 1.084 0 01-.653-.524.991.991 0 01-.117-.407h.595zm4.432-.106c.005.157-.022.313-.078.46a.97.97 0 01-.22.35c-.1.096-.22.171-.35.22a1.275 1.275 0 01-.876 0 .985.985 0 01-.566-.566 1.366 1.366 0 01-.077-.46v-.241a1.296 1.296 0 01.077-.453 1 1 0 01.22-.35c.101-.096.22-.17.35-.22a1.256 1.256 0 01.876 0 .934.934 0 01.567.567c.056.146.083.303.078.46l-.001.233zm-.567-.206a.707.707 0 00-.135-.438.438.438 0 00-.374-.163.437.437 0 00-.375.163.707.707 0 00-.128.438v.205a.708.708 0 00.128.437.439.439 0 00.375.163.437.437 0 00.374-.163.708.708 0 00.135-.438v-.204zm1.175-1.061h.587v1.416a.503.503 0 00.128.35.446.446 0 00.34.142.467.467 0 00.44-.304.475.475 0 00.028-.188v-1.416h.587v2.336h-.586v-.36a.8.8 0 01-.283.325.788.788 0 01-.404.113.8.8 0 01-.35-.07.764.764 0 01-.248-.206.906.906 0 01-.17-.275 1.07 1.07 0 01-.057-.34l-.012-1.523zm3.228 2.173a.574.574 0 01-.156-.41v-1.253h-.467v-.51h.468v-.673h.588v.673h.612v.51h-.612v1.138a.163.163 0 00.056.135.26.26 0 00.156.042h.404v.515h-.574a.643.643 0 01-.474-.163m3.651.158h-.588v-1.415a.51.51 0 00-.128-.35.496.496 0 00-.707 0 .489.489 0 00-.128.35v1.416H10.9v-3.24h.588v1.285a.829.829 0 01.283-.32.75.75 0 01.41-.12.793.793 0 01.599.26c.072.078.129.17.166.272a.907.907 0 01.064.34v1.522zm4.467 0h-.658l-.263-.743h-1.231l-.263.743h-.622l1.133-3.072h.757l1.147 3.072zm-1.104-1.274l-.432-1.21-.431 1.232.863-.022zm1.182-1.061h.467v-.425a.601.601 0 01.156-.41.645.645 0 01.475-.163h.552v.51h-.438a.15.15 0 00-.112.042.173.173 0 00-.043.135v.312h.594v.51h-.6v1.826h-.588v-1.827h-.463v-.51zm3.27.559a.51.51 0 00-.205.043.53.53 0 00-.17.106.653.653 0 00-.12.175.658.658 0 00-.043.241v1.21h-.588v-2.338h.587v.46a.708.708 0 01.227-.35.552.552 0 01.39-.135h.175v.58l-.253.008zm1.062-.87a.332.332 0 01-.315-.199.32.32 0 01-.025-.127.35.35 0 01.099-.24.334.334 0 01.24-.093.31.31 0 01.235.092.34.34 0 01.091.241.312.312 0 01-.325.326zm.29 2.647h-.588v-2.336h.588v2.336zm1.678.057c-.15 0-.298-.026-.438-.078a.98.98 0 01-.333-.22 1.058 1.058 0 01-.22-.35 1.21 1.21 0 01-.077-.46v-.241a1.148 1.148 0 01.078-.453 1 1 0 01.22-.35.978.978 0 01.332-.22c.14-.052.289-.079.438-.078a.992.992 0 011.04.906h-.566a.538.538 0 00-.163-.282.488.488 0 00-.666.056.707.707 0 00-.128.438v.205a.707.707 0 00.128.438.495.495 0 00.666.064.531.531 0 00.163-.29h.568c-.017.13-.055.257-.113.375a.997.997 0 01-.538.467c-.12.043-.247.064-.375.064m1.358-.713a.594.594 0 01.197-.482.955.955 0 01.574-.205l.637-.05v-.087a.362.362 0 00-.099-.27.432.432 0 00-.297-.098.887.887 0 00-.297.057c-.105.04-.205.093-.298.156l-.248-.438c.267-.196.59-.3.92-.298a.999.999 0 01.368.057.743.743 0 01.283.163.815.815 0 01.175.262.92.92 0 01.064.35v.904a.121.121 0 00.08.13.121.121 0 00.055.004h.12v.51h-.283a.51.51 0 01-.311-.092.446.446 0 01-.184-.269.772.772 0 01-.666.383.941.941 0 01-.318-.057.708.708 0 01-.42-.373.613.613 0 01-.057-.283l.005.026zm.562-.026a.226.226 0 00.099.191.425.425 0 00.262.078.53.53 0 00.34-.127.64.64 0 00.106-.135.426.426 0 00.035-.17v-.135l-.552.043c-.191 0-.29.106-.29.255zm4.322.69h-.586v-1.416a.51.51 0 00-.128-.35.439.439 0 00-.34-.135.46.46 0 00-.34.135.489.489 0 00-.128.35v1.416h-.588v-2.335h.587v.382a.842.842 0 01.29-.318c.12-.08.26-.122.404-.12a.751.751 0 01.34.07.782.782 0 01.433.46c.037.11.056.224.056.34v1.521zm1.782-3.072h2.096v.531h-1.489v.744h1.443v.525h-1.44v.743h1.488v.531h-2.098V46.13zm4.835 3.072h-.587v-1.416a.51.51 0 00-.128-.35.432.432 0 00-.333-.135.438.438 0 00-.34.135.47.47 0 00-.134.35v1.416h-.587v-2.335h.588v.382a.841.841 0 01.29-.318.706.706 0 01.403-.12.752.752 0 01.34.07c.1.04.19.104.263.184a.87.87 0 01.226.613v1.524zm1.126-.162a.573.573 0 01-.156-.41v-1.253h-.473v-.51h.474v-.673h.585v.673h.645v.51h-.613v1.138a.142.142 0 00.057.135.24.24 0 00.156.043h.403v.514h-.58a.637.637 0 01-.468-.163m2.631-1.618a.51.51 0 00-.205.043.53.53 0 00-.17.106.526.526 0 00-.12.175.658.658 0 00-.043.241v1.21h-.587v-2.338h.587v.46a.708.708 0 01.227-.35.552.552 0 01.39-.135h.175v.58l-.254.008zm.573.496a1.147 1.147 0 01.078-.453c.048-.13.12-.248.213-.35.097-.098.213-.175.34-.227.138-.052.284-.078.432-.078a.935.935 0 01.403.088c.12.05.228.127.312.227.091.1.158.22.198.35.052.143.079.294.078.446v.312H41.66a.595.595 0 00.156.39.51.51 0 00.374.134.764.764 0 00.545-.234l.35.35c-.11.12-.242.22-.39.29a1.337 1.337 0 01-.53.1 1.075 1.075 0 01-.438-.079.97.97 0 01-.57-.577 1.294 1.294 0 01-.078-.452l.011-.237zm1.49-.142a.53.53 0 00-.107-.35.425.425 0 00-.312-.12.431.431 0 00-.318.12.538.538 0 00-.142.34l.878.01zm1.739-.913v.298a.77.77 0 01.283-.263.856.856 0 01.39-.092.97.97 0 01.382.078.927.927 0 01.503.56c.05.143.074.294.07.445v.292c.004.149-.02.297-.07.438a1 1 0 01-.198.34.836.836 0 01-.305.22.971.971 0 01-.382.077.763.763 0 01-.383-.092.815.815 0 01-.29-.248v1.253h-.588v-3.306h.588zm0 1.366c.006.14.061.272.156.375a.49.49 0 00.368.135.467.467 0 00.39-.163.651.651 0 00.134-.438v-.213a.651.651 0 00-.135-.438.467.467 0 00-.39-.163.489.489 0 00-.367.135.588.588 0 00-.156.375v.395zm3.355-.806a.58.58 0 00-.375.148.508.508 0 00-.113.176.657.657 0 00-.042.24v1.21h-.588v-2.337h.58v.46a.764.764 0 01.227-.351.566.566 0 01.39-.135h.184v.58l-.263.009zm.573.495a1.297 1.297 0 01.078-.453.99.99 0 01.553-.577 1.24 1.24 0 01.437-.078c.138 0 .273.03.397.088a.771.771 0 01.312.227c.093.1.163.22.205.35.05.143.074.294.07.446v.312h-1.457a.595.595 0 00.156.39.51.51 0 00.374.134.752.752 0 00.545-.234l.34.326c-.11.122-.242.22-.39.29a1.33 1.33 0 01-.525.099 1.14 1.14 0 01-.446-.078.87.87 0 01-.34-.227.985.985 0 01-.227-.35 1.296 1.296 0 01-.078-.453l-.004-.212zm1.494-.142a.538.538 0 00-.142-.34.42.42 0 00-.312-.12.446.446 0 00-.318.12.581.581 0 00-.142.34h.914zm3.257 1.422h-.613v-1.416a.51.51 0 00-.128-.35.496.496 0 00-.708 0 .49.49 0 00-.127.35v1.416h-.59v-2.335h.587v.382a.788.788 0 01.29-.318.706.706 0 01.403-.12.836.836 0 01.602.255c.073.08.13.174.17.275.038.11.057.224.057.34l.056 1.521zm.601-1.28a1.297 1.297 0 01.078-.453c.052-.128.126-.247.22-.35a.99.99 0 01.332-.227 1.24 1.24 0 01.438-.078.97.97 0 01.716.315c.088.102.155.221.197.35.05.143.074.294.071.446v.312H54.18a.56.56 0 00.156.39.498.498 0 00.375.134.752.752 0 00.538-.234l.35.35c-.11.122-.242.22-.39.29a1.3 1.3 0 01-.525.1 1.136 1.136 0 01-.446-.079.87.87 0 01-.34-.226.884.884 0 01-.22-.35 1.145 1.145 0 01-.087-.453l.009-.237zm1.494-.142a.574.574 0 00-.135-.34.432.432 0 00-.319-.12.425.425 0 00-.312.12.58.58 0 00-.149.34h.915zm1.147-.913h.587v1.416a.483.483 0 10.963 0v-1.416h.588v2.336h-.613v-.36a.8.8 0 01-.283.325.788.788 0 01-.404.113.75.75 0 01-.34-.07.791.791 0 01-.268-.184.771.771 0 01-.163-.276.907.907 0 01-.064-.34l-.004-1.544zm3.932.56a.58.58 0 00-.375.148.51.51 0 00-.113.176.664.664 0 00-.05.24v1.21h-.592v-2.337h.588v.46a.764.764 0 01.226-.351.566.566 0 01.39-.135h.184v.58l-.258.009zm1.686 1.825a1.197 1.197 0 01-.396-.056.955.955 0 01-.32-.156.871.871 0 01-.233-.248c-.06-.1-.1-.21-.12-.326h.552a.403.403 0 00.17.24.588.588 0 00.35.093.382.382 0 00.234-.064.206.206 0 00.087-.175.156.156 0 00-.057-.128.326.326 0 00-.17-.088l-.481-.113c-.432-.099-.645-.325-.645-.707a.708.708 0 01.24-.532.863.863 0 01.275-.149 1.05 1.05 0 01.35-.057c.128 0 .254.02.375.057.112.037.218.092.312.163.086.073.16.16.22.255a.99.99 0 01.113.326h-.567a.418.418 0 00-.163-.248.446.446 0 00-.29-.092.319.319 0 00-.212.064.199.199 0 00-.078.163c0 .113.092.191.276.234l.445.106a.7.7 0 01.638.707.623.623 0 01-.071.305.802.802 0 01-.468.382 1.207 1.207 0 01-.36.05m3.563-.056h-.588v-1.415a.51.51 0 00-.128-.35.496.496 0 00-.707 0 .49.49 0 00-.127.35v1.416h-.588v-3.24h.588v1.285a.772.772 0 01.694-.439.835.835 0 01.603.255c.072.08.127.173.162.276a.905.905 0 01.064.34l.027 1.522zm.999-2.646a.311.311 0 01-.234-.092.299.299 0 01-.099-.234.318.318 0 01.099-.24.31.31 0 01.234-.092.32.32 0 01.24.091.34.34 0 01.093.241.31.31 0 01-.203.306.32.32 0 01-.13.02zm.297 2.647h-.587v-2.336h.588v2.336zm1.296-2.336v.298a.792.792 0 01.707-.35c.132 0 .262.026.383.077a.9.9 0 01.297.22c.09.099.16.214.205.34.047.144.07.294.071.446v.288c0 .148-.024.296-.07.438a1.011 1.011 0 01-.206.34.813.813 0 01-.296.219.997.997 0 01-.383.078.764.764 0 01-.382-.092.835.835 0 01-.298-.248v1.253h-.588v-3.307h.56zm0 1.366c.008.14.066.273.162.375a.481.481 0 00.368.135.467.467 0 00.39-.163.652.652 0 00.135-.438v-.213a.652.652 0 00-.135-.438.468.468 0 00-.39-.163.483.483 0 00-.368.135.595.595 0 00-.162.375v.395zM2.676 52.537a.771.771 0 00-.248-.482.708.708 0 00-.474-.163.708.708 0 00-.553.234.942.942 0 00-.213.659v.304c-.004.13.016.26.057.383.03.105.083.202.156.283a.613.613 0 00.241.175c.1.038.205.057.312.057a.708.708 0 00.474-.19.758.758 0 00.248-.483h.588a1.298 1.298 0 01-.142.503c-.07.142-.166.269-.283.375a1.145 1.145 0 01-.404.24 1.466 1.466 0 01-1.048-.018 1.132 1.132 0 01-.432-.29 1.268 1.268 0 01-.282-.444 1.576 1.576 0 01-.1-.587v-.326c.007-.2.053-.398.136-.58a1.286 1.286 0 01.707-.743 1.466 1.466 0 011.062-.014c.131.06.25.145.35.248.12.107.216.237.283.383.076.152.122.318.135.488l-.57-.012zm1.054.643a1.324 1.324 0 01.072-.452c.05-.13.124-.25.22-.35a.9.9 0 01.332-.227c.139-.06.288-.089.438-.088a.935.935 0 01.404.088c.119.052.225.13.311.226.089.103.156.222.198.35.05.144.074.295.071.446v.312H4.304a.56.56 0 00.156.39.497.497 0 00.375.135.707.707 0 00.538-.213l.36.35c-.108.122-.24.221-.39.29a1.24 1.24 0 01-.53.071 1.14 1.14 0 01-.443-.082.934.934 0 01-.56-.573 1.146 1.146 0 01-.078-.453l-.001-.22zm1.49-.141a.53.53 0 00-.135-.34.43.43 0 00-.32-.12.425.425 0 00-.311.12.58.58 0 00-.149.34h.914zm3.275 1.423h-.588v-1.373a.482.482 0 00-.278-.449.417.417 0 00-.183-.033.438.438 0 00-.34.135.467.467 0 00-.134.35v1.416h-.6v-2.375h.587v.375a.843.843 0 01.288-.316c.12-.08.26-.122.403-.12.117 0 .233.024.34.071a.871.871 0 01.263.184c.073.08.13.174.17.276.038.113.057.23.057.35l.015 1.509zm1.103-.162a.58.58 0 01-.163-.41v-1.254H8.97v-.51h.464v-.707h.588v.707h.594v.51h-.623v1.161a.162.162 0 00.057.135.278.278 0 00.163.043h.404v.51h-.58a.637.637 0 01-.468-.163m2.69-1.636a.51.51 0 00-.205.042.445.445 0 00-.17.113.459.459 0 00-.12.175.637.637 0 00-.042.24v1.203h-.588v-2.326h.586v.453a.743.743 0 01.227-.35.587.587 0 01.39-.128h.175v.573l-.253.005zm.575.494a1.175 1.175 0 01.078-.452.956.956 0 01.552-.577 1.07 1.07 0 01.432-.088.935.935 0 01.404.088.927.927 0 01.51.577c.051.142.078.293.077.445v.312h-1.48a.594.594 0 00.156.39.512.512 0 00.375.135.763.763 0 00.545-.234l.35.35a1.198 1.198 0 01-.39.29 1.227 1.227 0 01-.53.099c-.16.01-.32-.017-.468-.078a1.032 1.032 0 01-.35-.22.998.998 0 01-.22-.35 1.295 1.295 0 01-.078-.453l.037-.234zm1.488-.141a.53.53 0 00-.134-.34.424.424 0 00-.312-.12.431.431 0 00-.319.12.538.538 0 00-.142.34h.907zm2.221 1.423V51.39h2.102v.53h-1.493v.744h1.444v.526h-1.444v1.274l-.609-.002zm4.694-1.044c0 .154-.026.308-.078.453a.927.927 0 01-.227.35.905.905 0 01-.34.22 1.138 1.138 0 01-.446.078 1.07 1.07 0 01-.431-.078.935.935 0 01-.35-.22c-.099-.1-.176-.22-.227-.35a1.326 1.326 0 01-.078-.453v-.248a1.296 1.296 0 01.078-.453.985.985 0 01.226-.35.955.955 0 01.34-.227c.286-.104.599-.104.885 0 .125.052.24.127.34.22.098.1.175.22.226.35.053.148.08.303.078.46l.004.248zm-.581-.234a.707.707 0 00-.128-.438.482.482 0 00-.383-.163.468.468 0 00-.374.163.707.707 0 00-.128.438v.213a.708.708 0 00.128.446.466.466 0 00.374.162.48.48 0 00.383-.162.708.708 0 00.128-.446v-.213zm2.321-.498a.51.51 0 00-.205.043.502.502 0 00-.283.29.526.526 0 00-.05.24v1.2h-.587v-2.326h.587v.453a.8.8 0 01.213-.35.587.587 0 01.39-.128h.175v.573l-.24.005zm1.833-1.296h2.101v.53h-1.493v.744h1.45v.526h-1.45v.74h1.494v.53H24.81v-3.07zm3.257 1.897l-.85-1.16h.673l.502.728.51-.729h.651l-.856 1.154.876 1.182h-.671l-.53-.75-.517.75h-.652l.864-1.175zm3.306-.397h-1.53v.517h1.53v-.516zm.615-.126a1.663 1.663 0 01.1-.581 1.324 1.324 0 01.743-.743c.182-.072.377-.108.573-.106a1.55 1.55 0 01.58.106c.167.067.319.165.447.29.124.131.223.285.29.453.073.185.109.382.106.58v.326a1.51 1.51 0 01-.106.58 1.345 1.345 0 01-.29.454 1.244 1.244 0 01-.446.29 1.543 1.543 0 01-.58.105 1.5 1.5 0 01-.574-.105c-.17-.06-.323-.16-.446-.29a1.26 1.26 0 01-.298-.453 1.663 1.663 0 01-.099-.58v-.326zm.613.304c0 .13.019.26.057.383a.88.88 0 00.17.283.637.637 0 00.248.175c.21.076.44.076.651 0a.708.708 0 00.418-.458 1.08 1.08 0 00.064-.382v-.283a.92.92 0 00-.227-.658.836.836 0 00-1.16 0 .914.914 0 00-.22.658v.282zm2.635-.935h.468v-.46a.546.546 0 01.372-.538.613.613 0 01.251-.035h.56v.573h-.438a.15.15 0 00-.113.043.19.19 0 00-.043.135v.319h.595v.503h-.595v1.825h-.587v-1.862h-.47v-.503zm1.926 0h.468v-.46a.553.553 0 01.163-.403.6.6 0 01.467-.17h.56v.574h-.438a.17.17 0 00-.12.043.19.19 0 00-.043.134v.32h.602v.502h-.595v1.825h-.587v-1.862h-.477v-.503zm1.912 1.047c0-.154.026-.307.078-.452a.885.885 0 01.22-.35.901.901 0 01.333-.227c.138-.06.287-.09.438-.088.137 0 .272.03.396.088a.9.9 0 01.312.226c.09.103.16.222.205.35.047.145.07.295.071.446v.312h-1.489a.595.595 0 00.156.39.508.508 0 00.375.135.75.75 0 00.545-.234l.35.35a1.198 1.198 0 01-.39.29 1.217 1.217 0 01-.525.099 1.14 1.14 0 01-.446-.078.942.942 0 01-.34-.22 1.009 1.009 0 01-.226-.35 1.295 1.295 0 01-.078-.453l.015-.234zm1.494-.141a.538.538 0 00-.142-.34.425.425 0 00-.311-.12.431.431 0 00-.319.12.538.538 0 00-.142.34h.914zm3.254 1.423h-.587v-1.373a.481.481 0 00-.281-.45.419.419 0 00-.187-.032.438.438 0 00-.34.135.489.489 0 00-.127.35v1.416h-.587v-2.375h.587v.375a.771.771 0 01.694-.439.912.912 0 01.339.071.967.967 0 01.263.184c.073.08.128.174.163.276a.92.92 0 01.063.35v1.512zm2.238 0v-.305a.855.855 0 01-.282.269.799.799 0 01-.397.092.907.907 0 01-.708-.29 1.173 1.173 0 01-.205-.34 1.473 1.473 0 01-.07-.446v-.29c0-.15.024-.301.07-.445a.984.984 0 01.503-.56.998.998 0 01.383-.078c.135 0 .268.032.39.092a.765.765 0 01.29.255V51.22h.587v3.24l-.56.002zm0-1.274a.665.665 0 00-.135-.438.502.502 0 00-.396-.163.489.489 0 00-.39.163.665.665 0 00-.135.438v.212a.711.711 0 00.135.446.487.487 0 00.39.163.502.502 0 00.396-.163.707.707 0 00.135-.446v-.212zm1.197-.008a1.175 1.175 0 01.078-.452.956.956 0 01.552-.577 1.05 1.05 0 01.836 0 .92.92 0 01.312.226c.088.103.155.222.197.35.053.144.079.294.078.446v.312h-1.48a.56.56 0 00.156.39.497.497 0 00.375.135.763.763 0 00.545-.234l.35.35a1.198 1.198 0 01-.39.29 1.227 1.227 0 01-.53.099 1.138 1.138 0 01-.446-.078.934.934 0 01-.56-.573 1.148 1.148 0 01-.078-.453l.005-.23zm1.489-.141a.53.53 0 00-.135-.34.43.43 0 00-.319-.12.425.425 0 00-.312.12.581.581 0 00-.149.34h.915zm2.269-.353a.529.529 0 00-.488.333.631.631 0 00-.05.24v1.2h-.587v-2.326h.587v.453a.8.8 0 01.227-.35.602.602 0 01.39-.128h.184v.573l-.263.005zm1.678 1.819a1.416 1.416 0 01-.396-.05.968.968 0 01-.32-.163.87.87 0 01-.353-.574h.553c.025.1.085.188.17.248a.645.645 0 00.35.088.382.382 0 00.233-.064.204.204 0 00.088-.17.169.169 0 00-.057-.135.475.475 0 00-.17-.088l-.481-.113c-.432-.099-.645-.325-.645-.707a.706.706 0 01.24-.539.863.863 0 01.275-.149c.113-.038.231-.057.35-.056.253-.001.5.076.708.22.086.072.16.158.22.254a.993.993 0 01.113.326h-.56a.46.46 0 00-.46-.34.319.319 0 00-.212.064.212.212 0 00-.078.163c0 .113.092.19.275.24l.446.1c.425.106.638.325.638.707a.622.622 0 01-.071.305.815.815 0 01-.184.234.828.828 0 01-.283.149 1.2 1.2 0 01-.36.05m56.131-12.322c-7.078-10.972-5.663-22.927-3.632-34.982.22.53.418 1.076.666 1.593 2.321 4.87 5.146 5.932 9.91 3.306 3.051-1.678 5.84-3.837 9.202-6.081-8.735 10.844-17.753 21.104-16.153 36.166"/><path d="M115.204 7.489a3.24 3.24 0 01-4.291.708 2.015 2.015 0 01-.425-.383c-1.535-1.819-.41-5.797 1.784-7.192 1.465-.928 2.831-.92 3.866.707 1.034 1.628.707 4.135-.935 6.151m-7.334 32.38c-.141-13.048-7.892-22.248-16.21-31.21.106.567.241 1.126.32 1.7.743 5.336-1.034 7.786-6.463 8.21-3.469.276-6.987 0-11.029 0 13.258 4.248 26.438 7.865 33.382 21.314"/><path d="M83.484 14.383a3.256 3.256 0 003.972-1.77c.072-.177.122-.362.148-.552.276-2.364-2.83-5.069-5.443-5.026-1.742 0-2.83.788-2.83 2.725 0 1.938 1.663 3.854 4.161 4.622m33 24.549a25.785 25.785 0 01-7.574 4.53 14.414 14.414 0 01-11.75-1.083 38.06 38.06 0 01-6.605-4.43 1.275 1.275 0 010-1.976 1.12 1.12 0 01.964-.07c1.903.892 3.751 1.903 5.663 2.739a16.062 16.062 0 008.144 1.508 10.952 10.952 0 007.383-3.95c1.416-1.642 2.569-3.441 3.857-5.161a8.99 8.99 0 013.625-3.178 2.511 2.511 0 012.732.135 2.536 2.536 0 01.707 2.768 8.104 8.104 0 01-2.496 3.869c-1.515 1.472-3.108 2.846-4.651 4.304"/></g><defs><clipPath id="clip0"><path fill="#fff" d="M0 0h125v54.52H0z"/></clipPath></defs></svg>