<svg width="38" height="40" fill="none" xmlns="http://www.w3.org/2000/svg"><path d="M37.46 24.74c-.388-.6-.94-1.2-1.655-1.58-.573-.28-.94-.74-1.267-1.28-1.043-1.72-.43-3.98 1.308-5a4.054 4.054 0 001.512-5.66l-1.37-2.36a4.225 4.225 0 00-5.743-1.52c-1.798.96-4.108.32-5.15-1.38-.327-.56-.511-1.16-.47-1.76.06-.78-.184-1.52-.552-2.12C23.316.84 21.947 0 20.434 0h-2.882a4.39 4.39 0 00-3.617 2.08 3.57 3.57 0 00-.572 2.12c.04.6-.144 1.2-.47 1.76-1.043 1.7-3.353 2.34-5.13 1.38a4.249 4.249 0 00-5.765 1.52l-1.37 2.36a4.088 4.088 0 001.513 5.66c1.738 1.02 2.35 3.28 1.329 5-.348.54-.715 1-1.288 1.28-.695.38-1.308.98-1.635 1.58-.756 1.24-.715 2.8.041 4.1l1.41 2.4a4.267 4.267 0 003.639 2.08c.694 0 1.512-.2 2.166-.6.511-.34 1.124-.46 1.799-.46 2.023 0 3.72 1.66 3.76 3.64 0 2.3 1.88 4.1 4.252 4.1h2.78c2.35 0 4.23-1.8 4.23-4.1.062-1.98 1.758-3.64 3.782-3.64.654 0 1.267.12 1.798.46.654.4 1.451.6 2.167.6 1.451 0 2.861-.8 3.618-2.08l1.43-2.4c.736-1.34.798-2.86.041-4.1z" fill="#3F408C"/><path d="M19.024 25.66c-3.209 0-5.804-2.5-5.804-5.64 0-3.14 2.595-5.66 5.804-5.66 3.21 0 5.744 2.52 5.744 5.66s-2.535 5.64-5.744 5.64z" fill="#2DDD9D"/></svg>