<svg width="40" height="40" viewBox="0 0 40 40" fill="none" xmlns="http://www.w3.org/2000/svg">
<path d="M29.3511 0H10.6667C3.85778 0 0 3.85778 0 10.6667V29.3333C0 36.1422 3.85778 40 10.6667 40H29.3511C36.16 40 40 36.1422 40 29.3333V10.6667C40 3.85778 36.16 0 29.3511 0Z" fill="#2DDD9D"/>
<path d="M10.7393 14.7383C9.8326 14.7383 9.08594 15.4849 9.08594 16.4094V30.1516C9.08594 31.0583 9.8326 31.805 10.7393 31.805C11.6637 31.805 12.4104 31.0583 12.4104 30.1516V16.4094C12.4104 15.4849 11.6637 14.7383 10.7393 14.7383Z" fill="#3F408C"/>
<path d="M20.0713 8.17773C19.1646 8.17773 18.418 8.9244 18.418 9.84885V30.1511C18.418 31.0577 19.1646 31.8044 20.0713 31.8044C20.9958 31.8044 21.7424 31.0577 21.7424 30.1511V9.84885C21.7424 8.9244 20.9958 8.17773 20.0713 8.17773Z" fill="#3F408C"/>
<path d="M29.2805 21.9922C28.356 21.9922 27.6094 22.7389 27.6094 23.6633V30.1522C27.6094 31.0589 28.356 31.8055 29.2627 31.8055C30.1872 31.8055 30.9338 31.0589 30.9338 30.1522V23.6633C30.9338 22.7389 30.1872 21.9922 29.2805 21.9922Z" fill="#3F408C"/>
</svg>
