<svg width="40" height="40" viewBox="0 0 40 40" fill="none" xmlns="http://www.w3.org/2000/svg">
<path d="M40 28.168V11.832C40 4.754 35.448 0 28.67 0H11.33C4.552 0 0 4.754 0 11.832V28.168C0 35.244 4.554 40 11.332 40H28.67C35.448 40 40 35.244 40 28.168" fill="#2DDD9D"/>
<path d="M28.5593 18.2881L21.0633 10.7581C20.4993 10.1921 19.5013 10.1921 18.9353 10.7581L11.4393 18.2881C10.8553 18.8761 10.8573 19.8261 11.4453 20.4101C12.0333 20.9941 12.9813 20.9941 13.5673 20.4061L18.5013 15.4521V28.1621C18.5013 28.9921 19.1733 29.6621 20.0013 29.6621C20.8293 29.6621 21.5013 28.9921 21.5013 28.1621V15.4521L26.4333 20.4061C26.7273 20.7001 27.1113 20.8461 27.4973 20.8461C27.8793 20.8461 28.2633 20.7001 28.5553 20.4101C29.1413 19.8261 29.1433 18.8761 28.5593 18.2881" fill="#3F408C"/>
</svg>
