<svg width="38" height="40" viewBox="0 0 38 40" fill="none" xmlns="http://www.w3.org/2000/svg">
<path d="M37.4603 24.74C37.0719 24.14 36.5201 23.54 35.8047 23.16C35.2324 22.88 34.8645 22.42 34.5375 21.88C33.4951 20.16 34.1082 17.9 35.8456 16.88C37.8895 15.74 38.5435 13.2 37.3581 11.22L35.9886 8.86C34.8236 6.88 32.2687 6.18 30.2452 7.34C28.4466 8.3 26.137 7.66 25.0946 5.96C24.7676 5.4 24.5836 4.8 24.6245 4.2C24.6858 3.42 24.4405 2.68 24.0726 2.08C23.3164 0.84 21.9469 0 20.4345 0H17.5525C16.0605 0.04 14.6911 0.84 13.9348 2.08C13.5465 2.68 13.3216 3.42 13.3625 4.2C13.4034 4.8 13.2194 5.4 12.8924 5.96C11.85 7.66 9.54039 8.3 7.76218 7.34C5.71827 6.18 3.18381 6.88 1.99834 8.86L0.628918 11.22C-0.536114 13.2 0.117939 15.74 2.14141 16.88C3.87874 17.9 4.49192 20.16 3.46996 21.88C3.12249 22.42 2.75459 22.88 2.18229 23.16C1.48736 23.54 0.874188 24.14 0.547161 24.74C-0.209087 25.98 -0.168209 27.54 0.58804 28.84L1.99834 31.24C2.75459 32.52 4.16489 33.32 5.63651 33.32C6.33144 33.32 7.14901 33.12 7.80306 32.72C8.31404 32.38 8.92721 32.26 9.6017 32.26C11.6252 32.26 13.3216 33.92 13.3625 35.9C13.3625 38.2 15.2429 40 17.6138 40H20.3936C22.7441 40 24.6245 38.2 24.6245 35.9C24.6858 33.92 26.3822 32.26 28.4057 32.26C29.0598 32.26 29.6729 32.38 30.2044 32.72C30.8584 33.12 31.6555 33.32 32.3709 33.32C33.8221 33.32 35.2324 32.52 35.9886 31.24L37.4194 28.84C38.1552 27.5 38.2165 25.98 37.4603 24.74Z" fill="#3F408C"/>
<path d="M19.0235 25.6594C15.8145 25.6594 13.2188 23.1594 13.2188 20.0194C13.2188 16.8794 15.8145 14.3594 19.0235 14.3594C22.2324 14.3594 24.7669 16.8794 24.7669 20.0194C24.7669 23.1594 22.2324 25.6594 19.0235 25.6594Z" fill="#2DDD9D"/>
</svg>
