<svg width="40" height="36" viewBox="0 0 40 36" fill="none" xmlns="http://www.w3.org/2000/svg">
<path fill-rule="evenodd" clip-rule="evenodd" d="M39.9929 10.7503H31.5236C27.5822 10.7572 24.3893 13.8703 24.3822 17.7131C24.3769 21.5646 27.5733 24.6916 31.5236 24.6968H40V25.3087C40 32.0272 35.9271 36 29.0347 36H10.9671C4.07289 36 0 32.0272 0 25.3087V10.6757C0 3.95724 4.07289 0 10.9671 0H29.0276C35.92 0 39.9929 3.95724 39.9929 10.6757V10.7503ZM9.47912 10.7347H20.7591H20.7662H20.7805C21.6249 10.7312 22.3076 10.0604 22.304 9.23531C22.3005 8.41197 21.6107 7.74636 20.7662 7.74982H9.47912C8.64001 7.75329 7.95912 8.41717 7.95557 9.23704C7.95201 10.0604 8.63468 10.7312 9.47912 10.7347Z" fill="#3F408C"/>
<path d="M28.0748 18.5941C28.4931 20.4965 30.161 21.8349 32.0652 21.8001H38.565C39.3573 21.8001 40 21.1439 40 20.3329V15.2698C39.9983 14.4604 39.3573 13.8025 38.565 13.8008H31.9122C29.7461 13.8077 27.9966 15.6057 28 17.8213C28 18.0807 28.0255 18.34 28.0748 18.5941Z" fill="#2DDD9D"/>
<circle cx="32" cy="17.8008" r="2" fill="#3F408C"/>
</svg>
