<svg width="40" height="40" viewBox="0 0 40 40" fill="none" xmlns="http://www.w3.org/2000/svg">
<path d="M28.68 0H11.34C4.56 0 0 4.76 0 11.84V28.18C0 35.24 4.56 40 11.34 40H28.68C35.46 40 40 35.24 40 28.18V11.84C40 4.76 35.46 0 28.68 0" fill="#2DDD9D"/>
<path d="M21.7546 13.4736V18.3122C23.0287 18.6825 24.3668 19.1498 25.4017 19.9585C26.5017 20.8181 27.25 22.0561 27.25 23.924C27.25 25.3053 26.8409 26.6638 25.9081 27.7146C25.0094 28.727 23.6449 29.4307 21.7545 29.6083V31.0747C21.7545 31.7082 21.2668 32.2451 20.6357 32.2488C19.9968 32.2786 19.4766 31.7593 19.4482 31.1176L19.4477 31.1065H19.4478L19.4471 31.0952C19.4468 31.0899 19.4465 31.0828 19.4465 31.0747V29.6463C17.4788 29.5212 15.609 28.6948 14.1435 27.3018L14.1381 27.2967L14.1331 27.2912C13.885 27.0257 13.7489 26.6707 13.7501 26.3035C13.7501 26.3028 13.7501 26.3021 13.7501 26.3014L14.0001 26.3025C13.9915 25.6026 14.5009 25.0178 15.1624 24.9694L21.7546 13.4736ZM21.7546 13.4736C22.6835 13.6861 23.5584 14.1128 24.3177 14.7257L24.3175 14.726L24.3281 14.7336C24.5427 14.889 24.7962 14.9743 25.0595 14.978V14.9781H25.0631C25.888 14.9781 26.5386 14.2811 26.547 13.4429L26.547 13.4415C26.5487 13.0736 26.4126 12.7177 26.1641 12.4517L26.1569 12.4439L26.149 12.4369C24.9092 11.3159 23.3667 10.6321 21.7402 10.4818M21.7546 13.4736L21.7402 10.4818M20.5863 7.7501C19.946 7.74151 19.4412 8.27805 19.4323 8.92229L19.4322 8.92229V8.92575V10.4242C16.2264 10.7561 14.0085 12.9121 14.0085 15.8037C14.0085 17.6059 14.7412 18.7771 15.8255 19.5852C16.8428 20.3433 18.1637 20.7768 19.4322 21.143V26.7205L20.5848 8.0001M20.5863 7.7501C20.5871 7.75011 20.5879 7.75012 20.5887 7.75013L20.5848 8.0001M20.5863 7.7501C20.5857 7.7501 20.5852 7.7501 20.5848 7.7501V8.0001M20.5863 7.7501C20.5864 7.7501 20.5864 7.7501 20.5865 7.7501C20.5932 7.75007 20.6093 7.75002 20.629 7.75169M20.5848 8.0001C20.5948 8.0001 20.6049 8.0001 20.6149 8.0016M20.629 7.75169C20.6243 7.75163 20.6196 7.7516 20.6149 7.7516V8.0016M20.629 7.75169C21.2564 7.75957 21.7402 8.29478 21.7402 8.92575V10.4818M20.629 7.75169C20.6362 7.75231 20.644 7.75317 20.6519 7.75435L20.6149 8.0016M20.6149 8.0016L21.7402 10.4818M21.7546 26.7525V21.8702C22.4197 22.0871 22.9834 22.3365 23.3946 22.6726C23.8562 23.0501 24.1307 23.5402 24.1243 24.255V24.2573C24.1243 24.7803 23.9548 25.3485 23.5473 25.8164C23.1807 26.2372 22.608 26.5922 21.7546 26.7525ZM19.4466 13.3415V17.6741C18.8039 17.4649 18.2623 17.25 17.8647 16.9627C17.42 16.6413 17.163 16.2353 17.163 15.6219C17.163 14.9875 17.4098 14.4483 17.8445 14.0486C18.2312 13.693 18.7761 13.44 19.4466 13.3415Z" fill="#3F408C" stroke="#3F408C" stroke-width="0.5"/>
</svg>
