<svg width="40" height="40" viewBox="0 0 40 40" fill="none" xmlns="http://www.w3.org/2000/svg">
<path d="M28.1513 0H34.9232C37.7277 0 40.0002 2.2917 40.0002 5.11993V11.949C40.0002 14.7773 37.7277 17.069 34.9232 17.069H28.1513C25.3467 17.069 23.0742 14.7773 23.0742 11.949V5.11993C23.0742 2.2917 25.3467 0 28.1513 0Z" fill="#2DDD9D"/>
<path fill-rule="evenodd" clip-rule="evenodd" d="M5.07705 0H11.849C14.6535 0 16.926 2.2917 16.926 5.11993V11.949C16.926 14.7773 14.6535 17.069 11.849 17.069H5.07705C2.27251 17.069 0 14.7773 0 11.949V5.11993C0 2.2917 2.27251 0 5.07705 0ZM5.07705 22.931H11.849C14.6535 22.931 16.926 25.2227 16.926 28.051V34.8801C16.926 37.7064 14.6535 40 11.849 40H5.07705C2.27251 40 0 37.7064 0 34.8801V28.051C0 25.2227 2.27251 22.931 5.07705 22.931ZM34.923 22.931H28.151C25.3465 22.931 23.074 25.2227 23.074 28.051V34.8801C23.074 37.7064 25.3465 40 28.151 40H34.923C37.7275 40 40 37.7064 40 34.8801V28.051C40 25.2227 37.7275 22.931 34.923 22.931Z" fill="#3F408C"/>
</svg>
