<svg width="40" height="40" viewBox="0 0 40 40" fill="none" xmlns="http://www.w3.org/2000/svg">
<path d="M16.3055 32.8893C16.4074 32.682 16.4746 32.4599 16.5048 32.2317L17.0616 23.9519L17.3381 19.7902C17.3409 19.3622 17.4081 18.937 17.5373 18.5283C17.8712 17.7353 18.6743 17.2312 19.5481 17.2664L32.8627 18.1373C33.4392 18.1468 33.996 17.9311 34.4105 17.5378C34.7559 17.21 34.9789 16.7812 35.0491 16.32L35.0727 16.04C34.5217 8.41057 28.9183 2.04705 21.3047 0.404377C13.6911 -1.2383 5.88373 2.23177 2.12142 8.93057C1.03677 10.8767 0.359301 13.0159 0.128764 15.2224C0.0324572 15.8756 -0.00994903 16.5354 0.00195845 17.1953C-0.0099319 25.3749 5.81494 32.4465 13.9687 34.1512C14.95 34.304 15.9121 33.7845 16.3055 32.8893Z" fill="#3F408C"/>
<path d="M21.7411 39.9984C30.8609 39.7663 38.5257 33.2084 40.0011 24.3754L39.987 24.3102L39.9468 24.2155L39.9524 23.9553C39.9315 23.6106 39.7984 23.2789 39.569 23.011C39.3301 22.732 39.0037 22.5419 38.6443 22.4682L38.4251 22.4381L23.0635 21.4428C22.5526 21.3924 22.0438 21.5572 21.6638 21.8961C21.3471 22.1785 21.1447 22.5598 21.0875 22.9706L20.0564 38.3099C20.0385 38.3617 20.0385 38.418 20.0564 38.4698C20.0705 38.8927 20.2566 39.2923 20.5732 39.5795C20.8898 39.8668 21.3104 40.0176 21.7411 39.9984Z" fill="#2DDD9D"/>
</svg>
