<svg width="40" height="40" viewBox="0 0 40 40" fill="none" xmlns="http://www.w3.org/2000/svg">
<path fill-rule="evenodd" clip-rule="evenodd" d="M26.4856 5.47512C26.4856 9.91711 30.0918 13.518 34.5403 13.518C35.0301 13.5156 35.5187 13.4686 36 13.3776V29.3229C36 36.0312 32.043 40 25.3249 40H10.6927C3.95701 40 0 36.0312 0 29.3229V14.7122C0 8.0039 3.95701 4 10.6927 4H26.6263C26.5317 4.48601 26.4846 4.98003 26.4856 5.47512ZM22.2999 25.7932L28.0156 18.4176V18.3824C28.5049 17.7249 28.3801 16.7978 27.7342 16.2927C27.4216 16.0514 27.0244 15.9469 26.6333 16.0032C26.2422 16.0594 25.8907 16.2716 25.659 16.5912L20.8402 22.7903L15.3532 18.4703C15.0399 18.2262 14.6414 18.1184 14.2476 18.1713C13.8538 18.2242 13.498 18.4332 13.2604 18.7512L7.35123 26.3727C7.14352 26.6316 7.0317 26.9541 7.03467 27.2859C7.00038 27.9563 7.42373 28.5653 8.06474 28.7676C8.70575 28.97 9.40274 28.7146 9.76061 28.1464L14.7025 21.7542L20.1895 26.0566C20.5016 26.3082 20.9028 26.4223 21.3008 26.3726C21.6988 26.3229 22.0595 26.1138 22.2999 25.7932Z" fill="#3F408C"/>
<circle cx="35" cy="5" r="5" fill="#2DDD9D"/>
</svg>
