<svg width="135" height="23" fill="none" xmlns="http://www.w3.org/2000/svg"><g clip-path="url(#clip0)" fill="#fff"><path d="M4.583 12.43c-.064.345 0 .701.178 1.003a.938.938 0 00.797.365.938.938 0 00.656-.215.665.665 0 00.244-.516.493.493 0 00-.084-.281.797.797 0 00-.272-.253 3.35 3.35 0 00-.534-.29 12.999 12.999 0 00-.825-.376l-1.5-.618a6.247 6.247 0 01-1.275-.75 3.309 3.309 0 01-.89-1.125A3.075 3.075 0 01.74 7.902a3.225 3.225 0 01.516-1.874 3.871 3.871 0 011.34-1.238 6.45 6.45 0 011.875-.675 11.473 11.473 0 012.118-.197 7.19 7.19 0 012.606.394 3.927 3.927 0 011.51 1.003c.337.376.567.836.665 1.331.094.453.12.918.075 1.378H6.917c.054-.316.019-.64-.103-.937a.694.694 0 00-.637-.3 1.022 1.022 0 00-.619.178.61.61 0 00-.272.534.703.703 0 00.375.638c.371.218.764.397 1.172.534l1.481.572c.477.185.927.43 1.34.73.38.292.698.655.938 1.07.27.5.399 1.063.375 1.63a4.08 4.08 0 01-.384 1.763 3.93 3.93 0 01-1.135 1.387 5.316 5.316 0 01-1.874.938 9.247 9.247 0 01-2.513.318 8.434 8.434 0 01-2.221-.347 4.18 4.18 0 01-1.65-.853 3.271 3.271 0 01-.937-1.434 4.63 4.63 0 01-.225-2.015h4.555zm13.901 4.237c-.31.056-.656.103-1.03.15-.496.047-.994.065-1.491.056-.47 0-.94-.027-1.406-.085a2.718 2.718 0 01-1.153-.402 1.96 1.96 0 01-.74-.938 3.928 3.928 0 01-.123-1.762l.338-3.243h-1.266l.3-2.813h1.238l.262-2.605h4.256l-.272 2.605h2.043l-.309 2.813h-2.034L16.9 12.72a1.295 1.295 0 000 .59.76.76 0 00.216.357c.11.087.238.148.375.178.155.015.312.015.468 0 .28.005.558-.011.835-.047l-.31 2.869zm12.234-9.083l-.938 9.083h-4.274l.16-1.397a1.92 1.92 0 01-.357.525c-.193.201-.41.378-.647.525-.295.171-.61.307-.937.403-.36.116-.737.173-1.116.169a3.439 3.439 0 01-1.396-.281 2.943 2.943 0 01-1.088-.835 4.19 4.19 0 01-.712-1.33 5.842 5.842 0 01-.253-1.782 6.169 6.169 0 01.365-2.184 5.164 5.164 0 01.938-1.678 4.133 4.133 0 011.425-1.059 3.965 3.965 0 011.696-.375 3.29 3.29 0 011.163.131c.287.098.559.237.806.413.2.151.377.331.525.534.115.154.198.33.243.516l.141-1.416 4.256.038zm-6.093 5.84a1.314 1.314 0 00.937-.422 1.388 1.388 0 00.403-.994 1.172 1.172 0 00-.319-.825 1.077 1.077 0 00-.824-.347 1.276 1.276 0 00-.938.432 1.377 1.377 0 00-.422.984c-.003.306.11.601.32.825a1.07 1.07 0 00.843.347zm14.998-2.054a5.37 5.37 0 00-.675-.15 4.03 4.03 0 00-.6-.046 3.458 3.458 0 00-.938.112 1.93 1.93 0 00-.787.384 2.27 2.27 0 00-.61.797 4.5 4.5 0 00-.337 1.331l-.3 2.868h-4.2l.938-9.083h4.246l-.159 1.453a3.677 3.677 0 011.95-1.537 3.515 3.515 0 011.03-.14c.288-.001.573.046.845.14l-.404 3.871zm19.619 5.297h-4.34l.815-7.705-2.634 7.705h-3.318l-1.237-7.705-.816 7.705h-4.34l1.312-12.392h6.056l1.19 7.396 2.747-7.396h5.877l-1.312 12.392zm13.085-9.083l-.938 9.083h-4.265l.16-1.397a2.23 2.23 0 01-.366.525 2.87 2.87 0 01-.647.525 4.43 4.43 0 01-.937.403 3.61 3.61 0 01-1.116.169 3.46 3.46 0 01-1.406-.282 2.944 2.944 0 01-1.087-.834 3.993 3.993 0 01-.703-1.33 5.56 5.56 0 01-.262-1.782 6.168 6.168 0 01.365-2.184 5.164 5.164 0 01.938-1.678 4.133 4.133 0 011.424-1.06 3.965 3.965 0 011.697-.374 3.29 3.29 0 011.172.131c.287.097.559.236.806.413.202.148.38.329.525.534.115.153.198.329.243.515l.15-1.415 4.247.038zm-6.093 5.84a1.312 1.312 0 00.937-.422 1.387 1.387 0 00.403-.994 1.172 1.172 0 00-.319-.825 1.077 1.077 0 00-.824-.347 1.274 1.274 0 00-.938.431 1.378 1.378 0 00-.412.985c-.004.305.11.6.319.824a1.09 1.09 0 00.834.347zm17.323 2.286c-.053.448-.14.89-.263 1.322-.097.348-.24.682-.422.994a3.344 3.344 0 01-.6.74 4.263 4.263 0 01-.759.535 7.968 7.968 0 01-4.03 1.012 8.09 8.09 0 01-2.466-.365 6.261 6.261 0 01-.825-.3 3.329 3.329 0 01-.478-.253 2.579 2.579 0 01-.46-.422 4.146 4.146 0 01-.449-.628 3.393 3.393 0 01-.31-.76 2.183 2.183 0 01-.056-.815h4.256a.712.712 0 00.263.6 1.144 1.144 0 00.871.3c.338.003.668-.106.938-.31a1.462 1.462 0 00.506-1.012l.14-1.275a2.886 2.886 0 01-1.022.881 3.862 3.862 0 01-.843.32 4.894 4.894 0 01-2.522-.095 2.88 2.88 0 01-1.115-.693 3.282 3.282 0 01-.769-1.19 5.1 5.1 0 01-.271-1.753c-.005-.7.103-1.397.318-2.063a5.035 5.035 0 01.938-1.64c.37-.454.833-.822 1.359-1.078a4.218 4.218 0 011.875-.394 3.43 3.43 0 011.743.413c.457.27.793.707.938 1.218l.159-1.415h4.19l-.834 8.127zm-5.015-4.874c-.188 0-.374.041-.544.122a1.34 1.34 0 00-.44.31 1.64 1.64 0 00-.3.45c-.075.168-.114.35-.113.534a1.152 1.152 0 00.319.825 1.05 1.05 0 00.825.347 1.302 1.302 0 00.937-.422 1.396 1.396 0 00.478-.994 1.2 1.2 0 00-.31-.825 1.08 1.08 0 00-.852-.347zM96.39 7.584l-.938 9.083h-4.265l.16-1.397a2.23 2.23 0 01-.366.525 2.87 2.87 0 01-.647.525 4.43 4.43 0 01-.938.403 3.61 3.61 0 01-1.115.169 3.487 3.487 0 01-1.406-.282 2.944 2.944 0 01-1.088-.834 3.993 3.993 0 01-.703-1.33 5.56 5.56 0 01-.262-1.782 6.168 6.168 0 01.366-2.184 5.164 5.164 0 01.937-1.678 4.133 4.133 0 011.425-1.06 3.965 3.965 0 011.696-.374 3.29 3.29 0 011.172.131c.288.097.56.236.806.413.203.148.38.329.525.534.115.155.2.33.253.515l.14-1.415 4.247.038zm-6.094 5.84a1.303 1.303 0 00.938-.422 1.396 1.396 0 00.412-.994 1.21 1.21 0 00-.319-.825 1.117 1.117 0 00-.834-.347 1.274 1.274 0 00-.937.431 1.377 1.377 0 00-.413.985c-.003.305.11.6.319.824a1.09 1.09 0 00.834.347zm16.395-5.841l-4.031 5.625h3.075l-.347 3.458h-9.243l4.05-5.624h-3.009l.375-3.45 9.13-.009zm.769.001h4.246l-.937 9.083h-4.247l.938-9.083zm0-2.466a2.196 2.196 0 01.197-.937 2.33 2.33 0 01.553-.731c.239-.216.52-.382.825-.488a2.807 2.807 0 011.021-.15 2.363 2.363 0 011.575.525 1.87 1.87 0 01.609 1.49 2.148 2.148 0 01-.759 1.679 2.493 2.493 0 01-.806.45c-.317.106-.65.16-.984.159a2.297 2.297 0 01-1.622-.553 1.878 1.878 0 01-.59-1.444h-.019zm5.661 2.466h4.246l-.168 1.378a2.809 2.809 0 011.209-1.163 4.685 4.685 0 013.224-.3c.352.094.674.275.938.525.188.177.333.395.422.638.096.257.162.524.197.796.024.294.024.588 0 .882a4.6 4.6 0 01-.066.937l-.563 5.371h-4.236l.478-4.574c.087-.825-.175-1.238-.788-1.238a.939.939 0 00-.768.328 2.162 2.162 0 00-.366 1.163l-.469 4.321h-4.246l.956-9.064zm14.932 5.343a1.37 1.37 0 000 .478.95.95 0 00.15.44.85.85 0 00.347.328c.194.101.41.15.628.141.302.007.6-.068.863-.216a.94.94 0 00.468-.571h4.078a3.74 3.74 0 01-.675 1.387c-.334.424-.74.786-1.2 1.069a6.109 6.109 0 01-1.65.703 8.426 8.426 0 01-2.071.243 5.73 5.73 0 01-3.75-1.134 3.903 3.903 0 01-1.349-3.168 5.4 5.4 0 01.374-2.006c.259-.64.645-1.22 1.135-1.706a5.528 5.528 0 011.874-1.163 7.21 7.21 0 012.616-.44 6.944 6.944 0 012.278.337 4.757 4.757 0 011.593.938c.413.348.735.792.937 1.293.311.777.383 1.629.207 2.447-.066.272-.122.487-.169.637l-6.684-.037zm1.594-3.094a1.35 1.35 0 00-.937.338 1.486 1.486 0 00-.45.937h2.521a1.205 1.205 0 00-.234-.937 1.11 1.11 0 00-.9-.338zM66.103 5.85l-.13-.694h-2.035l-.3.694h-1.415L64.96.15h1.218l1.34 5.7h-1.415zm-.73-4.069l-.938 2.344h1.378l-.44-2.344zm4.629-.525l-.187 1.557h2.156L71.839 3.9h-2.155l-.244 1.968h-1.322L68.812.15h3.487l-.094 1.106h-2.203zM73.292.15h2.4a2.1 2.1 0 01.834.16c.23.104.436.257.6.45.158.193.276.416.347.656a2.05 2.05 0 010 .796c-.05.396-.198.774-.431 1.097a2.25 2.25 0 01-.938.74l.938 1.8h-1.49l-.816-1.574h-.656l-.197 1.574h-1.284L73.292.15zm1.875 3.047c.133 0 .264-.03.384-.085a1.06 1.06 0 00.32-.215c.087-.092.16-.196.215-.31a.937.937 0 00.112-.375.993.993 0 000-.374.936.936 0 00-.14-.32.853.853 0 00-.263-.215.806.806 0 00-.365-.084h-.938l-.234 1.978h.909zM78.626.15h1.34l-.702 5.7h-1.331l.693-5.7zm7.64 3.656a2.663 2.663 0 01-.413.853 3.24 3.24 0 01-.684.703c-.287.202-.603.36-.937.469a3.45 3.45 0 01-1.097.168 3.065 3.065 0 01-1.256-.243 2.522 2.522 0 01-.881-.656 2.38 2.38 0 01-.488-.938 2.954 2.954 0 01-.065-1.153 3.4 3.4 0 01.319-1.134c.18-.352.421-.67.712-.937a3.3 3.3 0 011.04-.685c.4-.17.831-.256 1.266-.253a3.3 3.3 0 011.153.188 2.117 2.117 0 011.303 1.256c.108.3.162.618.16.937h-1.379a1.434 1.434 0 00-.103-.506 1.18 1.18 0 00-.262-.375 1.078 1.078 0 00-.403-.244 1.36 1.36 0 00-.535-.093 1.8 1.8 0 00-.759.15 1.996 1.996 0 00-.994.974 2.155 2.155 0 00-.196.675 1.932 1.932 0 000 .703c.044.213.137.412.271.582.14.169.316.303.516.393a1.819 1.819 0 001.219.066c.153-.051.298-.124.43-.216a1.64 1.64 0 00.357-.318c.099-.118.178-.251.234-.394l1.472.028zM89.93 5.85l-.14-.694h-2.025l-.31.694H86.05l2.728-5.7h1.237l1.368 5.7H89.93zm-.74-4.069l-.984 2.344h1.387L89.19 1.78zm45.078 16.892h-49.1s-.45 2.428-5.145 3.88c-4.069 1.266 54.245-3.88 54.245-3.88z"/></g><defs><clipPath id="clip0"><path fill="#fff" d="M0 0h135v22.754H0z"/></clipPath></defs></svg>