<svg width="62" height="62" fill="none" xmlns="http://www.w3.org/2000/svg"><g filter="url(#filter0_b)"><path d="M33.68 4.228L13.82 9.47c-7.238 1.91-10.24 7.032-8.301 14.16l5.317 19.545c1.939 7.128 7.139 10.085 14.376 8.175l19.862-5.242c7.238-1.91 10.22-7.027 8.282-14.156L48.038 12.41c-1.94-7.13-7.12-10.09-14.358-8.18z" fill="url(#paint0_linear)"/></g><g opacity=".5" filter="url(#filter1_f)"><path d="M43.502 30l-3.61-13.47c-1.31-4.886-4.58-7.08-8.876-5.962l-14.552 3.784c-4.367 1.136-6.056 4.618-4.747 9.504l3.61 13.47c1.331 4.966 4.524 7.093 8.89 5.957L38.77 39.5c4.296-1.117 6.063-4.534 4.732-9.499z" fill="#2DDD9D"/></g><g filter="url(#filter2_b)"><mask id="a" maskUnits="userSpaceOnUse" x="12.02" y="12.684" width="47" height="46" fill="#000"><path fill="#fff" d="M12.02 12.684h47v46h-47z"/><path d="M45.32 13.684H24.76c-7.494 0-11.739 4.181-11.739 11.561v20.233c0 7.38 4.245 11.562 11.739 11.562h20.56c7.493 0 11.719-4.181 11.719-11.562V25.245c0-7.38-4.226-11.561-11.72-11.561z"/></mask><path d="M45.32 13.684H24.76c-7.494 0-11.739 4.181-11.739 11.561v20.233c0 7.38 4.245 11.562 11.739 11.562h20.56c7.493 0 11.719-4.181 11.719-11.562V25.245c0-7.38-4.226-11.561-11.72-11.561z" fill="#2DDD9D" fill-opacity=".4"/><path d="M45.32 14.684a1 1 0 100-2v2zm0-2a1 1 0 100 2v-2zm0 0H24.76v2h20.56v-2zm-20.561 0c-3.929 0-7.146 1.098-9.381 3.3-2.238 2.205-3.358 5.381-3.358 9.261h2c0-3.5 1.003-6.104 2.761-7.836 1.76-1.733 4.413-2.725 7.978-2.725v-2zM12.02 25.245v20.233h2V25.245h-2zm0 20.233c0 3.88 1.12 7.057 3.358 9.261 2.235 2.202 5.452 3.301 9.38 3.301v-2c-3.564 0-6.217-.992-7.977-2.725-1.758-1.732-2.761-4.337-2.761-7.837h-2zM24.759 58.04H45.32v-2H24.759v2zm20.562 0c3.928 0 7.14-1.099 9.372-3.301 2.233-2.205 3.347-5.382 3.347-9.26h-2c0 3.5-.999 6.105-2.752 7.836-1.755 1.733-4.402 2.725-7.967 2.725v2zM58.04 45.478V25.245h-2v20.233h2zm0-20.233c0-3.879-1.114-7.055-3.347-9.26-2.231-2.202-5.444-3.301-9.372-3.301v2c3.565 0 6.212.992 7.967 2.725 1.753 1.73 2.752 4.335 2.752 7.836h2z" fill="url(#paint1_linear)" mask="url(#a)"/></g><g filter="url(#filter3_bd)"><mask id="b" fill="#fff"><path fill-rule="evenodd" clip-rule="evenodd" d="M35.33 22.844c-1.014 0-1.85.81-1.85 1.814v22.039c0 .984.836 1.794 1.85 1.794 1.035 0 1.87-.81 1.87-1.794v-22.04c0-1.003-.836-1.813-1.87-1.813zm-10.54 7.328c-1.014 0-1.85.801-1.85 1.793v14.752c0 .973.835 1.774 1.85 1.774 1.035 0 1.87-.801 1.87-1.774V31.965c0-.992-.835-1.793-1.87-1.793zm18.61 9.706c0-.978.836-1.768 1.87-1.768 1.014 0 1.85.79 1.85 1.768v6.864c0 .96-.835 1.75-1.87 1.75-1.014 0-1.85-.79-1.85-1.75v-6.864z"/></mask><path fill-rule="evenodd" clip-rule="evenodd" d="M35.33 22.844c-1.014 0-1.85.81-1.85 1.814v22.039c0 .984.836 1.794 1.85 1.794 1.035 0 1.87-.81 1.87-1.794v-22.04c0-1.003-.836-1.813-1.87-1.813zm-10.54 7.328c-1.014 0-1.85.801-1.85 1.793v14.752c0 .973.835 1.774 1.85 1.774 1.035 0 1.87-.801 1.87-1.774V31.965c0-.992-.835-1.793-1.87-1.793zm18.61 9.706c0-.978.836-1.768 1.87-1.768 1.014 0 1.85.79 1.85 1.768v6.864c0 .96-.835 1.75-1.87 1.75-1.014 0-1.85-.79-1.85-1.75v-6.864z" fill="url(#paint2_linear)"/><path d="M33.88 24.658c0-.774.648-1.414 1.45-1.414v-.8c-1.227 0-2.25.98-2.25 2.214h.8zm0 22.039v-22.04h-.8v22.04h.8zm1.45 1.394c-.805 0-1.45-.642-1.45-1.394h-.8c0 1.216 1.026 2.194 2.25 2.194v-.8zm1.47-1.394c0 .749-.642 1.394-1.47 1.394v.8c1.241 0 2.27-.975 2.27-2.194h-.8zm0-22.04v22.04h.8v-22.04h-.8zm-1.47-1.413c.825 0 1.47.643 1.47 1.414h.8c0-1.236-1.026-2.214-2.27-2.214v.8zm-11.99 8.721c0-.758.643-1.393 1.45-1.393v-.8c-1.222 0-2.25.967-2.25 2.193h.8zm0 14.752V31.965h-.8v14.752h.8zm1.45 1.374c-.81 0-1.45-.638-1.45-1.374h-.8c0 1.21 1.03 2.174 2.25 2.174v-.8zm1.47-1.374c0 .734-.638 1.374-1.47 1.374v.8c1.237 0 2.27-.962 2.27-2.174h-.8zm0-14.752v14.752h.8V31.965h-.8zm-1.47-1.393c.83 0 1.47.637 1.47 1.393h.8c0-1.228-1.03-2.193-2.27-2.193v.8zm20.48 7.138c-1.234 0-2.27.948-2.27 2.168h.8c0-.736.635-1.368 1.47-1.368v-.8zm2.25 2.168c0-1.217-1.033-2.168-2.25-2.168v.8c.812 0 1.45.63 1.45 1.368h.8zm0 6.864v-6.864h-.8v6.864h.8zm-2.27 2.15c1.231 0 2.27-.946 2.27-2.15h-.8c0 .715-.632 1.35-1.47 1.35v.8zM43 46.741c0 1.201 1.036 2.15 2.25 2.15v-.8c-.815 0-1.45-.632-1.45-1.35H43zm0-6.864v6.864h.8v-6.864H43z" fill="url(#paint3_linear)" mask="url(#b)"/></g><defs><linearGradient id="paint0_linear" x1="23.74" y1="6.852" x2="34.815" y2="48.815" gradientUnits="userSpaceOnUse"><stop stop-color="#2DDD9D"/><stop offset="1" stop-color="#2DDD9D" stop-opacity="0"/></linearGradient><linearGradient id="paint1_linear" x1="20.027" y1="18.735" x2="47.593" y2="53.398" gradientUnits="userSpaceOnUse"><stop stop-color="#fff" stop-opacity=".25"/><stop offset="1" stop-color="#fff" stop-opacity="0"/></linearGradient><linearGradient id="paint2_linear" x1="16.681" y1="41.88" x2="27.659" y2="64.871" gradientUnits="userSpaceOnUse"><stop stop-color="#fff"/><stop offset="1" stop-color="#fff" stop-opacity=".2"/></linearGradient><linearGradient id="paint3_linear" x1="26.789" y1="25.832" x2="43.326" y2="45.141" gradientUnits="userSpaceOnUse"><stop stop-color="#fff" stop-opacity=".25"/><stop offset="1" stop-color="#fff" stop-opacity="0"/></linearGradient><filter id="filter0_b" x="-8.058" y="-9.338" width="74.991" height="74.256" filterUnits="userSpaceOnUse" color-interpolation-filters="sRGB"><feFlood flood-opacity="0" result="BackgroundImageFix"/><feGaussianBlur in="BackgroundImage" stdDeviation="6.5"/><feComposite in2="SourceAlpha" operator="in" result="effect1_backgroundBlur"/><feBlend in="SourceGraphic" in2="effect1_backgroundBlur" result="shape"/></filter><filter id="filter1_f" x="-1.715" y="-2.717" width="58.652" height="59.3" filterUnits="userSpaceOnUse" color-interpolation-filters="sRGB"><feFlood flood-opacity="0" result="BackgroundImageFix"/><feBlend in="SourceGraphic" in2="BackgroundImageFix" result="shape"/><feGaussianBlur stdDeviation="6.5" result="effect1_foregroundBlur"/></filter><filter id="filter2_b" x="-2.98" y="-2.316" width="76.02" height="75.357" filterUnits="userSpaceOnUse" color-interpolation-filters="sRGB"><feFlood flood-opacity="0" result="BackgroundImageFix"/><feGaussianBlur in="BackgroundImage" stdDeviation="7.5"/><feComposite in2="SourceAlpha" operator="in" result="effect1_backgroundBlur"/><feBlend in="SourceGraphic" in2="effect1_backgroundBlur" result="shape"/></filter><filter id="filter3_bd" x="7.94" y="7.844" width="54.18" height="55.648" filterUnits="userSpaceOnUse" color-interpolation-filters="sRGB"><feFlood flood-opacity="0" result="BackgroundImageFix"/><feGaussianBlur in="BackgroundImage" stdDeviation="7.5"/><feComposite in2="SourceAlpha" operator="in" result="effect1_backgroundBlur"/><feColorMatrix in="SourceAlpha" values="0 0 0 0 0 0 0 0 0 0 0 0 0 0 0 0 0 0 127 0"/><feOffset dx="5" dy="5"/><feGaussianBlur stdDeviation="5"/><feColorMatrix values="0 0 0 0 0.176471 0 0 0 0 0.866667 0 0 0 0 0.615686 0 0 0 0.5 0"/><feBlend in2="effect1_backgroundBlur" result="effect2_dropShadow"/><feBlend in="SourceGraphic" in2="effect2_dropShadow" result="shape"/></filter></defs></svg>