<svg width="120" height="51" fill="none" xmlns="http://www.w3.org/2000/svg"><g clip-path="url(#clip0)" fill="#fff"><path d="M17.403 19.29l.551-1.75a9.053 9.053 0 01-2.397-3.485 34.82 34.82 0 0111.822-6.077 46.035 46.035 0 0115.487-1.185s8.006-4.781 13.118-6.09c5.112-1.31 12.91-.703 19.442.937a157.177 157.177 0 0117.402 6.076s0 1.93-2.604 1.93c-3.527 0-4.698 1.57-4.698 1.57s-.73-3.238-7.937-6.2a45.553 45.553 0 00-12.635-2.839c-6.89-.496-11.45 1.681-17.293 5.195 0 0 10.445.179 16.535-.097a32.49 32.49 0 008.626-1.212 25.958 25.958 0 01-9.329 2.342c-6.007.62-18.615.152-18.615.152s-16.218-.882-23.176 3.127h2.894l-2.384 1.737-5.512 1.378a7.372 7.372 0 002.04 2.37l-1.337 2.121z"/><path d="M.386 27.406L0 22.322 117.837 4.726M119.6 27.82l.4 5.084L2.163 50.499m1.377-10.54a7.674 7.674 0 01-.082-1.172l.138-6.241 3.073-.551-.124 6.2c-.03.289-.03.58 0 .868a1.585 1.585 0 002.094 1.378c1.295-.234 1.902-1.102 1.943-3.004l.124-6.186 3.031-.552-.124 6.394c0 3.362-1.68 5.387-4.891 5.952-2.77.496-4.74-.703-5.181-3.086zm23.742-11.671l-.207 11.257-2.838.51.082-5.938-2.755 5.304-1.378.248-2.756-4.312-.18 5.98-2.755.51.234-11.272 2.494-.44 3.68 5.842 3.816-7.18 2.563-.509zm3.927 1.75v1.888l4.836-.855v2.37l-4.85.868v2.067l5.69-1.02-.068 2.467-8.709 1.557.22-11.271 8.516-1.516v2.467l-5.635.978zm16.563-5.415l-.235 11.202-3.072.551.082-4.368-4.133.744-.138 4.45-3.073.524.234-11.257 3.073-.551-.083 4.216 4.134-.744v-4.216l3.21-.551zm16.838-3.018l-.207 11.271-2.839.496.096-5.925-2.755 5.305-1.378.248-2.756-4.313-.124 5.94-2.838.509.234-11.271 2.453-.441 3.665 5.828 3.844-7.206 2.604-.44zm.37 6.449a6.532 6.532 0 015.636-7.744c3.335-.592 5.76 1.006 6.256 3.817a6.519 6.519 0 01-5.622 7.744c-3.334.592-5.76-1.006-6.27-3.817zm8.82-3.183a2.343 2.343 0 00-3.004-1.957 3.528 3.528 0 00-2.756 4.396 2.343 2.343 0 002.99 1.97 3.553 3.553 0 002.77-4.409z"/><path d="M79.573 21.454l-3.348.592v-2.521l9.741-1.75v2.535l-3.293.593-.193 8.735-3.073.552.166-8.736z"/><path d="M85.195 24.444a6.53 6.53 0 015.622-7.744c3.348-.592 5.76 1.006 6.27 3.817a6.517 6.517 0 01-5.623 7.744c-3.279.592-5.76-1.006-6.269-3.817zm8.818-3.183a2.354 2.354 0 00-3.003-1.97 3.569 3.569 0 00-2.756 4.409 2.356 2.356 0 003.004 1.956 3.555 3.555 0 002.755-4.395zm11.037.979l2.425 2.934-3.224.565-2.109-2.59-1.557.275v2.99l-3.086.551.234-11.27 4.644-.828c2.756-.496 4.616.51 5.001 2.756a4.273 4.273 0 01-2.328 4.616zm-2.756-4.865l-1.612.276-.097 3.307 1.874-.29c1.378-.234 2.026-1.033 1.819-2.232-.165-.95-.937-1.254-1.956-1.06h-.028z"/><path d="M107.048 24.265l.799-2.508a6.89 6.89 0 003.817.413c1.185-.207 1.805-.703 1.695-1.295-.262-1.46-5.402.303-6.008-3.128-.427-2.342 1.378-4.23 4.519-4.809a7.607 7.607 0 014.134.235l-.703 2.48a5.716 5.716 0 00-3.127-.29c-1.282.22-1.874.813-1.778 1.378.262 1.489 5.401-.303 5.994 3.046.427 2.328-1.378 4.243-4.533 4.808a8.653 8.653 0 01-4.809-.33z"/></g><defs><clipPath id="clip0"><path fill="#fff" d="M0 0h120v50.499H0z"/></clipPath></defs></svg>