<svg width="110" height="49" fill="none" xmlns="http://www.w3.org/2000/svg"><g clip-path="url(#clip0)" fill="#fff"><path d="M26.301 29.607a2.577 2.577 0 01-1.232-.23 1.021 1.021 0 01-.412-.976v-8.94a1.564 1.564 0 00-.874-1.335 6.146 6.146 0 00-3.031-.538h-1.439a9.351 9.351 0 00-1.785.14c-.4.07-.786.204-1.142.398a1.48 1.48 0 00-.797 1.336V28.4a1.022 1.022 0 01-.412.975 2.576 2.576 0 01-1.23.23 2.277 2.277 0 01-1.247-.255 1.075 1.075 0 01-.372-.95v-8.938a1.57 1.57 0 00-.18-.732 1.559 1.559 0 00-.617-.604 3.735 3.735 0 00-1.146-.399 9.334 9.334 0 00-1.785-.14H7.166a6.153 6.153 0 00-3.032.539 1.564 1.564 0 00-.873 1.336V28.4a1.022 1.022 0 01-.409.975c-.386.177-.81.256-1.234.23a2.504 2.504 0 01-1.22-.23A1.039 1.039 0 010 28.4v-8.938a3.719 3.719 0 011.73-3.366 9.063 9.063 0 014.87-1.104h2.538a7.492 7.492 0 014.804 1.284 7.597 7.597 0 014.826-1.284h2.539a9.054 9.054 0 014.867 1.104 3.717 3.717 0 011.731 3.366V28.4a1.038 1.038 0 01-.398.975c-.377.176-.79.256-1.206.232zM48.746 14.89c.419-.027.838.052 1.218.23a1.038 1.038 0 01.4.976v8.94c0 2.98-2.424 4.469-7.27 4.468h-6.138c-4.846 0-7.27-1.49-7.27-4.469v-8.94a1.024 1.024 0 01.411-.974 2.568 2.568 0 011.233-.231c.42-.027.839.052 1.22.23a1.039 1.039 0 01.397.976v8.94a1.56 1.56 0 00.977 1.334 6.8 6.8 0 003.133.54h5.935a6.817 6.817 0 003.134-.54 1.558 1.558 0 00.974-1.335v-8.94a1.021 1.021 0 01.412-.974c.386-.178.81-.258 1.234-.231zm3.159 3.955a3.224 3.224 0 011.54-2.828 8.293 8.293 0 014.572-1.027h3.52a.808.808 0 01.77.321c.14.31.201.65.18.99.02.33-.042.661-.18.963a.808.808 0 01-.77.322h-3.545a5.058 5.058 0 00-2.158.346 1.046 1.046 0 00-.692.937v.667a1.074 1.074 0 00.718.95c.718.282 1.49.405 2.26.36h5.677a9.929 9.929 0 015.193 1.025 3.242 3.242 0 011.592 2.878v.82a3.134 3.134 0 01-1.694 2.892 7.414 7.414 0 01-2.26.77 17.552 17.552 0 01-3.313.27H52.907a.807.807 0 01-.771-.322c-.14-.31-.202-.65-.18-.989a2.02 2.02 0 01.18-.963.808.808 0 01.77-.321h10.89c.57.007 1.14-.023 1.707-.09.37-.04.732-.125 1.08-.256.218-.078.41-.216.552-.399a.954.954 0 00.153-.539V24.7a.95.95 0 00-.153-.539 1.288 1.288 0 00-.54-.411 3.776 3.776 0 00-1.038-.27 12.655 12.655 0 00-1.657-.088h-5.753a8.687 8.687 0 01-4.675-1.016 3.159 3.159 0 01-1.567-2.78v-.75zm44.249 10.659c-4.846 0-7.27-1.49-7.27-4.469v-5.573c0-2.98 2.424-4.47 7.27-4.47H109a.806.806 0 01.769.321c.14.31.202.65.18.99a2.01 2.01 0 01-.18.963.806.806 0 01-.769.322H96.26a6.821 6.821 0 00-3.134.537 1.561 1.561 0 00-.976 1.337v5.573a1.576 1.576 0 00.976 1.323 6.69 6.69 0 003.134.551h12.819c.395 0 .646.107.758.32.128.305.185.635.166.964a2.25 2.25 0 01-.166.977c-.115.222-.363.334-.758.334H96.154z"/><path d="M80.407 28.63L68.649 13.514c5.26-7.797 17.21-7.352 21.085-1.135-5.857-3.368-11.3-3.298-16.732.978 1.955 2.57 3.924 4.949 5.654 7.484 2.867 4.185 5.688 8.406 8.333 12.732a9.737 9.737 0 01-1.364 12.07 9.894 9.894 0 01-11.582 1.907 10.032 10.032 0 01-5.272-10.761 9.873 9.873 0 019.193-7.962c.688-.059 1.376-.11 2.443-.197zM12.263 2.634c.27-.016.539.035.783.15a.67.67 0 01.255.626v5.728c0 1.91-1.553 2.864-4.66 2.865H4.706c-3.106 0-4.659-.955-4.659-2.865v-5.73a.658.658 0 01.263-.626 1.68 1.68 0 01.79-.148c.27-.016.538.036.783.15a.667.667 0 01.255.626v5.728a.996.996 0 00.625.855 4.35 4.35 0 002.01.346H8.58a4.353 4.353 0 002.01-.346.996.996 0 00.624-.855v-5.73a.662.662 0 01.264-.626c.246-.112.515-.162.785-.148zm20.069 9.435a1.662 1.662 0 01-.79-.15.656.656 0 01-.263-.625V5.565a1.006 1.006 0 00-.559-.857 3.966 3.966 0 00-1.944-.346h-.923a6.08 6.08 0 00-1.146.089 2.423 2.423 0 00-.732.255.949.949 0 00-.51.857V11.3a.657.657 0 01-.263.626 1.659 1.659 0 01-.79.149 1.46 1.46 0 01-.799-.166.692.692 0 01-.239-.609V5.565a.948.948 0 00-.51-.857 2.423 2.423 0 00-.731-.255 6.08 6.08 0 00-1.146-.089h-.923a3.956 3.956 0 00-1.943.346 1.002 1.002 0 00-.56.858V11.3a.656.656 0 01-.263.626 1.659 1.659 0 01-.79.149 1.603 1.603 0 01-.783-.15.662.662 0 01-.255-.625V5.565a2.382 2.382 0 011.111-2.156 5.795 5.795 0 013.116-.709h1.63a4.793 4.793 0 013.079.824c.91-.616 2-.906 3.095-.824h1.636a5.788 5.788 0 013.116.709 2.382 2.382 0 011.11 2.156V11.3a.662.662 0 01-.254.626c-.243.11-.51.16-.777.143zM37.551 8.3v.84a1.009 1.009 0 00.625.847 4.282 4.282 0 002.01.353h1.894c.253 0 .413.07.486.207.083.195.12.407.107.618.012.214-.025.428-.107.626-.072.142-.23.213-.486.213h-1.962c-3.106 0-4.659-.955-4.659-2.865V5.565c0-1.909 1.553-2.864 4.66-2.865h3.807a6.789 6.789 0 013.566.709 2.39 2.39 0 011.095 2.156V7.46a.923.923 0 01-.181.659c-.24.152-.526.216-.808.18L37.551 8.3zm0-1.63h8.942V5.566a.973.973 0 00-.618-.888 4.756 4.756 0 00-2.017-.312h-3.673a4.398 4.398 0 00-2.009.346 1.004 1.004 0 00-.625.858v1.1zm14.099 5.398a1.602 1.602 0 01-.782-.15.662.662 0 01-.255-.625V.774a.663.663 0 01.255-.625c.244-.115.513-.167.782-.149a1.64 1.64 0 01.79.149.659.659 0 01.262.625V2.7h6.324c3.106 0 4.66.955 4.66 2.865v5.73a.654.654 0 01-.264.625 1.655 1.655 0 01-.79.149 1.6 1.6 0 01-.781-.15c-.172-.097-.255-.306-.255-.625v-5.73a1.002 1.002 0 00-.627-.857 4.385 4.385 0 00-2.009-.346h-6.262v6.933a.656.656 0 01-.262.626 1.66 1.66 0 01-.786.148z"/></g><defs><clipPath id="clip0"><path fill="#fff" d="M0 0h110v48.634H0z"/></clipPath></defs></svg>