<svg width="100" height="47" fill="none" xmlns="http://www.w3.org/2000/svg"><path d="M23.96 28.387l-5.558 7.479V11.233l9.201 11.642 4.737.128L14.75 0v46.825l14.166-18.93.319-.42h-4.6l-.675.912zm-16.107-.893v7.825L3.79 29.37V10.148L0 15.296v16.507l11.907 14.885V.137L7.853 4.464v23.03zm40.876.1a8.244 8.244 0 01-5.202 1.385c-4.725 0-7.087-2.038-7.087-6.113v-9.51h2.186v9.51a3.891 3.891 0 001.175 3.116 5.694 5.694 0 003.753 1.01 5.73 5.73 0 003.763-1.02 3.71 3.71 0 001.166-3.033v-9.584h2.186v9.556a5.63 5.63 0 01-1.913 4.683m18.831 1.23V17.919l-5.903 10.905h-1.576l-5.904-10.905v10.905H52.01V13.355h2.15l6.723 12.435 6.76-12.435h2.14v15.469h-2.195zm3.561 0V13.355h12.79v1.986h-10.62v4.446h9.42v1.986h-9.42v5.065h10.74v1.986h-12.91zm26.666 0v-7.051h-10.24v7.05H85.38V13.356h2.195v6.432h10.24v-6.432H100v15.469h-2.186zM42.89 35.529h-2.733v-.82h3.571c.035.226.057.454.064.683a2.35 2.35 0 01-.975 2.06 3.853 3.853 0 01-2.287.655 4.008 4.008 0 01-2.65-.82 2.915 2.915 0 01-1.04-2.387 3.005 3.005 0 01.994-2.377 3.808 3.808 0 012.633-.911 4.1 4.1 0 012.04.464 2.906 2.906 0 011.221 2.068h-.911a2.122 2.122 0 00-.783-1.284 2.88 2.88 0 00-1.631-.401 2.924 2.924 0 00-2.013.647 2.278 2.278 0 00-.711 1.822 2.224 2.224 0 00.72 1.822 3.07 3.07 0 002.059.628 2.997 2.997 0 001.703-.474 1.493 1.493 0 00.729-1.375zm3.042-.756a2.405 2.405 0 00-.382 1.394v1.876h-.911v-4.555h.91v.42a3.197 3.197 0 011.987-.51v.792a1.823 1.823 0 00-1.613.601m6.533 2.687a3.098 3.098 0 01-3.836 0 2.224 2.224 0 01-.71-1.712 2.268 2.268 0 01.72-1.722 2.733 2.733 0 011.922-.665c.7-.037 1.387.202 1.913.665a2.26 2.26 0 01.71 1.722 2.205 2.205 0 01-.72 1.712zm-.629-2.86a1.822 1.822 0 00-1.285-.428 1.739 1.739 0 00-1.266.437 1.686 1.686 0 000 2.305 1.75 1.75 0 001.266.437c.466.023.922-.134 1.276-.437a1.504 1.504 0 00.465-1.148 1.557 1.557 0 00-.456-1.166zm5.611 3.444v-.32a2.56 2.56 0 01-1.458.402 2.469 2.469 0 01-1.521-.429 1.548 1.548 0 01-.62-1.33v-2.897h.912v2.888c0 .656.419.975 1.248.975a1.266 1.266 0 001.457-1.412v-2.45h.911v4.554l-.93.019zm6.332-.483a2.467 2.467 0 01-1.895.72 2.514 2.514 0 01-1.64-.529v1.822h-.91v-6.113h.91v.42a2.888 2.888 0 013.535.172c.438.475.671 1.104.647 1.75a2.47 2.47 0 01-.638 1.758h-.01zm-.702-2.961a1.511 1.511 0 00-1.184-.456 1.687 1.687 0 00-1.239.447 1.585 1.585 0 00-.446 1.175 1.475 1.475 0 001.676 1.667 1.548 1.548 0 001.203-.465 1.65 1.65 0 00.4-1.184 1.704 1.704 0 00-.41-1.184zm5.912 3.425v-6.331h.893v5.52h3.99v.811h-4.882zm5.722-5.056a.455.455 0 01-.437-.328v-.692a.493.493 0 01.437-.337.708.708 0 01.465.291v.793a.664.664 0 01-.465.273zm-.437.31h.91v4.746h-.91v-4.746zm8.162 4.746v-2.924a.985.985 0 00-.237-.73 1.12 1.12 0 00-.775-.218 1.394 1.394 0 00-.91.283 1.003 1.003 0 00-.329.774v2.815h-.92v-2.924a.911.911 0 00-.246-.73 1.193 1.193 0 00-.792-.218 1.111 1.111 0 00-.911.401c-.21.256-.32.58-.31.911v2.542h-.911V33.47h.91v.237a2.33 2.33 0 011.331-.365 1.823 1.823 0 011.476.583 2.077 2.077 0 011.603-.583 2.159 2.159 0 011.43.42A1.557 1.557 0 0183.328 35v3.007l-.901.036zm2.296-5.056a.437.437 0 01-.428-.328v-.692a.474.474 0 01.428-.337.675.675 0 01.465.291v.793a.666.666 0 01-.465.273zm-.428.31h.91v4.746h-.91v-4.746zm3.288 1.093v3.653h-.884l-.018-3.653h-.929v-.81h.93v-1.267h.901v1.266h.938v.811h-.938zm2.141 1.73c.11.82.656 1.23 1.64 1.23a1.604 1.604 0 001.64-1.02h.91a2.441 2.441 0 01-1.11 1.495 3.089 3.089 0 01-1.467.318 2.579 2.579 0 01-1.904-.665 2.542 2.542 0 01.073-3.425 2.56 2.56 0 011.876-.674 2.788 2.788 0 011.868.601 2.032 2.032 0 01.71 1.622v.51l-4.236.009zm2.87-1.548a2.005 2.005 0 00-2.405.046 1.475 1.475 0 00-.437.756h3.252a1.321 1.321 0 00-.41-.756m5.903 3.434v-.446a2.578 2.578 0 01-1.685.537 2.458 2.458 0 01-1.822-.728 2.651 2.651 0 010-3.48 2.486 2.486 0 011.895-.73 2.587 2.587 0 011.649.52v-2.013h.91v6.377l-.947-.037zm-.428-3.589a1.732 1.732 0 00-1.266-.446 1.522 1.522 0 00-1.185.473 1.731 1.731 0 00-.419 1.203c-.023.426.121.844.401 1.166a1.522 1.522 0 001.203.474 1.648 1.648 0 001.23-.465 1.593 1.593 0 00.464-1.175 1.73 1.73 0 00-.428-1.23z" fill="#fff"/></svg>