<svg width="125" height="38" fill="none" xmlns="http://www.w3.org/2000/svg"><g clip-path="url(#clip0)" fill="#fff"><path d="M47.81 22.661a.142.142 0 01-.048.117.349.349 0 01-.127.058.814.814 0 01-.163 0h-.842a.348.348 0 01-.293-.124.687.687 0 01-.127-.29l-.082-.618a2.448 2.448 0 01-.898.798 3.17 3.17 0 01-.707.258 3.892 3.892 0 01-.9.095c-.49.023-.98-.061-1.436-.245a3.045 3.045 0 01-1.055-.792 3.472 3.472 0 01-.633-1.183 4.687 4.687 0 01-.222-1.462v-4.567a.528.528 0 01.116-.37.438.438 0 01.338-.127h1.055a.492.492 0 01.364.1.56.56 0 01.09.36v4.546c0 .24.037.479.11.707.077.224.192.433.339.618.154.184.347.331.564.433.246.115.515.17.786.163.223-.003.443-.038.655-.105.225-.072.435-.187.618-.338a1.72 1.72 0 00.464-.56 1.63 1.63 0 00.185-.786v-4.672c.01-.079.03-.157.058-.232a.46.46 0 01.127-.168.327.327 0 01.211-.064h1.156a.453.453 0 01.333.106.433.433 0 01.106.306v7.84a.217.217 0 01-.11.2m1.455-8.301a.961.961 0 01.433-.106h.686a.348.348 0 01.295.127.748.748 0 01.127.29l.074.655c.11-.158.232-.308.364-.448a2.22 2.22 0 01.486-.38c.208-.111.43-.194.66-.246a3.36 3.36 0 01.882-.1c.291-.003.581.027.866.09.246.056.482.149.702.274.208.12.398.27.564.443.175.185.33.389.46.608.109-.222.26-.42.443-.586a2.72 2.72 0 01.644-.46 3.653 3.653 0 011.705-.39c.487-.011.97.088 1.414.29.397.188.745.465 1.019.808.278.355.485.76.612 1.193.144.472.216.963.21 1.457v4.542a.56.56 0 01-.115.375.435.435 0 01-.333.127H60.44a.492.492 0 01-.364-.106.554.554 0 01-.09-.359v-4.566a2.405 2.405 0 00-.1-.702 1.733 1.733 0 00-.317-.602 1.695 1.695 0 00-.528-.422 1.87 1.87 0 00-1.468-.027 1.446 1.446 0 00-.528.38 1.827 1.827 0 00-.364.597c-.09.25-.135.515-.131.782v4.54c0 .327-.148.49-.444.49h-1.051a.47.47 0 01-.36-.105.554.554 0 01-.09-.36V17.9a2.49 2.49 0 00-.094-.692 1.817 1.817 0 00-.312-.602 1.472 1.472 0 00-.528-.428 1.684 1.684 0 00-.776-.163 1.762 1.762 0 00-1.193.464 1.696 1.696 0 00-.591 1.288v4.751a.37.37 0 01-.117.285.396.396 0 01-.295.116h-1.138a.453.453 0 01-.332-.105.433.433 0 01-.106-.308V14.68a.322.322 0 01.174-.317zm20.773 7.612c-.39.337-.832.608-1.31.803a4.082 4.082 0 01-1.584.295 4.449 4.449 0 01-1.718-.37 4.549 4.549 0 01-1.441-.956 4.486 4.486 0 01-.988-1.42 4.224 4.224 0 01-.364-1.752c.001-.389.053-.776.153-1.152a4.371 4.371 0 011.093-1.963 4.276 4.276 0 011.943-1.162 4.369 4.369 0 013.178.327c.304.154.59.342.85.56.262.22.496.47.697.745.267.375.468.793.597 1.235.131.476.195.968.19 1.462.006.111.006.222 0 .333a.401.401 0 01-.082.217.39.39 0 01-.207.116c-.124.03-.252.042-.38.037h-6.073c.053.31.168.606.338.871a2.568 2.568 0 001.328 1.035c.26.088.533.132.807.132.197 0 .393-.02.586-.058.18-.04.357-.097.528-.169a2.46 2.46 0 00.454-.232c.128-.082.25-.174.364-.275.05-.043.103-.082.159-.116a.306.306 0 01.158-.048.31.31 0 01.138.043c.06.034.113.08.153.137.126.153.226.275.316.375l.211.254a.983.983 0 01.117.174c.024.047.037.1.036.153a.526.526 0 01-.258.38l.01-.011zm-3.03-6.134c-.268 0-.534.05-.782.148a2.537 2.537 0 00-.697.396c-.203.172-.38.37-.528.592-.154.225-.27.474-.343.736h4.827a2.6 2.6 0 00-.333-.76 2.485 2.485 0 00-.56-.586c-.214-.17-.457-.3-.718-.385a2.699 2.699 0 00-.865-.142m7.189-.667a2.47 2.47 0 01.385-.4c.152-.13.32-.239.502-.323a2.7 2.7 0 01.644-.211 3.86 3.86 0 01.818-.074c.471-.01.938.09 1.362.296.388.188.727.463.993.802.278.353.485.757.612 1.188.139.47.208.957.206 1.447v4.545a.496.496 0 01-.116.364.417.417 0 01-.333.127h-1.052a.49.49 0 01-.365-.105.528.528 0 01-.094-.36v-4.574a1.984 1.984 0 00-.122-.702 1.84 1.84 0 00-.364-.602 1.694 1.694 0 00-1.91-.465c-.434.16-.789.483-.988.9-.112.23-.17.482-.169.737v4.45a2.22 2.22 0 010 .258.75.75 0 01-.058.232.353.353 0 01-.338.227h-1.145a.446.446 0 01-.328-.105.41.41 0 01-.105-.307V12.108a.386.386 0 01.428-.409h1.124a.402.402 0 01.285.116.38.38 0 01.131.285l-.003 3.072zm10.028-.187a2.545 2.545 0 00-1.68.629 2.35 2.35 0 00-.559.718 2.25 2.25 0 00-.245.93v3.518a.082.082 0 000 .031v1.895c0 .149-.069.222-.211.222h-.354a.195.195 0 01-.226-.222v-8.169a.196.196 0 01.081-.174.29.29 0 01.19-.058h.28a.238.238 0 01.185.068.27.27 0 01.063.185v1.056c.156-.213.333-.409.528-.586.171-.171.364-.32.572-.444a2.64 2.64 0 01.666-.28 3.384 3.384 0 012.536.386c.486.335.873.794 1.12 1.33.118-.29.284-.56.49-.796a2.72 2.72 0 01.67-.565 3.08 3.08 0 01.813-.338c.294-.075.597-.112.9-.111a3.093 3.093 0 012.83 1.718c.175.351.29.73.338 1.12.025.155.04.312.043.469v5.126a.294.294 0 01-.074.226.245.245 0 01-.195.082h-.254a.254.254 0 01-.206-.069.37.37 0 01-.053-.226v-5.137a3.27 3.27 0 00-.19-.94 2.582 2.582 0 00-.486-.813 2.382 2.382 0 00-.766-.573 2.303 2.303 0 00-1.03-.217 2.48 2.48 0 00-.876.148 2.397 2.397 0 00-1.25 1.046 2.287 2.287 0 00-.28.792 6 6 0 00-.082.992v4.675a.286.286 0 01-.17.284.254.254 0 01-.108.02h-.258a.27.27 0 01-.211-.07.37.37 0 01-.053-.226v-5.133a1.48 1.48 0 00-.048-.454 2.526 2.526 0 00-.258-.797 2.294 2.294 0 00-.528-.655 2.365 2.365 0 00-1.642-.618m10.627 3.938c.019.101.03.204.032.306.005.123.024.246.058.364.107.396.277.771.502 1.114.215.328.48.62.786.865.308.241.651.432 1.019.565.38.136.783.204 1.188.2.226.002.452-.015.675-.053a3.23 3.23 0 00.581-.153 3.44 3.44 0 00.528-.232c.158-.095.311-.195.459-.301.048-.03.094-.064.137-.1l.143-.112a.87.87 0 01.127-.082.195.195 0 01.105-.043c.037 0 .074.032.121.09.048.059.132.196.169.254a.32.32 0 01.047.138.061.061 0 010 .053.13.13 0 01.037.069 2.05 2.05 0 01-.185.2 3.04 3.04 0 01-.258.2 4.83 4.83 0 01-1.193.612 4.11 4.11 0 01-1.4.227 4.356 4.356 0 01-1.73-.349 4.529 4.529 0 01-2.392-2.386 4.223 4.223 0 01-.36-1.727 4.43 4.43 0 01.603-2.249 4.1 4.1 0 01.691-.9c.256-.27.545-.506.861-.701a4.611 4.611 0 011.055-.455c.395-.107.801-.16 1.21-.158.388-.004.775.044 1.15.142.369.091.724.229 1.057.41a4.24 4.24 0 011.597 1.561c.201.345.357.714.465 1.098.114.417.177.845.19 1.277 0 .153-.074.232-.217.232l-7.858.024zm2.671-3.853a3.44 3.44 0 00-.966.433 3.852 3.852 0 00-1.382 1.583 3.893 3.893 0 00-.323 1.029h7.291a3.353 3.353 0 00-.409-1.262 3.706 3.706 0 00-1.927-1.678 3.639 3.639 0 00-1.304-.237 4.14 4.14 0 00-.448 0c-.179.023-.355.06-.528.111m15.142 7.659a.19.19 0 01-.053.164.2.2 0 01-.163.058h-.354a.193.193 0 01-.17-.053.187.187 0 01-.048-.078.188.188 0 01-.008-.09V21.04c-.09.148-.19.3-.291.459a2.058 2.058 0 01-.338.39 4.222 4.222 0 01-2.977 1.188 4.336 4.336 0 01-1.177-.159 4.56 4.56 0 01-1.964-1.156 4.63 4.63 0 01-.702-.9 4.363 4.363 0 01-.454-1.055 4.31 4.31 0 01.439-3.436c.193-.33.429-.633.702-.9a4.538 4.538 0 013.136-1.299c.282 0 .563.03.839.09.271.057.536.14.792.246a4.642 4.642 0 011.362.887c.115.12.223.247.323.38l.316.448V11.84a.101.101 0 01.008-.046.106.106 0 01.029-.036.107.107 0 01.041-.029.108.108 0 01.049-.008h.48a.166.166 0 01.139.046c.018.018.031.04.039.064s.011.05.007.075l-.002 10.798zm-8.05-4.08c-.005.487.09.97.28 1.42a3.761 3.761 0 001.92 1.99c.443.196.924.297 1.41.294a3.66 3.66 0 001.43-.284 3.839 3.839 0 001.178-.792c.343-.34.616-.743.802-1.188.197-.453.298-.942.296-1.436a3.528 3.528 0 00-.289-1.422 3.747 3.747 0 00-1.948-2.006 3.544 3.544 0 00-2.846 0 3.58 3.58 0 00-1.161.807c-.333.343-.6.743-.787 1.183a3.66 3.66 0 00-.284 1.43m9.222-6.817a.491.491 0 01.036-.211.18.18 0 01.153-.095h.481a.156.156 0 01.098.023c.03.018.053.045.065.078.027.065.04.135.037.206v.258c0 .132 0 .217-.069.254a.388.388 0 01-.245.053h-.246a.494.494 0 01-.253-.047.185.185 0 01-.074-.169l.017-.35zm.042 2.734c0-.148.069-.221.217-.221h.359a.197.197 0 01.222.221v8.167a.197.197 0 01-.211.222h-.354c-.158 0-.232-.074-.232-.222l-.001-8.167zm10.273 7.033v-.529a3.97 3.97 0 01-.66.844 3.91 3.91 0 01-.847.645c-.312.182-.648.32-.998.41-.359.1-.73.15-1.103.147-.4.002-.798-.053-1.183-.163a4.448 4.448 0 01-1.055-.454 4.74 4.74 0 01-1.616-1.608 4.772 4.772 0 01-.454-1.056 4.527 4.527 0 012.045-5.03c.33-.2.685-.355 1.056-.46a4.403 4.403 0 011.18-.164 4.233 4.233 0 012.097.552c.316.175.608.39.871.639.261.253.486.54.67.854v-1.675a.195.195 0 01.007-.087.185.185 0 01.045-.074.187.187 0 01.159-.056h.354c.153 0 .232.074.232.217v8.181a.189.189 0 01-.074.169.34.34 0 01-.179.053h-.28c-.174 0-.264-.082-.264-.245l-.003-1.11zm.042-2.952a3.408 3.408 0 00-.301-1.41 3.895 3.895 0 00-.807-1.177 3.81 3.81 0 00-1.188-.807c-.44-.2-.917-.304-1.399-.306-.48-.002-.955.1-1.391.3a3.769 3.769 0 00-1.156.809 3.976 3.976 0 00-.808 1.171 3.455 3.455 0 00-.295 1.41c-.001.488.096.97.285 1.42.18.44.441.844.77 1.188a3.71 3.71 0 001.151.818c.441.201.92.304 1.404.301.495.004.984-.096 1.436-.295.441-.19.843-.463 1.183-.803a3.87 3.87 0 00.813-1.171c.201-.454.304-.946.301-1.442M10.991 11.522a.909.909 0 00-.355-.069.594.594 0 00-.195-.042c-.323 0-.642.07-.935.206a2.536 2.536 0 00-.844.618 3.991 3.991 0 00-.865 1.584 5.66 5.66 0 00-.188 2.021c.096.69.294 1.36.586 1.991a50.36 50.36 0 001.124 2.318l-.46.971a17.883 17.883 0 01-.9 1.647 21.623 21.623 0 01-1.266 1.905 9.502 9.502 0 01-1.578 1.695c-.555.5-1.205.882-1.911 1.124-.48.159-.998.168-1.483.026a2.038 2.038 0 01-1.056-.802 3.252 3.252 0 01-.528-1.336 4.57 4.57 0 01-.055-.659c.003-.323.042-.646.116-.96a4.254 4.254 0 011.97-2.804 4.86 4.86 0 012.053-.643.343.343 0 00.322-.343.386.386 0 00-.082-.246.422.422 0 00-.245-.131 6.92 6.92 0 00-4.023.306L0 19.995V6.027S1.055 1.587 4.71.34l.11.121.064.07h.025l.36.39.2.226c.179.206.39.459.612.745.094.11.184.232.284.353.1.121.29.39.444.602.073.1.153.206.226.317.074.11.196.275.29.417l.227.343.222.353c.058.082.111.169.169.265.057.095.179.3.275.454l.3.527c.101.185.201.364.296.528l.295.56c.082.158.164.327.246.486.082.158.159.333.237.527.079.195.206.46.306.702.1.243.2.486.295.737.043.095.074.195.11.295a.499.499 0 01.033.082c.063.18.131.359.195.528.064.168.121.37.185.56a.302.302 0 000 .062c.063.222.132.444.196.665v.059a.131.131 0 00.026.094v.07"/><path d="M10.685 22.93c.148.317.285.628.41.94a28.641 28.641 0 01-1.669 4.751c-.095.196-.185.4-.29.607-.106.206-.196.41-.302.618-.105.208-.21.409-.327.622l-.338.623a33.005 33.005 0 01-2.016 3.167l-.465.644a34.84 34.84 0 01-1.526 1.98C2.544 36.17.992 34.602 0 31.435V28.71a4.59 4.59 0 001.483.095 6.604 6.604 0 001.537-.37 6.558 6.558 0 001.731-.871 10.21 10.21 0 001.653-1.442 18.242 18.242 0 002.602-3.732l.375-.708c.116-.232.237-.47.353-.708.328.644.64 1.299.956 1.953m1.161-5.07v.982c.004.176-.005.353-.026.528-.026.195 0 .333-.036.501a10.303 10.303 0 00-.19-.375l-.676-1.362a24.518 24.518 0 00.797-2.861c.032.285.058.565.082.85v.237a1.253 1.253 0 000 .143v1.372"/><path d="M17.949 17.514a47.812 47.812 0 011.718-1.811 10.032 10.032 0 00-.868 1.849 22.51 22.51 0 00-.797 2.602 32.014 32.014 0 00-.602 3.036 21.713 21.713 0 00-.259 3.167c-.017.992.053 1.983.211 2.962.122.803.379 1.58.76 2.296-4.55 2.883-8.171 5.147-8.171 5.147a7.654 7.654 0 01-5.765.121 38.754 38.754 0 001.51-1.969c.158-.217.311-.428.464-.65a37.766 37.766 0 002.017-3.167l.338-.622c.116-.211.221-.418.327-.623.105-.205.206-.417.301-.618l.29-.607a28.65 28.65 0 001.669-4.75c.131.327.245.649.348.96a12.74 12.74 0 00-.807 1.615c-.612 1.468-.771 2.523-.486 3.167a.27.27 0 00.105.185c.074.072.156.134.246.185l.269.142c.053.03.11.05.168.063.15.05.307.072.465.069.467-.01.916-.18 1.272-.48a3.76 3.76 0 001.056-1.542 5.215 5.215 0 00.298-2.262 9.183 9.183 0 00-.695-2.782 54.754 54.754 0 012.904-3.748c.56-.647 1.132-1.293 1.718-1.937"/><path d="M21.95 12.578c-.369.333-.765.69-1.177 1.082a62.907 62.907 0 00-1.657 1.61 76.816 76.816 0 00-1.731 1.8 73.032 73.032 0 00-1.7 1.916 42.246 42.246 0 00-1.431 1.763c-.439.57-.866 1.12-1.246 1.658a21.01 21.01 0 00-.67-1.473c-.185-.364-.37-.728-.56-1.093 0-.169.026-.333.037-.502.01-.168 0-.337.026-.527v-2.354a1.3 1.3 0 010-.142v-.24a7.74 7.74 0 00-.082-.85c.01-.091.027-.181.053-.27.124-.612.165-1.24.121-1.863a2.174 2.174 0 00-.428-1.22c-.12-.16-.28-.284-.464-.36a.264.264 0 000-.068.131.131 0 00-.027-.095v-.058c-.063-.222-.131-.443-.195-.665a.302.302 0 010-.063c-.063-.19-.127-.375-.185-.56a7.172 7.172 0 00-.196-.527.49.49 0 00-.032-.082c-.036-.1-.068-.2-.11-.296a21.368 21.368 0 00-.295-.736c-.1-.24-.206-.475-.306-.702-.1-.226-.159-.343-.238-.528-.078-.184-.158-.327-.245-.486l-.293-.558a8.305 8.305 0 00-.295-.527l-.298-.531c-.095-.153-.185-.312-.275-.454-.09-.143-.114-.176-.168-.261l-.222-.354-.227-.343c-.095-.142-.195-.28-.29-.417a10.902 10.902 0 00-.227-.316c-.153-.212-.301-.418-.443-.603a5.947 5.947 0 00-.285-.353c-.222-.285-.433-.528-.612-.745L5.282.94 4.91.53c1.806.529 11.086 3.66 17.04 12.032m4.973 13.415a830.674 830.674 0 01-6.736 4.318 12.193 12.193 0 01-.285-2.668c-.01-1.06.054-2.117.19-3.167.154-1.133.37-2.255.65-3.363.274-1.106.626-2.19 1.055-3.247.395-.989.874-1.942 1.431-2.85.043-.074.09-.137.132-.206a27.71 27.71 0 013.563 11.187"/><path d="M29.289 24.419l-2.365 1.554a27.71 27.71 0 00-3.553-11.191 8.91 8.91 0 011.7-1.932c.19-.153.274-.295.245-.417a.529.529 0 00-.295-.296 2.156 2.156 0 00-.65-.163 6.739 6.739 0 00-.807-.026 5.3 5.3 0 00-.76.1 1.228 1.228 0 00-.528.246l-.323.284C15.983 4.227 6.715 1.091 4.91.531L4.883.505 4.82.462l-.11-.12a7.264 7.264 0 014.751.12c3.632 1.933 19.85 12.343 19.85 12.343s7.738 5.564 0 11.618"/></g><defs><clipPath id="clip0"><path fill="#fff" d="M0 0h125v37.41H0z"/></clipPath></defs></svg>