<svg width="40" height="40" fill="none" xmlns="http://www.w3.org/2000/svg"><circle cx="20" cy="20" r="20" fill="#3F408C"/><path d="M18.937 32.321h1.738v-2.198c3.962-.272 6.134-2.85 6.134-5.619 0-4.017-3.312-4.75-6.134-5.483v-5.13c1.058.326 1.71 1.14 1.818 2.199h4.099c-.245-3.23-2.525-5.049-5.917-5.32V8.571h-1.738v2.199c-3.528.271-6.08 2.361-6.08 5.564 0 4.017 3.285 4.805 6.08 5.51v5.185c-1.248-.272-1.9-1.113-2.008-2.362h-4.072c.082 3.257 2.579 5.13 6.08 5.429v2.225zm3.936-7.654c0 1.222-.814 2.172-2.198 2.416v-4.75c1.275.434 2.198 1.058 2.198 2.334zm-6.053-8.523c0-1.384.869-2.144 2.117-2.334v4.696c-1.248-.435-2.117-1.086-2.117-2.362z" fill="#fff"/></svg>