<?xml version="1.0" encoding="utf-8"?>
<!-- Generator: Adobe Illustrator 23.0.2, SVG Export Plug-In . SVG Version: 6.00 Build 0)  -->
<svg version="1.1" id="Layer_1" xmlns="http://www.w3.org/2000/svg" xmlns:xlink="http://www.w3.org/1999/xlink" x="0px" y="0px"
	 viewBox="0 0 439 100" style="enable-background:new 0 0 439 100;" xml:space="preserve">
<style type="text/css">
	.st0{fill:#FFFFFF;}
</style>
<title>Dxchange LOGO</title>
<path class="st0" d="M124,99.7l35.5-50.4c-0.1-0.2-0.3-0.4-0.4-0.6c-6.1-8.6-12.1-17.2-18.2-25.8c-5.2-7.4-10.5-14.9-15.7-22.3
	c-0.1-0.2-0.3-0.4-0.4-0.6c0-0.1-0.1-0.2-0.1-0.3h17.6c0.1,0.2,0.3,0.5,0.4,0.7l24.6,36c0.1,0.2,0.3,0.4,0.5,0.7
	c0.1-0.1,0.2-0.1,0.3-0.2c0.2-0.2,0.3-0.5,0.5-0.7l12.7-18.6c0.2-0.3,0.4-0.5,0.5-0.8c0.7-0.1,16-0.1,16.6,0
	c0.1,0.2-0.1,0.3-0.1,0.4c-0.7,1.1-1.5,2.2-2.2,3.2l-19.3,28.1c-0.2,0.2-0.3,0.5-0.5,0.7c7.4,10.8,14.8,21.7,22.2,32.5
	c-0.1,0-0.2,0.1-0.4,0.1c-0.2,0-0.4,0-0.6,0h-14.9c-0.9,0-0.8,0.1-1.3-0.7l-13-19l-0.5-0.7c-0.2,0.2-0.4,0.4-0.5,0.6
	c-2.1,3.1-4.3,6.2-6.4,9.3l-19,27.6c-0.1,0.2-0.3,0.4-0.4,0.6L124,99.7z"/>
<path class="st0" d="M331.3,73.9h6.9c0.1,0,0.3,0,0.4,0.1c0,0.2,0.1,0.3,0.1,0.4c0.2,1.8,1.1,3.4,2.6,4.4c1,0.7,2.1,1.2,3.3,1.4
	c1.6,0.3,3.3,0.2,4.9-0.3c1-0.3,1.9-0.8,2.7-1.5c1.8-1.6,2.3-4.4,1.5-6.5c-0.4-1-1.1-1.8-2-2.4c-1-0.7-2.2-1.1-3.4-1.3
	c-0.7-0.1-1.4-0.2-2.1-0.2c-2.2,0-4.4-0.4-6.5-1.2c-4-1.6-6.5-4.5-7.7-8.6c-0.6-2.2-0.9-4.6-0.6-6.9c0.1-1.9,0.6-3.7,1.4-5.4
	c1.8-3.7,4.7-6.1,8.5-7.3c2.8-0.9,5.8-1.1,8.7-0.5c1,0.2,2,0.6,2.8,1.1c0.1,0.1,0.3,0.1,0.4,0.2c0,0,0,0,0.1,0
	c0.5-0.6,1-1.2,1.4-1.8c0.5-0.6,1-1.2,1.5-1.8c0.7,0.4,1.3,0.9,1.9,1.4c0.6,0.4,1.2,0.9,1.8,1.3c0.6,0.4,1.2,0.9,1.8,1.4
	c-0.5,0.8-1.1,1.4-1.6,2.1c-0.5,0.7-1.1,1.4-1.6,2.1c0.1,0.1,0.1,0.3,0.2,0.4c1.7,2,2.6,4.5,2.8,7.1c0.2,2.3-0.1,4.6-0.9,6.7
	c-0.9,2.4-2.6,4.5-4.9,5.7c-0.1,0.1-0.2,0.1-0.4,0.2c0.2,0.1,0.4,0.2,0.5,0.3c0.7,0.4,1.4,0.9,2,1.4c1.8,1.5,3,3.6,3.3,5.9
	c0.3,2,0.2,4.1-0.3,6.1c-1,3.4-3.1,6-6.2,7.6c-1.6,0.8-3.4,1.4-5.2,1.7c-1.7,0.3-3.4,0.3-5.1,0.1c-2.6-0.2-5.2-1.1-7.4-2.5
	c-3.1-1.9-5.1-5.2-5.6-8.8c-0.1-0.5-0.1-1-0.1-1.5C331.3,74.3,331.3,74.1,331.3,73.9z M354.2,52.8c0-1.2-0.2-2.3-0.6-3.4
	c-1.1-3.2-4.3-5.2-7.7-4.9c-2.8,0.2-4.9,1.5-6.2,4c-1.4,2.6-1.4,5.4-0.3,8.1c0.9,2.3,2.7,3.7,5,4.3c0.8,0.2,1.6,0.3,2.4,0.2
	c3.2-0.2,5.4-1.7,6.7-4.5C354,55.4,354.2,54.1,354.2,52.8L354.2,52.8z"/>
<path class="st0" d="M283.3,42.4c0.2-0.6,0.1-1.2,0.2-1.8s0.1-1.2,0.1-1.9c0.1,0,0.2-0.1,0.4-0.1h6.4c0.1,0,0.2,0,0.3,0
	c0,0.1,0.1,0.3,0.1,0.4c0,0.2,0,0.3,0,0.5v28c0,0.3,0,0.6,0,0.9c-0.1,0-0.2,0.1-0.4,0.1c-2.1,0-4.2,0-6.3,0c-0.1,0-0.2,0-0.3,0
	c-0.1-0.4-0.2-0.8-0.2-1.3c0-0.4-0.1-0.9-0.1-1.3c0-0.5-0.1-0.9-0.1-1.4c-0.1,0.1-0.2,0.2-0.3,0.3c-0.9,1.4-2.2,2.5-3.7,3.2
	c-2.2,1.1-4.7,1.6-7.2,1.4c-1.7-0.1-3.3-0.4-4.9-1c-4.2-1.6-6.9-4.5-8.3-8.7c-0.5-1.7-0.8-3.5-0.9-5.2c-0.1-2,0.1-4,0.6-6
	c0.9-3.3,2.6-6,5.4-8c1.7-1.2,3.7-2,5.8-2.4c1.6-0.3,3.3-0.4,4.9-0.3c2.2,0.2,4.2,0.9,6,2.2c0.8,0.5,1.4,1.2,2,2
	c0.1,0.1,0.1,0.2,0.2,0.3C283.2,42.4,283.2,42.4,283.3,42.4z M283.2,53.6c0-1.3-0.2-2.5-0.7-3.7c-1-2.6-2.8-4.3-5.5-5
	c-1.6-0.4-3.2-0.4-4.8-0.1c-3.1,0.8-5.2,2.7-6.1,5.7c-0.6,1.9-0.6,3.9-0.1,5.8c0.9,3.1,2.8,5.1,5.9,5.9c1.2,0.3,2.5,0.4,3.7,0.3
	c2.9-0.4,5-1.8,6.4-4.4C282.9,56.8,283.2,55.2,283.2,53.6z"/>
<path class="st0" d="M232.2,42.4l0.5-0.6c2-2.2,4.8-3.5,7.7-3.6c1.6-0.1,3.3,0,4.8,0.5c2.8,0.7,5.2,2.7,6.5,5.3
	c0.8,1.5,1.3,3.2,1.5,4.9c0.2,1.4,0.3,2.8,0.3,4.3c0,4.8,0,9.6,0,14.5c0,0.3,0,0.6-0.1,0.9c-0.2,0.1-0.4,0.2-0.7,0.1
	c-3.9,0.1-6.1,0-6.7-0.1c-0.1-0.3-0.1-0.6-0.1-0.9c0-4.8,0-9.6,0-14.5c0-1-0.1-2-0.3-2.9c-0.1-0.6-0.3-1.1-0.6-1.7
	c-0.6-1.5-1.9-2.6-3.4-3.1c-1.6-0.5-3.2-0.5-4.8,0c-2.1,0.7-3.5,2.2-4.4,4.2c-0.4,1-0.7,2.1-0.7,3.2c0,0.3,0,0.7,0,1
	c0,4.6,0,9.1,0,13.7c0,0.3,0,0.6-0.1,0.9c-0.1,0-0.2,0.1-0.4,0.1c-2.2,0-4.5,0-6.7,0c-0.1,0-0.2,0-0.2-0.1c0-0.2,0-0.3,0-0.5
	c-0.1-5.7,0-41,0.1-41.8c0.1-0.1,0.3-0.1,0.4-0.1h6.5c0.1,0,0.2,0,0.4,0c0,0.1,0.1,0.3,0.1,0.4c0,0.5,0,1,0,1.5v13.6
	c0,0.2,0,0.5,0,0.7L232.2,42.4z"/>
<path class="st0" d="M389.6,59.8l4.7,4.6c-0.1,0.1-0.2,0.3-0.3,0.4c-1.1,1.1-2.4,2-3.9,2.6c-2.2,1-4.5,1.6-6.9,1.8
	c-2.5,0.2-5,0-7.4-0.7c-2.9-0.7-5.5-2.4-7.4-4.7c-1.5-1.9-2.6-4.2-3.1-6.6c-0.4-2-0.5-4-0.3-6c0.2-2.2,0.9-4.4,2-6.3
	c2-3.4,4.9-5.6,8.6-6.7c2-0.6,4.1-0.8,6.2-0.7c1.5,0,3,0.3,4.5,0.7c4.8,1.4,7.8,4.6,9.1,9.3c0.6,2.3,0.8,4.7,0.7,7.1
	c0,0.4-0.1,0.9-0.1,1.4c-0.1,0-0.3,0.1-0.4,0.1c-0.2,0-0.5,0-0.7,0h-21.2c-0.3,0-0.6,0-0.9,0.1c0,0.3,0,0.6,0.1,0.9
	c0.5,1.7,1.6,3.1,3.1,4c1,0.6,2.1,1,3.3,1.2c2.6,0.4,5.3,0.1,7.7-0.9c0.9-0.3,1.7-0.8,2.4-1.4C389.4,60,389.5,60,389.6,59.8z
	 M372.8,50.1h10.6c1.6,0,3.2,0,4.8,0c0.2,0,0.4,0.1,0.6-0.2c-0.2-1.6-1-3.1-2.3-4c-0.6-0.5-1.3-0.8-2-1.1c-2.2-0.7-4.5-0.7-6.7,0
	c-2.2,0.7-4,2.4-4.8,4.6C373,49.6,372.9,49.8,372.8,50.1z"/>
<path class="st0" d="M296.8,68.6c-0.1-0.8-0.2-22.2-0.1-29.3c0-0.2,0-0.4,0-0.6c0.7-0.1,1.4-0.1,2.2-0.1c0.7,0,1.5,0,2.2,0
	c0.7,0,1.4,0,2.1,0c0.2,0.4,0.1,0.8,0.2,1.2c0.1,0.4,0.1,0.9,0.2,1.3s0.1,0.8,0.2,1.3c0.1-0.1,0.3-0.2,0.4-0.3
	c0.8-0.8,1.8-1.5,2.7-2.1c2.1-1.4,4.6-2,7.1-1.9c2.7,0,5.2,1,7.3,2.7c1.8,1.5,3.2,3.5,4,5.8c0.5,1.4,0.8,3,0.9,4.5
	c0.1,0.9,0.1,1.9,0.1,2.8c0,4.6,0,9.1,0,13.7c0,0.3,0,0.6,0,0.9c-0.1,0-0.3,0.1-0.5,0.1c-2.2,0-4.4,0-6.5,0c-0.1,0-0.3,0-0.4,0
	c0-0.2-0.1-0.3-0.1-0.4c0-0.2,0-0.4,0-0.7c0-4.8,0-9.6,0-14.4c0-1.2-0.2-2.4-0.6-3.6c-0.8-2.1-2.2-3.7-4.4-4.3
	c-4-1.1-7.8,0.8-9.3,4.8c-0.4,1.1-0.6,2.3-0.5,3.4c0,4.7,0,9.4,0,14.1v0.9c-0.2,0-0.3,0.1-0.5,0.1c-2.1,0-4.2,0-6.3,0
	C297.2,68.6,297,68.6,296.8,68.6z"/>
<path class="st0" d="M220.6,42.2c-0.1,0.1-0.1,0.2-0.2,0.3c-1.5,1.5-2.9,3.1-4.4,4.6l-0.6-0.5c-1.7-1.3-3.7-2-5.8-1.9
	c-4.5,0.2-7.5,3.3-8.1,7.3c-0.2,1.4-0.1,2.8,0.2,4.2c0.8,3,2.7,4.9,5.6,5.7c2,0.6,4.2,0.5,6.1-0.3c0.9-0.3,1.7-0.8,2.4-1.4
	c0.2-0.1,0.3-0.3,0.5-0.4c0.6,0.5,1.1,1.1,1.7,1.6c0.5,0.5,1.1,1.1,1.7,1.6c0.6,0.5,1.1,1.1,1.6,1.7c-0.1,0.1-0.1,0.2-0.2,0.3
	c-2.2,2.1-4.8,3.6-7.9,4.2c-1.5,0.3-3,0.4-4.6,0.3c-1.6-0.1-3.1-0.4-4.6-0.8c-4.9-1.4-8.6-5.4-9.7-10.3c-0.8-3.3-0.8-6.8,0.2-10
	c1.4-4.8,4.4-8,9.1-9.6c3.3-1.1,6.8-1.3,10.2-0.5c2.1,0.5,4,1.5,5.6,2.9C219.8,41.5,220.2,41.8,220.6,42.2z"/>
<path class="st0" d="M-0.1,68.5c0-0.1,0-0.3,0-0.4c0-13.9,0-27.8,0-41.7c0-0.1,0-0.2,0.1-0.2c0.2,0,0.4,0,0.7,0c5.5,0,11.1,0,16.6,0
	c2.8,0,5.7,0.5,8.3,1.6c4.8,1.9,8.2,5.3,10.3,10c1,2.2,1.6,4.6,1.8,7c0.4,3.4,0.1,6.8-0.9,10.1c-2,6.7-7.4,11.7-14.2,13.2
	c-2,0.5-3.9,0.7-6,0.7c-5.3,0-10.6,0-15.9,0C0.5,68.7,0.2,68.6-0.1,68.5z M7.9,33.7v26.1c0,0.2,0,0.3,0,0.5s0,0.3,0.1,0.4
	c0.2,0,0.4,0,0.6,0h8.4c1.1,0,2.1-0.1,3.2-0.3c2.4-0.5,4.5-1.6,6.2-3.4c1.3-1.4,2.3-3.1,2.8-5c0.6-1.9,0.8-3.9,0.7-5.9
	c-0.1-1.7-0.5-3.4-1.1-5c-1.4-3.3-3.7-5.7-7.1-6.9c-1.6-0.5-3.2-0.8-4.8-0.7c-2.7,0-5.4,0-8.2,0C8.4,33.7,8.2,33.7,7.9,33.7
	L7.9,33.7z"/>
<path class="st0" d="M66.7,42.5c0.1-1.3,0.2-2.5,0.2-3.7c0.1,0,0.3-0.1,0.4-0.1c2.2,0,4.4,0,6.6,0c0,0.2,0.1,0.3,0.1,0.5
	c0,0.2,0,0.4,0,0.6c0,9.3,0,18.6,0,27.9c0,0.3,0,0.7-0.1,1c-0.1,0-0.2,0-0.3,0.1h-6.3c-0.1,0-0.2,0-0.3-0.1
	c-0.2-1.3-0.2-2.6-0.4-3.9c-0.1-0.1-0.2,0-0.2,0.1c-1,1.7-2.5,2.7-4.2,3.5c-2.1,1-4.4,1.4-6.7,1.2c-1.4-0.1-2.7-0.3-4.1-0.7
	c-4.6-1.5-7.6-4.5-9.1-9.1c-0.8-2.5-1-5.2-0.8-7.8c0.1-1.6,0.4-3.2,1-4.8c1.7-4.5,4.9-7.3,9.4-8.6c2.1-0.6,4.3-0.8,6.5-0.6
	c2,0.2,3.9,0.9,5.6,2c0.8,0.6,1.6,1.3,2.2,2.1c0.1,0.1,0.1,0.2,0.2,0.3C66.5,42.4,66.5,42.4,66.7,42.5z M58.1,44.6
	c-0.9,0-1.7,0.1-2.6,0.3c-3,0.7-5.1,2.5-6.1,5.5c-0.7,2.2-0.7,4.6,0.1,6.8c0.8,2.3,2.6,4.2,4.9,5c1.4,0.5,2.9,0.7,4.4,0.5
	c3.2-0.4,5.5-2,6.8-4.9c1.1-2.6,1.1-5.5,0-8.1c-0.8-1.9-2.3-3.5-4.2-4.3C60.4,44.9,59.3,44.6,58.1,44.6L58.1,44.6z"/>
<path class="st0" d="M90.1,68.6c-0.2,0-0.4,0.1-0.6,0.1h-6.2c-0.2,0-0.3,0-0.5-0.1c-0.1-0.3-0.1-0.5-0.1-0.8c0-3.2,0-6.3,0-9.5V46.5
	c0-0.3,0-0.5,0-0.8c-0.2-0.2-0.4-0.2-0.7-0.2c-1.3,0-2.7,0-4,0c-0.3,0-0.5,0-0.8,0c0-0.2-0.1-0.3-0.1-0.5c0-1.9,0-3.7,0-5.6
	c0-0.1,0-0.2,0-0.3c0.2-0.2,0.4-0.2,0.6-0.2c1.4,0,2.8,0,4.2,0c0.3,0,0.5,0,0.8-0.1c0-0.2,0-0.5,0-0.7c0-0.8,0-1.5,0-2.3
	c0.1-1.5,0.4-2.9,1-4.2c1.3-3.1,3.7-5,6.9-5.9c3.6-1,7-0.4,10.2,1.3c0.4,0.2,0.8,0.4,1.1,0.7c-0.8,1.9-1.7,3.7-2.7,5.5
	c-0.3,0-0.4-0.2-0.6-0.3c-0.9-0.5-1.9-0.9-3-1.1c-0.8-0.1-1.5-0.1-2.3,0.1c-1.1,0.3-2,1-2.5,2c-0.3,0.6-0.5,1.3-0.6,2
	c-0.1,0.9-0.1,1.9,0,2.8c0.2,0.2,0.4,0.2,0.6,0.2h3.4c1.3,0,2.7,0,4,0c0.2,0,0.5,0,0.7,0.1c0.1,0.6,0.1,5.7,0,6.4
	c-0.3,0.1-0.5,0.1-0.8,0.1H91c-0.3,0-0.5,0-0.8,0.1c-0.1,0.3-0.1,0.5-0.1,0.8c0,3.4,0,6.7,0,10.1v11.1
	C90.2,67.9,90.1,68.2,90.1,68.6z"/>
<path class="st0" d="M111.5,68.5c-0.1,0-0.2,0.1-0.3,0.1h-6.7c-0.1,0-0.2,0-0.3-0.1c0-0.1,0-0.2-0.1-0.3c0-9.8,0-19.5,0-29.3
	c0-0.1,0-0.2,0.1-0.2c0.1,0,0.2,0,0.3-0.1c2.1,0,4.2,0,6.4,0c0.1,0.1,0.1,0.3,0.1,0.4c0.2,0.9,0.3,1.8,0.5,2.8
	c0.1-0.1,0.2-0.2,0.3-0.3c0.3-0.3,0.5-0.7,0.8-1c1.3-1.5,3.2-2.4,5.2-2.6c1.2-0.2,2.5-0.2,3.7,0c1.7,0.2,3.4,0.8,4.9,1.8
	c0.5,0.3,0.9,0.6,1.2,1c-0.3,0.7-0.7,1.5-1.1,2.2c-0.4,0.7-0.7,1.4-1.1,2.1c-0.4,0.7-0.7,1.5-1.2,2.2c-0.2-0.2-0.4-0.3-0.6-0.5
	c-1.2-0.9-2.7-1.4-4.2-1.4c-1,0-2,0.1-3,0.3c-2.5,0.7-4.1,2.4-4.7,4.9c-0.2,0.8-0.3,1.7-0.3,2.6c0,4.9,0,9.7,0,14.6
	C111.6,68,111.6,68.2,111.5,68.5z"/>
<path class="st0" d="M130.5,38.6c0.1,0,0.3,0,0.4,0h6.9c0,0.2,0.1,0.3,0.1,0.5c0,0.2,0,0.4,0,0.7v28.9c-0.1,0.1-0.3,0.1-0.4,0.1
	c-2.2,0-4.4,0-6.6,0c-0.1,0-0.2,0-0.3-0.1C130.5,68,130.4,39.6,130.5,38.6z"/>
<path class="st0" d="M138.6,30.2c-0.1,0.4-0.1,0.8-0.2,1.2c-0.3,1.3-1.2,2.3-2.4,2.7c-1.4,0.6-2.9,0.5-4.2-0.2
	c-1.1-0.6-1.8-1.6-2-2.8c-0.2-0.7-0.1-1.5,0.1-2.2c0.5-1.7,1.6-2.7,3.3-3c0.8-0.2,1.7-0.1,2.5,0.2c1.6,0.5,2.8,2,2.8,3.7
	C138.6,30,138.6,30.1,138.6,30.2L138.6,30.2z"/>
<path class="st0" d="M403.1,48.2v5.6h-1.7V37h7.5c7.5,0,7.5,11.1,0,11.2H403.1z M403.1,46.6h5.8c5.2,0,5.2-8,0-8h-5.8L403.1,46.6z"
	/>
<path class="st0" d="M418.7,41.9l0.1,1.9c0.8-1.6,2.3-2.1,3.8-2.1c1,0,1.9,0.3,2.7,0.8l-0.7,1.3c-0.6-0.4-1.3-0.6-2-0.6
	c-2,0-3.7,1.6-3.7,3.7c0,0,0,0.1,0,0.1v6.7h-1.6V41.9H418.7z"/>
<path class="st0" d="M438.2,47.8c0,3.7-2.6,6.1-6.1,6.1s-6.1-2.4-6.1-6.1c0-3.7,2.5-6.1,6.1-6.1C435.5,41.7,438.2,44.2,438.2,47.8z
	 M427.6,47.8c0,2.7,1.9,4.6,4.5,4.6s4.5-1.8,4.5-4.6c0-2.7-1.8-4.7-4.5-4.7S427.6,45.1,427.6,47.8L427.6,47.8z"/>
</svg>
