<svg width="100" height="44" fill="none" xmlns="http://www.w3.org/2000/svg"><g clip-path="url(#clip0)" fill="#fff"><path d="M25.499 35.41h-5.353a502.191 502.191 0 00-2.817-2.84c-.542-.558-1.076-1.141-1.643-1.684a.76.76 0 00-.16-.12l-.837-.837a.379.379 0 01-.008-.092.248.248 0 01-.04.048l-2.633-2.641-.092.064c.128-.184.08-.327-.111-.518a7.962 7.962 0 01-.878-.92c-.247-.311-.399-.275-.67-.016-2.928 2.85-5.884 5.689-8.826 8.529-.343.327-.694.662-1.085 1.03l-.35.327V5.383l3.74.973c-.015 4.62-.007 17.216-.007 20.025v.494c2.266-2.202 4.468-4.356 6.702-6.535.127.12.255.224.375.344l.092.092c2.29 2.306 4.572 4.612 6.869 6.91 2.575 2.578 5.153 5.153 7.732 7.724z"/><path d="M28.993 12.937c-.032 6.75-.064 18.244-.092 22.473v.072a1.79 1.79 0 01-.048.263c-.144-.135-.264-.23-.368-.334-.007 0-.015-.017-.023-.017a14584.236 14584.236 0 01-16.156-15.997c-.256-.247-.256-.398.008-.638a54.78 54.78 0 001.97-1.978c.304-.32.488-.31.79.008a3454.32 3454.32 0 009.168 9.302c.276.288.582.552.965.926.016-.383.04-.622.04-.87V11.964l3.746.973zM43.99 7.023h2.299l1.654 6.711 1.85-6.711h1.78l1.849 6.711 1.655-6.711h2.298l-2.643 9.587h-2.493l-1.563-5.656-1.563 5.656H46.62l-2.63-9.587zm12.988 4.79a4.943 4.943 0 014.984-4.986 4.943 4.943 0 014.986 4.986 4.943 4.943 0 01-4.986 4.985 4.943 4.943 0 01-4.984-4.985zm7.78 0a2.728 2.728 0 00-2.796-2.85 2.728 2.728 0 00-2.794 2.85 2.727 2.727 0 002.794 2.85 2.729 2.729 0 002.795-2.85zm12.465 4.793h-2.192v-5.574L72.55 15.1h-.247l-2.482-4.068v5.574h-2.192V7.023h2.192l2.601 4.26 2.602-4.26h2.193l.007 9.583zm7.124-2.109v2.11H78.32V7.022h5.958v2.109h-3.77v1.588h3.424v2.082h-3.424V14.5l3.839-.004zm8.219-7.474v9.587h-1.644l-3.697-5.204v5.204h-2.192V7.023h1.644l3.698 5.204V7.023h2.191zM46.867 18.119v9.59h-2.192v-9.59h2.192zm8.629 0v9.59h-1.644l-3.697-5.205v5.204h-2.192v-9.59h1.644l3.697 5.205v-5.204h2.192zm6.166 2.108v1.848h3.562v2.115h-3.562v3.518h-2.191v-9.59h5.82v2.11h-3.629zm3.974 2.684a4.944 4.944 0 014.985-4.985 4.942 4.942 0 014.985 4.985 4.941 4.941 0 01-4.987 4.981 4.941 4.941 0 01-4.983-4.981zm7.78 0a2.727 2.727 0 00-2.795-2.85 2.728 2.728 0 00-2.794 2.85 2.728 2.728 0 002.794 2.85 2.728 2.728 0 002.794-2.85zm6.11 1.644h-1.04v3.153h-2.192v-9.59h3.835a3.277 3.277 0 013.287 3.287 3.16 3.16 0 01-1.767 2.78l2.04 3.52h-2.355l-1.808-3.15zm-1.04-1.918h1.642a1.16 1.16 0 001.096-1.232 1.16 1.16 0 00-1.096-1.233h-1.642v2.465zM90.2 25.594v2.114h-6.026v-9.59h5.957v2.11h-3.77v1.588h3.424v2.082h-3.423v1.696H90.2zm5.723 2.114l-1.616-2.767-1.616 2.767H90.2l2.862-4.916-2.726-4.67h2.493l1.479 2.533 1.479-2.534h2.492l-2.725 4.67 2.862 4.917h-2.494zM37.164 0h-.618v43.926h.618V0zm8.164 35.148h-.46l.276-2.398h-.886l.1-.327h2.198l-.1.327h-.851l-.277 2.398zm1.946-1.538c.055-.064.112-.124.17-.184a1.26 1.26 0 01.183-.15.9.9 0 01.198-.102.672.672 0 01.225-.038.526.526 0 01.248.055.47.47 0 01.168.147.564.564 0 01.092.213.796.796 0 01.008.253l-.152 1.34h-.45l.147-1.297a.48.48 0 000-.141.322.322 0 00-.042-.116.229.229 0 00-.204-.11.394.394 0 00-.156.034.777.777 0 00-.16.092c-.056.042-.108.09-.155.143-.052.057-.1.117-.145.18l-.14 1.212h-.45l.34-2.98h.452l-.177 1.448zm2.487 1.574a.827.827 0 01-.314-.057.719.719 0 01-.41-.426 1.154 1.154 0 01.118-.972 1.248 1.248 0 01.715-.546c.094-.027.192-.041.29-.041a.757.757 0 01.268.043.578.578 0 01.194.116.483.483 0 01.082.617.67.67 0 01-.222.205c-.113.064-.235.11-.361.137a2.18 2.18 0 01-.49.05h-.184a.597.597 0 00.034.21.46.46 0 00.275.285.684.684 0 00.245.04.943.943 0 00.269-.04c.094-.03.184-.07.269-.12v.21a1.207 1.207 0 01-.59.277 1.09 1.09 0 01-.188.012zm.297-1.723a.446.446 0 00-.208.051.628.628 0 00-.178.136.927.927 0 00-.212.436h.183c.101.001.202-.008.301-.029a.806.806 0 00.221-.077.407.407 0 00.139-.116.25.25 0 00.028-.237.255.255 0 00-.147-.142.343.343 0 00-.127-.023zm1.924 1.687l.311-2.725h.46l-.13 1.143h1.354l.131-1.143h.46l-.311 2.724h-.46l.142-1.252h-1.353l-.143 1.252h-.46zm3.737.036a.879.879 0 01-.358-.068.734.734 0 01-.405-.453 1.152 1.152 0 01.042-.784 1.225 1.225 0 01.633-.642c.144-.065.301-.098.46-.096a.864.864 0 01.358.069.706.706 0 01.254.183c.069.08.12.175.152.276a1.138 1.138 0 01-.042.784 1.232 1.232 0 01-.635.637 1.1 1.1 0 01-.459.094zm.108-.32a.46.46 0 00.225-.061.65.65 0 00.188-.166.87.87 0 00.13-.248 1.034 1.034 0 00.022-.546.655.655 0 00-.084-.196.423.423 0 00-.139-.135.35.35 0 00-.189-.051.44.44 0 00-.226.061.617.617 0 00-.19.168.913.913 0 00-.178.561c0 .079.01.157.029.234a.66.66 0 00.084.196.44.44 0 00.138.133.36.36 0 00.19.05zm1.65-1.689h.367l.011.46c.058-.066.115-.128.173-.184a1.63 1.63 0 01.184-.158.818.818 0 01.195-.108.566.566 0 01.417-.003.49.49 0 01.25.263.607.607 0 01.047.192c.056-.067.114-.13.173-.19.057-.057.118-.11.184-.158a.857.857 0 01.197-.106.607.607 0 01.216-.039.453.453 0 01.392.202.532.532 0 01.085.213c.017.083.02.169.01.254l-.153 1.34h-.45l.147-1.298a.48.48 0 000-.14.288.288 0 00-.116-.197.198.198 0 00-.11-.03.345.345 0 00-.142.034.777.777 0 00-.152.092 1.217 1.217 0 00-.151.143c-.052.057-.1.117-.144.18v-.008l-.14 1.22h-.45l.148-1.298a.502.502 0 000-.14.32.32 0 00-.04-.116.235.235 0 00-.08-.08.196.196 0 00-.11-.03.33.33 0 00-.141.033.74.74 0 00-.15.092 1.143 1.143 0 00-.15.144 1.78 1.78 0 00-.143.179l-.14 1.213h-.451l.217-1.97zm4.1 2.009a.827.827 0 01-.314-.057.715.715 0 01-.41-.426 1.155 1.155 0 01-.011-.68c.031-.102.075-.2.13-.292a1.257 1.257 0 01.715-.546 1.04 1.04 0 01.288-.041.762.762 0 01.27.043.587.587 0 01.194.116.483.483 0 01.082.617.661.661 0 01-.223.205 1.26 1.26 0 01-.36.137 2.195 2.195 0 01-.491.05h-.184c0 .072.01.143.034.21a.477.477 0 00.277.285.67.67 0 00.243.04.95.95 0 00.27-.04c.094-.03.184-.07.268-.12v.21a1.16 1.16 0 01-.184.135 1.171 1.171 0 01-.4.142c-.064.01-.129.014-.194.012zm.298-1.723a.45.45 0 00-.208.051.628.628 0 00-.178.136.927.927 0 00-.212.436h.184c.1.001.201-.008.3-.029a.805.805 0 00.223-.077.403.403 0 00.137-.116.248.248 0 00-.119-.379.341.341 0 00-.127-.022zm2.618 1.723a.88.88 0 01-.358-.068.735.735 0 01-.406-.453 1.138 1.138 0 01.042-.784 1.23 1.23 0 01.633-.642c.145-.065.302-.098.46-.096a.867.867 0 01.36.069.712.712 0 01.405.46 1.124 1.124 0 01-.042.784 1.218 1.218 0 01-.635.636 1.104 1.104 0 01-.46.094zm.107-.32a.46.46 0 00.224-.061.628.628 0 00.189-.166.85.85 0 00.131-.248 1.023 1.023 0 00.022-.546.653.653 0 00-.084-.196.424.424 0 00-.139-.135.353.353 0 00-.19-.051.444.444 0 00-.227.061.626.626 0 00-.188.168.91.91 0 00-.178.561c0 .079.009.157.028.234.017.07.046.136.085.196a.45.45 0 00.137.133c.058.033.123.05.19.05zm2.09-.105c-.011.11-.029.228-.051.355a7.44 7.44 0 01-.168.736c-.03.1-.066.198-.106.295h-.282l.3-2.648h-.398l.06-.227.374-.092.011-.085c.014-.13.048-.256.1-.374.05-.113.118-.216.203-.305a.91.91 0 01.67-.281.984.984 0 01.335.054l-.112.32-.04.019a.536.536 0 00-.246-.071.375.375 0 00-.318.163.603.603 0 00-.092.179 1.03 1.03 0 00-.047.221l-.018.16h.655l-.115.322h-.575l-.14 1.259zm1.79.389l.52-2.725h.674c.045.211.092.422.136.632.044.21.092.42.135.633l.119.545.054.336h.038l.13-.336c.035-.08.07-.16.106-.238l.106-.24.593-1.332h.695l-.1 2.724h-.476l.106-2.037.037-.423h-.04l-.155.406c-.018.037-.034.075-.053.113l-.052.113-.788 1.773h-.421l-.388-1.771-.062-.288-.03-.173-.03-.173h-.038c-.01.06-.018.118-.025.177l-.024.178-.05.295-.315 1.81h-.403zm5.524 0h-.368l-.011-.46a3.13 3.13 0 01-.353.343.89.89 0 01-.196.108.592.592 0 01-.217.04.467.467 0 01-.4-.201.575.575 0 01-.093-.214.798.798 0 01-.01-.253l.153-1.341h.452l-.149 1.299a.449.449 0 000 .14.37.37 0 00.042.118c.019.033.046.06.079.08a.204.204 0 00.113.03.345.345 0 00.142-.034.654.654 0 00.151-.097 1.438 1.438 0 00.292-.327l.14-1.214h.451l-.218 1.983zm.956-2.98h.453l-.34 2.98h-.453l.34-2.98zm1.083 1.332h-.398l.058-.211c.085-.02.167-.048.246-.084a.61.61 0 00.16-.115.784.784 0 00.12-.165 7.8 7.8 0 00.128-.238h.215l-.055.491h.708l-.115.322h-.615l-.114.99a.361.361 0 00.048.27.27.27 0 00.226.085.525.525 0 00.172-.027 1.15 1.15 0 00.184-.08v.216a1.08 1.08 0 01-.31.174.944.944 0 01-.317.06.491.491 0 01-.232-.05.379.379 0 01-.15-.137.526.526 0 01-.073-.206.882.882 0 010-.257l.114-1.038zm1.674-.324h.45l-.224 1.972h-.45l.224-1.972zm.268-.39a.237.237 0 01-.177-.065.222.222 0 01-.065-.162c0-.04.009-.078.026-.113a.267.267 0 01.067-.092.327.327 0 01.22-.084c.033 0 .066.006.097.017a.21.21 0 01.075.05.232.232 0 01.048.075.258.258 0 01-.007.205.315.315 0 01-.067.092.33.33 0 01-.098.058.345.345 0 01-.119.02zm1.183.811c.062-.069.122-.132.184-.188a1.43 1.43 0 01.184-.145.652.652 0 01.387-.124.536.536 0 01.27.067c.08.045.148.108.2.184a.808.808 0 01.121.26 1.121 1.121 0 01-.007.65 1.213 1.213 0 01-.34.546 1.296 1.296 0 01-.55.302 1.188 1.188 0 01-.47.02 1.333 1.333 0 01-.127-.028l-.115 1.006h-.45l.338-2.97h.368l.007.42zm-.113 1.185c.056.03.116.052.179.065a1 1 0 00.157.016c.092 0 .184-.02.267-.061a.658.658 0 00.216-.172.838.838 0 00.145-.262 1.02 1.02 0 00.03-.548.606.606 0 00-.065-.177.344.344 0 00-.108-.117.275.275 0 00-.152-.043c-.05 0-.098.01-.144.03a.672.672 0 00-.145.083c-.051.04-.099.083-.142.131a1.712 1.712 0 00-.135.167l-.103.888zm2.184-2.614h.452l-.34 2.98h-.453l.34-2.98zm1.464 3.016a.836.836 0 01-.315-.057.714.714 0 01-.408-.426.98.98 0 01-.059-.348 1.155 1.155 0 01.176-.624 1.22 1.22 0 01.44-.427 1.076 1.076 0 01.564-.16.757.757 0 01.269.043.579.579 0 01.194.116.483.483 0 01.083.617.665.665 0 01-.224.205c-.112.065-.234.11-.36.137a2.18 2.18 0 01-.49.05h-.184c0 .072.01.143.034.21a.463.463 0 00.276.285.683.683 0 00.244.04.942.942 0 00.269-.04c.094-.03.184-.07.27-.12v.21a1.197 1.197 0 01-.591.277 1.11 1.11 0 01-.188.012zM83 33.461a.444.444 0 00-.207.051.628.628 0 00-.179.136.916.916 0 00-.212.436h.184c.1.001.201-.008.3-.029a.808.808 0 00.222-.077.404.404 0 00.138-.116.248.248 0 00-.119-.379.344.344 0 00-.127-.022zm2.668 1.396a.811.811 0 00.226-.03.59.59 0 00.184-.084.432.432 0 00.124-.131.323.323 0 00.046-.17.311.311 0 00-.05-.173.6.6 0 00-.132-.138 1.194 1.194 0 00-.184-.116l-.213-.112a2.687 2.687 0 01-.213-.123 1.001 1.001 0 01-.184-.151.725.725 0 01-.132-.193.694.694 0 01.027-.573.777.777 0 01.216-.253c.099-.074.21-.13.327-.165a1.441 1.441 0 01.552-.055c.05.005.11.01.172.018.061.007.123.02.184.032.06.013.13.03.195.049l-.115.361-.038.018a1.599 1.599 0 00-.633-.155.702.702 0 00-.202.027.488.488 0 00-.155.076.352.352 0 00-.101.118.32.32 0 00-.037.154.318.318 0 00.05.184c.036.056.08.105.133.145.057.046.119.087.184.123l.215.114c.072.04.144.08.214.124.067.04.129.09.184.145.054.053.1.115.132.184a.524.524 0 01.05.236.672.672 0 01-.082.323.863.863 0 01-.23.27 1.135 1.135 0 01-.35.183c-.143.047-.292.07-.442.068a1.826 1.826 0 01-.785-.177l.115-.354.04-.019c.113.067.234.123.359.166.112.037.23.055.349.054zm1.836-1.357h-.397l.058-.211c.084-.02.166-.048.245-.084a.594.594 0 00.16-.115.784.784 0 00.12-.165 7.8 7.8 0 00.128-.238h.216l-.056.491h.71l-.117.322h-.615l-.113.99a.362.362 0 00.047.27.276.276 0 00.226.085.532.532 0 00.173-.027 1.15 1.15 0 00.184-.08v.216a1.062 1.062 0 01-.31.174.944.944 0 01-.317.06.49.49 0 01-.231-.05.385.385 0 01-.15-.137.528.528 0 01-.074-.206.95.95 0 010-.257l.113-1.038zm1.678-.325h.368c0 .105 0 .208-.004.311-.005.103 0 .204 0 .307.038-.07.08-.144.126-.22.044-.076.095-.147.153-.212a.79.79 0 01.184-.159.435.435 0 01.234-.063.5.5 0 01.105.012c.03.006.06.019.085.037l-.092.43a.572.572 0 00-.151-.011.544.544 0 00-.37.141.99.99 0 00-.148.164c-.048.063-.093.134-.145.212l-.116 1.027h-.452l.223-1.976zm2.114 2.009a.834.834 0 01-.315-.057.705.705 0 01-.41-.426 1.155 1.155 0 01.118-.972 1.284 1.284 0 01.714-.546c.095-.027.192-.041.29-.041a.757.757 0 01.268.043.576.576 0 01.195.116.494.494 0 01.158.359.472.472 0 01-.076.258.67.67 0 01-.223.205c-.112.065-.234.11-.361.137-.16.035-.325.052-.49.05h-.183c0 .072.011.143.035.21a.46.46 0 00.276.285.67.67 0 00.243.04.935.935 0 00.269-.04c.094-.03.184-.07.269-.12v.21a1.201 1.201 0 01-.59.277 1.11 1.11 0 01-.187.012zm.297-1.723a.448.448 0 00-.209.051.615.615 0 00-.177.136.828.828 0 00-.134.199.958.958 0 00-.08.237h.185c.1.001.2-.008.3-.029a.81.81 0 00.22-.077.396.396 0 00.139-.116.244.244 0 00-.026-.32.266.266 0 00-.092-.059.34.34 0 00-.126-.022zm2.727 1.687h-.368l-.015-.42a2.135 2.135 0 01-.354.328.781.781 0 01-.183.092.592.592 0 01-.2.033.527.527 0 01-.267-.067.586.586 0 01-.194-.178.82.82 0 01-.115-.257 1.166 1.166 0 01.01-.647 1.256 1.256 0 01.6-.732 1.34 1.34 0 01.287-.12 1.118 1.118 0 01.745.05l.283-.091-.23 2.008zm-.268-1.606a.572.572 0 00-.166-.065.574.574 0 00-.396.044.666.666 0 00-.217.172.861.861 0 00-.152.268 1.106 1.106 0 00-.038.55.63.63 0 00.06.17c.024.047.06.087.103.117a.25.25 0 00.149.044c.049 0 .097-.01.142-.03a.644.644 0 00.141-.084 1.511 1.511 0 00.271-.299l.103-.887zm1.113-.367h.368l.012.46a2.559 2.559 0 01.357-.342.82.82 0 01.195-.108.561.561 0 01.415-.003.46.46 0 01.251.263.66.66 0 01.047.192c.057-.067.115-.13.174-.19.056-.057.118-.11.184-.158a.862.862 0 01.197-.106.592.592 0 01.215-.039.448.448 0 01.392.202.578.578 0 01.086.213c.017.083.02.17.01.254l-.153 1.34h-.45l.147-1.298a.552.552 0 000-.14.32.32 0 00-.04-.117.228.228 0 00-.076-.08.195.195 0 00-.11-.03.338.338 0 00-.142.034.724.724 0 00-.152.092 1.278 1.278 0 00-.151.144c-.052.056-.1.116-.145.179v-.008l-.139 1.22h-.45l.148-1.298a.517.517 0 000-.14.307.307 0 00-.042-.116.233.233 0 00-.079-.08.2.2 0 00-.11-.03.34.34 0 00-.141.033.74.74 0 00-.15.092 1.202 1.202 0 00-.15.144 1.865 1.865 0 00-.143.18l-.14 1.212h-.452l.217-1.97zm3.377 1.528l.037-.022c.086.056.179.1.276.134.088.03.181.047.275.048.05 0 .1-.006.148-.02a.361.361 0 00.113-.052.235.235 0 00.072-.076.193.193 0 00.024-.092.163.163 0 00-.037-.104.41.41 0 00-.098-.084 1.242 1.242 0 00-.14-.073 6.144 6.144 0 01-.16-.072 1.78 1.78 0 01-.16-.083.744.744 0 01-.14-.105.408.408 0 01-.135-.314c0-.083.021-.166.06-.241a.664.664 0 01.174-.209.861.861 0 01.276-.144 1.11 1.11 0 01.357-.054c.086 0 .172.007.257.02.088.013.174.036.256.069l-.12.336-.041.024a.818.818 0 00-.224-.092.858.858 0 00-.227-.033.503.503 0 00-.145.02.38.38 0 00-.11.052.23.23 0 00-.068.075.184.184 0 00-.023.092.185.185 0 00.065.14.73.73 0 00.164.106c.066.032.136.064.213.092.074.03.145.068.211.113.064.041.12.094.164.156a.385.385 0 01.065.226c0 .085-.02.168-.06.243a.68.68 0 01-.176.208.873.873 0 01-.276.145 1.104 1.104 0 01-.355.053 1.518 1.518 0 01-.636-.142l.124-.34z"/></g><defs><clipPath id="clip0"><path fill="#fff" d="M0 0h100v43.926H0z"/></clipPath></defs></svg>