<svg width="90" height="73" viewBox="0 0 90 73" fill="none" xmlns="http://www.w3.org/2000/svg">
<path d="M10.3035 62.6352L12.1447 65.62H7.56828L6.1315 63.1898H3.85984V65.6247H0V55.2266H8.15956C9.0247 55.2366 9.8636 55.525 10.552 56.0491C11.2404 56.5732 11.7417 57.3051 11.9816 58.1364C12.2215 58.9677 12.1872 59.8541 11.8839 60.6644C11.5806 61.4747 11.0244 62.1658 10.2976 62.6352H10.3035ZM3.86103 59.9154H7.42519C7.81189 59.9154 8.28608 59.9154 8.28608 59.2058C8.28608 58.4963 7.81307 58.4963 7.42519 58.4963H3.86103V59.9154Z" fill="white"/>
<path d="M16.7493 53.7422V56.1167H13.1875V53.7422H16.7493ZM16.7493 56.7104V65.6197H13.1875V56.7104H16.7493Z" fill="white"/>
<path d="M23.8422 56.5605C27.3614 56.5605 29.574 57.6899 29.8732 60.4961H26.2356C25.953 59.738 25.1217 59.5323 23.8445 59.5323C22.2564 59.5323 21.3517 59.8587 21.3517 61.1642C21.3517 62.4697 22.2564 62.7973 23.8445 62.7973C25.1217 62.7973 25.953 62.5892 26.2356 61.8312H29.8732C29.5763 64.6373 27.3638 65.7667 23.8422 65.7667C20.058 65.7667 17.7852 64.4659 17.7852 61.1642C17.7852 57.8625 20.058 56.5605 23.8422 56.5605Z" fill="white"/>
<path d="M43.0608 60.407V65.6197H39.4919V61.8627C39.4919 60.3337 38.942 59.6809 37.3385 59.6809C36.2782 59.6941 35.2593 60.095 34.4744 60.8079V65.6185H30.9102V53.7422H34.4744V57.8988C35.7313 57.0083 37.2385 56.54 38.7788 56.5614C40.7927 56.5614 43.0608 57.1858 43.0608 60.407Z" fill="white"/>
<path d="M52.434 59.8444L58.7287 65.62H55.0321L50.458 61.2978L47.2651 63.6274V65.6176H44.5938V55.2266H47.2651V60.6166L54.6738 55.2266H58.7275L52.434 59.8444Z" fill="white"/>
<path d="M62.6784 53.7422V55.9535H60.1406V53.7422H62.6784ZM62.6784 56.8748V65.6197H60.1406V56.8748H62.6784Z" fill="white"/>
<path d="M76.3535 53.7422V65.6185H73.8145V64.2538C73.226 64.7868 72.536 65.1955 71.7858 65.4556C71.0356 65.7157 70.2407 65.8218 69.4486 65.7675C66.6436 65.7675 64.2383 64.5956 64.2383 61.2549C64.2383 57.9142 66.6448 56.7269 69.4486 56.7269C70.2407 56.6727 71.0356 56.7787 71.7858 57.0388C72.536 57.2989 73.226 57.7076 73.8145 58.2406V53.7469L76.3535 53.7422ZM73.8145 61.2537C73.8145 59.5166 72.5669 58.8484 70.2953 58.8484C68.0236 58.8484 66.7902 59.5166 66.7902 61.2537C66.7902 62.9909 68.0224 63.6436 70.2953 63.6436C72.5681 63.6436 73.8145 62.9767 73.8145 61.2537Z" fill="white"/>
<path d="M80.4549 62.5443C80.4549 63.4797 81.4187 63.8369 84.2556 63.8369C87.0027 63.8369 87.4485 63.6583 87.4485 62.976C87.4485 62.2936 87.0322 62.2664 83.96 62.0701C80.1143 61.849 78.2282 61.551 78.2282 59.4425C78.2282 57.1566 80.9007 56.7227 84.0227 56.7227C87.3196 56.7227 89.7095 57.1519 89.7095 59.5608H87.1564C87.1564 58.8347 86.2352 58.6549 83.876 58.6549C81.4695 58.6549 80.7872 58.8347 80.7872 59.3396C80.7872 59.8871 81.2472 59.977 84.2615 60.2005C87.6767 60.4524 90.0063 60.5423 90.0063 62.8719C90.0063 65.3363 87.7796 65.768 84.4093 65.768C81.0391 65.768 77.9219 65.3363 77.9219 62.5455L80.4549 62.5443Z" fill="white"/>
<path d="M87.4761 39.2519C87.1218 38.4044 86.5155 37.6864 85.7394 37.1951C84.9632 36.7039 84.0548 36.4631 83.1372 36.5056C82.2197 36.5481 81.3373 36.8717 80.6099 37.4325C79.8824 37.9934 79.345 38.7644 79.0706 39.641C78.9805 40.0474 78.9185 40.4595 78.8849 40.8744C79.2045 40.7002 79.4738 40.4465 79.6666 40.1377C80.0818 39.5825 80.6797 39.1917 81.3549 39.0342C82.0301 38.8767 82.7392 38.9626 83.3573 39.2768C83.9461 39.5293 84.4335 39.9714 84.7423 40.5328C85.051 41.0941 85.1633 41.7425 85.0613 42.375C84.9881 43.0715 84.6587 43.716 84.1371 44.1834C83.6155 44.6508 82.9389 44.9078 82.2386 44.9045C80.7021 45.0929 79.1432 44.8697 77.7213 44.2576C76.053 43.4604 74.4403 42.5518 72.8941 41.5378C68.8108 38.7423 65.4204 35.152 61.8964 31.7037C61.0899 30.915 60.3166 30.0801 59.6342 29.3623L59.5006 29.2547L59.4829 29.2381L58.3287 27.8262L57.1402 26.3799L60.8416 22.0837L63.6194 18.8542L65.7941 16.333L65.8036 16.3236L66.2482 15.7559H68.1734C68.3121 15.74 68.447 15.7 68.5719 15.6377C68.6961 15.5762 68.7505 15.4248 68.838 15.2285H58.4812V15.7796H58.5085L58.8017 15.8068H61.7214L61.0284 16.8439L61.0107 16.8616L59.3244 18.8057L53.9072 25.0685L51.4487 27.9066C51.4383 27.8186 51.4324 27.7302 51.4309 27.6417C51.4214 24.7385 51.4037 21.8366 51.4309 18.9346V15.387C49.363 15.3688 47.2983 15.357 45.2368 15.3515H44.7755C42.032 15.361 39.2814 15.3692 36.5391 15.4059H36.0424C35.2702 15.4059 34.5051 15.4154 33.7353 15.4236C32.0333 15.4673 30.3649 15.9079 28.8632 16.7102C27.9787 17.1187 27.2042 17.7321 26.604 18.4997C26.0039 19.2672 25.5953 20.1667 25.4122 21.1237C25.2291 22.0806 25.2767 23.0674 25.5511 24.0023C25.8255 24.9372 26.3188 25.7932 26.9901 26.4994C28.0473 27.535 29.1776 28.4933 30.3722 29.367C29.6875 30.086 28.9153 30.9197 28.1088 31.7085C24.586 35.152 21.1956 38.747 17.1111 41.5425C15.5642 42.5553 13.9507 43.4624 12.2816 44.2576C10.8597 44.8697 9.30072 45.0929 7.76423 44.9045C7.06389 44.9078 6.3873 44.6508 5.86573 44.1834C5.34415 43.716 5.01478 43.0715 4.9415 42.375C4.83952 41.7425 4.95181 41.0941 5.26056 40.5328C5.5693 39.9714 6.05679 39.5293 6.64556 39.2768C7.26379 38.9625 7.97308 38.8766 8.64847 39.0341C9.32386 39.1915 9.92198 39.5824 10.3374 40.1377C10.5292 40.4468 10.7982 40.7007 11.1179 40.8744C11.0843 40.4595 11.0223 40.0474 10.9323 39.641C10.6581 38.7643 10.1209 37.9931 9.39355 37.4321C8.66619 36.8711 7.78387 36.5474 6.86628 36.505C5.94869 36.4625 5.04024 36.7033 4.26416 37.1947C3.48808 37.6861 2.88194 38.4043 2.52794 39.2519C2.17864 40.0881 2.09257 41.0109 2.28124 41.8972C2.46992 42.7836 2.92434 43.5913 3.58393 44.2127C4.95453 45.5622 6.78204 46.3476 8.70437 46.4134C12.8146 46.6644 16.8851 45.4853 20.2247 43.0763C23.8244 40.6432 27.138 37.8116 30.1025 34.6353C31.1053 33.6159 32.1613 32.6391 33.1014 31.5607C33.4665 31.1115 33.9282 30.7507 34.4522 30.5049C34.9762 30.2592 35.5489 30.135 36.1276 30.1416C36.2935 30.1419 36.4593 30.151 36.6243 30.1688C37.1931 30.2232 37.7701 30.1783 38.4347 30.1783C38.5051 30.6312 38.5525 31.0875 38.5766 31.5453C38.5944 33.2931 38.6038 35.0503 38.5672 36.7899C38.5329 38.8842 38.0883 39.3915 36.0649 39.7888C35.7499 39.8083 35.4391 39.8712 35.1413 39.9756C34.9651 40.0643 34.9108 40.3647 34.7346 40.7195H55.2671C55.0909 40.3647 55.0306 40.0632 54.8603 39.9756C54.5625 39.8712 54.2517 39.8083 53.9367 39.7888C51.9134 39.3891 51.4711 38.8842 51.4345 36.7899C51.4073 35.547 51.4073 34.2864 51.4167 33.0341L53.9001 30.1416C54.8461 29.231 56.0653 30.6146 56.899 31.5607C57.8451 32.6344 58.8963 33.61 59.8979 34.6353C62.8633 37.8112 66.1772 40.6428 69.7769 43.0763C73.116 45.4856 77.1862 46.6648 81.2961 46.4134C83.2185 46.348 85.0461 45.5625 86.4165 44.2127C87.0767 43.5917 87.5318 42.7842 87.7211 41.8978C87.9105 41.0115 87.825 40.0884 87.4761 39.2519ZM38.5731 27.6429C38.5493 28.0121 38.5047 28.3797 38.4395 28.7438H36.1323C35.6262 28.7438 35.1307 28.7438 34.634 28.7344C33.4126 28.7203 32.2306 28.3001 31.2744 27.54C30.3181 26.7799 29.6421 25.7231 29.3528 24.5363C28.9595 23.2901 29.003 21.9471 29.476 20.7289C29.949 19.5108 30.8232 18.4903 31.9544 17.836C33.2072 17.1556 34.6201 16.8247 36.0448 16.8782C36.2139 16.8782 36.3724 16.8782 36.5415 16.8876C38.281 16.9586 38.5648 17.1975 38.5731 18.937C38.6003 21.8378 38.5826 24.7397 38.5731 27.6429ZM47.6893 36.7485C47.6621 38.9859 47.1111 39.6233 45.0002 39.8231C42.887 39.6268 42.336 38.9894 42.3111 36.7485C42.2839 33.8382 42.3111 30.9268 42.3111 28.0071H42.3016C42.3016 25.1489 42.2922 22.2919 42.3016 19.4242C42.3111 17.2684 42.9142 16.54 45.0002 16.3011C47.0862 16.5376 47.6894 17.2684 47.6988 19.4242C47.7059 22.2919 47.6988 25.1489 47.6988 28.0071H47.6893C47.6893 30.9268 47.7142 33.8371 47.6893 36.7485Z" fill="white"/>
<path d="M17.3988 71.6056C17.5849 71.7377 17.8081 71.8073 18.0362 71.8042C18.1488 71.8107 18.261 71.787 18.3614 71.7356C18.3966 71.719 18.4263 71.6927 18.4473 71.6598C18.4682 71.627 18.4794 71.5889 18.4797 71.55C18.4808 71.521 18.4759 71.492 18.4653 71.465C18.4547 71.4379 18.4387 71.4133 18.4182 71.3927C18.3734 71.3488 18.3204 71.3142 18.2621 71.291C18.2006 71.265 18.1107 71.2343 17.996 71.1964C17.8627 71.1577 17.7322 71.1095 17.6058 71.0521C17.5022 71.0037 17.4121 70.9306 17.3432 70.8393C17.2678 70.7332 17.2299 70.6051 17.2356 70.4751C17.2334 70.3435 17.2705 70.2142 17.3421 70.1037C17.4155 69.9923 17.5199 69.9047 17.6424 69.8519C17.7842 69.7892 17.938 69.7585 18.093 69.762C18.2439 69.7614 18.3939 69.7845 18.5376 69.8306C18.6771 69.8743 18.8085 69.9407 18.9267 70.0269L18.6902 70.4076C18.5215 70.2748 18.3136 70.2012 18.0989 70.1983C18.0022 70.1932 17.9061 70.2162 17.8222 70.2646C17.7952 70.2794 17.7721 70.3005 17.7549 70.326C17.7376 70.3515 17.7266 70.3807 17.7228 70.4113C17.719 70.4419 17.7225 70.4729 17.733 70.5019C17.7435 70.5308 17.7606 70.5569 17.7831 70.5779C17.8271 70.6185 17.878 70.651 17.9333 70.6737C17.9936 70.6997 18.0788 70.7293 18.19 70.7648C18.3256 70.8042 18.4583 70.8528 18.5873 70.9102C18.6922 70.9613 18.7834 71.0367 18.8534 71.1302C18.9311 71.2415 18.9702 71.3753 18.9645 71.511C18.9664 71.6476 18.925 71.7813 18.8463 71.8929C18.7646 72.0081 18.6518 72.0975 18.5211 72.1507C18.3669 72.2152 18.2009 72.247 18.0338 72.2441C17.8795 72.2452 17.7259 72.2245 17.5774 72.1827C17.4377 72.1455 17.3048 72.0865 17.1836 72.0076L17.3988 71.6056Z" fill="white"/>
<path d="M23.1714 72.2381C22.9491 72.2414 22.7299 72.1867 22.5352 72.0797C22.3504 71.9762 22.1984 71.823 22.0964 71.6374C21.9921 71.4411 21.9375 71.2223 21.9375 71C21.9375 70.7777 21.9921 70.5589 22.0964 70.3626C22.199 70.1781 22.3509 70.0257 22.5352 69.9227C22.7316 69.8195 22.9501 69.7656 23.172 69.7656C23.3938 69.7656 23.6123 69.8195 23.8088 69.9227C23.9941 70.0256 24.1472 70.1779 24.251 70.3626C24.3553 70.5589 24.4098 70.7778 24.4098 71C24.4098 71.2223 24.3553 71.4411 24.251 71.6374C24.1478 71.8232 23.9946 71.9764 23.8088 72.0797C23.6135 72.1865 23.3939 72.2411 23.1714 72.2381ZM23.1714 71.7923C23.3094 71.7944 23.4454 71.7593 23.5652 71.6906C23.6811 71.6248 23.7762 71.5277 23.8395 71.4104C23.9072 71.2843 23.9414 71.143 23.9389 71C23.9412 70.8581 23.9069 70.7181 23.8395 70.5932C23.7755 70.4764 23.6806 70.3794 23.5652 70.3129C23.4442 70.2475 23.3089 70.2133 23.1714 70.2133C23.0339 70.2133 22.8985 70.2475 22.7776 70.3129C22.6628 70.3795 22.5687 70.4765 22.5056 70.5932C22.4395 70.7185 22.4061 70.8584 22.4086 71C22.406 71.1428 22.4394 71.2839 22.5056 71.4104C22.5683 71.5274 22.6625 71.6245 22.7776 71.6906C22.8974 71.7591 23.0334 71.7943 23.1714 71.7923Z" fill="white"/>
<path d="M27.9816 72.1056C27.8266 72.0179 27.7001 71.8873 27.6174 71.7295C27.5288 71.5532 27.4846 71.358 27.4885 71.1607V69.8008H27.9615V71.1288C27.9502 71.3085 28.0034 71.4863 28.1117 71.6302C28.1621 71.6894 28.2254 71.7363 28.2967 71.7673C28.3681 71.7983 28.4456 71.8124 28.5233 71.8087C28.601 71.8119 28.6785 71.7975 28.75 71.7666C28.8215 71.7357 28.885 71.6891 28.936 71.6302C29.0447 71.4865 29.0984 71.3086 29.0874 71.1288V69.8008H29.5604V71.1607C29.5643 71.358 29.5201 71.5532 29.4315 71.7295C29.35 71.8874 29.2242 72.0181 29.0696 72.1056C28.9023 72.1931 28.7162 72.2388 28.5274 72.2388C28.3386 72.2388 28.1525 72.1931 27.9852 72.1056H27.9816Z" fill="white"/>
<path d="M34.6644 70.2442H33.8212V72.2037H33.3482V70.2442H32.5039V69.8008H34.6656L34.6644 70.2442Z" fill="white"/>
<path d="M39.7224 69.8008V72.2073H39.2494V71.2127H38.1058V72.2073H37.6328V69.8008H38.1058V70.7669H39.2494V69.8008H39.7224Z" fill="white"/>
<path d="M42.8242 71.4111V70.9629H43.9677V71.4111H42.8242Z" fill="white"/>
<path d="M48.521 71.6022H47.5312L47.3054 72.2053H46.7969L47.7311 69.7988H48.3224L49.2613 72.2053H48.7528L48.521 71.6022ZM48.3614 71.1694L48.0279 70.2825L47.6921 71.1694H48.3614Z" fill="white"/>
<path d="M52.7035 70.2371V70.7953H53.7678V71.234H52.7035V72.2037H52.2305V69.8008H53.8943V70.2395L52.7035 70.2371Z" fill="white"/>
<path d="M58.2606 72.2061L57.6693 71.4067H57.3441V72.2061H56.8711V69.802H57.907C58.1355 69.79 58.3598 69.8672 58.5326 70.0172C58.612 70.0931 58.6743 70.1852 58.7151 70.2872C58.7559 70.3892 58.7743 70.4987 58.7691 70.6085C58.7744 70.7836 58.723 70.9558 58.6225 71.0992C58.5214 71.2347 58.377 71.3315 58.2133 71.3736L58.8271 72.2108L58.2606 72.2061ZM57.35 70.9893H57.8739C57.9878 70.9949 58.1 70.9592 58.1897 70.8888C58.2616 70.8139 58.3017 70.7141 58.3017 70.6103C58.3017 70.5065 58.2616 70.4067 58.1897 70.3318C58.0993 70.263 57.9873 70.229 57.8739 70.236H57.35V70.9893Z" fill="white"/>
<path d="M61.875 72.2049V69.8008H62.348V72.2073L61.875 72.2049Z" fill="white"/>
<path d="M66.058 72.0841C65.8723 71.9809 65.7186 71.8287 65.6133 71.6442C65.5081 71.4467 65.4531 71.2264 65.4531 71.0027C65.4531 70.7789 65.5081 70.5586 65.6133 70.3611C65.718 70.1756 65.8718 70.0225 66.058 69.9189C66.2562 69.8108 66.4791 69.7562 66.7048 69.7604C66.8711 69.7549 67.0367 69.7853 67.1901 69.8496C67.3436 69.9139 67.4814 70.0105 67.5941 70.1329L67.2665 70.4581C67.1962 70.3785 67.1092 70.3154 67.0117 70.2732C66.9142 70.2311 66.8086 70.2111 66.7024 70.2145C66.5628 70.2125 66.4249 70.2458 66.3016 70.3115C66.1847 70.3753 66.0886 70.4713 66.0248 70.5882C65.9597 70.7164 65.9258 70.8582 65.9258 71.0021C65.9258 71.1459 65.9597 71.2877 66.0248 71.416C66.0882 71.5331 66.1844 71.6293 66.3016 71.6927C66.4244 71.7597 66.5625 71.7939 66.7024 71.792C66.8085 71.7961 66.9143 71.7771 67.0123 71.7363C67.1103 71.6954 67.1983 71.6337 67.2701 71.5555L67.5953 71.876C67.4825 71.9984 67.3448 72.095 67.1913 72.1593C67.0378 72.2236 66.8723 72.254 66.706 72.2485C66.4794 72.2511 66.256 72.1944 66.058 72.0841Z" fill="white"/>
<path d="M72.0914 71.6022H71.1016L70.8745 72.2053H70.3672L71.3014 69.7988H71.8927L72.8316 72.2053H72.3219L72.0914 71.6022ZM71.9317 71.1694L71.5959 70.2825L71.2624 71.1694H71.9317Z" fill="white"/>
<path d="M32.043 5.06762L35.8543 -0.00195312V5.06762H32.043Z" fill="white"/>
<path d="M36.6055 5.06839V0H40.7763L36.6055 5.06839Z" fill="white"/>
<path d="M37.7227 5.06762L42.1087 -0.00195312L44.4455 5.06762H37.7227Z" fill="white"/>
<path d="M44.8402 4.20631L47.4288 0H42.8984L44.8402 4.20631Z" fill="white"/>
<path d="M45.3438 5.06972L47.9678 0.503906L52.3893 5.06972H45.3438Z" fill="white"/>
<path d="M53.2181 4.85234V0.00390625H48.6523L53.2181 4.85234Z" fill="white"/>
<path d="M53.9727 5.06839V0L57.9638 5.06957L53.9727 5.06839Z" fill="white"/>
<path d="M32.4375 5.86523H35.8527L34.4502 7.98672L32.4375 5.86523Z" fill="white"/>
<path d="M38.4414 5.86523H43.6541L41.3528 8.23033L38.4414 5.86523Z" fill="white"/>
<path d="M46.2422 5.86523H51.7789L48.9751 7.98672L46.2422 5.86523Z" fill="white"/>
<path d="M53.9727 5.86523H57.6042L55.3219 8.14755L53.9727 5.86523Z" fill="white"/>
<path d="M53.0709 5.86523L54.4734 8.70334L45.7734 16.1818L49.405 8.81214L53.0709 5.86523Z" fill="white"/>
<path d="M44.8407 5.86523L48.1128 8.8488L44.8407 15.8956L42.1445 8.8488L44.8407 5.86523Z" fill="white"/>
<path d="M37.0024 5.86523L41.3885 9.46017L44.1201 15.8956L35.1328 8.63357L37.0024 5.86523Z" fill="white"/>
</svg>
