<svg width="125" height="14" viewBox="0 0 125 14" fill="none" xmlns="http://www.w3.org/2000/svg">
<path d="M95.7001 0.408825C95.5204 1.43938 95.3503 2.44158 95.1517 3.44377C95.1517 3.58559 94.9532 3.71795 94.8303 3.83141L89.0062 9.57039L88.7982 9.7973H94.1968C93.9699 11.0453 93.7619 12.2366 93.5539 13.4468H78.5966L78.2941 11.5559C78.2501 11.5504 78.2056 11.5504 78.1617 11.5559H74.3137C74.2469 11.5649 74.1828 11.5882 74.1257 11.6241C74.0686 11.6599 74.0199 11.7076 73.9827 11.7639C73.6896 12.2744 73.4249 12.8039 73.1224 13.3144C73.0887 13.3726 73.0423 13.4224 72.9866 13.4601C72.9309 13.4978 72.8674 13.5223 72.8009 13.5319H68.2059L68.7354 12.6526L68.3478 12.8133C66.3036 13.8429 63.9729 14.1559 61.7295 13.7021C60.3952 13.5072 59.1846 12.8132 58.3422 11.7602C57.4998 10.7072 57.0885 9.37381 57.1913 8.02928C57.1599 6.87471 57.3843 5.72749 57.8486 4.66989C58.3128 3.6123 59.0053 2.67053 59.8764 1.91212C60.6296 1.23833 61.511 0.723547 62.4679 0.398622C63.4248 0.0736966 64.4375 -0.0546807 65.4452 0.0211844C66.5051 0.0532247 67.5487 0.29084 68.518 0.720829C69.1075 0.991392 69.6231 1.40002 70.0212 1.91212L67.1848 4.9376C66.8224 4.45586 66.299 4.12033 65.7099 3.99214C64.8787 3.79617 64.0037 3.93797 63.277 4.38643C62.5502 4.83489 62.0311 5.55336 61.8335 6.38417C61.6982 6.98258 61.6662 7.59972 61.739 8.20892C61.7617 8.6612 61.9459 9.09032 62.2582 9.41825C62.5705 9.74617 62.9902 9.95113 63.4408 9.99585C63.9753 10.0479 64.5136 10.0479 65.0481 9.99585C65.1034 10.0003 65.1591 9.99253 65.2111 9.97306C65.2631 9.95359 65.3101 9.92292 65.3489 9.88321C65.3878 9.8435 65.4173 9.79574 65.4356 9.74331C65.4539 9.69088 65.4604 9.63507 65.4546 9.57984C65.4868 9.31263 65.5342 9.04747 65.5965 8.78565H63.4597L64.0554 5.41979H69.9645L68.7354 12.4162H68.7827L69.019 12.057L76.0155 0.739738C76.0726 0.620304 76.1647 0.521067 76.2795 0.455206C76.3943 0.389346 76.5265 0.359979 76.6584 0.371007H80.7617L82.8796 12.4635H82.9552C83.0876 11.7071 83.2105 10.9602 83.3618 10.2133C83.4115 9.99075 83.5191 9.78528 83.6738 9.61766C85.5206 7.80237 87.3705 5.99337 89.2236 4.19069C89.2936 4.12169 89.3598 4.0491 89.4222 3.97323H84.6949L85.2905 0.408825H95.7001ZM75.7697 8.15219H77.9348L77.5282 4.9187L75.7697 8.15219Z" fill="white"/>
<path d="M39.3778 5.95817C39.0185 6.65782 38.6687 7.35746 38.3094 8.04765C37.4396 9.75894 36.5603 11.4702 35.6999 13.191C35.6685 13.2813 35.6076 13.3585 35.5269 13.4099C35.4463 13.4614 35.3507 13.4842 35.2555 13.4746H32.5137L31.3602 5.97708H31.294L30.1784 13.4463H26.1602C26.3303 12.5008 26.4911 11.5553 26.6518 10.6099L28.4104 0.69193C28.4104 0.465018 28.5144 0.370472 28.7507 0.379926H33.9319C34.3101 2.75305 34.6883 5.10725 35.0854 7.60328C35.4068 6.92255 35.6904 6.34581 35.9646 5.75963C36.7777 4.05779 37.5845 2.35595 38.385 0.654112C38.4701 0.474473 38.5458 0.351562 38.7821 0.351562H44.5022L42.3087 12.8695H42.3843L42.6963 12.3779L49.8724 0.710839C49.9278 0.598103 50.0164 0.505041 50.1263 0.444186C50.2362 0.383331 50.362 0.357605 50.487 0.370472H54.5998C55.3561 4.72907 56.122 9.06876 56.8878 13.4274H52.4252C52.3401 12.8601 52.255 12.3022 52.1794 11.7444C52.1794 11.5364 52.0943 11.4513 51.8674 11.4513H48.1611C48.0946 11.4574 48.0303 11.4784 47.973 11.5128C47.9157 11.5472 47.8669 11.594 47.8302 11.6499C47.5277 12.1604 47.2629 12.6899 46.9604 13.2004C46.9228 13.262 46.8718 13.3144 46.8113 13.3537C46.7507 13.3929 46.6821 13.4181 46.6106 13.4274H38.0257L39.4534 5.97708L39.3778 5.95817ZM49.6077 8.15165H51.7728L51.423 5.04107H51.3474L49.6077 8.15165Z" fill="white"/>
<path d="M100.455 13.4464C101.23 9.07839 101.987 4.74816 102.762 0.38011H106.582C106.699 0.362736 106.818 0.39002 106.916 0.456559C107.015 0.523099 107.084 0.624039 107.111 0.739387C107.896 2.79105 108.69 4.8238 109.484 6.87546L109.598 7.16855C109.598 7.04564 109.683 6.97946 109.702 6.91328C110.023 4.84271 110.354 2.77214 110.647 0.711023C110.647 0.540839 110.647 0.389565 110.902 0.389565H114.873C114.098 4.77652 113.332 9.11621 112.566 13.4748H108.425C108.321 13.4748 108.18 13.3046 108.132 13.1817C107.357 11.2908 106.601 9.39985 105.835 7.46165C105.835 7.32928 105.721 7.19692 105.627 6.97C105.277 9.2013 104.946 11.3191 104.606 13.4654L100.455 13.4464Z" fill="white"/>
<path d="M16.0738 9.54264L15.0338 10.8758C14.4193 11.6416 13.8142 12.4263 13.1429 13.1827C13.0451 13.315 12.899 13.4034 12.7363 13.4285H8.00901C7.96183 13.4327 7.91437 13.4327 7.86719 13.4285L8.08465 13.1638C9.92515 11.1027 11.7783 9.0384 13.644 6.97098C13.7334 6.8939 13.7908 6.78616 13.8048 6.66893C13.8188 6.5517 13.7884 6.43348 13.7196 6.33752C12.7742 4.5695 11.9138 2.80148 11.0061 1.03345C10.9305 0.872725 10.8549 0.702541 10.7509 0.503994C10.8548 0.497462 10.959 0.497462 11.0629 0.503994H15.1756C15.2836 0.491077 15.3927 0.517383 15.4829 0.57812C15.5732 0.638857 15.6386 0.729984 15.6673 0.834907C16.0171 1.78037 16.3953 2.64075 16.764 3.53894C16.8113 3.66185 16.868 3.78476 16.9437 3.94549C17.029 3.85993 17.108 3.7683 17.18 3.6713C17.9364 2.72584 18.6928 1.72364 19.4586 0.759269C19.5003 0.683153 19.557 0.616268 19.6252 0.562646C19.6935 0.509024 19.7719 0.469775 19.8557 0.447266H24.6776L24.4223 0.759269C22.7488 2.59347 21.0848 4.42768 19.4113 6.25242C19.3104 6.33575 19.2446 6.45406 19.2271 6.58374C19.2096 6.71343 19.2416 6.84495 19.3168 6.95207C20.3851 9.00373 21.4252 11.0743 22.4841 13.1354C22.5053 13.2328 22.5437 13.3257 22.5975 13.4096H18.2011C18.0591 13.4301 17.9144 13.3969 17.7956 13.3165C17.6767 13.2361 17.592 13.1142 17.5582 12.9747C17.1517 11.963 16.7167 10.9514 16.2818 9.93974C16.2192 9.80395 16.1498 9.67141 16.0738 9.54264Z" fill="white"/>
<path d="M118.788 9.89224H123.856C123.648 11.1024 123.45 12.2559 123.242 13.4377H114.137C114.307 12.4923 114.468 11.5468 114.628 10.6486C115.215 7.32058 115.81 4.03036 116.387 0.673954C116.387 0.465951 116.481 0.380859 116.708 0.380859H125C124.792 1.57215 124.584 2.74452 124.376 3.94526H119.866L119.649 5.15546H123.96L123.327 8.53077H119.441C119.1 8.53077 118.959 8.62532 118.94 8.97514C118.912 9.28412 118.861 9.59064 118.788 9.89224Z" fill="white"/>
<path d="M0 13.3809C0.208002 12.2085 0.40655 11.0456 0.605098 9.8827C1.14401 6.84776 1.68293 3.80336 2.21239 0.787322C2.25966 0.532047 2.35421 0.4375 2.61894 0.4375H10.627C10.5419 0.929142 10.4663 1.38297 10.3907 1.8557C10.315 2.32843 10.1827 3.02808 10.0881 3.60481C10.0881 3.86009 9.95575 3.95463 9.68157 3.94518H6.16443C5.87134 3.94518 5.74843 4.03027 5.71061 4.33282C5.67279 4.63537 5.5877 5.05137 5.50261 5.49574H9.51138C9.3412 6.44121 9.18993 7.38667 9.0292 8.2565C8.90629 8.91833 8.89683 8.90887 8.235 8.90887H5.2757C4.9826 8.90887 4.88806 9.02233 4.85024 9.2776C4.63278 10.554 4.40587 11.8209 4.17896 13.0595C4.17896 13.2391 4.17896 13.3904 3.88586 13.3904H0.104001C0.104001 13.3904 0.0661826 13.4187 0 13.3809Z" fill="white"/>
<path d="M98.9435 13.4462H94.6133C95.3886 9.09703 96.1575 4.75104 96.9202 0.408203H101.25L98.9435 13.4462Z" fill="white"/>
</svg>
