<svg width="100" height="29" viewBox="0 0 100 29" fill="none" xmlns="http://www.w3.org/2000/svg">
<path d="M26.7894 0H3.37637C2.4809 0 1.62211 0.355723 0.988915 0.988914C0.355723 1.62211 0 2.4809 0 3.37637L0 25.6054C0 26.0488 0.0873323 26.4878 0.257011 26.8975C0.426689 27.3071 0.67539 27.6793 0.988915 27.9928C1.30244 28.3064 1.67465 28.5551 2.08429 28.7247C2.49393 28.8944 2.93298 28.9817 3.37637 28.9817H26.7894C27.2328 28.9817 27.6718 28.8944 28.0815 28.7247C28.4911 28.5551 28.8633 28.3064 29.1769 27.9928C29.4904 27.6793 29.7391 27.3071 29.9088 26.8975C30.0784 26.4878 30.1658 26.0488 30.1658 25.6054V3.37637C30.1658 2.4809 29.81 1.62211 29.1769 0.988914C28.5437 0.355723 27.6849 0 26.7894 0V0ZM23.0846 12.5582L22.0075 18.9061C21.8386 19.9678 21.2969 20.9347 20.4797 21.6332C19.6879 22.3652 18.6477 22.7693 17.5693 22.7637H6.59996L8.34925 12.5582H23.0846ZM23.5123 10.0756L23.3214 11.1833H8.58605L9.4416 6.21801H20.4262C20.8509 6.19819 21.2748 6.269 21.67 6.42574C22.0651 6.58247 22.4223 6.82154 22.7179 7.12703C23.0114 7.43033 23.241 7.78942 23.3932 8.18305C23.5454 8.57668 23.6171 8.99685 23.604 9.41868C23.6014 9.63864 23.5835 9.85814 23.5505 10.0756" fill="white"/>
<path d="M42.5413 14.3376C42.5872 17.0876 40.9143 19.8681 37.1101 19.8681H32.8477V8.99805H37.1178C40.8455 8.99805 42.5031 11.6564 42.549 14.3452L42.5413 14.3376ZM34.9101 17.9049H37.1483C39.6157 17.9049 40.5934 16.1022 40.5476 14.33C40.5696 13.8784 40.4966 13.4273 40.3334 13.0057C40.1701 12.5842 39.9203 12.2016 39.5999 11.8826C39.2795 11.5637 38.8958 11.3155 38.4735 11.1542C38.0512 10.9928 37.5997 10.9219 37.1483 10.946H34.8719L34.9101 17.9049Z" fill="white"/>
<path d="M49.1999 12.2226H51.0179V19.8614H49.2304L49.1388 18.7385C48.8745 19.1567 48.5077 19.5005 48.0732 19.7372C47.6387 19.9738 47.1509 20.0954 46.6561 20.0906C44.3645 20.0906 42.7069 18.7079 42.7069 16.0267C42.6646 15.4906 42.7388 14.9517 42.9244 14.447C43.11 13.9423 43.4026 13.4837 43.7821 13.1027C44.1616 12.7218 44.6191 12.4274 45.1231 12.2399C45.6271 12.0523 46.1657 11.9761 46.702 12.0163C47.1807 11.9984 47.656 12.1034 48.0826 12.3214C48.5092 12.5393 48.8728 12.863 49.1388 13.2614L49.1999 12.2226ZM44.6166 16.042C44.5981 16.3495 44.6444 16.6575 44.7525 16.9459C44.8606 17.2344 45.0281 17.497 45.2442 17.7166C45.4602 17.9363 45.7199 18.1081 46.0066 18.2209C46.2933 18.3338 46.6004 18.3852 46.9082 18.3718C49.8874 18.3718 49.8874 13.7274 46.9082 13.7274C46.6032 13.7121 46.2984 13.7609 46.0134 13.8706C45.7284 13.9803 45.4696 14.1486 45.2537 14.3645C45.0378 14.5805 44.8695 14.8393 44.7597 15.1243C44.65 15.4092 44.6012 15.7141 44.6166 16.0191" fill="white"/>
<path d="M52.4636 19.8606V13.9787H51.0352V12.3211H52.4636V11.8093C52.4314 11.4144 52.4841 11.0172 52.6182 10.6444C52.7524 10.2716 52.9649 9.93195 53.2414 9.6482C53.5179 9.36446 53.852 9.14327 54.2212 8.99951C54.5904 8.85576 54.9861 8.79279 55.3817 8.81485C56.0895 8.82547 56.7791 9.04033 57.3677 9.43359L56.665 10.8468C56.3283 10.5965 55.9232 10.4552 55.5039 10.4419C54.8469 10.4419 54.3504 10.8773 54.3504 11.8093V12.3211H56.6039V13.9787H54.3504V19.8606H52.4636Z" fill="white"/>
<path d="M58.9173 12.2216L59.0548 13.1C59.2781 12.7356 59.5989 12.4409 59.9809 12.2492C60.3629 12.0576 60.7909 11.9765 61.2166 12.0153C61.9463 12.0125 62.6502 12.2853 63.1874 12.7792L62.3318 14.3833C62.1488 14.2131 61.9335 14.0815 61.6986 13.9962C61.4637 13.9109 61.214 13.8737 60.9645 13.8868C60.7053 13.864 60.4443 13.8988 60.2002 13.9887C59.956 14.0786 59.7348 14.2214 59.5523 14.4068C59.3698 14.5922 59.2305 14.8157 59.1445 15.0613C59.0585 15.3068 59.0279 15.5683 59.0548 15.8271V19.8604H57.168V12.2216H58.9173Z" fill="white"/>
<path d="M65.1915 10.0528C65.1915 10.3486 65.074 10.6322 64.8648 10.8414C64.6557 11.0505 64.372 11.168 64.0762 11.168C63.7804 11.168 63.4967 11.0505 63.2876 10.8414C63.0784 10.6322 62.9609 10.3486 62.9609 10.0528C62.9609 9.75698 63.0784 9.47331 63.2876 9.26416C63.4967 9.055 63.7804 8.9375 64.0762 8.9375C64.372 8.9375 64.6557 9.055 64.8648 9.26416C65.074 9.47331 65.1915 9.75698 65.1915 10.0528ZM63.129 19.861H65.0234V12.2222H63.129V19.861Z" fill="white"/>
<path d="M74.9228 12.1529C74.9302 12.6035 74.7995 13.0456 74.5482 13.4198C74.297 13.7939 73.9372 14.0822 73.5173 14.2459C74.0151 14.4303 74.4462 14.7595 74.7553 15.191C75.0643 15.6226 75.2371 16.1368 75.2513 16.6674C75.2513 19.0966 73.4333 19.8605 71.1875 19.8605H66.0312V8.99805H71.1875C73.3263 8.99805 74.9228 9.96054 74.9228 12.1529ZM68.0479 13.3598H71.1875C72.4708 13.3598 72.8909 12.8175 72.8909 12.1987C72.8909 11.7022 72.4861 10.8619 71.1875 10.8619H68.0479V13.3598ZM68.0479 17.9431H71.1875C72.0201 17.9431 73.2194 17.6605 73.2194 16.6369C73.2194 15.6133 72.0201 15.1473 71.1875 15.1473H68.0479V17.9431Z" fill="white"/>
<path d="M81.8483 12.222H83.6663V19.8608H81.8788L81.7871 18.7379C81.5223 19.1557 81.1554 19.4991 80.721 19.7356C80.2866 19.9722 79.7991 20.0942 79.3045 20.09C77.0129 20.09 75.3552 18.7074 75.3552 16.0261C75.3131 15.4907 75.3871 14.9525 75.5723 14.4484C75.7575 13.9443 76.0494 13.4861 76.428 13.1053C76.8067 12.7244 77.2632 12.4299 77.7663 12.2418C78.2693 12.0538 78.8071 11.9767 79.3427 12.0157C79.8226 11.9972 80.2992 12.1019 80.7271 12.3199C81.155 12.5379 81.52 12.8618 81.7871 13.2609L81.8483 12.222ZM77.265 16.0414C77.2453 16.3492 77.2907 16.6577 77.3984 16.9467C77.5061 17.2358 77.6736 17.4988 77.8898 17.7187C78.1061 17.9386 78.3664 18.1104 78.6536 18.2228C78.9408 18.3353 79.2485 18.3859 79.5566 18.3713C82.5357 18.3713 82.5357 13.7268 79.5566 13.7268C79.2516 13.7115 78.9468 13.7603 78.6618 13.87C78.3768 13.9798 78.118 14.148 77.9021 14.364C77.6861 14.5799 77.5179 14.8387 77.4081 15.1237C77.2984 15.4087 77.2496 15.7135 77.265 16.0185" fill="white"/>
<path d="M90.1364 19.861V15.8583C90.1682 15.5986 90.1438 15.3352 90.065 15.0859C89.9861 14.8365 89.8546 14.6069 89.6793 14.4128C89.504 14.2187 89.289 14.0645 89.049 13.9607C88.8089 13.8569 88.5493 13.8058 88.2878 13.8111C88.0176 13.8187 87.7516 13.8807 87.5058 13.9932C87.26 14.1058 87.0393 14.2666 86.8568 14.4661C86.6744 14.6657 86.5339 14.8998 86.4438 15.1547C86.3537 15.4096 86.3158 15.6801 86.3323 15.9499V19.861H84.4531V12.2222H86.1489L86.2712 13.2611C86.5881 12.9067 86.975 12.6218 87.4076 12.4246C87.8402 12.2274 88.309 12.1221 88.7843 12.1152C90.5871 12.1152 92.0309 13.4597 92.0309 15.8659V19.861H90.1364Z" fill="white"/>
<path d="M94.7226 9.01367V15.2852L97.2969 12.2143H99.5656V12.3213L96.4413 15.8122L100.001 19.7233V19.8685H97.717L94.7226 16.4081V19.8685H92.8281V9.01367H94.7226Z" fill="white"/>
<path d="M50.4856 22.1978C50.4956 22.3158 50.478 22.4345 50.4343 22.5445C50.3905 22.6546 50.3218 22.7529 50.2335 22.8319C50.1452 22.9097 50.0424 22.9694 49.931 23.0074C49.8195 23.0454 49.7017 23.061 49.5842 23.0534C49.4443 23.0621 49.304 23.0621 49.1641 23.0534V21.4569C49.3246 21.4193 49.4882 21.3962 49.6529 21.3881C49.8741 21.3762 50.0927 21.441 50.2717 21.5714C50.352 21.6477 50.4147 21.7404 50.4556 21.8433C50.4965 21.9462 50.5146 22.0567 50.5085 22.1673L50.4856 22.1978ZM50.2029 22.1673C50.2074 22.0964 50.1976 22.0254 50.174 21.9585C50.1503 21.8915 50.1134 21.83 50.0654 21.7777C50.0152 21.7286 49.9553 21.6903 49.8896 21.6654C49.8239 21.6404 49.7537 21.6292 49.6835 21.6326C49.615 21.6238 49.5457 21.6238 49.4773 21.6326V22.7325H49.6606C49.7363 22.7363 49.8119 22.7231 49.8819 22.6941C49.9519 22.665 50.0146 22.6207 50.0654 22.5645C50.1619 22.4405 50.2106 22.286 50.2029 22.1291" fill="white"/>
<path d="M52.1887 21.4414H51.8984V23.0303H52.1887V21.4414Z" fill="white"/>
<path d="M54.9983 22.9167C54.8347 22.9983 54.6541 23.0402 54.4712 23.0389C54.3609 23.0447 54.2505 23.028 54.1468 22.9899C54.0431 22.9519 53.9482 22.8932 53.8678 22.8174C53.7875 22.7411 53.7247 22.6484 53.6838 22.5455C53.6429 22.4426 53.6249 22.3321 53.631 22.2215C53.6228 22.1103 53.6391 21.9986 53.6787 21.8944C53.7183 21.7901 53.7802 21.6958 53.8601 21.6181C53.9423 21.543 54.0388 21.4854 54.1438 21.4487C54.2488 21.4119 54.3602 21.3968 54.4712 21.4042C54.6345 21.4092 54.7953 21.4455 54.9448 21.5111L54.8455 21.7479C54.7204 21.6918 54.5854 21.6607 54.4483 21.6563C54.3792 21.6521 54.3099 21.6629 54.2453 21.6879C54.1807 21.713 54.1223 21.7517 54.074 21.8014C53.9793 21.9084 53.93 22.0482 53.9365 22.191C53.9303 22.3441 53.9761 22.4949 54.0664 22.6187C54.1175 22.6746 54.1803 22.7185 54.2502 22.7476C54.3201 22.7766 54.3956 22.79 54.4712 22.7868C54.5568 22.7883 54.642 22.7754 54.7233 22.7486C54.7199 22.7233 54.7199 22.6976 54.7233 22.6722V22.1833H54.9983V22.9167Z" fill="white"/>
<path d="M56.7356 21.4414H56.4453V23.0303H56.7356V21.4414Z" fill="white"/>
<path d="M59.3078 21.6935H58.8113V23.0303H58.5286V21.6935H58.0703V21.4414H59.3078V21.6935Z" fill="white"/>
<path d="M61.8754 23.0303H61.547L61.3942 22.6254H60.7907L60.6303 23.0303H60.3477L60.997 21.4414H61.272L61.8754 23.0303ZM61.3025 22.3733L61.0963 21.8386L60.89 22.3733H61.3025Z" fill="white"/>
<path d="M64.174 23.0303H63.2344V21.4414H63.5247V22.7782H64.174V23.0303Z" fill="white"/>
<path d="M68.2923 22.589C68.2923 22.9022 68.0707 23.055 67.6277 23.055C67.4945 23.0525 67.3617 23.0398 67.2305 23.0168V21.489C67.3611 21.4601 67.494 21.4422 67.6277 21.4355C68.0325 21.4355 68.2388 21.5883 68.2388 21.8862C68.2394 21.9607 68.2152 22.0333 68.17 22.0925C68.127 22.1523 68.0691 22.1997 68.002 22.23C68.0871 22.2495 68.1628 22.2981 68.2159 22.3675C68.2682 22.438 68.2951 22.5242 68.2923 22.6119V22.589ZM67.9409 21.9015C67.944 21.8665 67.9371 21.8314 67.9208 21.8002C67.9046 21.7691 67.8797 21.7432 67.8492 21.7258C67.7842 21.6978 67.7137 21.6848 67.643 21.6876H67.5207V22.0925H67.6582C67.8492 22.0925 67.9409 22.0237 67.9409 21.8862V21.9015ZM67.9944 22.5814C67.9944 22.421 67.8874 22.3446 67.6659 22.3446H67.5207V22.7953H67.6506C67.8798 22.7953 67.9944 22.7189 67.9944 22.5661" fill="white"/>
<path d="M71.093 23.0303H70.7721L70.6117 22.6254H70.0082L69.8478 23.0303H69.5117L70.161 21.4414H70.436L71.093 23.0303ZM70.52 22.3733L70.3138 21.8386L70.1075 22.3733H70.52Z" fill="white"/>
<path d="M73.8205 23.0074C73.7674 23.0308 73.7104 23.0438 73.6524 23.0456C73.5846 23.0467 73.5179 23.0277 73.4608 22.991C73.4037 22.9543 73.3587 22.9015 73.3316 22.8393L72.7434 21.8233C72.7449 21.8056 72.7449 21.7877 72.7434 21.7699V23.0303H72.4531V21.4414H72.8809L73.5302 22.6178V22.6865V21.4414H73.8128V23.0074H73.8205Z" fill="white"/>
<path d="M76.5498 23.0303H76.1755L75.7019 22.465C75.6723 22.4238 75.6362 22.3877 75.595 22.3581V23.0303H75.3047V21.4414H75.6255V22.0602L76.1755 21.4414H76.5498L75.847 22.2053C75.8854 22.2154 75.9182 22.2401 75.9387 22.274L76.5498 23.0303Z" fill="white"/>
<path d="M81.0317 22.2364C81.0389 22.4464 80.9712 22.6522 80.8407 22.8169C80.772 22.8963 80.686 22.959 80.5894 23C80.4927 23.0411 80.3879 23.0594 80.2831 23.0537C80.1813 23.0586 80.0797 23.0405 79.9858 23.0009C79.8919 22.9612 79.8082 22.9009 79.7407 22.8245C79.6149 22.6557 79.5469 22.4508 79.5469 22.2402C79.5469 22.0296 79.6149 21.8246 79.7407 21.6558C79.8094 21.5764 79.8954 21.5137 79.992 21.4727C80.0887 21.4316 80.1935 21.4133 80.2984 21.419C80.4021 21.4133 80.5057 21.4317 80.6012 21.4728C80.6966 21.5139 80.7812 21.5765 80.8483 21.6558C80.9788 21.8205 81.0465 22.0263 81.0393 22.2364H81.0317ZM80.7261 22.2364C80.7335 22.0994 80.6989 21.9635 80.6268 21.8468C80.5935 21.7884 80.5441 21.7408 80.4845 21.7097C80.4249 21.6785 80.3577 21.6651 80.2907 21.6711C80.224 21.6669 80.1574 21.6811 80.0982 21.7121C80.0389 21.7431 79.9893 21.7896 79.9546 21.8468C79.89 21.9662 79.8583 22.1007 79.8629 22.2364C79.8555 22.3733 79.8902 22.5092 79.9622 22.6259C79.9981 22.6819 80.048 22.7276 80.107 22.7584C80.1659 22.7893 80.2319 22.8041 80.2984 22.8016C80.3639 22.8052 80.4292 22.7907 80.4872 22.7597C80.5451 22.7287 80.5934 22.6825 80.6268 22.6259C80.6989 22.5092 80.7335 22.3733 80.7261 22.2364Z" fill="white"/>
<path d="M83.362 21.6935H82.728V22.0831H83.255V22.3199H82.728V23.0303H82.4453V21.4414H83.362V21.6935Z" fill="white"/>
<path d="M87.8481 23.0303H87.5272L87.3668 22.6254H86.7634L86.6106 23.0303H86.3203L86.9696 21.4414H87.2446L87.8481 23.0303ZM87.2752 22.3733L87.0689 21.8386L86.8627 22.3733H87.2752Z" fill="white"/>
<path d="M90.1081 21.6935H89.4817V22.0831H90.0088V22.3199H89.4817V23.0303H89.1914V21.4414H90.1081V21.6935Z" fill="white"/>
<path d="M92.6648 23.0308H92.3287L92.0079 22.4961L91.9315 22.3968H91.7787V23.0384H91.4961V21.5107C91.6291 21.4816 91.7648 21.4663 91.901 21.4648C92.3135 21.4648 92.5197 21.6253 92.5197 21.9461C92.5062 22.0212 92.4748 22.092 92.428 22.1523C92.3706 22.2293 92.2859 22.2813 92.1912 22.2975C92.1912 22.2975 92.2676 22.3433 92.3211 22.4197L92.6648 23.0308ZM92.2218 21.8926C92.2218 21.7398 92.1148 21.6635 91.9162 21.6635H91.7787V22.1523H91.9086C91.9881 22.1552 92.0662 22.1309 92.1301 22.0836C92.1591 22.0577 92.1823 22.0259 92.1981 21.9903C92.2139 21.9547 92.222 21.9162 92.2218 21.8773" fill="white"/>
<path d="M94.2864 21.4414H93.9961V23.0303H94.2864V21.4414Z" fill="white"/>
<path d="M96.9298 22.9167C96.8002 22.9851 96.6562 23.0218 96.5097 23.0236C96.4022 23.0285 96.295 23.0105 96.195 22.971C96.0949 22.9316 96.0043 22.8714 95.9292 22.7945C95.8549 22.7161 95.797 22.6238 95.759 22.5227C95.7209 22.4217 95.7035 22.3141 95.7076 22.2063C95.7007 21.9914 95.7743 21.7816 95.9139 21.6181C95.9873 21.5431 96.0754 21.4841 96.1726 21.4446C96.2699 21.4052 96.3742 21.3862 96.4791 21.3889C96.635 21.3941 96.7882 21.4305 96.9298 21.4959L96.8305 21.7327C96.7189 21.6765 96.5964 21.6452 96.4715 21.641C96.4047 21.6378 96.3382 21.6515 96.2781 21.6809C96.218 21.7103 96.1663 21.7544 96.1278 21.8091C96.0479 21.9171 96.0075 22.0492 96.0132 22.1834C96.0057 22.3356 96.0547 22.4852 96.1507 22.6035C96.201 22.6578 96.2627 22.7003 96.3314 22.728C96.4 22.7557 96.474 22.768 96.5479 22.7639C96.656 22.7634 96.7627 22.74 96.8611 22.6952L96.9298 22.9167Z" fill="white"/>
<path d="M99.7343 23.0303H99.4058L99.253 22.6254H98.6496L98.4891 23.0303H98.1836L98.8329 21.4414H99.1079L99.7343 23.0303ZM99.1614 22.3733L98.9551 21.8386L98.7489 22.3733H99.1614Z" fill="white"/>
</svg>
