<svg width="125" height="38" viewBox="0 0 125 38" fill="none" xmlns="http://www.w3.org/2000/svg">
<path d="M47.8115 22.6613C47.813 22.683 47.8095 22.7048 47.8013 22.7249C47.793 22.7451 47.7803 22.7631 47.764 22.7775C47.7261 22.8052 47.683 22.825 47.6372 22.8356C47.5828 22.8411 47.528 22.8411 47.4736 22.8356H46.6317C46.5766 22.8397 46.5213 22.8306 46.4703 22.8092C46.4194 22.7877 46.3743 22.7544 46.3388 22.7121C46.2745 22.6265 46.231 22.527 46.212 22.4216L46.1302 21.8039C46.0251 21.9613 45.9009 22.1051 45.7604 22.2318C45.6015 22.3778 45.4241 22.5021 45.2327 22.6016C45.0079 22.7156 44.7703 22.8024 44.5249 22.8601C44.2297 22.9267 43.9276 22.9586 43.625 22.955C43.1343 22.9776 42.6445 22.8939 42.1891 22.7096C41.7837 22.5259 41.4234 22.2556 41.1337 21.9176C40.848 21.5683 40.6329 21.1668 40.5004 20.7354C40.3496 20.2628 40.2748 19.7693 40.2787 19.2733V14.7055C40.2691 14.572 40.3106 14.4398 40.3949 14.3357C40.439 14.2918 40.4919 14.2578 40.5502 14.236C40.6084 14.2141 40.6707 14.2049 40.7328 14.2089H41.7882C41.8525 14.2008 41.9178 14.2055 41.9803 14.2228C42.0428 14.2401 42.1013 14.2696 42.1523 14.3096C42.2218 14.4158 42.2535 14.5423 42.2423 14.6687V19.2144C42.242 19.4546 42.2792 19.6934 42.3527 19.9221C42.4293 20.1458 42.5435 20.3548 42.6906 20.5398C42.845 20.7235 43.0377 20.8712 43.2552 20.9726C43.501 21.0875 43.7702 21.1435 44.0414 21.1363C44.2636 21.1331 44.4841 21.0975 44.6959 21.0307C44.9215 20.9585 45.1312 20.8438 45.3137 20.6928C45.5065 20.5414 45.665 20.3506 45.7784 20.1332C45.9049 19.8908 45.9685 19.6204 45.9633 19.347V14.6753C45.9738 14.5959 45.9932 14.5179 46.0214 14.4429C46.05 14.3777 46.0934 14.32 46.1482 14.2744C46.2091 14.2296 46.2837 14.2074 46.3593 14.2114H47.5153C47.575 14.2061 47.6352 14.2127 47.6924 14.2308C47.7495 14.249 47.8025 14.2782 47.8483 14.3169C47.9217 14.4014 47.9596 14.5111 47.9539 14.6229V22.4625C47.956 22.5029 47.9468 22.5431 47.9272 22.5785C47.9077 22.6139 47.8787 22.6432 47.8434 22.663" fill="white"/>
<path d="M49.2967 14.3627C49.4307 14.2941 49.579 14.2579 49.7295 14.2571H50.416C50.4718 14.253 50.5277 14.2624 50.5791 14.2845C50.6305 14.3065 50.6759 14.3407 50.7113 14.384C50.7738 14.4706 50.8171 14.5697 50.8381 14.6744L50.9118 15.3289C51.0221 15.1709 51.1438 15.021 51.2758 14.8806C51.4193 14.7317 51.5829 14.6037 51.7618 14.5001C51.9702 14.3897 52.1922 14.3072 52.4221 14.2547C52.7104 14.1828 53.0069 14.149 53.3041 14.1541C53.595 14.1519 53.8854 14.1821 54.1697 14.2441C54.4158 14.3011 54.6523 14.3937 54.8717 14.519C55.0798 14.6395 55.2698 14.7888 55.4362 14.9624C55.6115 15.1469 55.7655 15.3505 55.8952 15.5695C56.0046 15.3479 56.1551 15.1491 56.3386 14.9837C56.5299 14.8003 56.7468 14.6457 56.9825 14.5247C57.236 14.3973 57.5034 14.2998 57.7794 14.2342C58.0772 14.1658 58.382 14.132 58.6876 14.1336C59.1749 14.1228 59.6585 14.2221 60.1022 14.4241C60.4987 14.6123 60.847 14.8885 61.1208 15.2316C61.3987 15.5867 61.6064 15.9915 61.7327 16.4245C61.8774 16.8965 61.9486 17.3879 61.9438 17.8816V22.424C61.9516 22.5588 61.9103 22.6919 61.8277 22.7987C61.7844 22.8422 61.7325 22.876 61.6752 22.8978C61.6179 22.9197 61.5567 22.9291 61.4955 22.9255H60.4401C60.3754 22.933 60.3099 22.9275 60.2474 22.9093C60.1849 22.8912 60.1266 22.8608 60.076 22.82C60.0057 22.7141 59.9739 22.5873 59.986 22.4608V17.8947C59.9873 17.657 59.9534 17.4204 59.8853 17.1927C59.8206 16.973 59.713 16.7684 59.5687 16.5905C59.4229 16.4158 59.2435 16.2722 59.041 16.1684C58.8108 16.0651 58.562 16.0096 58.3098 16.0051C58.0575 16.0006 57.807 16.0472 57.5732 16.1422C57.3707 16.2273 57.1902 16.3574 57.0455 16.5226C56.8869 16.6962 56.7633 16.8987 56.6814 17.1191C56.5903 17.3693 56.5456 17.6341 56.5497 17.9004V22.4404C56.5497 22.7676 56.4019 22.9313 56.1063 22.9313H55.0549C54.991 22.9392 54.9262 22.934 54.8644 22.9158C54.8026 22.8977 54.7452 22.867 54.6958 22.8257C54.6255 22.7198 54.5937 22.5931 54.6058 22.4666V17.8996C54.606 17.6659 54.5741 17.4332 54.5109 17.2082C54.4457 16.9897 54.3399 16.7855 54.1991 16.6061C54.059 16.4243 53.8783 16.2777 53.6714 16.1782C53.4293 16.0626 53.1631 16.0065 52.895 16.0146C52.6802 16.0147 52.4673 16.0541 52.2666 16.1307C52.0585 16.2109 51.8671 16.3291 51.7021 16.4793C51.5164 16.6385 51.3674 16.836 51.2652 17.0583C51.1631 17.2806 51.1104 17.5224 51.1106 17.7671V22.5181C51.1128 22.5711 51.1035 22.624 51.0835 22.6731C51.0634 22.7222 51.0331 22.7665 50.9944 22.8028C50.9558 22.8415 50.9097 22.8718 50.8589 22.8918C50.808 22.9118 50.7536 22.9211 50.699 22.919H49.561C49.5014 22.9242 49.4414 22.9175 49.3844 22.8994C49.3274 22.8813 49.2745 22.8521 49.2288 22.8135C49.1547 22.7287 49.1165 22.6183 49.1225 22.5058V14.6793C49.1165 14.6152 49.13 14.5507 49.161 14.4943C49.1921 14.4378 49.2394 14.392 49.2967 14.3627Z" fill="white"/>
<path d="M70.0686 21.9743C69.6786 22.311 69.2365 22.5821 68.7595 22.7769C68.2564 22.9796 67.7179 23.08 67.1756 23.0722C66.584 23.0644 65.9999 22.9387 65.4574 22.7024C64.9202 22.479 64.4308 22.1546 64.0158 21.7468C63.5976 21.3419 63.2622 20.8595 63.0283 20.3265C62.7831 19.775 62.659 19.1775 62.6642 18.574C62.6654 18.1853 62.7169 17.7984 62.8172 17.4228C63.0042 16.6842 63.381 16.0073 63.9103 15.4593C64.1715 15.1833 64.4701 14.9451 64.7972 14.7515C65.1266 14.5528 65.4817 14.4 65.8526 14.2975C66.2429 14.1898 66.6463 14.1364 67.0512 14.1387C67.7403 14.1418 68.4189 14.3083 69.0311 14.6247C69.3349 14.7782 69.6201 14.966 69.8812 15.1844C70.1428 15.4035 70.3769 15.6534 70.5783 15.9289C70.8448 16.3044 71.0465 16.722 71.1747 17.1643C71.3061 17.6404 71.37 18.1325 71.3645 18.6264C71.3709 18.7373 71.3709 18.8484 71.3645 18.9593C71.3591 19.0381 71.3307 19.1135 71.2827 19.1762C71.2277 19.2353 71.1556 19.2759 71.0765 19.2923C70.9519 19.3216 70.824 19.3339 70.6961 19.3292H64.6229C64.676 19.6393 64.7909 19.9356 64.9608 20.2005C65.1197 20.446 65.3198 20.6622 65.5523 20.8395C65.7745 21.0108 66.0232 21.1446 66.2887 21.2355C66.5489 21.3228 66.8217 21.3673 67.0962 21.3672C67.2929 21.3669 67.4891 21.3475 67.682 21.3091C67.8626 21.2688 68.0392 21.2124 68.2097 21.1406C68.3688 21.0791 68.5209 21.0013 68.6638 20.9082C68.792 20.826 68.9137 20.7341 69.0279 20.6333C69.0775 20.5903 69.1306 20.5514 69.1866 20.5171C69.2341 20.487 69.289 20.4706 69.3453 20.4697C69.3938 20.4729 69.4409 20.4875 69.4828 20.5122C69.5435 20.5459 69.5958 20.5929 69.6358 20.6497C69.7626 20.8027 69.8624 20.9246 69.9524 21.0244L70.1635 21.278C70.2083 21.3318 70.2472 21.3902 70.2797 21.4523C70.3042 21.4995 70.3168 21.552 70.3165 21.6053C70.3049 21.6841 70.2756 21.7593 70.2308 21.8251C70.1861 21.891 70.1269 21.9459 70.0579 21.9857L70.0686 21.9743ZM67.0381 15.8405C66.7706 15.8399 66.5055 15.8902 66.2568 15.9886C66.0049 16.0828 65.7696 16.2165 65.5597 16.3846C65.3568 16.5559 65.1791 16.755 65.032 16.9761C64.8779 17.201 64.7621 17.4498 64.6892 17.7125H69.5163C69.4468 17.4429 69.3343 17.1863 69.1833 16.9524C69.0301 16.7278 68.841 16.53 68.6237 16.3666C68.4091 16.1963 68.1659 16.0658 67.9053 15.9812C67.6265 15.8869 67.3341 15.8388 67.0397 15.8389" fill="white"/>
<path d="M74.2281 15.1728C74.3413 15.0254 74.4706 14.8909 74.6134 14.7719C74.7653 14.6423 74.934 14.5338 75.115 14.4496C75.3199 14.3526 75.5362 14.2817 75.7588 14.2385C76.0282 14.1849 76.3024 14.1602 76.577 14.1648C77.0481 14.1539 77.515 14.2552 77.9392 14.4602C78.3267 14.649 78.666 14.9234 78.9317 15.2628C79.2097 15.6161 79.4174 16.0193 79.5437 16.4508C79.683 16.9202 79.7524 17.4076 79.7498 17.8973V22.443C79.7555 22.5083 79.7482 22.5742 79.7282 22.6367C79.7083 22.6992 79.6761 22.7571 79.6337 22.807C79.591 22.8513 79.5392 22.8857 79.4817 22.9076C79.4243 22.9295 79.3628 22.9385 79.3015 22.9339H78.2485C78.1838 22.9413 78.1184 22.9358 78.0559 22.9177C77.9934 22.8995 77.9351 22.8692 77.8844 22.8283C77.8103 22.7241 77.7766 22.5964 77.7895 22.4692V17.8948C77.7918 17.6554 77.7508 17.4176 77.6684 17.1928C77.587 16.9705 77.4634 16.7661 77.3044 16.5907C77.0738 16.3239 76.7657 16.1357 76.4231 16.0524C76.0805 15.9691 75.7204 15.9948 75.3931 16.126C74.9595 16.2862 74.6053 16.609 74.4056 17.0259C74.2941 17.2553 74.2364 17.5072 74.2371 17.7623V22.2122C74.2425 22.2983 74.2425 22.3847 74.2371 22.4708C74.2303 22.5509 74.2107 22.6293 74.179 22.7031C74.154 22.7691 74.1098 22.8261 74.0522 22.8668C73.9912 22.9115 73.9166 22.9338 73.8411 22.9298H72.6957C72.6368 22.9346 72.5777 22.9277 72.5215 22.9096C72.4653 22.8915 72.4133 22.8625 72.3684 22.8242C72.3309 22.7831 72.3022 22.7347 72.2841 22.6821C72.2659 22.6295 72.2587 22.5737 72.2629 22.5182V12.1088C72.259 12.0525 72.2676 11.9959 72.288 11.9433C72.3085 11.8906 72.3402 11.8431 72.381 11.8041C72.4218 11.765 72.4708 11.7355 72.5243 11.7174C72.5778 11.6994 72.6346 11.6934 72.6907 11.6997H73.8149C73.8677 11.6994 73.92 11.7095 73.9688 11.7294C74.0177 11.7494 74.0621 11.7787 74.0996 11.8159C74.1406 11.8513 74.1735 11.895 74.1962 11.944C74.2189 11.9931 74.2309 12.0465 74.2313 12.1006L74.2281 15.1728Z" fill="white"/>
<path d="M84.2577 14.9852C83.6404 14.984 83.0437 15.2073 82.5789 15.6135C82.3473 15.8142 82.1571 16.0582 82.0192 16.3318C81.8714 16.6203 81.7877 16.9374 81.7738 17.2613V20.7794C81.7717 20.7899 81.7717 20.8007 81.7738 20.8113V22.7061C81.7738 22.8542 81.7051 22.9279 81.5627 22.9279H81.2093C81.1788 22.9331 81.1474 22.9311 81.1179 22.9219C81.0883 22.9127 81.0614 22.8966 81.0393 22.8749C81.0171 22.8533 81.0005 22.8267 80.9906 22.7973C80.9808 22.768 80.978 22.7367 80.9826 22.7061V14.5368C80.9801 14.5032 80.9863 14.4694 81.0006 14.4389C81.0149 14.4084 81.0369 14.3821 81.0644 14.3625C81.1189 14.3215 81.1861 14.3009 81.2543 14.3044H81.5341C81.568 14.302 81.6021 14.3068 81.634 14.3187C81.6659 14.3305 81.6949 14.3491 81.719 14.3732C81.7624 14.4247 81.7849 14.4907 81.782 14.5581V15.6135C81.938 15.4012 82.1148 15.205 82.3097 15.0277C82.4812 14.8564 82.6736 14.7074 82.8824 14.5843C83.0903 14.461 83.3141 14.3668 83.5476 14.3044C84.4108 14.095 85.3218 14.2334 86.0839 14.6898C86.5701 15.0242 86.9568 15.4839 87.2031 16.0201C87.3224 15.7296 87.4882 15.4605 87.694 15.2232C87.8854 15.0001 88.1117 14.8095 88.3641 14.6587C88.6175 14.5076 88.8914 14.3938 89.1773 14.3208C89.4714 14.246 89.7738 14.2086 90.0773 14.2095C90.6633 14.1984 91.2405 14.354 91.7415 14.6582C92.2425 14.9623 92.6468 15.4026 92.9073 15.9277C93.0821 16.2791 93.1963 16.6575 93.2452 17.0469C93.2701 17.2023 93.2843 17.3592 93.2877 17.5165V22.6423C93.2919 22.6831 93.2875 22.7244 93.2748 22.7634C93.2621 22.8024 93.2414 22.8384 93.2141 22.8689C93.1897 22.8963 93.1595 22.9179 93.1256 22.932C93.0918 22.9462 93.0552 22.9526 93.0186 22.9508H92.7649C92.7276 22.9553 92.6898 22.9515 92.6541 22.9396C92.6185 22.9277 92.5859 22.908 92.5588 22.882C92.5171 22.8142 92.4985 22.7347 92.5056 22.6554V17.519C92.4889 17.198 92.4249 16.8812 92.3158 16.5789C92.2053 16.2802 92.0406 16.0045 91.8298 15.7657C91.6159 15.525 91.3554 15.3301 91.064 15.193C90.7422 15.0422 90.39 14.968 90.0347 14.9762C89.7361 14.9724 89.4393 15.0226 89.1585 15.1242C88.8949 15.22 88.6501 15.3612 88.4352 15.5415C88.2237 15.7182 88.045 15.9309 87.9075 16.1699C87.7661 16.4143 87.6713 16.6828 87.6277 16.9618C87.573 17.2898 87.5456 17.6218 87.5459 17.9543V22.6284C87.5489 22.6691 87.5432 22.7099 87.5291 22.7482C87.515 22.7864 87.4928 22.8212 87.4641 22.8501C87.4393 22.8771 87.409 22.8983 87.3753 22.9124C87.3415 22.9266 87.3051 22.9332 87.2685 22.9319H87.01C86.972 22.9362 86.9334 22.9322 86.897 22.9204C86.8606 22.9085 86.8272 22.889 86.7989 22.8632C86.7573 22.7954 86.7386 22.7159 86.7457 22.6366V17.5035C86.7535 17.3506 86.7375 17.1974 86.6983 17.0494C86.6571 16.7712 86.5697 16.5019 86.4398 16.2525C86.3057 16.0036 86.1268 15.7817 85.912 15.598C85.4641 15.1892 84.8763 14.968 84.27 14.9802" fill="white"/>
<path d="M94.8972 18.9185C94.9159 19.0195 94.9266 19.1219 94.9291 19.2245C94.9339 19.3478 94.9534 19.47 94.9872 19.5886C95.0944 19.984 95.2637 20.3598 95.4888 20.7021C95.7038 21.0301 95.9691 21.3222 96.275 21.5677C96.5826 21.8086 96.9264 21.9991 97.2936 22.1323C97.6747 22.2687 98.0769 22.3366 98.4816 22.3327C98.708 22.3346 98.9341 22.3168 99.1574 22.2795C99.3554 22.2467 99.5498 22.1955 99.7383 22.1265C99.9204 22.0639 100.097 21.9862 100.266 21.8942C100.424 21.7993 100.577 21.6989 100.725 21.5931C100.773 21.5631 100.819 21.5294 100.862 21.4925L101.005 21.3812C101.045 21.3504 101.087 21.323 101.132 21.2994C101.162 21.2751 101.199 21.2602 101.237 21.2568C101.274 21.2568 101.311 21.2888 101.358 21.3468C101.406 21.4049 101.49 21.5424 101.527 21.6005C101.553 21.6421 101.569 21.6891 101.574 21.7379C101.578 21.7462 101.58 21.7553 101.58 21.7645C101.58 21.7737 101.578 21.7828 101.574 21.7911C101.593 21.8096 101.606 21.8336 101.611 21.8598C101.554 21.9306 101.492 21.9976 101.426 22.0603C101.344 22.1318 101.257 22.1987 101.168 22.2607C100.8 22.5194 100.399 22.7253 99.9747 22.8727C99.525 23.0287 99.0516 23.1053 98.5757 23.0993C97.9809 23.1026 97.3917 22.984 96.8445 22.7508C95.7693 22.2935 94.9125 21.4384 94.453 20.3642C94.2131 19.8205 94.0907 19.2322 94.0938 18.6379C94.0922 18.2349 94.1456 17.8336 94.2525 17.445C94.3565 17.0761 94.5054 16.7214 94.696 16.3888C94.8836 16.0582 95.1163 15.7553 95.3873 15.4888C95.6428 15.2187 95.9321 14.9828 96.248 14.7868C96.5795 14.5921 96.9341 14.4395 97.3035 14.3328C97.6976 14.2258 98.1043 14.1724 98.5127 14.174C98.901 14.1703 99.2881 14.2181 99.6638 14.3164C100.032 14.4077 100.387 14.5451 100.72 14.7255C101.047 14.9097 101.35 15.1348 101.62 15.3955C101.891 15.6606 102.125 15.9605 102.317 16.2873C102.518 16.6324 102.674 17.0013 102.782 17.3853C102.896 17.802 102.959 18.2307 102.972 18.6625C102.972 18.8155 102.898 18.8948 102.755 18.8948L94.8972 18.9185ZM97.5685 15.065C97.2261 15.1587 96.9002 15.3047 96.6023 15.4978C96.3062 15.6906 96.0381 15.9233 95.8054 16.1892C95.5718 16.4594 95.3749 16.7593 95.2196 17.081C95.0649 17.4074 94.9564 17.7538 94.8972 18.1102H102.188C102.137 17.6666 101.998 17.2376 101.779 16.8486C101.569 16.4673 101.294 16.1261 100.966 15.8406C100.636 15.5546 100.259 15.3278 99.852 15.1706C99.4355 15.0123 98.9934 14.9318 98.5479 14.9333C98.3985 14.9252 98.2489 14.9252 98.0995 14.9333C97.921 14.9565 97.7445 14.9937 97.5718 15.0446" fill="white"/>
<path d="M112.714 22.7033C112.719 22.733 112.716 22.7632 112.707 22.7917C112.697 22.8202 112.682 22.8462 112.661 22.8676C112.64 22.889 112.614 22.9054 112.586 22.9153C112.558 22.9253 112.527 22.9286 112.498 22.925H112.144C112.114 22.9303 112.082 22.9283 112.053 22.9191C112.023 22.9099 111.996 22.8938 111.974 22.8721C111.952 22.8505 111.935 22.8239 111.926 22.7945C111.916 22.7652 111.913 22.7339 111.918 22.7033V21.04C111.828 21.1881 111.728 21.3411 111.627 21.499C111.531 21.6427 111.418 21.7738 111.289 21.8893C110.492 22.6611 109.422 23.0879 108.312 23.0772C107.914 23.0786 107.518 23.0252 107.135 22.9185C106.765 22.8122 106.41 22.6596 106.079 22.4644C105.748 22.2702 105.442 22.0343 105.171 21.7624C104.901 21.4927 104.665 21.1904 104.469 20.8625C104.272 20.5323 104.119 20.1774 104.015 19.807C103.847 19.235 103.799 18.6344 103.875 18.043C103.95 17.4516 104.147 16.8822 104.454 16.3708C104.647 16.041 104.883 15.7384 105.156 15.4708C105.994 14.6486 107.118 14.1832 108.292 14.1724C108.574 14.1725 108.855 14.2026 109.131 14.2624C109.402 14.3194 109.667 14.4016 109.923 14.5078C110.174 14.6162 110.416 14.7451 110.646 14.8932C110.873 15.0412 111.087 15.2091 111.285 15.3947C111.4 15.5149 111.508 15.6419 111.608 15.7752L111.924 16.2235V11.839C111.923 11.8234 111.926 11.8077 111.932 11.7935C111.939 11.7792 111.949 11.7667 111.961 11.7572C111.972 11.7446 111.986 11.7348 112.002 11.7284C112.017 11.722 112.034 11.7193 112.051 11.7204H112.531C112.556 11.7168 112.582 11.7192 112.606 11.7272C112.63 11.7352 112.652 11.7487 112.67 11.7667C112.688 11.7846 112.701 11.8065 112.709 11.8305C112.717 11.8546 112.72 11.8802 112.716 11.9053L112.714 22.7033ZM104.664 18.6223C104.659 19.1099 104.754 19.5933 104.944 20.0427C105.126 20.4814 105.389 20.8823 105.718 21.2249C106.046 21.5636 106.435 21.8376 106.864 22.0324C107.307 22.2297 107.788 22.3303 108.274 22.3278C108.765 22.3298 109.251 22.233 109.704 22.0431C110.143 21.8544 110.542 21.5858 110.882 21.2511C111.225 20.9122 111.498 20.5084 111.684 20.0631C111.881 19.6101 111.982 19.1212 111.98 18.6273C111.983 18.1384 111.885 17.6542 111.691 17.2053C111.325 16.3103 110.627 15.5915 109.743 15.1992C109.294 15.0025 108.81 14.9009 108.32 14.9009C107.83 14.9009 107.346 15.0025 106.897 15.1992C106.46 15.3886 106.065 15.6631 105.736 16.0067C105.403 16.3488 105.136 16.7496 104.949 17.1889C104.759 17.642 104.663 18.1286 104.665 18.6199" fill="white"/>
<path d="M113.889 11.8029C113.885 11.7306 113.898 11.6586 113.925 11.5918C113.94 11.5639 113.962 11.5404 113.989 11.5237C114.016 11.507 114.047 11.4978 114.078 11.4969H114.559C114.593 11.4935 114.628 11.5014 114.657 11.5196C114.687 11.5378 114.71 11.5651 114.722 11.5975C114.749 11.6628 114.762 11.7331 114.759 11.8037V12.0622C114.759 12.1939 114.759 12.279 114.69 12.3158C114.617 12.3601 114.53 12.3788 114.445 12.369H114.199C114.112 12.3759 114.025 12.3595 113.946 12.3216C113.92 12.3023 113.899 12.2767 113.887 12.2471C113.874 12.2175 113.869 12.1851 113.872 12.153L113.889 11.8029ZM113.931 14.5371C113.931 14.3891 114 14.3154 114.148 14.3154H114.507C114.537 14.311 114.568 14.3137 114.597 14.3233C114.626 14.3329 114.652 14.3491 114.674 14.3706C114.695 14.3922 114.711 14.4184 114.721 14.4474C114.73 14.4763 114.733 14.507 114.729 14.5371V22.704C114.733 22.7332 114.73 22.7628 114.721 22.7909C114.712 22.8189 114.697 22.8445 114.677 22.8658C114.656 22.8871 114.632 22.9036 114.604 22.9139C114.577 22.9243 114.547 22.9283 114.518 22.9257H114.164C114.006 22.9257 113.932 22.8521 113.932 22.704L113.931 14.5371Z" fill="white"/>
<path d="M124.202 21.5678V21.0393C124.021 21.3496 123.799 21.6337 123.542 21.8836C123.29 22.1364 123.005 22.3534 122.695 22.5283C122.383 22.71 122.047 22.8476 121.697 22.9374C121.338 23.0376 120.967 23.0874 120.594 23.0855C120.194 23.0872 119.796 23.0321 119.411 22.9219C119.041 22.8168 118.687 22.6642 118.356 22.4678C118.026 22.2699 117.721 22.0322 117.448 21.7601C117.174 21.4916 116.937 21.1891 116.74 20.8601C116.547 20.528 116.394 20.1736 116.286 19.8047C116.037 18.8577 116.101 17.8554 116.47 16.9482C116.839 16.041 117.492 15.278 118.331 14.7738C118.661 14.5737 119.016 14.4193 119.387 14.3148C119.771 14.2068 120.168 14.1515 120.567 14.1504C120.936 14.1499 121.304 14.1978 121.661 14.2928C122.012 14.384 122.349 14.5216 122.664 14.7018C122.98 14.8775 123.272 15.0922 123.535 15.3408C123.796 15.5946 124.021 15.8821 124.205 16.1958V14.5202C124.201 14.4912 124.203 14.4616 124.212 14.4337C124.221 14.4058 124.236 14.3803 124.257 14.3593C124.277 14.3383 124.302 14.3224 124.33 14.3127C124.357 14.3029 124.387 14.2998 124.416 14.3034H124.77C124.923 14.3034 125.002 14.377 125.002 14.5202V22.7018C125.005 22.7338 125 22.7661 124.987 22.7956C124.974 22.8251 124.954 22.8508 124.928 22.8703C124.875 22.9043 124.813 22.9227 124.749 22.9235H124.469C124.295 22.9235 124.205 22.8417 124.205 22.6781L124.202 21.5678ZM124.244 18.6167C124.245 18.1308 124.143 17.6502 123.943 17.207C123.749 16.7682 123.475 16.3691 123.136 16.0297C122.795 15.6876 122.391 15.4135 121.948 15.2222C121.508 15.0231 121.031 14.9188 120.549 14.9162C120.069 14.9143 119.594 15.0171 119.158 15.2173C118.725 15.4114 118.333 15.6854 118.002 16.0248C117.664 16.3636 117.391 16.7605 117.194 17.1964C116.998 17.6404 116.897 18.1207 116.899 18.6061C116.898 19.0938 116.995 19.5768 117.184 20.0264C117.364 20.4671 117.625 20.8701 117.954 21.2144C118.282 21.5586 118.673 21.8364 119.105 22.0325C119.546 22.2336 120.025 22.3363 120.509 22.3336C121.004 22.3376 121.493 22.237 121.945 22.0383C122.386 21.8477 122.788 21.5753 123.128 21.2357C123.469 20.899 123.745 20.5017 123.941 20.0641C124.142 19.6102 124.245 19.1189 124.242 18.6225" fill="white"/>
<path d="M10.9912 11.5228C10.8786 11.4763 10.7578 11.4529 10.6361 11.454C10.5738 11.4289 10.5077 11.4145 10.4405 11.4115C10.1177 11.4107 9.7987 11.4811 9.50619 11.6177C9.18488 11.7627 8.89731 11.973 8.66185 12.2354C8.25643 12.6904 7.9606 13.2322 7.79706 13.8193C7.61297 14.4764 7.54922 15.1613 7.60888 15.841C7.70524 16.5297 7.90263 17.2005 8.19468 17.8316C8.51158 18.5352 8.8863 19.3078 9.31883 20.1494L8.85985 21.1206C8.58889 21.6849 8.28849 22.2347 7.95987 22.7675C7.57071 23.4242 7.1477 24.0602 6.69254 24.673C6.23776 25.3 5.70803 25.869 5.11513 26.3674C4.5601 26.8668 3.91007 27.2492 3.20391 27.4916C2.72348 27.65 2.20631 27.6592 1.72059 27.5178C1.28915 27.3754 0.917675 27.0929 0.665164 26.7152C0.391985 26.315 0.211688 25.8588 0.137451 25.3799C0.103 25.1617 0.0844067 24.9414 0.0818159 24.7205C0.0850096 24.397 0.123973 24.0749 0.197995 23.76C0.314053 23.1818 0.549048 22.634 0.888063 22.1515C1.22708 21.669 1.66271 21.2622 2.1673 20.957C2.79514 20.5916 3.49685 20.3716 4.22088 20.3131C4.30821 20.3078 4.39024 20.2694 4.45017 20.2057C4.5101 20.142 4.54339 20.0577 4.54324 19.9703C4.54507 19.8815 4.51617 19.7948 4.46142 19.7248C4.39687 19.6544 4.31034 19.608 4.21597 19.5931C2.87438 19.2933 1.4739 19.3998 0.193086 19.8991L0 19.9956V6.02719C0 6.02719 1.05543 1.58785 4.70932 0.341797L4.82059 0.462884L4.88359 0.53161H4.90896L5.26813 0.921872L5.46858 1.1485C5.64775 1.35468 5.85884 1.60749 6.08056 1.89303C6.17547 2.0043 6.26546 2.12538 6.36528 2.24647C6.4651 2.36756 6.65573 2.63673 6.80872 2.84864C6.88236 2.94927 6.96172 3.05481 7.03535 3.16526C7.10899 3.27572 7.23089 3.44017 7.3258 3.58253L7.55243 3.92533L7.77415 4.27878C7.83224 4.3606 7.88542 4.44732 7.94269 4.54304C7.99996 4.63877 8.12187 4.84413 8.21759 4.99712L8.51867 5.52484C8.61931 5.70974 8.71912 5.88892 8.81403 6.05255L9.10939 6.61217C9.1912 6.77089 9.27302 6.93943 9.35483 7.09816C9.43665 7.25688 9.51356 7.43115 9.5921 7.62587C9.67064 7.82059 9.79827 8.08486 9.89809 8.32785C9.99791 8.57084 10.0985 8.81384 10.1934 9.06419C10.236 9.1591 10.2671 9.25973 10.3039 9.35955C10.3169 9.38582 10.3276 9.4132 10.3358 9.44136C10.3988 9.62054 10.4675 9.80054 10.5313 9.96908C10.5952 10.1376 10.6524 10.3389 10.7162 10.5287C10.714 10.5496 10.714 10.5708 10.7162 10.5917C10.7792 10.8134 10.848 11.0351 10.9118 11.2569V11.3149C10.9079 11.3488 10.9173 11.3828 10.938 11.4099V11.4786" fill="white"/>
<path d="M10.6852 22.9292C10.8332 23.2458 10.9699 23.5575 11.0942 23.8693C10.6787 25.4988 10.1205 27.0887 9.42601 28.6203C9.33111 28.8159 9.24111 29.0212 9.13557 29.2274C9.03002 29.4336 8.94003 29.6365 8.83448 29.8451C8.72894 30.0537 8.6234 30.2542 8.50722 30.4677L8.16932 31.0903C7.55772 32.1835 6.88438 33.2409 6.15256 34.2574L5.68784 34.9013C5.21277 35.5668 4.70414 36.2267 4.16198 36.8813C2.54448 36.1695 0.992427 34.6019 0 31.434V28.7103C0.485994 28.8224 0.98701 28.8544 1.48332 28.8052C2.00845 28.7439 2.52431 28.6197 3.01983 28.4354C3.63688 28.2323 4.22033 27.9387 4.75105 27.5641C5.35208 27.1442 5.90617 26.6609 6.40373 26.1225C7.42361 24.9918 8.29792 23.7379 9.0063 22.39L9.38101 21.6823C9.49719 21.45 9.61828 21.2127 9.73446 20.9746C10.0617 21.6185 10.3734 22.273 10.6901 22.9276" fill="white"/>
<path d="M11.8505 17.8566V18.8383C11.8542 19.0146 11.8454 19.191 11.8243 19.3661C11.7981 19.5616 11.8243 19.699 11.7875 19.8676C11.7294 19.7465 11.6664 19.6221 11.5977 19.4929L10.9219 18.1306C11.133 17.508 11.3121 16.932 11.4496 16.3937C11.5609 15.9715 11.65 15.6017 11.7188 15.2695C11.7507 15.5543 11.7769 15.8341 11.8006 16.1196V16.3569C11.798 16.4043 11.798 16.4518 11.8006 16.4992V17.8713" fill="white"/>
<path d="M17.9487 17.5137C18.5214 16.8805 19.0941 16.2734 19.6668 15.7031C19.3153 16.2883 19.0244 16.9079 18.7987 17.5522C18.4808 18.4028 18.2147 19.2719 18.0019 20.1547C17.7646 21.1103 17.5584 22.1183 17.3997 23.1901C17.2363 24.2381 17.1498 25.2966 17.1411 26.3572C17.1235 27.3487 17.1942 28.3399 17.3522 29.3189C17.4737 30.122 17.7307 30.8986 18.1123 31.6155C13.5617 34.4979 9.94053 36.7625 9.94053 36.7625C8.10817 37.5527 6.03971 37.5961 4.17578 36.8836C4.71086 36.2291 5.21403 35.5727 5.68529 34.9143C5.84401 34.6975 5.997 34.4864 6.15 34.2647C6.87434 33.2431 7.5466 32.1874 8.16676 31.0976L8.50466 30.475C8.62084 30.2639 8.72638 30.0577 8.83192 29.8524C8.93747 29.647 9.0381 29.4351 9.13301 29.2347C9.22791 29.0342 9.32855 28.8256 9.42345 28.6276C10.1179 27.0959 10.6761 25.5061 11.0917 23.8765C11.2234 24.2038 11.3371 24.5262 11.4402 24.8371C11.1332 25.3556 10.8633 25.8953 10.6327 26.4521C10.0207 27.9199 9.86199 28.9753 10.1467 29.6192C10.1508 29.6556 10.1623 29.6907 10.1804 29.7225C10.1986 29.7543 10.223 29.7821 10.2522 29.8041C10.326 29.8758 10.4085 29.9379 10.4977 29.989L10.7669 30.1314C10.8197 30.1603 10.8765 30.1816 10.9354 30.1944C11.0853 30.2435 11.2424 30.2667 11.4001 30.2631C11.8667 30.2534 12.3158 30.0838 12.6724 29.7828C13.1483 29.366 13.5113 28.8359 13.7278 28.2414C13.9931 27.5186 14.0951 26.7461 14.0264 25.9792C13.9417 25.0213 13.707 24.0826 13.331 23.1975C14.1442 22.0362 15.1121 20.7869 16.2346 19.4495C16.7943 18.802 17.367 18.1562 17.9528 17.5121" fill="white"/>
<path d="M21.9508 12.5778C21.581 12.9108 21.185 13.2692 20.7734 13.6603C20.2422 14.1566 19.6897 14.6933 19.1159 15.2704C18.542 15.8475 17.965 16.4474 17.3846 17.0703C16.8037 17.7036 16.2392 18.3377 15.6845 18.9865C15.1298 19.6353 14.6921 20.1793 14.2535 20.7496C13.815 21.3199 13.3879 21.8688 13.0075 22.4072C12.8013 21.9057 12.5796 21.4148 12.3374 20.9345C12.1525 20.5704 11.9676 20.2063 11.7778 19.8414C11.7778 19.6729 11.804 19.5085 11.8146 19.3399C11.8252 19.1714 11.8146 19.002 11.8408 18.8122V16.4584C11.8382 16.4109 11.8382 16.3634 11.8408 16.316V16.0763C11.8292 15.7916 11.8019 15.5078 11.759 15.2262C11.7685 15.1351 11.7863 15.045 11.8121 14.957C11.9362 14.3441 11.9769 13.7171 11.9332 13.0933C11.9176 12.6527 11.7683 12.2272 11.5053 11.8734C11.3859 11.7137 11.2253 11.5895 11.0406 11.5142C11.0436 11.4914 11.0436 11.4683 11.0406 11.4455C11.0445 11.4117 11.0351 11.3777 11.0144 11.3506V11.2925C10.9514 11.0708 10.8827 10.8491 10.8189 10.6273C10.8167 10.6064 10.8167 10.5853 10.8189 10.5643C10.7559 10.3745 10.6921 10.1896 10.634 10.0047C10.5759 9.81981 10.5023 9.63491 10.4385 9.477C10.4303 9.44884 10.4196 9.42146 10.4065 9.39519C10.3697 9.29455 10.3378 9.19474 10.2961 9.09983C10.2012 8.8462 10.1006 8.60321 10.0007 8.36349C9.90093 8.12377 9.79457 7.88814 9.69475 7.66151C9.59493 7.43488 9.53603 7.3187 9.45748 7.13379C9.37894 6.94889 9.29876 6.80653 9.21204 6.64781L8.91914 6.08982C8.82423 5.90492 8.7236 5.72574 8.62378 5.56211L8.32597 5.03113C8.23106 4.87813 8.14107 4.71941 8.05107 4.57705C7.96107 4.43469 7.93734 4.40114 7.88253 4.31605L7.66081 3.96261L7.43418 3.6198C7.33927 3.47744 7.23864 3.33999 7.14373 3.20254C7.04882 3.06509 6.99073 2.98573 6.9171 2.88591C6.7641 2.67483 6.61602 2.46865 6.47366 2.28375C6.3313 2.09884 6.28385 2.0383 6.18894 1.9303C5.96722 1.64558 5.75613 1.40259 5.57696 1.18578L5.2816 0.94033L4.91016 0.53125C6.71583 1.05896 15.9962 4.19006 21.9508 12.5623" fill="white"/>
<path d="M26.924 25.9775C24.7493 27.3872 22.4102 28.8861 20.1881 30.2958C19.9953 29.4196 19.8998 28.5249 19.9034 27.6278C19.8933 26.5689 19.9567 25.5107 20.0932 24.4607C20.2468 23.3285 20.4637 22.2059 20.7428 21.098C21.0167 19.9921 21.3694 18.9071 21.7982 17.8516C22.1929 16.8623 22.6716 15.9086 23.2292 15.0011C23.2717 14.9275 23.3192 14.8636 23.3609 14.7949C25.334 18.2265 26.549 22.041 26.924 25.9816" fill="white"/>
<path d="M29.2909 24.4189L26.9256 25.9734C26.5545 22.032 25.3432 18.2158 23.3731 14.7818C23.8432 14.0592 24.4156 13.4085 25.0725 12.8502C25.2623 12.6972 25.3474 12.5548 25.3179 12.4329C25.2914 12.3662 25.2515 12.3056 25.2007 12.2548C25.1499 12.204 25.0893 12.1641 25.0226 12.1376C24.8159 12.0495 24.5967 11.9943 24.3729 11.9739C24.1045 11.949 23.8349 11.9403 23.5654 11.9477C23.31 11.9629 23.0559 11.9965 22.8053 12.0484C22.6123 12.0867 22.4313 12.1709 22.2776 12.2938L21.9553 12.5785C15.9852 4.22678 6.71706 1.09077 4.91139 0.531151L4.88521 0.50497L4.82221 0.462426L4.71094 0.341338C6.2634 -0.152139 7.93668 -0.109493 9.46199 0.462426C13.0938 2.39492 29.3113 12.8052 29.3113 12.8052C29.3113 12.8052 37.0503 18.3687 29.3113 24.423" fill="white"/>
</svg>
