<svg width="65" height="90" viewBox="0 0 65 90" fill="none" xmlns="http://www.w3.org/2000/svg">
<g clip-path="url(#clip0)">
<path d="M26.0695 45.514C26.0323 45.5067 25.9344 45.4848 25.8365 45.4695C24.8547 45.3236 23.9252 44.9343 23.1326 44.3369C22.34 43.7395 21.7097 42.9531 21.2991 42.0495C21.247 41.9172 21.1586 41.8023 21.0441 41.718C20.9296 41.6337 20.7937 41.5834 20.6519 41.5729C20.1543 41.4551 19.713 41.1684 19.4032 40.7616C19.0934 40.3549 18.9342 39.8533 18.9528 39.3423C19.1639 39.4855 19.4059 39.5768 19.659 39.6087C19.9121 39.6407 20.1691 39.6123 20.4092 39.5259C20.4128 39.4591 20.4128 39.3921 20.4092 39.3253C20.2072 37.246 20.5314 35.1493 21.3517 33.2281C21.5617 32.6685 21.7056 32.0863 21.7806 31.4934C21.8826 30.9647 21.8726 30.4205 21.7512 29.8959C21.6298 29.3714 21.3997 28.8781 21.0758 28.448C21.3202 28.3818 21.5759 28.3687 21.8257 28.4095C22.0756 28.4504 22.3138 28.5442 22.5243 28.6848C22.7349 28.8254 22.9129 29.0094 23.0464 29.2245C23.1799 29.4396 23.2659 29.6808 23.2984 29.9319L25.5395 27.9456C25.4886 27.8711 25.4772 27.8396 25.4586 27.8242C23.3668 26.3571 20.939 25.4407 18.3994 25.1599C16.4925 24.9272 14.5674 25.4148 13.0012 26.5272C12.0928 27.1407 11.4283 28.0533 11.1235 29.1062C10.8186 30.1591 10.8927 31.2856 11.3329 32.2895C11.5656 32.9176 11.9512 33.4777 12.4548 33.9193C12.9584 34.3609 13.5642 34.67 14.2172 34.8187C15.1781 35.0133 16.176 34.8945 17.0644 34.4799C17.9527 34.0653 18.6847 33.3767 19.1527 32.5153C19.2942 32.2725 19.4188 32.025 19.5515 31.779C19.5715 32.0173 19.5559 32.2572 19.5054 32.491C19.3668 33.4652 18.8795 34.3562 18.1339 34.9985C17.3884 35.6408 16.4352 35.9909 15.4511 35.9838C14.3604 35.9777 13.2969 35.6423 12.4001 35.0215C11.5032 34.4007 10.8148 33.5235 10.4251 32.5047C10.2236 31.9594 10.0877 31.3898 9.91779 30.821C9.12651 31.8939 8.38701 32.1965 7.3967 31.8728C6.58762 31.6067 5.98161 30.9723 5.98242 30.3898C6.2806 30.3995 6.57897 30.3772 6.87242 30.3234C7.19014 30.2671 7.48279 30.1143 7.71062 29.8857C8.26627 29.1407 8.99195 28.5393 9.82718 28.1316C10.812 27.4694 11.6464 26.6074 12.2763 25.6016C11.036 25.9949 10.2851 25.4398 9.56746 24.6566C9.76407 24.4948 9.92831 24.346 10.1047 24.2141C11.3899 23.2929 12.9151 22.7653 14.4948 22.6954C17.488 22.5146 20.4627 23.2763 23.0006 24.8735C23.304 25.0531 23.5977 25.2489 23.8097 25.3848C23.8097 24.706 23.8211 24.0094 23.8057 23.3095C23.8014 22.8612 23.7682 22.4137 23.7062 21.9697C23.6949 21.6374 23.5839 21.3162 23.3877 21.0478C23.1915 20.7794 22.919 20.5763 22.6058 20.4648C22.2965 20.387 21.9694 20.4247 21.6859 20.5708C21.5643 20.6377 21.4627 20.7357 21.3913 20.8547C21.3198 20.9737 21.2812 21.1095 21.2793 21.2482C21.2775 21.387 21.3124 21.5238 21.3805 21.6447C21.4486 21.7656 21.5476 21.8663 21.6673 21.9365C21.7452 21.9644 21.8281 21.9753 21.9106 21.9686C21.993 21.9619 22.0731 21.9377 22.1455 21.8977C22.2069 21.8613 22.1584 21.6185 22.1382 21.4721C22.1301 21.4138 22.0645 21.3637 22.0249 21.3103C22.131 21.1848 22.2808 21.1044 22.4439 21.0854C22.6071 21.0663 22.7714 21.11 22.9036 21.2075C23.0529 21.3111 23.164 21.4609 23.2197 21.6339C23.2754 21.8069 23.2726 21.9934 23.2118 22.1647C23.1377 22.3607 23.0178 22.5363 22.8621 22.6767C22.7065 22.8171 22.5196 22.9184 22.3169 22.972C22.1143 23.0257 21.9017 23.0302 21.697 22.9852C21.4923 22.9401 21.3012 22.8469 21.1398 22.7132C20.7938 22.4688 20.552 22.1035 20.4621 21.6895C20.3723 21.2755 20.4408 20.8428 20.6543 20.4769C20.8621 20.0901 21.208 19.7959 21.6231 19.6528C22.0382 19.5098 22.4919 19.5284 22.8939 19.7051C23.0977 19.7916 23.2895 19.9089 23.5136 20.0287L23.7385 19.4907C23.8761 19.6598 23.9659 19.7795 24.0622 19.8911C24.3997 20.3128 24.6445 20.8009 24.7806 21.3235C24.9166 21.8462 24.9409 22.3917 24.8518 22.9244C24.7902 23.5792 24.7723 24.2374 24.7984 24.8945C24.8258 25.3581 24.9748 25.8062 25.2305 26.1938C25.4861 26.5815 25.8394 26.8949 26.2548 27.1025C28.0534 25.4034 28.1424 19.1816 25.2264 16.8223C25.9269 16.6998 26.6448 16.7187 27.3379 16.8778C28.0309 17.0369 28.6852 17.333 29.2621 17.7487C30.8439 19.0125 30.784 20.7423 30.4838 22.5223C31.0706 21.6574 31.5184 20.706 31.8107 19.7026C31.998 19.1208 32.003 18.4957 31.8252 17.9109C31.6473 17.3262 31.2951 16.8097 30.8156 16.4307C30.4919 16.1467 30.1545 15.8644 29.8228 15.5893C29.2763 15.2003 28.8565 14.6588 28.6162 14.0325C28.3759 13.4062 28.3256 12.7229 28.4717 12.0681C28.6564 11.2941 29.0284 10.5773 29.555 9.98071C29.9568 9.52777 30.1767 8.94212 30.1723 8.33666C30.161 8.08056 30.0631 7.8359 29.8947 7.64264C29.7263 7.44939 29.4973 7.31897 29.2451 7.27272C29.0072 7.2266 28.7607 7.26823 28.5511 7.3899C28.3415 7.51158 28.1831 7.70507 28.1051 7.93455C28.0457 8.24515 28.085 8.56655 28.2176 8.85366C28.2904 9.02033 28.5866 9.09072 28.784 9.204L28.8584 9.05998C28.8131 9.03813 28.7484 9.02762 28.7233 8.99121C28.6055 8.8649 28.5195 8.71235 28.4725 8.54621C28.466 8.4564 28.6933 8.2598 28.7904 8.27517C28.8805 8.29112 28.9665 8.3248 29.0434 8.37424C29.1204 8.42369 29.1867 8.48792 29.2387 8.5632C29.2732 8.64228 29.2912 8.72762 29.2914 8.81392C29.2917 8.90023 29.2742 8.98566 29.24 9.06493C29.2059 9.1442 29.1559 9.21561 29.093 9.27474C29.0301 9.33387 28.9558 9.37947 28.8746 9.40869C28.7071 9.48708 28.5225 9.52195 28.3379 9.51007C28.1534 9.49819 27.9748 9.43995 27.8187 9.34074C27.6626 9.24152 27.5341 9.10454 27.445 8.94247C27.3559 8.78039 27.3091 8.59846 27.309 8.41352C27.2806 7.84708 27.4605 7.28982 27.8148 6.84696C28.1691 6.4041 28.6733 6.10628 29.2322 6.00974C29.657 5.9086 30.0939 5.86006 30.5461 5.784L30.2363 5.21198L31.1691 5.14726C30.9833 4.72983 30.9227 4.26744 30.9945 3.81621C31.0663 3.36497 31.2675 2.94426 31.5737 2.60512C31.7979 2.34793 32.0396 2.10653 32.297 1.88261V1.53228C32.3593 1.59135 32.4232 1.6496 32.4871 1.70785C32.5575 1.64393 32.6279 1.58002 32.6959 1.51367V1.90042C32.9533 2.12432 33.195 2.36573 33.4192 2.62292C33.7255 2.96201 33.9267 3.38273 33.9986 3.83399C34.0704 4.28524 34.0096 4.74764 33.8237 5.16506L34.7566 5.22979L34.4467 5.80181C34.8982 5.87786 35.3367 5.9264 35.7607 6.02754C36.3193 6.12408 36.8233 6.42181 37.1775 6.86452C37.5317 7.30723 37.7115 7.86428 37.683 8.43051C37.6831 8.61553 37.6364 8.79755 37.5474 8.95973C37.4583 9.12191 37.3298 9.25901 37.1737 9.35832C37.0176 9.45762 36.839 9.51593 36.6543 9.52785C36.4697 9.53977 36.2851 9.5049 36.1175 9.42649C36.0363 9.39716 35.9621 9.35152 35.8993 9.29237C35.8365 9.23321 35.7865 9.16182 35.7524 9.08258C35.7182 9.00335 35.7007 8.91795 35.7009 8.83168C35.7011 8.74541 35.7189 8.6601 35.7534 8.581C35.8054 8.50577 35.8718 8.44159 35.9487 8.39216C36.0256 8.34272 36.1116 8.30901 36.2016 8.29297C36.2987 8.27841 36.5252 8.47501 36.5196 8.56401C36.5091 8.71855 36.3667 8.8658 36.2688 9.00981C36.2437 9.04622 36.1806 9.05593 36.1337 9.07858L36.2081 9.2226C36.4039 9.10933 36.6992 9.03894 36.7744 8.87146C36.9071 8.5844 36.9467 8.26303 36.8877 7.95234C36.8096 7.7228 36.6511 7.5293 36.4414 7.40763C36.2316 7.28596 35.9849 7.24436 35.7469 7.29051C35.4948 7.33677 35.2658 7.46719 35.0974 7.66044C34.929 7.8537 34.8311 8.09836 34.8197 8.35446C34.8155 8.95989 35.0354 9.54549 35.437 9.99851C35.9636 10.5951 36.3356 11.3119 36.5204 12.0859C36.6663 12.7406 36.6161 13.4238 36.3759 14.05C36.1357 14.6763 35.7163 15.2179 35.17 15.6071C34.8367 15.8854 34.5042 16.1637 34.1773 16.4485C33.6976 16.8273 33.3451 17.3438 33.1671 17.9285C32.9891 18.5133 32.994 19.1386 33.1813 19.7204C33.4741 20.7238 33.9221 21.6752 34.509 22.5401C34.2088 20.7601 34.149 19.0335 35.7307 17.7665C36.3077 17.3509 36.9619 17.0548 37.655 16.8957C38.3481 16.7366 39.066 16.7177 39.7664 16.8401C36.8537 19.1994 36.9395 25.4164 38.7381 27.1195C39.1534 26.9121 39.5067 26.5988 39.7624 26.2113C40.0181 25.8238 40.1671 25.3758 40.1944 24.9123C40.2205 24.2552 40.2027 23.597 40.141 22.9422C40.052 22.4095 40.0763 21.864 40.2124 21.3414C40.3484 20.8187 40.5932 20.3306 40.9307 19.909C41.0302 19.7981 41.12 19.6784 41.2543 19.5093L41.4793 20.0473C41.7034 19.9292 41.8951 19.8119 42.099 19.7237C42.5009 19.5468 42.9548 19.5281 43.3699 19.6712C43.785 19.8143 44.1309 20.1086 44.3386 20.4955C44.552 20.8615 44.6206 21.2941 44.5307 21.7081C44.4409 22.1221 44.1991 22.4874 43.8531 22.7318C43.6916 22.8655 43.5006 22.9587 43.2959 23.0038C43.0911 23.0488 42.8786 23.0443 42.676 22.9906C42.4733 22.937 42.2864 22.8357 42.1307 22.6953C41.9751 22.5549 41.8552 22.3794 41.781 22.1833C41.7202 22.012 41.7174 21.8255 41.7732 21.6525C41.8289 21.4795 41.94 21.3297 42.0893 21.2261C42.2215 21.1286 42.3858 21.0849 42.5489 21.104C42.7121 21.1231 42.8619 21.2035 42.968 21.3289C42.9291 21.3831 42.862 21.4333 42.8547 21.4907C42.8345 21.6371 42.7859 21.8799 42.8474 21.9155C42.9197 21.9558 42.9997 21.9801 43.0822 21.987C43.1647 21.9938 43.2477 21.983 43.3256 21.9551C43.4451 21.8847 43.5438 21.784 43.6118 21.6631C43.6798 21.5422 43.7146 21.4055 43.7127 21.2669C43.7108 21.1282 43.6723 20.9925 43.601 20.8735C43.5298 20.7545 43.4283 20.6565 43.307 20.5894C43.0232 20.4433 42.6958 20.4056 42.3862 20.4834C42.073 20.5949 41.8006 20.798 41.6044 21.0664C41.4081 21.3348 41.2972 21.656 41.2859 21.9883C41.2239 22.432 41.1909 22.8793 41.1872 23.3273C41.171 24.0256 41.1831 24.7238 41.1831 25.4034C41.3984 25.2675 41.6921 25.0725 41.9922 24.8921C44.5314 23.2962 47.507 22.5364 50.5005 22.7197C52.0802 22.7895 53.6054 23.3172 54.8906 24.2383C55.067 24.3694 55.2312 24.5183 55.4286 24.6801C54.7102 25.4601 53.9585 26.0183 52.719 25.6251C53.3528 26.631 54.1917 27.4917 55.1811 28.1511C56.0162 28.5589 56.7418 29.1603 57.2976 29.9051C57.5257 30.1337 57.8187 30.2865 58.1366 30.3429C58.4301 30.3967 58.7285 30.4187 59.0266 30.4084C59.0266 30.9918 58.419 31.6269 57.6132 31.8914C56.6228 32.2151 55.8825 31.9125 55.0913 30.8396C54.9222 31.406 54.7854 31.978 54.584 32.5233C54.1941 33.542 53.5057 34.4192 52.6089 35.04C51.712 35.6608 50.6486 35.9962 49.5579 36.0024C48.5739 36.0095 47.6207 35.6594 46.8751 35.0171C46.1295 34.3748 45.6423 33.4839 45.5036 32.5096C45.4528 32.2759 45.4373 32.0359 45.4575 31.7976C45.5902 32.0403 45.714 32.2936 45.8564 32.5339C46.3243 33.3954 47.0562 34.0841 47.9446 34.4987C48.833 34.9133 49.8309 35.032 50.7918 34.8373C51.445 34.6886 52.0508 34.3793 52.5544 33.9376C53.058 33.4959 53.4435 32.9355 53.6762 32.3073C54.1163 31.3035 54.1903 30.1772 53.8855 29.1244C53.5806 28.0717 52.9162 27.1592 52.0078 26.5458C50.4419 25.4336 48.5171 24.946 46.6105 25.1785C44.0708 25.4589 41.6428 26.3752 39.5512 27.8428C39.5286 27.8574 39.5172 27.8889 39.4703 27.9642L41.7115 29.9497C41.744 29.6986 41.8299 29.4574 41.9634 29.2423C42.0969 29.0272 42.275 28.8432 42.4855 28.7026C42.6961 28.562 42.9343 28.4682 43.1841 28.4273C43.434 28.3865 43.6897 28.3996 43.934 28.4658C43.6102 28.8959 43.3802 29.3892 43.259 29.9138C43.1377 30.4384 43.1279 30.9826 43.2301 31.5112C43.3048 32.1042 43.4487 32.6864 43.6589 33.2459C44.4797 35.167 44.8039 37.2638 44.6015 39.3431C44.5979 39.4099 44.5979 39.4769 44.6015 39.5437C44.8415 39.6301 45.0986 39.6585 45.3517 39.6265C45.6048 39.5946 45.8468 39.5033 46.0578 39.3601C46.0765 39.8711 45.9173 40.3727 45.6075 40.7794C45.2977 41.1862 44.8563 41.4729 44.3588 41.5907C44.217 41.6013 44.0811 41.6516 43.9666 41.7359C43.8521 41.8202 43.7637 41.935 43.7115 42.0673C43.3009 42.9708 42.6706 43.7572 41.878 44.3546C41.0854 44.952 40.1559 45.3414 39.1742 45.4873C39.0763 45.5026 38.9784 45.5245 38.9412 45.5309C39.1423 46.0268 39.2925 46.5419 39.3894 47.0682C39.3988 47.9575 39.085 48.82 38.5065 49.4954C37.9279 50.1708 37.1239 50.6133 36.2437 50.7406C34.9285 50.9404 33.5866 50.6292 32.4936 49.8709C31.406 50.6167 30.0755 50.921 28.7718 50.722C27.8918 50.5947 27.0879 50.1523 26.5093 49.4771C25.9308 48.8018 25.617 47.9396 25.6261 47.0504C25.7217 46.5246 25.8702 46.0098 26.0695 45.514ZM9.71552 29.1276C9.58851 29.5722 9.3463 29.9752 9.0134 30.296C8.68051 30.6169 8.26876 30.844 7.81984 30.9545C8.75191 31.3275 9.79239 30.177 9.71552 29.1276ZM57.1852 30.9723C56.7364 30.8618 56.3247 30.6346 55.992 30.3138C55.6592 29.9929 55.4172 29.5899 55.2903 29.1454C55.2134 30.1948 56.2539 31.3461 57.1852 30.9723ZM21.9772 35.0283C21.5469 36.3794 21.4607 37.8167 21.7263 39.2096L25.1245 37.5105L25.1002 37.3673C24.7931 37.3855 24.488 37.3077 24.2271 37.1448C23.9661 36.9819 23.7623 36.7418 23.6439 36.4579C23.5542 36.2566 23.5204 36.035 23.5461 35.8161C23.5717 35.5973 23.6558 35.3894 23.7895 35.2144C24.0468 35.8551 24.4991 35.9344 25.084 35.8114C25.3799 35.7544 25.6862 35.7929 25.9587 35.9215C26.2364 36.0513 26.5382 36.1216 26.8447 36.1281C27.1512 36.1345 27.4557 36.0768 27.7386 35.9587C28.2968 35.7347 28.9024 35.6549 29.4995 35.7266C30.0966 35.7983 30.6661 36.0192 31.1554 36.3689C31.2363 36.428 31.3301 36.4684 31.4903 36.5598C31.2355 35.0509 30.979 33.6229 29.8787 32.5403C29.7062 32.3511 29.4951 32.2011 29.2597 32.1005C29.0243 31.9998 28.7701 31.9509 28.5141 31.9569C28.2582 31.963 28.0065 32.0239 27.7761 32.1356C27.5458 32.2472 27.342 32.4071 27.1787 32.6042C27.0869 32.693 27.0164 32.8014 26.9725 32.9213C26.9286 33.0413 26.9124 33.1696 26.9252 33.2966C26.938 33.4237 26.9794 33.5462 27.0462 33.655C27.1131 33.7637 27.2038 33.8559 27.3114 33.9247C27.3804 33.6215 27.5011 33.3325 27.6682 33.0703C27.7982 32.9301 27.9764 32.8444 28.1671 32.8303C28.3577 32.8162 28.5466 32.8747 28.6958 32.9942C28.8631 33.1221 28.9864 33.2991 29.0483 33.5004C29.1102 33.7017 29.1078 33.9174 29.0413 34.1172C28.9476 34.3801 28.7797 34.6102 28.5577 34.7794C28.3358 34.9486 28.0695 35.0497 27.7912 35.0703C27.4926 35.1146 27.1875 35.0726 26.9119 34.9492C26.6364 34.8257 26.4019 34.6261 26.2362 34.3737C26.0822 34.1518 25.9766 33.9001 25.9262 33.6347C25.8758 33.3694 25.8818 33.0965 25.9436 32.8336C26.0055 32.5707 26.1219 32.3238 26.2854 32.1088C26.4488 31.8938 26.6556 31.7156 26.8923 31.5856C27.2218 31.3911 27.5897 31.2707 27.9705 31.2327C28.3512 31.1947 28.7356 31.24 29.0971 31.3655L29.1877 31.2685L26.6666 28.6624C24.8373 30.6584 22.8752 32.4497 21.9772 35.0283ZM25.4667 36.5971L24.1617 36.3681C24.3097 36.5638 24.5263 36.6962 24.768 36.7387C25.0096 36.7812 25.2584 36.7306 25.4643 36.5971H25.4667ZM25.974 39.3544C25.8551 39.5184 25.7849 39.7126 25.7716 39.9148C25.7583 40.1169 25.8023 40.3187 25.8988 40.4968C26.011 40.7226 26.1831 40.9131 26.3963 41.0477C26.6094 41.1822 26.8555 41.2556 27.1075 41.2598C26.7297 41.1196 26.4112 40.8542 26.2049 40.5079C25.9987 40.1616 25.9172 39.7551 25.974 39.356V39.3544ZM27.4199 17.8814C28.0674 18.6186 28.5332 19.4972 28.7801 20.4468C29.027 21.3965 29.048 22.3908 28.8414 23.35C29.145 22.9084 29.3501 22.4068 29.4429 21.879C29.5356 21.3513 29.5139 20.8098 29.3791 20.2912C29.2443 19.7726 28.9995 19.289 28.6615 18.8732C28.3235 18.4575 27.9 18.1192 27.4199 17.8814ZM30.5753 7.0397C31.4928 7.78244 31.1797 8.64815 30.9248 9.50173C30.712 10.2162 30.4393 10.9136 30.2686 11.6377C29.945 13.0261 30.5817 13.8756 32.0874 14.0714C31.7393 13.7647 31.4831 13.3674 31.3472 12.9238C31.2114 12.4801 31.2013 12.0075 31.318 11.5584C31.4369 10.6725 31.619 9.79543 31.763 8.91353C31.7966 8.69188 31.8112 8.46776 31.8067 8.24361C31.797 7.41026 31.492 7.09715 30.5712 7.03727L30.5753 7.0397ZM32.4976 2.41418C32.1799 2.75497 31.9529 3.17012 31.8374 3.6215C31.7219 4.07289 31.7216 4.54606 31.8366 4.99758C31.8569 5.12865 31.9022 5.25568 31.9264 5.38675C31.9373 5.56876 31.9995 5.74396 32.1059 5.89203C32.2123 6.0401 32.3585 6.15498 32.5276 6.22333C32.6853 6.14916 32.8203 6.03424 32.9187 5.89044C33.0171 5.74665 33.0754 5.57919 33.0875 5.40536C33.1109 5.27429 33.157 5.14726 33.1773 5.01538C33.2935 4.55917 33.2918 4.08087 33.1721 3.62552C33.0525 3.17018 32.819 2.75276 32.4936 2.41256L32.4976 2.41418ZM34.7445 11.6555C34.577 10.9322 34.3019 10.234 34.0883 9.51954C33.8334 8.66677 33.5219 7.80024 34.4378 7.0575C33.5171 7.11657 33.2121 7.43049 33.2056 8.26142C33.2011 8.48529 33.2157 8.70914 33.2493 8.93052C33.3933 9.81323 33.5729 10.6903 33.6943 11.5762C33.811 12.0253 33.8009 12.4979 33.6651 12.9416C33.5292 13.3852 33.273 13.7825 32.9248 14.0892C34.4273 13.891 35.0608 13.0415 34.7404 11.6531L34.7445 11.6555ZM37.5892 17.9016C37.109 18.1393 36.6856 18.4775 36.3476 18.8932C36.0095 19.3089 35.7648 19.7924 35.63 20.3109C35.4952 20.8295 35.4734 21.371 35.5662 21.8986C35.659 22.4263 35.8641 22.9279 36.1676 23.3694C35.9605 22.4103 35.9808 21.416 36.2271 20.4662C36.4734 19.5164 36.9388 18.6375 37.586 17.9L37.5892 17.9016ZM35.1903 25.3678C34.1523 24.1723 33.2503 22.8651 32.5009 21.4705C31.7532 22.8584 30.8545 24.1594 29.8212 25.35C29.0493 26.24 28.2378 27.096 27.4012 28.0135C29.3673 29.8024 31.1424 31.7596 31.9491 34.4053L32.081 34.3721C32.1079 33.8172 31.9669 33.2671 31.6764 32.7936C30.7282 31.1479 31.0534 29.5322 31.814 27.9496C31.9488 27.6915 32.1145 27.4508 32.3075 27.2328V26.7611C32.369 26.842 32.4337 26.9229 32.4993 27.0038C32.5705 26.918 32.6409 26.8331 32.7064 26.7449V27.2522C32.8994 27.4707 33.0654 27.7116 33.2007 27.9698C33.9613 29.5524 34.2865 31.1673 33.3375 32.8138C33.047 33.287 32.906 33.8369 32.9329 34.3915L33.0648 34.4255C33.8739 31.779 35.6466 29.821 37.6127 28.0338C36.7704 27.1122 35.9589 26.257 35.187 25.3662L35.1903 25.3678ZM32.5114 31.5168C32.6787 31.1754 32.7648 30.8 32.7632 30.4198C32.7615 30.0396 32.672 29.665 32.5017 29.325C32.3349 29.6649 32.2486 30.0386 32.2498 30.4172C32.2509 30.7958 32.3393 31.1691 32.5082 31.5079L32.5114 31.5168ZM43.0295 35.0525C42.1314 32.474 40.1702 30.6835 38.3368 28.6883L35.8157 31.2935L35.9063 31.3906C36.2677 31.2649 36.6522 31.2195 37.033 31.2575C37.4137 31.2955 37.7816 31.416 38.1111 31.6107C38.3477 31.7406 38.5544 31.9189 38.7177 32.1338C38.8811 32.3487 38.9975 32.5956 39.0593 32.8583C39.1212 33.1211 39.1272 33.394 39.0768 33.6592C39.0265 33.9244 38.921 34.1761 38.7672 34.398C38.6015 34.6504 38.3671 34.8501 38.0915 34.9736C37.816 35.097 37.5108 35.139 37.2122 35.0946C36.9339 35.0738 36.6676 34.9727 36.4457 34.8035C36.2238 34.6343 36.0558 34.4043 35.9621 34.1415C35.8956 33.9417 35.8931 33.726 35.9551 33.5247C36.017 33.3234 36.1403 33.1464 36.3076 33.0185C36.4568 32.899 36.6457 32.8404 36.8363 32.8546C37.0269 32.8687 37.2052 32.9544 37.3351 33.0945C37.5023 33.3567 37.623 33.6458 37.6919 33.9489C37.7996 33.8802 37.8902 33.788 37.9571 33.6792C38.024 33.5704 38.0654 33.4479 38.0782 33.3209C38.0909 33.1938 38.0748 33.0655 38.0308 32.9456C37.9869 32.8257 37.9164 32.7173 37.8246 32.6285C37.6614 32.4312 37.4577 32.2713 37.2273 32.1595C36.997 32.0478 36.7453 31.9868 36.4893 31.9808C36.2333 31.9747 35.979 32.0237 35.7436 32.1244C35.5082 32.2251 35.2971 32.3753 35.1247 32.5646C34.0244 33.6463 33.7687 35.0728 33.513 36.5841C33.6749 36.4935 33.7671 36.4514 33.848 36.3932C34.3375 36.0435 34.9071 35.8227 35.5044 35.7512C36.1017 35.6796 36.7073 35.7596 37.2656 35.9838C37.5485 36.1019 37.853 36.1595 38.1595 36.1531C38.466 36.1467 38.7678 36.0764 39.0455 35.9466C39.318 35.8179 39.6243 35.7794 39.9202 35.8365C40.5051 35.9595 40.9574 35.8802 41.2147 35.2386C41.3484 35.4139 41.4323 35.622 41.4578 35.8409C41.4833 36.0599 41.4494 36.2817 41.3595 36.483C41.2411 36.7669 41.0373 37.0069 40.7763 37.1699C40.5154 37.3328 40.2103 37.4106 39.9032 37.3924L39.8797 37.5356L43.2779 39.2347C43.5449 37.8397 43.4589 36.4001 43.0278 35.0469L43.0295 35.0525ZM37.8999 41.2825C38.152 41.2789 38.3982 41.2058 38.6115 41.0714C38.8247 40.9369 38.9968 40.7462 39.1087 40.5203C39.2051 40.3422 39.2492 40.1404 39.2359 39.9382C39.2226 39.7361 39.1524 39.5418 39.0334 39.3779C39.0891 39.7764 39.0068 40.1819 38.8004 40.5273C38.5939 40.8727 38.2756 41.1371 37.8983 41.2768L37.8999 41.2825ZM39.5399 36.6205C39.7459 36.7548 39.9952 36.806 40.2374 36.7636C40.4796 36.7213 40.6967 36.5886 40.8449 36.3924L39.5399 36.6205ZM42.5489 41.4321C42.1018 41.3338 41.6815 41.1395 41.3169 40.8628C40.9523 40.5861 40.6521 40.2335 40.4372 39.8293C40.3795 40.397 40.143 40.9317 39.7617 41.3562C39.3804 41.7807 38.874 42.0731 38.3158 42.1911C37.8894 42.2475 37.456 42.1719 37.0739 41.9744C36.6919 41.7769 36.3795 41.4671 36.179 41.0867C36.3497 41.0341 36.5188 40.9888 36.6822 40.9297C37.2213 40.7531 37.6735 40.3791 37.9482 39.8828C38.2228 39.3864 38.2995 38.8046 38.1628 38.2541C38.0372 37.7395 37.7254 37.2897 37.2876 36.9916C36.8498 36.6935 36.317 36.5682 35.7922 36.6399C35.2385 36.6449 34.7076 36.8614 34.3084 37.2451C33.9091 37.6289 33.6718 38.1508 33.6449 38.7039C33.6141 39.5214 33.7687 40.3352 34.0972 41.0844C34.4256 41.8336 34.9194 42.4988 35.5414 43.0301C36.1752 43.6776 37.0109 44.0897 37.9104 44.1984C38.866 44.2205 39.8084 43.9719 40.6288 43.4815C41.4492 42.991 42.1143 42.2786 42.5473 41.4265L42.5489 41.4321ZM27.9457 49.0844C28.506 49.3721 29.1261 49.5239 29.7559 49.5277C30.3857 49.5315 31.0075 49.3872 31.5712 49.1063C31.8215 49.0066 32.0665 48.894 32.3051 48.7689V48.5893C32.3658 48.6184 32.4256 48.6483 32.4863 48.6791C32.5591 48.6427 32.6311 48.6063 32.704 48.5715V48.7875C32.9427 48.9123 33.1876 49.0249 33.4378 49.1249C34.0016 49.4056 34.6235 49.5499 35.2532 49.5459C35.883 49.542 36.5031 49.39 37.0633 49.1022C37.3081 48.959 37.5212 48.7673 37.6896 48.539C37.8579 48.3107 37.978 48.0505 38.0425 47.7742C38.107 47.498 38.1146 47.2115 38.0647 46.9322C38.0149 46.653 37.9087 46.3868 37.7526 46.1499C37.6248 45.9628 37.4455 45.8169 37.2364 45.7297C37.0273 45.6425 36.7974 45.6179 36.5746 45.6588C36.3942 45.6842 36.2271 45.768 36.0989 45.8974C35.9706 46.0268 35.8883 46.1946 35.8646 46.3753C35.8408 46.5559 35.8769 46.7393 35.9673 46.8975C36.0576 47.0556 36.1974 47.1799 36.3651 47.2511C35.7081 47.7066 35.1336 47.7268 34.7979 47.2276C34.5989 46.9016 34.4843 46.5312 34.4645 46.1499C34.4168 45.4711 34.878 45.0455 35.429 44.6749C34.4463 44.0433 33.6408 43.1717 33.0883 42.1425L32.704 42.4848V42.8221L32.5146 42.653L32.3051 42.8408V42.4661L31.9208 42.1239C31.3683 43.1531 30.5627 44.0247 29.5801 44.6563C30.1319 45.0277 30.5931 45.4533 30.5445 46.1313C30.5247 46.5126 30.4102 46.883 30.2112 47.209C29.8754 47.709 29.301 47.6888 28.644 47.2324C28.8117 47.1612 28.9514 47.037 29.0418 46.8789C29.1322 46.7207 29.1683 46.5373 29.1445 46.3567C29.1207 46.176 29.0384 46.0082 28.9102 45.8788C28.7819 45.7494 28.6148 45.6656 28.4344 45.6402C28.2116 45.5994 27.9818 45.6241 27.7727 45.7112C27.5636 45.7984 27.3843 45.9443 27.2564 46.1313C27.1009 46.3679 26.9952 46.6337 26.9456 46.9125C26.896 47.1912 26.9036 47.4772 26.9679 47.7529C27.0322 48.0287 27.1519 48.2885 27.3198 48.5165C27.4876 48.7446 27.7 48.9361 27.9441 49.0796L27.9457 49.0844ZM27.0978 44.1798C27.9973 44.0715 28.833 43.6596 29.4668 43.0123C30.0889 42.481 30.5826 41.8158 30.9111 41.0666C31.2395 40.3174 31.3941 39.5036 31.3633 38.6861C31.3367 38.1329 31.0994 37.6108 30.7002 37.2268C30.3009 36.8429 29.7699 36.6263 29.216 36.6213C28.6912 36.5494 28.1583 36.6746 27.7205 36.9728C27.2826 37.2709 26.9708 37.7208 26.8454 38.2355C26.7085 38.7859 26.785 39.3678 27.0595 39.8641C27.334 40.3605 27.7862 40.7345 28.3252 40.9111C28.487 40.9702 28.6586 41.0155 28.8285 41.0681C28.6278 41.4483 28.3154 41.758 27.9333 41.9553C27.5513 42.1526 27.1179 42.2281 26.6917 42.1716C26.1334 42.0538 25.6269 41.7615 25.2456 41.3369C24.8643 40.9124 24.6278 40.3777 24.5703 39.8099C24.3553 40.214 24.0552 40.5667 23.6906 40.8434C23.326 41.1201 22.9056 41.3144 22.4586 41.4127C22.893 42.2632 23.559 42.9737 24.3796 43.4623C25.2003 43.9508 26.1423 44.1976 27.097 44.1741L27.0978 44.1798Z" fill="white"/>
<path d="M19.9531 51.0685C20.0745 51.4973 20.1514 51.9383 20.2484 52.3736C19.6885 50.6649 18.6148 49.1707 17.1739 48.0951C16.4652 47.5487 15.6388 47.1752 14.7604 47.0044C13.8819 46.8336 12.9757 46.8702 12.1139 47.1113C12.0943 46.2523 12.3968 45.4171 12.9618 44.7698C13.3241 44.4285 13.7737 44.194 14.2609 44.0923C14.7481 43.9906 15.2539 44.0257 15.7224 44.1937C14.9943 43.273 14.2459 42.6015 13.1188 42.6476C12.5565 42.6652 12.0113 42.8448 11.5487 43.1649C11.0861 43.485 10.7258 43.9319 10.5111 44.4518C9.73967 44.1541 9.0985 43.5929 8.70122 42.8677C8.22306 41.8256 8.66886 40.9372 9.27486 40.0828C8.40323 39.9348 7.50709 40.0752 6.72251 40.4827C5.93793 40.8903 5.30775 41.5427 4.92767 42.3409C4.29672 43.7151 4.20462 45.276 4.66957 46.7148C4.75788 46.9474 4.86476 47.1725 4.98916 47.388C4.96719 47.0396 5.0524 46.6928 5.23334 46.3943C5.41429 46.0958 5.68229 45.8598 6.00131 45.7181C6.31599 45.572 6.66914 45.5305 7.00909 45.5997C7.34903 45.6688 7.65792 45.845 7.89053 46.1024C8.12178 46.3405 8.27303 46.6449 8.3232 46.9731C8.37338 47.3013 8.31998 47.6369 8.17046 47.9333C8.02409 48.2378 7.81636 48.5087 7.56032 48.7291C7.30427 48.9496 7.00544 49.1147 6.68257 49.2141C5.80926 49.4997 4.87022 49.5159 3.98757 49.2606C3.10493 49.0054 2.3195 48.4904 1.73341 47.7828C1.02328 46.9335 0.526589 45.9266 0.284786 44.8462C0.0429836 43.7659 0.0630851 42.6433 0.343409 41.5723C1.12094 38.1094 3.52471 36.2283 6.85004 35.5552C9.67697 34.9832 12.19 35.9508 14.4125 37.709C16.6331 39.5739 18.3844 41.9346 19.5251 44.6007C19.9208 45.443 20.2727 46.3071 20.6506 47.1736C21.9596 45.379 23.6442 45.0158 25.2478 46.1808C25.1393 46.2617 25.0374 46.3427 24.9338 46.4236C23.6848 47.3041 22.7802 48.591 22.3747 50.0644C22.1182 51.0734 22.0074 52.1195 21.831 53.1487H21.5616C21.5462 52.8372 21.5357 52.5249 21.5138 52.2134C21.3852 50.3929 21.5389 48.6469 22.8262 47.1971C22.8582 47.1518 22.8854 47.1033 22.9071 47.0522C21.1174 47.6283 21.1845 49.1955 20.979 50.6931C20.9176 50.5725 20.8828 50.5135 20.8553 50.4504C20.0923 48.6971 19.3868 46.9163 18.5542 45.1978C17.5407 43.0042 16.112 41.0276 14.347 39.3773C13.4402 38.4657 12.325 37.7888 11.0979 37.4049C9.87072 37.021 8.56855 36.9418 7.30394 37.1742C4.45921 37.6992 2.35479 39.7252 2.21644 42.663C2.15557 43.7452 2.40841 44.8221 2.9446 45.7642C2.95483 45.6767 2.9474 45.5882 2.92276 45.5036C2.57646 44.3207 2.63588 43.0559 3.09158 41.9107C3.54728 40.7654 4.37304 39.8055 5.43739 39.1839C6.93822 38.2781 8.71171 37.9341 10.4424 38.213C11.7189 38.3582 12.9022 38.9527 13.7806 39.8902C13.9982 40.1491 14.2021 40.4191 14.3915 40.6993C14.2395 40.6962 14.0899 40.6604 13.953 40.5941C13.4143 40.3591 12.8191 40.2848 12.2391 40.3803C11.6592 40.4758 11.1192 40.7369 10.6843 41.1322C10.4919 41.2878 10.3459 41.4932 10.262 41.726C10.1782 41.9587 10.1597 42.21 10.2085 42.4526C10.3841 42.3013 10.5144 42.1864 10.6479 42.0756C11.1868 41.5414 11.8991 41.2177 12.6559 41.1631C13.4128 41.1085 14.1642 41.3265 14.7742 41.7778C16.6315 43.1023 18.0473 44.9551 18.8374 47.0951C17.7104 45.8564 16.4102 45.1274 14.6779 45.5579C15.5292 45.6135 16.3476 45.9076 17.0396 46.4066C18.505 47.5908 19.5309 49.2323 19.9531 51.0685Z" fill="white"/>
<path d="M9.61152 47.8066C10.305 48.2857 11.1165 48.5655 11.9579 48.6157C12.9373 48.7236 13.9098 48.8876 14.8706 49.1068C15.5561 49.3378 16.1418 49.7969 16.5298 50.4075C16.9177 51.0181 17.0846 51.7433 17.0025 52.4621C16.3524 51.9584 15.6773 51.4877 14.9798 51.0519C14.4854 50.7453 13.9134 50.587 13.3317 50.5957C12.75 50.6045 12.1831 50.7799 11.6981 51.1012C10.8991 51.6087 10.2445 52.3137 9.79761 53.1482H5.04102C6.73361 52.0713 8.20856 50.6125 10.2887 50.2048C9.78447 49.5116 9.54432 48.6612 9.61152 47.8066Z" fill="white"/>
<path d="M-2.82104 51.6676C-2.50859 51.5489 -2.1758 51.493 -1.84171 51.5031C-1.50763 51.5132 -1.17882 51.589 -0.874084 51.7263C-0.569352 51.8636 -0.29468 52.0597 -0.0657992 52.3033C0.163082 52.5468 0.341681 52.8331 0.459784 53.1458H-7.35352C-6.47917 52.8605 -5.60455 52.5751 -4.72967 52.2898C-4.09373 52.0811 -3.4675 51.8351 -2.82104 51.6676Z" fill="white"/>
<path d="M13.3053 52.157C13.8834 52.077 14.4719 52.1241 15.0299 52.295C15.5879 52.4659 16.1019 52.7565 16.536 53.1465H11.6855C11.87 52.8762 12.1098 52.6482 12.389 52.4776C12.6683 52.307 12.9806 52.1977 13.3053 52.157Z" fill="white"/>
<path d="M16.9023 50.0215C17.5406 50.2196 18.0801 50.6522 18.4121 51.2321C18.7442 51.812 18.8442 52.4962 18.692 53.147H17.1653C17.743 52.062 17.3951 51.0434 16.9023 50.0215Z" fill="white"/>
<path d="M15.6563 31.0369C15.516 30.7958 15.4549 30.5167 15.4818 30.2389C15.5086 29.9612 15.622 29.699 15.806 29.4892C15.9752 29.2768 16.2065 29.1226 16.4677 29.0484C16.7289 28.9741 17.0067 28.9834 17.2623 29.0749C17.7096 29.2136 18.0903 29.5117 18.3321 29.9127C18.5739 30.3136 18.6599 30.7895 18.5738 31.2497C18.4307 32.0053 18.0245 32.6858 17.4273 33.1703C16.8301 33.6548 16.0805 33.912 15.3116 33.8962C14.475 33.8477 13.6861 33.4908 13.0972 32.8946C12.5083 32.2984 12.1613 31.5051 12.123 30.668C12.1711 29.7306 12.4998 28.8292 13.0663 28.0807C13.6328 27.3323 14.4111 26.7713 15.3003 26.4705C17.2909 25.856 19.4373 25.9889 21.3369 26.8443C21.6386 26.9923 21.9292 27.1619 22.2066 27.3516L22.1508 27.4576C21.5796 27.354 21.0116 27.2334 20.438 27.1517C18.9304 26.8771 17.3797 26.9549 15.9071 27.3791C15.2903 27.5222 14.7282 27.8413 14.2893 28.2978C13.8504 28.7542 13.5534 29.3283 13.4346 29.9503C13.3256 30.4909 13.4197 31.0526 13.6988 31.5281C13.9779 32.0037 14.4225 32.3597 14.9475 32.5281C15.3652 32.6995 15.8318 32.7091 16.2562 32.5548C16.6805 32.4005 17.0321 32.0936 17.2421 31.6939L17.0601 31.7174C16.7844 31.7629 16.5015 31.7219 16.2501 31.6C15.9988 31.4782 15.7913 31.2815 15.6563 31.0369Z" fill="white"/>
<path d="M-3.40621 50.8216C-3.47043 50.4651 -3.41864 50.0974 -3.25845 49.7725C-3.09826 49.4476 -2.83812 49.1827 -2.51622 49.0166C-2.91415 48.9812 -3.29924 48.8579 -3.64362 48.6554C-3.98799 48.4529 -4.28303 48.1764 -4.50737 47.8458C-4.79921 47.5082 -5.11884 47.1956 -5.46289 46.9113C-4.14452 46.4252 -2.69818 46.4123 -1.37137 46.8749C0.856846 47.684 2.04943 50.2189 2.18859 52.9349C0.55829 51.5223 -1.18689 50.5239 -3.40621 50.8216ZM-0.516975 50.0279C-0.56579 49.4049 -0.841976 48.8215 -1.29297 48.3889C-1.74397 47.9562 -2.33829 47.7045 -2.96283 47.6816C-2.45591 47.9535 -1.9761 48.2732 -1.52994 48.6363C-1.14818 49.0664 -0.80894 49.5324 -0.516975 50.0279Z" fill="white"/>
<path d="M19.1564 13.7261C19.5444 13.0442 20.1417 12.5055 20.8599 12.1897C21.578 11.8739 22.3788 11.7978 23.1436 11.9728C25.3645 12.4154 26.8969 13.8758 28.3217 15.4875C28.2423 15.4629 28.1695 15.4205 28.1089 15.3637C26.8644 14.2545 25.337 13.5116 23.6962 13.2172C22.9765 13.0658 22.2262 13.1981 21.6018 13.5866C20.9774 13.9751 20.5271 14.5897 20.3449 15.3022C20.2626 15.7277 20.2712 16.1657 20.37 16.5877C20.4689 17.0096 20.6558 17.4059 20.9186 17.7505C20.5023 17.655 20.1142 17.4635 19.7853 17.1911C19.4564 16.9187 19.1959 16.573 19.0246 16.1818C18.8533 15.7906 18.776 15.3648 18.7989 14.9383C18.8217 14.5119 18.9442 14.0967 19.1564 13.7261Z" fill="white"/>
<path d="M5.60322 53.0508C4.65012 52.9254 3.81515 52.8615 3.00202 52.6908C2.52415 52.5786 2.0696 52.3836 1.65894 52.1147C1.39893 51.9733 1.1969 51.7451 1.08819 51.4698C0.979475 51.1946 0.971005 50.8899 1.06427 50.609C1.1697 50.2815 1.36141 49.9884 1.61925 49.7606C1.87708 49.5329 2.19152 49.3787 2.52952 49.3145C2.20993 50.2611 2.82645 50.6219 3.53035 50.9229C3.57161 50.9407 3.61126 50.9569 3.65252 50.9779C4.50901 51.4408 5.19317 52.1678 5.60322 53.0508Z" fill="white"/>
<path d="M24.3328 18.0955C23.9047 18.2278 23.4491 18.2436 23.0128 18.1414C22.5765 18.0392 22.1753 17.8225 21.8506 17.5138C21.6013 17.2815 21.4141 16.9904 21.3062 16.6672C21.1983 16.344 21.173 15.999 21.2327 15.6635C21.2924 15.328 21.4352 15.0128 21.648 14.7467C21.8608 14.4806 22.1368 14.2719 22.4509 14.1399C22.7922 13.9995 23.1734 13.9901 23.5212 14.1136C23.869 14.2371 24.1589 14.4848 24.3353 14.809C24.4328 15.0368 24.4497 15.291 24.383 15.5297C24.3164 15.7683 24.1702 15.9771 23.9688 16.1213C23.8766 16.1924 23.7713 16.2447 23.6589 16.275C23.5465 16.3054 23.4293 16.3133 23.3138 16.2982C23.1984 16.2832 23.087 16.2456 22.9862 16.1874C22.8853 16.1293 22.7969 16.0519 22.726 15.9595C22.6362 15.8673 22.5521 15.7686 22.4614 15.6691C21.7592 16.593 22.6532 17.716 24.3328 18.0955Z" fill="white"/>
<path d="M4.18558 34.9075C4.16009 34.9247 4.133 34.9393 4.10468 34.9512C3.8948 35.0695 3.65321 35.1192 3.4137 35.0933C3.17419 35.0675 2.94874 34.9675 2.76889 34.8072C2.60785 34.6594 2.49869 34.4637 2.45759 34.2491C2.4165 34.0344 2.44565 33.8122 2.54073 33.6154C2.61749 33.378 2.75962 33.1671 2.95081 33.0068C3.14201 32.8465 3.37452 32.7434 3.62166 32.7093C4.35594 32.5958 5.10648 32.6525 5.81534 32.8751C6.5242 33.0978 7.17242 33.4803 7.70995 33.9933C7.09194 33.859 6.45103 33.8718 5.83886 34.0306C5.22669 34.1894 4.66038 34.4898 4.18558 34.9075Z" fill="white"/>
<path d="M14.7186 19.1819C14.5079 19.1743 14.3039 19.1056 14.1316 18.9842C13.9592 18.8629 13.8258 18.694 13.7477 18.4982C13.6693 18.3104 13.6496 18.1033 13.6912 17.9042C13.7328 17.705 13.8337 17.5231 13.9807 17.3825C14.1715 17.1683 14.4221 17.0162 14.7002 16.946C14.9782 16.8758 15.271 16.8905 15.5406 16.9884C16.5236 17.2792 17.3824 17.8878 17.9824 18.7191C18.2257 19.0486 18.4502 19.3917 18.6548 19.7466L18.5488 19.8607C18.0801 19.4694 17.5215 19.2009 16.9232 19.0793C16.3249 18.9577 15.7057 18.9868 15.1215 19.1641C14.9889 19.1909 14.853 19.1969 14.7186 19.1819Z" fill="white"/>
<path d="M11.5336 21.4636C11.5257 21.622 11.458 21.7715 11.3442 21.882C11.2304 21.9925 11.079 22.0558 10.9204 22.059C10.7542 22.0559 10.5959 21.988 10.4791 21.8698C10.3622 21.7516 10.2962 21.5925 10.2949 21.4263C10.2938 21.2677 10.3543 21.1148 10.4637 20.9999C10.5732 20.885 10.723 20.8171 10.8815 20.8106C10.9676 20.8092 11.0531 20.8251 11.1329 20.8574C11.2128 20.8898 11.2853 20.9378 11.3461 20.9987C11.407 21.0597 11.4549 21.1322 11.4871 21.2121C11.5194 21.2919 11.5352 21.3775 11.5336 21.4636Z" fill="white"/>
<path d="M13.0001 21.0001C13.0051 21.0755 12.9946 21.1511 12.9691 21.2222C12.9437 21.2933 12.9039 21.3584 12.8522 21.4135C12.8005 21.4686 12.7381 21.5125 12.6688 21.5424C12.5994 21.5723 12.5247 21.5877 12.4491 21.5875C12.3754 21.5899 12.3019 21.5778 12.2329 21.5517C12.1638 21.5257 12.1006 21.4864 12.0468 21.4359C11.9929 21.3855 11.9496 21.3249 11.9191 21.2577C11.8887 21.1905 11.8718 21.118 11.8694 21.0442C11.867 20.9705 11.8792 20.897 11.9052 20.828C11.9312 20.7589 11.9706 20.6957 12.021 20.6419C12.0715 20.588 12.132 20.5447 12.1992 20.5142C12.2664 20.4838 12.339 20.4669 12.4127 20.4645C12.487 20.4588 12.5616 20.4683 12.6321 20.4925C12.7025 20.5167 12.7673 20.5551 12.8223 20.6053C12.8773 20.6554 12.9215 20.7164 12.9521 20.7843C12.9827 20.8522 12.999 20.9257 13.0001 21.0001Z" fill="white"/>
<path d="M13.9719 21.3515C13.9048 21.3647 13.8355 21.3622 13.7695 21.3439C13.7035 21.3257 13.6427 21.2923 13.592 21.2464C13.5412 21.2005 13.5019 21.1434 13.4771 21.0796C13.4523 21.0158 13.4428 20.9471 13.4492 20.879C13.4695 20.6702 13.6831 20.4801 13.8109 20.281L14.0302 20.2754C14.1677 20.4671 14.3837 20.6443 14.4242 20.8547C14.4792 21.1346 14.2648 21.3329 13.9719 21.3515Z" fill="white"/>
<path d="M15.5485 20.3842C15.6569 20.5639 15.8616 20.754 15.8446 20.9215C15.8126 21.0184 15.7573 21.106 15.6835 21.1765C15.6097 21.2471 15.5197 21.2984 15.4214 21.326C15.3619 21.3385 15.3003 21.3359 15.2421 21.3183C15.1839 21.3007 15.131 21.2688 15.0884 21.2254C15.0458 21.1821 15.0147 21.1287 14.9981 21.0702C14.9815 21.0117 14.9799 20.95 14.9934 20.8907C15.0242 20.7054 15.2151 20.5477 15.3341 20.377L15.5485 20.3842Z" fill="white"/>
<path d="M17.436 21.1377C17.165 21.3174 16.9942 21.5156 16.864 21.4921C16.7783 21.4583 16.7024 21.4036 16.6433 21.3329C16.5843 21.2623 16.5438 21.1779 16.5258 21.0876C16.5145 20.9824 16.7539 20.7559 16.8818 20.7559C17.0282 20.7575 17.1755 20.9476 17.436 21.1377Z" fill="white"/>
<path d="M18.5992 21.5646C18.6138 21.6649 18.4423 21.7927 18.2756 22.0112C18.1365 21.7685 17.99 21.6269 18.0005 21.4974C18.0102 21.389 18.202 21.296 18.3136 21.1973C18.4148 21.3186 18.5798 21.4311 18.5992 21.5646Z" fill="white"/>
<path d="M19.9344 22.1191C19.9344 22.2 19.7637 22.3343 19.6747 22.3294C19.5857 22.3246 19.432 22.1741 19.4377 22.094C19.4433 21.984 19.5712 21.8812 19.7055 21.6895C19.822 21.895 19.9385 22.0098 19.9344 22.1191Z" fill="white"/>
<path d="M-0.28684 37.5316C-0.352376 37.5389 -0.506098 37.3544 -0.49558 37.2719C-0.481016 37.161 -0.347518 37.0647 -0.20431 36.8867C-0.0967022 37.0849 0.0311326 37.2104 0.00928748 37.3107C-0.0182613 37.3689 -0.0596616 37.4195 -0.111286 37.458C-0.16291 37.4965 -0.223189 37.5218 -0.28684 37.5316Z" fill="white"/>
<path d="M40.067 46.4423C39.9635 46.3614 39.8615 46.2805 39.7539 46.1996C41.3591 45.0353 43.042 45.3986 44.3511 47.1923C44.7289 46.325 45.0793 45.4617 45.4765 44.6194C46.6178 41.9536 48.369 39.5931 50.5891 37.7277C52.8084 35.9704 55.3247 35.0027 58.1516 35.5747C61.4761 36.2471 63.8807 38.1298 64.6583 41.5918C64.9385 42.6629 64.9586 43.7854 64.7168 44.8658C64.475 45.9461 63.9783 46.953 63.2683 47.8024C62.6821 48.5099 61.8967 49.0247 61.014 49.28C60.1314 49.5352 59.1924 49.5191 58.3191 49.2336C57.9963 49.1341 57.6975 48.969 57.4414 48.7486C57.1854 48.5282 56.9776 48.2573 56.8312 47.9528C56.6817 47.6564 56.6283 47.3208 56.6785 46.9926C56.7286 46.6644 56.8799 46.3601 57.1111 46.1219C57.3438 45.8646 57.6527 45.6886 57.9926 45.6194C58.3325 45.5503 58.6856 45.5917 59.0003 45.7376C59.3194 45.8793 59.5874 46.1153 59.7683 46.4138C59.9493 46.7124 60.0345 47.0591 60.0125 47.4075C60.138 47.1921 60.2463 46.967 60.3361 46.7344C60.8005 45.2955 60.7084 43.7348 60.078 42.3605C59.6977 41.5624 59.0675 40.9101 58.283 40.5026C57.4985 40.0951 56.6025 39.9546 55.7308 40.1023C56.3377 40.9567 56.7826 41.8459 56.3045 42.8872C55.9075 43.6128 55.2662 44.1744 54.4946 44.4722C54.2799 43.9522 53.9196 43.5053 53.457 43.1852C52.9944 42.8652 52.4492 42.6855 51.8869 42.6679C50.7598 42.6226 50.0123 43.2934 49.2833 44.2141C49.7518 44.0463 50.2576 44.0113 50.7448 44.1129C51.232 44.2146 51.6816 44.449 52.0439 44.7901C52.6098 45.4388 52.9123 46.2759 52.8918 47.1365C52.03 46.8954 51.1238 46.8588 50.2454 47.0296C49.3669 47.2004 48.5405 47.5739 47.8318 48.1203C46.3907 49.1958 45.317 50.69 44.7573 52.3988C44.8544 51.9627 44.9312 51.5217 45.0526 51.0937C45.4736 49.2561 46.4993 47.6131 47.9653 46.4277C48.6572 45.9286 49.4757 45.6345 50.327 45.579C48.5964 45.147 47.2945 45.8759 46.1675 47.1163C46.958 44.9765 48.3737 43.1239 50.2307 41.799C50.8409 41.3482 51.5922 41.1304 52.3489 41.185C53.1056 41.2396 53.8178 41.563 54.357 42.0967C54.4897 42.2076 54.6208 42.3233 54.7955 42.4738C54.8442 42.2312 54.8257 41.9799 54.7418 41.7472C54.6579 41.5145 54.512 41.3091 54.3198 41.1533C53.8846 40.7581 53.3445 40.4971 52.7645 40.4017C52.1844 40.3062 51.5892 40.3804 51.0503 40.6153C50.9134 40.6815 50.7638 40.7174 50.6118 40.7205C50.8013 40.4404 51.0052 40.1704 51.2226 39.9114C52.1012 38.9741 53.2845 38.3799 54.5609 38.235C56.2916 37.9557 58.0652 38.2997 59.5659 39.2059C60.6303 39.8275 61.4561 40.7873 61.912 41.9325C62.3678 43.0778 62.4274 44.3426 62.0813 45.5256C62.056 45.6103 62.0483 45.6992 62.0587 45.7869C62.5948 44.8448 62.8477 43.768 62.7868 42.6857C62.6477 39.7471 60.5441 37.722 57.6993 37.1969C56.4347 36.9646 55.1325 37.0438 53.9054 37.4277C52.6783 37.8115 51.5631 38.4885 50.6563 39.4C48.8912 41.0504 47.4625 43.027 46.4491 45.2206C45.6165 46.9399 44.9118 48.7199 44.148 50.4731C44.1205 50.5362 44.0857 50.5961 44.0242 50.7159C43.8195 49.2191 43.8859 47.6527 42.0962 47.075C42.118 47.1258 42.1451 47.174 42.1771 47.219C43.4644 48.6697 43.6181 50.4149 43.4902 52.2353C43.4684 52.546 43.4579 52.8583 43.4425 53.1698H43.1731C42.9967 52.1407 42.8859 51.0953 42.6294 50.0864C42.2238 48.6113 41.318 47.323 40.067 46.4423Z" fill="white"/>
<path d="M50.1366 49.1225C51.0973 48.9029 52.0698 48.739 53.0493 48.6313C53.8906 48.5811 54.7021 48.3013 55.3956 47.8223C55.462 48.6757 55.2219 49.5248 54.7184 50.2172C56.7994 50.6217 58.2735 52.0837 59.9661 53.1598H55.2063C54.7594 52.3256 54.1052 51.6206 53.3066 51.1128C52.8216 50.7916 52.2546 50.6162 51.673 50.6075C51.0913 50.5987 50.5194 50.757 50.0249 51.0634C49.3065 51.468 48.6616 52.0093 48.0022 52.4729C47.9214 51.7546 48.0892 51.0303 48.4776 50.4206C48.8659 49.811 49.4515 49.3528 50.1366 49.1225Z" fill="white"/>
<path d="M67.8257 51.6868C68.473 51.8551 69.0984 52.1002 69.7344 52.309C70.6087 52.5948 71.4833 52.8799 72.3582 53.1642H64.5449C64.6633 52.8517 64.842 52.5656 65.071 52.3222C65.2999 52.0789 65.5746 51.883 65.8793 51.7458C66.1839 51.6086 66.5127 51.5328 66.8466 51.5227C67.1806 51.5125 67.5133 51.5683 67.8257 51.6868Z" fill="white"/>
<path d="M51.6991 52.1746C52.0234 52.2158 52.3354 52.3252 52.6143 52.4958C52.8932 52.6664 53.1328 52.8942 53.3172 53.1641H48.4668C48.9012 52.7741 49.4155 52.4835 49.9737 52.3126C50.532 52.1417 51.1208 52.0946 51.6991 52.1746Z" fill="white"/>
<path d="M48.1032 50.0391C47.6105 51.0609 47.2626 52.0796 47.8411 53.1637H46.3136C46.1614 52.5131 46.2614 51.829 46.5935 51.2492C46.9256 50.6694 47.4651 50.237 48.1032 50.0391Z" fill="white"/>
<path d="M33.5855 44.7522C33.4837 45.3517 33.3349 45.9422 33.1405 46.5184C33.0271 46.7629 32.8792 46.9899 32.7012 47.1924V47.6681C32.6405 47.5872 32.575 47.5063 32.5094 47.4254C32.4382 47.5111 32.3678 47.5977 32.3023 47.6867V47.1746C32.1245 46.972 31.9766 46.745 31.863 46.5006C31.6685 45.9244 31.5197 45.3339 31.418 44.7344L32.5288 45.0985L33.5855 44.7522Z" fill="white"/>
<path d="M32.7023 5.09916C32.6889 5.05554 32.6613 5.01763 32.624 4.99135C32.5866 4.96508 32.5416 4.95193 32.496 4.95396C32.4504 4.956 32.4068 4.97311 32.3719 5.0026C32.3371 5.03209 32.313 5.07231 32.3035 5.11696V4.63636C32.1827 4.32399 32.1827 3.97783 32.3035 3.66547V3.1428C32.3743 3.19609 32.4384 3.25776 32.4944 3.32646C32.5548 3.25069 32.6247 3.18298 32.7023 3.125V3.68489C32.8237 3.99714 32.8237 4.34353 32.7023 4.65578V5.09916Z" fill="white"/>
<path d="M49.0964 27.395C47.6239 26.9705 46.0731 26.8927 44.5655 27.1676C43.9919 27.2485 43.4231 27.3699 42.8527 27.4735L42.7969 27.3675C43.0743 27.1777 43.3649 27.0082 43.6666 26.8602C45.5661 26.0045 47.7126 25.8715 49.7032 26.4864C50.5919 26.7879 51.3695 27.3495 51.9353 28.0982C52.5011 28.8469 52.8289 29.7483 52.8764 30.6855C52.8384 31.5226 52.4913 32.3159 51.9024 32.912C51.3134 33.5081 50.5244 33.8648 49.6878 33.9129C48.919 33.9289 48.1695 33.6718 47.5722 33.1875C46.975 32.7031 46.5687 32.0228 46.4256 31.2672C46.3394 30.807 46.4253 30.331 46.6671 29.93C46.909 29.529 47.2898 29.2309 47.7371 29.0924C47.9927 29.0009 48.2705 28.9916 48.5316 29.0657C48.7927 29.1398 49.0241 29.2937 49.1935 29.5059C49.3775 29.7156 49.4911 29.9778 49.5181 30.2555C49.5451 30.5332 49.4842 30.8124 49.344 31.0536C49.2093 31.2978 49.0025 31.4944 48.7517 31.6163C48.501 31.7383 48.2187 31.7797 47.9434 31.7349L47.7614 31.7114C47.9716 32.1096 48.3225 32.4154 48.7458 32.5691C49.169 32.7228 49.6343 32.7136 50.0511 32.5432C50.5762 32.3749 51.0209 32.0189 51.3001 31.5433C51.5792 31.0678 51.6732 30.506 51.5641 29.9654C51.4455 29.3442 51.1493 28.7706 50.7113 28.3144C50.2733 27.8581 49.7123 27.5388 49.0964 27.395Z" fill="white"/>
<path d="M66.3735 46.894C67.7002 46.4317 69.1463 46.4449 70.4643 46.9312C70.1201 47.2153 69.8004 47.5279 69.5087 47.8657C69.2845 48.1963 68.9895 48.4728 68.6451 48.6752C68.3007 48.8776 67.9155 49.0007 67.5176 49.0356C67.8396 49.2019 68.0997 49.467 68.2599 49.792C68.4201 50.1171 68.4719 50.4849 68.4076 50.8415C66.1891 50.5438 64.4431 51.5422 62.8047 52.9548C62.9519 50.2379 64.1445 47.7031 66.3735 46.894ZM66.5354 48.6538C66.9812 48.2907 67.4608 47.971 67.9674 47.699C67.343 47.7221 66.7487 47.9739 66.2978 48.4065C65.8468 48.8391 65.5706 49.4224 65.5216 50.0454C65.8137 49.5491 66.1535 49.0824 66.5362 48.6521L66.5354 48.6538Z" fill="white"/>
<path d="M36.6816 15.507C38.1089 13.8953 39.6404 12.4325 41.8598 11.9924C42.6245 11.8174 43.4253 11.8934 44.1435 12.2092C44.8616 12.525 45.4589 13.0638 45.8469 13.7456C46.0594 14.1164 46.1821 14.5318 46.2051 14.9586C46.228 15.3853 46.1507 15.8115 45.9792 16.2029C45.8077 16.5944 45.5468 16.9402 45.2176 17.2126C44.8883 17.485 44.4998 17.6765 44.0831 17.7716C44.3459 17.427 44.5328 17.0307 44.6317 16.6088C44.7305 16.1869 44.7391 15.7488 44.6568 15.3233C44.4748 14.6108 44.0245 13.996 43.4001 13.6075C42.7756 13.219 42.0252 13.0867 41.3055 13.2383C39.6647 13.5327 38.1373 14.2757 36.8928 15.3848C36.8323 15.4407 36.7602 15.4824 36.6816 15.507Z" fill="white"/>
<path d="M63.3447 52.4396C62.9339 52.7083 62.4794 52.9033 62.0016 53.0156C61.1885 53.1864 60.3535 53.2503 59.4004 53.3757C59.8107 52.4939 60.4945 51.7681 61.3503 51.306C61.3891 51.285 61.4312 51.2688 61.4733 51.251C62.1764 50.9493 62.7929 50.5892 62.4733 49.6426C62.8114 49.7068 63.126 49.8609 63.384 50.0887C63.6419 50.3165 63.8338 50.6096 63.9393 50.9371C64.0314 51.2176 64.0224 51.5214 63.9137 51.7959C63.8051 52.0704 63.6037 52.2981 63.3447 52.4396Z" fill="white"/>
<path d="M42.2773 15.9777C42.2064 16.07 42.118 16.1475 42.0171 16.2056C41.9162 16.2637 41.8049 16.3014 41.6895 16.3164C41.574 16.3314 41.4568 16.3235 41.3444 16.2932C41.232 16.2628 41.1267 16.2106 41.0345 16.1395C40.833 15.9951 40.6868 15.7862 40.6201 15.5474C40.5535 15.3086 40.5704 15.0543 40.668 14.8264C40.8445 14.5023 41.1344 14.2547 41.4822 14.1313C41.8299 14.0078 42.211 14.017 42.5524 14.1573C42.8665 14.2894 43.1425 14.4981 43.3553 14.7643C43.5681 15.0305 43.7108 15.3458 43.7705 15.6813C43.8302 16.0168 43.8049 16.3619 43.697 16.6852C43.5891 17.0085 43.402 17.2996 43.1527 17.5319C42.8279 17.8407 42.4268 18.0573 41.9905 18.1596C41.5542 18.2618 41.0986 18.246 40.6704 18.1137C42.3501 17.7334 43.2441 16.6112 42.541 15.6864C42.4512 15.7892 42.3679 15.8846 42.2773 15.9777Z" fill="white"/>
<path d="M60.8968 34.9706C60.8686 34.9583 60.8416 34.9437 60.8158 34.9269C60.3407 34.5089 59.774 34.2084 59.1613 34.0498C58.5487 33.8911 57.9074 33.8786 57.2891 34.0135C57.8265 33.5004 58.4747 33.1177 59.1836 32.895C59.8925 32.6722 60.643 32.6153 61.3773 32.7286C61.6245 32.7628 61.857 32.8659 62.0482 33.0262C62.2394 33.1865 62.3815 33.3974 62.4583 33.6348C62.5534 33.8316 62.5825 34.0538 62.5414 34.2685C62.5003 34.4831 62.3912 34.6788 62.2301 34.8266C62.0505 34.9864 61.8255 35.0862 61.5865 35.112C61.3475 35.1379 61.1063 35.0884 60.8968 34.9706Z" fill="white"/>
<path d="M47.0236 18.7366C47.6234 17.9053 48.4823 17.2966 49.4654 17.006C49.735 16.9081 50.0277 16.8933 50.3058 16.9636C50.5839 17.0338 50.8345 17.1859 51.0253 17.4C51.1723 17.5407 51.2732 17.7226 51.3148 17.9218C51.3564 18.1209 51.3367 18.328 51.2583 18.5158C51.1801 18.7115 51.0467 18.8802 50.8743 19.0015C50.702 19.1227 50.498 19.1912 50.2874 19.1986C50.1524 19.2133 50.016 19.207 49.8829 19.18C49.2986 19.0028 48.6795 18.9736 48.0812 19.0952C47.4829 19.2168 46.9243 19.4854 46.4556 19.8766L46.3496 19.7625C46.5549 19.4082 46.7799 19.0657 47.0236 18.7366Z" fill="white"/>
<path d="M54.7095 21.4459C54.7083 21.612 54.6422 21.7712 54.5254 21.8893C54.4086 22.0075 54.2502 22.0754 54.0841 22.0786C53.9254 22.0751 53.774 22.0117 53.6602 21.901C53.5464 21.7904 53.4787 21.6408 53.4708 21.4823C53.4694 21.3963 53.4853 21.3108 53.5175 21.2311C53.5498 21.1513 53.5978 21.0788 53.6586 21.018C53.7195 20.9572 53.7919 20.9092 53.8717 20.8769C53.9515 20.8446 54.0369 20.8287 54.1229 20.8302C54.2815 20.8367 54.4313 20.9045 54.5407 21.0194C54.6502 21.1343 54.7107 21.2872 54.7095 21.4459Z" fill="white"/>
<path d="M53.133 21.0606C53.1368 21.1359 53.1242 21.2112 53.0962 21.2812C53.0681 21.3512 53.0251 21.4143 52.9703 21.466C52.9154 21.5178 52.85 21.5571 52.7785 21.5811C52.7069 21.6051 52.6311 21.6133 52.5561 21.6051C52.4806 21.6053 52.4058 21.5899 52.3365 21.56C52.2671 21.53 52.2047 21.4862 52.153 21.4311C52.1014 21.376 52.0616 21.3109 52.0361 21.2398C52.0107 21.1687 52.0001 21.0931 52.0051 21.0177C52.0062 20.9432 52.0226 20.8698 52.0531 20.8019C52.0837 20.7339 52.1279 20.673 52.1829 20.6228C52.238 20.5726 52.3027 20.5343 52.3731 20.5101C52.4436 20.4859 52.5182 20.4763 52.5925 20.4821C52.6677 20.4787 52.7427 20.4916 52.8124 20.52C52.8821 20.5484 52.9448 20.5916 52.9962 20.6466C53.0476 20.7016 53.0864 20.7671 53.11 20.8386C53.1337 20.9101 53.1415 20.9858 53.133 21.0606Z" fill="white"/>
<path d="M51.1936 20.2998C51.3207 20.4988 51.5343 20.689 51.5545 20.8977C51.5844 21.1962 51.3514 21.3904 51.0318 21.3702C50.7389 21.3516 50.5245 21.1517 50.5787 20.8742C50.62 20.6639 50.8352 20.4867 50.9727 20.2949L51.1936 20.2998Z" fill="white"/>
<path d="M50.0104 20.9072C50.0238 20.9664 50.0222 21.028 50.0056 21.0864C49.9891 21.1448 49.9581 21.1981 49.9156 21.2414C49.8731 21.2848 49.8204 21.3167 49.7623 21.3344C49.7042 21.352 49.6426 21.3548 49.5832 21.3424C49.4847 21.315 49.3945 21.2638 49.3206 21.1932C49.2466 21.1226 49.1912 21.035 49.1592 20.9379C49.1422 20.7712 49.3477 20.5811 49.4553 20.4015L49.6697 20.3926C49.7887 20.5633 49.9788 20.7219 50.0104 20.9072Z" fill="white"/>
<path d="M48.4786 21.1067C48.4604 21.197 48.42 21.2813 48.3609 21.3519C48.3019 21.4226 48.226 21.4774 48.1404 21.5112C48.0101 21.5347 47.8394 21.3364 47.5684 21.1568C47.8289 20.9659 47.9729 20.7765 48.1226 20.7774C48.2504 20.7757 48.4899 21.0023 48.4786 21.1067Z" fill="white"/>
<path d="M47.0041 21.515C47.0146 21.6445 46.8682 21.7861 46.729 22.0288C46.5607 21.8103 46.3892 21.6825 46.4054 21.5822C46.4248 21.4487 46.589 21.3394 46.6918 21.2148C46.8018 21.3144 46.9944 21.4066 47.0041 21.515Z" fill="white"/>
<path d="M45.3321 22.348C45.2742 22.3388 45.2197 22.3145 45.1741 22.2776C45.1285 22.2406 45.0935 22.1924 45.0724 22.1377C45.0683 22.0276 45.1856 21.9127 45.3013 21.7129C45.4356 21.9014 45.5635 22.0034 45.5691 22.1174C45.5748 22.1927 45.4195 22.344 45.3321 22.348Z" fill="white"/>
<path d="M65.2926 37.548C65.229 37.538 65.1687 37.5127 65.1171 37.4742C65.0655 37.4357 65.0241 37.3852 64.9964 37.3271C64.9754 37.23 65.1024 37.1014 65.21 36.9023C65.3541 37.0803 65.4876 37.1766 65.5013 37.2883C65.5126 37.3716 65.3581 37.5553 65.2926 37.548Z" fill="white"/>
<path d="M39.2421 34.5755C39.2421 38.642 36.1385 41.9382 32.5834 41.9382C29.0283 41.9382 25.9238 38.6388 25.9238 34.5755C25.9238 30.5123 29.0275 27.2129 32.5834 27.2129C36.1393 27.2129 39.2421 30.5107 39.2421 34.5755ZM36.7671 34.4768C36.7671 30.6272 35.1368 27.4645 32.5826 27.4645C30.0485 27.4645 28.398 30.6272 28.398 34.4768C28.398 38.3264 30.0485 41.6866 32.5826 41.6866C35.1368 41.6874 36.768 38.3281 36.768 34.4752L36.7671 34.4768Z" fill="white"/>
<path d="M11.5828 66.5762C11.5828 70.1119 8.88371 72.9825 5.7914 72.9825C2.69909 72.9825 0 70.1127 0 66.5762C0 63.0397 2.69909 60.1699 5.7914 60.1699C8.88371 60.1699 11.5828 63.0397 11.5828 66.5762ZM9.43065 66.4953C9.43065 63.1465 8.01233 60.3965 5.78979 60.3965C3.58585 60.3965 2.14892 63.1474 2.14892 66.4953C2.14892 69.8433 3.58342 72.7641 5.78979 72.7641C8.01233 72.76 9.43065 69.8417 9.43065 66.4913V66.4953Z" fill="white"/>
<path d="M25.1801 61.9804V71.4791C25.1801 72.7598 26.2392 72.7428 26.7862 72.7428V72.9856H21.8662V72.7428C22.4471 72.7428 23.3694 72.6919 23.3694 71.5138V61.8097L19.1161 72.9815H18.8944L14.2487 61.4853V70.2484C14.2487 72.1789 15.5642 72.742 16.3159 72.742V72.9847H11.9258V72.742C12.7462 72.742 14.0294 72.2299 14.0294 70.2646V61.8955C14.0294 60.7676 12.7486 60.7846 12.4573 60.7846V60.4941H15.8911L19.9219 70.1805L23.5944 60.4941H26.5499V60.7369C25.2489 60.7336 25.1801 61.4853 25.1801 61.9804Z" fill="white"/>
<path d="M39.9743 72.7596V72.9813H35.6514V72.7596C36.5575 72.7596 36.9847 72.1447 36.6765 71.2223L35.5494 68.3525H31.1593L30.5784 69.8558C29.6213 72.2304 31.2613 72.7596 32.0647 72.7596V72.9813H27.8105V72.7596C29.1261 72.7596 29.6391 71.393 30.0315 70.4537C30.1504 70.1632 33.2427 62.4244 33.1578 62.2706C33.0855 62.1064 32.9749 61.9619 32.8353 61.8493C32.6956 61.7367 32.531 61.6592 32.3552 61.6234C33.1236 61.4575 33.8218 61.0575 34.3536 60.4785C34.3536 60.4785 38.5212 71.1212 38.556 71.1891C39.1539 72.5549 39.3084 72.7596 39.9743 72.7596ZM35.4645 68.096L33.3608 62.7148L31.2427 68.096H35.4645Z" fill="white"/>
<path d="M51.5222 61.9642V71.5114C51.51 71.6843 51.5363 71.8577 51.5991 72.0193C51.6619 72.1808 51.7597 72.3264 51.8855 72.4456C52.0113 72.5648 52.1619 72.6547 52.3266 72.7087C52.4912 72.7628 52.6658 72.7797 52.8378 72.7582V72.9799H48.4817V72.7582C49.1484 72.7582 49.7762 72.6045 49.7762 71.5284V66.8649H44.0706V71.5284C44.0706 72.6045 44.7179 72.7582 45.387 72.7582V72.9799H40.9961V72.7582C41.1692 72.7814 41.3452 72.7658 41.5116 72.7126C41.6779 72.6594 41.8303 72.5699 41.9578 72.4506C42.0853 72.3313 42.1848 72.1851 42.2489 72.0227C42.313 71.8603 42.3403 71.6857 42.3287 71.5114V61.9804C42.3405 61.8054 42.3136 61.6299 42.2498 61.4664C42.1861 61.303 42.087 61.1556 41.9597 61.0348C41.8325 60.914 41.6801 60.8228 41.5135 60.7677C41.347 60.7125 41.1703 60.6948 40.9961 60.7158V60.4941H45.387V60.7158C44.7203 60.7158 44.0706 60.8704 44.0706 61.9634V66.627H49.7762V61.9456C49.7762 60.8704 49.1104 60.7158 48.4437 60.7158V60.4941H52.7998V60.7158C52.6298 60.6961 52.4575 60.7145 52.2955 60.7698C52.1335 60.8251 51.9859 60.9159 51.8635 61.0356C51.7411 61.1552 51.6469 61.3007 51.5879 61.4613C51.5288 61.622 51.5064 61.7938 51.5222 61.9642Z" fill="white"/>
<path d="M65.0008 72.7596V72.9813H60.6787V72.7596C61.5841 72.7596 62.0113 72.1447 61.703 71.2223L60.5759 68.3525H56.1867L55.6058 69.8558C54.6486 72.2304 56.2886 72.7596 57.092 72.7596V72.9813H52.8379V72.7596C54.1526 72.7596 54.6656 71.393 55.0588 70.4537C55.1778 70.1632 58.2701 62.4244 58.1851 62.2706C58.1129 62.1064 58.0023 61.9619 57.8626 61.8493C57.723 61.7367 57.5583 61.6592 57.3825 61.6234C58.151 61.4575 58.8492 61.0575 59.3809 60.4785C59.3809 60.4785 63.5493 71.1212 63.5833 71.1891C64.1804 72.5549 64.3349 72.7596 65.0008 72.7596ZM60.491 68.096L58.3874 62.7148L56.2692 68.096H60.491Z" fill="white"/>
<path d="M11.6456 79.3115C11.5955 79.3112 11.5459 79.3011 11.4998 79.2816C11.4536 79.2622 11.4117 79.2338 11.3766 79.198C11.3415 79.1623 11.3138 79.12 11.2951 79.0735C11.2764 79.027 11.2671 78.9772 11.2678 78.9271C11.2678 78.8058 11.3244 78.7556 11.36 78.7556C11.381 78.7556 11.3948 78.7702 11.3988 78.7945C11.8062 78.5848 12.1565 78.2794 12.4199 77.9045C12.4199 77.8834 12.4053 77.8721 12.3778 77.8721C12.1408 77.8721 11.5404 78.186 10.4239 79.8527C9.97242 80.5275 9.6148 81.1019 9.27256 81.5518C10.1148 81.8096 10.9832 81.9725 11.8616 82.0372C12.0575 82.0549 12.2541 82.0111 12.4239 81.9118C12.4284 81.9121 12.4327 81.9133 12.4367 81.9153C12.4406 81.9173 12.4442 81.9201 12.447 81.9235C12.4499 81.9269 12.452 81.9309 12.4534 81.9351C12.4547 81.9394 12.4551 81.9438 12.4547 81.9482C12.4541 81.9645 12.4494 81.9804 12.4409 81.9944C12.3414 82.1736 12.2205 82.3401 12.0809 82.4903C11.8629 82.5706 11.6308 82.6058 11.3988 82.5939C10.5198 82.5301 9.65349 82.3475 8.82353 82.051C8.61449 82.2488 8.3682 82.403 8.09901 82.5046C7.82982 82.6063 7.5431 82.6534 7.25552 82.6432C6.37929 82.6432 6.33398 82.2387 6.33398 81.9539C6.33398 81.6691 6.56052 81.2621 7.62851 81.2621C7.9429 81.2718 8.25548 81.3135 8.56138 81.3867C9.03474 80.7738 9.47238 80.1341 9.8721 79.4708C10.7378 78.2006 11.6205 77.2726 12.5631 77.2726C12.6354 77.2623 12.709 77.2679 12.7789 77.2891C12.8488 77.3102 12.9132 77.3463 12.9677 77.395C13.0222 77.4436 13.0654 77.5035 13.0943 77.5705C13.1232 77.6376 13.1371 77.7101 13.1351 77.7831C13.1367 78.4271 11.9352 79.3115 11.6456 79.3115ZM7.53222 81.8374C7.19322 81.8374 7.06944 81.894 7.06944 81.9482C7.06944 82.0025 7.18918 82.055 7.33805 82.055C7.57047 82.0547 7.79852 81.9918 7.99826 81.873C7.84387 81.8509 7.68818 81.839 7.53222 81.8374Z" fill="white"/>
<path d="M15.3894 81.6967C15.3929 81.7488 15.3858 81.8011 15.3683 81.8504C15.2466 82.048 15.0857 82.2186 14.8954 82.3516C14.7052 82.4847 14.4898 82.5773 14.2623 82.6239C14.1979 82.629 14.1331 82.6211 14.0718 82.6005C14.0105 82.5799 13.954 82.5471 13.9058 82.5041C13.8575 82.4611 13.8185 82.4087 13.7911 82.3502C13.7636 82.2916 13.7483 82.2281 13.7461 82.1635C13.744 81.9448 13.7963 81.7291 13.8983 81.5356C13.552 81.975 12.9727 82.6457 12.5228 82.6457C12.4631 82.6441 12.4043 82.6308 12.3497 82.6065C12.2951 82.5822 12.2459 82.5473 12.2048 82.504C12.1637 82.4606 12.1315 82.4096 12.1102 82.3538C12.0888 82.298 12.0786 82.2386 12.0802 82.1789C12.1883 81.6049 12.4133 81.0593 12.7413 80.5761C13.0835 79.9693 13.2146 79.7087 13.4047 79.7087C13.464 79.7182 13.5189 79.7455 13.5623 79.787C13.6057 79.8285 13.6354 79.8822 13.6474 79.941C13.2993 80.5774 12.9868 81.2327 12.7113 81.9038C12.7113 81.9386 12.7218 81.9564 12.7502 81.9564C13.001 81.9564 14.2656 80.483 14.3853 80.2476C14.4698 80.0583 14.587 79.8855 14.7316 79.7371C14.8529 79.6728 14.9869 79.6363 15.124 79.6303C15.1429 79.6285 15.1618 79.6285 15.1806 79.6303C15.2162 79.6375 15.2616 79.7452 15.2616 79.7799C15.2627 79.7836 15.2627 79.7876 15.2616 79.7913C14.9573 80.3827 14.7923 80.6262 14.7073 80.801C14.5119 81.1553 14.3714 81.5372 14.2907 81.9337C14.2907 82.0268 14.3222 82.0842 14.4031 82.0842C14.7001 82.0413 15.1556 81.4636 15.2195 81.4062C15.2418 81.3863 15.2705 81.3748 15.3004 81.3738C15.3191 81.3736 15.3372 81.3804 15.3511 81.3931C15.3649 81.4057 15.3734 81.4231 15.3748 81.4418C15.3854 81.5263 15.3902 81.6115 15.3894 81.6967Z" fill="white"/>
<path d="M16.6117 81.0163C16.5947 81.2299 16.5834 81.437 16.5834 81.6085C16.5834 81.8933 16.6117 82.094 16.6797 82.094C16.9766 82.0511 17.4321 81.4734 17.496 81.416C17.5158 81.3961 17.5424 81.3845 17.5705 81.3836C17.6619 81.3836 17.6651 81.5123 17.6651 81.7121C17.6678 81.7605 17.6618 81.809 17.6473 81.8553C17.5255 82.0543 17.3636 82.2259 17.172 82.359C16.9803 82.4922 16.7631 82.584 16.534 82.6288C16.1036 82.6288 16.0227 82.2655 16.0227 81.9152C16.0227 81.7906 16.0332 81.6652 16.0437 81.5624C15.7751 81.8472 15.3965 82.2615 15.0939 82.6506C15.082 82.664 15.0673 82.6745 15.0507 82.6813C15.0341 82.688 15.0162 82.6908 14.9984 82.6895C14.8609 82.6895 14.6699 82.5503 14.6699 82.4079C14.6698 82.3788 14.6745 82.3498 14.6837 82.3221C15.0713 81.7492 15.5445 81.2389 16.0866 80.8092C16.0793 80.6554 16.0721 80.4418 16.0721 80.1951C16.0721 80.1773 16.0648 80.17 16.0543 80.17C16.0017 80.17 15.8528 80.3771 15.7573 80.3771C15.6481 80.3771 15.5809 80.1489 15.5809 80.0737C15.5813 80.0581 15.5838 80.0426 15.5882 80.0276C15.6376 79.8949 16.0049 79.4418 16.3471 79.4418C16.4175 79.4418 16.6158 79.5381 16.6271 79.6522C16.6408 79.8666 16.6514 80.0769 16.6514 80.2727C16.9765 79.9041 17.3427 79.5737 17.7428 79.2881C17.7711 79.2694 17.8044 79.2595 17.8383 79.2598C17.9127 79.2646 17.9845 79.2892 18.0462 79.331C18.0964 79.3698 18.1846 79.4378 18.1846 79.5163C18.1838 79.5359 18.1786 79.5552 18.1694 79.5725C18.1601 79.5899 18.1471 79.605 18.1312 79.6166C18.0244 79.7096 17.0996 80.5697 16.6117 81.0163Z" fill="white"/>
<path d="M20.9433 81.6966C20.9469 81.7488 20.9397 81.8011 20.9222 81.8503C20.8008 82.0481 20.6401 82.2188 20.45 82.3519C20.2599 82.4849 20.0444 82.5775 19.817 82.6238C19.7526 82.629 19.6878 82.6211 19.6265 82.6005C19.5652 82.5799 19.5087 82.5471 19.4605 82.5041C19.4122 82.461 19.3732 82.4087 19.3457 82.3501C19.3183 82.2916 19.303 82.2281 19.3008 82.1635C19.2987 81.9449 19.3507 81.7292 19.4521 81.5356C19.1058 81.9749 18.5274 82.6457 18.0767 82.6457C17.9562 82.6423 17.842 82.5912 17.7592 82.5037C17.6764 82.4161 17.6317 82.2993 17.6349 82.1788C17.7432 81.605 17.9682 81.0594 18.296 80.5761C18.6382 79.9692 18.7693 79.7087 18.9594 79.7087C19.0186 79.7183 19.0735 79.7456 19.1169 79.7871C19.1602 79.8285 19.1899 79.8822 19.2021 79.9409C18.8537 80.5773 18.5409 81.2326 18.2652 81.9037C18.2652 81.9385 18.2757 81.9563 18.304 81.9563C18.5549 81.9563 19.8194 80.483 19.9392 80.2476C20.0232 80.0581 20.1405 79.8852 20.2855 79.737C20.4067 79.6726 20.5408 79.6361 20.6779 79.6302C20.6967 79.6285 20.7157 79.6285 20.7345 79.6302C20.7693 79.6375 20.8154 79.7451 20.8154 79.7799C20.8166 79.7836 20.8166 79.7876 20.8154 79.7912C20.512 80.3827 20.3462 80.6262 20.2612 80.801C20.0652 81.1551 19.9245 81.5371 19.8437 81.9337C19.8437 82.0267 19.8753 82.0842 19.957 82.0842C20.2531 82.0413 20.7094 81.4636 20.7726 81.4062C20.7949 81.3862 20.8235 81.3748 20.8535 81.3738C20.8722 81.3735 20.8903 81.3804 20.9041 81.393C20.918 81.4057 20.9264 81.4231 20.9279 81.4418C20.939 81.5262 20.9442 81.6114 20.9433 81.6966Z" fill="white"/>
<path d="M23.0685 80.9297C23.0402 80.9767 22.9963 81.0124 22.9444 81.0305C22.8925 81.0487 22.836 81.048 22.7845 81.0288C22.733 81.0096 22.6899 80.973 22.6626 80.9254C22.6352 80.8777 22.6254 80.822 22.6349 80.7679C22.6569 80.5582 22.749 80.3621 22.8962 80.2112L22.8889 80.2039C22.4039 80.5617 21.9616 80.9741 21.5709 81.4329C21.3069 81.7269 21.0582 82.0342 20.8257 82.3537C20.7796 82.4176 20.6906 82.5066 20.6105 82.5066C20.496 82.485 20.3863 82.4428 20.2869 82.382C20.2777 82.376 20.2706 82.3674 20.2662 82.3573C20.2619 82.3472 20.2607 82.3361 20.2626 82.3253C20.3028 82.1662 20.3746 82.0168 20.4738 81.886C20.778 81.3512 21.0887 80.8261 21.4002 80.3018C21.4928 80.1265 21.5966 79.9573 21.7109 79.7954C21.7804 79.7246 21.8644 79.6697 21.9572 79.6345C22.0499 79.5993 22.1492 79.5847 22.2481 79.5915C22.3185 79.5915 22.329 79.6724 22.329 79.7306C22.2171 80.0257 22.0637 80.3033 21.8735 80.5551C22.2052 80.1764 22.757 79.5988 23.2934 79.5988C23.3371 79.596 23.3808 79.6024 23.4218 79.6176C23.4628 79.6328 23.5001 79.6564 23.5314 79.6869C23.5628 79.7173 23.5874 79.7541 23.6036 79.7946C23.6199 79.8352 23.6275 79.8787 23.626 79.9224C23.4981 80.2871 23.3097 80.6277 23.0685 80.9297Z" fill="white"/>
<path d="M23.4866 84.677C23.4518 84.677 23.4194 84.6843 23.3871 84.6843C23.3427 84.6891 23.2978 84.6837 23.2558 84.6686C23.2138 84.6535 23.1757 84.6291 23.1445 84.5971C23.1134 84.5652 23.0899 84.5266 23.0758 84.4842C23.0618 84.4418 23.0575 84.3968 23.0634 84.3526C23.0723 84.1698 23.123 83.9916 23.2115 83.8315C23.4543 83.4364 23.7514 83.0775 24.0942 82.7651C24.1541 82.6753 24.3029 82.376 24.6233 81.7619C24.3301 82.1706 23.9144 82.4755 23.4364 82.6324H23.4057C23.3055 82.6281 23.2088 82.5947 23.1273 82.5362C23.0832 82.4973 23.0486 82.4488 23.0264 82.3943C23.0042 82.3398 22.995 82.2809 22.9995 82.2222C22.9976 82.2056 22.9976 82.1887 22.9995 82.1721C23.0424 81.6437 23.222 81.5434 23.6888 80.6801C24.0206 80.1631 24.1516 79.7384 24.2859 79.7384C24.3523 79.7384 24.5546 79.8419 24.5546 80.0094C24.5546 80.2343 23.6282 81.7085 23.6282 81.9366C23.6282 81.9577 23.6387 81.9658 23.6565 81.9658C24.3659 81.5044 24.974 80.9034 25.4437 80.1995C25.5958 79.9714 25.7407 79.7246 25.8718 79.7246C25.9025 79.7246 26.0975 79.7456 26.1404 79.8055C26.1832 79.8654 26.2075 79.8735 26.2075 79.9155C26.2011 79.9599 26.1854 80.0024 26.1614 80.0402C26.1015 80.1575 25.0562 81.8889 24.6355 82.7667C25.1331 82.342 25.6873 81.8387 26.1468 81.414C26.1687 81.3933 26.1977 81.3818 26.2277 81.3816C26.3087 81.3816 26.3378 81.524 26.3378 81.7206C26.3434 81.7678 26.3307 81.8153 26.3022 81.8533C25.5847 82.4027 24.919 83.0167 24.3135 83.6875C24.2439 83.7627 23.8693 84.6268 23.4866 84.677Z" fill="white"/>
<path d="M33.244 77.9454C33.2019 78.0263 33.163 78.0344 33.1137 78.0765C32.9049 78.2585 32.0716 78.2229 32.0004 78.2666C31.9911 78.2741 31.9799 78.2789 31.968 78.2804C31.947 78.2804 31.9049 78.248 31.9049 78.1736C31.9267 78.0792 31.974 77.9927 32.0417 77.9236C30.8127 77.9956 29.4316 78.9899 29.4316 79.2691C29.4316 79.3831 29.5481 79.5296 30.3078 79.7294C31.0675 79.9293 32.0878 80.2222 32.0878 80.9859C32.0878 81.689 30.8936 82.6041 28.9615 82.6041C28.1314 82.6041 27.8555 82.2327 27.8555 81.9366C27.8611 81.8255 27.9042 81.7196 27.9776 81.636C28.0511 81.5525 28.1506 81.4962 28.26 81.4762C28.2988 81.4762 28.3239 81.494 28.3239 81.5191C28.3239 81.5442 28.2778 81.5838 28.2778 81.6154C28.2778 81.7546 28.7584 81.9083 29.1573 81.9083C30.235 81.9083 31.379 81.2732 31.379 80.9519C31.379 80.727 30.7568 80.5563 29.9656 80.367C29.129 80.1704 28.7018 79.867 28.7018 79.3564C28.7018 78.2391 31.0012 77.3184 32.2617 77.3184C32.9397 77.3184 33.2893 77.515 33.2893 77.6606C33.2918 77.7575 33.2764 77.854 33.244 77.9454Z" fill="white"/>
<path d="M33.0024 82.6232C32.9487 82.6264 32.8948 82.6177 32.8448 82.5979C32.7947 82.5781 32.7495 82.5476 32.7125 82.5086C32.6754 82.4695 32.6473 82.4228 32.6302 82.3718C32.613 82.3207 32.6073 82.2665 32.6132 82.213C31.9166 83.2883 31.1569 84.5512 31.0946 84.6322C31.059 84.6783 31.0339 84.7001 31.0088 84.7001C30.9422 84.6786 30.8831 84.6387 30.8381 84.585C30.7932 84.5313 30.7643 84.4661 30.7548 84.3967C30.7484 84.2772 30.7765 84.1584 30.8357 84.0545C30.9522 83.8587 33.9685 78.8585 34.1529 78.7396C34.19 78.7129 34.2343 78.6982 34.28 78.6976C34.305 78.6976 34.3261 78.6976 34.3471 78.6976C34.3681 78.6976 34.3892 78.6895 34.411 78.6895C34.4458 78.6895 34.4701 78.7081 34.4992 78.7971C34.5136 78.8261 34.5232 78.8572 34.5275 78.8893C34.5195 78.942 34.4948 78.9907 34.4571 79.0285L33.4498 80.577C33.4498 80.577 34.3334 79.7024 34.8989 79.7024C34.9522 79.6997 35.0054 79.7084 35.055 79.728C35.1046 79.7475 35.1495 79.7774 35.1866 79.8158C35.2237 79.8541 35.2521 79.8999 35.2701 79.9501C35.288 80.0003 35.2949 80.0538 35.2905 80.107C35.2913 80.7291 34.1327 82.6232 33.0024 82.6232ZM34.5882 80.2688C34.3196 80.2688 33.25 81.336 32.801 81.9428C32.8304 81.9797 32.868 82.0092 32.9109 82.029C32.9537 82.0488 33.0006 82.0583 33.0477 82.0569C33.6206 82.0569 34.6586 80.861 34.6586 80.344C34.659 80.3347 34.6576 80.3254 34.6544 80.3167C34.6512 80.3079 34.6463 80.2999 34.64 80.293C34.6337 80.2862 34.6261 80.2806 34.6176 80.2768C34.6091 80.2729 34.6 80.2707 34.5906 80.2704L34.5882 80.2688Z" fill="white"/>
<path d="M38.4849 81.6962C38.4881 81.7484 38.481 81.8006 38.4638 81.85C38.3421 82.0481 38.1808 82.219 37.9901 82.3521C37.7994 82.4851 37.5834 82.5775 37.3554 82.6234C37.2803 82.623 37.2062 82.6068 37.1379 82.5758C37.0696 82.5448 37.0086 82.4997 36.9588 82.4435C36.9091 82.3873 36.8718 82.3212 36.8494 82.2496C36.827 82.178 36.8199 82.1025 36.8287 82.0279C36.8285 81.9113 36.8524 81.7959 36.8991 81.6889C36.5937 82.1514 36.124 82.4805 35.5851 82.6097C35.4502 82.6087 35.3202 82.5591 35.2189 82.4699C35.1177 82.3807 35.0521 82.2579 35.0341 82.1242C35.024 82.0654 35.0191 82.0059 35.0196 81.9462C35.0987 81.4068 35.3452 80.9058 35.7242 80.5139C36.1032 80.122 36.5956 79.8589 37.1321 79.7617C37.4039 79.7617 37.556 79.8693 37.5949 79.9866C37.7114 79.8046 37.768 79.79 37.9128 79.79C38.0577 79.79 38.1815 79.8475 38.1815 79.9761C38.1834 80.0306 38.1659 80.0839 38.1321 80.1266C37.7922 80.6407 37.5361 81.2054 37.3732 81.7998C37.3653 81.8326 37.3618 81.8664 37.3627 81.9001C37.3627 81.9883 37.3869 82.0959 37.4759 82.0959C37.7575 82.0959 38.2559 81.4648 38.3125 81.4147C38.3344 81.394 38.3633 81.3825 38.3934 81.3823C38.4122 81.382 38.4303 81.3889 38.4441 81.4016C38.4579 81.4142 38.4664 81.4316 38.4679 81.4503C38.4791 81.5318 38.4848 81.614 38.4849 81.6962ZM36.1927 80.8613C35.8953 81.1608 35.6831 81.5342 35.5778 81.943C35.5778 81.9996 35.5989 82.032 35.6482 82.032C36.1037 81.7497 36.5114 81.3969 36.8562 80.9867C37.018 80.7828 37.2559 80.4373 37.4428 80.1832C37.1991 80.2047 36.9625 80.276 36.7475 80.3926C36.5324 80.5093 36.3436 80.6688 36.1927 80.8613Z" fill="white"/>
<path d="M42.9816 78.2598L43.052 78.2639C43.2179 78.2776 43.3943 78.3917 43.3943 78.5454C43.3943 78.9993 42.8279 79.1733 42.5463 79.1733H42.5107L42.374 79.4524C42.3878 79.4524 42.3983 79.4484 42.4128 79.4484C42.4518 79.4498 42.4902 79.4583 42.5261 79.4734C42.6005 79.5026 42.6774 79.7089 42.6774 79.7663C42.6774 79.8416 42.5714 79.8917 42.5261 79.9346C42.4052 80.0144 42.266 80.0622 42.1216 80.0738L42.0544 80.0948C41.9241 80.3513 41.7858 80.6369 41.6345 80.9435C42.0746 80.7933 42.4803 80.5567 42.8279 80.2477C42.8554 80.2008 42.891 80.1296 42.9476 80.1296C43.0085 80.1528 43.0605 80.1948 43.096 80.2495C43.1315 80.3042 43.1486 80.3687 43.1451 80.4338C43.1451 80.8974 42.23 81.5398 41.323 81.6361C41.1709 81.9824 40.9872 82.4072 40.9484 82.4719C40.9228 82.5052 40.8894 82.5316 40.8512 82.549C40.8129 82.5663 40.771 82.574 40.7291 82.5714C40.7119 82.5753 40.6943 82.5775 40.6766 82.5779C40.5884 82.5779 40.4994 82.5358 40.4929 82.497C40.4784 82.4623 40.4675 82.4263 40.4605 82.3894C40.461 82.3735 40.4643 82.3579 40.4702 82.3432C40.5414 82.1612 40.6507 81.9112 40.789 81.6264C40.6343 81.6069 40.4919 81.5323 40.3878 81.4162C40.2838 81.3001 40.2251 81.1504 40.2227 80.9945C40.244 80.7727 40.3257 80.561 40.4589 80.3824C40.5921 80.2038 40.7718 80.0652 40.9783 79.9815C40.8909 79.9363 40.8178 79.8676 40.7672 79.7832C40.7166 79.6987 40.6905 79.6018 40.6919 79.5034C40.6919 78.9184 41.5997 78.4216 42.4266 78.2898C42.6774 77.7938 42.8497 77.4515 42.8684 77.4224C42.9598 77.2517 43.3376 77.1797 43.3943 77.1797C43.4189 77.1813 43.442 77.1921 43.4591 77.2099C43.4762 77.2277 43.4859 77.2513 43.4865 77.276C43.4864 77.2909 43.4828 77.3056 43.476 77.3189C43.459 77.3536 43.3142 77.6101 42.9816 78.2598ZM40.9079 80.8829C40.9079 81.0083 40.9711 81.0511 41.0487 81.0617C41.166 80.8335 41.2825 80.5835 41.4063 80.3335C41.0147 80.5333 40.9088 80.7429 40.9088 80.8829H40.9079ZM41.2745 79.5155C41.2745 79.5552 41.3246 79.573 41.4055 79.573C41.4306 79.573 41.5674 79.5552 41.8012 79.5333C41.9039 79.3335 41.9994 79.1377 42.0908 78.9556C41.6822 79.1312 41.2753 79.4233 41.2753 79.5155H41.2745Z" fill="white"/>
<path d="M48.2126 80.009C48.732 80.0657 49.3534 80.3448 49.3534 80.9508C49.3534 81.679 48.198 82.5212 46.9973 82.5212C46.1138 82.5212 45.8735 82.1037 45.8735 81.9816C45.8764 81.9052 45.8942 81.8302 45.9261 81.7607C45.8096 81.9751 45.6834 82.2065 45.5483 82.4711C45.5275 82.5076 45.4963 82.5372 45.4588 82.5561C45.4212 82.5749 45.3788 82.5822 45.3371 82.5771C45.2943 82.5826 45.2509 82.579 45.2097 82.5662C45.1685 82.5535 45.1305 82.5321 45.0983 82.5034C45.0662 82.4746 45.0406 82.4393 45.0233 82.3998C45.006 82.3603 44.9974 82.3176 44.9981 82.2745C44.9985 82.2191 45.009 82.1643 45.0288 82.1126C45.7136 80.8084 46.482 79.5499 47.3291 78.3447C47.41 78.2452 47.541 78.2056 47.8412 78.2056C47.9221 78.2056 48.003 78.2129 48.003 78.2768C47.9984 78.3166 47.9839 78.3547 47.9609 78.3876C47.5936 78.9936 47.2975 79.4548 47.0426 79.865C47.9755 79.594 49.3283 78.8836 49.3283 78.3447C49.3283 78.0163 48.8518 77.9265 48.431 77.9265C48.0154 77.9121 47.6012 77.9832 47.2141 78.1355C46.8271 78.2877 46.4754 78.5179 46.181 78.8116C46.181 78.8407 46.1947 78.8472 46.2158 78.8472C46.2368 78.8472 46.2967 78.8221 46.3185 78.8221C46.3404 78.8221 46.3395 78.8294 46.3395 78.8431C46.3037 78.9172 46.2474 78.9794 46.1773 79.0224C46.1071 79.0654 46.0262 79.0874 45.9439 79.0859C45.894 79.0923 45.8432 79.0876 45.7953 79.0721C45.7474 79.0566 45.7035 79.0308 45.6667 78.9964C45.6299 78.962 45.6012 78.9199 45.5825 78.8732C45.5639 78.8264 45.5558 78.7761 45.5588 78.7258C45.5588 78.0195 47.1171 77.3164 48.3 77.3164C49.4828 77.3164 49.999 77.7549 49.999 78.3553C49.9926 79.1166 48.9513 79.7445 48.2126 80.009ZM47.5232 80.4548C47.2943 80.4398 47.0647 80.4729 46.8493 80.5519C46.8032 80.5519 46.7684 80.5196 46.7077 80.4014C46.465 80.7906 46.2522 81.162 46.0046 81.6086C46.059 81.5317 46.1322 81.47 46.2171 81.4294C46.3021 81.3888 46.396 81.3705 46.49 81.3764C46.6567 81.3764 46.7028 81.4047 46.7028 81.4298C46.7028 81.4905 46.5151 81.4686 46.5151 81.6296C46.5151 81.7259 46.596 81.8861 47.0556 81.8861C47.9674 81.8861 48.6988 81.1976 48.6988 80.8974C48.6964 80.755 48.3857 80.4548 47.5232 80.4548Z" fill="white"/>
<path d="M52.5951 82.0102C52.3156 82.334 51.9324 82.5508 51.5109 82.6235C51.3567 82.6221 51.2089 82.5613 51.0984 82.4537C50.988 82.3461 50.9233 82.2 50.9178 82.0458C51.0163 81.4969 51.2508 80.9814 51.5999 80.5466C51.6751 80.4423 51.7378 80.3296 51.7868 80.2108L51.7795 80.2035C51.2949 80.5608 50.8529 80.9726 50.4623 81.4309C50.197 81.727 49.9567 82.0377 49.7236 82.3516C49.6743 82.4156 49.5853 82.5046 49.5012 82.5046C49.387 82.4816 49.2776 82.4394 49.1775 82.38C49.1684 82.3739 49.1612 82.3654 49.1569 82.3553C49.1525 82.3452 49.1513 82.3341 49.1532 82.3233C49.194 82.1644 49.2658 82.0151 49.3644 81.884C49.6686 81.3492 49.9793 80.8241 50.2908 80.2998C50.3834 80.1245 50.4872 79.9553 50.6015 79.7933C50.671 79.7227 50.7548 79.668 50.8474 79.6328C50.94 79.5976 51.0391 79.5828 51.1379 79.5894C51.2188 79.5894 51.2237 79.6703 51.2237 79.7286C51.1118 80.0237 50.9584 80.3013 50.7682 80.5531C51.108 80.1744 51.6517 79.5967 52.1954 79.5967C52.2388 79.5947 52.2821 79.6017 52.3227 79.6171C52.3632 79.6326 52.4002 79.6562 52.4312 79.6866C52.4623 79.7169 52.4867 79.7533 52.5031 79.7936C52.5195 79.8338 52.5274 79.8769 52.5263 79.9204C52.3924 80.2849 52.2012 80.6258 51.96 80.9301C51.7315 81.2381 51.5584 81.5837 51.4486 81.9511C51.4486 82.0652 51.5578 82.1081 51.6598 82.1081C51.9955 82.1081 52.5684 81.3799 52.6703 81.3799C52.7723 81.3799 52.7626 81.6372 52.7626 81.7036C52.7643 81.7649 52.7496 81.8256 52.7202 81.8795C52.6908 81.9334 52.6476 81.9785 52.5951 82.0102Z" fill="white"/>
<path d="M56.2047 80.0079C56.7242 80.0645 57.3455 80.3437 57.3455 80.9497C57.3455 81.6778 56.191 82.5201 54.9903 82.5201C54.1068 82.5201 53.8665 82.1026 53.8665 81.9804C53.8694 81.9041 53.8872 81.829 53.9191 81.7596C53.8026 81.974 53.6764 82.2054 53.5412 82.4699C53.5205 82.5065 53.4893 82.5361 53.4517 82.5549C53.4141 82.5738 53.3718 82.5811 53.3301 82.5759C53.2873 82.5815 53.2438 82.5778 53.2025 82.5651C53.1613 82.5524 53.1233 82.5309 53.0911 82.5022C53.0588 82.4735 53.0331 82.4382 53.0158 82.3987C52.9984 82.3593 52.9897 82.3165 52.9903 82.2733C52.991 82.2179 53.0017 82.1631 53.0218 82.1115C53.7063 80.807 54.4744 79.5482 55.3212 78.3428C55.4021 78.2433 55.5332 78.2036 55.8326 78.2036C55.9135 78.2036 55.9944 78.2109 55.9944 78.2748C55.9897 78.3147 55.9753 78.3528 55.9523 78.3857C55.585 78.9917 55.2889 79.4529 55.034 79.8631C55.9669 79.592 57.3189 78.8817 57.3189 78.3428C57.3189 78.0143 56.8431 77.9245 56.4224 77.9245C56.0067 77.9101 55.5925 77.9813 55.2055 78.1335C54.8184 78.2858 54.4668 78.5159 54.1723 78.8096C54.1723 78.8388 54.1861 78.8452 54.2071 78.8452C54.2282 78.8452 54.288 78.8202 54.3099 78.8202C54.3317 78.8202 54.3309 78.8274 54.3309 78.8412C54.295 78.9152 54.2387 78.9774 54.1686 79.0205C54.0985 79.0635 54.0175 79.0855 53.9353 79.0839C53.8853 79.0903 53.8346 79.0856 53.7867 79.0702C53.7387 79.0547 53.6948 79.0288 53.658 78.9945C53.6213 78.9601 53.5925 78.918 53.5739 78.8712C53.5552 78.8245 53.5471 78.7741 53.5501 78.7239C53.5501 78.0175 55.1084 77.3145 56.2913 77.3145C57.4742 77.3145 57.9904 77.753 57.9904 78.3533C57.9847 79.1155 56.9434 79.7433 56.2047 80.0079ZM55.5162 80.4537C55.2873 80.4387 55.0577 80.4718 54.8423 80.5508C54.7961 80.5508 54.7613 80.5184 54.7007 80.4003C54.4579 80.7895 54.2452 81.1608 53.9976 81.6074C54.052 81.5306 54.1252 81.4689 54.2101 81.4283C54.2951 81.3876 54.389 81.3694 54.483 81.3752C54.6489 81.3752 54.6958 81.4036 54.6958 81.4286C54.6958 81.4893 54.5081 81.4675 54.5081 81.6285C54.5081 81.7248 54.589 81.885 55.0486 81.885C55.9596 81.885 56.6918 81.1964 56.6918 80.8963C56.6894 80.7539 56.3779 80.4537 55.5162 80.4537Z" fill="white"/>
<path d="M22.3996 88.7997C22.4136 88.7915 22.4251 88.7796 22.4329 88.7653C22.4407 88.7511 22.4446 88.735 22.4441 88.7188C22.444 88.7023 22.4396 88.6861 22.4312 88.6719C22.4228 88.6577 22.4108 88.6459 22.3963 88.6379C22.3595 88.6144 22.3195 88.5964 22.2774 88.5845L22.1213 88.5392C22.0673 88.5237 22.0148 88.5037 21.9643 88.4793C21.9159 88.4549 21.8747 88.4184 21.8446 88.3733C21.8117 88.3226 21.7951 88.263 21.7968 88.2026C21.7972 88.1541 21.8088 88.1064 21.8307 88.0632C21.8526 88.02 21.8842 87.9824 21.923 87.9534C22.0147 87.8805 22.1296 87.8431 22.2467 87.8482C22.3343 87.8442 22.4216 87.8616 22.501 87.899C22.5804 87.9363 22.6494 87.9925 22.7022 88.0626L22.529 88.2293C22.4933 88.1862 22.4486 88.1513 22.398 88.1271C22.3474 88.1029 22.2922 88.0901 22.2361 88.0893C22.1204 88.0893 22.0614 88.1258 22.0614 88.1961C22.0626 88.2109 22.0678 88.225 22.0766 88.237C22.0853 88.249 22.0971 88.2584 22.1107 88.2641C22.1484 88.2846 22.1883 88.3006 22.2297 88.3118L22.3866 88.3563C22.4407 88.3713 22.4933 88.3913 22.5436 88.4162C22.5922 88.4411 22.6332 88.4785 22.6625 88.5246C22.6952 88.5764 22.7118 88.6366 22.7103 88.6978C22.7109 88.7485 22.6998 88.7986 22.678 88.8444C22.6561 88.8901 22.6239 88.9302 22.5841 88.9615C22.4955 89.0333 22.3841 89.0709 22.2701 89.0675C22.1527 89.071 22.0366 89.043 21.9336 88.9866C21.8476 88.9393 21.777 88.8683 21.7305 88.7819L21.919 88.6258C21.9555 88.686 22.0064 88.7363 22.067 88.7722C22.1263 88.8074 22.194 88.8258 22.2628 88.8256C22.31 88.8303 22.3574 88.8213 22.3996 88.7997Z" fill="white"/>
<path d="M23.5744 88.4636C23.5766 88.3271 23.6259 88.1956 23.7139 88.0912C23.8019 87.9869 23.9233 87.9161 24.0575 87.891C24.1917 87.8658 24.3305 87.8879 24.4503 87.9533C24.5702 88.0187 24.6637 88.1235 24.7152 88.25C24.7666 88.3764 24.7728 88.5168 24.7326 88.6473C24.6925 88.7778 24.6085 88.8904 24.4948 88.9661C24.3812 89.0417 24.2449 89.0758 24.109 89.0626C23.9731 89.0493 23.846 88.9895 23.7492 88.8933C23.6921 88.8375 23.6471 88.7706 23.617 88.6966C23.587 88.6227 23.5725 88.5434 23.5744 88.4636ZM23.9393 88.2088C23.8767 88.2788 23.8422 88.3694 23.8422 88.4632C23.8422 88.5571 23.8767 88.6477 23.9393 88.7177C24.0019 88.7801 24.0867 88.8151 24.1751 88.8151C24.2636 88.8151 24.3483 88.7801 24.411 88.7177C24.4429 88.6836 24.4677 88.6436 24.484 88.5998C24.5002 88.556 24.5076 88.5095 24.5056 88.4628C24.5074 88.4158 24.4994 88.3689 24.4823 88.3251C24.4652 88.2812 24.4393 88.2414 24.4061 88.208C24.3759 88.1765 24.3397 88.1515 24.2996 88.1344C24.2595 88.1173 24.2163 88.1085 24.1727 88.1085C24.1291 88.1085 24.086 88.1173 24.0458 88.1344C24.0057 88.1515 23.9695 88.1765 23.9393 88.208V88.2088Z" fill="white"/>
<path d="M26.6963 87.8802V88.5453C26.6971 88.6105 26.6878 88.6754 26.6688 88.7378C26.6523 88.7899 26.6271 88.8389 26.5944 88.8826C26.5633 88.9213 26.5258 88.9545 26.4835 88.9805C26.4424 89.0067 26.3973 89.0261 26.35 89.038C26.3021 89.0497 26.2529 89.0554 26.2036 89.055C26.0669 89.0592 25.9339 89.0105 25.8322 88.9191C25.781 88.8696 25.7411 88.8096 25.7153 88.7433C25.6894 88.6769 25.6783 88.6058 25.6825 88.5347V87.8794H25.9398V88.5048C25.9356 88.5856 25.9597 88.6654 26.0078 88.7305C26.0321 88.7578 26.0622 88.7793 26.096 88.7933C26.1298 88.8073 26.1663 88.8135 26.2028 88.8114C26.3603 88.8114 26.439 88.7106 26.439 88.5089V87.877L26.6963 87.8802Z" fill="white"/>
<path d="M27.5527 88.1216V87.8789H28.5568V88.1216H28.183V89.0456H27.9257V88.1216H27.5527Z" fill="white"/>
<path d="M30.2067 89.0451V88.5791H29.6889V89.0451H29.4316V87.8809H29.6889V88.338H30.2067V87.8809H30.464V89.0451H30.2067Z" fill="white"/>
<path d="M32.4883 89.0451L32.9948 87.8809H33.1906L33.6971 89.0451H33.4317L33.3378 88.8291H32.8475L32.7537 89.0451H32.4883ZM33.0927 88.2627L32.9414 88.6107H33.2432L33.0927 88.2627Z" fill="white"/>
<path d="M34.5664 89.0451V87.8809H35.4483V88.1236H34.8229V88.3785H35.4054V88.6212H34.8229V89.0492L34.5664 89.0451Z" fill="white"/>
<path d="M36.6225 89.0453H36.3652V87.881H36.8361C36.9134 87.8794 36.9905 87.8904 37.0643 87.9134C37.1198 87.929 37.1703 87.9588 37.2107 87.9999C37.2427 88.0345 37.2676 88.0749 37.2843 88.1189C37.2998 88.1645 37.3074 88.2123 37.307 88.2605C37.3075 88.3338 37.2861 88.4057 37.2455 88.4668C37.2056 88.528 37.1477 88.5752 37.0797 88.6019L37.4033 89.0461H37.0926L36.8086 88.648H36.6233L36.6225 89.0453ZM36.8313 88.1213H36.6225V88.4061H36.8402C36.8921 88.4093 36.9438 88.3957 36.9874 88.3673C37.0042 88.3548 37.0176 88.3384 37.0265 88.3195C37.0354 88.3005 37.0395 88.2797 37.0384 88.2588C37.0398 88.2392 37.0364 88.2195 37.0285 88.2015C37.0206 88.1834 37.0085 88.1676 36.9931 88.1553C36.9435 88.1279 36.8868 88.1163 36.8305 88.1221L36.8313 88.1213Z" fill="white"/>
<path d="M38.2832 89.0451V87.8809H38.5413V89.0451H38.2832Z" fill="white"/>
<path d="M40.4129 88.66L40.5659 88.8218C40.5133 88.8984 40.4413 88.9596 40.3571 88.999C40.2675 89.0407 40.1696 89.0617 40.0707 89.0604C39.9912 89.0646 39.9117 89.0524 39.8371 89.0245C39.7625 88.9967 39.6944 88.9538 39.637 88.8986C39.5822 88.8403 39.5397 88.7716 39.5119 88.6966C39.4841 88.6215 39.4716 88.5417 39.4752 88.4617C39.4733 88.3828 39.4872 88.3042 39.5161 88.2307C39.545 88.1572 39.5883 88.0902 39.6435 88.0337C39.6997 87.9759 39.7674 87.9306 39.8423 87.9006C39.9171 87.8707 39.9974 87.8568 40.078 87.8598C40.1751 87.8583 40.2714 87.8788 40.3595 87.9197C40.4366 87.9548 40.5022 88.0108 40.5489 88.0815L40.3741 88.2433C40.3406 88.2011 40.2972 88.1678 40.2479 88.1462C40.2004 88.1244 40.1488 88.1128 40.0966 88.1122C40.0497 88.1101 40.003 88.1175 39.959 88.1339C39.9151 88.1503 39.8749 88.1754 39.8409 88.2077C39.7897 88.2571 39.7546 88.3208 39.7401 88.3905C39.7257 88.4601 39.7325 88.5325 39.7597 88.5982C39.7869 88.664 39.8333 88.72 39.8928 88.759C39.9523 88.798 40.0222 88.8182 40.0934 88.8169C40.1552 88.8179 40.2165 88.8041 40.272 88.7769C40.3276 88.7496 40.3759 88.7095 40.4129 88.66Z" fill="white"/>
<path d="M41.2988 89.0451L41.8053 87.8809H42.0011L42.5068 89.0451H42.2422L42.1484 88.8291H41.6581L41.5634 89.0451H41.2988ZM41.9032 88.2627L41.7519 88.6107H42.0537L41.9032 88.2627Z" fill="white"/>
</g>
<defs>
<clipPath id="clip0">
<rect width="65" height="89.0718" fill="white"/>
</clipPath>
</defs>
</svg>
