<svg width="120" height="43" viewBox="0 0 120 43" fill="none" xmlns="http://www.w3.org/2000/svg">
<path d="M18.6314 34.6241C16.4482 34.6254 14.2985 34.0873 12.3734 33.0577C10.4482 32.0281 8.80728 30.5389 7.59633 28.7223C6.38538 26.9057 5.64196 24.8181 5.43215 22.6451C5.22234 20.472 5.55264 18.2807 6.39368 16.266C7.23472 14.2514 8.56046 12.4757 10.2531 11.0968C11.9457 9.71787 13.9527 8.77848 16.0958 8.36209C18.2389 7.9457 20.4517 8.06521 22.5375 8.71C24.6233 9.35479 26.5175 10.5049 28.0518 12.0581L31.9553 8.12773C29.3505 5.52078 26.034 3.74087 22.4217 3.01118C18.8093 2.28148 15.062 2.63448 11.6494 4.02592C8.23692 5.41735 5.31113 7.78529 3.23893 10.8328C1.16674 13.8803 0.0403726 17.4718 0.00106507 21.1569C-0.0382425 24.842 1.01126 28.4567 3.01798 31.5477C5.02469 34.6387 7.8993 37.0685 11.2814 38.5324C14.6634 39.9963 18.4024 40.4292 22.0295 39.7767C25.6566 39.1243 29.0103 37.4155 31.6702 34.8647L27.6596 31.077C25.2153 33.3389 22.0063 34.5932 18.676 34.5884" fill="white"/>
<path d="M18.6316 25.7022C17.9123 25.7035 17.2041 25.5256 16.5707 25.1847C15.9374 24.8438 15.399 24.3505 15.004 23.7494C14.6091 23.1483 14.37 22.4583 14.3084 21.7416C14.2469 21.025 14.3647 20.3044 14.6513 19.6447C14.938 18.985 15.3844 18.4071 15.9503 17.9631C16.5161 17.5192 17.1836 17.2231 17.8926 17.1016C18.6015 16.9802 19.3295 17.0372 20.0109 17.2675C20.6923 17.4978 21.3056 17.8942 21.7954 18.4209L25.4762 14.6866C24.1688 13.3487 22.498 12.4232 20.6703 12.0246C18.8427 11.6259 16.9382 11.7715 15.1924 12.4434C13.4466 13.1153 11.9359 14.2841 10.8471 15.8052C9.7583 17.3263 9.13905 19.1331 9.06591 21.0023C8.99278 22.8715 9.46896 24.7212 10.4356 26.3227C11.4022 27.9242 12.817 29.2074 14.5049 30.0137C16.1929 30.8199 18.0801 31.1139 19.9334 30.8593C21.7866 30.6046 23.5246 29.8125 24.9326 28.5809L21.0824 24.9536C20.3645 25.4567 19.5082 25.7245 18.6316 25.7201" fill="white"/>
<path d="M16.8852 0V6.46144L12.4023 9.22426V0H16.8852Z" fill="white"/>
<path d="M12.4023 33.6523L16.8852 34.9179V42.7518H12.4023V33.6523Z" fill="white"/>
<path d="M22.8746 0V7.44179L18.3828 6.71098V0H22.8746Z" fill="white"/>
<path d="M18.3828 35.3379L22.8746 36.6034V42.7529H18.3828V35.3379Z" fill="white"/>
<path d="M47.2142 18.9483C46.3795 19.6624 45.3824 20.1609 44.3103 20.4002C43.2382 20.6395 42.1238 20.6122 41.0647 20.3208C39.3702 19.8445 37.9243 18.7338 37.0274 17.2193C36.7314 16.7138 36.5037 16.1714 36.35 15.6062C36.1885 15.0259 36.1075 14.4261 36.1094 13.8237C36.11 12.3476 36.5951 10.9124 37.4903 9.7387C38.3855 8.56497 39.6412 7.71756 41.0647 7.32662C41.645 7.16505 42.2447 7.08408 42.8471 7.08598C43.6436 7.08299 44.4343 7.22181 45.1822 7.49595C45.927 7.77006 46.6157 8.17779 47.2142 8.69912L45.8328 10.9628C45.456 10.5524 44.9935 10.2298 44.4781 10.0181C43.8468 9.7493 43.1588 9.64095 42.4754 9.70276C41.7921 9.76457 41.1347 9.99462 40.5619 10.3724C39.9891 10.7501 39.5187 11.2638 39.1928 11.8676C38.8668 12.4714 38.6955 13.1465 38.694 13.8326C38.6931 14.3843 38.8054 14.9302 39.0237 15.4368C39.2342 15.9266 39.5367 16.3713 39.915 16.7469C40.2923 17.1272 40.7404 17.4299 41.234 17.6382C41.7421 17.8618 42.2921 17.9742 42.8471 17.9679C43.4072 17.967 43.9616 17.8549 44.4781 17.6382C44.9921 17.4199 45.4539 17.0949 45.8328 16.6846L47.2142 18.9483Z" fill="white"/>
<path d="M51.2335 20.285H48.7559V10.5527H49.3619L50.1729 11.7113C50.976 10.9764 52.0254 10.5694 53.114 10.5706H55.3064V13.0482H53.114C52.6168 13.0482 52.1398 13.2451 51.7874 13.5958C51.435 13.9466 51.2358 14.4226 51.2335 14.9198V20.285Z" fill="white"/>
<path d="M59.0317 23.992V21.4877H60.4131C60.6498 21.4898 60.8851 21.4506 61.1083 21.3718C61.331 21.2923 61.5411 21.1813 61.7322 21.042C62.1214 20.7636 62.4192 20.3759 62.5878 19.928L61.7589 20.2756C61.4767 20.393 61.1733 20.4507 60.8677 20.4449C60.2877 20.4492 59.7125 20.3402 59.1743 20.1241C58.6569 19.9263 58.1864 19.6227 57.7929 19.2328C57.4048 18.8294 57.1044 18.35 56.9106 17.8247C56.6717 17.227 56.5536 16.5878 56.563 15.9442V10.5968H59.0406V15.9442C59.0331 16.2483 59.0845 16.5509 59.1922 16.8354C59.2784 17.0756 59.4151 17.2944 59.5932 17.4771C59.7599 17.6515 59.9641 17.7856 60.1903 17.8693C60.425 17.9525 60.6722 17.9948 60.9211 17.994C61.1724 17.992 61.4197 17.9309 61.643 17.8158C61.8664 17.6954 62.0682 17.5388 62.2402 17.3523C62.4061 17.1554 62.5386 16.9326 62.6323 16.6928C62.7304 16.4522 62.7818 16.1951 62.7838 15.9353V10.5879H65.2793V19.0902C65.2801 20.0592 64.9935 21.0065 64.4557 21.8125C63.9179 22.6184 63.153 23.2467 62.258 23.6177C61.6468 23.8789 60.9887 24.0123 60.324 24.0099L59.0317 23.992Z" fill="white"/>
<path d="M69.9575 23.9917H67.4531V10.552H68.0592L69.0484 11.7284C69.2762 11.5107 69.5205 11.3111 69.7792 11.1313C70.0389 10.9413 70.3165 10.7771 70.6081 10.6411C70.8952 10.5083 71.1934 10.4009 71.4993 10.3202C71.8048 10.2394 72.1192 10.1975 72.4351 10.1955C73.0954 10.1903 73.75 10.3175 74.3602 10.5698C74.9548 10.7979 75.4973 11.1434 75.9555 11.5858C76.4118 12.0536 76.7748 12.6041 77.025 13.2078C77.2907 13.8829 77.4209 14.6036 77.4082 15.329C77.4217 16.066 77.2915 16.7985 77.025 17.4857C76.7792 18.0944 76.4158 18.6487 75.9555 19.1167C75.5011 19.5617 74.9615 19.9103 74.3691 20.1416C73.7547 20.3765 73.1018 20.4944 72.444 20.4892C72.2251 20.4922 72.0066 20.4682 71.7934 20.4179C71.5774 20.3702 71.3658 20.3046 71.1606 20.2218C70.9472 20.1427 70.7389 20.0504 70.5368 19.9455C70.3407 19.8475 70.1446 19.7406 69.9575 19.6247V23.9917ZM74.9217 15.329C74.927 14.9639 74.8635 14.6011 74.7345 14.2595C74.626 13.9258 74.4432 13.621 74.1998 13.3683C73.9736 13.1412 73.7038 12.9623 73.4066 12.8424C72.7871 12.6034 72.1009 12.6034 71.4815 12.8424C71.1747 12.9716 70.8991 13.1649 70.6732 13.4093C70.4472 13.6537 70.2761 13.9436 70.1714 14.2595C69.9099 14.9669 69.9099 15.7445 70.1714 16.4519C70.2876 16.7615 70.4666 17.0437 70.6972 17.2808C71.0414 17.6221 71.4778 17.8555 71.9528 17.9521C72.4279 18.0486 72.9208 18.0043 73.3709 17.8244C73.6672 17.6948 73.9363 17.5103 74.1641 17.2808C74.3947 17.0437 74.5737 16.7615 74.6899 16.4519C74.8249 16.1055 74.8915 15.7363 74.886 15.3646" fill="white"/>
<path d="M83.8868 20.2838C83.3053 20.2869 82.7291 20.1717 82.1935 19.9451C81.6766 19.722 81.2075 19.4013 80.8121 19.0004C80.4272 18.6029 80.1244 18.1335 79.9209 17.619C79.6901 17.0847 79.5747 16.5077 79.5822 15.9257V13.047H78.2988V10.5694H79.5109V6.68359H81.9796V10.5694H85.7406V13.047H82.0064V15.9257C82.0028 16.1794 82.0513 16.4312 82.1489 16.6654C82.2447 16.8848 82.3807 17.0843 82.55 17.2536C82.7229 17.4249 82.9251 17.5638 83.1471 17.6636C83.381 17.7633 83.6326 17.8149 83.8868 17.8151H85.7673V20.2838H83.8868Z" fill="white"/>
<path d="M96.8554 15.3292C96.867 16.6929 96.3458 18.0072 95.4026 18.9922C94.9509 19.4495 94.4153 19.8157 93.8252 20.0706C93.2111 20.3327 92.5499 20.4662 91.8823 20.4627C91.2205 20.4652 90.5653 20.3318 89.9572 20.0706C89.3671 19.8157 88.8315 19.4495 88.3797 18.9922C87.9212 18.5227 87.5581 17.9688 87.3103 17.3612C87.0462 16.7165 86.9129 16.0258 86.9181 15.3292C86.9129 14.6268 87.0462 13.9303 87.3103 13.2794C87.5537 12.6695 87.9174 12.1148 88.3797 11.6484C88.8315 11.1911 89.3671 10.8249 89.9572 10.57C90.5653 10.3088 91.2205 10.1754 91.8823 10.1779C92.5483 10.1727 93.2087 10.2999 93.8252 10.5522C94.4179 10.782 94.9554 11.1343 95.4026 11.586C95.8591 12.0519 96.2195 12.6031 96.4632 13.2081C96.7297 13.88 96.8629 14.5974 96.8554 15.3203V15.3292ZM94.3599 15.3203C94.3577 14.958 94.2913 14.5989 94.1638 14.2597C94.0385 13.9527 93.8572 13.6716 93.6291 13.4309C93.4082 13.1994 93.141 13.0172 92.8448 12.8961C92.2304 12.6469 91.5431 12.6469 90.9287 12.8961C90.6325 13.0172 90.3653 13.1994 90.1444 13.4309C89.9215 13.6722 89.7461 13.9534 89.6275 14.2597C89.4925 14.6061 89.4259 14.9753 89.4314 15.347C89.4267 15.7071 89.4933 16.0645 89.6275 16.3987C89.7461 16.705 89.9215 16.9862 90.1444 17.2275C90.3641 17.467 90.6311 17.6582 90.9287 17.789C91.2284 17.9242 91.5535 17.9941 91.8823 17.994C92.2124 17.9966 92.5397 17.933 92.8448 17.8068C93.1397 17.6794 93.4063 17.4946 93.6291 17.2632C93.8594 17.0242 94.0411 16.7427 94.1638 16.4343C94.2906 16.08 94.351 15.7054 94.3421 15.3292" fill="white"/>
<path d="M49.7794 37.5382H47.1057V28.2337C47.1063 28.0587 47.0698 27.8856 46.9987 27.7257C46.9309 27.5742 46.8374 27.4355 46.7224 27.3157C46.6033 27.1958 46.4607 27.1018 46.3036 27.0394C46.1436 26.9695 45.9701 26.936 45.7956 26.9414C45.6212 26.9377 45.448 26.9711 45.2876 27.0394C44.9783 27.1703 44.7322 27.4165 44.6013 27.7257C44.533 27.8862 44.4996 28.0593 44.5033 28.2337V37.5382H41.9276V28.2337C41.927 28.0597 41.8937 27.8874 41.8296 27.7257C41.7617 27.5742 41.6683 27.4355 41.5533 27.3157C41.4341 27.1958 41.2915 27.1018 41.1344 27.0394C40.9744 26.9695 40.8009 26.936 40.6264 26.9414C40.452 26.9377 40.2789 26.9711 40.1184 27.0394C39.8092 27.1703 39.5631 27.4165 39.4322 27.7257C39.3638 27.8862 39.3304 28.0593 39.3341 28.2337V37.5382H36.7228V28.2337C36.7181 27.7132 36.8213 27.1973 37.0258 26.7186C37.4209 25.785 38.1629 25.0412 39.0956 24.6438C40.0282 24.2465 41.0787 24.2267 42.0256 24.5885C42.4734 24.7592 42.8847 25.0132 43.2377 25.3372C43.5862 25.0161 43.9911 24.7623 44.432 24.5885C44.8757 24.4181 45.3469 24.3305 45.8223 24.3301C46.3454 24.3289 46.8635 24.4319 47.3463 24.6331C47.8115 24.8309 48.2349 25.1152 48.594 25.4709C48.949 25.8288 49.2305 26.2526 49.4229 26.7186C49.6302 27.1967 49.7364 27.7125 49.7348 28.2337L49.7794 37.5382Z" fill="white"/>
<path d="M61.4106 37.5392H60.8135L59.8509 36.2023C59.6115 36.4138 59.3617 36.613 59.1023 36.7994C58.8385 36.9854 58.5581 37.1465 58.2645 37.2807C57.9775 37.4138 57.6793 37.5212 57.3733 37.6016C57.0822 37.6769 56.7828 37.7158 56.4821 37.7174C55.8253 37.7204 55.1733 37.6057 54.557 37.3787C53.9671 37.1559 53.43 36.8129 52.9795 36.3717C52.4976 35.9194 52.1178 35.3694 51.8655 34.7585C51.5949 34.066 51.4618 33.3274 51.4734 32.5839C51.4674 31.8728 51.6007 31.1674 51.8655 30.5073C52.1089 29.8974 52.4726 29.3428 52.935 28.8764C53.3829 28.4189 53.9197 28.0579 54.5125 27.8158C55.1229 27.5645 55.7773 27.4373 56.4375 27.4415C56.7561 27.44 57.0735 27.4789 57.3822 27.5574C57.6898 27.6366 57.9884 27.7471 58.2735 27.8871C58.5672 28.0244 58.8476 28.1885 59.1112 28.3773C59.3716 28.5618 59.6188 28.7644 59.8509 28.9833L60.8135 27.8247H61.4106V37.5392ZM58.9151 32.5839C58.912 32.2477 58.8455 31.9151 58.7191 31.6036C58.5946 31.2773 58.4136 30.9756 58.1843 30.7123C57.9633 30.4675 57.697 30.2678 57.4001 30.1241C57.1016 29.9742 56.7715 29.8978 56.4375 29.9013C56.1119 29.898 55.7885 29.9554 55.4839 30.0706C55.1893 30.1821 54.9219 30.3554 54.6996 30.5786C54.4748 30.8185 54.2991 31.1001 54.1827 31.4075C53.9209 32.1424 53.9209 32.9452 54.1827 33.6801C54.297 33.9886 54.4729 34.2706 54.6996 34.509C54.9219 34.7323 55.1893 34.9055 55.4839 35.017C55.7885 35.1322 56.1119 35.1896 56.4375 35.1863C56.7715 35.1899 57.1016 35.1135 57.4001 34.9635C57.697 34.8198 57.9633 34.6201 58.1843 34.3753C58.4093 34.1254 58.5901 33.8391 58.7191 33.5286C58.8466 33.2143 58.9131 32.8786 58.9151 32.5394" fill="white"/>
<path d="M73.014 36.3091C73.0218 36.9714 72.8881 37.6277 72.6219 38.2342C72.3746 38.8341 72.011 39.3793 71.5521 39.8381C71.0933 40.297 70.5481 40.6606 69.9482 40.9078C69.3404 41.17 68.685 41.3035 68.0231 41.3H66.7754V38.7689H68.0053C68.3412 38.7749 68.6758 38.7237 68.9945 38.6174C69.2475 38.5261 69.4805 38.3869 69.6808 38.2074C69.8646 38.0352 70.0182 37.8333 70.1353 37.6103C70.2442 37.3836 70.3336 37.148 70.4027 36.9062C70.2967 37.0665 70.1528 37.1981 69.9838 37.2894C69.7909 37.391 69.5878 37.4716 69.3778 37.5301C69.155 37.601 68.9247 37.6459 68.6915 37.6638C68.4689 37.6762 68.2457 37.6762 68.0231 37.6638C67.3625 37.6684 66.7068 37.5505 66.0891 37.3162C65.5016 37.0845 64.9656 36.7392 64.5116 36.3002C64.0636 35.8619 63.7089 35.3374 63.4689 34.7583C63.1993 34.0717 63.0661 33.3391 63.0768 32.6016C63.0727 31.9022 63.206 31.2088 63.4689 30.5606C63.9686 29.3386 64.929 28.3622 66.1426 27.8424C66.7544 27.584 67.4125 27.4536 68.0766 27.4592C68.3772 27.4618 68.6765 27.5007 68.9678 27.575C69.2747 27.6563 69.5731 27.7667 69.859 27.9048C70.1488 28.0442 70.4261 28.2082 70.6879 28.3949C70.95 28.5772 71.1973 28.7799 71.4276 29.001L72.3901 27.8424H72.9873L73.014 36.3091ZM70.5185 32.5837C70.5197 32.2471 70.4531 31.9137 70.3225 31.6034C70.2043 31.2742 70.0226 30.9714 69.7877 30.7122C69.5667 30.4673 69.3004 30.2676 69.0035 30.1239C68.7081 29.974 68.381 29.8976 68.0498 29.9011C67.7213 29.898 67.395 29.9554 67.0873 30.0705C66.7953 30.1821 66.5309 30.3554 66.3119 30.5785C66.0814 30.8155 65.9023 31.0977 65.7861 31.4073C65.657 31.7705 65.5936 32.1538 65.599 32.5392C65.5982 32.9303 65.6739 33.3178 65.8218 33.68C65.9358 33.9906 66.1151 34.2732 66.3476 34.5088C66.5652 34.7401 66.8295 34.9223 67.123 35.0435C67.4283 35.1687 67.7554 35.2323 68.0855 35.2307C68.4167 35.2342 68.7438 35.1578 69.0391 35.0079C69.336 34.8642 69.6023 34.6645 69.8234 34.4197C70.0534 34.1736 70.2348 33.8864 70.3581 33.573C70.4897 33.2599 70.5564 32.9234 70.5542 32.5837" fill="white"/>
<path d="M84.6274 37.5392H84.0213L83.0588 36.2024C82.8229 36.418 82.5728 36.6175 82.3102 36.7995C82.0495 36.9854 81.772 37.1465 81.4813 37.2808C81.1938 37.4126 80.8957 37.52 80.5901 37.6016C80.2989 37.6764 79.9996 37.7153 79.6989 37.7175C79.042 37.7212 78.3899 37.6065 77.7738 37.3788C77.1824 37.1538 76.6427 36.8112 76.1874 36.3717C75.7083 35.917 75.329 35.3676 75.0734 34.7586C74.8213 34.0623 74.7063 33.3239 74.7347 32.584C74.7257 31.8734 74.8559 31.168 75.1179 30.5074C75.3647 29.8992 75.728 29.3452 76.1874 28.8764C76.6401 28.4206 77.1795 28.06 77.7738 27.8159C78.384 27.5636 79.0386 27.4364 79.6989 27.4416C79.9996 27.4437 80.2989 27.4826 80.5901 27.5574C80.8975 27.6373 81.196 27.7477 81.4813 27.8872C81.7722 28.0246 82.0497 28.1887 82.3102 28.3774C82.5723 28.5597 82.8196 28.7623 83.0499 28.9834L84.0124 27.8248H84.6185L84.6274 37.5392ZM82.123 32.584C82.1242 32.2473 82.0575 31.9139 81.927 31.6036C81.8094 31.2761 81.631 30.9737 81.4011 30.7124C81.1782 30.4696 80.9123 30.2702 80.6168 30.1242C80.318 29.9752 79.9882 29.8988 79.6543 29.9014C79.3286 29.8972 79.0051 29.9547 78.7007 30.0707C78.406 30.1822 78.1386 30.3554 77.9164 30.5787C77.6889 30.8182 77.5103 31.0997 77.3906 31.4075C77.1426 32.1448 77.1426 32.9429 77.3906 33.6802C77.508 33.9892 77.6868 34.2712 77.9164 34.509C78.1386 34.7323 78.406 34.9055 78.7007 35.017C79.0051 35.1331 79.3286 35.1905 79.6543 35.1864C79.9882 35.1889 80.318 35.1126 80.6168 34.9636C80.9123 34.8175 81.1782 34.6181 81.4011 34.3753C81.6263 34.1273 81.8045 33.8404 81.927 33.5287C82.0585 33.2156 82.1252 32.879 82.123 32.5394" fill="white"/>
<path d="M94.4032 37.5386H86.293L90.3926 30.3018H86.293V27.8242H94.4032L90.3035 35.0699H94.4032V37.5386Z" fill="white"/>
<path d="M99.0036 25.1673C99.0058 25.3883 98.9602 25.6072 98.8699 25.809C98.7835 26.0042 98.6627 26.1823 98.5134 26.3348C98.357 26.4836 98.1761 26.6042 97.9787 26.6913C97.6734 26.8215 97.3361 26.8571 97.0104 26.7935C96.6847 26.73 96.3856 26.5702 96.1516 26.3348C96.0002 26.184 95.8792 26.0055 95.7951 25.809C95.7076 25.6066 95.6651 25.3877 95.6704 25.1673C95.667 24.9471 95.7094 24.7285 95.7951 24.5256C95.8769 24.3278 95.9982 24.1489 96.1516 23.9998C96.3024 23.8483 96.4809 23.7273 96.6775 23.6433C97.0864 23.4708 97.5471 23.4678 97.9582 23.6349C98.3693 23.8021 98.6973 24.1256 98.8699 24.5345C98.9584 24.7369 99.0039 24.9554 99.0036 25.1762V25.1673ZM98.5758 37.5465H96.0714V27.8053H98.5758V37.5465Z" fill="white"/>
<path d="M103.253 37.5386H100.758V27.8063H101.355L102.175 28.751C102.573 28.3941 103.032 28.1105 103.53 27.9133C104.035 27.7174 104.573 27.6176 105.116 27.6192C105.695 27.617 106.268 27.7322 106.8 27.9578C107.848 28.406 108.677 29.2478 109.109 30.3018C109.338 30.8367 109.453 31.4133 109.447 31.9951V37.5564H106.97V31.9773C106.972 31.7295 106.923 31.4839 106.827 31.2554C106.729 31.0345 106.594 30.8324 106.426 30.6583C106.256 30.4917 106.057 30.3587 105.838 30.2661C105.381 30.0745 104.868 30.071 104.409 30.2562C103.95 30.4415 103.582 30.8006 103.387 31.2554C103.288 31.4833 103.237 31.7289 103.235 31.9773L103.253 37.5386Z" fill="white"/>
<path d="M115.384 35.1594C115.476 35.1896 115.572 35.2105 115.669 35.2218H115.963C116.198 35.2211 116.432 35.1881 116.658 35.1238C116.881 35.0566 117.093 34.9607 117.291 34.8386C117.488 34.7143 117.665 34.561 117.817 34.3841C117.974 34.2055 118.103 34.0042 118.2 33.7869L119.982 35.5694C119.76 35.9011 119.493 36.201 119.189 36.4606C118.287 37.2437 117.131 37.6741 115.936 37.6727C114.953 37.6805 113.991 37.3923 113.174 36.8455C112.356 36.2987 111.723 35.5186 111.355 34.6069C111.089 33.9504 110.956 33.2476 110.963 32.5392C110.956 31.8192 111.089 31.1048 111.355 30.4359C111.597 29.8275 111.961 29.2754 112.425 28.8138C112.876 28.3629 113.412 28.0055 114.002 27.7622C114.616 27.5137 115.274 27.3895 115.936 27.3968C116.336 27.3948 116.734 27.4427 117.122 27.5394C117.506 27.6321 117.877 27.7728 118.227 27.9583C118.58 28.1394 118.909 28.3639 119.207 28.6267C119.511 28.8863 119.778 29.1862 120 29.5179L115.384 35.1594ZM116.623 30.0437C116.514 30.0002 116.4 29.9732 116.284 29.9635H115.936C115.606 29.9619 115.279 30.0255 114.974 30.1507C114.674 30.2756 114.404 30.4612 114.18 30.6959C113.956 30.9307 113.783 31.2093 113.673 31.5143C113.543 31.862 113.48 32.2307 113.485 32.6016C113.485 32.6996 113.485 32.7977 113.485 32.9135V33.2611L113.566 33.6087C113.592 33.7083 113.631 33.8042 113.681 33.8939L116.623 30.0437Z" fill="white"/>
</svg>
