<svg width="120" height="22" viewBox="0 0 120 22" fill="none" xmlns="http://www.w3.org/2000/svg">
<g clip-path="url(#clip0)">
<path d="M11.5222 10.9693C11.5222 13.7174 9.28429 15.5121 6.51145 15.5121H-0.00390625V0H6.06541C8.76839 0 10.9625 1.75093 10.9625 4.43203C10.9758 5.0064 10.8614 5.57656 10.6275 6.10134C10.3937 6.62613 10.0463 7.09247 9.61034 7.4667C10.2075 7.83231 10.6983 8.34816 11.0338 8.96277C11.3693 9.57738 11.5377 10.2692 11.5222 10.9693ZM3.54735 3.32402V6.07216H6.07319C6.25427 6.07824 6.43464 6.04669 6.6029 5.97949C6.77117 5.9123 6.92367 5.81093 7.05075 5.68179C7.17783 5.55265 7.27674 5.39855 7.34122 5.22923C7.40571 5.05991 7.43436 4.87905 7.42537 4.69809C7.43622 4.51668 7.40886 4.33502 7.34504 4.16486C7.28122 3.9947 7.18238 3.83984 7.05491 3.71031C6.92744 3.58078 6.77417 3.47946 6.60506 3.41292C6.43594 3.34637 6.25475 3.31609 6.07319 3.32402H3.54735ZM7.97867 10.7032C7.99012 10.5073 7.96035 10.3112 7.89122 10.1276C7.8221 9.94398 7.7152 9.7769 7.57743 9.6372C7.43965 9.4975 7.27409 9.38828 7.09143 9.31661C6.90878 9.24495 6.71311 9.21243 6.5171 9.22116H3.54735V12.1909H6.5171C6.71338 12.1993 6.90925 12.1663 7.09197 12.0941C7.2747 12.022 7.4402 11.9122 7.57775 11.7719C7.7153 11.6316 7.82182 11.464 7.89041 11.2799C7.95899 11.0958 7.98809 10.8993 7.97585 10.7032H7.97867Z" fill="white"/>
<path d="M13.5559 7.29102H18.7854C19.2084 7.29102 19.6141 7.45906 19.9132 7.75817C20.2123 8.05728 20.3804 8.46297 20.3804 8.88598C20.3804 9.30899 20.2123 9.71468 19.9132 10.0138C19.6141 10.3129 19.2084 10.4809 18.7854 10.4809H13.5559C13.1329 10.4809 12.7272 10.3129 12.4281 10.0138C12.129 9.71468 11.9609 9.30899 11.9609 8.88598C11.9609 8.46297 12.129 8.05728 12.4281 7.75817C12.7272 7.45906 13.1329 7.29102 13.5559 7.29102Z" fill="white"/>
<path d="M31.4589 13.8056C31.4589 14.2582 31.2791 14.6923 30.9591 15.0123C30.6391 15.3323 30.205 15.5121 29.7524 15.5121H21.707V0H29.6402C29.8643 -1.91773e-08 30.0861 0.0441439 30.2931 0.129911C30.5001 0.215678 30.6882 0.341387 30.8466 0.499856C31.005 0.658326 31.1307 0.846452 31.2163 1.05349C31.302 1.26052 31.3461 1.48241 31.346 1.70647C31.3461 1.9305 31.302 2.15235 31.2163 2.35935C31.1307 2.56634 31.005 2.75442 30.8466 2.91284C30.6882 3.07125 30.5001 3.19689 30.2931 3.28258C30.0861 3.36827 29.8643 3.41233 29.6402 3.41224H25.2527V5.98394H29.1088C29.5554 5.98394 29.9837 6.16135 30.2995 6.47714C30.6153 6.79293 30.7927 7.22124 30.7927 7.66783C30.7927 8.11443 30.6153 8.54273 30.2995 8.85852C29.9837 9.17431 29.5554 9.35172 29.1088 9.35172H25.2527V12.0999H29.751C29.9752 12.0997 30.1972 12.1437 30.4043 12.2293C30.6115 12.3149 30.7998 12.4405 30.9584 12.5989C31.117 12.7573 31.2428 12.9454 31.3287 13.1525C31.4146 13.3595 31.4588 13.5815 31.4589 13.8056Z" fill="white"/>
<path d="M44.4816 9.97124C44.4665 9.19695 44.6083 8.42761 44.8983 7.70953C45.1884 6.99146 45.6208 6.33951 46.1694 5.79292C46.718 5.24632 47.3716 4.8164 48.0907 4.52901C48.8099 4.24163 49.5798 4.10273 50.354 4.12068C51.3657 4.10704 52.3629 4.36256 53.2433 4.86108C54.1238 5.35959 54.8559 6.08319 55.3647 6.95775L52.4613 8.64234C52.2601 8.25097 51.9504 7.92579 51.5694 7.70566C51.1883 7.48553 50.7519 7.37975 50.3123 7.40095C49.9752 7.39137 49.6398 7.45182 49.3273 7.57848C49.0147 7.70514 48.7319 7.89526 48.4966 8.13682C48.2612 8.37838 48.0786 8.66612 47.9601 8.98187C47.8417 9.29762 47.79 9.63451 47.8084 9.97124C47.79 10.308 47.8417 10.6449 47.9601 10.9606C48.0786 11.2764 48.2612 11.5641 48.4966 11.8057C48.7319 12.0472 49.0147 12.2373 49.3273 12.364C49.6398 12.4907 49.9752 12.5511 50.3123 12.5415C50.7523 12.5656 51.1898 12.4611 51.5713 12.2408C51.9529 12.0205 52.2622 11.6939 52.4613 11.3009L55.3647 12.9622C54.863 13.8445 54.133 14.5756 53.2513 15.0786C52.3697 15.5817 51.3689 15.8381 50.354 15.8211C49.5798 15.839 48.81 15.7002 48.0909 15.4128C47.3718 15.1255 46.7183 14.6956 46.1697 14.1491C45.621 13.6026 45.1886 12.9507 44.8985 12.2327C44.6084 11.5147 44.4666 10.7455 44.4816 9.97124Z" fill="white"/>
<path d="M66.0002 8.7095V15.5121H62.6754V9.19928C62.7034 8.9353 62.6735 8.6684 62.5878 8.41714C62.5022 8.16588 62.3628 7.93629 62.1795 7.74434C61.9961 7.55238 61.7731 7.40267 61.5261 7.30561C61.279 7.20854 61.0138 7.16646 60.7488 7.18228C59.5293 7.18228 58.6873 7.88802 58.6873 9.46534V15.5149H55.3633V0H58.6873V5.4737C59.0711 5.01383 59.5585 4.65152 60.1094 4.41647C60.6604 4.18142 61.2592 4.08033 61.8568 4.1215C64.094 4.1215 66.0002 5.71788 66.0002 8.7095Z" fill="white"/>
<path d="M78.3176 4.4319V15.512H74.9943V14.4703C74.5784 14.9264 74.0663 15.2843 73.4951 15.5182C72.9239 15.7521 72.3078 15.856 71.6915 15.8225C68.7895 15.8225 66.3984 13.2741 66.3984 9.97194C66.3984 6.66979 68.7916 4.12138 71.6915 4.12138C72.3078 4.08787 72.9239 4.1918 73.4951 4.42567C74.0663 4.65953 74.5784 5.01746 74.9943 5.47357V4.4319H78.3176ZM74.9943 9.97194C75.019 9.61627 74.9683 9.2594 74.8455 8.92471C74.7226 8.59002 74.5304 8.28507 74.2814 8.02986C74.0325 7.77464 73.7324 7.57493 73.4009 7.4438C73.0694 7.31267 72.7139 7.25309 72.3577 7.26896C72.0014 7.253 71.6458 7.3125 71.3142 7.44358C70.9825 7.57466 70.6823 7.77434 70.4332 8.02956C70.1841 8.28477 69.9918 8.58974 69.8688 8.92448C69.7458 9.25922 69.695 9.61617 69.7196 9.97194C69.695 10.3277 69.7458 10.6847 69.8688 11.0194C69.9918 11.3541 70.1841 11.6591 70.4332 11.9143C70.6823 12.1695 70.9825 12.3692 71.3142 12.5003C71.6458 12.6314 72.0014 12.6909 72.3577 12.6749C72.7139 12.6908 73.0694 12.6312 73.4009 12.5001C73.7324 12.3689 74.0325 12.1692 74.2814 11.914C74.5304 11.6588 74.7226 11.3539 74.8455 11.0192C74.9683 10.6845 75.019 10.3276 74.9943 9.97194Z" fill="white"/>
<path d="M90.0594 8.70961V15.5122H86.7354V9.19586C86.7633 8.93178 86.7333 8.66481 86.6475 8.4135C86.5617 8.16219 86.4222 7.93257 86.2387 7.74062C86.0552 7.54867 85.8321 7.39898 85.585 7.30197C85.3378 7.20496 85.0724 7.16295 84.8074 7.17887C83.5878 7.17887 82.7459 7.8846 82.7459 9.46193V15.5115H79.4219V4.43143H82.7459V5.4731C83.1298 5.0135 83.6173 4.65145 84.1682 4.41665C84.7192 4.18184 85.3179 4.08098 85.9154 4.12232C88.1533 4.12232 90.0594 5.71729 90.0594 8.70961Z" fill="white"/>
<path d="M102.379 4.43275V14.9581C102.379 18.6816 99.4753 20.2547 96.5282 20.2547C94.224 20.2547 92.2938 19.3908 91.2761 17.5729L94.1132 15.9327C94.3418 16.3952 94.7063 16.7767 95.1579 17.0262C95.6095 17.2757 96.1265 17.3813 96.6397 17.3287C98.1923 17.3287 99.1429 16.5312 99.1429 14.9574V13.9397C98.7541 14.4157 98.259 14.7939 97.6976 15.0441C97.1362 15.2942 96.5239 15.4093 95.91 15.3801C95.1804 15.3756 94.459 15.2256 93.7881 14.9389C93.1172 14.6523 92.5102 14.2347 92.0026 13.7106C91.495 13.1865 91.0971 12.5665 90.832 11.8867C90.5669 11.207 90.4401 10.4812 90.4588 9.75189C90.4402 9.02257 90.5671 8.29684 90.8322 7.61715C91.0973 6.93746 91.4953 6.31746 92.0029 5.7934C92.5104 5.26934 93.1174 4.85175 93.7883 4.56504C94.4591 4.27834 95.1804 4.12828 95.91 4.12364C96.5244 4.09424 97.1371 4.20923 97.699 4.45937C98.2609 4.70951 98.7564 5.08785 99.1458 5.56405V4.43487L102.379 4.43275ZM99.1429 9.75189C99.1525 9.40211 99.0889 9.05418 98.956 8.73046C98.8232 8.40675 98.6241 8.1144 98.3715 7.87221C98.1189 7.63002 97.8185 7.44334 97.4895 7.32416C97.1605 7.20498 96.8102 7.15594 96.4611 7.18019C96.1121 7.15605 95.7618 7.20517 95.4329 7.32439C95.104 7.44361 94.8036 7.63029 94.551 7.87246C94.2985 8.11463 94.0994 8.40693 93.9665 8.73059C93.8336 9.05426 93.7698 9.40213 93.7793 9.75189C93.7699 10.1015 93.8338 10.4493 93.9667 10.7728C94.0997 11.0963 94.2988 11.3884 94.5514 11.6304C94.8039 11.8724 95.1043 12.0589 95.4332 12.1779C95.7621 12.2969 96.1122 12.3458 96.4611 12.3215C96.8101 12.3459 97.1604 12.2971 97.4894 12.1781C97.8184 12.0591 98.1188 11.8725 98.3714 11.6304C98.624 11.3883 98.8231 11.0961 98.956 10.7724C99.0889 10.4488 99.1526 10.1009 99.1429 9.75119V9.75189Z" fill="white"/>
<path d="M109.112 12.8533C109.505 12.865 109.897 12.7964 110.263 12.6517C110.629 12.5069 110.961 12.289 111.24 12.0114L113.899 13.54C113.346 14.2913 112.615 14.8932 111.772 15.2916C110.929 15.6901 110 15.8725 109.068 15.8224C105.279 15.8224 102.928 13.274 102.928 9.97182C102.905 9.19341 103.041 8.41842 103.329 7.69499C103.618 6.97155 104.052 6.31512 104.605 5.76647C105.157 5.21781 105.817 4.78865 106.542 4.50563C107.268 4.22261 108.044 4.09178 108.822 4.12126C109.582 4.11587 110.334 4.26521 111.034 4.56018C111.734 4.85515 112.367 5.28958 112.894 5.83698C113.42 6.38438 113.83 7.03329 114.098 7.74417C114.366 8.45504 114.486 9.21299 114.451 9.97182C114.453 10.4185 114.408 10.8641 114.318 11.3014H106.456C106.875 12.4511 107.893 12.8533 109.112 12.8533ZM111.151 8.82006C111.027 8.29895 110.724 7.83798 110.295 7.51787C109.865 7.19775 109.337 7.0389 108.802 7.06912C108.257 7.02372 107.713 7.17541 107.27 7.49668C106.827 7.81794 106.513 8.28748 106.387 8.82006H111.151Z" fill="white"/>
<path d="M35.0638 9.9375L38.2791 12.831L35.9142 14.9588C35.4905 15.34 34.9328 15.5372 34.3637 15.5072C33.7946 15.4771 33.2608 15.2222 32.8796 14.7986C32.4988 14.375 32.3015 13.8176 32.331 13.2488C32.3605 12.6799 32.6144 12.1459 33.0369 11.7639L35.0638 9.9375Z" fill="white"/>
<path d="M44.2327 6.51754C44.2328 6.81916 44.1692 7.11739 44.0463 7.39281C43.9234 7.66824 43.7438 7.91466 43.5192 8.11604L41.4931 9.94107L38.2812 7.04755L40.6455 4.91975C40.8551 4.73082 41.0999 4.58503 41.3658 4.49071C41.6318 4.3964 41.9137 4.35542 42.1956 4.3701C42.4774 4.38478 42.7535 4.45484 43.0083 4.57627C43.263 4.69771 43.4913 4.86814 43.6802 5.07784C44.0361 5.47288 44.2329 5.98582 44.2327 6.51754Z" fill="white"/>
<path d="M41.4903 9.9404L38.2778 12.8339L35.0625 9.9404L38.2778 7.04688L41.4903 9.9404Z" fill="white"/>
<path d="M38.2803 7.05092L35.065 9.94444L33.0381 8.11658C32.8142 7.91489 32.6353 7.66832 32.5129 7.39291C32.3906 7.11751 32.3277 6.81943 32.3281 6.51808C32.3283 5.98684 32.5251 5.47447 32.8807 5.07979C33.0696 4.8701 33.2979 4.69966 33.5526 4.57823C33.8073 4.45679 34.0835 4.38673 34.3653 4.37205C34.6471 4.35737 34.929 4.39836 35.195 4.49267C35.461 4.58698 35.7058 4.73277 35.9154 4.92171L38.2803 7.05092Z" fill="white"/>
<path d="M43.6801 14.8006C43.2989 15.2242 42.7651 15.4791 42.196 15.5091C41.6269 15.5392 41.0691 15.3419 40.6454 14.9608L38.2812 12.833L41.4931 9.93945L43.5192 11.7617C43.7296 11.9505 43.9006 12.1789 44.0226 12.4339C44.1445 12.6889 44.215 12.9655 44.2299 13.2477C44.2449 13.53 44.204 13.8125 44.1097 14.0789C44.0153 14.3454 43.8694 14.5906 43.6801 14.8006Z" fill="white"/>
<path d="M117.624 14.1312H117.069V15.8151H116.575V14.1312H116.02V13.6562H117.622L117.624 14.1312Z" fill="white"/>
<path d="M119.999 15.8151H119.505V14.5596L118.947 15.4771H118.891L118.334 14.5596V15.8151H117.84V13.6562H118.334L118.92 14.6146L119.505 13.6562H119.999L119.999 15.8151Z" fill="white"/>
<path d="M22.3012 18.717C22.3004 18.7117 22.3008 18.7063 22.3024 18.7012C22.3041 18.6961 22.3069 18.6914 22.3107 18.6877C22.3145 18.6839 22.3191 18.681 22.3242 18.6794C22.3293 18.6777 22.3347 18.6773 22.34 18.6782H22.8002C22.8133 18.6768 22.8265 18.6799 22.8376 18.6869C22.8487 18.6939 22.8572 18.7045 22.8616 18.717L23.5264 20.2167H23.5419L24.1954 18.717C24.2 18.7046 24.2086 18.694 24.2198 18.687C24.2311 18.68 24.2443 18.6769 24.2575 18.6782H24.7099C24.7152 18.6773 24.7206 18.6777 24.7257 18.6794C24.7308 18.681 24.7354 18.6839 24.7392 18.6877C24.743 18.6914 24.7458 18.6961 24.7475 18.7012C24.7491 18.7063 24.7495 18.7117 24.7487 18.717V21.2682C24.7497 21.2736 24.7494 21.2791 24.7478 21.2842C24.7462 21.2894 24.7433 21.2942 24.7395 21.298C24.7357 21.3019 24.7311 21.3048 24.7259 21.3065C24.7207 21.3082 24.7152 21.3086 24.7099 21.3077H24.273C24.2677 21.3086 24.2622 21.3082 24.257 21.3065C24.2519 21.3048 24.2472 21.3019 24.2434 21.298C24.2396 21.2942 24.2368 21.2894 24.2352 21.2842C24.2336 21.2791 24.2333 21.2736 24.2342 21.2682V19.7862H24.2187L23.7317 20.8956C23.7264 20.9101 23.7168 20.9226 23.7042 20.9315C23.6916 20.9404 23.6766 20.9454 23.6612 20.9457H23.3944C23.379 20.9453 23.364 20.9403 23.3515 20.9314C23.3389 20.9225 23.3293 20.91 23.3238 20.8956L22.8376 19.7862H22.822V21.2682C22.8229 21.2736 22.8224 21.2791 22.8208 21.2843C22.8191 21.2895 22.8162 21.2942 22.8123 21.298C22.8085 21.3019 22.8038 21.3048 22.7986 21.3065C22.7934 21.3081 22.7879 21.3086 22.7825 21.3077H22.3464C22.341 21.3085 22.3356 21.3079 22.3305 21.3062C22.3255 21.3044 22.3208 21.3015 22.3171 21.2977C22.3133 21.2939 22.3105 21.2892 22.3088 21.2841C22.3072 21.279 22.3067 21.2735 22.3076 21.2682L22.3012 18.717Z" fill="white"/>
<path d="M28.2058 18.7167C28.2082 18.7052 28.2146 18.6949 28.2239 18.6878C28.2333 18.6806 28.2449 18.6771 28.2566 18.6779H28.7429C28.7546 18.677 28.7663 18.6804 28.7757 18.6876C28.785 18.6947 28.7915 18.7051 28.7937 18.7167L29.6829 21.2679C29.69 21.294 29.6829 21.3075 29.6554 21.3075H29.1536C29.1418 21.308 29.1302 21.3044 29.1209 21.2971C29.1115 21.2899 29.1051 21.2795 29.1028 21.2679L28.9518 20.8085H28.0343L27.8868 21.2679C27.8847 21.2795 27.8785 21.2899 27.8693 21.2972C27.86 21.3045 27.8485 21.3082 27.8367 21.3075H27.3307C27.3043 21.3075 27.2954 21.2943 27.3039 21.2679L28.2058 18.7167ZM28.7979 20.3251L28.5001 19.4076H28.4888L28.191 20.3251H28.7979Z" fill="white"/>
<path d="M32.2309 18.717C32.2301 18.7117 32.2305 18.7063 32.2321 18.7012C32.2338 18.6961 32.2366 18.6914 32.2404 18.6877C32.2442 18.6839 32.2488 18.681 32.2539 18.6794C32.259 18.6777 32.2644 18.6773 32.2697 18.6782H32.7637C32.769 18.6773 32.7744 18.6777 32.7795 18.6794C32.7846 18.681 32.7893 18.6839 32.793 18.6877C32.7968 18.6914 32.7997 18.6961 32.8013 18.7012C32.803 18.7063 32.8034 18.7117 32.8025 18.717V19.8525L33.6763 18.7127C33.6832 18.7018 33.693 18.6928 33.7045 18.6867C33.716 18.6807 33.7289 18.6777 33.7419 18.6782H34.3029C34.3078 18.6781 34.3125 18.6798 34.3163 18.6829C34.32 18.686 34.3226 18.6903 34.3234 18.6951C34.3254 18.7005 34.326 18.7064 34.325 18.7121C34.324 18.7178 34.3215 18.7231 34.3178 18.7276L33.5217 19.7248L34.3912 21.2597C34.3948 21.2642 34.3972 21.2696 34.3979 21.2754C34.3987 21.2811 34.3978 21.2869 34.3954 21.2922C34.3927 21.2968 34.3887 21.3006 34.384 21.3031C34.3792 21.3056 34.3739 21.3067 34.3686 21.3063H33.8005C33.7884 21.3066 33.7766 21.3034 33.7663 21.2972C33.7561 21.2909 33.7478 21.2818 33.7426 21.271L33.1469 20.1651L32.8033 20.5985V21.2668C32.8041 21.2721 32.8036 21.2776 32.802 21.2827C32.8003 21.2878 32.7975 21.2925 32.7937 21.2963C32.79 21.3001 32.7854 21.303 32.7803 21.3048C32.7752 21.3065 32.7698 21.307 32.7644 21.3063H32.2704C32.2651 21.307 32.2597 21.3065 32.2546 21.3048C32.2495 21.303 32.2449 21.3001 32.2411 21.2963C32.2373 21.2925 32.2345 21.2878 32.2329 21.2827C32.2312 21.2776 32.2308 21.2721 32.2316 21.2668L32.2309 18.717Z" fill="white"/>
<path d="M36.9692 18.7171C36.9683 18.7117 36.9687 18.7063 36.9704 18.7011C36.9721 18.6959 36.975 18.6912 36.9789 18.6874C36.9828 18.6836 36.9875 18.6808 36.9927 18.6792C36.9979 18.6776 37.0034 18.6773 37.0087 18.6783H37.5027C37.5081 18.6773 37.5136 18.6776 37.5188 18.6792C37.524 18.6808 37.5287 18.6836 37.5326 18.6874C37.5364 18.6912 37.5394 18.6959 37.541 18.7011C37.5427 18.7063 37.5431 18.7117 37.5423 18.7171V21.2683C37.5431 21.2737 37.5427 21.2792 37.541 21.2844C37.5393 21.2896 37.5364 21.2943 37.5326 21.2982C37.5287 21.302 37.524 21.3049 37.5188 21.3066C37.5136 21.3083 37.5081 21.3087 37.5027 21.3079H37.0087C37.0033 21.3087 36.9978 21.3083 36.9927 21.3066C36.9875 21.3049 36.9828 21.302 36.9789 21.2982C36.9751 21.2943 36.9722 21.2896 36.9705 21.2844C36.9688 21.2792 36.9684 21.2737 36.9692 21.2683V18.7171Z" fill="white"/>
<path d="M40.2856 18.717C40.2847 18.7117 40.2852 18.7063 40.2868 18.7012C40.2885 18.6961 40.2913 18.6914 40.2951 18.6877C40.2989 18.6839 40.3035 18.681 40.3086 18.6794C40.3137 18.6777 40.3191 18.6773 40.3244 18.6782H40.7888C40.8023 18.6777 40.8157 18.6811 40.8273 18.6879C40.8389 18.6948 40.8483 18.7049 40.8544 18.717L41.7824 20.3712H41.8022V18.717C41.8013 18.7117 41.8018 18.7063 41.8034 18.7012C41.8051 18.6961 41.8079 18.6914 41.8117 18.6877C41.8155 18.6839 41.8201 18.681 41.8252 18.6794C41.8303 18.6777 41.8357 18.6773 41.841 18.6782H42.2786C42.2839 18.6773 42.2893 18.6777 42.2944 18.6794C42.2995 18.681 42.3041 18.6839 42.3079 18.6877C42.3117 18.6914 42.3145 18.6961 42.3162 18.7012C42.3178 18.7063 42.3182 18.7117 42.3174 18.717V21.2682C42.3182 21.2735 42.3178 21.279 42.3161 21.2841C42.3145 21.2892 42.3117 21.2939 42.3079 21.2977C42.3041 21.3015 42.2995 21.3044 42.2944 21.3062C42.2893 21.3079 42.2839 21.3085 42.2786 21.3077H41.8177C41.8041 21.3082 41.7907 21.3047 41.7791 21.2977C41.7674 21.2906 41.7581 21.2804 41.7521 21.2682L40.8198 19.6175H40.8008V21.2682C40.8018 21.2736 40.8014 21.2791 40.7998 21.2842C40.7982 21.2894 40.7954 21.2942 40.7916 21.298C40.7878 21.3019 40.7831 21.3048 40.778 21.3065C40.7728 21.3082 40.7673 21.3086 40.7619 21.3077H40.3244C40.3191 21.3085 40.3136 21.3079 40.3086 21.3062C40.3035 21.3044 40.2988 21.3015 40.2951 21.2977C40.2913 21.2939 40.2885 21.2892 40.2869 21.2841C40.2852 21.279 40.2848 21.2735 40.2856 21.2682V18.717Z" fill="white"/>
<path d="M45.0143 20.4772C44.9966 20.3162 44.9895 20.1542 44.9931 19.9923C44.9931 19.8477 44.9931 19.7185 45.003 19.6049C45.0097 19.4917 45.0313 19.38 45.0672 19.2725C45.1239 19.0769 45.2492 18.9083 45.4201 18.7975C45.6039 18.6856 45.8161 18.6292 46.0312 18.6352C46.2284 18.6336 46.4227 18.6821 46.5958 18.7763C46.7663 18.868 46.8978 19.0185 46.9656 19.1998C46.969 19.2045 46.9712 19.2099 46.9721 19.2156C46.9731 19.2212 46.9728 19.227 46.9712 19.2326C46.9697 19.2381 46.9669 19.2432 46.9631 19.2476C46.9594 19.2519 46.9547 19.2554 46.9494 19.2577L46.5366 19.432C46.5076 19.439 46.49 19.432 46.4815 19.4122C46.4389 19.3293 46.374 19.26 46.294 19.2121C46.2141 19.1642 46.1223 19.1396 46.0291 19.1412C45.9352 19.1323 45.8411 19.157 45.7636 19.2109C45.686 19.2647 45.6301 19.3443 45.6057 19.4355C45.5688 19.6201 45.5548 19.8085 45.5641 19.9966C45.5548 20.1858 45.5688 20.3754 45.6057 20.5612C45.632 20.6521 45.6893 20.7309 45.7677 20.7839C45.8461 20.8369 45.9406 20.8607 46.0348 20.8512C46.1286 20.8533 46.221 20.8288 46.3015 20.7806C46.3759 20.7354 46.431 20.6643 46.4561 20.5809C46.4786 20.4965 46.489 20.4093 46.4872 20.3219C46.4872 20.3064 46.4787 20.2993 46.4632 20.2993H46.1103C46.105 20.3001 46.0995 20.2995 46.0944 20.2978C46.0893 20.296 46.0847 20.2931 46.081 20.2893C46.0772 20.2855 46.0744 20.2808 46.0727 20.2757C46.0711 20.2706 46.0707 20.2651 46.0715 20.2598V19.89C46.0707 19.8847 46.0711 19.8793 46.0727 19.8741C46.0744 19.869 46.0772 19.8644 46.081 19.8605C46.0847 19.8567 46.0893 19.8538 46.0944 19.852C46.0995 19.8503 46.105 19.8498 46.1103 19.8505H47.0151C47.0204 19.8498 47.0258 19.8503 47.0309 19.852C47.036 19.8538 47.0406 19.8567 47.0443 19.8605C47.0481 19.8644 47.0509 19.869 47.0526 19.8741C47.0542 19.8793 47.0547 19.8847 47.0539 19.89V20.1024C47.0612 20.3017 47.0391 20.501 46.9882 20.6938C46.9313 20.8919 46.8064 21.0636 46.6353 21.1787C46.4554 21.2968 46.2436 21.3569 46.0284 21.3509C45.8133 21.3573 45.6009 21.3009 45.4173 21.1886C45.2462 21.0776 45.1209 20.9087 45.0644 20.7129C45.0424 20.6355 45.0257 20.5568 45.0143 20.4772Z" fill="white"/>
<path d="M52.8911 18.717C52.8902 18.7117 52.8906 18.7063 52.8923 18.7012C52.8939 18.6961 52.8968 18.6914 52.9005 18.6877C52.9043 18.6839 52.909 18.681 52.9141 18.6794C52.9192 18.6777 52.9246 18.6773 52.9299 18.6782H53.4239C53.4292 18.6773 53.4346 18.6777 53.4397 18.6794C53.4448 18.681 53.4494 18.6839 53.4532 18.6877C53.457 18.6914 53.4598 18.6961 53.4615 18.7012C53.4631 18.7063 53.4635 18.7117 53.4627 18.717V20.7777C53.4627 20.7933 53.4712 20.8003 53.4867 20.8003H54.6462C54.6515 20.7996 54.6568 20.8001 54.6619 20.8018C54.6669 20.8036 54.6715 20.8064 54.6752 20.8101C54.679 20.8139 54.6818 20.8185 54.6835 20.8235C54.6852 20.8285 54.6857 20.8339 54.685 20.8391V21.2682C54.6859 21.2735 54.6854 21.279 54.6838 21.2841C54.6821 21.2892 54.6793 21.2939 54.6755 21.2977C54.6718 21.3015 54.6672 21.3044 54.6621 21.3062C54.657 21.3079 54.6515 21.3085 54.6462 21.3077H52.9327C52.9274 21.3085 52.9219 21.3079 52.9169 21.3062C52.9118 21.3044 52.9072 21.3015 52.9034 21.2977C52.8996 21.2939 52.8968 21.2892 52.8951 21.2841C52.8935 21.279 52.8931 21.2735 52.8939 21.2682L52.8911 18.717Z" fill="white"/>
<path d="M57.2661 18.717C57.2652 18.7117 57.2656 18.7063 57.2673 18.7012C57.2689 18.6961 57.2718 18.6914 57.2755 18.6877C57.2793 18.6839 57.284 18.681 57.2891 18.6794C57.2941 18.6777 57.2996 18.6773 57.3049 18.6782H57.7989C57.8042 18.6773 57.8096 18.6777 57.8147 18.6794C57.8198 18.681 57.8244 18.6839 57.8282 18.6877C57.832 18.6914 57.8348 18.6961 57.8365 18.7012C57.8381 18.7063 57.8385 18.7117 57.8377 18.717V21.2682C57.8385 21.2735 57.8381 21.279 57.8364 21.2841C57.8348 21.2892 57.832 21.2939 57.8282 21.2977C57.8244 21.3015 57.8198 21.3044 57.8147 21.3062C57.8096 21.3079 57.8042 21.3085 57.7989 21.3077H57.3049C57.2995 21.3085 57.2941 21.3079 57.289 21.3062C57.2839 21.3044 57.2793 21.3015 57.2755 21.2977C57.2718 21.2939 57.269 21.2892 57.2673 21.2841C57.2657 21.279 57.2652 21.2735 57.2661 21.2682V18.717Z" fill="white"/>
<path d="M60.5786 18.717C60.5777 18.7117 60.5781 18.7063 60.5798 18.7012C60.5814 18.6961 60.5843 18.6914 60.5881 18.6877C60.5918 18.6839 60.5965 18.681 60.6016 18.6794C60.6067 18.6777 60.6121 18.6773 60.6174 18.6782H62.3034C62.3087 18.6773 62.3141 18.6777 62.3192 18.6794C62.3243 18.681 62.3289 18.6839 62.3327 18.6877C62.3365 18.6914 62.3393 18.6961 62.341 18.7012C62.3426 18.7063 62.343 18.7117 62.3422 18.717V19.1305C62.343 19.1358 62.3426 19.1412 62.341 19.1463C62.3393 19.1514 62.3365 19.1561 62.3327 19.1599C62.3289 19.1636 62.3243 19.1665 62.3192 19.1681C62.3141 19.1698 62.3087 19.1702 62.3034 19.1694H61.1742C61.1709 19.1689 61.1676 19.1692 61.1645 19.1702C61.1614 19.1713 61.1585 19.173 61.1562 19.1753C61.1539 19.1777 61.1521 19.1805 61.1511 19.1836C61.15 19.1868 61.1497 19.1901 61.1502 19.1934V19.7459C61.15 19.7491 61.1504 19.7523 61.1516 19.7552C61.1527 19.7581 61.1545 19.7608 61.1568 19.763C61.1591 19.7651 61.1619 19.7668 61.1649 19.7677C61.1679 19.7687 61.1711 19.769 61.1742 19.7685H62.1178C62.123 19.7678 62.1284 19.7684 62.1334 19.7701C62.1384 19.7718 62.143 19.7746 62.1468 19.7784C62.1505 19.7821 62.1533 19.7867 62.1551 19.7917C62.1568 19.7967 62.1573 19.8021 62.1566 19.8073V20.2167C62.1574 20.222 62.157 20.2274 62.1554 20.2325C62.1537 20.2376 62.1509 20.2422 62.1471 20.246C62.1433 20.2498 62.1387 20.2526 62.1336 20.2543C62.1285 20.2559 62.1231 20.2563 62.1178 20.2555H61.1742C61.1709 20.255 61.1676 20.2553 61.1645 20.2563C61.1614 20.2574 61.1585 20.2591 61.1562 20.2615C61.1539 20.2638 61.1521 20.2666 61.1511 20.2698C61.15 20.2729 61.1497 20.2762 61.1502 20.2795V21.2675C61.151 21.2728 61.1506 21.2783 61.1489 21.2834C61.1473 21.2885 61.1445 21.2932 61.1407 21.297C61.1369 21.3008 61.1323 21.3037 61.1272 21.3055C61.1221 21.3072 61.1167 21.3078 61.1114 21.307H60.6174C60.612 21.3078 60.6066 21.3072 60.6015 21.3055C60.5964 21.3037 60.5918 21.3008 60.5881 21.297C60.5843 21.2932 60.5815 21.2885 60.5798 21.2834C60.5782 21.2783 60.5777 21.2728 60.5786 21.2675V18.717Z" fill="white"/>
<path d="M64.9787 18.717C64.9779 18.7117 64.9783 18.7063 64.9799 18.7012C64.9816 18.6961 64.9844 18.6914 64.9882 18.6877C64.992 18.6839 64.9966 18.681 65.0017 18.6794C65.0068 18.6777 65.0122 18.6773 65.0175 18.6782H66.7035C66.7088 18.6773 66.7142 18.6777 66.7193 18.6794C66.7244 18.681 66.729 18.6839 66.7328 18.6877C66.7366 18.6914 66.7395 18.6961 66.7411 18.7012C66.7428 18.7063 66.7432 18.7117 66.7423 18.717V19.1305C66.7432 19.1358 66.7428 19.1412 66.7411 19.1463C66.7395 19.1514 66.7366 19.1561 66.7328 19.1599C66.729 19.1636 66.7244 19.1665 66.7193 19.1681C66.7142 19.1698 66.7088 19.1702 66.7035 19.1694H65.5743C65.5711 19.1689 65.5678 19.1692 65.5646 19.1702C65.5615 19.1713 65.5587 19.173 65.5563 19.1753C65.554 19.1777 65.5522 19.1805 65.5512 19.1836C65.5502 19.1868 65.5499 19.1901 65.5503 19.1934V19.7149C65.5501 19.718 65.5506 19.7212 65.5517 19.7242C65.5528 19.7271 65.5546 19.7297 65.5569 19.7319C65.5592 19.7341 65.562 19.7357 65.565 19.7367C65.568 19.7376 65.5712 19.7379 65.5743 19.7375H66.5179C66.5232 19.7368 66.5285 19.7373 66.5336 19.739C66.5386 19.7407 66.5432 19.7436 66.5469 19.7473C66.5507 19.7511 66.5535 19.7556 66.5552 19.7606C66.5569 19.7657 66.5574 19.771 66.5567 19.7763V20.1856C66.5575 20.1909 66.5571 20.1964 66.5555 20.2015C66.5538 20.2066 66.551 20.2113 66.5472 20.2151C66.5435 20.2189 66.5388 20.2218 66.5337 20.2236C66.5287 20.2253 66.5232 20.2259 66.5179 20.2251H65.5687C65.5532 20.2251 65.5447 20.2322 65.5447 20.2477V20.7933C65.5447 20.8088 65.5532 20.8158 65.5687 20.8158H66.6979C66.7031 20.8151 66.7085 20.8157 66.7135 20.8174C66.7185 20.8191 66.7231 20.8219 66.7268 20.8257C66.7306 20.8294 66.7335 20.834 66.7352 20.839C66.7369 20.844 66.7374 20.8494 66.7367 20.8547V21.2682C66.7375 21.2735 66.7371 21.279 66.7354 21.2841C66.7338 21.2892 66.7309 21.2939 66.7272 21.2977C66.7234 21.3015 66.7188 21.3044 66.7137 21.3062C66.7086 21.3079 66.7032 21.3085 66.6979 21.3077H65.0119C65.0065 21.3085 65.0011 21.3079 64.996 21.3062C64.9909 21.3044 64.9863 21.3015 64.9826 21.2977C64.9788 21.2939 64.976 21.2892 64.9743 21.2841C64.9727 21.279 64.9722 21.2735 64.9731 21.2682L64.9787 18.717Z" fill="white"/>
<path d="M72.5629 18.717C72.5621 18.7117 72.5625 18.7063 72.5641 18.7012C72.5658 18.6961 72.5686 18.6914 72.5724 18.6877C72.5762 18.6839 72.5808 18.681 72.5859 18.6794C72.591 18.6777 72.5965 18.6773 72.6017 18.6782H74.2877C74.293 18.6773 74.2984 18.6777 74.3035 18.6794C74.3086 18.681 74.3133 18.6839 74.3171 18.6877C74.3209 18.6914 74.3237 18.6961 74.3253 18.7012C74.327 18.7063 74.3274 18.7117 74.3266 18.717V19.1305C74.3274 19.1358 74.327 19.1412 74.3253 19.1463C74.3237 19.1514 74.3209 19.1561 74.3171 19.1599C74.3133 19.1636 74.3086 19.1665 74.3035 19.1681C74.2984 19.1698 74.293 19.1702 74.2877 19.1694H73.1586C73.1423 19.1694 73.1346 19.1764 73.1346 19.1934V19.7149C73.1342 19.7181 73.1345 19.7213 73.1356 19.7243C73.1367 19.7273 73.1385 19.73 73.1409 19.7322C73.1432 19.7344 73.146 19.7361 73.1491 19.737C73.1522 19.7379 73.1554 19.7381 73.1586 19.7375H74.1014C74.1067 19.7368 74.112 19.7373 74.1171 19.739C74.1221 19.7407 74.1267 19.7436 74.1304 19.7473C74.1342 19.7511 74.137 19.7556 74.1387 19.7606C74.1404 19.7657 74.1409 19.771 74.1402 19.7763V20.1856C74.1411 20.1909 74.1406 20.1964 74.139 20.2015C74.1373 20.2066 74.1345 20.2113 74.1307 20.2151C74.127 20.2189 74.1224 20.2218 74.1173 20.2236C74.1122 20.2253 74.1068 20.2259 74.1014 20.2251H73.1586C73.1423 20.2251 73.1346 20.2322 73.1346 20.2477V20.7933C73.1346 20.8088 73.1416 20.8158 73.1586 20.8158H74.2877C74.293 20.8151 74.2984 20.8157 74.3034 20.8174C74.3084 20.8191 74.313 20.8219 74.3167 20.8257C74.3205 20.8294 74.3233 20.834 74.325 20.839C74.3267 20.844 74.3272 20.8494 74.3266 20.8547V21.2682C74.3274 21.2735 74.3269 21.279 74.3253 21.2841C74.3236 21.2892 74.3208 21.2939 74.3171 21.2977C74.3133 21.3015 74.3087 21.3044 74.3036 21.3062C74.2985 21.3079 74.2931 21.3085 74.2877 21.3077H72.6017C72.5964 21.3085 72.591 21.3079 72.5859 21.3062C72.5808 21.3044 72.5762 21.3015 72.5724 21.2977C72.5687 21.2939 72.5658 21.2892 72.5642 21.2841C72.5625 21.279 72.5621 21.2735 72.5629 21.2682V18.717Z" fill="white"/>
<path d="M77.7016 18.7166C77.7038 18.7052 77.7101 18.6949 77.7193 18.6878C77.7285 18.6806 77.74 18.6771 77.7517 18.6778H78.2386C78.2503 18.6771 78.2618 18.6806 78.271 18.6878C78.2802 18.6949 78.2865 18.7052 78.2887 18.7166L79.178 21.2679C79.1855 21.2942 79.1766 21.3074 79.1512 21.3074H78.6487C78.6369 21.3081 78.6253 21.3045 78.6161 21.2972C78.6069 21.2899 78.6006 21.2795 78.5986 21.2679L78.4475 20.8084H77.5301L77.3833 21.2679C77.3811 21.2794 77.3748 21.2897 77.3656 21.297C77.3564 21.3043 77.3449 21.3079 77.3332 21.3074H76.8265C76.8003 21.3074 76.7919 21.294 76.7996 21.2679L77.7016 18.7166ZM78.293 20.325L77.9959 19.4076H77.9839L77.6867 20.325H78.293Z" fill="white"/>
<path d="M82.0398 21.2442C81.878 21.1893 81.7288 21.1027 81.6008 20.9895C81.5961 20.9853 81.5924 20.9802 81.5898 20.9745C81.5873 20.9687 81.5859 20.9625 81.5859 20.9563C81.5859 20.95 81.5873 20.9438 81.5898 20.9381C81.5924 20.9324 81.5961 20.9273 81.6008 20.9231L81.8937 20.5865C81.9092 20.566 81.929 20.5653 81.9515 20.5865C82.143 20.7531 82.386 20.8486 82.6396 20.8568C82.7515 20.8634 82.8624 20.8329 82.9551 20.77C82.991 20.7444 83.0201 20.7105 83.0399 20.6711C83.0597 20.6318 83.0696 20.5882 83.0687 20.5441C83.0701 20.507 83.0623 20.4702 83.0462 20.4367C83.0301 20.4033 83.0061 20.3743 82.9763 20.3522C82.8817 20.293 82.7742 20.2579 82.6629 20.2498L82.5218 20.2308C81.9675 20.1532 81.6904 19.8904 81.6904 19.4425C81.6862 19.3321 81.7069 19.2221 81.751 19.1208C81.7951 19.0196 81.8615 18.9295 81.9452 18.8574C82.1361 18.7039 82.3766 18.6258 82.6213 18.6379C82.7886 18.6361 82.9552 18.6599 83.1153 18.7085C83.2602 18.7512 83.3964 18.8193 83.5176 18.9096C83.5402 18.9252 83.543 18.9442 83.5246 18.9675L83.2889 19.3204C83.2864 19.3251 83.283 19.3292 83.2787 19.3324C83.2745 19.3355 83.2696 19.3378 83.2644 19.3388C83.2592 19.3399 83.2538 19.3398 83.2487 19.3386C83.2435 19.3374 83.2387 19.335 83.2346 19.3317C83.0548 19.2066 82.8423 19.1369 82.6234 19.1312C82.5303 19.1256 82.4382 19.1539 82.3644 19.211C82.3344 19.2361 82.3105 19.2677 82.2945 19.3034C82.2784 19.3391 82.2707 19.378 82.2719 19.4171C82.2719 19.5719 82.4084 19.6686 82.6813 19.7071L82.8224 19.7269C83.3743 19.8012 83.65 20.0668 83.6495 20.5237C83.6529 20.6371 83.6304 20.7497 83.5838 20.8531C83.5373 20.9566 83.4678 21.0481 83.3807 21.1207C83.1623 21.2865 82.8914 21.3679 82.6178 21.3501C82.4203 21.3501 82.2244 21.3142 82.0398 21.2442Z" fill="white"/>
<path d="M86.8032 21.3075C86.7979 21.3082 86.7925 21.3077 86.7874 21.306C86.7823 21.3042 86.7777 21.3013 86.7739 21.2975C86.7702 21.2936 86.7674 21.289 86.7657 21.2839C86.7641 21.2787 86.7636 21.2733 86.7644 21.268V20.2588L85.9881 18.7167C85.9782 18.6906 85.9881 18.6779 86.0149 18.6779H86.5174C86.53 18.6769 86.5425 18.6802 86.5529 18.6872C86.5633 18.6943 86.5709 18.7047 86.5746 18.7167L87.0503 19.6758H87.0623L87.5372 18.7167C87.5411 18.7047 87.549 18.6944 87.5594 18.6873C87.5699 18.6803 87.5825 18.677 87.5951 18.6779H88.0821C88.0871 18.6773 88.0922 18.6781 88.0969 18.6801C88.1016 18.682 88.1057 18.6852 88.1089 18.6892C88.1113 18.6933 88.1126 18.6979 88.1126 18.7026C88.1126 18.7074 88.1113 18.712 88.1089 18.716L87.3326 20.2581V21.2673C87.3334 21.2726 87.3329 21.278 87.3313 21.2831C87.3296 21.2883 87.3268 21.2929 87.323 21.2968C87.3193 21.3006 87.3147 21.3035 87.3096 21.3052C87.3045 21.307 87.2991 21.3075 87.2937 21.3068L86.8032 21.3075Z" fill="white"/>
</g>
<defs>
<clipPath id="clip0">
<rect width="120" height="21.3485" fill="white"/>
</clipPath>
</defs>
</svg>
