<svg width="125" height="38" viewBox="0 0 125 38" fill="none" xmlns="http://www.w3.org/2000/svg">
<g clip-path="url(#clip0)">
<path d="M50.3418 26.0847V10.5723H53.7103C55.3876 10.5723 56.5709 10.9525 57.2602 11.713C57.9496 12.4735 58.2943 13.6711 58.2943 15.3057V21.0123C58.3964 22.3635 58.0347 23.7092 57.269 24.8271C56.5859 25.666 55.4521 26.0857 53.8678 26.0861L50.3418 26.0847ZM52.5028 24.5311H53.719C54.014 24.5356 54.3083 24.5024 54.5949 24.4324C54.8136 24.3799 55.0252 24.3018 55.2255 24.1994C55.4053 24.0968 55.5528 23.946 55.6515 23.764C55.897 23.3733 56.0343 22.9242 56.0491 22.4629C56.0801 22.133 56.0989 21.851 56.1057 21.6168C56.1125 21.3827 56.1156 21.044 56.1151 20.6009V15.5575C56.1151 15.1838 56.1093 14.8682 56.0956 14.6142C56.0818 14.3602 56.0585 14.1062 56.023 13.8472C55.9963 13.6315 55.9394 13.4207 55.8539 13.2209C55.7774 13.0548 55.6798 12.8992 55.5637 12.758C55.4463 12.6117 55.2955 12.496 55.1239 12.4205C54.926 12.3356 54.7187 12.2744 54.5064 12.2384C54.2312 12.1913 53.9524 12.1692 53.6733 12.1723H52.5028V24.5311Z" fill="white"/>
<path d="M62.2403 26.2433C61.9334 26.2453 61.6302 26.1756 61.355 26.0398C61.0797 25.904 60.84 25.7059 60.6548 25.4611C60.2345 24.9596 60.0073 24.3244 60.014 23.6702C60.0076 23.1823 60.0948 22.6978 60.2709 22.2428C60.4101 21.8771 60.5938 21.5301 60.818 21.2094C61.0986 20.8752 61.4401 20.5974 61.8245 20.3909C62.1836 20.1709 62.5537 19.9694 62.9333 19.7871C63.1946 19.6686 63.6529 19.4751 64.3085 19.2066C64.3462 19.1878 64.373 19.1761 64.3926 19.1689V18.3707C64.4254 17.8515 64.3514 17.3311 64.1749 16.8417C64.0884 16.6855 63.9571 16.5588 63.7979 16.4779C63.6386 16.3971 63.4588 16.3658 63.2817 16.3882C62.5076 16.3882 62.1206 16.9121 62.1206 17.9599V18.5114L60.0887 18.4389C60.0887 18.3271 60.0946 18.19 60.1076 18.0274C60.0858 17.132 60.4186 16.2643 61.0336 15.6132C61.7048 15.0692 62.5567 14.7989 63.4188 14.8563C63.8449 14.8159 64.2746 14.8734 64.6752 15.0243C65.0757 15.1752 65.4365 15.4156 65.73 15.7271C66.2593 16.4989 66.5099 17.428 66.4404 18.3612V23.4227C66.4441 24.3117 66.5069 25.1994 66.6284 26.0801H64.7562C64.638 25.5393 64.5474 24.9929 64.4848 24.443C64.3363 24.9301 64.0608 25.3689 63.6866 25.7143C63.2919 26.0725 62.7729 26.2624 62.2403 26.2433ZM63.0545 24.4655C63.3403 24.4562 63.6137 24.3465 63.8266 24.1556C64.0471 23.985 64.2383 23.7796 64.3926 23.5475V20.4119C63.8965 20.6748 63.4211 20.9749 62.9703 21.3096C62.6963 21.5084 62.4723 21.7685 62.3164 22.069C62.1604 22.3696 62.0767 22.7024 62.072 23.041C62.051 23.4076 62.1391 23.7723 62.3252 24.0889C62.4034 24.2098 62.5118 24.3082 62.6397 24.3743C62.7677 24.4404 62.9107 24.4718 63.0545 24.4655Z" fill="white"/>
<path d="M69.0718 26.0843V16.5324H67.7344V15.0085H69.0718V14.4382C69.0718 13.9883 69.0877 13.6087 69.1189 13.2967C69.1494 12.9879 69.2152 12.6835 69.3149 12.3896C69.3961 12.1277 69.5355 11.8876 69.7227 11.6872C69.9186 11.4975 70.1555 11.3553 70.415 11.2714C70.7543 11.1602 71.1102 11.1077 71.4672 11.1161C71.9117 11.1243 72.3554 11.1587 72.7959 11.2191V12.7539C72.2966 12.6915 72.0441 12.6603 72.0383 12.6603C71.8936 12.6411 71.7465 12.6639 71.6144 12.726C71.4824 12.7882 71.3711 12.887 71.2937 13.0108C71.1524 13.3496 71.0898 13.7161 71.1109 14.0826V15.0078H72.8046V16.5317H71.1109V26.0843H69.0718Z" fill="white"/>
<path d="M73.9648 26.0852V15.0073H76.0134V16.5892C76.2978 16.0592 76.6996 15.6013 77.1882 15.2504C77.5679 15.0017 78.0115 14.8686 78.4654 14.8672C78.5777 14.8665 78.6899 14.8728 78.8014 14.8861V17.1487C78.4434 17.0088 78.0631 16.935 77.6788 16.931C77.3628 16.9236 77.0507 17.0024 76.776 17.1589C76.4606 17.3715 76.1995 17.6551 76.0134 17.9869V26.0852H73.9648Z" fill="white"/>
<path d="M80.2031 13.3691V11.2168H82.2618V13.3691H80.2031ZM80.2031 26.0841V15.0062H82.2524V26.0841H80.2031Z" fill="white"/>
<path d="M84.6309 26.0847V10.5723H90.6371V12.1687H86.7912V17.2962H89.9158V18.8397H86.7912V24.5274H90.6829V26.0811L84.6309 26.0847Z" fill="white"/>
<path d="M94.3976 26.2438C93.9959 26.2611 93.5949 26.1948 93.2202 26.049C92.8454 25.9032 92.5051 25.6812 92.2206 25.3969C91.6444 24.7775 91.3079 23.973 91.2715 23.1278L92.9833 22.6133C93.0147 23.1755 93.178 23.7224 93.4601 24.2097C93.5708 24.3769 93.7228 24.5125 93.9015 24.6034C94.0802 24.6944 94.2794 24.7375 94.4796 24.7286C94.6465 24.7345 94.8127 24.7053 94.9674 24.6428C95.1222 24.5803 95.2621 24.4859 95.378 24.3657C95.4928 24.245 95.5805 24.101 95.6352 23.9436C95.6899 23.7861 95.7103 23.6188 95.6951 23.4529C95.6607 23.1461 95.5632 22.8498 95.4087 22.5825C95.2543 22.3153 95.0461 22.0829 94.7975 21.9L92.9108 20.2817C92.5008 19.9474 92.1526 19.5439 91.8818 19.0895C91.6328 18.6261 91.5163 18.1031 91.5451 17.5779C91.5344 17.206 91.5996 16.8358 91.7369 16.4899C91.8741 16.144 92.0805 15.8298 92.3433 15.5664C92.9135 15.0692 93.6553 14.8143 94.4107 14.856C94.7805 14.8379 95.1498 14.9019 95.4919 15.0434C95.834 15.1849 96.1406 15.4005 96.3896 15.6745C96.8898 16.261 97.1837 16.9955 97.2263 17.7651L95.8424 18.2804C95.8001 17.7797 95.6533 17.2934 95.4114 16.853C95.3159 16.6951 95.1793 16.566 95.0163 16.4795C94.8532 16.393 94.6698 16.3523 94.4854 16.3617C94.3359 16.356 94.1869 16.3821 94.0483 16.4384C93.9096 16.4947 93.7846 16.5799 93.6814 16.6883C93.5798 16.7953 93.5009 16.9218 93.4494 17.0601C93.3979 17.1983 93.3749 17.3456 93.3817 17.493C93.3849 17.7093 93.4361 17.9221 93.5314 18.1162C93.6268 18.3103 93.764 18.4809 93.9332 18.6156L95.8983 20.4124C96.3504 20.7955 96.7402 21.2467 97.0536 21.7497C97.3415 22.2531 97.4854 22.826 97.4694 23.4057C97.4958 23.7967 97.4353 24.1886 97.2921 24.5534C97.149 24.9181 96.9267 25.2466 96.6414 25.5152C96.0099 26.0282 95.2101 26.2879 94.3976 26.2438Z" fill="white"/>
<path d="M101.937 26.2439C101.604 26.2757 101.267 26.2325 100.952 26.1175C100.637 26.0025 100.352 25.8186 100.117 25.5792C99.7043 25.0031 99.5012 24.3029 99.5419 23.5952V16.3727H98.3809V15.007H99.5419V11.7793H101.59V15.007H103.368V16.3727H101.59V23.4552C101.561 23.7815 101.635 24.1089 101.801 24.3913C101.905 24.4936 102.031 24.5711 102.169 24.6181C102.307 24.6651 102.454 24.6803 102.599 24.6627C102.852 24.6651 103.106 24.6493 103.357 24.6155V26.1314C102.886 26.1967 102.412 26.2342 101.937 26.2439Z" fill="white"/>
<path d="M106.877 26.2433C106.57 26.2454 106.267 26.1757 105.992 26.0399C105.716 25.9041 105.477 25.7059 105.292 25.4611C104.871 24.9596 104.644 24.3244 104.651 23.6702C104.644 23.1823 104.731 22.6977 104.908 22.2428C105.046 21.877 105.23 21.5299 105.455 21.2094C105.734 20.8749 106.076 20.597 106.46 20.3909C106.819 20.1709 107.189 19.9694 107.569 19.7871C107.83 19.6686 108.289 19.4751 108.944 19.2066C108.982 19.1878 109.01 19.1761 109.028 19.1689V18.3707C109.061 17.8515 108.987 17.331 108.81 16.8417C108.724 16.6855 108.592 16.5588 108.433 16.4779C108.274 16.3971 108.094 16.3658 107.917 16.3882C107.143 16.3882 106.756 16.9121 106.756 17.9599V18.5114L104.724 18.4389C104.724 18.3271 104.73 18.19 104.743 18.0274C104.72 17.1321 105.053 16.2641 105.668 15.6132C106.34 15.0691 107.192 14.7988 108.055 14.8563C108.481 14.8159 108.91 14.8734 109.311 15.0243C109.711 15.1752 110.072 15.4156 110.365 15.7271C110.895 16.4987 111.146 17.4278 111.077 18.3612V23.4227C111.081 24.3116 111.144 25.1994 111.264 26.0801H109.394C109.275 25.5394 109.184 24.993 109.122 24.443C108.974 24.9301 108.698 25.3689 108.324 25.7143C107.929 26.0728 107.41 26.2626 106.877 26.2433ZM107.691 24.4655C107.977 24.456 108.25 24.3463 108.463 24.1556C108.683 23.9852 108.875 23.7798 109.029 23.5475V20.4119C108.533 20.6748 108.057 20.9749 107.606 21.3096C107.332 21.5085 107.109 21.7686 106.953 22.0691C106.797 22.3697 106.713 22.7025 106.709 23.041C106.688 23.4076 106.775 23.7722 106.961 24.0889C107.04 24.2097 107.148 24.308 107.276 24.3741C107.404 24.4401 107.547 24.4716 107.691 24.4655Z" fill="white"/>
<path d="M115.832 26.2439C115.498 26.2757 115.162 26.2325 114.847 26.1175C114.532 26.0025 114.247 25.8186 114.012 25.5792C113.599 25.0031 113.396 24.3029 113.436 23.5952V16.3727H112.275V15.007H113.436V11.7793H115.485V15.007H117.263V16.3727H115.485V23.4552C115.456 23.7815 115.529 24.1088 115.695 24.3913C115.8 24.4936 115.925 24.5711 116.064 24.6181C116.202 24.6651 116.349 24.6803 116.494 24.6627C116.747 24.6651 117 24.6493 117.251 24.6155V26.1314C116.781 26.1967 116.307 26.2342 115.832 26.2439Z" fill="white"/>
<path d="M121.858 26.2436C121.305 26.2604 120.755 26.1664 120.239 25.9671C119.822 25.7939 119.47 25.4925 119.234 25.1064C118.982 24.6864 118.81 24.223 118.726 23.74C118.62 23.1049 118.572 22.4616 118.581 21.8178V19.2823C118.571 18.6318 118.623 17.9818 118.737 17.3412C118.823 16.8576 118.999 16.3944 119.255 15.9755C119.494 15.595 119.846 15.2989 120.262 15.1286C120.767 14.9336 121.306 14.8413 121.847 14.8572C122.2 14.853 122.552 14.8905 122.896 14.969C123.173 15.0328 123.439 15.137 123.686 15.2781C123.91 15.4117 124.103 15.5918 124.252 15.8064C124.405 16.0246 124.532 16.2604 124.63 16.5088C124.739 16.799 124.816 17.1 124.86 17.4065C124.916 17.755 124.953 18.1062 124.972 18.4587C124.991 18.808 125 19.2167 125 19.685L124.99 20.5834H120.632V22.1799C120.632 22.4912 120.632 22.7219 120.636 22.8721C120.641 23.0223 120.652 23.2168 120.673 23.4563C120.683 23.6398 120.72 23.8209 120.781 23.994C120.838 24.1249 120.907 24.2503 120.987 24.3684C121.069 24.4942 121.188 24.5905 121.329 24.6435C121.492 24.6999 121.664 24.7266 121.837 24.7226C122.015 24.7427 122.195 24.7106 122.355 24.6302C122.515 24.5498 122.649 24.4246 122.739 24.2698C122.923 23.8371 123.004 23.3681 122.977 22.899V22.2263H124.979V22.6617C124.981 25.0491 123.941 26.2431 121.858 26.2436ZM120.632 19.4688H122.979V18.4674C122.979 18.1742 122.972 17.928 122.956 17.7287C122.942 17.5328 122.91 17.3386 122.863 17.1481C122.829 16.9902 122.764 16.8406 122.672 16.7084C122.584 16.5975 122.468 16.511 122.337 16.4573C122.176 16.3908 122.003 16.3589 121.829 16.3637C121.634 16.3395 121.436 16.3769 121.263 16.4707C121.09 16.5645 120.951 16.71 120.865 16.8869C120.669 17.5289 120.59 18.2009 120.632 18.8708V19.4688Z" fill="white"/>
<path d="M34.3665 23.5046V26.9435C20.7125 29.4325 8.85305 37.5556 8.85305 37.5556L7.20217 34.4853C13.792 30.6605 20.7865 27.5801 28.0569 25.3006C30.8021 24.4248 33.0023 23.8399 34.3665 23.5046ZM34.3665 20.3328C31.7953 20.6443 29.2586 21.1943 26.7892 21.9757C25.1637 22.4698 23.5665 23.0504 22.0151 23.6693C16.3836 25.9574 10.9883 28.7883 5.90542 32.1218L4.0129 29.8759C8.38333 26.8678 13.0452 24.3069 17.9282 22.2318C19.3882 21.6121 20.7989 21.0664 22.137 20.5889C24.2566 19.827 26.2123 19.2356 27.9423 18.7748C30.0571 18.2077 32.2012 17.7562 34.3651 17.4221V20.332L34.3665 20.3328ZM34.3665 11.2148C32.2413 11.4378 30.1307 11.7833 28.0453 12.2496C26.2609 12.648 24.232 13.1756 22.0143 13.8867C20.7183 14.3018 19.3541 14.7793 17.9332 15.325C16.5748 15.8482 15.1656 16.4389 13.7164 17.1043C12.5967 17.6123 11.448 18.1732 10.2884 18.7733C6.70316 20.6376 3.2639 22.7701 0 25.1526L2.12618 27.6365C5.72009 24.8299 9.60767 22.4212 13.7208 20.4525C14.8695 19.8843 16.0908 19.3205 17.3817 18.7835C18.8766 18.1471 20.4622 17.5332 22.1275 16.965C23.6115 16.465 25.1572 15.9991 26.7652 15.5862C29.2649 14.9356 31.8036 14.4457 34.3658 14.1197L34.5356 14.103C34.4841 14.0863 34.4275 14.0747 34.3658 14.0573L34.3665 11.2148Z" fill="white"/>
<path d="M34.3665 10.6062V14.051C33.0023 13.7157 30.7963 13.1301 28.0453 12.2491C20.7792 9.97034 13.7886 6.8916 7.20217 3.06954L8.85305 0C8.85305 0 20.7125 8.11723 34.3665 10.6062ZM26.766 15.5806C25.1521 15.0807 23.5542 14.5059 22.0143 13.8862C16.3827 11.5975 10.9878 8.76492 5.90615 5.42866L4.0129 7.67385C8.38509 10.6838 13.0486 13.2469 17.9332 15.3245C19.3882 15.9442 20.7931 16.4899 22.1283 16.9616C24.2545 17.7235 26.2159 18.3149 27.9437 18.7757C30.0584 19.3434 32.2026 19.7951 34.3665 20.1291V17.2264C31.7876 16.914 29.2432 16.363 26.766 15.5806ZM34.3665 23.4388C31.8118 23.1167 29.2806 22.6287 26.7892 21.9781C25.1811 21.5688 23.6289 21.0971 22.1406 20.5913C20.4716 20.0282 18.8751 19.4143 17.3832 18.7837C16.0864 18.2322 14.8644 17.6698 13.7171 17.1074C9.6071 15.1357 5.7213 12.7271 2.12691 9.9234L0 12.3972C3.26234 14.7814 6.70178 16.9133 10.2884 18.7743C11.4538 19.3831 12.6025 19.9397 13.7215 20.4513C15.1656 21.1167 16.5755 21.7016 17.9303 22.2306C19.3507 22.7763 20.7128 23.2557 22.0165 23.6689C24.2385 24.3785 26.274 24.9076 28.0591 25.3001C30.1395 25.772 32.2465 26.1174 34.3687 26.3342V23.5041C34.4369 23.4867 34.4993 23.4693 34.5559 23.4584C34.4913 23.4526 34.4289 23.4388 34.3665 23.4388Z" fill="white"/>
<path d="M34.537 14.0965L34.3672 14.1132V14.0508C34.4303 14.0675 34.4862 14.0791 34.537 14.0965Z" fill="white"/>
<path d="M34.3672 23.4355C34.4296 23.4406 34.492 23.4522 34.5544 23.458C34.4978 23.4689 34.4354 23.4856 34.3672 23.5038V23.4355Z" fill="white"/>
<path d="M34.3652 20.3316V20.127" stroke="white"/>
</g>
<defs>
<clipPath id="clip0">
<rect width="125" height="37.5551" fill="white"/>
</clipPath>
</defs>
</svg>
