<svg width="65" height="91" viewBox="0 0 65 91" fill="none" xmlns="http://www.w3.org/2000/svg">
<g clip-path="url(#clip0)">
<path d="M11.3814 72.7743C11.3814 76.2492 8.73129 79.0753 5.69627 79.0753C2.66125 79.0753 0.000110323 76.2492 0.000110323 72.7743C-0.0574609 71.1903 0.505724 69.6465 1.5697 68.4716C2.63367 67.2967 4.11433 66.5836 5.69627 66.4844C8.73129 66.4844 11.3814 69.2775 11.3814 72.7743ZM9.27012 72.6974C9.27012 69.3984 7.87357 66.7043 5.69627 66.7043C3.51897 66.7043 2.11143 69.3984 2.11143 72.6974C2.11143 75.9963 3.52997 78.8554 5.69627 78.8554C7.86257 78.8554 9.27012 75.9853 9.27012 72.6974Z" fill="white"/>
<path d="M26.393 66.804V67.0789C25.1175 67.0789 25.0515 67.8156 25.0515 68.3105V78.0753C25.0234 78.4311 25.1122 78.7863 25.3044 79.087L23.27 77.8114V68.0905L19.0914 79.087H18.8715L14.2969 67.7717V76.3929C14.2636 76.6879 14.2903 76.9867 14.3755 77.2711C14.4607 77.5556 14.6027 77.8198 14.7928 78.0479C14.9829 78.276 15.2172 78.4633 15.4816 78.5984C15.746 78.7335 16.0351 78.8137 16.3313 78.8341V79.076H12.0977V78.8341C12.9114 78.8341 14.165 78.3392 14.165 76.4039V68.1785C14.165 67.0789 12.9114 67.0789 12.6255 67.0789V66.793H16.0014L19.9601 76.3049L23.567 66.793L26.393 66.804Z" fill="white"/>
<path d="M39.7305 78.8553V79.0753H35.4859V78.8553C36.3766 78.8553 36.7944 78.2505 36.4865 77.3488L35.3869 74.5227H31.0653L30.4935 75.9963C29.5588 78.3385 31.1642 78.8553 31.956 78.8553V79.0753H27.7773V78.8553C29.0639 78.8553 29.5698 77.5138 29.9766 76.5901C30.0976 76.3042 33.1326 68.6946 33.0556 68.5517L32.4838 67.3201C32.3686 67.0933 32.1887 66.9058 31.967 66.7812L34.3312 67.1991L38.3559 77.3158C38.9277 78.6574 39.0707 78.8553 39.7305 78.8553ZM35.3319 74.2698L33.2646 68.9805L31.1862 74.2698H35.3319Z" fill="white"/>
<path d="M51.418 68.2433V77.6342C51.3962 77.8056 51.4151 77.9796 51.4732 78.1423C51.5312 78.3049 51.6267 78.4516 51.752 78.5705C51.8773 78.6894 52.0288 78.777 52.1943 78.8264C52.3598 78.8758 52.5346 78.8856 52.7046 78.8548V79.0748H48.383V78.8548C49.0427 78.8548 49.6585 78.7009 49.6585 77.6452V73.0597H44.0943V77.6452C44.0943 78.7449 44.7321 78.8548 45.3919 78.8548V79.0748H41.0703V78.8548C41.24 78.878 41.4128 78.8632 41.5761 78.8114C41.7394 78.7596 41.8891 78.672 42.0144 78.5552C42.1397 78.4383 42.2374 78.2951 42.3004 78.1358C42.3635 77.9765 42.3903 77.8052 42.3789 77.6342V68.2653C42.3833 68.0975 42.3515 67.9308 42.2856 67.7766C42.2197 67.6223 42.1213 67.484 41.997 67.3713C41.8728 67.2585 41.7257 67.1739 41.5657 67.1232C41.4058 67.0726 41.2368 67.057 41.0703 67.0776V66.8577H45.3919V67.0776C44.7321 67.0776 44.0943 67.2206 44.0943 68.2983V72.8838H49.7025V68.2323C49.7025 67.1326 49.0537 67.0227 48.3939 67.0227V66.8027H52.6716V67.0776C52.5091 67.0543 52.3434 67.0675 52.1867 67.1165C52.0301 67.1655 51.8863 67.249 51.7661 67.3608C51.6459 67.4726 51.5522 67.6098 51.492 67.7625C51.4317 67.9152 51.4064 68.0795 51.418 68.2433Z" fill="white"/>
<path d="M65 78.8553V79.0753H60.7554V78.8553C61.6461 78.8553 62.064 78.2505 61.7671 77.3488L60.6674 74.5227H56.3348L55.774 75.9963C54.8283 78.3385 56.4448 78.8553 57.2255 78.8553V79.0753H53.0469V78.8553C54.3445 78.8553 54.8503 77.5138 55.2462 76.5901C55.3561 76.3042 58.4021 68.6946 58.3142 68.5517L57.7424 67.3201C57.6271 67.0933 57.4473 66.9058 57.2255 66.7812L59.5898 67.1991C59.5898 67.1991 63.5815 77.2389 63.6255 77.3158C64.1973 78.6574 64.3512 78.8553 65 78.8553ZM60.6014 74.2698L58.5011 68.9805L56.4228 74.2698H60.6014Z" fill="white"/>
<path d="M2.78125 89.9294V86.2676H3.29808V87.7081H5.49737V86.2676H5.94823V89.9294H5.4094V88.137H3.29808V89.9294H2.78125Z" fill="white"/>
<path d="M10.4803 90.0283C10.2275 90.0349 9.97604 89.9894 9.74149 89.8949C9.50694 89.8003 9.29431 89.6586 9.11676 89.4785C8.77752 89.101 8.58984 88.6114 8.58984 88.1039C8.58984 87.5964 8.77752 87.1068 9.11676 86.7294C9.29485 86.5507 9.50784 86.4107 9.74244 86.318C9.97704 86.2253 10.2282 86.1819 10.4803 86.1905C10.7324 86.1819 10.9836 86.2253 11.2182 86.318C11.4528 86.4107 11.6658 86.5507 11.8439 86.7294C12.1901 87.1034 12.3825 87.5943 12.3825 88.1039C12.3825 88.6136 12.1901 89.1045 11.8439 89.4785C11.6663 89.6586 11.4537 89.8003 11.2192 89.8949C10.9846 89.9894 10.7331 90.0349 10.4803 90.0283ZM10.4803 89.5994C10.6713 89.6036 10.8611 89.5675 11.0372 89.4937C11.2134 89.4198 11.3721 89.3097 11.503 89.1706C11.6405 89.024 11.7465 88.8508 11.8146 88.6617C11.8827 88.4726 11.9114 88.2715 11.8989 88.0709C11.9107 87.8704 11.8817 87.6695 11.8137 87.4805C11.7457 87.2915 11.64 87.1183 11.503 86.9713C11.3715 86.8336 11.2125 86.7252 11.0363 86.6532C10.86 86.5812 10.6706 86.5472 10.4803 86.5534C10.2898 86.545 10.0997 86.578 9.92315 86.6502C9.74661 86.7223 9.58779 86.8319 9.45765 86.9713C9.31819 87.117 9.21012 87.2897 9.14014 87.4789C9.07015 87.668 9.03974 87.8695 9.05078 88.0709C9.03702 88.2726 9.06616 88.4748 9.13629 88.6644C9.20643 88.8539 9.31596 89.0265 9.45765 89.1706C9.58725 89.3114 9.74569 89.4226 9.92218 89.4966C10.0987 89.5706 10.289 89.6057 10.4803 89.5994Z" fill="white"/>
<path d="M15.7153 89.9297V86.6308H14.1758V86.2129H17.7166V86.6308H16.1771V89.9297H15.7153Z" fill="white"/>
<path d="M19.793 89.9294V86.2676H22.674V86.6854H20.2658V87.7851H21.7393V88.203H20.2658V89.5115H22.839V89.9294H19.793Z" fill="white"/>
<path d="M25.4258 89.9294V86.2676H25.8766V89.5665H28.2739V89.9844L25.4258 89.9294Z" fill="white"/>
<path d="M37.6954 88.9395V88.4006H36.6948V87.9718H38.1463V89.0714C37.9828 89.3612 37.7433 89.6007 37.4535 89.7642C37.1595 89.9338 36.8252 90.0212 36.4858 90.0171C36.2345 90.0248 35.9844 89.9799 35.7514 89.8852C35.5185 89.7905 35.3079 89.6482 35.1333 89.4673C34.8302 89.1365 34.6515 88.7107 34.6277 88.2627C34.6039 87.8148 34.7365 87.3724 35.0027 87.0114C35.269 86.6503 35.6524 86.3929 36.0874 86.2833C36.5224 86.1737 36.982 86.2186 37.3875 86.4103C37.6661 86.5555 37.9013 86.7717 38.0693 87.0371L37.6954 87.312C37.5773 87.0967 37.4023 86.9179 37.1896 86.7952C36.9677 86.6727 36.7171 86.612 36.4638 86.6192C36.2736 86.613 36.0841 86.647 35.9079 86.719C35.7317 86.791 35.5726 86.8994 35.4412 87.0371C35.3053 87.1848 35.2002 87.3581 35.1323 87.547C35.0643 87.7358 35.0347 87.9363 35.0453 88.1367C35.0328 88.3373 35.0615 88.5384 35.1296 88.7275C35.1976 88.9166 35.3037 89.0898 35.4412 89.2364C35.5721 89.3755 35.7308 89.4856 35.9069 89.5595C36.0831 89.6333 36.2728 89.6694 36.4638 89.6652C36.705 89.6696 36.9433 89.6128 37.1566 89.5003C37.3832 89.365 37.5693 89.1713 37.6954 88.9395Z" fill="white"/>
<path d="M40.9727 89.9295V86.2677H43.073C43.3745 86.2502 43.6719 86.3441 43.9087 86.5316C44.0115 86.6262 44.0924 86.7422 44.1456 86.8714C44.1987 87.0005 44.223 87.1398 44.2166 87.2794C44.2319 87.5314 44.1492 87.7797 43.9857 87.9721C43.8287 88.1663 43.6054 88.2956 43.3589 88.335L44.2716 89.9405H43.7658L42.886 88.324H41.4235V89.9295H40.9727ZM41.4235 87.8952H43.04C43.2258 87.9133 43.4113 87.8581 43.5568 87.7412C43.6184 87.6867 43.6664 87.6185 43.6969 87.5421C43.7275 87.4658 43.7397 87.3833 43.7328 87.3014C43.739 87.2178 43.7264 87.134 43.6959 87.056C43.6655 86.978 43.618 86.9078 43.5568 86.8505C43.4197 86.7332 43.2421 86.674 43.062 86.6856H41.4235V87.8952Z" fill="white"/>
<path d="M48.5505 90.0286C48.2977 90.0351 48.0463 89.9897 47.8117 89.8952C47.5772 89.8006 47.3645 89.6589 47.187 89.4788C46.8431 89.1036 46.6523 88.6131 46.6523 88.1042C46.6523 87.5953 46.8431 87.1048 47.187 86.7297C47.3622 86.5502 47.5731 86.4095 47.8061 86.3167C48.0391 86.2239 48.2889 86.181 48.5395 86.1908C48.7916 86.1822 49.0428 86.2255 49.2774 86.3183C49.512 86.411 49.725 86.551 49.9031 86.7297C50.1772 86.9982 50.3648 87.3425 50.4417 87.7185C50.5186 88.0944 50.4814 88.4847 50.3348 88.8394C50.1883 89.194 49.939 89.4967 49.6191 89.7086C49.2992 89.9205 48.9232 90.0319 48.5395 90.0286H48.5505ZM48.5505 89.5997C48.7415 89.6039 48.9313 89.5678 49.1074 89.4939C49.2836 89.4201 49.4423 89.31 49.5732 89.1709C49.7127 89.0252 49.8207 88.8524 49.8907 88.6632C49.9607 88.4741 49.9911 88.2726 49.9801 88.0712C49.9898 87.87 49.9588 87.6688 49.8889 87.4799C49.819 87.2909 49.7116 87.118 49.5732 86.9716C49.4431 86.8322 49.2843 86.7226 49.1077 86.6505C48.9312 86.5783 48.7411 86.5453 48.5505 86.5537C48.3603 86.5475 48.1708 86.5815 47.9946 86.6535C47.8184 86.7255 47.6593 86.8339 47.5279 86.9716C47.3884 87.1173 47.2803 87.29 47.2103 87.4792C47.1404 87.6683 47.1099 87.8698 47.121 88.0712C47.1072 88.2729 47.1364 88.4751 47.2065 88.6647C47.2766 88.8542 47.3862 89.0267 47.5279 89.1709C47.6588 89.31 47.8175 89.4201 47.9936 89.4939C48.1698 89.5678 48.3595 89.6039 48.5505 89.5997Z" fill="white"/>
<path d="M53.5074 86.2676V88.6428C53.4919 88.7776 53.5033 88.914 53.5411 89.0443C53.5789 89.1745 53.6421 89.296 53.7273 89.4016C53.9742 89.563 54.2699 89.633 54.563 89.5995C54.8563 89.635 55.1525 89.5648 55.3987 89.4016C55.4839 89.296 55.5472 89.1745 55.5849 89.0443C55.6227 88.914 55.6342 88.7776 55.6187 88.6428V86.2676H56.0805V88.7638C56.0991 88.9412 56.077 89.1205 56.016 89.2882C55.9551 89.4558 55.8568 89.6074 55.7286 89.7315C55.3749 89.9259 54.9777 90.0278 54.574 90.0278C54.1703 90.0278 53.7732 89.9259 53.4194 89.7315C53.2931 89.606 53.1962 89.4542 53.1353 89.2869C53.0745 89.1197 53.0513 88.941 53.0675 88.7638V86.2676H53.5074Z" fill="white"/>
<path d="M58.9727 89.9294V86.2676H61.062C61.3668 86.2505 61.6676 86.3442 61.9087 86.5315C62.0123 86.6208 62.0939 86.7326 62.1473 86.8585C62.2007 86.9844 62.2244 87.1208 62.2166 87.2573C62.2226 87.3991 62.1994 87.5406 62.1483 87.6731C62.0972 87.8055 62.0194 87.926 61.9197 88.0271C61.8139 88.1263 61.6894 88.2037 61.5535 88.2546C61.4176 88.3056 61.273 88.3292 61.128 88.324H59.3795V89.9294H58.9727ZM59.3795 87.8951H60.996C61.1818 87.9132 61.3673 87.858 61.5128 87.7411C61.5744 87.6866 61.6224 87.6184 61.6529 87.5421C61.6835 87.4657 61.6958 87.3832 61.6888 87.3013C61.7005 87.2261 61.6968 87.1493 61.6779 87.0755C61.659 87.0018 61.6253 86.9327 61.5788 86.8724C61.4417 86.7551 61.2641 86.6959 61.084 86.7075H59.3795V87.8951Z" fill="white"/>
<path d="M38.1898 45.2069C39.1257 45.2888 40.0684 45.2481 40.9938 45.086C41.6228 44.9543 42.1976 44.6362 42.6433 44.1732C42.9558 43.8762 43.3319 43.6544 43.743 43.5245C43.666 43.7554 43.633 43.9313 43.567 44.0963C43.3591 44.5524 43.0395 44.9488 42.6378 45.2486C42.2361 45.5485 41.7652 45.7422 41.2688 45.8117C39.9052 46.0646 38.5086 46.1856 37.1231 46.3725C36.9691 46.3725 36.9252 46.3725 36.9362 46.2076C36.9659 45.6879 37.1228 45.1834 37.3932 44.7386C37.6635 44.2938 38.039 43.9221 38.4867 43.6564C39.8555 42.7657 41.334 42.056 42.8852 41.5451C43.3911 41.3692 43.8969 41.1822 44.3808 40.9623C44.8127 40.7658 45.1854 40.4592 45.4615 40.0732C45.7375 39.6871 45.9071 39.2353 45.9532 38.763C45.9883 38.5885 46.0139 38.4124 46.0302 38.2352C41.4144 40.0063 36.9926 42.2466 32.8345 44.921L32.9884 45.086C33.7167 45.3779 34.3171 45.9198 34.6819 46.6145C34.9869 47.0823 35.1955 47.6063 35.2956 48.1557C35.3956 48.7052 35.3852 49.2691 35.2647 49.8144C35.0262 50.6078 34.4979 51.2824 33.7848 51.7041C33.0717 52.1258 32.2261 52.2638 31.4159 52.0907C30.8517 51.9432 30.3366 51.6487 29.9232 51.2372C29.5098 50.8257 29.2129 50.312 29.0627 49.7485C28.9013 49.1387 28.9477 48.4925 29.1947 47.912C29.4366 47.3292 29.7225 46.8124 30.0084 46.1966C30.024 46.1588 30.047 46.1246 30.076 46.0958C30.105 46.067 30.1394 46.0442 30.1773 46.0289C30.2151 46.0135 30.2557 46.0059 30.2965 46.0063C30.3374 46.0068 30.3778 46.0154 30.4153 46.0317C30.916 46.2139 31.3759 46.4933 31.7684 46.8537C32.1609 47.2141 32.4783 47.6485 32.7025 48.132C32.8832 48.5632 32.9217 49.0409 32.8125 49.4955C32.791 49.5689 32.7532 49.6365 32.7018 49.6931C32.6505 49.7498 32.587 49.794 32.5161 49.8226C32.4452 49.8512 32.3687 49.8633 32.2924 49.8581C32.2162 49.8529 32.1421 49.8304 32.0757 49.7924C32.0529 49.7322 32.0529 49.6657 32.0757 49.6055C32.1918 49.0888 32.1062 48.5472 31.8364 48.0915C31.5666 47.6357 31.133 47.3001 30.6242 47.1533C30.5954 47.1379 30.5633 47.1298 30.5307 47.1298C30.4981 47.1298 30.466 47.1379 30.4373 47.1533C30.1371 47.495 29.9356 47.9119 29.8542 48.3594C29.7729 48.8068 29.8148 49.268 29.9754 49.6935C30.145 50.1713 30.4638 50.582 30.8846 50.8648C31.3055 51.1477 31.8061 51.2877 32.3126 51.2643C32.8191 51.2409 33.3047 51.0553 33.6977 50.7348C34.0906 50.4143 34.3701 49.976 34.4949 49.4845C34.6243 48.654 34.4443 47.8049 33.9891 47.0983C33.6323 46.4268 33.1003 45.8644 32.4496 45.4708C29.7555 43.8544 27.0504 42.2489 24.2133 40.8853C23.0586 40.3355 21.893 39.7857 20.7274 39.3238C20.575 39.2541 20.428 39.1732 20.2875 39.0819C20.1417 38.9936 20.0299 38.8588 19.97 38.6992C19.9102 38.5396 19.9058 38.3646 19.9576 38.2022C20.0806 38.2272 20.2018 38.2603 20.3205 38.3011C23.9421 39.7894 27.4645 41.5084 30.8661 43.4475C31.0751 43.5684 31.273 43.7004 31.4819 43.8104C31.6834 43.9293 31.9132 43.9921 32.1472 43.9921C32.3812 43.9921 32.611 43.9293 32.8125 43.8104C35.4688 42.2119 38.2275 40.7903 41.0708 39.5547L45.6014 37.5864C46.3671 37.296 47.0557 36.8332 47.6137 36.2338C47.9403 35.8718 48.1795 35.4397 48.3129 34.9707C48.4464 34.5017 48.4705 34.0084 48.3835 33.5287C48.1965 32.2201 47.9436 30.9225 47.7237 29.614C47.5021 28.6308 47.5826 27.6036 47.9546 26.6669C48.2519 25.9829 48.7265 25.3907 49.3292 24.9515L49.4391 24.8965C49.4713 24.9238 49.4975 24.9575 49.5161 24.9954C50.0549 26.315 50.6157 27.6346 51.1436 28.9652C51.3454 29.4497 51.4061 29.9816 51.3186 30.4992C51.231 31.0167 50.9988 31.499 50.6487 31.8902C50.5797 31.9917 50.4943 32.0809 50.3958 32.1541C50.238 31.8737 50.1872 31.5455 50.2529 31.2304C50.4248 30.6713 50.4755 30.082 50.4015 29.5017C50.3275 28.9214 50.1307 28.3636 49.824 27.8655C49.6938 27.6452 49.5763 27.4175 49.4721 27.1837C49.4347 27.0716 49.3592 26.9762 49.2588 26.9139C49.1584 26.8516 49.0393 26.8265 48.9223 26.8428C48.6804 26.8428 48.5924 26.9198 48.5814 27.1398C48.4963 27.6044 48.4485 28.0751 48.4384 28.5473C48.4934 29.35 48.6254 30.1418 48.7463 30.9445C48.8673 31.7473 49.1092 32.7919 49.1752 33.7266C49.2333 34.4336 49.1055 35.1434 48.8046 35.7857C48.5037 36.4281 48.0401 36.9806 47.4598 37.3884C47.2931 37.5022 47.1529 37.6504 47.0485 37.823C46.9442 37.9957 46.8782 38.1887 46.855 38.3891C46.7671 39.038 46.5582 39.6647 46.2392 40.2365C46.2392 40.2365 46.2392 40.3245 46.1622 40.4125L46.789 40.3575C48.8229 40.0523 50.7643 39.3013 52.4741 38.1582C53.6753 37.3471 54.8248 36.462 55.916 35.508C56.059 35.3981 56.2019 35.2661 56.3559 35.1672C56.544 35.0456 56.6876 34.8662 56.7649 34.6559C56.8422 34.4457 56.8492 34.2161 56.7847 34.0015C56.5491 32.6125 56.6856 31.1859 57.1806 29.8669C57.265 29.651 57.3719 29.4446 57.4995 29.2511C57.6244 29.0132 57.8321 28.8293 58.0833 28.7341C58.3345 28.6389 58.6119 28.639 58.8631 28.7342C59.1091 28.7923 59.3276 28.9333 59.4818 29.1336C59.636 29.3339 59.7166 29.5812 59.7098 29.8339C59.7445 30.9958 59.4388 32.1425 58.8301 33.1328C58.5552 33.6057 58.2363 34.0675 57.9174 34.5074C57.8147 34.625 57.7503 34.7712 57.7326 34.9263C57.7149 35.0815 57.7448 35.2383 57.8184 35.3761C58.3792 36.4757 58.9181 37.7073 59.4679 38.873C59.838 39.5764 59.9417 40.3899 59.7598 41.1637C59.578 41.9375 59.1229 42.6196 58.4782 43.0846C57.4696 43.8794 56.2579 44.3748 54.9813 44.5141C54.6184 44.5141 54.2556 44.5801 53.8817 44.6131H53.6618L54.8494 46.0536C55.1243 46.3835 55.1243 46.3835 55.5202 46.1856C56.166 45.8549 56.8542 45.6144 57.5655 45.4708C58.0449 45.3479 58.5533 45.4156 58.9839 45.6596C59.4145 45.9036 59.7338 46.305 59.8747 46.7794C59.9532 47.0084 59.9749 47.253 59.9379 47.4922C59.901 47.7314 59.8066 47.9581 59.6627 48.1527C59.5189 48.3474 59.3299 48.5043 59.1121 48.6098C58.8943 48.7154 58.6541 48.7665 58.4122 48.7588C58.2014 48.7615 57.9935 48.7095 57.8088 48.608C57.624 48.5064 57.4687 48.3588 57.358 48.1794C57.2473 48 57.1849 47.795 57.1769 47.5844C57.169 47.3737 57.2157 47.1646 57.3126 46.9773C57.3126 46.8564 57.4885 46.7904 57.5765 46.9004C57.7097 47.0571 57.8073 47.241 57.8624 47.4392C57.9394 47.8131 58.0493 48 58.3023 48.044C58.4657 48.0793 58.6363 48.0597 58.7874 47.9881C58.9385 47.9165 59.0618 47.797 59.138 47.6481C59.242 47.4208 59.2591 47.1633 59.1862 46.9242C59.1132 46.6852 58.9553 46.4811 58.7421 46.3505C58.5845 46.2391 58.4043 46.1637 58.2143 46.1294C58.0243 46.0952 57.8291 46.1032 57.6425 46.1526C56.9057 46.3945 56.1799 46.6694 55.4432 46.9444C56.2127 48.5218 56.7604 50.1982 57.0707 51.9257C56.7188 51.8488 56.3999 51.7938 56.103 51.7168C54.8243 51.4148 53.5819 50.976 52.3972 50.4082C52.2212 50.3203 52.1552 50.4082 52.0673 50.5292C51.6415 51.2197 51.3505 51.9846 51.2095 52.7835C51.1922 52.9971 51.232 53.2115 51.3247 53.4047C51.4174 53.5979 51.5599 53.763 51.7374 53.8831C51.8903 54.0078 52.0781 54.0821 52.275 54.0959C52.4719 54.1097 52.6682 54.0622 52.837 53.9601C52.9697 53.8828 53.075 53.7661 53.138 53.6261C53.2011 53.4861 53.2189 53.3299 53.1889 53.1793C53.1229 52.8934 52.892 52.8165 52.6501 52.7835C52.5192 52.7649 52.3935 52.7203 52.2801 52.6523C52.1668 52.5843 52.0683 52.4943 51.9903 52.3876C52.1016 52.2814 52.2339 52.1998 52.3787 52.1479C52.5235 52.0961 52.6775 52.0752 52.8309 52.0866C52.9843 52.098 53.1336 52.1414 53.2691 52.2141C53.4046 52.2868 53.5234 52.3871 53.6178 52.5086C53.7511 52.6824 53.8431 52.8844 53.8866 53.0992C53.9302 53.3139 53.9241 53.5358 53.869 53.7479C53.8139 53.9599 53.7111 54.1566 53.5684 54.323C53.4258 54.4893 53.2471 54.621 53.046 54.7078C52.8005 54.8107 52.5354 54.858 52.2695 54.8463C52.0036 54.8346 51.7436 54.7643 51.5082 54.6402C51.2727 54.5162 51.0677 54.3416 50.9077 54.1289C50.7477 53.9163 50.6367 53.6709 50.5827 53.4103C50.4618 52.7355 50.554 52.0398 50.8467 51.4199C50.974 51.1193 51.1172 50.8257 51.2755 50.5402C51.4955 50.1113 51.4515 49.9244 51.0666 49.6495C50.6817 49.3746 50.3848 49.1107 50.0439 48.8467L49.736 48.5828C49.736 48.8577 49.67 49.0887 49.659 49.3196C49.5785 50.9084 48.9711 52.4251 47.9326 53.6302C47.4294 54.1884 46.7508 54.5581 46.0089 54.6781C45.267 54.7981 44.5064 54.6611 43.8529 54.29C42.7151 53.6724 41.544 53.1181 40.3451 52.6295C40.2161 52.587 40.0783 52.5788 39.9453 52.6058C39.8122 52.6328 39.6885 52.694 39.5863 52.7835C38.9045 53.2123 38.2227 53.6522 37.508 54.0261C36.8722 54.3504 36.1754 54.5377 35.4626 54.5759C35.232 54.5923 35.0005 54.5923 34.7699 54.5759C34.5247 54.5421 34.2966 54.4312 34.1187 54.2592C33.9408 54.0872 33.8222 53.8631 33.7802 53.6192C33.7161 53.3681 33.7427 53.1024 33.8553 52.8691C33.968 52.6357 34.1595 52.4496 34.396 52.3436C35.5313 51.7748 36.8065 51.5457 38.0688 51.6838C38.5998 51.7168 39.1323 51.7168 39.6633 51.6838C39.7891 51.6774 39.9074 51.6222 39.9932 51.5299C42.5436 49.1077 44.3774 46.0297 45.2935 42.6337C45.4034 42.1829 45.4474 41.71 45.5244 41.2262H45.4144C44.5249 41.7969 43.5585 42.2375 42.5443 42.5348C41.4997 42.9197 40.488 43.3705 39.4653 43.8214C38.8715 44.0853 38.5746 44.6571 38.1898 45.2069ZM45.5464 52.4646C45.5752 52.1966 45.6911 51.9456 45.8763 51.7498C45.9545 51.6856 46.0164 51.6037 46.0567 51.5109C46.097 51.4181 46.1147 51.3171 46.1083 51.2161C46.1018 51.1151 46.0714 51.0171 46.0196 50.9301C45.9678 50.8432 45.8961 50.7698 45.8103 50.7161C45.5648 50.5677 45.2834 50.4892 44.9966 50.4892C44.7097 50.4892 44.4283 50.5677 44.1828 50.7161C43.9569 50.9029 43.7778 51.1399 43.6598 51.4082C43.5418 51.6764 43.4881 51.9686 43.503 52.2613C43.518 52.554 43.6012 52.8392 43.7459 53.0941C43.8907 53.3489 44.093 53.5664 44.3368 53.7292C44.6254 53.8862 44.9434 53.9818 45.2707 54.0102C45.5981 54.0386 45.9278 53.9991 46.2392 53.8941C46.9591 53.653 47.5656 53.156 47.9436 52.4976C48.6878 51.3417 49.0706 49.9903 49.0432 48.6158C49.0432 47.7471 49.0432 46.8784 49.0432 46.0097C49.0661 45.5405 49.2385 45.0909 49.5353 44.7268C49.8321 44.3627 50.2377 44.1032 50.6927 43.9863C51.2225 43.8929 51.7625 43.8707 52.2982 43.9203C53.0679 43.9203 53.8487 43.9203 54.6184 43.9203C55.9888 43.8552 57.2894 43.2967 58.2803 42.3478C58.6047 42.0724 58.8536 41.7189 59.0037 41.3207C59.1537 40.9225 59.1999 40.4926 59.138 40.0716C59.1241 39.8229 59.0583 39.5799 58.9447 39.3583C58.8311 39.1366 58.6723 38.9412 58.4785 38.7848C58.2847 38.6283 58.0603 38.5142 57.8197 38.4499C57.5791 38.3855 57.3277 38.3723 57.0816 38.4111C56.8764 38.4208 56.6753 38.4715 56.4899 38.5602C56.3046 38.6489 56.139 38.7738 56.0027 38.9275C55.8664 39.0812 55.7622 39.2607 55.6963 39.4553C55.6305 39.6499 55.6042 39.8557 55.6191 40.0606C55.607 40.2534 55.6557 40.4452 55.7582 40.6089C55.8608 40.7726 56.0121 40.9001 56.1909 40.9733C56.5098 41.0942 56.6968 41.0283 56.9497 40.6984C57.0707 40.5554 57.4115 40.4455 57.4775 40.5664C57.5368 40.7109 57.5368 40.8728 57.4775 41.0173C57.4312 41.1597 57.3525 41.2895 57.2476 41.3963C57.1426 41.5032 57.0143 41.5842 56.8727 41.6331C56.5858 41.7406 56.2715 41.7515 55.9778 41.6642C55.6841 41.5768 55.4269 41.396 55.2452 41.1492C55.057 40.902 54.9299 40.6136 54.8745 40.3078C54.819 40.002 54.8368 39.6874 54.9263 39.3898C55.055 38.9269 55.3281 38.5173 55.706 38.2206C56.0838 37.9239 56.5465 37.7556 57.0267 37.7403H57.9724L57.0047 35.541L56.8727 35.651C55.6832 36.7831 54.3827 37.7925 52.991 38.664C51.0875 39.9211 48.934 40.7502 46.679 41.0942C46.2062 41.1712 46.2062 41.1932 46.1292 41.6551C46.0522 42.1169 45.9752 42.6228 45.8543 43.0846C45.3931 44.7859 44.6816 46.4091 43.743 47.901C42.932 49.2019 41.9965 50.4209 40.9499 51.5409C40.8289 51.6728 40.6859 51.7828 40.532 51.9257L42.7313 52.8934V52.1457C42.7083 51.8137 42.7609 51.4808 42.8853 51.1721C43.0096 50.8634 43.2024 50.5869 43.4491 50.3635C43.6957 50.1401 43.9899 49.9756 44.3094 49.8824C44.6289 49.7892 44.9653 49.7697 45.2935 49.8254C45.6082 49.8522 45.9082 49.9706 46.1564 50.1661C46.4046 50.3615 46.5901 50.6254 46.69 50.9251C46.7697 51.1034 46.8005 51.2996 46.7792 51.4938C46.7579 51.6879 46.6853 51.8728 46.5688 52.0296C46.4524 52.1863 46.2963 52.3093 46.1166 52.3857C45.9369 52.4622 45.7401 52.4894 45.5464 52.4646ZM54.4535 46.7024C54.1456 46.3176 53.9037 45.9657 53.6178 45.6028C53.3284 45.2377 52.9557 44.9473 52.5309 44.756C52.1062 44.5647 51.6417 44.478 51.1766 44.5031C50.9558 44.5169 50.74 44.5749 50.5421 44.6737C50.3441 44.7726 50.1681 44.9102 50.0245 45.0785C49.8809 45.2467 49.7725 45.4422 49.706 45.6532C49.6394 45.8641 49.616 46.0863 49.6371 46.3066C49.6754 47.0947 50.0137 47.8383 50.5827 48.3849C50.9289 48.7409 51.3394 49.0282 51.7924 49.2316C51.8144 48.8434 51.8144 48.4542 51.7924 48.066C51.6879 47.405 51.385 46.7914 50.9236 46.3066C50.7587 46.1196 50.8467 46.0207 50.9236 45.8997C51.0006 45.7787 51.1436 45.6688 51.3635 45.8227C51.7358 46.0949 52.1336 46.3306 52.5511 46.5265C53.1571 46.7583 53.8152 46.8192 54.4535 46.7024ZM52.4741 47.3732C52.4741 47.3732 52.4741 47.4722 52.4741 47.5492C52.4741 48.143 52.4741 48.7478 52.4741 49.3526C52.4649 49.4646 52.4949 49.5764 52.5591 49.6688C52.6234 49.7611 52.7177 49.8281 52.826 49.8584C53.4748 50.1223 54.1236 50.3862 54.7834 50.6282C55.2452 50.7931 55.7071 50.9361 56.2129 51.101C56.2129 50.9691 56.2129 50.9141 56.2129 50.8591C56.048 50.3862 55.894 49.9134 55.7291 49.4515C55.5641 48.9897 55.3332 48.3519 55.1243 47.8571C55.0473 47.6371 54.9153 47.4502 54.6514 47.4502L52.4741 47.3732ZM39.0255 52.3436H38.3877C37.2716 52.2429 36.1469 52.3816 35.0888 52.7505C34.924 52.806 34.7711 52.8918 34.6379 53.0034C34.5674 53.0629 34.5154 53.1413 34.488 53.2293C34.4606 53.3174 34.4589 53.4115 34.4832 53.5004C34.5075 53.5894 34.5567 53.6696 34.625 53.7316C34.6933 53.7935 34.7779 53.8347 34.8688 53.8501C35.233 53.9094 35.6043 53.9094 35.9685 53.8501C37.0833 53.5719 38.1257 53.0582 39.0255 52.3436ZM57.4115 33.7816H57.5105C57.5555 33.704 57.607 33.6305 57.6645 33.5617C58.4573 32.5589 58.9287 31.3401 59.017 30.0648C59.0447 29.9167 59.0161 29.7635 58.9368 29.6354C58.8574 29.5072 58.7331 29.4133 58.5882 29.372C58.4542 29.3413 58.3136 29.3628 58.195 29.4323C58.0765 29.5018 57.9889 29.614 57.9504 29.7459C57.7715 30.112 57.642 30.5003 57.5655 30.9005C57.4775 31.8902 57.4665 32.8249 57.4115 33.7816ZM17.4834 36.8276C17.4834 36.4647 17.5824 36.1458 17.6264 35.827C17.7474 34.7273 17.8793 33.7046 18.0003 32.638C18.0882 31.7473 18.1762 30.8566 18.2532 29.9658C18.3412 28.8662 18.4401 27.7666 18.4731 26.6669C18.4731 25.2924 18.4731 23.9178 18.4731 22.5432C18.4731 22.3453 18.3742 22.3563 18.2312 22.3893C17.6154 22.5212 17.0106 22.6862 16.3838 22.7632C15.7351 22.8826 15.0672 22.8451 14.4359 22.6539C13.8046 22.4626 13.2283 22.123 12.755 21.6635C12.2764 21.1539 11.9922 20.4921 11.9522 19.7941C11.8926 19.3093 11.9415 18.8173 12.0952 18.3536C12.2607 17.9073 12.5292 17.5064 12.8789 17.1835C13.2286 16.8606 13.6495 16.6247 14.1075 16.4952C14.7163 16.2523 15.3895 16.2234 16.0168 16.4132C16.6442 16.603 17.1884 17.0002 17.5604 17.5399C17.9233 18.0127 18.2422 18.5295 18.5831 19.0244C18.726 19.2223 18.6381 19.3653 18.4841 19.5082C18.0589 19.8722 17.548 20.1219 16.9996 20.234C16.4163 20.4232 15.7918 20.446 15.1962 20.3C14.9137 20.2173 14.649 20.0831 14.4154 19.9041C14.3582 19.8588 14.312 19.8011 14.2802 19.7354C14.2484 19.6697 14.2319 19.5977 14.2319 19.5247C14.2319 19.4517 14.2484 19.3797 14.2802 19.314C14.312 19.2483 14.3582 19.1906 14.4154 19.1453C14.5034 19.0244 14.5914 19.0464 14.7123 19.1453C15.0634 19.3368 15.4315 19.4951 15.812 19.6182C16.1215 19.6756 16.4407 19.651 16.7378 19.5469C17.0349 19.4427 17.2996 19.2626 17.5054 19.0244C17.5189 18.999 17.526 18.9707 17.526 18.9419C17.526 18.9131 17.5189 18.8848 17.5054 18.8594C17.328 18.36 17.0001 17.9279 16.5668 17.6226C16.1335 17.3174 15.6162 17.154 15.0862 17.155C14.5132 17.1276 13.9506 17.3154 13.5091 17.6817C13.0675 18.048 12.7789 18.5661 12.7 19.1343C12.6317 19.6851 12.7521 20.2427 13.0418 20.7161C13.3314 21.1895 13.773 21.5506 14.2945 21.7405C14.8928 21.9799 15.5372 22.0824 16.1803 22.0405C16.8234 21.9987 17.449 21.8135 18.0113 21.4986C21.0243 19.8051 24.0373 18.1007 26.8744 16.1103C27.6002 15.5935 28.3039 15.0107 29.0737 14.5268C29.2715 14.3755 29.4854 14.2464 29.7115 14.142C29.862 14.0678 30.0326 14.0448 30.1974 14.0766C30.3622 14.1084 30.512 14.1931 30.6242 14.3179C30.5746 14.3747 30.5194 14.4263 30.4592 14.4718C27.6388 16.6427 24.7021 18.658 21.6621 20.5089C21.1563 20.8168 20.6394 21.1027 20.1226 21.3886C19.8331 21.5288 19.5966 21.7585 19.448 22.0438C19.2994 22.329 19.2468 22.6546 19.2979 22.9721C19.3528 23.8408 19.2979 24.6985 19.2979 25.5673C19.2979 26.0511 19.2979 26.524 19.2429 27.0078C19.1549 28.2834 19.0669 29.57 18.957 30.8566C18.847 32.1431 18.737 33.0558 18.6161 34.2105C18.5171 35.0902 18.3961 35.9699 18.2972 36.8496C18.1797 37.5818 18.2134 38.3302 18.3961 39.0489C18.5321 39.5202 18.7714 39.9553 19.0967 40.3224C19.422 40.6895 19.825 40.9795 20.2765 41.1712C21.1453 41.5561 22.047 41.853 22.9487 42.1829C23.8582 42.434 24.7308 42.8037 25.5438 43.2825C26.04 43.6164 26.4581 44.0536 26.7694 44.5641C27.0806 45.0747 27.2778 45.6466 27.3473 46.2406C27.3531 46.2526 27.3561 46.2657 27.3561 46.2791C27.3561 46.2924 27.3531 46.3056 27.3473 46.3176C27.3538 46.3428 27.3538 46.3693 27.3473 46.3945H26.6545C25.4339 46.2296 24.2243 46.0976 23.0147 45.8997C22.5757 45.8422 22.1559 45.6843 21.7878 45.4383C21.4197 45.1923 21.1133 44.8648 20.8923 44.4812C20.7824 44.2832 20.6724 44.2392 20.4855 44.3602L20.2326 44.4921C20.4965 45.053 20.7494 45.5918 21.0243 46.1526C21.9599 47.892 23.1209 49.5004 24.4772 50.9361L24.906 51.4529C24.9899 51.5607 25.1025 51.6427 25.2309 51.6894C25.3593 51.7361 25.4983 51.7456 25.6318 51.7168C26.9087 51.476 28.2231 51.5211 29.4806 51.8488C29.9573 52.0064 30.4118 52.2245 30.8331 52.4976C31.0204 52.6446 31.1549 52.8485 31.2163 53.0785C31.2778 53.3085 31.263 53.5523 31.174 53.7732C31.1034 54.0069 30.957 54.2105 30.7579 54.3519C30.5588 54.4933 30.3183 54.5643 30.0744 54.5539C28.851 54.5931 27.6442 54.2636 26.6105 53.6082C26.1816 53.3553 25.7748 53.0584 25.3789 52.7725C25.2632 52.6744 25.1211 52.6127 24.9705 52.5951C24.8198 52.5775 24.6674 52.6048 24.5322 52.6735C23.3775 53.2233 22.2229 53.7732 21.0793 54.301C20.3445 54.7145 19.4792 54.831 18.6611 54.6265C17.8431 54.422 17.1345 53.912 16.6807 53.2013C15.9435 52.1735 15.4989 50.965 15.3941 49.7045C15.3941 49.3526 15.3281 49.0007 15.2842 48.6048C15.2514 48.5988 15.2179 48.5988 15.1852 48.6048C14.7233 48.9567 14.2725 49.3306 13.7996 49.7045C13.7101 49.7632 13.6457 49.8533 13.6193 49.9571C13.5928 50.0609 13.6062 50.1708 13.6567 50.2653C13.8766 50.8261 14.0965 51.3649 14.3055 51.9367C14.4856 52.3518 14.5428 52.8097 14.4704 53.2563C14.4195 53.5323 14.3061 53.793 14.1387 54.0184C13.9714 54.2437 13.7546 54.4277 13.5051 54.5562C13.2555 54.6847 12.9799 54.7543 12.6992 54.7596C12.4186 54.7649 12.1405 54.7058 11.8863 54.5869C11.6545 54.4648 11.4628 54.2785 11.3341 54.0504C11.2053 53.8222 11.1451 53.5618 11.1605 53.3003C11.139 53.0748 11.1876 52.8481 11.2998 52.6513C11.412 52.4544 11.5823 52.2971 11.7873 52.2007C11.959 52.1186 12.1468 52.0761 12.3371 52.0761C12.5274 52.0761 12.7152 52.1186 12.8869 52.2007C13.0409 52.2666 13.0739 52.4206 12.9419 52.5086C12.7962 52.6171 12.6324 52.699 12.4581 52.7505C12.0182 52.8385 11.8203 53.0144 11.8203 53.3663C11.8288 53.5509 11.9016 53.7267 12.0261 53.8633C12.1506 53.9999 12.319 54.0886 12.5021 54.114C12.6698 54.1375 12.8406 54.1219 13.0013 54.0684C13.162 54.015 13.3081 53.9252 13.4284 53.806C13.5487 53.6868 13.6398 53.5414 13.6946 53.3812C13.7495 53.221 13.7666 53.0503 13.7447 52.8824C13.6371 51.979 13.3371 51.109 12.8649 50.3313C11.3096 51.0816 9.65979 51.618 7.96052 51.9257C8.04849 51.5519 8.09248 51.244 8.19145 50.9471C8.58732 49.7814 9.00518 48.6158 9.41205 47.4612C9.566 46.9993 9.555 46.9773 9.10415 46.8014L6.70692 45.8777L6.7949 46.0976L6.50899 46.2186C6.25852 46.3085 6.04916 46.4862 5.91975 46.7188C5.79033 46.9513 5.74964 47.2229 5.80522 47.4832C5.82607 47.5793 5.86567 47.6703 5.92174 47.751C5.97781 47.8318 6.04926 47.9007 6.13199 47.9538C6.21472 48.0069 6.30712 48.0432 6.40388 48.0606C6.50065 48.0779 6.59989 48.076 6.69593 48.055C6.80566 48.0264 6.90468 47.9665 6.98085 47.8825C7.05703 47.7985 7.10705 47.6941 7.12479 47.5821C7.20176 47.3182 7.31173 47.0653 7.4107 46.7904C7.55138 46.9101 7.65964 47.0633 7.72548 47.2359C7.79132 47.4085 7.81262 47.5949 7.78742 47.7779C7.76221 47.9609 7.69132 48.1346 7.58127 48.283C7.47123 48.4313 7.32558 48.5496 7.15778 48.6268C6.9516 48.7188 6.72714 48.7626 6.50148 48.7548C6.27583 48.747 6.05492 48.6879 5.85558 48.5818C5.65624 48.4758 5.48371 48.3257 5.35112 48.1429C5.21853 47.9602 5.12938 47.7496 5.09045 47.5272C5.05191 47.2269 5.08602 46.9217 5.18991 46.6374C5.2938 46.353 5.46443 46.0977 5.68748 45.893C5.91052 45.6883 6.17944 45.5401 6.47165 45.4609C6.76386 45.3817 7.07082 45.3738 7.36671 45.4378C7.92753 45.5918 8.46636 45.8117 9.01618 45.9987C9.14365 46.047 9.26845 46.102 9.39006 46.1636C9.92888 46.3945 9.91789 46.3835 10.2808 45.9217C10.6437 45.4598 10.8966 45.1519 11.2155 44.7561C10.9884 44.5927 10.7143 44.5078 10.4347 44.5141C8.93237 44.4223 7.49887 43.852 6.34404 42.8867C5.70117 42.3278 5.3058 41.537 5.2444 40.6874C5.18173 39.9196 5.35844 39.1513 5.75023 38.4881C6.31105 37.3884 6.84988 36.2888 7.31173 35.1892C7.35481 35.0718 7.36425 34.9448 7.33899 34.8224C7.31374 34.7 7.25478 34.5871 7.16878 34.4964C6.81689 33.9685 6.44301 33.3967 6.13511 32.8799C5.63115 32.0308 5.36172 31.0632 5.35436 30.0758C5.33754 29.8929 5.33754 29.7089 5.35436 29.526C5.4012 29.2698 5.53744 29.0386 5.73881 28.8735C5.94018 28.7083 6.19362 28.62 6.45401 28.6243C6.67349 28.5833 6.90037 28.6161 7.09927 28.7175C7.29818 28.819 7.45794 28.9834 7.55365 29.1851C8.00928 30.016 8.26175 30.943 8.29041 31.8902C8.35089 32.7124 8.31769 33.5388 8.19145 34.3534C8.16904 34.4678 8.1754 34.586 8.20995 34.6973C8.2445 34.8086 8.30615 34.9096 8.38938 34.9912C10.5001 37.1657 13.0805 38.8283 15.9329 39.8516C16.4278 40.0166 16.9226 40.1595 17.4285 40.2805C17.6147 40.3026 17.803 40.3026 17.9893 40.2805C17.8573 39.8736 17.7254 39.4888 17.6154 39.1039C17.6154 38.906 17.5494 38.708 17.5054 38.5101C17.3693 38.0015 17.0626 37.5551 16.6367 37.2455C15.8735 36.6643 15.3588 35.8157 15.1962 34.8703C15.0861 34.2705 15.0861 33.6556 15.1962 33.0558C15.4161 31.8022 15.669 30.5487 15.867 29.2841C15.9851 28.5011 15.8664 27.7008 15.5261 26.9858L15.2402 26.37L14.7233 27.3597C14.3573 27.9907 14.0763 28.6674 13.8876 29.372C13.7501 29.8909 13.7501 30.4367 13.8876 30.9555C14.007 31.3611 14.007 31.7925 13.8876 32.1981C13.8263 32.1619 13.7675 32.1214 13.7117 32.0772C13.3009 31.7063 13.0521 31.189 13.0189 30.6366C12.9582 29.8879 13.0711 29.1353 13.3488 28.4373C13.8216 27.3377 14.2945 26.238 14.7563 25.1384C14.7886 25.0889 14.818 25.0374 14.8443 24.9844L15.1632 25.2044C15.6083 25.5543 15.9689 25.9999 16.2182 26.5082C16.4676 27.0164 16.5994 27.5743 16.6037 28.1404C16.6053 29.1163 16.5021 30.0896 16.2958 31.0435C16.1419 32.0002 15.9439 32.9569 15.856 33.9246C15.8001 34.42 15.8717 34.9216 16.0642 35.3816C16.2567 35.8415 16.5635 36.2447 16.9556 36.5527L17.4834 36.8276ZM22.1679 52.8934L24.3672 51.9367L24.1913 51.7388C23.4655 50.8591 22.7068 50.0124 21.992 49.0997C20.3057 46.9074 19.1909 44.3302 18.748 41.6001C18.7387 41.4727 18.6853 41.3525 18.597 41.2602C18.5087 41.1679 18.391 41.1092 18.2642 41.0942C17.4633 40.9439 16.6705 40.753 15.889 40.5224C13.2545 39.623 10.8382 38.1807 8.79625 36.2888L7.90554 35.508L6.95984 37.7073C7.28586 37.6907 7.61251 37.6907 7.93853 37.7073C8.46108 37.7149 8.96387 37.9083 9.3568 38.2528C9.74972 38.5974 10.0071 39.0706 10.0828 39.5877C10.1416 39.811 10.1547 40.0438 10.1214 40.2722C10.088 40.5007 10.0089 40.72 9.88881 40.9172C9.76868 41.1143 9.60999 41.2852 9.42226 41.4195C9.23452 41.5539 9.0216 41.6489 8.79625 41.699C8.61369 41.7545 8.41983 41.7616 8.23373 41.7195C8.04762 41.6774 7.87567 41.5876 7.73479 41.4589C7.5939 41.3302 7.48892 41.1671 7.43017 40.9855C7.37142 40.804 7.36092 40.6103 7.3997 40.4235C7.66586 40.4657 7.9141 40.5841 8.11447 40.7644C8.17078 40.8483 8.24689 40.917 8.33606 40.9646C8.42524 41.0121 8.52474 41.037 8.6258 41.037C8.72687 41.037 8.82637 41.0121 8.91555 40.9646C9.00472 40.917 9.08083 40.8483 9.13714 40.7644C9.30599 40.4738 9.38078 40.1382 9.35125 39.8035C9.32171 39.4688 9.1893 39.1514 8.97219 38.895C8.75971 38.7026 8.50608 38.5614 8.23067 38.4821C7.95527 38.4028 7.66538 38.3875 7.38315 38.4374C7.10093 38.4872 6.83384 38.601 6.60229 38.7698C6.37073 38.9387 6.18085 39.1583 6.04714 39.4118C5.83628 39.9132 5.78758 40.468 5.90787 40.9984C6.02816 41.5289 6.31141 42.0084 6.71792 42.3698C7.82745 43.3485 9.25223 43.895 10.7316 43.9093C11.5784 43.9093 12.4251 43.9093 13.2718 43.9093C13.5641 43.8762 13.8592 43.8762 14.1515 43.9093C14.752 44.0346 15.2821 44.3842 15.6336 44.8869C15.985 45.3896 16.1314 46.0075 16.0429 46.6145C16.0429 47.6481 16.0429 48.6928 16.0429 49.7265C16.1214 50.9403 16.5878 52.0968 17.3735 53.0254C17.7158 53.4808 18.1975 53.8121 18.7453 53.9689C19.293 54.1257 19.877 54.0994 20.4085 53.8941C20.7689 53.746 21.0712 53.4844 21.2696 53.1491C21.468 52.8138 21.5517 52.4229 21.5081 52.0357C21.4941 51.6662 21.3511 51.3132 21.1041 51.0381C20.857 50.7629 20.5215 50.5829 20.1556 50.5292C19.9546 50.4839 19.745 50.496 19.5506 50.564C19.3562 50.6321 19.1848 50.7534 19.0559 50.9141C18.9927 50.9775 18.9455 51.0551 18.9183 51.1404C18.8912 51.2258 18.8849 51.3164 18.9 51.4047C18.9151 51.493 18.9511 51.5764 19.005 51.6479C19.0589 51.7194 19.1292 51.777 19.2099 51.8158C19.2869 51.8818 19.4078 51.9477 19.4188 52.0357C19.4458 52.17 19.4458 52.3083 19.4188 52.4426C19.4188 52.4426 19.2869 52.5196 19.2209 52.5086C18.988 52.4763 18.7715 52.3703 18.6033 52.2061C18.4351 52.0418 18.3239 51.8279 18.2862 51.5959C18.2333 51.319 18.2648 51.0326 18.3765 50.7738C18.4883 50.515 18.6752 50.2957 18.913 50.1443C19.1749 49.9776 19.4707 49.8714 19.7789 49.8333C20.087 49.7953 20.3998 49.8264 20.6944 49.9244C21.218 50.1033 21.6628 50.4593 21.9519 50.9311C22.241 51.4029 22.3563 51.9608 22.2779 52.5086C22.1899 52.5965 22.1789 52.7835 22.1679 52.8934ZM13.1948 49.2976C13.4477 49.1326 13.6787 48.9787 13.9096 48.8028C14.2793 48.5477 14.5949 48.2221 14.8383 47.8447C15.0818 47.4672 15.2482 47.0454 15.3281 46.6035C15.4202 46.1693 15.3381 45.7163 15.0996 45.342C14.861 44.9677 14.485 44.702 14.0526 44.6021C13.5795 44.5117 13.0903 44.5614 12.645 44.7451C11.9036 45.0673 11.2782 45.6083 10.8526 46.2956L10.5667 46.7354C10.9804 46.7632 11.3955 46.7632 11.8093 46.7354C12.4641 46.6188 13.0735 46.3218 13.5687 45.8777C13.6347 45.8777 13.7556 45.7897 13.8106 45.8777C13.9566 45.9701 14.0929 46.0769 14.2175 46.1966C13.8076 46.5913 13.5002 47.08 13.322 47.6204C13.1438 48.1608 13.1001 48.7365 13.1948 49.2976ZM25.9507 44.899C25.4398 44.2812 24.7765 43.8074 24.0263 43.5245C22.5528 42.9636 21.0903 42.3588 19.6277 41.776H19.4848L20.0016 43.9753L20.5515 43.7664C20.6044 43.745 20.6635 43.745 20.7164 43.7664C21.0442 43.9227 21.354 44.1145 21.6401 44.3382C22.0975 44.7671 22.6582 45.0702 23.2676 45.2179C23.8614 45.3169 24.4552 45.3719 25.049 45.4158C25.8297 45.4268 25.6098 45.4928 25.9727 44.855L25.9507 44.899ZM8.87322 51.112H9.04917L10.7866 50.4742L12.0952 49.9244C12.2139 49.8955 12.3173 49.8228 12.3846 49.7208C12.452 49.6188 12.4782 49.4951 12.4581 49.3746C12.4362 49.1221 12.4362 48.8683 12.4581 48.6158C12.4581 48.2089 12.546 47.8131 12.59 47.3842H12.3371C11.7763 47.3842 11.2375 47.3842 10.6437 47.3842C10.5055 47.3688 10.3661 47.4007 10.2483 47.4745C10.1305 47.5484 10.0412 47.66 9.99486 47.7911C9.51487 48.8001 9.14615 49.8583 8.89522 50.9471C8.88276 51.0012 8.87539 51.0565 8.87322 51.112ZM26.0827 52.3876L26.4895 52.6625C27.3276 53.2699 28.2884 53.6865 29.3046 53.8831C29.4949 53.9298 29.6935 53.9313 29.8845 53.8874C30.0755 53.8434 30.2535 53.7554 30.4043 53.6302C30.4542 53.5946 30.4949 53.5476 30.523 53.4931C30.5511 53.4386 30.5657 53.3781 30.5657 53.3168C30.5657 53.2555 30.5511 53.195 30.523 53.1405C30.4949 53.086 30.4542 53.039 30.4043 53.0034C30.2687 52.8923 30.1166 52.8033 29.9534 52.7395C29.0299 52.3671 28.031 52.2201 27.0394 52.3106C26.7315 52.3216 26.3906 52.3546 26.0827 52.3876ZM7.52066 33.8366C7.52066 33.2978 7.52066 32.8029 7.58664 32.3081C7.62338 31.5003 7.47284 30.6949 7.14678 29.9548C7.05603 29.7396 6.88707 29.5667 6.67394 29.471C6.33305 29.3171 6.08013 29.471 6.03614 29.8119C5.99776 30.0707 5.99776 30.3338 6.03614 30.5926C6.25471 31.7802 6.76482 32.8949 7.52066 33.8366ZM9.555 7.78601C8.79159 6.23977 8.25459 4.59175 7.96052 2.89259L9.22511 3.1675C10.4054 3.456 11.5518 3.86884 12.645 4.3991C12.8209 4.48707 12.8869 4.3991 12.9639 4.27814C13.1728 3.7833 13.4148 3.31045 13.6127 2.81561C13.7242 2.56628 13.784 2.29695 13.7886 2.02387C13.776 1.68169 13.6437 1.35481 13.4148 1.10017C13.3004 0.982101 13.161 0.891179 13.0069 0.834088C12.8527 0.776998 12.6877 0.755191 12.524 0.770272C12.3267 0.778838 12.1404 0.864052 12.0049 1.0078C11.8694 1.15154 11.7952 1.34248 11.7983 1.54002C11.7952 1.66763 11.8415 1.7915 11.9275 1.88577C12.0136 1.98003 12.1328 2.03739 12.2601 2.04586C12.5598 2.09191 12.833 2.24411 13.0299 2.47472C12.8939 2.61043 12.7248 2.70817 12.5394 2.75819C12.3539 2.80821 12.1586 2.80879 11.9728 2.75985C11.7871 2.71091 11.6174 2.61416 11.4806 2.47925C11.3439 2.34433 11.2449 2.17596 11.1935 1.99088C11.1001 1.73967 11.0815 1.46677 11.1401 1.20523C11.1986 0.943689 11.3318 0.704746 11.5234 0.517354C11.7155 0.29743 11.9679 0.138584 12.2493 0.060419C12.5307 -0.0177463 12.8288 -0.0118098 13.1069 0.0774959C13.5513 0.203903 13.9327 0.491336 14.1767 0.883725C14.4206 1.27612 14.5097 1.74532 14.4264 2.19981C14.3166 2.93622 14.0862 3.64953 13.7447 4.31113C13.6237 4.55305 13.5247 4.80597 13.4477 4.99291C13.6797 5.11024 13.9037 5.24247 14.1185 5.38878C14.5034 5.68568 14.8773 6.01558 15.2182 6.32348C15.2732 5.82864 15.3061 5.3228 15.3831 4.82796C15.5534 3.43067 16.166 2.12444 17.1316 1.10017C17.6325 0.595158 18.2832 0.265569 18.9866 0.160541C19.6901 0.0555124 20.4087 0.18067 21.0353 0.517354C22.1349 1.06718 23.3226 1.617 24.4552 2.13383C24.6107 2.22445 24.7917 2.26168 24.9704 2.23984C25.1491 2.218 25.3157 2.13829 25.4449 2.01287C26.3696 1.26881 27.4414 0.729133 28.5899 0.429382C29.1316 0.289957 29.6934 0.245313 30.2503 0.297425C30.4907 0.323555 30.7158 0.428214 30.8908 0.595198C31.0657 0.762182 31.1807 0.982178 31.218 1.22113C31.2843 1.46301 31.2659 1.7203 31.1659 1.95031C31.0659 2.18032 30.8903 2.36924 30.6682 2.48572C29.5303 3.04823 28.26 3.28785 26.9954 3.17849C26.4455 3.17849 25.8957 3.17849 25.3459 3.17849C25.2033 3.19531 25.071 3.26143 24.972 3.36543C22.4392 5.77661 20.6204 8.83962 19.7157 12.2176C19.5948 12.7234 19.5618 13.2512 19.4848 13.7681C19.4848 13.845 19.4848 13.922 19.4848 13.988C19.488 14.0423 19.4797 14.0966 19.4603 14.1474C19.441 14.1982 19.4112 14.2444 19.3727 14.2828C19.3343 14.3212 19.2882 14.3511 19.2373 14.3704C19.1865 14.3897 19.1322 14.3981 19.0779 14.3949C17.8584 14.4789 16.658 14.742 15.5151 15.1756C13.8927 15.7828 12.3695 16.6278 10.9955 17.6828C10.0938 18.3756 9.2471 19.1343 8.38938 19.8821C8.25924 20.0188 8.18474 20.1992 8.18045 20.3879C8.18045 20.8058 8.26842 21.2237 8.29041 21.6415C8.39967 22.8271 8.22632 24.0218 7.78458 25.1274C7.70729 25.3113 7.60757 25.4849 7.48767 25.6442C7.34431 25.862 7.13384 26.0271 6.88819 26.1145C6.64253 26.2019 6.37509 26.2067 6.1264 26.1284C5.87772 26.0501 5.66136 25.8928 5.51013 25.6804C5.3589 25.468 5.28105 25.2121 5.28838 24.9515C5.27501 23.8144 5.57561 22.6957 6.1571 21.7185C6.43201 21.2347 6.76191 20.7728 7.0808 20.322C7.18835 20.1978 7.2546 20.0432 7.27036 19.8796C7.28612 19.7161 7.25062 19.5517 7.16878 19.4093C6.60796 18.3096 6.06913 17.1 5.53031 15.9454C5.16788 15.2332 5.07625 14.4138 5.27243 13.6392C5.46861 12.8646 5.93926 12.1875 6.59696 11.7337C7.64715 10.9147 8.91055 10.4147 10.2368 10.2932C10.5777 10.2932 10.9296 10.2932 11.3364 10.2272L10.9955 9.77636C10.6986 9.40248 10.4017 9.0396 10.1158 8.67672C10.0783 8.60629 10.0149 8.55317 9.93904 8.52856C9.86314 8.50394 9.78065 8.50975 9.70895 8.54476C9.20312 8.7317 8.70828 8.94063 8.20244 9.10558C7.84889 9.24525 7.47961 9.34126 7.1028 9.39149C6.7743 9.43603 6.43994 9.38505 6.13964 9.24465C5.83934 9.10425 5.58581 8.88037 5.40934 8.59974C5.2142 8.34734 5.09589 8.04406 5.06859 7.72619C5.04129 7.40831 5.10614 7.0893 5.25539 6.80732C5.40354 6.53762 5.63357 6.32198 5.91226 6.19153C6.19095 6.06108 6.50389 6.02257 6.80589 6.08156C7.01595 6.11916 7.21216 6.21216 7.37425 6.35096C7.53634 6.48975 7.65844 6.6693 7.72794 6.87106C7.79743 7.07282 7.8118 7.28948 7.76956 7.49865C7.72733 7.70783 7.63001 7.90193 7.48767 8.06092C7.33889 7.84175 7.21706 7.60545 7.12479 7.35714C7.02582 6.95028 6.92685 6.79633 6.60796 6.77433C6.43203 6.75348 6.25436 6.79484 6.10574 6.89125C5.95711 6.98765 5.8469 7.13302 5.79422 7.30216C5.75142 7.46755 5.74775 7.64064 5.78349 7.80769C5.81923 7.97474 5.8934 8.13118 6.00012 8.26458C6.10684 8.39797 6.24318 8.50468 6.39831 8.57621C6.55345 8.64775 6.72312 8.68217 6.89386 8.67672C7.65993 8.6402 8.40954 8.44156 9.09315 8.09391C9.253 8.00041 9.40722 7.89759 9.555 7.78601ZM19.4518 2.38675C19.4223 2.64805 19.3062 2.89195 19.1219 3.07953C19.0445 3.13795 18.9817 3.21355 18.9384 3.30037C18.8952 3.38719 18.8727 3.48287 18.8727 3.57986C18.8727 3.67686 18.8952 3.77254 18.9384 3.85936C18.9817 3.94618 19.0445 4.02178 19.1219 4.0802C19.4055 4.27198 19.7456 4.36223 20.087 4.33628C20.4284 4.31032 20.751 4.1697 21.0023 3.93725C21.1902 3.73982 21.3324 3.50348 21.4187 3.24498C21.5051 2.98647 21.5336 2.71214 21.5021 2.44141C21.4706 2.17069 21.38 1.9102 21.2366 1.67841C21.0932 1.44663 20.9006 1.24921 20.6724 1.10017C20.2287 0.864226 19.7246 0.766422 19.2249 0.819332C18.7252 0.872243 18.2527 1.07345 17.8683 1.39707C17.2685 1.91577 16.7979 2.56713 16.4938 3.29945C16.1852 4.13244 16.0432 5.01792 16.0759 5.90561C16.0209 6.70835 16.0759 7.52209 16.0759 8.32483C16.0965 8.92991 15.9357 9.52733 15.614 10.0403C15.3595 10.3761 15.0248 10.6426 14.6406 10.8155C14.2563 10.9884 13.8349 11.0622 13.4148 11.03C12.3921 11.03 11.3694 11.03 10.3467 11.03C9.13888 11.0626 7.97703 11.5002 7.04781 12.2726C6.65273 12.5447 6.3408 12.921 6.14668 13.3597C5.95256 13.7984 5.88385 14.2823 5.94817 14.7578C5.96955 15.0943 6.0832 15.4185 6.27664 15.6947C6.47008 15.9709 6.73586 16.1886 7.04481 16.3237C7.35377 16.4589 7.69399 16.5064 8.02815 16.461C8.36231 16.4156 8.67752 16.279 8.9392 16.0663C9.18221 15.8492 9.3464 15.5577 9.40609 15.2374C9.46578 14.917 9.4176 14.5859 9.2691 14.2959C9.21889 14.1816 9.13918 14.0827 9.03814 14.0094C8.93711 13.9361 8.81839 13.8909 8.69415 13.8786C8.56992 13.8663 8.44465 13.8873 8.33119 13.9393C8.21773 13.9914 8.12016 14.0727 8.04849 14.1749C7.96531 14.2587 7.86573 14.3244 7.75599 14.368C7.64624 14.4115 7.52869 14.4319 7.4107 14.4279C7.37261 14.1442 7.44665 13.8568 7.61708 13.6268C7.78751 13.3968 8.0409 13.2424 8.3234 13.1963C8.51569 13.1605 8.71341 13.1666 8.90314 13.214C9.09288 13.2615 9.27019 13.3492 9.42305 13.4712C9.71306 13.7174 9.92257 14.045 10.0245 14.4116C10.1264 14.7782 10.1161 15.1669 9.99486 15.5275C9.8722 15.9928 9.60035 16.405 9.22098 16.7009C8.84161 16.9968 8.37566 17.1602 7.89454 17.166H7.00383L7.93853 19.3653L8.08148 19.2553C9.24312 18.2105 10.4819 17.2547 11.7873 16.3962C13.6764 15.1048 15.8284 14.2485 18.0882 13.889C18.3051 13.8719 18.5157 13.808 18.7056 13.7017C18.8954 13.5953 19.0599 13.4492 19.1879 13.2732H18.891C18.891 13.1523 18.891 13.0643 18.891 12.9653C19.0502 12.0113 19.3158 11.0781 19.6827 10.1832C20.676 7.63653 22.1424 5.30083 24.0043 3.29945C24.1143 3.17849 24.2133 3.02454 24.3452 2.8596L22.1459 1.9249C22.1459 2.32077 22.1459 2.66166 22.1459 3.02454C22.0982 3.60246 21.8242 4.13814 21.3835 4.51501C20.9427 4.89189 20.371 5.07945 19.7927 5.03689C19.5756 5.04076 19.3602 4.99901 19.1603 4.91434C18.9604 4.82967 18.7805 4.70397 18.6323 4.54537C18.4841 4.38677 18.3708 4.19881 18.2998 3.99366C18.2288 3.78851 18.2017 3.57073 18.2202 3.35444C18.2365 3.20961 18.2815 3.06948 18.3524 2.94218C18.4234 2.81488 18.5189 2.70296 18.6335 2.61292C18.7481 2.52288 18.8795 2.45651 19.02 2.41769C19.1604 2.37886 19.3072 2.36834 19.4518 2.38675ZM13.1948 5.59771C13.0532 6.1377 13.0918 6.70916 13.3048 7.22519C13.5331 7.6832 13.794 8.1242 14.0855 8.54476C14.1735 8.68771 14.2065 8.77569 14.0855 8.88565C14.0402 8.91632 13.9994 8.95336 13.9646 8.99562C13.8656 9.13857 13.7666 9.13857 13.6237 8.99562C13.4035 8.81107 13.1681 8.64553 12.9199 8.50078C12.5761 8.28572 12.193 8.14098 11.7928 8.07491C11.3927 8.00885 10.9834 8.02278 10.5887 8.1159C10.7866 8.39081 10.9626 8.65473 11.1495 8.89665C11.6657 9.59915 12.4272 10.0819 13.2828 10.2492C13.5369 10.3118 13.8021 10.3149 14.0577 10.2585C14.3132 10.202 14.5524 10.0875 14.7565 9.92374C14.9607 9.75998 15.1244 9.55139 15.235 9.31416C15.3456 9.07693 15.4 8.81742 15.3941 8.55576C15.3575 7.78364 15.0454 7.05021 14.5144 6.48843C14.1624 6.07858 13.7066 5.77094 13.1948 5.59771ZM8.88422 3.7723C8.88422 3.84928 8.88422 3.87127 8.88422 3.89326C9.14826 5.0345 9.54308 6.14146 10.0608 7.1922C10.0957 7.28166 10.1583 7.35763 10.2394 7.40906C10.3205 7.46048 10.4159 7.48467 10.5117 7.47811H12.3041C12.513 7.47811 12.546 7.40113 12.546 7.22519C12.546 6.64238 12.546 6.05956 12.546 5.46576C12.5568 5.3618 12.5292 5.2575 12.4684 5.17245C12.4077 5.08741 12.318 5.02747 12.2161 5.0039L10.2258 4.26714L8.88422 3.7723ZM7.56465 20.8938C7.56465 20.8938 7.48767 20.9598 7.47668 20.9817C6.89896 21.7598 6.45657 22.6297 6.1681 23.5549C6.00771 24.0171 5.95506 24.5098 6.01415 24.9954C6.02161 25.0915 6.05826 25.1831 6.11918 25.2577C6.18011 25.3324 6.2624 25.3867 6.35504 25.4133C6.453 25.4638 6.56525 25.4793 6.67323 25.4573C6.7812 25.4353 6.87844 25.3771 6.94885 25.2924C7.04652 25.1558 7.12772 25.0081 7.19077 24.8525C7.46981 24.1718 7.6154 23.4438 7.61963 22.7082C7.63063 22.0814 7.58664 21.5096 7.56465 20.8938ZM25.8737 2.50771H27.0723C27.7288 2.55599 28.3888 2.50408 29.0297 2.35376C29.4146 2.2438 29.8105 2.12284 30.1843 1.97988C30.2819 1.95505 30.3693 1.90039 30.4344 1.82351C30.4994 1.74664 30.5389 1.65138 30.5472 1.55102C30.5472 1.33109 30.4043 1.23212 30.2503 1.12216C30.0912 1.01376 29.9092 0.943492 29.7185 0.916794C29.5278 0.890095 29.3335 0.907688 29.1507 0.968208C27.9694 1.26554 26.8567 1.78829 25.8737 2.50771ZM53.6398 10.2052C54.2995 10.2822 54.9703 10.3372 55.6301 10.4581C56.8369 10.6713 57.9517 11.2421 58.8301 12.0966C59.3396 12.6276 59.6674 13.3066 59.7662 14.0359C59.865 14.7651 59.7297 15.5069 59.3799 16.1543C58.7751 17.2539 58.2803 18.4746 57.7194 19.6402C57.5985 19.8931 57.7194 20.091 57.8734 20.289C58.2253 20.8278 58.6102 21.3886 58.973 21.9164C59.504 22.8099 59.7709 23.8355 59.7428 24.8745C59.7428 25.5673 59.4459 25.9741 58.8631 26.1171C58.6177 26.1965 58.3522 26.1872 58.113 26.0907C57.8738 25.9942 57.6761 25.8167 57.5545 25.5893C57.0529 24.7633 56.7832 23.8174 56.7738 22.8511C56.7738 22.0924 56.7738 21.3226 56.8727 20.5529C56.8845 20.4069 56.8617 20.2601 56.8063 20.1245C56.7509 19.9889 56.6644 19.8682 56.5538 19.7721C54.8661 18.1 52.9112 16.7211 50.7697 15.6925C49.6724 15.1846 48.5163 14.8152 47.3278 14.5928C46.9209 14.5158 46.5031 14.4938 46.0962 14.4279C45.6893 14.3619 45.6563 14.2519 45.6124 13.889C45.4183 12.0996 44.8648 10.3678 43.9849 8.79768C43.0117 6.95055 41.7908 5.245 40.3561 3.72832C40.277 3.6492 40.2035 3.56469 40.1361 3.4754C40.0282 3.34016 39.8841 3.23838 39.7205 3.18192C39.557 3.12546 39.3808 3.11664 39.2124 3.1565C37.8867 3.3977 36.5228 3.32235 35.2317 2.93657C34.8739 2.8225 34.5334 2.65969 34.22 2.45273C34.0253 2.33026 33.8739 2.1498 33.7871 1.93675C33.7003 1.72371 33.6825 1.4888 33.7362 1.26511C33.7671 1.0353 33.87 0.821149 34.0299 0.653276C34.1899 0.485403 34.3988 0.372398 34.6269 0.330414C34.9923 0.289742 35.3611 0.289742 35.7265 0.330414C36.7297 0.48997 37.6864 0.865136 38.5306 1.43006C38.8825 1.628 39.2344 1.83693 39.6303 2.05686C39.7787 2.14385 39.9476 2.1897 40.1196 2.1897C40.2916 2.1897 40.4606 2.14385 40.609 2.05686C41.7086 1.50703 42.8742 0.957212 44.0069 0.429382C44.7639 0.0321032 45.6455 -0.0557963 46.466 0.184207C47.2866 0.424211 47.9819 0.973373 48.4055 1.71597C49.0964 2.7132 49.517 3.87257 49.6261 5.08088C49.6261 5.42177 49.703 5.76266 49.747 6.18052L49.901 6.11455L51.1986 5.09188C51.2548 5.06278 51.304 5.02189 51.343 4.97199C51.382 4.9221 51.4097 4.86439 51.4243 4.80279C51.439 4.7412 51.4401 4.67717 51.4277 4.61509C51.4153 4.55301 51.3897 4.49434 51.3525 4.44309C51.1546 3.97024 50.9346 3.50839 50.7807 3.02454C50.5724 2.4659 50.5267 1.85969 50.6487 1.27611C50.7863 0.842659 51.0825 0.477184 51.4781 0.25288C51.8737 0.0285761 52.3395 -0.037995 52.782 0.0664995C52.9752 0.121047 53.155 0.214753 53.3103 0.341786C53.4657 0.468819 53.5932 0.626461 53.685 0.804903C53.7768 0.983346 53.8309 1.17877 53.8439 1.37902C53.857 1.57927 53.8286 1.78005 53.7607 1.96888C53.685 2.14185 53.5695 2.29449 53.4236 2.41435C53.2778 2.53422 53.1056 2.61793 52.9213 2.65866C52.7369 2.69939 52.5455 2.69599 52.3627 2.64874C52.1799 2.60149 52.0109 2.51172 51.8693 2.38675C52.0925 2.25091 52.3282 2.13676 52.5731 2.04586C52.991 1.94689 53.1669 1.80394 53.1559 1.44106C53.1492 1.2599 53.0779 1.08712 52.9549 0.953989C52.8318 0.820861 52.6652 0.736185 52.4851 0.71529C52.3267 0.689597 52.1646 0.698895 52.0101 0.74253C51.8557 0.786164 51.7127 0.863078 51.5911 0.967871C51.4695 1.07266 51.3724 1.2028 51.3065 1.34913C51.2406 1.49546 51.2075 1.65445 51.2095 1.81493C51.177 1.99677 51.177 2.18293 51.2095 2.36476C51.4405 3.06853 51.6824 3.76131 51.9243 4.45408C51.9227 4.48705 51.9227 4.52008 51.9243 4.55305C53.4953 3.78881 55.1641 3.24486 56.8837 2.93657C56.8837 3.17849 56.8067 3.40942 56.7627 3.61835C56.463 4.97775 56.0092 6.29852 55.4102 7.55508C55.3112 7.75302 55.3552 7.84099 55.5312 7.92896C56.2016 8.34837 56.9495 8.62883 57.7304 8.75369C57.9398 8.77364 58.1508 8.73964 58.3433 8.65495C58.5358 8.57025 58.7034 8.43767 58.8301 8.26985C58.9659 8.12494 59.0544 7.94214 59.0839 7.74573C59.1134 7.54931 59.0824 7.34858 58.995 7.17021C58.9233 7.02151 58.8051 6.90027 58.6582 6.82486C58.5114 6.74945 58.3439 6.72399 58.1813 6.75234C57.9284 6.75234 57.8074 6.93928 57.7084 7.31316C57.6255 7.56133 57.5263 7.80377 57.4115 8.03892C57.2663 7.89968 57.1596 7.72523 57.1018 7.53253C57.044 7.33984 57.0371 7.13546 57.0816 6.93928C57.1202 6.77158 57.1935 6.61383 57.2968 6.47619C57.4001 6.33855 57.531 6.22408 57.6813 6.14016C57.8315 6.05624 57.9976 6.00473 58.169 5.98895C58.3404 5.97318 58.5131 5.99349 58.6761 6.04857C58.9039 6.11484 59.1133 6.23286 59.288 6.39341C59.4626 6.55397 59.5978 6.75271 59.683 6.97413C59.7681 7.19555 59.801 7.43366 59.7789 7.66987C59.7569 7.90608 59.6805 8.13399 59.5558 8.33583C59.3409 8.74962 58.9806 9.06942 58.5443 9.23382C58.1079 9.39822 57.6262 9.39563 57.1916 9.22654C56.4878 9.00661 55.8171 8.7207 55.1353 8.44579C54.9703 8.37981 54.8934 8.39081 54.7834 8.53376C54.3985 9.0396 53.9807 9.51245 53.5848 10.0073L53.6398 10.2052ZM42.8083 1.95789L40.609 2.91458C40.6374 2.9584 40.6706 2.99896 40.7079 3.03554C41.3017 3.73931 41.9066 4.4101 42.4784 5.12487C43.8537 6.80843 44.9051 8.73231 45.5794 10.799C45.8433 11.6678 45.9972 12.5695 46.1952 13.4602C46.1952 13.6141 46.2831 13.7131 46.4591 13.7351C47.4688 13.8497 48.4616 14.0822 49.4171 14.4279C51.814 15.3305 54.0271 16.6606 55.949 18.3536C56.3119 18.6505 56.6528 18.9694 57.0487 19.2993L57.9944 17.1H57.1806C56.6861 17.0953 56.206 16.9328 55.8104 16.636C55.4147 16.3393 55.1243 15.924 54.9813 15.4505C54.8467 15.0494 54.8505 14.6148 54.9921 14.2161C55.1336 13.8174 55.4047 13.4777 55.7621 13.2512C55.9199 13.1473 56.1001 13.0822 56.2879 13.0612C56.4758 13.0402 56.6659 13.0639 56.8428 13.1303C57.0197 13.1968 57.1784 13.3042 57.3059 13.4437C57.4334 13.5832 57.5261 13.7509 57.5765 13.933C57.5765 14.032 57.5765 14.1969 57.5765 14.2409C57.51 14.3004 57.4238 14.3333 57.3346 14.3333C57.2453 14.3333 57.1592 14.3004 57.0926 14.2409C57.0157 14.1639 56.9827 14.054 56.9057 13.988C56.8287 13.922 56.6198 13.7681 56.4878 13.7791C56.3326 13.7726 56.1794 13.8161 56.0507 13.9032C55.922 13.9903 55.8247 14.1164 55.7731 14.2629C55.6824 14.5506 55.6561 14.8547 55.6961 15.1536C55.7513 15.5257 55.9381 15.8657 56.2226 16.1119C56.5071 16.358 56.8704 16.494 57.2466 16.4952C57.5028 16.5049 57.7582 16.4608 57.9963 16.3658C58.2344 16.2708 58.45 16.1271 58.6292 15.9437C58.8084 15.7604 58.9473 15.5415 59.0368 15.3013C59.1263 15.061 59.1645 14.8047 59.149 14.5488C59.155 14.1395 59.0669 13.7343 58.8915 13.3644C58.7161 12.9945 58.4581 12.6698 58.1373 12.4155C57.0825 11.4906 55.7244 10.9857 54.3215 10.997C53.2219 10.997 52.1223 10.997 51.0996 10.942C50.7852 10.9286 50.4769 10.8511 50.1936 10.7143C49.9103 10.5775 49.6579 10.3842 49.4519 10.1464C49.246 9.90849 49.0908 9.63104 48.996 9.33105C48.9011 9.03105 48.8685 8.71484 48.9003 8.40181C48.9003 7.42312 48.9003 6.43344 48.9003 5.45476C48.8652 4.27106 48.4828 3.12382 47.8006 2.15582C47.5483 1.73417 47.188 1.38751 46.7569 1.15167C46.3258 0.915827 45.8396 0.799346 45.3484 0.814258C45.0109 0.807246 44.678 0.893978 44.3868 1.06481C44.0956 1.23565 43.8575 1.48389 43.699 1.78195C43.5279 2.08364 43.4492 2.42893 43.4727 2.77495C43.4961 3.12097 43.6207 3.45248 43.8309 3.72832C44.0368 4.02792 44.3477 4.23935 44.702 4.3208C45.0563 4.40225 45.4282 4.34778 45.7443 4.16817C45.8375 4.10982 45.9143 4.02875 45.9675 3.93258C46.0208 3.8364 46.0487 3.72828 46.0487 3.61835C46.0487 3.50843 46.0208 3.4003 45.9675 3.30413C45.9143 3.20795 45.8375 3.12689 45.7443 3.06853C45.6543 3.02102 45.5842 2.94307 45.5464 2.8486C45.4584 2.65066 45.5464 2.38675 45.7773 2.39775C46.0079 2.43573 46.2223 2.54027 46.3942 2.69852C46.5662 2.85677 46.6881 3.06183 46.745 3.28846C46.8121 3.65905 46.7358 4.0413 46.5317 4.35778C46.3275 4.67425 46.0107 4.90129 45.6453 4.99291C45.3098 5.10832 44.9514 5.14085 44.6006 5.08773C44.2498 5.0346 43.9171 4.8974 43.6308 4.68782C43.3445 4.47824 43.1132 4.20251 42.9566 3.88416C42.7999 3.56581 42.7226 3.21429 42.7313 2.8596L42.8083 1.95789ZM54.3875 8.09391C54.0026 8.09391 53.6618 8.09391 53.2879 8.09391C52.5849 8.19571 51.9273 8.50159 51.3965 8.97362C51.3415 8.97362 51.2315 9.09458 51.2095 9.07259C51.0667 8.97192 50.9406 8.84947 50.8357 8.70971C50.8357 8.70971 50.9126 8.53376 50.9676 8.45679L51.3415 7.92896C51.5733 7.57373 51.7316 7.1757 51.8072 6.75833C51.8827 6.34095 51.8739 5.91268 51.7814 5.49874C51.5284 5.67469 51.2865 5.83963 51.0666 6.01558C50.6926 6.26601 50.3739 6.59031 50.1299 6.96854C49.8859 7.34676 49.722 7.7709 49.6481 8.21487C49.5961 8.43085 49.5876 8.65504 49.6233 8.87431C49.6589 9.09359 49.7379 9.30356 49.8557 9.49195C49.9734 9.68034 50.1275 9.84337 50.309 9.9715C50.4905 10.0996 50.6957 10.1903 50.9126 10.2382C51.2743 10.3226 51.6506 10.3226 52.0123 10.2382C52.5429 10.0803 53.0315 9.80575 53.4425 9.43476C53.8534 9.06377 54.1763 8.60566 54.3875 8.09391ZM56.147 3.83828C56.092 3.83828 56.081 3.83828 56.059 3.83828C54.8876 4.10589 53.7511 4.5081 52.6721 5.03689C52.6012 5.07093 52.5429 5.12645 52.5054 5.19554C52.4679 5.26464 52.4531 5.3438 52.4631 5.42177C52.4631 6.02657 52.4631 6.63138 52.4631 7.22519C52.4631 7.43412 52.5291 7.46711 52.7161 7.46711H54.5305C54.6272 7.47845 54.7248 7.45472 54.8055 7.40024C54.8862 7.34576 54.9447 7.26414 54.9703 7.17021L55.96 4.54205C56.081 4.31113 56.081 4.06921 56.147 3.83828ZM38.8605 2.50771V2.40874L38.1678 1.95789C37.446 1.4675 36.6293 1.13409 35.7705 0.979205C35.4614 0.891184 35.1339 0.891184 34.8248 0.979205C34.7345 0.996888 34.6512 1.04057 34.5853 1.1049C34.5194 1.16923 34.4738 1.25139 34.4539 1.34131C34.4341 1.43123 34.4409 1.52499 34.4736 1.61108C34.5063 1.69717 34.5634 1.77184 34.6379 1.82593C34.7347 1.93295 34.8552 2.0158 34.9898 2.06785C35.5417 2.25128 36.1082 2.38739 36.6832 2.47472C37.4079 2.52425 38.1347 2.53526 38.8605 2.50771ZM57.4775 21.1027V21.7405C57.3616 22.7343 57.4706 23.7415 57.7964 24.6875C57.8763 24.9054 57.9956 25.1067 58.1483 25.2814C58.2034 25.3582 58.2807 25.4163 58.3698 25.4478C58.459 25.4793 58.5556 25.4827 58.6468 25.4576C58.7379 25.4324 58.8191 25.3798 58.8794 25.307C58.9397 25.2342 58.9762 25.1447 58.984 25.0504C59.028 24.7662 59.028 24.4769 58.984 24.1927C58.7785 23.0428 58.2569 21.9728 57.4775 21.1027ZM22.4428 16.8031C23.5826 16.3465 24.6467 15.7199 25.5988 14.9447C26.2696 14.3949 26.8964 13.845 27.5562 13.2402C28.0835 12.7892 28.7354 12.5092 29.4256 12.4375C30.4105 12.3658 31.3867 12.6638 32.1637 13.2732C33.5383 14.2629 34.8908 15.2966 36.2654 16.2863C38.8526 18.2194 41.5676 19.9756 44.3917 21.5426C44.5491 21.6245 44.6843 21.7433 44.7858 21.8889C44.8873 22.0344 44.952 22.2023 44.9746 22.3783C45.0295 22.7852 45.0515 23.203 45.0735 23.6209C45.0735 24.4126 45.1395 25.2044 45.1615 25.9961C45.1615 27.3487 45.2605 28.7122 45.3154 30.0648C45.3154 30.6476 45.3155 31.2304 45.4254 31.8132C45.5024 32.627 45.6014 33.4407 45.7003 34.2435C45.7003 34.6503 45.7993 35.0462 45.8543 35.4531C46.0767 35.4053 46.2719 35.2732 46.399 35.0846C46.5261 34.896 46.5752 34.6655 46.5361 34.4414C46.5361 33.9685 46.4371 33.4957 46.3931 33.0339C46.2831 32.0112 46.1402 30.9995 46.0852 29.9878C46.0082 28.5803 45.9862 27.1837 45.9862 25.7872C45.9862 24.1377 45.9862 22.4883 45.9862 20.8608C45.9868 20.2493 46.1256 19.6459 46.3922 19.0955C46.6587 18.5452 47.0463 18.0623 47.5257 17.6828C47.7923 17.4422 48.1097 17.2648 48.4543 17.1639C48.7989 17.063 49.1619 17.0411 49.5161 17.1C49.8348 17.1204 50.1453 17.21 50.4259 17.3625C50.7066 17.5151 50.9506 17.7269 51.1411 17.9833C51.3315 18.2397 51.4639 18.5345 51.5289 18.8472C51.5939 19.1599 51.59 19.4831 51.5174 19.7941C51.4246 20.4108 51.1119 20.9732 50.6369 21.3774C50.162 21.7816 49.5569 22.0004 48.9333 21.9934C48.8525 21.995 48.7722 21.98 48.6974 21.9495C48.6226 21.9189 48.5548 21.8735 48.4982 21.8158C48.4416 21.7582 48.3973 21.6896 48.3682 21.6142C48.339 21.5389 48.3255 21.4584 48.3285 21.3776C48.3003 21.0859 48.3392 20.7916 48.4421 20.5171C48.545 20.2427 48.7093 19.9954 48.9223 19.7941C49.1853 19.589 49.4691 19.4121 49.769 19.2663C49.857 19.2113 49.9999 19.2113 49.956 19.0464C49.9103 18.9224 49.8301 18.8141 49.7249 18.7342C49.6197 18.6544 49.4938 18.6062 49.3621 18.5955C49.1869 18.6108 49.0166 18.6616 48.8616 18.7448C48.7066 18.828 48.5701 18.9418 48.4604 19.0794C48.001 19.5957 47.6794 20.2199 47.5257 20.8938C47.4105 21.3708 47.4105 21.8683 47.5257 22.3453C47.5299 22.3916 47.5431 22.4366 47.5648 22.4777C47.5864 22.5189 47.6159 22.5553 47.6517 22.585C47.6875 22.6146 47.7288 22.6369 47.7732 22.6505C47.8177 22.6641 47.8644 22.6687 47.9106 22.6642C48.5484 22.6642 49.1862 22.5872 49.813 22.4883C50.385 22.4145 50.9226 22.1738 51.3587 21.7964C51.7948 21.419 52.1101 20.9214 52.2652 20.3659C52.47 19.8261 52.5136 19.2383 52.3906 18.6741C52.2676 18.1099 51.9834 17.5936 51.5724 17.188C51.261 16.8722 50.8891 16.6225 50.479 16.4538C50.0689 16.285 49.629 16.2007 49.1855 16.2058C48.7421 16.2109 48.3042 16.3054 47.8981 16.4836C47.492 16.6618 47.126 16.9201 46.822 17.243C46.1228 17.9531 45.619 18.8319 45.3594 19.7941C45.2495 20.168 45.1175 20.5419 44.9856 20.9488C40.7492 18.5613 36.705 15.848 32.8895 12.8334C33.6356 12.4653 34.4844 12.3606 35.2977 12.5365C35.9541 12.7703 36.551 13.1458 37.0461 13.6361C38.1458 14.4938 39.1684 15.3736 40.2681 16.1763C40.687 16.5101 41.1682 16.7569 41.6837 16.9023C42.1992 17.0477 42.7386 17.0887 43.2701 17.023C43.7096 16.9665 44.1348 16.8286 44.5237 16.6162C44.5237 16.5502 44.4577 16.4952 44.4137 16.4402L42.7313 14.1529C42.1217 13.2176 41.2329 12.498 40.1911 12.0966C39.8391 11.9693 39.4593 11.9389 39.0915 12.0086C38.9658 12.0243 38.841 12.0464 38.7176 12.0746V12.1626C39.1464 12.3715 39.5533 12.6024 39.9822 12.7674C40.6394 12.9934 41.2164 13.4061 41.6426 13.955C42.0165 14.4718 42.3244 15.0547 42.6433 15.5825C42.7423 15.7364 42.8083 15.9124 42.9182 16.1213C42.258 16.1371 41.6054 15.9777 41.0268 15.6595C39.7534 14.7975 38.5376 13.8535 37.387 12.8334C36.783 12.2511 36.0223 11.8576 35.198 11.7014C34.3737 11.5451 33.5217 11.6328 32.7465 11.9537C32.2862 12.1296 31.7772 12.1296 31.317 11.9537C30.475 11.6293 29.5536 11.5717 28.6778 11.7887C27.903 12.0541 27.1916 12.4772 26.5885 13.0313C25.4229 13.944 24.2463 14.8457 23.0696 15.7474C22.6346 15.9927 22.157 16.1531 21.6621 16.2203C21.5882 16.0865 21.5256 15.9467 21.4752 15.8024C21.4591 15.766 21.4508 15.7267 21.4508 15.687C21.4508 15.6472 21.4591 15.6079 21.4752 15.5715C21.7721 15.0986 22.069 14.6148 22.3989 14.1639C22.9155 13.4127 23.7043 12.8921 24.5981 12.7124C24.9317 12.6054 25.2288 12.4074 25.4559 12.1406C25.3538 12.0926 25.2469 12.0557 25.137 12.0306C24.6822 11.9233 24.2068 11.9412 23.7615 12.0826C23.3161 12.2239 22.9174 12.4834 22.6078 12.8334C21.849 13.6911 21.1563 14.6038 20.4085 15.4945C20.1226 15.8464 19.8587 16.1983 19.5508 16.5942C19.9868 16.8424 20.4727 16.99 20.9731 17.0261C21.4735 17.0623 21.9757 16.9861 22.4428 16.8031ZM32.2187 22.8511C31.3147 22.8575 30.4212 23.0444 29.5905 23.401C28.4314 23.8967 27.4343 24.7071 26.712 25.7403C25.9896 26.7735 25.571 27.9883 25.5035 29.2472C25.436 30.5061 25.7223 31.7587 26.3299 32.8632C26.9376 33.9678 27.8423 34.8802 28.9417 35.4971C30.3053 36.2008 33.6592 36.5967 34.0331 36.0359H33.9011C33.3116 36.0743 32.7202 36.0743 32.1307 36.0359C31.2764 35.9497 30.4548 35.6615 29.7339 35.1949C29.013 34.7283 28.4136 34.0969 27.9851 33.3527C27.4207 32.4101 27.0528 31.363 26.9035 30.2745C26.7543 29.186 26.8266 28.0786 27.1163 27.0188C27.3245 25.9514 27.8793 24.9825 28.6945 24.2627C29.5098 23.5429 30.5399 23.1124 31.6249 23.0381L32.2297 22.9611L32.2187 22.8511ZM32.8455 22.9501C33.0434 22.9501 33.2414 22.9501 33.4393 23.0381C34.3711 23.2005 35.2453 23.6006 35.9774 24.1997C36.7094 24.7988 37.2744 25.5766 37.6179 26.458C38.3575 28.255 38.4812 30.2464 37.9698 32.1211C37.7965 32.9615 37.4072 33.7421 36.8403 34.3862C36.2734 35.0302 35.5484 35.5154 34.7369 35.794C34.6877 35.8208 34.64 35.8502 34.5939 35.8819V35.9479L34.9018 35.8709C36.3098 35.4207 37.5257 34.5106 38.3547 33.2868C39.3796 31.7602 39.7737 29.8962 39.4543 28.0854C39.2631 26.7693 38.6266 25.5584 37.6509 24.6546C36.3771 23.5339 34.7505 22.8957 33.0544 22.8511C32.9741 22.8408 32.8928 22.8408 32.8125 22.8511L32.8455 22.9501ZM49.5381 42.9416C49.541 43.1394 49.5044 43.3357 49.4304 43.5191C49.3565 43.7024 49.2466 43.8692 49.1073 44.0095C48.968 44.1499 48.802 44.261 48.6192 44.3363C48.4364 44.4116 48.2403 44.4496 48.0426 44.4482C47.6667 44.416 47.3165 44.2439 47.0614 43.9659C46.8062 43.688 46.6646 43.3244 46.6646 42.9471C46.6646 42.5699 46.8062 42.2063 47.0614 41.9284C47.3165 41.6504 47.6667 41.4783 48.0426 41.4461C48.2398 41.4432 48.4356 41.4798 48.6184 41.5539C48.8012 41.628 48.9672 41.7381 49.1067 41.8775C49.2461 42.017 49.3562 42.1831 49.4303 42.3658C49.5044 42.5486 49.541 42.7444 49.5381 42.9416ZM48.0316 42.1499C47.9252 42.148 47.8196 42.1684 47.7217 42.2099C47.6237 42.2514 47.5356 42.313 47.463 42.3908C47.3904 42.4686 47.335 42.5608 47.3003 42.6613C47.2657 42.7619 47.2526 42.8687 47.2618 42.9746C47.2618 43.0781 47.2824 43.1805 47.3223 43.276C47.3622 43.3714 47.4207 43.458 47.4944 43.5306C47.568 43.6033 47.6554 43.6606 47.7514 43.6991C47.8474 43.7377 47.9501 43.7568 48.0536 43.7554C48.1585 43.754 48.2621 43.7317 48.3583 43.6899C48.4546 43.6481 48.5415 43.5876 48.6142 43.5119C48.6868 43.4361 48.7437 43.3467 48.7815 43.2489C48.8193 43.151 48.8372 43.0465 48.8343 42.9416C48.8391 42.8355 48.8216 42.7294 48.7828 42.6305C48.744 42.5315 48.6848 42.4418 48.6091 42.3671C48.5335 42.2925 48.4429 42.2346 48.3434 42.1972C48.2439 42.1597 48.1377 42.1436 48.0316 42.1499ZM16.9666 41.4461C17.1745 41.4283 17.3839 41.4539 17.5814 41.5212C17.7789 41.5886 17.9603 41.6962 18.114 41.8373C18.2677 41.9785 18.3904 42.15 18.4744 42.341C18.5584 42.5321 18.6017 42.7385 18.6017 42.9471C18.6017 43.1558 18.5584 43.3622 18.4744 43.5533C18.3904 43.7443 18.2677 43.9158 18.114 44.0569C17.9603 44.1981 17.7789 44.3057 17.5814 44.3731C17.3839 44.4404 17.1745 44.466 16.9666 44.4482C16.7587 44.466 16.5493 44.4404 16.3518 44.3731C16.1543 44.3057 15.973 44.1981 15.8192 44.0569C15.6655 43.9158 15.5428 43.7443 15.4588 43.5533C15.3749 43.3622 15.3315 43.1558 15.3315 42.9471C15.3315 42.7385 15.3749 42.5321 15.4588 42.341C15.5428 42.15 15.6655 41.9785 15.8192 41.8373C15.973 41.6962 16.1543 41.5886 16.3518 41.5212C16.5493 41.4539 16.7587 41.4283 16.9666 41.4461ZM16.9666 42.1499C16.8609 42.1468 16.7556 42.1655 16.6574 42.2049C16.5592 42.2443 16.4702 42.3035 16.3959 42.3788C16.3216 42.4541 16.2636 42.544 16.2256 42.6427C16.1875 42.7414 16.1703 42.8469 16.1749 42.9526C16.1749 43.059 16.196 43.1643 16.237 43.2624C16.278 43.3605 16.3381 43.4495 16.4139 43.5242C16.4896 43.5989 16.5794 43.6578 16.678 43.6975C16.7767 43.7372 16.8823 43.7568 16.9886 43.7554C17.1978 43.7471 17.396 43.6595 17.5431 43.5104C17.6901 43.3614 17.7749 43.162 17.7803 42.9526C17.7819 42.8449 17.7615 42.738 17.7204 42.6384C17.6792 42.5389 17.6181 42.4487 17.5409 42.3736C17.4637 42.2984 17.372 42.2398 17.2713 42.2014C17.1707 42.1629 17.0633 42.1454 16.9556 42.1499H16.9666ZM15.4601 11.8877C15.4601 11.491 15.6177 11.1107 15.8981 10.8302C16.1786 10.5497 16.559 10.3922 16.9556 10.3922C17.3526 10.3977 17.7321 10.5563 18.0149 10.835C18.2976 11.1137 18.4618 11.4908 18.4731 11.8877C18.462 12.2866 18.2986 12.6662 18.0164 12.9484C17.7342 13.2307 17.3546 13.3941 16.9556 13.4052C16.5588 13.3939 16.1816 13.2297 15.9029 12.9469C15.6243 12.6642 15.4656 12.2847 15.4601 11.8877ZM16.9776 11.0959C16.8719 11.0899 16.7662 11.1057 16.6669 11.1423C16.5676 11.179 16.477 11.2357 16.4006 11.309C16.3242 11.3823 16.2638 11.4705 16.2231 11.5682C16.1823 11.6658 16.1622 11.7709 16.1639 11.8767C16.1609 11.983 16.1792 12.0889 16.2175 12.1881C16.2559 12.2873 16.3136 12.3779 16.3872 12.4547C16.4609 12.5314 16.5491 12.5927 16.6466 12.6351C16.7442 12.6775 16.8492 12.7 16.9556 12.7014C17.1697 12.6959 17.3734 12.6083 17.5249 12.4569C17.6763 12.3055 17.7638 12.1017 17.7693 11.8877C17.7693 11.6777 17.6859 11.4763 17.5375 11.3278C17.389 11.1794 17.1876 11.0959 16.9776 11.0959ZM49.5381 11.8987C49.5559 12.1066 49.5303 12.3159 49.463 12.5135C49.3956 12.711 49.288 12.8923 49.1469 13.0461C49.0057 13.1998 48.8342 13.3225 48.6432 13.4065C48.4522 13.4904 48.2458 13.5338 48.0371 13.5338C47.8284 13.5338 47.622 13.4904 47.431 13.4065C47.2399 13.3225 47.0684 13.1998 46.9273 13.0461C46.7862 12.8923 46.6785 12.711 46.6112 12.5135C46.5438 12.3159 46.5182 12.1066 46.5361 11.8987C46.5683 11.5228 46.7403 11.1726 47.0183 10.9175C47.2962 10.6623 47.6598 10.5208 48.0371 10.5208C48.4144 10.5208 48.7779 10.6623 49.0559 10.9175C49.3338 11.1726 49.5059 11.5228 49.5381 11.8987ZM47.2838 11.8767C47.2763 11.9823 47.2906 12.0883 47.3258 12.1882C47.3611 12.288 47.4166 12.3795 47.4889 12.4569C47.5611 12.5343 47.6486 12.596 47.7457 12.638C47.8429 12.6801 47.9477 12.7017 48.0536 12.7014C48.1594 12.7029 48.2644 12.6831 48.3625 12.6433C48.4606 12.6035 48.5497 12.5444 48.6245 12.4696C48.6993 12.3948 48.7584 12.3057 48.7982 12.2076C48.838 12.1096 48.8578 12.0045 48.8563 11.8987C48.8624 11.7945 48.8469 11.6901 48.8108 11.5922C48.7747 11.4942 48.7187 11.4048 48.6465 11.3294C48.5742 11.2541 48.4872 11.1945 48.3909 11.1543C48.2945 11.1141 48.1909 11.0942 48.0866 11.0959C47.981 11.088 47.875 11.1026 47.7755 11.1388C47.676 11.1749 47.5853 11.2318 47.5094 11.3056C47.4335 11.3794 47.3742 11.4685 47.3353 11.5669C47.2964 11.6654 47.2789 11.7709 47.2838 11.8767Z" fill="white"/>
</g>
<defs>
<clipPath id="clip0">
<rect width="65" height="90.0279" fill="white"/>
</clipPath>
</defs>
</svg>
