<svg width="100" height="53" viewBox="0 0 100 53" fill="none" xmlns="http://www.w3.org/2000/svg">
<g clip-path="url(#clip0)">
<path d="M34.871 8.40906C35.6164 8.246 36.3617 8.08295 37.1071 7.94318C40.6798 7.22996 44.3197 6.90971 47.962 6.98814C51.914 7.05361 55.8361 7.68507 59.6089 8.86329C60.4358 9.13116 60.4358 9.13116 60.6571 9.94644C62.0703 14.9624 63.4679 19.9666 64.85 24.9593C64.8919 25.0845 64.9231 25.2131 64.9432 25.3436H64.8733C64.8453 25.2815 64.8101 25.2228 64.7685 25.1689C62.4475 22.2177 59.672 19.6544 56.5458 17.5751C52.9072 15.1313 48.9991 13.1147 44.8989 11.5654C41.7471 10.3548 38.5223 9.34336 35.2436 8.53717L34.8477 8.43235L34.871 8.40906Z" fill="white"/>
<path d="M27.8229 16.5027C27.4833 15.8293 27.3304 15.0772 27.3803 14.3247C27.4397 13.7539 27.6832 13.218 28.074 12.7978C28.4648 12.3776 28.9817 12.0959 29.5467 11.9953C29.9054 11.8885 30.2838 11.8646 30.6531 11.9255L30.2338 12.3098C29.8495 12.6709 29.4418 13.0203 29.0691 13.4745C28.7617 13.787 28.5794 14.2014 28.5567 14.6392C28.5467 14.7982 28.5467 14.9577 28.5567 15.1167L28.8828 15.0235C29.4535 14.8022 30.0475 14.5809 30.5949 14.3364C32.6 13.5159 34.7533 13.1194 36.9191 13.1717C39.6195 13.2445 42.2918 13.7397 44.839 14.6392C48.831 15.9879 52.6351 17.8391 56.1598 20.1481C58.3494 21.5574 60.4458 23.0831 62.5189 24.6555C62.8683 24.9234 63.2061 25.2262 63.6836 25.5756H63.2527C58.7337 25.5756 54.2031 25.5756 49.6724 25.5756C49.4492 25.5733 49.2292 25.522 49.028 25.4254C48.8268 25.3288 48.6492 25.1892 48.5078 25.0165L48.2748 24.7254C45.3343 20.4072 40.9746 17.2549 35.9524 15.8155C34.8605 15.4678 33.7428 15.2069 32.6098 15.0352C31.78 14.8713 30.9229 14.9107 30.1116 15.1501C29.3003 15.3894 28.559 15.8215 27.951 16.4095L27.8229 16.5027Z" fill="white"/>
<path d="M74.7748 52.8182L73.1559 51.8748C73.1531 51.8166 73.1531 51.7583 73.1559 51.7001C73.9756 50.1358 74.5491 48.4544 74.8563 46.7153C75.2716 44.5243 75.4318 42.2927 75.3339 40.0649C75.3189 39.1471 75.1858 38.235 74.9379 37.3512C74.8234 36.9867 74.6793 36.6322 74.5069 36.2913C74.2526 35.8747 73.8992 35.5274 73.4781 35.2805C73.057 35.0336 72.5814 34.8948 72.0936 34.8763C71.6058 34.8579 71.1211 34.9604 70.6825 35.1748C70.244 35.3892 69.8654 35.7087 69.5803 36.105C69.2137 36.7016 68.9609 37.3611 68.8349 38.05C68.6838 38.817 68.6135 39.5977 68.6253 40.3794C68.6253 41.3577 68.6253 42.3477 68.6253 43.326C68.6253 43.4308 68.6253 43.5357 68.6253 43.6871H73.3772V45.5389C71.8049 45.5389 70.2209 45.5389 68.602 45.5389V49.394H64.2227C64.2227 49.2543 64.2227 49.1378 64.2227 49.0213V41.1248C64.2171 39.8488 64.4831 38.5863 65.0031 37.4211C65.6129 36.04 66.6302 34.8782 67.9187 34.0914C69.2072 33.3046 70.7053 32.9302 72.2125 33.0185C73.3441 33.0411 74.454 33.3328 75.4505 33.8695C76.4469 34.4062 77.3013 35.1725 77.9428 36.105C79.029 37.5998 79.6269 39.3936 79.6548 41.2412C79.6908 43.7552 79.1067 46.2393 77.9544 48.4739C77.259 49.966 76.3092 51.3257 75.1475 52.4921C75.031 52.5853 74.9029 52.6901 74.7748 52.8182Z" fill="white"/>
<path d="M0 49.3706V33.3794H0.384347C2.65549 33.3794 4.92662 33.3794 7.19776 33.3794C8.4057 33.3662 9.60245 33.612 10.7074 34.1002C11.8124 34.5884 12.7999 35.3077 13.6035 36.2096C14.3536 37.0624 14.9091 38.0683 15.2314 39.1574C15.5537 40.2465 15.6351 41.3926 15.47 42.5163C15.3049 43.64 14.8972 44.7143 14.2752 45.6646C13.6532 46.615 12.8319 47.4185 11.8682 48.0195C10.5129 48.9145 8.92664 49.396 7.30259 49.4055C4.97321 49.4055 2.64384 49.4055 0.314465 49.4055L0 49.3706ZM4.42581 47.8332C5.11253 47.8682 5.80059 47.8682 6.48731 47.8332C7.19379 47.7469 7.87111 47.4999 8.46727 47.1111C9.51087 46.4297 10.2754 45.3965 10.6219 44.1994C11.2158 42.3633 11.2158 40.3867 10.6219 38.5506C10.4376 37.8972 10.1241 37.2874 9.69999 36.7573C9.27589 36.2272 8.74979 35.7875 8.15281 35.4642C7.43122 35.0927 6.63481 34.8896 5.82343 34.8702C5.38085 34.8702 4.92662 34.8702 4.4724 34.8702L4.42581 47.8332Z" fill="white"/>
<path d="M27.7555 39.2957C27.872 39.0861 27.9652 38.9346 28.0584 38.7949L29.223 36.78C29.2619 36.6947 29.3268 36.6239 29.4084 36.5778C29.49 36.5318 29.5842 36.5129 29.6773 36.5237C30.0383 36.5237 30.411 36.5237 30.7604 36.5237C30.8536 36.8615 30.8652 48.8461 30.7604 49.3353H27.115V47.9493C27.0196 48.0197 26.93 48.0976 26.8471 48.1823C26.4612 48.6281 25.9861 48.988 25.4524 49.2387C24.9188 49.4895 24.3385 49.6256 23.749 49.6381C22.7984 49.7066 21.845 49.551 20.9654 49.1839C20.2597 48.8977 19.6193 48.4716 19.0828 47.9311C18.5463 47.3906 18.1249 46.747 17.8441 46.0392C17.4263 45.0598 17.2109 44.006 17.2109 42.9412C17.2109 41.8763 17.4263 40.8225 17.8441 39.8431C18.3356 38.6252 19.2244 37.6093 20.3661 36.9602C21.5078 36.3111 22.8354 36.067 24.1334 36.2675C24.8848 36.3548 25.6011 36.6344 26.2131 37.0791C26.8252 37.5238 27.3122 38.1188 27.6274 38.8065C27.6274 38.8764 27.6857 38.9579 27.7206 39.0278L27.7555 39.2957ZM20.9654 43.1741C20.9654 43.5235 21.0353 44.1175 21.1285 44.6998C21.2258 45.4598 21.5012 46.1861 21.9321 46.8196C22.1527 47.1348 22.4446 47.3936 22.784 47.5748C23.1234 47.7561 23.5008 47.8547 23.8855 47.8626C24.2703 47.8706 24.6514 47.7876 24.998 47.6206C25.3446 47.4535 25.647 47.207 25.8804 46.9011C26.248 46.4068 26.5241 45.8506 26.6957 45.2589C27.0866 43.9155 27.1545 42.4988 26.8937 41.1243C26.7872 40.502 26.5828 39.9005 26.288 39.3423C26.0632 38.937 25.734 38.5993 25.3347 38.3642C24.9353 38.129 24.4803 38.005 24.0169 38.005C23.5535 38.005 23.0985 38.129 22.6991 38.3642C22.2997 38.5993 21.9706 38.937 21.7458 39.3423C21.5853 39.6319 21.4527 39.9361 21.3498 40.2507C21.0754 41.2003 20.9458 42.1859 20.9654 43.1741Z" fill="white"/>
<path d="M62.2074 1.05905L61.9279 1.37352C60.6467 2.66632 59.3539 3.94748 58.0844 5.25192C58.0029 5.33992 57.9 5.40544 57.7858 5.44216C57.6715 5.47887 57.5498 5.48556 57.4322 5.46157C55.8249 5.24028 54.2293 5.00734 52.6337 4.84428C50.9036 4.67752 49.1651 4.61529 47.4275 4.65793C44.9786 4.71566 42.5393 4.98453 40.1366 5.46157C36.6808 6.1444 33.3551 7.3709 30.2834 9.09539C30.1974 9.15407 30.0962 9.18645 29.9922 9.18857L30.2368 8.93233C34.0258 5.33589 38.6294 2.71042 43.654 1.28034C47.0807 0.314296 50.6359 -0.117828 54.1944 -0.00081145C56.7637 0.0915515 59.3201 0.407206 61.8347 0.942585L62.2074 1.05905Z" fill="white"/>
<path d="M38.8787 36.5131H42.7338V38.0039H38.8554V49.3712H35.0818V38.0272H32.7524C32.6942 37.5147 32.7524 37.0488 32.7524 36.5597C33.1396 36.5197 33.5299 36.5197 33.9171 36.5597C34.3015 36.5597 34.6742 36.5597 35.0818 36.5597C35.0818 36.0006 35.1517 35.4882 35.2099 34.9757C35.2701 34.3219 35.419 33.6793 35.6525 33.0656C35.8934 32.3472 36.3142 31.7024 36.8748 31.1927C37.4355 30.683 38.1174 30.3254 38.8554 30.1539C40.5565 29.6996 42.35 29.7237 44.0383 30.2238C44.7781 30.4431 45.467 30.8074 46.0648 31.2953L43.9684 34.7893C43.8752 34.3584 43.8286 34.0323 43.7354 33.7062C43.6127 33.1691 43.3424 32.677 42.9551 32.2853C42.5857 31.9454 42.1218 31.7256 41.6248 31.6548C41.1278 31.5841 40.6211 31.6659 40.1715 31.8893C39.7819 32.1044 39.4869 32.4576 39.3446 32.8793C39.2075 33.2581 39.1024 33.6476 39.0301 34.0439C38.9682 34.4881 38.9293 34.9352 38.9136 35.3833C38.867 35.7327 38.8787 36.1054 38.8787 36.5131Z" fill="white"/>
<path d="M53.5741 41.1599L53.2014 40.135C52.9769 39.4488 52.5751 38.8341 52.0367 38.353C51.7251 38.0995 51.3314 37.969 50.9301 37.9861C50.5287 38.0033 50.1476 38.167 49.8588 38.4462C49.6334 38.6646 49.4481 38.9208 49.3114 39.2033C49.1018 39.6475 48.9379 40.1119 48.8222 40.5892C48.6374 41.3752 48.5513 42.1812 48.566 42.9885V49.371H44.6992V36.5594H45.9804C46.1667 36.5594 46.2017 36.7108 46.2599 36.8273L47.4246 39.0868L47.6459 39.4944L47.8206 39.2149C48.1077 38.7012 48.4226 38.2035 48.764 37.7241C49.1236 37.2745 49.5787 36.9106 50.0965 36.6588C50.6142 36.4069 51.1815 36.2735 51.7572 36.2683C52.7053 36.2114 53.653 36.3873 54.5175 36.7807C54.9974 36.9552 55.4066 37.2826 55.6822 37.7125L53.5741 41.1599Z" fill="white"/>
<path d="M99.9992 37.6894C99.3237 38.854 98.6482 39.9488 97.9261 41.1834L97.8329 40.8573C97.6116 40.3448 97.402 39.8207 97.1691 39.3199C96.9768 38.9382 96.6976 38.6071 96.3538 38.3532C96.0412 38.1021 95.6479 37.973 95.2473 37.9902C94.8466 38.0073 94.4658 38.1695 94.1758 38.4464C93.8219 38.7951 93.5546 39.2219 93.3955 39.6926C93.0914 40.5173 92.9299 41.3877 92.918 42.2666C92.918 43.6293 92.918 44.9919 92.918 46.3663V48.9169C92.918 49.045 92.918 49.1848 92.918 49.3362H89.1444C89.0628 49.0334 89.0395 37.107 89.1444 36.5247C89.5637 36.5247 89.9946 36.5247 90.4255 36.5247C90.5187 36.5247 90.6352 36.6877 90.6818 36.7925C91.0777 37.5263 91.4504 38.2717 91.8464 39.0171L92.091 39.448C92.1726 39.285 92.2308 39.1685 92.3007 39.052C92.536 38.6216 92.7965 38.2055 93.081 37.8058C93.4466 37.3061 93.9253 36.9 94.4779 36.6206C95.0305 36.3413 95.6414 36.1967 96.2606 36.1986C97.1949 36.1593 98.1251 36.343 98.9743 36.7343C99.4138 36.9281 99.775 37.2646 99.9992 37.6894Z" fill="white"/>
<path d="M57.2344 36.5703H60.973V49.3819C59.728 49.4587 58.4794 49.4587 57.2344 49.3819V36.5703Z" fill="white"/>
<path d="M45.8656 23.6437L44.4564 23.8883C43.0427 24.1424 41.6054 24.24 40.1703 24.1795C39.8093 24.1795 39.4366 24.1096 39.0755 24.0514C38.35 23.9198 37.6576 23.6463 37.0381 23.2466C36.4185 22.8469 35.8839 22.3288 35.465 21.722C35.3485 21.5706 35.2321 21.4192 35.1272 21.2561C34.6484 20.4945 33.9996 19.8541 33.2317 19.3853C32.4638 18.9165 31.5977 18.632 30.7014 18.5541C29.8168 18.4505 28.9595 18.1819 28.1741 17.7621L27.9528 17.599C27.9528 17.599 27.9528 17.599 27.8945 17.4942C28.3406 17.379 28.7971 17.3087 29.2572 17.2845C32.3399 17.0968 35.4237 17.6353 38.2602 18.8569C40.9707 20.0058 43.4948 21.5524 45.7492 23.4457L45.8889 23.5389L45.8656 23.6437Z" fill="white"/>
<path d="M85.8832 49.372H82.1445V36.6187C83.3892 36.5308 84.6385 36.5308 85.8832 36.6187V49.372Z" fill="white"/>
<path d="M61.1698 33.414C61.1306 33.9354 60.8958 34.4229 60.5124 34.7785C60.1291 35.1342 59.6254 35.3318 59.1025 35.3318C58.5795 35.3318 58.0759 35.1342 57.6925 34.7785C57.3091 34.4229 57.0743 33.9354 57.0352 33.414C57.0743 32.8925 57.3091 32.4051 57.6925 32.0494C58.0759 31.6937 58.5795 31.4961 59.1025 31.4961C59.6254 31.4961 60.1291 31.6937 60.5124 32.0494C60.8958 32.4051 61.1306 32.8925 61.1698 33.414Z" fill="white"/>
<path d="M84.0186 31.3771C84.4268 31.3771 84.8258 31.4983 85.1651 31.7253C85.5043 31.9524 85.7685 32.275 85.9242 32.6524C86.0799 33.0298 86.12 33.4449 86.0396 33.8451C85.9591 34.2453 85.7616 34.6126 85.4721 34.9004C85.1826 35.1882 84.8142 35.3837 84.4136 35.4619C84.0129 35.5401 83.598 35.4976 83.2216 35.3398C82.8451 35.182 82.5239 34.9159 82.2988 34.5754C82.0737 34.2349 81.9548 33.8352 81.9571 33.4269C81.9555 33.1563 82.0078 32.8881 82.111 32.6379C82.2142 32.3878 82.3662 32.1607 82.5581 31.9699C82.75 31.779 82.978 31.6284 83.2287 31.5266C83.4795 31.4248 83.748 31.374 84.0186 31.3771Z" fill="white"/>
<path d="M32.2148 10.9602L38.1547 9.88867V9.95855C38.0265 10.0353 37.8943 10.1053 37.7587 10.1682C37.2139 10.4183 36.7141 10.7567 36.2796 11.1698C35.7418 11.6751 35.0317 11.9564 34.2938 11.9564C33.5559 11.9564 32.8458 11.6751 32.308 11.1698C32.2686 11.1039 32.2374 11.0336 32.2148 10.9602Z" fill="white"/>
</g>
<defs>
<clipPath id="clip0">
<rect width="100" height="52.8185" fill="white"/>
</clipPath>
</defs>
</svg>
