<svg width="100" height="44" viewBox="0 0 100 44" fill="none" xmlns="http://www.w3.org/2000/svg">
<path d="M25.4996 35.4105H20.1472C19.2132 34.4611 18.2742 33.5142 17.3303 32.5697C16.7879 32.0117 16.2538 31.4288 15.6865 30.8864C15.639 30.8397 15.5855 30.7996 15.5275 30.7669L14.69 29.9293C14.6834 29.8991 14.6807 29.8683 14.6817 29.8374C14.6706 29.8549 14.6573 29.8709 14.6422 29.8852L12.0091 27.2439L11.9172 27.3083C12.045 27.1244 11.9972 26.981 11.806 26.7898C11.4893 26.5072 11.1957 26.1998 10.928 25.8704C10.6807 25.5588 10.529 25.5946 10.2578 25.8539C7.3297 28.7039 4.37403 31.5428 1.43212 34.3826C1.08921 34.7099 0.737967 35.0455 0.347245 35.4123L-0.00390625 35.7396V5.38281L3.73784 6.35639C3.72221 10.9761 3.72953 23.5721 3.72953 26.3807V26.8753C5.99572 24.6734 8.19753 22.5194 10.4315 20.3406C10.5593 20.461 10.6871 20.564 10.8067 20.6844L10.8986 20.7763C13.1887 23.082 15.4705 25.3878 17.768 27.6852C20.3434 30.2637 22.9206 32.8388 25.4996 35.4105Z" fill="white"/>
<path d="M28.9949 12.9365C28.9627 19.6863 28.9305 31.1809 28.9029 35.4099V35.4816C28.8939 35.5703 28.8779 35.6583 28.8551 35.7445C28.7108 35.6094 28.5913 35.5138 28.4874 35.4099C28.4801 35.4099 28.4718 35.3933 28.4635 35.3933C26.2295 33.1869 23.9958 30.9771 21.7624 28.7639C18.6109 25.6443 15.4594 22.5219 12.3079 19.3967C12.0523 19.1494 12.0523 18.9986 12.3161 18.7587C12.9863 18.1152 13.6482 17.4587 14.2863 16.7803C14.5897 16.4612 14.7735 16.4695 15.076 16.7885C18.1233 19.8922 21.1792 22.9929 24.2437 26.0905C24.5195 26.3782 24.8257 26.6421 25.2091 27.0163C25.2247 26.6338 25.2486 26.3939 25.2486 26.1466V11.9629L28.9949 12.9365Z" fill="white"/>
<path d="M43.9922 7.02344H46.2906L47.9454 13.7347L49.7951 7.02344H51.5749L53.4237 13.7347L55.0786 7.02344H57.377L54.7338 16.6104H52.2405L50.6776 10.9546L49.1148 16.6104H46.6225L43.9922 7.02344Z" fill="white"/>
<path d="M56.9807 11.812C56.9748 11.1557 57.0997 10.5048 57.3481 9.89734C57.5965 9.28986 57.9634 8.73796 58.4275 8.27384C58.8915 7.80972 59.4434 7.44267 60.0508 7.19415C60.6582 6.94563 61.3091 6.8206 61.9654 6.82636C62.6216 6.82072 63.2725 6.94582 63.8799 7.19438C64.4873 7.44293 65.0392 7.80998 65.5033 8.27406C65.9674 8.73815 66.3344 9.28999 66.583 9.89742C66.8315 10.5049 66.9566 11.1557 66.9509 11.812C66.9566 12.4683 66.8315 13.1191 66.583 13.7265C66.3344 14.334 65.9674 14.8858 65.5033 15.3499C65.0392 15.814 64.4873 16.181 63.8799 16.4296C63.2725 16.6781 62.6216 16.8032 61.9654 16.7976C61.3091 16.8034 60.6582 16.6783 60.0508 16.4298C59.4434 16.1813 58.8915 15.8143 58.4275 15.3501C57.9634 14.886 57.5965 14.3341 57.3481 13.7266C57.0997 13.1191 56.9748 12.4683 56.9807 11.812ZM64.7601 11.812C64.7771 11.4379 64.7167 11.0644 64.583 10.7146C64.4493 10.3648 64.2449 10.0463 63.9828 9.77897C63.7206 9.51161 63.4062 9.30111 63.0591 9.16055C62.712 9.02 62.3397 8.95241 61.9654 8.962C61.5911 8.95253 61.2189 9.02022 60.8719 9.16084C60.5249 9.30145 60.2106 9.51199 59.9485 9.77933C59.6864 10.0467 59.4822 10.3651 59.3485 10.7148C59.2148 11.0645 59.1546 11.438 59.1715 11.812C59.1546 12.186 59.2148 12.5595 59.3485 12.9092C59.4822 13.2589 59.6864 13.5773 59.9485 13.8447C60.2106 14.112 60.5249 14.3225 60.8719 14.4631C61.2189 14.6037 61.5911 14.6714 61.9654 14.662C62.3397 14.6716 62.712 14.604 63.0591 14.4634C63.4062 14.3228 63.7206 14.1123 63.9828 13.845C64.2449 13.5776 64.4493 13.2591 64.583 12.9094C64.7167 12.5596 64.7771 12.1861 64.7601 11.812Z" fill="white"/>
<path d="M77.2241 16.6067H75.0324V11.0327L72.5502 15.1008H72.3028L69.8207 11.0327V16.6067H67.6289V7.02344H69.8207L72.4224 11.2828L75.0241 7.02344H77.2168L77.2241 16.6067Z" fill="white"/>
<path d="M84.3466 14.4977V16.6067H78.3203V7.02344H84.2777V9.13242H80.5084V10.721H83.932V12.8024H80.5084V14.5014L84.3466 14.4977Z" fill="white"/>
<path d="M92.5682 7.02344V16.6104H90.9245L87.2269 11.4069V16.6104H85.0352V7.02344H86.679L90.3774 12.2278V7.02344H92.5682Z" fill="white"/>
<path d="M46.8675 18.1191V27.7088H44.6758V18.1191H46.8675Z" fill="white"/>
<path d="M55.498 18.1191V27.7088H53.8542L50.1566 22.5044V27.7088H47.9648V18.1191H49.6087L53.3062 23.3235V18.1191H55.498Z" fill="white"/>
<path d="M61.6644 20.2281V22.076H65.2259V24.1905H61.6644V27.7088H59.4727V18.1191H65.293V20.2281H61.6644Z" fill="white"/>
<path d="M65.6369 22.9107C65.6311 22.2545 65.7562 21.6037 66.0046 20.9963C66.2531 20.3889 66.62 19.8371 67.084 19.3731C67.5481 18.9091 68.0999 18.5421 68.7073 18.2937C69.3146 18.0452 69.9654 17.9202 70.6216 17.926C71.2778 17.9203 71.9286 18.0454 72.5359 18.2939C73.1433 18.5424 73.6951 18.9093 74.1592 19.3733C74.6233 19.8373 74.9903 20.3891 75.2389 20.9964C75.4875 21.6037 75.6127 22.2544 75.6072 22.9107C75.6123 23.5668 75.4868 24.2173 75.2379 24.8244C74.989 25.4315 74.6218 25.9829 74.1575 26.4466C73.6933 26.9102 73.1414 27.2768 72.534 27.5249C71.9266 27.773 71.2758 27.8977 70.6197 27.8917C69.964 27.8972 69.3137 27.7721 68.7068 27.5238C68.0999 27.2755 67.5485 26.9088 67.0847 26.4452C66.6209 25.9816 66.2541 25.4303 66.0055 24.8235C65.7569 24.2167 65.6316 23.5664 65.6369 22.9107ZM73.4164 22.9107C73.4333 22.5366 73.373 22.163 73.2393 21.8133C73.1056 21.4635 72.9012 21.145 72.639 20.8777C72.3768 20.6103 72.0624 20.3998 71.7153 20.2592C71.3683 20.1187 70.9959 20.0511 70.6216 20.0607C70.2473 20.0511 69.875 20.1187 69.528 20.2592C69.1809 20.3998 68.8666 20.6103 68.6045 20.8777C68.3424 21.1451 68.1381 21.4636 68.0045 21.8133C67.8708 22.1631 67.8107 22.5366 67.8277 22.9107C67.8108 23.2847 67.8711 23.6582 68.0047 24.0079C68.1384 24.3576 68.3427 24.676 68.6048 24.9433C68.8669 25.2107 69.1812 25.4212 69.5281 25.5618C69.8751 25.7024 70.2473 25.7701 70.6216 25.7606C70.9959 25.7701 71.3682 25.7024 71.7152 25.5618C72.0622 25.4212 72.3766 25.2107 72.6387 24.9434C72.9009 24.676 73.1052 24.3576 73.239 24.0079C73.3728 23.6582 73.4332 23.2847 73.4164 22.9107Z" fill="white"/>
<path d="M79.5254 24.5555H78.4847V27.7088H76.293V18.1192H80.1275C80.5595 18.1179 80.9875 18.2021 81.3869 18.3668C81.7862 18.5316 82.1491 18.7736 82.4546 19.079C82.7601 19.3845 83.0022 19.7472 83.1671 20.1466C83.3319 20.5459 83.4162 20.9738 83.4151 21.4058C83.4047 21.9869 83.2343 22.5538 82.9226 23.0443C82.6109 23.5348 82.1698 23.9298 81.6481 24.1859L83.6882 27.7061H81.3328L79.5254 24.5555ZM78.4847 22.6377H80.1275C80.2806 22.6295 80.4306 22.5911 80.5687 22.5246C80.7069 22.4581 80.8305 22.3648 80.9324 22.2503C81.0343 22.1357 81.1125 22.0021 81.1624 21.8572C81.2124 21.7122 81.2331 21.5588 81.2234 21.4058C81.2332 21.2527 81.2126 21.0992 81.1627 20.9541C81.1128 20.8091 81.0347 20.6754 80.9327 20.5607C80.8308 20.4461 80.7072 20.3528 80.569 20.2862C80.4308 20.2197 80.2807 20.1812 80.1275 20.173H78.4847V22.6377Z" fill="white"/>
<path d="M90.2021 25.5943V27.7088H84.1758V18.1191H90.1332V20.2281H86.3638V21.8168H89.7875V23.8981H86.3638V25.5943H90.2021Z" fill="white"/>
<path d="M95.9261 27.708L94.3099 24.9408L92.6937 27.708H90.2031L93.066 22.7914L90.3402 18.1211H92.8325L94.3117 20.6548L95.7909 18.1211H98.2833L95.5583 22.7914L98.4203 27.708H95.9261Z" fill="white"/>
<path d="M37.1647 0H36.5469V43.9263H37.1647V0Z" fill="white"/>
<path d="M45.3279 35.1468H44.8683L45.1441 32.7492H44.2578L44.3571 32.4219H46.5562L46.4569 32.7492H45.6046L45.3279 35.1468Z" fill="white"/>
<path d="M47.2762 33.6101C47.3313 33.5467 47.3883 33.4869 47.4453 33.4262C47.5019 33.371 47.5634 33.3212 47.6292 33.2773C47.6905 33.2349 47.7569 33.2003 47.8268 33.1743C47.8992 33.1489 47.9754 33.1362 48.0521 33.1366C48.1381 33.1344 48.2233 33.1534 48.3003 33.1918C48.367 33.2267 48.4244 33.2772 48.4676 33.3389C48.5126 33.4025 48.5439 33.4748 48.5596 33.5512C48.5757 33.6348 48.5785 33.7205 48.5678 33.805L48.4161 35.1454H47.9657L48.1127 33.8473C48.1197 33.8006 48.1197 33.7532 48.1127 33.7066C48.1065 33.6657 48.0925 33.6264 48.0714 33.5908C48.051 33.5575 48.0225 33.53 47.9886 33.5108C47.9517 33.4898 47.9098 33.4793 47.8673 33.4804C47.8134 33.481 47.7602 33.4926 47.711 33.5145C47.6542 33.5386 47.6005 33.5695 47.551 33.6064C47.4948 33.6492 47.4428 33.6972 47.3957 33.7498C47.344 33.8066 47.2957 33.8665 47.2513 33.9291L47.1116 35.1417H46.6602L47.0003 32.1621H47.4526L47.2762 33.6101Z" fill="white"/>
<path d="M49.762 35.1836C49.6545 35.1852 49.5477 35.1658 49.4476 35.1266C49.3542 35.0894 49.2696 35.033 49.1994 34.9611C49.1282 34.8861 49.0734 34.7972 49.0385 34.7C48.9984 34.5886 48.9788 34.4709 48.9806 34.3525C48.9797 34.2402 48.9952 34.1284 49.0265 34.0206C49.0569 33.9179 49.1004 33.8196 49.1562 33.7282C49.2106 33.6391 49.2764 33.5576 49.352 33.4856C49.4254 33.4146 49.5072 33.3528 49.5956 33.3017C49.6824 33.2508 49.775 33.2107 49.8714 33.1822C49.9652 33.1548 50.0624 33.1409 50.1601 33.1408C50.2515 33.1388 50.3424 33.1535 50.4286 33.184C50.5003 33.2097 50.5662 33.2494 50.6226 33.3007C50.6734 33.3469 50.7138 33.4033 50.7411 33.4663C50.7678 33.5271 50.7815 33.5929 50.7816 33.6593C50.7818 33.751 50.7553 33.8408 50.7053 33.9176C50.6477 34.002 50.5716 34.0721 50.4828 34.1227C50.3701 34.1866 50.2483 34.2328 50.1215 34.2596C49.9606 34.2946 49.7962 34.3113 49.6315 34.3093H49.4476C49.4468 34.3809 49.4583 34.4521 49.4816 34.5198C49.5031 34.5833 49.5383 34.6414 49.5846 34.6899C49.6333 34.7399 49.6923 34.7788 49.7574 34.8039C49.8358 34.8321 49.9187 34.8458 50.002 34.8443C50.093 34.8439 50.1834 34.8303 50.2704 34.8039C50.3646 34.7742 50.4549 34.7338 50.5398 34.6834V34.8949C50.4811 34.9456 50.4177 34.9906 50.3504 35.0291C50.2862 35.0652 50.2192 35.096 50.15 35.1211C50.0848 35.1437 50.0177 35.1606 49.9496 35.1716C49.8875 35.1809 49.8248 35.1849 49.762 35.1836ZM50.059 33.4598C49.9865 33.4598 49.9153 33.4775 49.8512 33.5113C49.7841 33.5456 49.7237 33.5917 49.6728 33.6474C49.6193 33.707 49.5744 33.7738 49.5395 33.8459C49.5026 33.9211 49.476 34.0008 49.4605 34.0831H49.6443C49.7453 34.0845 49.8461 34.0749 49.945 34.0546C50.0222 34.0398 50.0968 34.0138 50.1665 33.9774C50.2206 33.9496 50.2677 33.91 50.3044 33.8616C50.3349 33.8192 50.3513 33.7684 50.3514 33.7163C50.351 33.6848 50.3448 33.6536 50.333 33.6244C50.3207 33.5932 50.3019 33.5649 50.2778 33.5416C50.2517 33.5156 50.2204 33.4955 50.1858 33.4828C50.1454 33.4671 50.1023 33.4593 50.059 33.4598Z" fill="white"/>
<path d="M51.9844 35.1468L52.2951 32.4219H52.7548L52.6252 33.5655H53.9793L54.1099 32.4219H54.5696L54.2588 35.1468H53.7992L53.9407 33.8938H52.5875L52.445 35.1468H51.9844Z" fill="white"/>
<path d="M55.719 35.1846C55.5963 35.1871 55.4745 35.1639 55.3614 35.1165C55.2645 35.0742 55.178 35.0115 55.1076 34.9327C55.0397 34.8538 54.9881 34.7623 54.9559 34.6633C54.9225 34.5584 54.9058 34.4489 54.9063 34.3388C54.9051 34.1809 54.9364 34.0244 54.9982 33.8791C55.059 33.7372 55.1457 33.6078 55.2538 33.4976C55.362 33.388 55.4898 33.2997 55.6307 33.2374C55.7752 33.1726 55.932 33.1397 56.0904 33.1409C56.2134 33.138 56.3357 33.1615 56.4489 33.2098C56.5462 33.2513 56.6329 33.3141 56.7027 33.3937C56.7719 33.4742 56.8238 33.5681 56.8553 33.6695C56.8887 33.7744 56.9054 33.8839 56.9049 33.994C56.9065 34.152 56.8752 34.3085 56.813 34.4537C56.7516 34.5949 56.6643 34.7234 56.5556 34.8324C56.4469 34.9411 56.3187 35.0284 56.1777 35.0899C56.0334 35.1541 55.8769 35.1864 55.719 35.1846ZM55.8274 34.8637C55.9062 34.863 55.9834 34.8421 56.0518 34.803C56.1247 34.7606 56.1887 34.7044 56.2402 34.6375C56.2969 34.5624 56.3409 34.4786 56.3708 34.3893C56.4046 34.2889 56.4214 34.1836 56.4204 34.0777C56.4202 33.9987 56.411 33.9201 56.3929 33.8432C56.3756 33.7738 56.347 33.7076 56.3083 33.6474C56.2731 33.5922 56.2255 33.546 56.1694 33.5123C56.1125 33.4774 56.0468 33.4595 55.98 33.4608C55.9005 33.4605 55.8224 33.4818 55.7539 33.5224C55.6798 33.5648 55.6153 33.622 55.5645 33.6906C55.5081 33.7675 55.464 33.8528 55.434 33.9434C55.4019 34.0429 55.3857 34.1469 55.3862 34.2514C55.3861 34.3301 55.3956 34.4086 55.4147 34.4849C55.432 34.5547 55.4605 34.6211 55.4992 34.6817C55.5349 34.7354 55.582 34.7806 55.6371 34.8141C55.6947 34.848 55.7606 34.8652 55.8274 34.8637Z" fill="white"/>
<path d="M57.4786 33.1759H57.8464L57.8575 33.6356C57.9145 33.5694 57.9724 33.5078 58.0303 33.4517C58.0872 33.3941 58.1487 33.3412 58.2142 33.2936C58.2739 33.2487 58.3394 33.2122 58.409 33.1851C58.478 33.1575 58.5518 33.1438 58.626 33.1447C58.6944 33.1436 58.7623 33.1564 58.8255 33.1823C58.8826 33.2066 58.934 33.2427 58.9763 33.2881C59.0191 33.3337 59.0527 33.3871 59.0756 33.4453C59.1016 33.5063 59.1174 33.5713 59.1225 33.6374C59.1795 33.5703 59.2373 33.5069 59.2962 33.448C59.3528 33.3901 59.4143 33.3372 59.4801 33.2899C59.5407 33.2459 59.6068 33.21 59.6768 33.1833C59.7458 33.1573 59.8191 33.1442 59.8929 33.1447C59.9739 33.1427 60.054 33.1617 60.1255 33.1998C60.1896 33.2353 60.2441 33.2858 60.2845 33.3469C60.3281 33.4107 60.3572 33.4831 60.37 33.5593C60.3868 33.6428 60.3902 33.7284 60.3801 33.813L60.2275 35.1534H59.777L59.9241 33.8553C59.931 33.8087 59.931 33.7613 59.9241 33.7147C59.9191 33.6736 59.9053 33.6341 59.8837 33.5988C59.8658 33.5661 59.8398 33.5386 59.8083 33.5189C59.7753 33.4981 59.7369 33.4876 59.6979 33.4885C59.6486 33.4895 59.6 33.5011 59.5555 33.5225C59.5016 33.5473 59.4506 33.5781 59.4038 33.6144C59.3495 33.6578 59.299 33.7058 59.253 33.7579C59.2013 33.8146 59.1531 33.8745 59.1087 33.9371V33.9298L58.9689 35.1498H58.5194L58.6674 33.8517C58.6739 33.805 58.6739 33.7576 58.6674 33.711C58.6612 33.6701 58.6472 33.6307 58.626 33.5951C58.6066 33.5625 58.5794 33.535 58.547 33.5151C58.514 33.4943 58.4756 33.4837 58.4366 33.4848C58.3878 33.4856 58.3398 33.4973 58.296 33.5189C58.2426 33.5434 58.1922 33.5743 58.1461 33.6108C58.0919 33.6539 58.0417 33.7019 57.9962 33.7542C57.9448 33.811 57.897 33.8708 57.8529 33.9335L57.7131 35.1461H57.2617L57.4786 33.1759Z" fill="white"/>
<path d="M61.5784 35.1836C61.4709 35.1852 61.3641 35.1658 61.264 35.1266C61.1709 35.0894 61.0866 35.033 61.0167 34.9611C60.9456 34.8859 60.8905 34.7971 60.8549 34.7C60.8148 34.5886 60.7952 34.4709 60.797 34.3525C60.7964 34.2402 60.8121 34.1284 60.8438 34.0206C60.8742 33.9181 60.9175 33.8199 60.9726 33.7282C61.0275 33.6395 61.0933 33.558 61.1684 33.4856C61.242 33.4148 61.3237 33.353 61.412 33.3017C61.4987 33.2507 61.5913 33.2105 61.6878 33.1822C61.7816 33.1549 61.8788 33.1409 61.9765 33.1408C62.0681 33.1388 62.1594 33.1535 62.2459 33.184C62.3175 33.21 62.3834 33.2496 62.4398 33.3007C62.4907 33.3469 62.5311 33.4033 62.5584 33.4662C62.5843 33.5273 62.5978 33.593 62.598 33.6593C62.5982 33.751 62.5717 33.8408 62.5217 33.9176C62.4643 34.0023 62.3882 34.0724 62.2992 34.1227C62.1868 34.1866 62.0652 34.2328 61.9388 34.2596C61.7775 34.2946 61.6128 34.3112 61.4478 34.3093H61.264C61.2632 34.3809 61.2747 34.4521 61.298 34.5198C61.3203 34.5832 61.3557 34.6411 61.4019 34.6899C61.4504 34.7401 61.5094 34.779 61.5747 34.8039C61.6528 34.8321 61.7354 34.8458 61.8183 34.8443C61.9096 34.8439 62.0004 34.8303 62.0877 34.8039C62.1816 34.7742 62.2716 34.7338 62.3562 34.6834V34.8949C62.2993 34.9454 62.2377 34.9903 62.1723 35.0291C62.1077 35.0651 62.0404 35.0958 61.971 35.1211C61.9061 35.1437 61.8393 35.1606 61.7715 35.1716C61.7076 35.1811 61.643 35.1851 61.5784 35.1836ZM61.8763 33.4598C61.8036 33.4598 61.732 33.4775 61.6676 33.5113C61.6008 33.5456 61.5407 33.5917 61.4901 33.6474C61.436 33.7065 61.391 33.7734 61.3568 33.8459C61.3199 33.9211 61.2933 34.0008 61.2778 34.0831H61.4616C61.5626 34.0845 61.6634 34.0749 61.7623 34.0546C61.8398 34.0399 61.9148 34.0139 61.9848 33.9774C62.0386 33.9496 62.0854 33.91 62.1217 33.8616C62.1522 33.8193 62.1686 33.7684 62.1686 33.7163C62.1686 33.6848 62.1627 33.6537 62.1511 33.6244C62.1382 33.5933 62.1192 33.5651 62.0951 33.5416C62.0693 33.5153 62.0378 33.4952 62.0031 33.4828C61.9627 33.4671 61.9196 33.4593 61.8763 33.4598Z" fill="white"/>
<path d="M64.4925 35.1845C64.3698 35.1871 64.248 35.1639 64.1348 35.1165C64.038 35.0742 63.9515 35.0115 63.8811 34.9327C63.8125 34.8543 63.7609 34.7626 63.7294 34.6633C63.6955 34.5585 63.6788 34.4489 63.6797 34.3388C63.6781 34.1808 63.7095 34.0243 63.7717 33.8791C63.8322 33.737 63.9189 33.6076 64.0273 33.4976C64.1355 33.388 64.2634 33.2997 64.4042 33.2374C64.5487 33.1724 64.7055 33.1395 64.8639 33.1409C64.9873 33.138 65.1098 33.1615 65.2233 33.2098C65.3205 33.2515 65.4072 33.3143 65.4771 33.3937C65.5464 33.474 65.598 33.568 65.6288 33.6695C65.6626 33.7743 65.6794 33.8839 65.6784 33.994C65.6804 34.152 65.6491 34.3086 65.5865 34.4537C65.5257 34.595 65.4386 34.7235 65.33 34.8324C65.2212 34.9411 65.0931 35.0284 64.9522 35.0899C64.8075 35.154 64.6507 35.1863 64.4925 35.1845ZM64.6001 34.8637C64.6788 34.863 64.756 34.8421 64.8243 34.803C64.8976 34.7611 64.9617 34.7048 65.0128 34.6375C65.0701 34.5627 65.1145 34.4788 65.1443 34.3893C65.1782 34.2889 65.1949 34.1836 65.1939 34.0777C65.1938 33.9987 65.1845 33.9201 65.1663 33.8432C65.1491 33.7738 65.1205 33.7076 65.0818 33.6474C65.0466 33.5922 64.999 33.546 64.943 33.5123C64.8857 33.4774 64.8197 33.4595 64.7526 33.4608C64.6731 33.4607 64.595 33.482 64.5265 33.5224C64.4529 33.5651 64.3887 33.6223 64.338 33.6906C64.2815 33.7675 64.2375 33.8528 64.2075 33.9434C64.175 34.0428 64.1588 34.1469 64.1597 34.2514C64.1591 34.3302 64.1687 34.4086 64.1882 34.4849C64.2051 34.5548 64.2336 34.6213 64.2727 34.6817C64.3084 34.7351 64.3551 34.7803 64.4097 34.8141C64.4675 34.8476 64.5333 34.8647 64.6001 34.8637Z" fill="white"/>
<path d="M66.6934 34.7586C66.6815 34.8698 66.664 34.9875 66.6419 35.1144C66.6199 35.2412 66.5941 35.3663 66.5656 35.4913C66.5371 35.6163 66.5059 35.7367 66.4737 35.8498C66.4436 35.95 66.4083 36.0485 66.368 36.1449H66.0857L66.3854 33.4972H65.9883L66.048 33.2701L66.4222 33.1782L66.4333 33.0927C66.4474 32.9636 66.4812 32.8374 66.5335 32.7185C66.5821 32.6058 66.6506 32.5027 66.7357 32.4142C66.8194 32.3267 66.9198 32.2567 67.0308 32.2083C67.1494 32.1567 67.2776 32.131 67.4069 32.1329C67.4632 32.1331 67.5194 32.1375 67.5751 32.1458C67.6316 32.1547 67.6874 32.1685 67.7415 32.1871L67.6293 32.5071L67.5898 32.5255C67.5536 32.5042 67.515 32.4872 67.4749 32.4749C67.432 32.4614 67.3874 32.4545 67.3425 32.4547C67.2785 32.4532 67.2152 32.468 67.1586 32.4979C67.1064 32.528 67.0609 32.5687 67.0253 32.6174C66.9849 32.6716 66.9538 32.7322 66.9334 32.7967C66.9096 32.8686 66.8939 32.9429 66.8865 33.0182L66.8681 33.1782H67.5227L67.4078 33.5H66.8332L66.6934 34.7586Z" fill="white"/>
<path d="M68.4805 35.1468L69.0008 32.4219H69.6747C69.7198 32.6333 69.7667 32.8448 69.8108 33.0544C69.8549 33.264 69.9027 33.4745 69.9459 33.6869L70.0645 34.2321L70.1187 34.5685H70.1564L70.2861 34.2321C70.3219 34.1521 70.3578 34.073 70.3927 33.9939C70.4277 33.9149 70.4635 33.8349 70.4993 33.7549L71.0914 32.4219H71.7873L71.6862 35.1468H71.2109L71.3167 33.1096L71.3534 32.6857H71.3148L71.1585 33.0921C71.1411 33.1298 71.1245 33.1675 71.1061 33.2051C71.0878 33.2428 71.0721 33.2805 71.0537 33.3182L70.2659 35.0907H69.8448L69.4568 33.3201L69.3952 33.0323C69.3851 32.9735 69.375 32.9165 69.3649 32.8595L69.3355 32.6857H69.2968C69.2877 32.7455 69.2794 32.8043 69.272 32.8632C69.2647 32.922 69.2564 32.9818 69.2481 33.0415L69.1976 33.3366L68.8831 35.1468H68.4805Z" fill="white"/>
<path d="M74.0047 35.1481H73.6369L73.6259 34.6884C73.5671 34.7546 73.5092 34.8171 73.4513 34.8723C73.3962 34.93 73.3365 34.9832 73.2729 35.0314C73.2124 35.0756 73.1467 35.112 73.0771 35.1399C73.0079 35.1665 72.9343 35.18 72.8601 35.1794C72.7777 35.1817 72.6961 35.163 72.6229 35.1251C72.5575 35.0898 72.5014 35.0394 72.4593 34.978C72.4145 34.9139 72.3832 34.8413 72.3673 34.7647C72.3505 34.6815 72.3471 34.5962 72.3572 34.5119L72.5099 33.1706H72.9622L72.8132 34.4696C72.8058 34.5162 72.8058 34.5637 72.8132 34.6103C72.8202 34.6516 72.8342 34.6914 72.8546 34.728C72.8739 34.7608 72.9011 34.7883 72.9337 34.8079C72.9677 34.8286 73.007 34.8389 73.0468 34.8374C73.0962 34.8366 73.1448 34.825 73.1892 34.8033C73.2436 34.7782 73.2944 34.7457 73.34 34.7068C73.3933 34.6629 73.4431 34.615 73.489 34.5634C73.5403 34.5049 73.5881 34.4435 73.6324 34.3795L73.7721 33.166H74.2235L74.0047 35.1481Z" fill="white"/>
<path d="M74.9612 32.168H75.4136L75.0734 35.1476H74.6211L74.9612 32.168Z" fill="white"/>
<path d="M76.0417 33.5002H75.6445L75.7024 33.2888C75.7868 33.2689 75.869 33.2408 75.9479 33.2051C76.0071 33.1758 76.0611 33.1369 76.1079 33.0902C76.1551 33.0405 76.1956 32.9849 76.2283 32.9247C76.2651 32.8594 76.3074 32.7804 76.3561 32.6875H76.5712L76.5161 33.1784H77.224L77.1091 33.5002H76.494L76.38 34.4903C76.36 34.5829 76.3772 34.6797 76.4278 34.7597C76.4563 34.7905 76.4915 34.8143 76.5308 34.8292C76.57 34.844 76.6122 34.8495 76.654 34.8452C76.7124 34.8459 76.7704 34.8369 76.8259 34.8186C76.8893 34.7968 76.9508 34.7697 77.0097 34.7377V34.9537C76.9168 35.0286 76.8122 35.0876 76.6999 35.1284C76.5984 35.166 76.4911 35.1859 76.3827 35.1872C76.3027 35.1901 76.2232 35.1734 76.1511 35.1385C76.0895 35.1074 76.0378 35.06 76.0012 35.0015C75.9625 34.9385 75.9374 34.868 75.9277 34.7947C75.9152 34.7096 75.9152 34.6232 75.9277 34.5381L76.0417 33.5002Z" fill="white"/>
<path d="M77.7174 33.1751H78.1679L77.9427 35.1471H77.4922L77.7174 33.1751ZM77.985 32.7862C77.9526 32.788 77.9203 32.7832 77.8899 32.772C77.8595 32.7607 77.8318 32.7434 77.8084 32.7209C77.787 32.6997 77.7702 32.6743 77.7589 32.6463C77.7477 32.6183 77.7424 32.5884 77.7432 32.5582C77.7428 32.519 77.7517 32.4803 77.7689 32.4451C77.7844 32.41 77.8073 32.3787 77.836 32.3532C77.8654 32.3268 77.8994 32.3059 77.9363 32.2916C77.9743 32.2767 78.0149 32.2692 78.0558 32.2695C78.089 32.2696 78.122 32.2755 78.1532 32.287C78.1812 32.2977 78.2067 32.3143 78.2277 32.3357C78.2487 32.3575 78.2652 32.3831 78.2764 32.4111C78.288 32.4404 78.2939 32.4716 78.2939 32.5031C78.2943 32.5421 78.2858 32.5808 78.2691 32.6161C78.2525 32.6506 78.2297 32.6817 78.202 32.7081C78.1728 32.7333 78.1396 32.7532 78.1036 32.7669C78.0655 32.7802 78.0253 32.7868 77.985 32.7862Z" fill="white"/>
<path d="M79.1704 33.5966C79.232 33.5277 79.2918 33.4642 79.3543 33.4081C79.4114 33.3547 79.473 33.3061 79.5382 33.2629C79.5957 33.2252 79.6574 33.1943 79.7221 33.171C79.7877 33.1495 79.8563 33.1386 79.9253 33.1388C80.0197 33.1369 80.113 33.1601 80.1956 33.2059C80.2747 33.2515 80.3426 33.3143 80.3941 33.3898C80.4503 33.4687 80.4917 33.5572 80.5164 33.6509C80.5458 33.7512 80.5604 33.8552 80.5596 33.9598C80.5604 34.0751 80.5433 34.1898 80.5091 34.2999C80.4777 34.4048 80.4322 34.5051 80.3739 34.5978C80.3169 34.6893 80.2479 34.7727 80.1689 34.846C80.0911 34.9178 80.0046 34.9796 79.9115 35.0299C79.8192 35.0808 79.721 35.1203 79.6191 35.1475C79.5176 35.1732 79.4131 35.1852 79.3084 35.1834C79.2551 35.1819 79.202 35.177 79.1493 35.1687C79.0997 35.1595 79.0574 35.1503 79.0225 35.1402L78.9066 36.146H78.457L78.7954 33.1756H79.1631L79.1704 33.5966ZM79.0574 34.7807C79.1133 34.811 79.1735 34.833 79.2358 34.846C79.2876 34.8556 79.3402 34.8612 79.3929 34.8625C79.4854 34.863 79.5767 34.8419 79.6596 34.801C79.7429 34.7596 79.8166 34.701 79.8756 34.629C79.9394 34.5511 79.9886 34.4624 80.0209 34.367C80.0572 34.2592 80.0752 34.1461 80.0742 34.0324C80.0747 33.9607 80.067 33.8891 80.0512 33.8191C80.0387 33.7572 80.0167 33.6977 79.9859 33.6426C79.9595 33.5954 79.9224 33.5551 79.8775 33.5249C79.8322 33.496 79.7794 33.481 79.7257 33.4817C79.6764 33.4821 79.6276 33.4924 79.5823 33.512C79.5306 33.5335 79.4819 33.5612 79.4371 33.5948C79.3858 33.6343 79.3381 33.6783 79.2946 33.7262C79.2463 33.7791 79.2015 33.835 79.1603 33.8936L79.0574 34.7807Z" fill="white"/>
<path d="M81.2386 32.168H81.6909L81.3508 35.1476H80.8984L81.2386 32.168Z" fill="white"/>
<path d="M82.7043 35.1836C82.5965 35.1851 82.4894 35.1657 82.389 35.1266C82.2958 35.0894 82.2116 35.033 82.1417 34.9611C82.0705 34.8862 82.0157 34.7973 81.9808 34.7C81.9404 34.5887 81.9204 34.4709 81.922 34.3525C81.9213 34.2402 81.9372 34.1284 81.9689 34.0206C81.9992 33.9179 82.0428 33.8196 82.0985 33.7282C82.1528 33.6394 82.2183 33.5578 82.2934 33.4856C82.3673 33.4148 82.4494 33.353 82.5379 33.3017C82.6246 33.2507 82.7173 33.2105 82.8138 33.1822C82.9075 33.1548 83.0047 33.1409 83.1024 33.1408C83.1938 33.1388 83.2847 33.1535 83.3708 33.184C83.4426 33.2098 83.5085 33.2494 83.5648 33.3007C83.6157 33.3468 83.6561 33.4033 83.6834 33.4663C83.7098 33.5272 83.7232 33.5929 83.7229 33.6593C83.7235 33.7509 83.6973 33.8407 83.6476 33.9176C83.5899 34.0023 83.5135 34.0724 83.4242 34.1227C83.3119 34.1867 83.1903 34.2329 83.0638 34.2596C82.9029 34.2946 82.7384 34.3113 82.5738 34.3093H82.3899C82.3891 34.3809 82.4006 34.4521 82.4239 34.5198C82.4456 34.5833 82.4807 34.6413 82.5269 34.6899C82.5756 34.7399 82.6346 34.7788 82.6997 34.8039C82.7781 34.8322 82.861 34.8459 82.9443 34.8443C83.0352 34.8439 83.1257 34.8303 83.2127 34.8039C83.3068 34.7742 83.3972 34.7338 83.4821 34.6834V34.8949C83.4235 34.9456 83.36 34.9906 83.2927 35.0291C83.2283 35.0654 83.161 35.0962 83.0914 35.1211C83.0265 35.1438 82.9597 35.1607 82.8919 35.1716C82.8298 35.1809 82.7671 35.1849 82.7043 35.1836ZM83.0013 33.4598C82.9289 33.4597 82.8575 33.4774 82.7935 33.5113C82.7264 33.5456 82.666 33.5917 82.6152 33.6474C82.5614 33.7067 82.5164 33.7736 82.4818 33.8459C82.4448 33.921 82.4182 34.0008 82.4028 34.0831H82.5867C82.6876 34.0845 82.7884 34.0749 82.8873 34.0546C82.9645 34.0398 83.0391 34.0138 83.1088 33.9774C83.1629 33.9496 83.21 33.91 83.2467 33.8616C83.2772 33.8192 83.2936 33.7684 83.2936 33.7163C83.2933 33.6848 83.287 33.6536 83.2752 33.6244C83.2627 33.5933 83.2439 33.5652 83.2201 33.5416C83.194 33.5156 83.1627 33.4955 83.1281 33.4828C83.0877 33.4671 83.0446 33.4593 83.0013 33.4598Z" fill="white"/>
<path d="M85.6679 34.858C85.7443 34.8589 85.8205 34.849 85.8941 34.8286C85.9598 34.8112 86.022 34.7826 86.078 34.744C86.1282 34.7094 86.1704 34.6646 86.2021 34.6125C86.2327 34.5615 86.2487 34.5029 86.2481 34.4434C86.2488 34.3817 86.2312 34.3212 86.1975 34.2696C86.1613 34.2169 86.1169 34.1704 86.066 34.1317C86.0084 34.0876 85.9468 34.0488 85.8822 34.0159L85.6689 33.9037C85.5962 33.866 85.5245 33.8247 85.4556 33.7805C85.3885 33.7378 85.3268 33.6872 85.2717 33.6298C85.2177 33.5729 85.1733 33.5077 85.1402 33.4367C85.1056 33.3579 85.0887 33.2726 85.0906 33.1866C85.0896 33.0745 85.1158 32.9638 85.1669 32.8639C85.2198 32.765 85.2935 32.6788 85.3829 32.6111C85.4815 32.5372 85.5923 32.4812 85.7102 32.4456C85.8438 32.4053 85.9826 32.3855 86.1221 32.3868C86.1635 32.3868 86.214 32.3868 86.2628 32.3914C86.3115 32.396 86.3721 32.4015 86.4337 32.4089C86.4953 32.4162 86.5569 32.4282 86.6176 32.441C86.6783 32.4539 86.7472 32.4704 86.8125 32.4897L86.6976 32.8511L86.6599 32.8695C86.6003 32.8408 86.5388 32.8159 86.4761 32.795C86.4154 32.7757 86.3584 32.7591 86.3041 32.7472C86.2538 32.7357 86.2028 32.7271 86.1515 32.7214C86.1103 32.7165 86.0689 32.7141 86.0274 32.7141C85.959 32.7131 85.8909 32.7221 85.8251 32.7407C85.7692 32.7568 85.7166 32.7826 85.6698 32.8171C85.6278 32.8483 85.5932 32.8885 85.5687 32.9347C85.5436 32.9823 85.5309 33.0354 85.5318 33.0892C85.5295 33.1542 85.5472 33.2184 85.5825 33.273C85.6182 33.3285 85.6629 33.3776 85.7148 33.4183C85.7724 33.4644 85.834 33.5053 85.8987 33.5406L86.1138 33.6555C86.1865 33.695 86.2582 33.7355 86.328 33.7787C86.3949 33.8196 86.4566 33.8684 86.5119 33.9239C86.5663 33.9771 86.6111 34.0393 86.6443 34.1078C86.6793 34.1816 86.6966 34.2624 86.6948 34.3441C86.6948 34.4569 86.6663 34.5679 86.6121 34.6668C86.555 34.7715 86.4767 34.8632 86.3823 34.9361C86.2772 35.0175 86.1586 35.0797 86.032 35.12C85.8892 35.1665 85.7399 35.1895 85.5898 35.188C85.4559 35.1876 85.3223 35.1725 85.1917 35.143C85.0581 35.1137 84.9282 35.0693 84.8047 35.0106L84.9205 34.6567L84.9591 34.6383C85.073 34.7054 85.1935 34.7608 85.3186 34.8037C85.4313 34.8408 85.5493 34.8591 85.6679 34.858Z" fill="white"/>
<path d="M87.5056 33.5002H87.1094L87.1673 33.2888C87.2514 33.269 87.3333 33.241 87.4118 33.2051C87.4712 33.176 87.5252 33.1371 87.5718 33.0902C87.619 33.0405 87.6595 32.9849 87.6922 32.9247C87.729 32.8594 87.7722 32.7804 87.82 32.6875H88.0361L87.98 33.1784H88.6897L88.573 33.5002H87.9579L87.8448 34.4903C87.8247 34.5828 87.8415 34.6795 87.8917 34.7597C87.9204 34.7902 87.9558 34.8137 87.9949 34.8286C88.0341 34.8434 88.0762 34.8491 88.1179 34.8452C88.1766 34.8459 88.235 34.8369 88.2907 34.8186C88.3542 34.7969 88.4157 34.7698 88.4746 34.7377V34.9537C88.3821 35.0288 88.2777 35.0878 88.1657 35.1284C88.0638 35.1661 87.9562 35.186 87.8476 35.1872C87.7678 35.19 87.6886 35.1733 87.6169 35.1385C87.5555 35.1071 87.5037 35.0598 87.467 35.0015C87.4279 34.9385 87.4025 34.8681 87.3925 34.7947C87.381 34.7096 87.381 34.6233 87.3925 34.5381L87.5056 33.5002Z" fill="white"/>
<path d="M89.1843 33.1755H89.5521C89.5521 33.2803 89.5521 33.3833 89.5475 33.4863C89.5429 33.5892 89.5475 33.6904 89.5475 33.7933C89.5861 33.7228 89.6284 33.6493 89.6744 33.5727C89.718 33.4972 89.7691 33.4264 89.827 33.3612C89.8797 33.299 89.9417 33.2454 90.0109 33.2022C90.0814 33.1592 90.1627 33.1372 90.2452 33.1387C90.2805 33.139 90.3156 33.143 90.3501 33.1507C90.3807 33.1569 90.4096 33.1697 90.4347 33.1884L90.3427 33.6186C90.3167 33.6128 90.2903 33.6088 90.2636 33.6067C90.2398 33.6053 90.2158 33.6053 90.1919 33.6067C90.1227 33.6063 90.0541 33.6191 89.9897 33.6444C89.9286 33.6702 89.8718 33.7052 89.8214 33.7483C89.7661 33.7972 89.7165 33.852 89.6735 33.9119C89.6256 33.9754 89.5815 34.0462 89.5291 34.1243L89.4133 35.1512H88.9609L89.1843 33.1755Z" fill="white"/>
<path d="M91.2981 35.1836C91.1903 35.1851 91.0832 35.1658 90.9828 35.1266C90.8895 35.0896 90.8052 35.0332 90.7355 34.9611C90.664 34.8862 90.609 34.7973 90.5737 34.7C90.5336 34.5886 90.5139 34.4709 90.5157 34.3525C90.5151 34.2402 90.531 34.1284 90.5627 34.0206C90.5922 33.9177 90.6358 33.8193 90.6923 33.7282C90.746 33.639 90.8116 33.5573 90.8872 33.4856C90.9607 33.4148 91.0425 33.353 91.1308 33.3017C91.2175 33.2507 91.3101 33.2106 91.4066 33.1822C91.5001 33.1549 91.597 33.1409 91.6944 33.1408C91.7857 33.1388 91.8767 33.1535 91.9628 33.184C92.0349 33.2095 92.1012 33.2492 92.1577 33.3007C92.208 33.3471 92.2481 33.4035 92.2754 33.4663C92.3025 33.527 92.3162 33.5928 92.3158 33.6593C92.3161 33.751 92.2895 33.8408 92.2395 33.9176C92.182 34.002 92.1059 34.0722 92.017 34.1227C91.9044 34.1867 91.7826 34.2329 91.6558 34.2596C91.4952 34.2946 91.331 34.3113 91.1667 34.3093H90.9828C90.9823 34.3809 90.9941 34.4522 91.0177 34.5198C91.039 34.5833 91.0738 34.6413 91.1198 34.6899C91.1687 34.7401 91.228 34.779 91.2935 34.8039C91.3716 34.8322 91.4542 34.8459 91.5372 34.8443C91.6281 34.844 91.7186 34.8303 91.8056 34.8039C91.8998 34.7744 91.9902 34.734 92.075 34.6834V34.8949C92.0163 34.9456 91.9529 34.9906 91.8856 35.0291C91.8215 35.0654 91.7545 35.0962 91.6852 35.1211C91.62 35.1437 91.5529 35.1606 91.4848 35.1716C91.423 35.1809 91.3606 35.1849 91.2981 35.1836ZM91.5951 33.4598C91.5224 33.4597 91.4507 33.4774 91.3864 33.5113C91.3194 33.5454 91.2593 33.5915 91.209 33.6474C91.1548 33.7067 91.1096 33.7736 91.0747 33.8459C91.0381 33.9212 91.0116 34.0009 90.9957 34.0831H91.1796C91.2802 34.0844 91.3807 34.0749 91.4793 34.0546C91.5565 34.0398 91.6311 34.0138 91.7008 33.9774C91.755 33.9499 91.8022 33.9102 91.8387 33.8616C91.8699 33.8196 91.8866 33.7686 91.8865 33.7163C91.8863 33.6847 91.8797 33.6534 91.8672 33.6244C91.855 33.5934 91.8365 33.5652 91.813 33.5416C91.7867 33.5159 91.7554 33.4959 91.721 33.4828C91.6809 33.4672 91.6381 33.4594 91.5951 33.4598Z" fill="white"/>
<path d="M94.3217 35.1474H93.954L93.9392 34.7273C93.8776 34.7972 93.8188 34.8597 93.7609 34.9112C93.7064 34.9643 93.6477 35.0129 93.5853 35.0564C93.5284 35.0951 93.4665 35.126 93.4014 35.1484C93.3373 35.1704 93.2698 35.1813 93.2019 35.1805C93.1084 35.1826 93.0162 35.1597 92.9344 35.1144C92.8574 35.0703 92.7914 35.0093 92.7413 34.936C92.6882 34.8575 92.649 34.7704 92.6255 34.6786C92.5992 34.5799 92.5859 34.4782 92.586 34.3761C92.5851 34.2596 92.6022 34.1436 92.6365 34.0323C92.6691 33.9264 92.7154 33.8254 92.7744 33.7317C92.8323 33.6405 92.9015 33.5571 92.9804 33.4834C93.0583 33.4126 93.144 33.3509 93.236 33.2996C93.3266 33.2486 93.4228 33.2085 93.5228 33.1801C93.62 33.1528 93.7205 33.1389 93.8216 33.1387C93.975 33.1403 94.1267 33.1716 94.2684 33.2306L94.5506 33.1387L94.3217 35.1474ZM94.0541 33.5423C94.0024 33.5119 93.9463 33.4899 93.8878 33.477C93.8415 33.4669 93.7944 33.4613 93.7471 33.4604C93.6584 33.4606 93.5709 33.4814 93.4915 33.5211C93.4079 33.5626 93.334 33.6212 93.2746 33.693C93.2084 33.7724 93.1569 33.863 93.1228 33.9606C93.084 34.0726 93.0651 34.1905 93.0668 34.309C93.0667 34.3769 93.0729 34.4446 93.0852 34.5113C93.0968 34.5705 93.1169 34.6278 93.145 34.6813C93.1694 34.728 93.2047 34.7681 93.2479 34.7981C93.2916 34.8283 93.3438 34.8437 93.3968 34.8422C93.4456 34.8423 93.4938 34.8323 93.5384 34.8128C93.589 34.7908 93.6366 34.7624 93.68 34.7282C93.7299 34.6891 93.7761 34.6454 93.8179 34.5977C93.8663 34.5448 93.9108 34.4886 93.9512 34.4295L94.0541 33.5423Z" fill="white"/>
<path d="M95.1662 33.1759H95.534L95.5459 33.6356C95.6029 33.5694 95.6599 33.5078 95.7187 33.4517C95.7757 33.3941 95.8372 33.3413 95.9026 33.2936C95.9623 33.2487 96.0279 33.2122 96.0975 33.1851C96.1661 33.1575 96.2396 33.1438 96.3135 33.1447C96.3819 33.1436 96.4498 33.1564 96.5131 33.1824C96.5703 33.207 96.6219 33.243 96.6647 33.2881C96.7072 33.334 96.7409 33.3872 96.764 33.4453C96.7892 33.5066 96.805 33.5714 96.8109 33.6375C96.8679 33.5703 96.9259 33.5069 96.9847 33.4481C97.0415 33.3903 97.1029 33.3374 97.1685 33.2899C97.2295 33.2459 97.2959 33.21 97.3662 33.1833C97.4349 33.1572 97.5079 33.1442 97.5813 33.1447C97.6623 33.1426 97.7425 33.1616 97.8139 33.1998C97.8785 33.235 97.9335 33.2855 97.9739 33.3469C98.0163 33.4113 98.0453 33.4835 98.0594 33.5593C98.0758 33.6429 98.079 33.7285 98.0686 33.813L97.916 35.1535H97.4664L97.6135 33.8553C97.6195 33.8087 97.6195 33.7614 97.6135 33.7147C97.6076 33.6738 97.5939 33.6345 97.573 33.5988C97.5546 33.5663 97.5284 33.5388 97.4967 33.5189C97.464 33.4982 97.426 33.4876 97.3874 33.4885C97.3379 33.4893 97.2893 33.501 97.2448 33.5225C97.1907 33.5469 97.1398 33.5777 97.0932 33.6145C97.0388 33.6581 96.9881 33.706 96.9415 33.7579C96.8901 33.8149 96.8418 33.8748 96.7971 33.9372V33.9298L96.6583 35.1498H96.2078L96.3558 33.8517C96.3623 33.805 96.3623 33.7577 96.3558 33.711C96.3498 33.6699 96.3354 33.6305 96.3135 33.5952C96.2944 33.5625 96.2676 33.5351 96.2354 33.5152C96.2021 33.4943 96.1634 33.4838 96.1242 33.4848C96.0754 33.4859 96.0274 33.4975 95.9835 33.5189C95.9301 33.5435 95.8798 33.5743 95.8337 33.6108C95.7797 33.6542 95.7295 33.7022 95.6838 33.7542C95.6327 33.811 95.5851 33.8709 95.5413 33.9335L95.4015 35.1461H94.9492L95.1662 33.1759Z" fill="white"/>
<path d="M98.542 34.7016L98.5788 34.6805C98.665 34.736 98.7576 34.7808 98.8546 34.8138C98.9434 34.8445 99.0365 34.861 99.1304 34.8625C99.1805 34.8629 99.2303 34.8561 99.2785 34.8423C99.3186 34.8314 99.3565 34.8137 99.3906 34.7899C99.4202 34.7705 99.445 34.7448 99.4632 34.7145C99.4787 34.6863 99.4869 34.6547 99.4871 34.6226C99.4875 34.5844 99.4745 34.5473 99.4504 34.5178C99.4222 34.4849 99.389 34.4566 99.352 34.4341C99.307 34.4069 99.2603 34.3827 99.2122 34.3615C99.1598 34.3385 99.1066 34.3146 99.0523 34.2889C98.9976 34.264 98.9442 34.2364 98.8923 34.2061C98.8418 34.1768 98.7949 34.1416 98.7526 34.1013C98.7121 34.0624 98.6788 34.0167 98.6542 33.9662C98.6286 33.9102 98.6161 33.8493 98.6174 33.7878C98.6179 33.7036 98.6384 33.6207 98.6772 33.546C98.7201 33.4652 98.7792 33.3942 98.8509 33.3373C98.9333 33.2729 99.0268 33.2239 99.1268 33.193C99.2419 33.1556 99.3624 33.1373 99.4835 33.1388C99.5697 33.1391 99.6557 33.1462 99.7409 33.1599C99.8287 33.1725 99.9148 33.1954 99.9974 33.2279L99.8778 33.5644L99.8356 33.5883C99.7661 33.5468 99.6908 33.5158 99.6121 33.4964C99.5383 33.4752 99.462 33.4641 99.3851 33.4633C99.336 33.4626 99.2871 33.4691 99.2398 33.4826C99.2008 33.4941 99.1638 33.5118 99.1304 33.535C99.1024 33.5547 99.0792 33.5805 99.0624 33.6104C99.0469 33.6385 99.0389 33.6702 99.0394 33.7023C99.0393 33.729 99.045 33.7555 99.0561 33.7797C99.0672 33.804 99.0835 33.8256 99.1038 33.843C99.154 33.8847 99.2093 33.92 99.2683 33.9478C99.3336 33.98 99.4044 34.0121 99.4807 34.0397C99.5547 34.0704 99.6255 34.1083 99.6922 34.1528C99.7561 34.1941 99.8116 34.2471 99.8558 34.3091C99.9006 34.3758 99.9234 34.4549 99.921 34.5352C99.921 34.6199 99.9002 34.7032 99.8604 34.7779C99.8164 34.8583 99.7567 34.929 99.6848 34.9857C99.6023 35.0503 99.5089 35.0995 99.409 35.131C99.2944 35.168 99.1745 35.186 99.0541 35.1843C98.9452 35.1841 98.8367 35.1717 98.7305 35.1475C98.6228 35.1237 98.518 35.0883 98.418 35.0418L98.542 34.7016Z" fill="white"/>
</svg>
