<svg width="135" height="23" viewBox="0 0 135 23" fill="none" xmlns="http://www.w3.org/2000/svg">
<g clip-path="url(#clip0)">
<path d="M4.58339 12.4296C4.5189 12.7745 4.58222 13.131 4.76149 13.4326C4.85445 13.5539 4.97564 13.6506 5.11451 13.7143C5.25338 13.778 5.40571 13.8068 5.55826 13.7982C5.79645 13.8125 6.03111 13.7354 6.21442 13.5826C6.2907 13.5201 6.35214 13.4414 6.39429 13.3522C6.43644 13.2631 6.45825 13.1657 6.45813 13.067C6.45898 12.9669 6.42958 12.8689 6.37377 12.7858C6.30436 12.6812 6.21122 12.5945 6.10193 12.5327C5.93302 12.4199 5.75418 12.3226 5.56763 12.2422C5.35204 12.1297 5.07083 12.0078 4.74275 11.8672L3.24295 11.2485C2.78984 11.0499 2.36191 10.7982 1.96813 10.4986C1.59261 10.1933 1.28863 9.80936 1.07763 9.3738C0.844571 8.91892 0.728589 8.41311 0.740177 7.90213C0.715043 7.23906 0.895081 6.58438 1.25573 6.02739C1.5976 5.51406 2.05717 5.08985 2.59617 4.79007C3.18235 4.46933 3.81481 4.24165 4.47091 4.11516C5.16944 3.98407 5.87864 3.91817 6.58936 3.91831C7.47483 3.88786 8.3583 4.02133 9.19525 4.31201C9.76961 4.52413 10.2864 4.8676 10.7044 5.31499C11.0418 5.69086 11.2717 6.15065 11.37 6.64606C11.4639 7.09901 11.4892 7.56352 11.4449 8.02399H6.91744C6.97132 7.70804 6.9356 7.38331 6.81433 7.08662C6.74455 6.98426 6.64863 6.90245 6.53654 6.8497C6.42445 6.79695 6.30027 6.77519 6.17692 6.78666C5.9569 6.77781 5.7399 6.84028 5.55826 6.96476C5.47074 7.02284 5.39971 7.10255 5.35208 7.19617C5.30445 7.28979 5.28183 7.39413 5.28642 7.49906C5.28353 7.62965 5.31708 7.75847 5.38331 7.87105C5.44954 7.98364 5.54583 8.07555 5.66137 8.13648C6.03248 8.35449 6.42514 8.53354 6.83308 8.67078L8.31413 9.24257C8.79061 9.42745 9.24116 9.6732 9.65456 9.97372C10.0338 10.2653 10.3522 10.6284 10.5919 11.0423C10.8613 11.5424 10.9908 12.1058 10.9669 12.6733C10.9719 13.2821 10.8406 13.8842 10.5826 14.4356C10.3164 14.9793 9.92827 15.454 9.44834 15.8229C8.89185 16.2567 8.25454 16.5754 7.5736 16.7603C6.75481 16.9813 5.90949 17.0885 5.06145 17.079C4.30877 17.063 3.56162 16.9464 2.83989 16.7322C2.23296 16.5751 1.66913 16.2836 1.19011 15.8791C0.755797 15.4929 0.432244 14.9978 0.252745 14.445C0.0297746 13.7981 -0.0470571 13.1098 0.0277764 12.4296H4.58339Z" fill="white"/>
<path d="M18.4842 16.6675C18.1749 16.7238 17.828 16.7706 17.4531 16.8175C16.9578 16.8644 16.4601 16.8832 15.9627 16.8737C15.4927 16.8748 15.0231 16.8466 14.5566 16.7894C14.1467 16.7442 13.7524 16.6064 13.4037 16.3863C13.0653 16.1586 12.8064 15.8309 12.6631 15.4489C12.4892 14.8784 12.4476 14.2757 12.5413 13.6867L12.8787 10.4434H11.6133L11.9132 7.63128H13.1506L13.413 5.02539H17.6687L17.3969 7.63128H19.4403L19.131 10.4434H17.0969L16.9 12.7212C16.8545 12.9154 16.8545 13.1175 16.9 13.3117C16.9373 13.4482 17.012 13.5716 17.1156 13.6679C17.2257 13.7546 17.3539 13.8154 17.4906 13.846C17.6465 13.8607 17.8034 13.8607 17.9593 13.846C18.2381 13.8504 18.5169 13.8347 18.7935 13.7992L18.4842 16.6675Z" fill="white"/>
<path d="M30.7166 7.58415L29.7793 16.6673H25.5049L25.6642 15.2706C25.5754 15.4641 25.455 15.6415 25.308 15.7955C25.1151 15.9967 24.8978 16.173 24.6612 16.3204C24.3659 16.4917 24.0513 16.627 23.7239 16.7235C23.3635 16.8393 22.9869 16.8962 22.6084 16.8922C22.1283 16.897 21.6525 16.8012 21.2117 16.611C20.7887 16.4224 20.4161 16.1365 20.1244 15.7768C19.8083 15.3799 19.5669 14.9289 19.412 14.4457C19.2361 13.8687 19.1507 13.2679 19.1589 12.6647C19.148 11.9206 19.2718 11.1806 19.5244 10.4806C19.7292 9.8676 20.0471 9.29845 20.4618 8.80273C20.8544 8.35063 21.3406 7.98922 21.8866 7.7435C22.4175 7.49461 22.9969 7.36656 23.5832 7.36855C23.9754 7.34252 24.3691 7.38697 24.7456 7.49978C25.0331 7.59685 25.3048 7.73583 25.5517 7.91223C25.752 8.06362 25.9288 8.24365 26.0767 8.44653C26.1923 8.59993 26.2752 8.77539 26.3204 8.96208L26.461 7.54665L30.7166 7.58415ZM24.6237 13.424C24.8003 13.4203 24.9744 13.3811 25.1354 13.3086C25.2965 13.2362 25.4413 13.1319 25.5611 13.0021C25.6908 12.8716 25.7933 12.7164 25.8625 12.5459C25.9317 12.3753 25.9663 12.1926 25.9642 12.0085C25.9698 11.7025 25.8554 11.4064 25.6455 11.1836C25.5408 11.0701 25.413 10.9804 25.2707 10.9206C25.1284 10.8608 24.9749 10.8322 24.8206 10.8368C24.6429 10.8394 24.4677 10.8791 24.3063 10.9533C24.1449 11.0276 24.0008 11.1348 23.8832 11.268C23.7508 11.3956 23.6452 11.5484 23.5728 11.7175C23.5003 11.8865 23.4625 12.0683 23.4614 12.2522C23.4578 12.5579 23.5719 12.8533 23.7801 13.0771C23.8864 13.1936 24.0172 13.2851 24.163 13.3451C24.3089 13.405 24.4662 13.432 24.6237 13.424Z" fill="white"/>
<path d="M39.6215 11.3697C39.4 11.3052 39.1745 11.2551 38.9466 11.2197C38.7481 11.189 38.5475 11.1733 38.3467 11.1728C38.0305 11.1673 37.7151 11.2051 37.4093 11.2853C37.1208 11.3514 36.8514 11.4829 36.6219 11.6696C36.3614 11.886 36.1532 12.1583 36.0126 12.4664C35.8327 12.8902 35.7189 13.3391 35.6752 13.7975L35.3752 16.6658H31.1758L32.1132 7.58269H36.3594L36.2001 9.03561C36.338 8.82195 36.4948 8.62117 36.6688 8.4357C36.863 8.23324 37.0801 8.05395 37.3156 7.9014C37.5739 7.72953 37.8546 7.59391 38.1498 7.49833C38.4846 7.40056 38.8321 7.35317 39.1809 7.35772C39.468 7.35711 39.7532 7.40464 40.0245 7.49833L39.6215 11.3697Z" fill="white"/>
<path d="M59.2408 16.6674H54.9007L55.7163 8.96224L53.0822 16.6674H49.764L48.5266 8.96224L47.7111 16.6674H43.3711L44.6834 4.27539H50.7388L51.9293 11.6712L54.6758 4.27539H60.5531L59.2408 16.6674Z" fill="white"/>
<path d="M72.3277 7.58467L71.3903 16.6678H67.1253L67.2846 15.2711C67.1886 15.4627 67.0655 15.6395 66.919 15.796C66.7301 16.0015 66.5122 16.1784 66.2722 16.321C65.9764 16.491 65.6618 16.6263 65.3349 16.724C64.9742 16.8384 64.5978 16.8953 64.2194 16.8927C63.7362 16.8983 63.2572 16.8025 62.8134 16.6115C62.3903 16.4229 62.0178 16.137 61.726 15.7773C61.4094 15.3822 61.1708 14.9305 61.023 14.4462C60.8393 13.8707 60.7506 13.2692 60.7605 12.6652C60.7496 11.9211 60.8735 11.1811 61.1261 10.4811C61.3308 9.86812 61.6488 9.29897 62.0635 8.80325C62.4561 8.35115 62.9422 7.98974 63.4883 7.74402C64.0191 7.49513 64.5986 7.36707 65.1849 7.36907C65.5802 7.34191 65.9771 7.38636 66.3566 7.5003C66.6442 7.59737 66.9158 7.73635 67.1627 7.91274C67.3652 8.06155 67.5425 8.24195 67.6877 8.44705C67.8033 8.60045 67.8862 8.7759 67.9314 8.9626L68.0814 7.54717L72.3277 7.58467ZM66.2347 13.4245C66.4113 13.4209 66.5854 13.3816 66.7465 13.3092C66.9075 13.2367 67.0523 13.1324 67.1721 13.0027C67.3019 12.8721 67.4043 12.717 67.4735 12.5464C67.5427 12.3758 67.5773 12.1931 67.5752 12.0091C67.5808 11.703 67.4664 11.4069 67.2565 11.1842C67.1518 11.0707 67.024 10.981 66.8817 10.9211C66.7394 10.8613 66.5859 10.8327 66.4316 10.8373C66.2539 10.8399 66.0788 10.8796 65.9173 10.9539C65.7559 11.0281 65.6118 11.1353 65.4942 11.2685C65.3635 11.3969 65.2597 11.5501 65.1889 11.7191C65.118 11.8881 65.0816 12.0695 65.0818 12.2528C65.0782 12.5584 65.1923 12.8538 65.4005 13.0777C65.5066 13.1919 65.636 13.282 65.7799 13.3418C65.9238 13.4017 66.079 13.4298 66.2347 13.4245Z" fill="white"/>
<path d="M83.5566 15.7115C83.5045 16.1584 83.4167 16.6004 83.2941 17.0332C83.1966 17.3811 83.0548 17.715 82.8723 18.0268C82.7087 18.301 82.5067 18.5504 82.2724 18.7673C82.0395 18.9725 81.7849 19.1517 81.5131 19.3016C80.2828 19.9897 78.8919 20.3391 77.4824 20.314C76.6467 20.3202 75.8151 20.1969 75.0171 19.9484C74.7355 19.8679 74.4599 19.7676 74.1923 19.6485C74.0263 19.5772 73.8664 19.4925 73.7142 19.3954C73.5446 19.2739 73.3904 19.1322 73.2549 18.9736C73.0857 18.7787 72.9351 18.5684 72.805 18.3455C72.6715 18.1059 72.5677 17.8509 72.4956 17.5863C72.4257 17.3204 72.4066 17.0437 72.4394 16.7708H76.695C76.6876 16.8844 76.7076 16.9983 76.7533 17.1027C76.7989 17.207 76.869 17.2989 76.9575 17.3707C77.074 17.4784 77.2117 17.5607 77.3618 17.6124C77.5119 17.664 77.6711 17.6839 77.8293 17.6706C78.1672 17.6734 78.4967 17.5646 78.7666 17.3613C78.914 17.2347 79.0347 17.0799 79.1216 16.9061C79.2086 16.7323 79.2599 16.5428 79.2728 16.3489L79.4134 15.0741C79.2919 15.2408 79.1537 15.3947 79.001 15.5334C78.8168 15.6996 78.6121 15.8414 78.3917 15.9552C78.1239 16.0941 77.8407 16.201 77.548 16.2739C76.7138 16.4637 75.8444 16.4314 75.0265 16.1802C74.6062 16.0381 74.2244 15.8007 73.911 15.4866C73.5712 15.1505 73.3088 14.7442 73.1424 14.2961C72.9501 13.7322 72.8581 13.1389 72.8706 12.5432C72.8661 11.8432 72.9737 11.147 73.1893 10.481C73.3954 9.87994 73.7135 9.32334 74.1266 8.8406C74.4961 8.38688 74.9599 8.01904 75.4858 7.76263C76.0723 7.48935 76.7137 7.35465 77.3606 7.36893C77.968 7.34956 78.5697 7.49189 79.1041 7.78137C79.5613 8.0523 79.8969 8.48856 80.0415 8.99996L80.2008 7.58453H84.3909L83.5566 15.7115ZM78.5417 10.8372C78.3536 10.8363 78.1677 10.8779 77.998 10.9591C77.8317 11.0313 77.6818 11.1365 77.5574 11.2684C77.4332 11.4007 77.3319 11.5528 77.2575 11.7183C77.1827 11.8865 77.1443 12.0686 77.145 12.2526C77.1412 12.4043 77.1674 12.5553 77.2221 12.6968C77.2768 12.8384 77.3589 12.9678 77.4637 13.0775C77.5671 13.1925 77.6947 13.2833 77.8373 13.3432C77.9799 13.4032 78.134 13.4309 78.2886 13.4243C78.4653 13.4213 78.6395 13.3823 78.8006 13.3098C78.9618 13.2373 79.1065 13.1327 79.2259 13.0025C79.3689 12.878 79.485 12.7257 79.5672 12.5549C79.6494 12.3841 79.6959 12.1983 79.704 12.0089C79.7092 11.7047 79.5986 11.4098 79.3947 11.184C79.2869 11.0668 79.1545 10.9749 79.0071 10.915C78.8596 10.855 78.7006 10.8284 78.5417 10.8372Z" fill="white"/>
<path d="M96.3902 7.58467L95.4528 16.6678H91.1878L91.3471 15.2711C91.2511 15.4627 91.128 15.6395 90.9815 15.796C90.7926 16.0015 90.5747 16.1784 90.3347 16.321C90.0389 16.491 89.7243 16.6263 89.3974 16.724C89.0367 16.8384 88.6603 16.8953 88.2819 16.8927C87.7988 16.8974 87.32 16.8017 86.8759 16.6115C86.4528 16.4229 86.0803 16.137 85.7885 15.7773C85.4719 15.3822 85.2333 14.9305 85.0855 14.4462C84.9018 13.8707 84.8131 13.2692 84.823 12.6652C84.8121 11.9211 84.936 11.1811 85.1886 10.4811C85.3933 9.86812 85.7113 9.29897 86.126 8.80325C86.5186 8.35115 87.0047 7.98974 87.5508 7.74402C88.0816 7.49513 88.6611 7.36707 89.2474 7.36907C89.6427 7.34191 90.0396 7.38636 90.4191 7.5003C90.7067 7.59737 90.9783 7.73635 91.2253 7.91274C91.4277 8.06155 91.605 8.24195 91.7502 8.44705C91.8645 8.60247 91.9503 8.77706 92.0033 8.9626L92.1439 7.54717L96.3902 7.58467ZM90.2973 13.4245C90.4739 13.4214 90.6481 13.3824 90.8093 13.3099C90.9704 13.2374 91.1152 13.1329 91.2346 13.0027C91.3656 12.8725 91.4696 12.7177 91.5404 12.5472C91.6111 12.3766 91.6474 12.1937 91.6471 12.0091C91.6488 11.7037 91.5349 11.409 91.3284 11.1842C91.2212 11.0714 91.0916 10.9822 90.9479 10.9225C90.8042 10.8628 90.6497 10.8338 90.4941 10.8373C90.3164 10.8399 90.1413 10.8796 89.9798 10.9539C89.8184 11.0281 89.6743 11.1353 89.5567 11.2685C89.426 11.3969 89.3222 11.5501 89.2514 11.7191C89.1805 11.8881 89.1441 12.0695 89.1443 12.2528C89.1407 12.5584 89.2548 12.8538 89.463 13.0777C89.5691 13.1919 89.6985 13.282 89.8424 13.3418C89.9863 13.4017 90.1415 13.4298 90.2973 13.4245Z" fill="white"/>
<path d="M106.692 7.58398L102.661 13.2082H105.736L105.389 16.6671H96.1465L100.196 11.0429H97.187L97.5619 7.59336L106.692 7.58398Z" fill="white"/>
<path d="M107.459 7.58389H111.705L110.768 16.667H106.521L107.459 7.58389ZM107.459 5.11861C107.455 4.79552 107.522 4.47557 107.656 4.18124C107.79 3.90361 107.978 3.65518 108.209 3.45009C108.448 3.23402 108.729 3.06826 109.034 2.96266C109.362 2.85002 109.708 2.79917 110.055 2.81268C110.627 2.79138 111.186 2.97787 111.63 3.3376C111.836 3.52517 111.998 3.75626 112.103 4.01407C112.208 4.27188 112.255 4.54993 112.239 4.82802C112.245 5.14641 112.179 5.46201 112.048 5.75212C111.917 6.04223 111.723 6.29967 111.48 6.50591C111.242 6.70477 110.968 6.85736 110.674 6.95585C110.357 7.06249 110.024 7.11633 109.69 7.1152C109.098 7.14695 108.517 6.94879 108.068 6.56216C107.872 6.37803 107.718 6.1538 107.616 5.90471C107.514 5.65562 107.467 5.38751 107.478 5.11861H107.459Z" fill="white"/>
<path d="M113.122 7.58369H117.368L117.2 8.96162C117.475 8.46019 117.897 8.05471 118.409 7.79928C119.414 7.31933 120.557 7.21299 121.633 7.49933C121.985 7.59315 122.307 7.77364 122.571 8.02425C122.759 8.20077 122.904 8.4191 122.993 8.66166C123.089 8.91873 123.155 9.18611 123.19 9.45843C123.214 9.75164 123.214 10.0463 123.19 10.3396C123.2 10.6534 123.178 10.9676 123.124 11.2769L122.561 16.6481H118.325L118.803 12.0737C118.89 11.2488 118.628 10.8364 118.015 10.8364C117.87 10.8279 117.726 10.8531 117.592 10.91C117.459 10.9669 117.341 11.054 117.247 11.1644C117.016 11.5089 116.889 11.9123 116.881 12.3268L116.412 16.6481H112.166L113.122 7.58369Z" fill="white"/>
<path d="M128.054 12.9267C128.026 13.0849 128.026 13.2467 128.054 13.4048C128.067 13.5619 128.118 13.7134 128.204 13.8454C128.286 13.9858 128.406 14.0998 128.551 14.1734C128.745 14.2745 128.961 14.3229 129.179 14.314C129.481 14.321 129.779 14.2465 130.042 14.0984C130.154 14.0399 130.254 13.959 130.335 13.8607C130.415 13.7624 130.475 13.6488 130.51 13.5267H134.588C134.462 14.0309 134.232 14.5033 133.913 14.914C133.579 15.3383 133.173 15.7001 132.713 15.9826C132.201 16.2966 131.645 16.5335 131.063 16.6856C130.386 16.8522 129.69 16.9341 128.992 16.9293C127.648 17.0037 126.32 16.6021 125.242 15.7951C124.79 15.4056 124.433 14.9173 124.199 14.368C123.965 13.8187 123.86 13.223 123.893 12.6268C123.889 11.9404 124.016 11.2596 124.267 10.6208C124.526 9.98102 124.912 9.40055 125.402 8.91479C125.942 8.40539 126.58 8.01008 127.276 7.75245C128.113 7.44511 129 7.29573 129.892 7.31189C130.664 7.29668 131.434 7.41074 132.17 7.64934C132.757 7.85447 133.298 8.17295 133.763 8.58671C134.176 8.93487 134.498 9.37901 134.7 9.88028C135.011 10.6572 135.083 11.5089 134.907 12.3268C134.841 12.5987 134.785 12.8142 134.738 12.9642L128.054 12.9267ZM129.648 9.83341C129.304 9.82226 128.969 9.94297 128.711 10.1709C128.453 10.4192 128.293 10.7519 128.261 11.1082H130.782C130.81 10.9443 130.803 10.7764 130.763 10.6151C130.722 10.4538 130.649 10.3026 130.548 10.1709C130.433 10.0511 130.292 9.95864 130.136 9.90026C129.98 9.84187 129.814 9.81903 129.648 9.83341Z" fill="white"/>
<path d="M66.1034 5.8496L65.9721 5.15595H63.938L63.6381 5.8496H62.2227L64.9598 0.150391H66.1784L67.5188 5.8496H66.1034ZM65.3722 1.78141L64.4349 4.12484H65.8128L65.3722 1.78141Z" fill="white"/>
<path d="M70.0033 1.25649L69.8158 2.81252H71.9717L71.8405 3.89987H69.6845L69.4408 5.86835H68.1191L68.8128 0.150391H72.2998L72.2061 1.25649H70.0033Z" fill="white"/>
<path d="M73.2933 0.150624H75.6929C75.979 0.146356 76.2629 0.200583 76.5272 0.309977C76.7579 0.413876 76.9628 0.567526 77.1271 0.759915C77.2853 0.953336 77.4032 1.17643 77.4739 1.41607C77.526 1.67911 77.526 1.9498 77.4739 2.21284C77.4248 2.60887 77.2765 2.98609 77.0428 3.30956C76.8027 3.63636 76.4789 3.89223 76.1054 4.05008L77.0428 5.84983H75.5523L74.7368 4.27505H74.0807L73.8838 5.84983H72.5996L73.2933 0.150624ZM75.168 3.19708C75.3006 3.19646 75.4316 3.16771 75.5523 3.11271C75.6708 3.06091 75.7789 2.98784 75.871 2.89712C75.9585 2.80582 76.0312 2.70146 76.0866 2.58779C76.1501 2.47211 76.1884 2.34434 76.1991 2.21284C76.2229 2.08899 76.2229 1.96174 76.1991 1.83789C76.1726 1.7238 76.1249 1.6157 76.0585 1.51918C75.9864 1.43045 75.8971 1.35713 75.796 1.30359C75.6825 1.24711 75.5573 1.2182 75.4305 1.21923H74.4931L74.2588 3.19708H75.168Z" fill="white"/>
<path d="M78.6253 0.150391H79.9657L79.2627 5.8496H77.9316L78.6253 0.150391Z" fill="white"/>
<path d="M86.266 3.80618C86.1806 4.11289 86.0409 4.4018 85.8535 4.65919C85.6624 4.92687 85.4317 5.16393 85.1692 5.36222C84.8818 5.56417 84.5659 5.72213 84.2319 5.8309C83.8778 5.94596 83.5074 6.00294 83.1351 5.99963C82.704 6.00766 82.276 5.92461 81.8791 5.75591C81.5407 5.60461 81.2399 5.38058 80.9979 5.09975C80.7673 4.82775 80.6007 4.5074 80.5105 4.16238C80.413 3.78613 80.3907 3.39431 80.4449 3.00942C80.4842 2.61566 80.592 2.2318 80.7636 1.8752C80.944 1.52321 81.1851 1.20587 81.476 0.937833C81.7762 0.645764 82.1294 0.413535 82.5165 0.253553C82.9165 0.0832668 83.3472 -0.00288334 83.7819 0.000463276C84.1743 -0.0061131 84.5648 0.0573729 84.9349 0.187937C85.2402 0.295495 85.5185 0.468219 85.7504 0.694117C85.9644 0.906545 86.1306 1.16221 86.2378 1.44401C86.346 1.74458 86.4 2.06196 86.3972 2.38138H85.0193C85.0158 2.20781 84.9809 2.0363 84.9161 1.8752C84.8539 1.7343 84.7648 1.60693 84.6537 1.50025C84.5389 1.3903 84.4013 1.30707 84.2506 1.25654C84.0806 1.18971 83.8989 1.15783 83.7163 1.1628C83.4553 1.15714 83.1963 1.20832 82.957 1.31278C82.7375 1.41051 82.5375 1.54706 82.3665 1.71585C82.1975 1.87947 82.0607 2.07344 81.9634 2.28765C81.8612 2.50027 81.7947 2.72829 81.7666 2.96255C81.7236 3.19492 81.7236 3.43321 81.7666 3.66558C81.8105 3.87788 81.9036 4.07693 82.0384 4.24675C82.1777 4.41587 82.3541 4.5506 82.554 4.64044C82.7912 4.73981 83.0468 4.78773 83.3039 4.78105C83.463 4.77973 83.621 4.75445 83.7726 4.70606C83.9259 4.6552 84.0711 4.5826 84.2038 4.49046C84.3374 4.40219 84.4574 4.29481 84.5599 4.17176C84.6589 4.05412 84.7381 3.92115 84.7943 3.77806L86.266 3.80618Z" fill="white"/>
<path d="M89.9315 5.8496L89.7909 5.15595H87.7662L87.4568 5.8496H86.0508L88.7785 0.150391H90.0159L91.3844 5.8496H89.9315ZM89.191 1.78141L88.2067 4.12484H89.594L89.191 1.78141Z" fill="white"/>
<path d="M134.269 18.6719H85.1699C85.1699 18.6719 84.7199 21.0997 80.0237 22.5526C75.9555 23.818 134.269 18.6719 134.269 18.6719Z" fill="white"/>
</g>
<defs>
<clipPath id="clip0">
<rect width="135" height="22.7537" fill="white"/>
</clipPath>
</defs>
</svg>
