<svg width="100" height="47" viewBox="0 0 100 47" fill="none" xmlns="http://www.w3.org/2000/svg">
<path d="M23.9602 28.3866L18.4031 35.8659V28.7601V11.2326L27.6041 22.8751L32.3413 23.0026L14.75 0V28.8603V46.8252L28.916 27.8947L29.2348 27.4756H24.6343L23.9602 28.3866Z" fill="white"/>
<path d="M7.85278 27.4939V35.3194L3.78974 29.3706V25.6264V10.1486L0 15.2957V23.4764V31.8029L11.9067 46.6886V28.6782V0.136719L7.85278 4.46395V27.4939Z" fill="white"/>
<path d="M48.7307 27.5943C47.2006 28.6249 45.369 29.1125 43.529 28.979C38.8039 28.979 36.4414 26.9415 36.4414 22.8663V13.3555H38.6278V22.8663C38.5809 23.4402 38.6619 24.0174 38.8652 24.5562C39.0684 25.095 39.3887 25.5819 39.803 25.9819C40.8967 26.7488 42.2253 27.1067 43.5563 26.9931C44.8911 27.1031 46.2223 26.7421 47.3187 25.9728C47.7307 25.5889 48.0498 25.1161 48.2518 24.5905C48.4539 24.0649 48.5335 23.5002 48.4848 22.9391V13.3555H50.6712V22.9118C50.7396 23.7874 50.6023 24.667 50.2701 25.48C49.9379 26.2931 49.4201 27.0172 48.7581 27.5943" fill="white"/>
<path d="M67.5858 28.8242V17.9196L61.6826 28.8242H60.1066L54.2033 17.9196V28.8242H52.0078V13.3555H54.1578L60.8809 25.7906L67.6405 13.3555H69.7813V28.8242H67.5858Z" fill="white"/>
<path d="M71.1484 28.8242V13.3555H83.9388V15.3414H73.3166V19.7871H82.7363V21.7731H73.3166V26.8382H84.0573V28.8242H71.1484Z" fill="white"/>
<path d="M97.814 28.8242V21.7731H87.5744V28.8242H85.3789V13.3555H87.5744V19.7871H97.814V13.3555H100V28.8242H97.814Z" fill="white"/>
<path d="M42.889 35.528H40.156V34.7081H43.7271C43.7623 34.9343 43.7836 35.1625 43.7908 35.3913C43.8162 35.789 43.7401 36.1866 43.5695 36.5467C43.399 36.9069 43.1398 37.2178 42.8161 37.4502C42.1421 37.9045 41.3418 38.1341 40.5295 38.1061C39.5764 38.1571 38.6363 37.8664 37.8785 37.2862C37.5323 36.996 37.2583 36.6293 37.078 36.2151C36.8978 35.8009 36.8163 35.3505 36.8399 34.8994C36.8189 34.4542 36.897 34.01 37.0688 33.5988C37.2405 33.1875 37.5015 32.8196 37.8329 32.5217C38.5639 31.8964 39.5045 31.5709 40.4657 31.6107C41.1747 31.5864 41.8778 31.7465 42.5063 32.0753C42.8454 32.3131 43.1298 32.6206 43.3403 32.9773C43.5508 33.3339 43.6827 33.7315 43.7271 34.1433H42.8161C42.7205 33.6338 42.4418 33.1769 42.0326 32.8587C41.541 32.566 40.9732 32.4265 40.4019 32.4579C39.6736 32.4148 38.9556 32.6455 38.3886 33.1047C38.1423 33.3366 37.9507 33.6204 37.8278 33.9356C37.7049 34.2507 37.6538 34.5893 37.6781 34.9267C37.6509 35.2652 37.7016 35.6054 37.8264 35.9213C37.9511 36.2371 38.1466 36.5202 38.3977 36.7487C38.9857 37.1999 39.7169 37.4231 40.4566 37.3773C41.0592 37.3943 41.6529 37.2292 42.1602 36.9036C42.3963 36.7634 42.5893 36.5609 42.7179 36.3182C42.8464 36.0755 42.9056 35.8021 42.889 35.528Z" fill="white"/>
<path d="M45.9342 34.7733C45.6668 35.1876 45.5332 35.6742 45.5516 36.1671V38.0437H44.6406V33.4887H45.5516V33.9078C46.1397 33.5244 46.8376 33.3451 47.5376 33.3977V34.1902C47.2401 34.1498 46.9372 34.1836 46.6559 34.2885C46.3746 34.3934 46.1236 34.5662 45.9251 34.7915" fill="white"/>
<path d="M52.4536 37.4783C51.9073 37.909 51.2318 38.1433 50.536 38.1433C49.8402 38.1433 49.1647 37.909 48.6183 37.4783C48.3836 37.2608 48.1986 36.9952 48.0759 36.6996C47.9533 36.404 47.8959 36.0854 47.9078 35.7656C47.8988 35.444 47.9583 35.1241 48.0824 34.8273C48.2064 34.5304 48.3922 34.2634 48.6275 34.0438C49.1588 33.5831 49.8472 33.3449 50.5497 33.3788C51.2498 33.3415 51.9367 33.5803 52.4627 34.0438C52.6968 34.2638 52.8812 34.5312 53.0037 34.8281C53.1263 35.125 53.1841 35.4446 53.1733 35.7656C53.1852 36.0863 53.127 36.4056 53.0027 36.7014C52.8784 36.9973 52.691 37.2624 52.4536 37.4783ZM51.8251 34.6177C51.4678 34.3153 51.0078 34.162 50.5405 34.1896C50.3111 34.1752 50.081 34.2064 49.8636 34.2815C49.6463 34.3565 49.446 34.4739 49.2743 34.6269C48.9816 34.9392 48.8187 35.3512 48.8187 35.7793C48.8187 36.2073 48.9816 36.6193 49.2743 36.9317C49.4462 37.0842 49.6466 37.2013 49.8639 37.2764C50.0812 37.3514 50.3111 37.3829 50.5405 37.369C51.006 37.3916 51.4624 37.2352 51.8159 36.9317C51.9705 36.7843 52.0918 36.6057 52.1719 36.4078C52.2521 36.2099 52.2891 35.9972 52.2805 35.7838C52.2894 35.5685 52.2535 35.3537 52.1751 35.153C52.0967 34.9523 51.9775 34.77 51.8251 34.6177Z" fill="white"/>
<path d="M57.4369 38.0615V37.7426C57.0025 38.0199 56.4945 38.1596 55.9794 38.1435C55.439 38.1713 54.9045 38.0209 54.458 37.7153C54.2528 37.5621 54.0889 37.3604 53.9807 37.1283C53.8726 36.8962 53.8238 36.6409 53.8385 36.3852V33.4883H54.7495V36.3761C54.7495 37.0321 55.1686 37.3509 55.9976 37.3509C56.1921 37.3823 56.3913 37.3678 56.5793 37.3087C56.7672 37.2496 56.9388 37.1474 57.0804 37.0103C57.2219 36.8732 57.3295 36.7049 57.3945 36.5189C57.4596 36.3329 57.4804 36.1343 57.4552 35.9389V33.4883H58.3662V38.0433L57.4369 38.0615Z" fill="white"/>
<path d="M63.7699 37.5791C63.523 37.8264 63.2264 38.0184 62.8997 38.1424C62.5731 38.2665 62.2238 38.3198 61.875 38.2988C61.2832 38.3213 60.7025 38.1342 60.2352 37.7705V39.5924H59.3242V33.4797H60.2352V33.8987C60.7601 33.5314 61.3923 33.3491 62.0322 33.3804C62.6721 33.4117 63.2834 33.655 63.7699 34.0718C64.2084 34.5463 64.441 35.1753 64.4167 35.8209C64.4429 36.468 64.2139 37.0994 63.779 37.5791H63.7699ZM63.0684 34.6184C62.9158 34.4612 62.7308 34.3391 62.5263 34.2604C62.3219 34.1818 62.1027 34.1485 61.8841 34.1629C61.6582 34.1503 61.4321 34.1834 61.2192 34.2601C61.0064 34.3368 60.8111 34.4555 60.6452 34.6093C60.4945 34.7644 60.3773 34.9487 60.3005 35.1508C60.2237 35.3529 60.1891 35.5685 60.1988 35.7845C60.1666 36.0117 60.1878 36.2433 60.2608 36.4609C60.3338 36.6785 60.4565 36.8761 60.6193 37.0379C60.782 37.1998 60.9802 37.3214 61.1982 37.3933C61.4162 37.4651 61.6479 37.485 61.875 37.4516C62.0971 37.4651 62.3194 37.4305 62.5269 37.3504C62.7344 37.2702 62.9222 37.1463 63.0775 36.987C63.3614 36.6602 63.5054 36.2348 63.4784 35.8027C63.4972 35.3702 63.3506 34.9467 63.0684 34.6184Z" fill="white"/>
<path d="M68.9805 38.0424V31.7109H69.8732V37.2316H73.8634V38.0424H68.9805Z" fill="white"/>
<path d="M74.7029 32.9863C74.6043 32.9863 74.5084 32.9543 74.4296 32.8952C74.3508 32.8361 74.2932 32.7529 74.2656 32.6583V31.966C74.2964 31.8725 74.3546 31.7904 74.4325 31.7303C74.5105 31.6702 74.6047 31.6349 74.7029 31.6289C74.7958 31.6443 74.8847 31.678 74.9645 31.728C75.0442 31.7781 75.1132 31.8435 75.1675 31.9204V32.713C75.1134 32.7885 75.0442 32.8518 74.9641 32.8988C74.8841 32.9459 74.7951 32.9757 74.7029 32.9863ZM74.2656 33.296H75.1766V38.0423H74.2656V33.296Z" fill="white"/>
<path d="M82.4265 38.0424V35.1181C82.4377 34.987 82.4226 34.8549 82.3819 34.7297C82.3412 34.6045 82.2758 34.4888 82.1896 34.3893C81.9675 34.2231 81.6915 34.1452 81.4153 34.1707C81.0878 34.1548 80.7653 34.2548 80.5043 34.4531C80.3968 34.5507 80.3118 34.6705 80.2551 34.8042C80.1985 34.9379 80.1716 35.0823 80.1763 35.2275V38.0424H79.2562V35.1181C79.2708 34.9861 79.2564 34.8524 79.2139 34.7265C79.1714 34.6006 79.1019 34.4855 79.0102 34.3893C78.7803 34.2249 78.4994 34.1474 78.2177 34.1707C78.0451 34.1621 77.8729 34.1939 77.7148 34.2634C77.5567 34.333 77.4169 34.4385 77.3067 34.5715C77.0964 34.8276 76.9863 35.1514 76.9969 35.4825V38.0242H76.0859V33.4692H76.9969V33.7061C77.3932 33.4528 77.857 33.3257 78.327 33.3417C78.601 33.3213 78.8761 33.3631 79.1317 33.4641C79.3873 33.5651 79.6167 33.7225 79.8028 33.9247C80.0135 33.7196 80.2654 33.5615 80.5419 33.461C80.8183 33.3605 81.1129 33.3198 81.4062 33.3417C81.9175 33.3072 82.4245 33.4557 82.8364 33.7608C83.005 33.918 83.1365 34.1107 83.2216 34.3249C83.3067 34.5392 83.3431 34.7697 83.3284 34.9997V38.006L82.4265 38.0424Z" fill="white"/>
<path d="M84.7211 32.9863C84.6234 32.9874 84.5281 32.9556 84.4505 32.8962C84.3729 32.8367 84.3174 32.753 84.293 32.6583V31.966C84.321 31.8725 84.3771 31.79 84.4537 31.7297C84.5304 31.6694 84.6237 31.6342 84.7211 31.6289C84.8147 31.6422 84.9044 31.6751 84.9844 31.7253C85.0645 31.7755 85.1331 31.842 85.1857 31.9204V32.713C85.1317 32.7885 85.0624 32.8518 84.9824 32.8988C84.9023 32.9459 84.8134 32.9757 84.7211 32.9863ZM84.293 33.296H85.204V38.0423H84.293V33.296Z" fill="white"/>
<path d="M87.585 34.3896V38.0427H86.7013L86.6831 34.3896H85.7539V33.5788H86.6831V32.3125H87.585V33.5788H88.5233V34.3896H87.585Z" fill="white"/>
<path d="M89.7242 36.121C89.8335 36.9409 90.3801 37.3508 91.364 37.3508C91.7111 37.3821 92.0589 37.2994 92.3548 37.1153C92.6506 36.9312 92.8785 36.6557 93.0038 36.3305H93.9148C93.7562 36.9558 93.3567 37.4929 92.8034 37.8246C92.3481 38.0498 91.8444 38.1594 91.3367 38.1434C90.9909 38.1662 90.6441 38.1191 90.317 38.0048C89.9898 37.8905 89.6891 37.7115 89.4327 37.4784C89.0156 37.0012 88.7918 36.3853 88.8053 35.7516C88.8187 35.1179 89.0685 34.5121 89.5056 34.053C89.7574 33.8208 90.0532 33.6415 90.3756 33.5257C90.6979 33.4099 91.0402 33.36 91.3822 33.3789C92.057 33.3464 92.7207 33.5601 93.2498 33.9802C93.4829 34.1793 93.6679 34.4286 93.791 34.7095C93.9141 34.9903 93.972 35.2953 93.9604 35.6017V36.1119L89.7242 36.121ZM92.5939 34.5723C92.242 34.3186 91.8174 34.1859 91.3838 34.1942C90.9501 34.2024 90.5308 34.351 90.1888 34.6179C89.9701 34.82 89.8177 35.0836 89.7516 35.374H93.0038C92.9553 35.0833 92.811 34.8171 92.5939 34.6179" fill="white"/>
<path d="M98.4981 38.0515V37.6051C98.0173 37.9774 97.4204 38.1678 96.8128 38.1426C96.4753 38.1526 96.1394 38.0931 95.826 37.9677C95.5125 37.8424 95.2282 37.6538 94.9908 37.4138C94.571 36.9313 94.3398 36.3133 94.3398 35.6738C94.3398 35.0342 94.571 34.4163 94.9908 33.9338C95.2376 33.6859 95.534 33.4928 95.8605 33.3672C96.187 33.2416 96.5363 33.1863 96.8857 33.205C97.4786 33.1839 98.0607 33.3672 98.5346 33.7242V31.7109H99.4456V38.0879L98.4981 38.0515ZM98.07 34.4621C97.8993 34.3072 97.6993 34.1878 97.4819 34.1112C97.2644 34.0345 97.0338 34.0021 96.8037 34.0158C96.5837 34.0043 96.364 34.0407 96.1595 34.1225C95.955 34.2043 95.7707 34.3295 95.6194 34.4895C95.332 34.8225 95.1821 35.2525 95.2003 35.692C95.1771 36.118 95.3209 36.5363 95.6012 36.8581C95.7545 37.0205 95.9418 37.1471 96.1496 37.229C96.3574 37.3108 96.5807 37.3459 96.8037 37.3318C97.0296 37.3428 97.2553 37.3073 97.4669 37.2273C97.6785 37.1474 97.8713 37.0248 98.0335 36.8672C98.187 36.7133 98.3073 36.5297 98.3872 36.3276C98.4671 36.1255 98.5049 35.9092 98.4981 35.692C98.5209 35.2419 98.3673 34.8007 98.07 34.4621Z" fill="white"/>
</svg>
