<svg width="100" height="54" viewBox="0 0 100 54" fill="none" xmlns="http://www.w3.org/2000/svg">
<g clip-path="url(#clip0)">
<path d="M57.6195 18.1132C57.6217 17.5241 57.5474 16.9372 57.3984 16.3672H52.8455C53.2571 16.8522 53.4633 17.4786 53.4201 18.1132C53.4201 20.5665 51.453 20.5665 50.1932 20.5665H42.7228V16.3672H38.5234V28.4569H42.7228V24.0918H49.497L52.1382 28.4569H57.078L54.0721 23.6056C55.1659 23.1795 56.0975 22.4193 56.7343 21.4333C57.3712 20.4472 57.6809 19.2855 57.6195 18.1132Z" fill="white"/>
<path d="M38.4886 14.6543V5.2168L48.6223 14.5327C48.6223 14.5327 38.4223 14.588 38.4886 14.6543Z" fill="white"/>
<path d="M49.728 14.587L43.8047 8.9731L47.8051 4.97266L57.3642 14.5317L49.728 14.587Z" fill="white"/>
<path d="M57.3641 13.6366V5.39258L53.1758 9.33776L57.3641 13.6366Z" fill="white"/>
<path d="M49.8793 1.84415L48.0352 0L46.191 1.84415L48.0352 3.6883L49.8793 1.84415Z" fill="white"/>
<path d="M13.9794 53.9614C12.4359 53.9329 10.917 53.5693 9.52784 52.8958C8.13872 52.2222 6.91259 51.2547 5.93436 50.0604L5.52547 49.6294C4.87347 48.8559 4.42038 48.2591 3.76837 48.2591H3.60261V47.9607H4.42038C4.87642 47.9664 5.3285 47.8754 5.74679 47.6936C6.16509 47.5119 6.5401 47.2435 6.8471 46.9062C7.1541 46.5689 7.38612 46.1704 7.52785 45.7369C7.66958 45.3034 7.71781 44.8448 7.66936 44.3913C7.69352 43.4985 7.36692 42.6317 6.75957 41.9768C6.15223 41.322 5.31249 40.9312 4.42038 40.8881H2.59697C2.70525 41.0112 2.7875 41.155 2.83877 41.3107C2.89005 41.4664 2.90929 41.6309 2.89535 41.7943V51.9391C2.89535 52.7789 2.99481 52.8673 3.83468 52.8673H4.84031V53.0442H0V52.8894H0.607802C1.44767 52.8894 1.53608 52.801 1.53608 51.9612V41.6064C1.53608 40.7666 1.44767 40.6892 0.607802 40.6892H0V40.5234H4.54194C7.32678 40.5234 9.17229 42.0706 9.17229 44.3913C9.14614 45.3607 8.75677 46.2849 8.08134 46.9808C7.40591 47.6768 6.4937 48.0935 5.52547 48.1486H5.18289V48.2481C5.9403 48.3945 6.61489 48.8206 7.07261 49.4416C9.75799 52.4253 12.5981 53.4199 14.8746 53.4199C16.8822 53.3874 18.8235 52.6963 20.4 51.4528L20.4995 51.5744C18.6712 53.1064 16.3647 53.9508 13.9794 53.9614Z" fill="white"/>
<path d="M11.3281 46.9555C11.3994 45.7494 11.9449 44.6205 12.8455 43.8151C13.7461 43.0097 14.9288 42.5933 16.1353 42.6567C18.9975 42.6567 20.9093 44.3696 20.9093 46.9555C20.8436 48.1586 20.3048 49.2869 19.4104 50.0942C18.5161 50.9016 17.3388 51.3226 16.1353 51.2654C13.262 51.2654 11.3281 49.5414 11.3281 46.9555ZM19.3953 47.287C19.3953 44.9 17.9034 42.9661 16.08 42.9661C14.2566 42.9661 12.8532 44.4359 12.8532 46.635C12.8532 49.022 14.3561 50.956 16.1684 50.956C17.9808 50.956 19.3953 49.4862 19.3953 47.287Z" fill="white"/>
<path d="M23.3378 52.8894H24.8407C25.6695 52.8894 25.758 52.801 25.758 51.9611V47.1429L23.0284 41.8827C22.6084 41.087 22.3874 40.667 21.9233 40.667H21.5586V40.5234H24.8739V40.667H23.7688C23.9898 40.7555 24.1998 41.1201 24.4871 41.6395L26.6973 45.9273C26.7947 46.1011 26.869 46.2868 26.9183 46.4798H27.0399C27.1025 46.2898 27.1801 46.1051 27.2719 45.9273L29.3606 41.8827C29.5009 41.6506 29.5878 41.3901 29.6147 41.1201C29.6147 40.8328 29.4158 40.6339 28.8743 40.6339H27.8245V40.4902H31.1398V40.6339H30.8414C30.3441 40.6339 30.1452 40.9765 29.681 41.8716L27.1062 46.8445V51.939C27.1062 52.7789 27.1946 52.8673 28.0234 52.8673H29.3164V53.0441H23.3378V52.8894Z" fill="white"/>
<path d="M31.1758 52.8901H31.4521C31.8941 52.8901 32.1483 52.4038 32.4135 51.785L37.298 40.502H38.6794V40.7119C38.6763 41.0569 38.7285 41.4002 38.8341 41.7286L42.945 51.785C43.2876 52.6248 43.3981 52.8901 43.9728 52.8901H44.1054V53.0448H40.7901V52.8901H42.1273C41.8952 52.8017 41.7073 52.3596 41.5858 52.0723L40.6133 49.6853H33.6843L32.745 51.8955C32.6864 52.0199 32.6562 52.1558 32.6566 52.2933C32.6566 52.7022 32.966 52.9785 33.4965 52.9785H34.3474V53.0448H31.1758V52.8901ZM40.4586 49.3427L37.4969 42.0822C37.4002 41.863 37.3513 41.6257 37.3533 41.386H37.1985C37.1654 41.6277 37.0946 41.8626 36.9886 42.0822L33.817 49.3427H40.4586Z" fill="white"/>
<path d="M46.6367 52.8895H47.2445C48.0844 52.8895 48.1618 52.6795 48.1618 51.7844V41.5843C48.1618 40.7555 48.0844 40.6892 47.2445 40.6892H46.6367V40.5234H51.0571V40.6892H50.4493C49.6205 40.6892 49.51 40.7555 49.51 41.5843V51.8065C49.5105 51.9749 49.4776 52.1417 49.4131 52.2973C49.3486 52.4528 49.2538 52.594 49.1342 52.7126H51.477C53.1568 52.7126 54.2619 52.3811 54.4055 50.7124L54.5492 48.9664H54.8918L54.5492 53.9061H54.3724L54.4387 52.8784C54.3171 53 54.2398 53.0331 53.9635 53.0331H46.6367V52.8895Z" fill="white"/>
<path d="M64.4062 52.8894H65.0141C65.8539 52.8894 65.9423 52.8231 65.9423 51.9833V41.5843C65.9423 40.7555 65.8539 40.6892 65.0141 40.6892H64.4062V40.5234H68.8266V40.7224H68.2188C67.379 40.7224 67.2795 40.7887 67.2795 41.6285V51.9391C67.2795 52.7789 67.379 52.8452 68.2188 52.8452H68.8266V53.0442H64.4062V52.8894Z" fill="white"/>
<path d="M74.8385 40.5234V40.6892H73.4903C73.7334 40.7776 73.9323 41.1864 74.0318 41.4848L78.0322 51.1875C78.1178 51.3832 78.1665 51.593 78.1759 51.8064H78.4632C78.4711 51.5655 78.5274 51.3287 78.629 51.1102L82.53 41.7279C82.6027 41.5796 82.644 41.4178 82.6515 41.2528C82.6515 40.8881 82.3974 40.656 81.8006 40.656H80.2424V40.4902H84.044V40.656H83.834C83.2814 40.656 83.1378 40.9654 82.8283 41.7611L78.2312 53.1325L77.2918 53.1988L72.6725 41.7611C72.3521 40.9765 72.2194 40.656 71.6448 40.656H71.3906V40.4902L74.8385 40.5234Z" fill="white"/>
<path d="M88.2746 52.8894H89.7665C90.6064 52.8894 90.6837 52.801 90.6837 51.9611V47.1429L87.9541 41.8827C87.5342 41.087 87.3132 40.667 86.8491 40.667H86.4844V40.5234H89.7997V40.667H88.6946C88.9266 40.7555 89.1366 41.1201 89.4129 41.6395L91.6231 45.9273C91.7205 46.1011 91.7948 46.2868 91.8441 46.4798H91.9767C92.0298 46.2881 92.104 46.1028 92.1977 45.9273L94.2863 41.8827C94.4267 41.6506 94.5136 41.3901 94.5405 41.1201C94.5405 40.8328 94.3526 40.6339 93.8001 40.6339H92.695V40.4902H96.0103V40.6339H95.8114C95.303 40.6339 95.1041 40.9765 94.64 41.8716L92.0651 46.8445V51.939C92.0651 52.7789 92.1535 52.8673 92.9823 52.8673H94.2753V53.0441H88.2746V52.8894Z" fill="white"/>
<path d="M98.3551 52.0492L97.9904 51.2536H97.7031V52.0271H97.25V49.9275H98.1009C98.1975 49.9208 98.2944 49.934 98.3856 49.9664C98.4769 49.9987 98.5605 50.0494 98.6314 50.1153C98.7006 50.173 98.7555 50.2459 98.7919 50.3284C98.8283 50.4108 98.8452 50.5005 98.8413 50.5905C98.8438 50.7207 98.8051 50.8483 98.7308 50.9552C98.6629 51.0574 98.567 51.138 98.4545 51.1873L98.8745 52.0382H98.3551V52.0492ZM98.2335 50.7673C98.261 50.7419 98.283 50.7111 98.2982 50.6769C98.3134 50.6427 98.3214 50.6058 98.3219 50.5684C98.3228 50.5324 98.3153 50.4966 98.2999 50.464C98.2846 50.4314 98.2618 50.4028 98.2335 50.3805C98.2059 50.3537 98.1729 50.333 98.1367 50.3197C98.1006 50.3063 98.062 50.3007 98.0236 50.3032H97.6478V50.8336H98.0457C98.1213 50.837 98.1957 50.8135 98.2556 50.7673H98.2335Z" fill="white"/>
<path d="M98.01 52.9562C97.6193 52.954 97.2379 52.8362 96.9141 52.6175C96.5902 52.3988 96.3384 52.0891 96.1904 51.7275C96.0424 51.3658 96.0048 50.9684 96.0823 50.5854C96.1599 50.2025 96.3492 49.851 96.6263 49.5755C96.9033 49.2999 97.2558 49.1126 97.6392 49.0372C98.0226 48.9618 98.4198 49.0016 98.7806 49.1516C99.1414 49.3017 99.4497 49.5552 99.6666 49.8803C99.8835 50.2053 99.9992 50.5873 99.9992 50.9781C99.9992 51.2388 99.9477 51.4969 99.8476 51.7376C99.7475 51.9784 99.6008 52.1969 99.4159 52.3807C99.2311 52.5646 99.0117 52.7101 98.7704 52.8088C98.5292 52.9076 98.2707 52.9577 98.01 52.9562ZM98.01 49.2652C97.6686 49.2652 97.3349 49.3666 97.0511 49.5565C96.7674 49.7464 96.5464 50.0163 96.4163 50.332C96.2861 50.6476 96.2526 50.9948 96.3201 51.3295C96.3875 51.6643 96.5528 51.9714 96.795 52.2121C97.0372 52.4527 97.3454 52.616 97.6805 52.6813C98.0157 52.7466 98.3626 52.7108 98.6775 52.5787C98.9923 52.4465 99.2607 52.2238 99.4488 51.9389C99.6369 51.6539 99.7362 51.3195 99.734 50.9781C99.734 50.7522 99.6893 50.5286 99.6026 50.32C99.5158 50.1115 99.3886 49.9222 99.2284 49.763C99.0682 49.6038 98.878 49.4778 98.6689 49.3924C98.4598 49.307 98.2359 49.2637 98.01 49.2652Z" fill="white"/>
</g>
<defs>
<clipPath id="clip0">
<rect width="100" height="53.9618" fill="white"/>
</clipPath>
</defs>
</svg>
