<svg width="120" height="51" viewBox="0 0 120 51" fill="none" xmlns="http://www.w3.org/2000/svg">
<g clip-path="url(#clip0)">
<path d="M17.4011 19.291L17.9522 17.5411C16.8889 16.5847 16.0673 15.3901 15.5547 14.055C19.0687 11.2891 23.0825 9.22606 27.3769 7.97854C32.435 6.70918 37.672 6.30848 42.8644 6.79356C42.8644 6.79356 50.8699 2.0123 55.9818 0.703311C61.0938 -0.60568 68.8926 0.000589558 75.4238 1.64027C81.3386 3.32357 87.1495 5.35255 92.8265 7.71674C92.8265 7.71674 92.8265 9.64578 90.2223 9.64578C86.6949 9.64578 85.5237 11.2166 85.5237 11.2166C85.5237 11.2166 84.7934 7.97854 77.5871 5.01609C73.532 3.47304 69.2773 2.51724 64.9519 2.17765C58.0624 1.68161 53.5016 3.85867 47.6594 7.37227C47.6594 7.37227 58.1038 7.5514 64.194 7.27582C67.1106 7.26062 70.0119 6.85278 72.8196 6.06328C69.8832 7.41831 66.7195 8.21275 63.4913 8.40569C57.4837 9.02573 44.8761 8.55725 44.8761 8.55725C44.8761 8.55725 28.6584 7.67541 21.7001 11.6851H24.5936L22.2099 13.4212L16.6983 14.7991C17.2008 15.7258 17.8962 16.5339 18.7376 17.169L17.4011 19.291Z" fill="white"/>
<path d="M0.385808 27.4065L0 22.3222L117.837 4.72656" fill="white"/>
<path d="M119.601 27.8203L120.001 32.9047L2.16406 50.5003" fill="white"/>
<path d="M3.53985 39.9586C3.48242 39.5709 3.45478 39.1793 3.45717 38.7874L3.59496 32.5456L6.66765 31.9944L6.54364 38.1949C6.51416 38.4835 6.51416 38.7744 6.54364 39.063C6.5621 39.3043 6.6356 39.5382 6.75851 39.7468C6.88142 39.9553 7.05047 40.1329 7.25268 40.2659C7.4549 40.3989 7.6849 40.4839 7.92504 40.5142C8.16518 40.5445 8.40908 40.5194 8.63802 40.4409C9.93323 40.2066 10.5395 39.3386 10.5808 37.4371L10.7048 31.2504L13.7362 30.6992L13.6122 37.0926C13.6122 40.4546 11.9312 42.4801 8.7207 43.0451C5.95115 43.5411 3.98077 42.3423 3.53985 39.9586Z" fill="white"/>
<path d="M27.2829 28.2871L27.0762 39.5444L24.2377 40.0542L24.3204 34.1156L21.5646 39.4204L20.1868 39.6684L17.431 35.3557L17.2519 41.3357L14.4961 41.8455L14.7303 30.5744L17.2243 30.1335L20.9033 35.9757L24.72 28.7969L27.2829 28.2871Z" fill="white"/>
<path d="M31.2096 30.0385V31.9262L36.046 31.0719V33.4418L31.1958 34.3099V36.3767L36.8865 35.3571L36.8176 37.8235L28.1094 39.3805L28.3298 28.1094L36.8452 26.5938V29.0602L31.2096 30.0385Z" fill="white"/>
<path d="M47.7715 24.623L47.5373 35.8253L44.4646 36.3764L44.5473 32.0085L40.4136 32.7526L40.2758 37.2031L37.2031 37.7267L37.4374 26.4694L40.51 25.9183L40.4274 30.1346L44.561 29.3905V25.1742L47.7715 24.623Z" fill="white"/>
<path d="M64.6092 21.6055L64.4025 32.8766L61.564 33.3726L61.6605 27.4477L58.9047 32.7526L57.5268 33.0006L54.7711 28.6878L54.647 34.6265L51.8086 35.1363L52.0428 23.8652L54.4955 23.4243L58.1606 29.2527L62.005 22.0464L64.6092 21.6055Z" fill="white"/>
<path d="M64.9818 28.0539C64.8085 27.1717 64.8193 26.2633 65.0134 25.3854C65.2075 24.5076 65.5807 23.6792 66.1098 22.9523C66.6388 22.2254 67.3122 21.6155 68.0878 21.1609C68.8635 20.7063 69.7246 20.4166 70.6173 20.3102C73.9518 19.7177 76.3769 21.3161 76.8729 24.127C77.0483 25.0083 77.0395 25.9164 76.8471 26.7943C76.6547 27.6721 76.2829 28.5006 75.7549 29.2278C75.227 29.955 74.5544 30.5652 73.7793 31.02C73.0042 31.4748 72.1435 31.7645 71.2511 31.8707C67.9167 32.4632 65.4916 30.8648 64.9818 28.0539ZM73.8002 24.871C73.7586 24.532 73.6434 24.2062 73.4626 23.9165C73.2819 23.6267 73.0399 23.38 72.7537 23.1936C72.4676 23.0072 72.1441 22.8856 71.806 22.8374C71.4679 22.7891 71.1233 22.8154 70.7964 22.9144C70.3173 23.0039 69.8618 23.1917 69.4589 23.466C69.0559 23.7403 68.7142 24.0952 68.4552 24.5082C68.1963 24.9212 68.0258 25.3834 67.9544 25.8656C67.8831 26.3478 67.9124 26.8396 68.0407 27.3099C68.0808 27.6485 68.1945 27.9743 68.3736 28.2644C68.5528 28.5546 68.7931 28.8022 69.0779 28.9898C69.3626 29.1774 69.6849 29.3006 70.0222 29.3508C70.3595 29.401 70.7037 29.3769 71.0307 29.2802C71.5107 29.1888 71.9666 28.9995 72.3702 28.7239C72.7737 28.4484 73.1161 28.0927 73.376 27.6789C73.6358 27.2652 73.8077 26.8023 73.8807 26.3192C73.9537 25.8361 73.9263 25.3431 73.8002 24.871Z" fill="white"/>
<path d="M79.5748 21.4543L76.2266 22.0468V19.5253L85.9682 17.7754V20.3107L82.6751 20.9032L82.4822 29.639L79.4095 30.1901L79.5748 21.4543Z" fill="white"/>
<path d="M85.193 24.4445C85.0198 23.5634 85.0301 22.6559 85.2233 21.7789C85.4166 20.9019 85.7886 20.0742 86.3162 19.3475C86.8438 18.6208 87.5156 18.0106 88.2896 17.5553C89.0637 17.0999 89.9233 16.809 90.8148 16.7008C94.1631 16.1083 96.5743 17.7067 97.0842 20.5176C97.2596 21.3989 97.2508 22.3071 97.0584 23.1849C96.866 24.0627 96.4941 24.8912 95.9662 25.6185C95.4383 26.3457 94.7656 26.9559 93.9906 27.4107C93.2155 27.8655 92.3547 28.1551 91.4624 28.2613C88.183 28.8538 85.7028 27.2554 85.193 24.4445ZM94.0115 21.2616C93.9694 20.9225 93.8541 20.5965 93.6735 20.3063C93.4929 20.0162 93.2513 19.7688 92.9655 19.5814C92.6798 19.3939 92.3566 19.2709 92.0186 19.2208C91.6805 19.1707 91.3356 19.1947 91.0077 19.2913C90.5299 19.3862 90.0766 19.5779 89.6757 19.8546C89.2749 20.1313 88.9349 20.4871 88.6767 20.9002C88.4185 21.3132 88.2477 21.7748 88.1746 22.2564C88.1016 22.738 88.1279 23.2294 88.2519 23.7005C88.2958 24.0384 88.4124 24.3629 88.5938 24.6514C88.7752 24.9399 89.017 25.1856 89.3025 25.3716C89.5881 25.5576 89.9106 25.6795 90.2478 25.7288C90.585 25.778 90.9289 25.7536 91.2557 25.6571C91.733 25.5638 92.186 25.3737 92.5868 25.0984C92.9876 24.8231 93.3277 24.4685 93.586 24.0565C93.8443 23.6445 94.0153 23.1839 94.0885 22.7032C94.1617 22.2224 94.1355 21.7318 94.0115 21.2616Z" fill="white"/>
<path d="M105.051 22.2399L107.476 25.1748L104.252 25.7397L102.143 23.1493L100.586 23.4249V26.4149L97.5 26.966L97.7342 15.6949L102.378 14.8682C105.133 14.3722 106.994 15.378 107.379 17.624C107.549 18.5421 107.413 19.4906 106.993 20.3243C106.572 21.1579 105.89 21.8308 105.051 22.2399ZM102.295 17.376L100.683 17.6515L100.586 20.9585L102.46 20.6691C103.838 20.4349 104.486 19.6357 104.279 18.4369C104.114 17.4862 103.342 17.1831 102.323 17.376H102.295Z" fill="white"/>
<path d="M107.047 24.2638L107.846 21.7561C109.053 22.2527 110.377 22.3961 111.663 22.1694C112.848 21.9627 113.468 21.4667 113.358 20.8742C113.096 19.4137 107.956 21.1774 107.35 17.7464C106.923 15.404 108.728 13.5163 111.869 12.9376C113.243 12.6319 114.673 12.713 116.003 13.1718L115.3 15.652C114.305 15.2655 113.222 15.1653 112.173 15.3627C110.891 15.5831 110.299 16.1756 110.395 16.7406C110.657 18.2287 115.796 16.4374 116.389 19.7857C116.816 22.1143 115.011 24.0296 111.856 24.5945C110.254 24.942 108.586 24.8273 107.047 24.2638Z" fill="white"/>
</g>
<defs>
<clipPath id="clip0">
<rect width="120" height="50.4995" fill="white"/>
</clipPath>
</defs>
</svg>
