<svg width="125" height="55" viewBox="0 0 125 55" fill="none" xmlns="http://www.w3.org/2000/svg">
<g clip-path="url(#clip0)">
<path d="M3.03688 38.7262C3.11334 39.4719 3.48243 40.1568 4.06319 40.6308C4.74504 41.1291 5.57699 41.3788 6.42054 41.3384C7.13845 41.3875 7.85252 41.1985 8.45214 40.8007C8.67187 40.6457 8.85093 40.4399 8.97411 40.2008C9.09729 39.9618 9.16096 39.6965 9.15969 39.4276C9.15697 39.0198 9.00063 38.628 8.72185 38.3304C8.33601 37.943 7.84216 37.6811 7.30498 37.579L4.40296 36.8715C1.57157 36.2252 0.167548 34.7249 0.1909 32.3704C0.166858 31.7061 0.295057 31.045 0.565694 30.4378C0.844333 29.8614 1.24966 29.3555 1.75137 28.9579C2.2834 28.5271 2.89054 28.1984 3.54216 27.9885C4.25515 27.7568 5.00096 27.642 5.75064 27.6487C6.54009 27.6413 7.32507 27.7681 8.07209 28.0235C8.742 28.2551 9.36488 28.6051 9.91103 29.0568C10.4437 29.4991 10.8892 30.037 11.2246 30.6427C11.5646 31.2822 11.7876 31.9774 11.8831 32.6953H8.80591C8.67631 31.9971 8.31764 31.362 7.78661 30.8905C7.1928 30.4319 6.45447 30.2008 5.7051 30.239C5.08344 30.2136 4.46989 30.3873 3.95373 30.7347C3.72406 30.8902 3.53795 31.1018 3.41304 31.3495C3.28814 31.5972 3.22859 31.8726 3.24004 32.1498C3.23297 32.3722 3.27497 32.5934 3.36305 32.7977C3.45113 33.002 3.58314 33.1844 3.74969 33.332C4.15361 33.6765 4.64263 33.9064 5.16568 33.9975L8.04669 34.705C9.26455 34.9001 10.3944 35.4604 11.2867 36.3119C11.9741 37.107 12.329 38.1362 12.278 39.1859C12.2721 39.8345 12.1198 40.4733 11.8323 41.0546C11.5508 41.6362 11.1477 42.1504 10.6501 42.5626C10.1024 43.0101 9.47569 43.3511 8.80241 43.5679C8.01323 43.8051 7.19078 43.9128 6.36712 43.8866C5.53504 43.8935 4.70723 43.767 3.9152 43.5118C3.20757 43.2833 2.5461 42.9311 1.96154 42.4715C1.4107 42.0183 0.952762 41.4629 0.612981 40.8357C0.258914 40.1799 0.0498699 39.4558 0 38.7122L3.03688 38.7262Z" fill="white"/>
<path d="M28.7028 43.6608H25.3262L24.0021 39.8524H17.6315L16.3004 43.6608H13.1016L18.9555 27.8984H22.8769L28.7028 43.6608ZM23.0397 37.1273L20.8102 30.8066L18.6158 37.1273H23.0397Z" fill="white"/>
<path d="M30.375 27.8965H41.1556V30.6216H33.5038V34.43H40.9358V37.1061H33.5038V40.9355H41.1556V43.6606H30.375V27.8965Z" fill="white"/>
<path d="M54.3283 33.771C54.2634 33.0402 53.985 32.3446 53.5277 31.7708C53.0705 31.1971 52.4546 30.7705 51.7567 30.5441C51.0588 30.3178 50.3098 30.3017 49.6028 30.4979C48.8959 30.694 48.2622 31.0938 47.7808 31.6474C47.0177 32.6037 46.639 33.8103 46.7186 35.0311V36.4961C46.7068 37.1606 46.8023 37.8227 47.0014 38.4568C47.1655 38.9887 47.435 39.4822 47.7939 39.9078C48.1323 40.2988 48.5563 40.6066 49.033 40.8071C49.5402 41.0158 50.0845 41.1195 50.6329 41.1118C51.528 41.1321 52.3998 40.8251 53.0848 40.2484C53.7845 39.6051 54.2272 38.7299 54.3309 37.7851H57.3319C57.2547 38.6753 57.0149 39.5437 56.6243 40.3474C56.265 41.0819 55.7676 41.7405 55.1593 42.287C54.5534 42.8252 53.8493 43.2415 53.0857 43.513C52.286 43.8082 51.4397 43.9565 50.5873 43.9508C49.6016 43.9627 48.6231 43.7825 47.7063 43.4202C46.8639 43.0853 46.1018 42.5762 45.4698 41.9262C44.8439 41.267 44.3554 40.4897 44.0328 39.6398C43.6802 38.6815 43.5051 37.6669 43.5162 36.6458V34.9251C43.5046 33.9063 43.6797 32.8939 44.0328 31.9381C44.3593 31.0791 44.8552 30.2944 45.4908 29.6307C46.1215 28.9792 46.884 28.4699 47.7273 28.1368C48.6452 27.774 49.625 27.5937 50.6119 27.6061C51.4809 27.5944 52.3448 27.7428 53.1601 28.044C53.9171 28.3255 54.6137 28.7483 55.2127 29.2901C55.8019 29.8477 56.2821 30.5102 56.6287 31.2437C57.0097 32.0386 57.2491 32.8938 57.3363 33.771H54.3283Z" fill="white"/>
<path d="M59.9551 27.8965H70.7427V30.6216H63.0839V34.43H70.5159V37.1061H63.0839V40.9355H70.7427V43.6606H59.9551V27.8965Z" fill="white"/>
<path d="M73.1068 34.9239C73.0914 33.9029 73.274 32.8885 73.6444 31.9369C73.9835 31.0742 74.4941 30.2892 75.1454 29.6295C75.7971 28.9768 76.5784 28.4679 77.4388 28.1356C79.3476 27.4262 81.4478 27.4262 83.3567 28.1356C84.2176 28.4669 84.999 28.976 85.6501 29.6295C86.2993 30.2894 86.8076 31.0745 87.144 31.9369C87.5169 32.888 87.7018 33.9024 87.6887 34.9239V36.6087C87.7005 37.6322 87.515 38.6485 87.1423 39.6018C86.8077 40.4693 86.2993 41.2593 85.6484 41.9233C84.9952 42.5776 84.2113 43.0867 83.3479 43.4172C81.4391 44.1266 79.3389 44.1266 77.43 43.4172C76.5696 43.0848 75.7884 42.5759 75.1366 41.9233C74.48 41.2718 73.9623 40.494 73.6147 39.6368C73.2449 38.6826 73.0623 37.6661 73.077 36.6429L73.1068 34.9239ZM76.2776 36.4957C76.2656 37.162 76.3687 37.8253 76.5824 38.4564C76.7664 38.9901 77.0525 39.483 77.4248 39.9074C77.7812 40.3032 78.2245 40.611 78.7199 40.8068C79.2539 41.0169 79.8239 41.1204 80.3977 41.1115C80.9646 41.1191 81.5275 41.0156 82.0545 40.8068C82.552 40.6111 82.9976 40.3033 83.3567 39.9074C83.7477 39.4909 84.0461 38.9964 84.2324 38.4564C84.446 37.8253 84.5491 37.162 84.5371 36.4957V35.0368C84.6164 33.8022 84.2101 32.5855 83.4048 31.6462C82.603 30.8751 81.5338 30.4443 80.4214 30.4443C79.3089 30.4443 78.2397 30.8751 77.4379 31.6462C76.6305 32.5845 76.2219 33.8014 76.2995 35.0368L76.2776 36.4957Z" fill="white"/>
<path d="M1.09069 48.2396C1.09695 48.3121 1.1177 48.3826 1.15169 48.447C1.18568 48.5114 1.23223 48.5683 1.28859 48.6144C1.42241 48.7089 1.5849 48.7541 1.74833 48.7422C1.88003 48.7448 2.00984 48.7105 2.12312 48.6433C2.16415 48.6113 2.19755 48.5706 2.22087 48.5241C2.2442 48.4775 2.25687 48.4264 2.25798 48.3744C2.25812 48.3345 2.25002 48.2951 2.2342 48.2584C2.21838 48.2218 2.19517 48.1889 2.16603 48.1616C2.08991 48.0871 1.99431 48.0355 1.89019 48.0128L1.32362 47.8779C0.77106 47.7579 0.502224 47.4602 0.502224 47.0075C0.50087 46.8748 0.530874 46.7437 0.589792 46.6248C0.640414 46.511 0.718315 46.4114 0.816595 46.3349C0.921075 46.2527 1.03981 46.1903 1.16687 46.151C1.3038 46.1051 1.44715 46.0812 1.59158 46.0801C1.74593 46.0789 1.89925 46.1053 2.04431 46.1581C2.17591 46.2008 2.29829 46.268 2.40509 46.356C2.51061 46.4412 2.59736 46.5473 2.65992 46.6677C2.73079 46.7891 2.77442 46.9245 2.78777 47.0644H2.20894C2.18624 46.928 2.11616 46.8039 2.01103 46.7141C1.89641 46.624 1.75295 46.5786 1.60734 46.5863C1.48708 46.579 1.36775 46.6113 1.26757 46.6782C1.22286 46.7088 1.18647 46.75 1.1617 46.7982C1.13694 46.8463 1.12456 46.8999 1.12571 46.9541C1.12488 46.9978 1.13326 47.0412 1.15031 47.0815C1.16736 47.1218 1.19269 47.158 1.22467 47.1879C1.30421 47.249 1.39585 47.2926 1.4935 47.3157L2.06007 47.4506C2.29696 47.4874 2.51678 47.5963 2.68969 47.7623C2.82249 47.9176 2.89079 48.1178 2.88059 48.3219C2.88081 48.4486 2.85425 48.5739 2.80265 48.6897C2.74528 48.8012 2.66572 48.8998 2.56885 48.9795C2.46205 49.0675 2.33966 49.1346 2.20806 49.1774C2.05652 49.2239 1.89896 49.2478 1.74045 49.2484C1.57895 49.2496 1.41843 49.2233 1.26582 49.1704C1.12327 49.1295 0.990639 49.0598 0.876142 48.9655C0.766555 48.8795 0.676926 48.7708 0.613436 48.6468C0.545428 48.5211 0.505399 48.3822 0.496094 48.2396H1.09069Z" fill="white"/>
<path d="M5.52284 48.133C5.52764 48.2899 5.50114 48.4462 5.4449 48.5928C5.39768 48.724 5.32271 48.8434 5.2251 48.943C5.12435 49.0391 5.0052 49.1139 4.87483 49.1628C4.73477 49.215 4.58644 49.2414 4.43698 49.2408C4.28759 49.2407 4.13939 49.2143 3.99914 49.1628C3.87041 49.1133 3.75353 49.0373 3.65608 48.9397C3.55863 48.8421 3.48278 48.7251 3.43344 48.5963C3.38131 48.4486 3.35495 48.2931 3.35551 48.1365V47.8957C3.3543 47.7414 3.3807 47.588 3.43344 47.443C3.48146 47.3122 3.55633 47.1928 3.65324 47.0927C3.754 46.9966 3.87314 46.9218 4.00352 46.8729C4.1434 46.8201 4.29185 46.7937 4.44136 46.795C4.59082 46.7943 4.73916 46.8207 4.87921 46.8729C5.00975 46.9194 5.12831 46.9944 5.2263 47.0924C5.3243 47.1904 5.39926 47.3089 5.44578 47.4395C5.50202 47.586 5.52851 47.7423 5.52371 47.8992L5.52284 48.133ZM4.95627 47.9264C4.96112 47.7695 4.91368 47.6155 4.82141 47.4885C4.77689 47.4329 4.71949 47.389 4.65418 47.3607C4.58887 47.3323 4.51762 47.3203 4.44662 47.3256C4.37561 47.3203 4.30436 47.3323 4.23905 47.3607C4.17374 47.389 4.11634 47.4329 4.07182 47.4885C3.98204 47.6163 3.93709 47.7703 3.94397 47.9264V48.1313C3.93709 48.2873 3.98204 48.4413 4.07182 48.5691C4.11634 48.6247 4.17374 48.6686 4.23905 48.697C4.30436 48.7253 4.37561 48.7374 4.44662 48.732C4.51762 48.7374 4.58887 48.7253 4.65418 48.697C4.71949 48.6686 4.77689 48.6247 4.82141 48.5691C4.91368 48.4422 4.96112 48.2881 4.95627 48.1313V47.9264Z" fill="white"/>
<path d="M6.12891 46.8672H6.71649V48.2832C6.71262 48.412 6.75839 48.5374 6.84434 48.6335C6.8876 48.6799 6.9403 48.7166 6.99889 48.7411C7.05749 48.7656 7.12064 48.7772 7.18411 48.7753C7.2474 48.7759 7.31014 48.7636 7.36854 48.7392C7.42695 48.7148 7.47979 48.6789 7.52388 48.6335C7.56773 48.5867 7.60167 48.5316 7.62364 48.4714C7.64561 48.4112 7.65517 48.3472 7.65173 48.2832V46.8672H8.23931V49.2035H7.6526V48.8427C7.58995 48.9752 7.49211 49.0879 7.36976 49.1685C7.24786 49.2419 7.10836 49.2809 6.96606 49.2815C6.84545 49.2846 6.7257 49.2603 6.61579 49.2105C6.51959 49.1606 6.43511 49.0907 6.36797 49.0056C6.29523 48.9246 6.23769 48.8312 6.19809 48.7298C6.16087 48.6203 6.14165 48.5056 6.14117 48.39L6.12891 46.8672Z" fill="white"/>
<path d="M9.35699 49.0393C9.3053 48.9845 9.26492 48.92 9.23818 48.8495C9.21143 48.779 9.19884 48.704 9.20112 48.6286V47.3755H8.73438V46.8659H9.20199V46.1934H9.78958V46.8659H10.4026V47.3755H9.78958V48.5139C9.78789 48.5393 9.79215 48.5647 9.80204 48.5881C9.81192 48.6115 9.82715 48.6323 9.8465 48.6488C9.89253 48.6793 9.94723 48.6941 10.0024 48.6908H10.4061V49.2057H9.83249C9.7465 49.2117 9.6602 49.2003 9.57867 49.1724C9.49715 49.1444 9.42207 49.1004 9.35786 49.0428" fill="white"/>
<path d="M13.0099 49.2021H12.4223V47.7869C12.4255 47.6582 12.3798 47.5331 12.2945 47.4367C12.2483 47.3896 12.1933 47.3523 12.1325 47.3268C12.0718 47.3013 12.0066 47.2882 11.9407 47.2882C11.8748 47.2882 11.8096 47.3013 11.7489 47.3268C11.6881 47.3523 11.6331 47.3896 11.5869 47.4367C11.4997 47.5319 11.4537 47.6579 11.4591 47.7869V49.2029H10.9004V45.9629H11.488V47.2475C11.5528 47.1184 11.6504 47.0085 11.7708 46.9288C11.8932 46.8498 12.0359 46.8081 12.1815 46.8088C12.2986 46.8071 12.4147 46.8313 12.5213 46.8797C12.6188 46.9247 12.7066 46.9884 12.7795 47.0673C12.8523 47.1462 12.9089 47.2387 12.946 47.3395C12.9889 47.4476 13.0106 47.5629 13.0099 47.6792V49.2021Z" fill="white"/>
<path d="M17.4763 49.2028H16.8178L16.5551 48.4593H15.3239L15.0612 49.2028H14.4395L15.5717 46.1309H16.3292L17.4763 49.2028ZM16.3721 47.9286L15.9404 46.7184L15.5087 47.9505L16.3721 47.9286Z" fill="white"/>
<path d="M17.5547 46.867H18.0223V46.4423C18.0206 46.2907 18.0763 46.144 18.1782 46.0316C18.2424 45.9741 18.3175 45.9301 18.399 45.9021C18.4805 45.8741 18.5668 45.8628 18.6528 45.8687H19.2054V46.3784H18.7675C18.7467 46.3772 18.7259 46.3805 18.7065 46.3879C18.687 46.3952 18.6693 46.4066 18.6546 46.4213C18.6384 46.4395 18.6263 46.461 18.6189 46.4842C18.6115 46.5074 18.609 46.5319 18.6116 46.5561V46.8679H19.2062V47.3775H18.6055V49.2042H18.0179V47.3767H17.5547V46.867Z" fill="white"/>
<path d="M20.8245 47.4251C20.7539 47.4251 20.6842 47.4397 20.6196 47.468C20.5567 47.4922 20.4991 47.5282 20.4497 47.574C20.4004 47.6254 20.3599 47.6845 20.3297 47.7491C20.3005 47.826 20.2859 47.9077 20.2868 47.9899V49.2001H19.6992V46.862H20.2859V47.3218C20.3246 47.1849 20.4036 47.0628 20.5127 46.9715C20.6203 46.8778 20.76 46.8295 20.9024 46.8366H21.0776V47.4172L20.8245 47.4251Z" fill="white"/>
<path d="M21.8867 46.5553C21.8424 46.5567 21.7983 46.5493 21.757 46.5335C21.7156 46.5178 21.6778 46.4939 21.6458 46.4633C21.6142 46.4332 21.5891 46.3969 21.5721 46.3567C21.5551 46.3165 21.5465 46.2732 21.5469 46.2295C21.5477 46.1395 21.5831 46.0533 21.6458 45.9887C21.6778 45.9581 21.7156 45.9342 21.757 45.9184C21.7983 45.9027 21.8424 45.8953 21.8867 45.8967C21.9299 45.895 21.973 45.9023 22.0132 45.9181C22.0535 45.9339 22.09 45.958 22.1205 45.9887C22.1816 46.0538 22.2146 46.1403 22.2124 46.2295C22.2144 46.2728 22.2073 46.3161 22.1917 46.3565C22.176 46.3969 22.1521 46.4336 22.1214 46.4643C22.0908 46.4949 22.0541 46.5189 22.0136 46.5345C21.9732 46.5502 21.93 46.5573 21.8867 46.5553ZM22.1765 49.2025H21.5889V46.8661H22.1765V49.2025Z" fill="white"/>
<path d="M23.8541 49.2592C23.7046 49.2598 23.5563 49.2334 23.4162 49.1812C23.2914 49.1316 23.1781 49.0568 23.0835 48.9614C22.9873 48.8607 22.9126 48.7415 22.8637 48.6112C22.8081 48.4644 22.7816 48.3083 22.7857 48.1514V47.9106C22.7809 47.756 22.8074 47.602 22.8637 47.4579C22.9117 47.3271 22.9865 47.2078 23.0835 47.1076C23.1781 47.0123 23.2914 46.9374 23.4162 46.8878C23.5563 46.8356 23.7046 46.8092 23.8541 46.8099C24.1133 46.7967 24.3673 46.8857 24.5616 47.0577C24.7509 47.228 24.8696 47.4629 24.8944 47.7162H24.3278C24.3041 47.6073 24.2472 47.5085 24.1649 47.4334C24.0675 47.3566 23.9445 47.3198 23.8209 47.3304C23.6973 47.3409 23.5824 47.3981 23.4994 47.4903C23.4096 47.6181 23.3647 47.7721 23.3716 47.9281V48.133C23.3647 48.2891 23.4096 48.4431 23.4994 48.5709C23.5823 48.6627 23.6966 48.7201 23.8198 48.732C23.9429 48.7438 24.066 48.7091 24.1649 48.6348C24.2489 48.5581 24.306 48.4565 24.3278 48.345H24.8961C24.8788 48.4751 24.8406 48.6017 24.7832 48.7198C24.7255 48.8271 24.6486 48.923 24.5564 49.0026C24.4647 49.0826 24.359 49.145 24.2446 49.1865C24.1244 49.2295 23.9975 49.2511 23.8698 49.2504" fill="white"/>
<path d="M25.2295 48.5374C25.2237 48.4474 25.2386 48.3572 25.2729 48.2738C25.3072 48.1903 25.36 48.1158 25.4274 48.0558C25.5911 47.9267 25.7925 47.8548 26.0009 47.8509L26.6384 47.8009V47.7134C26.6412 47.6642 26.6338 47.6149 26.6168 47.5687C26.5998 47.5225 26.5735 47.4802 26.5395 47.4445C26.4562 47.3754 26.3499 47.3401 26.2418 47.3456C26.1403 47.3474 26.0398 47.3666 25.9449 47.4025C25.8402 47.4433 25.7403 47.4955 25.6472 47.5584L25.3993 47.1205C25.666 46.9248 25.9888 46.8203 26.3197 46.8228C26.4448 46.8187 26.5695 46.838 26.6875 46.8797C26.7927 46.9124 26.8893 46.968 26.9703 47.0426C27.0453 47.1179 27.1048 47.2071 27.1455 47.3053C27.1894 47.4168 27.2111 47.5358 27.2094 47.6556V48.5584C27.2069 48.5767 27.2087 48.5953 27.2146 48.6128C27.2205 48.6303 27.2304 48.6461 27.2435 48.6592C27.2565 48.6722 27.2724 48.6821 27.2899 48.688C27.3073 48.6939 27.326 48.6957 27.3442 48.6933H27.4642V49.2029H27.1814C27.0702 49.2071 26.9607 49.1748 26.8696 49.111C26.7766 49.0478 26.7109 48.9517 26.6857 48.8421C26.6178 48.9585 26.5207 49.055 26.4039 49.1221C26.2872 49.1893 26.1549 49.2247 26.0202 49.2248C25.9115 49.2244 25.8036 49.2051 25.7015 49.1679C25.6076 49.1355 25.521 49.0849 25.4466 49.019C25.3775 48.9559 25.3215 48.8797 25.282 48.7948C25.2408 48.7064 25.2213 48.6095 25.2251 48.512L25.2295 48.5374ZM25.7916 48.512C25.7911 48.5495 25.7998 48.5866 25.8171 48.6199C25.8343 48.6532 25.8596 48.6817 25.8906 48.7029C25.9672 48.7572 26.0595 48.7846 26.1533 48.7808C26.2162 48.7802 26.2785 48.7683 26.3372 48.7458C26.3943 48.7248 26.4471 48.6937 26.4931 48.6539C26.5343 48.6139 26.5699 48.5685 26.599 48.519C26.6223 48.4654 26.6342 48.4076 26.6341 48.3491V48.2143L26.0815 48.2572C25.8906 48.2572 25.7916 48.3631 25.7916 48.512Z" fill="white"/>
<path d="M30.1115 49.2023H29.5256V47.7864C29.5288 47.6576 29.4831 47.5325 29.3978 47.4361C29.3542 47.3904 29.3013 47.3548 29.2427 47.3315C29.184 47.3082 29.121 47.2979 29.058 47.3012C28.9952 47.2993 28.9326 47.3102 28.8742 47.3334C28.8157 47.3566 28.7627 47.3916 28.7183 47.4361C28.631 47.5313 28.5851 47.6573 28.5904 47.7864V49.2023H28.002V46.8669H28.5895V47.2496C28.6569 47.12 28.7568 47.0101 28.8794 46.9308C28.9987 46.8508 29.1395 46.8089 29.2831 46.8108C29.4003 46.8076 29.5167 46.8319 29.6229 46.8818C29.7224 46.9238 29.812 46.9865 29.8856 47.0657C29.9583 47.1467 30.0158 47.2401 30.0554 47.3415C30.0927 47.4509 30.1119 47.5657 30.1124 47.6813L30.1115 49.2023Z" fill="white"/>
<path d="M31.8965 46.1309H33.992V46.6615H32.5033V47.405H33.9456V47.9304H32.5051V48.6738H33.9938V49.2045H31.8965V46.1309Z" fill="white"/>
<path d="M36.7306 49.2023H36.143V47.7864C36.1462 47.6576 36.1005 47.5325 36.0152 47.4361C35.9726 47.391 35.9209 47.3557 35.8635 47.3324C35.8061 47.3091 35.7443 47.2985 35.6824 47.3012C35.6194 47.2979 35.5564 47.3082 35.4978 47.3315C35.4392 47.3548 35.3862 47.3904 35.3427 47.4361C35.2972 47.482 35.2618 47.5368 35.2385 47.5971C35.2153 47.6574 35.2049 47.7218 35.2078 47.7864V49.2023H34.6211V46.8669H35.2087V47.2496C35.276 47.12 35.3759 47.0101 35.4985 46.9308C35.6178 46.8508 35.7586 46.8089 35.9022 46.8108C36.0195 46.8076 36.1358 46.8319 36.242 46.8818C36.3425 46.9221 36.4324 46.9851 36.5047 47.0657C36.6571 47.2328 36.7384 47.4526 36.7315 47.6786L36.7306 49.2023Z" fill="white"/>
<path d="M37.8562 49.0393C37.8045 48.9845 37.7641 48.92 37.7374 48.8495C37.7106 48.779 37.698 48.704 37.7003 48.6286V47.3755H37.2266V46.8659H37.7012V46.1934H38.2861V46.8659H38.9306V47.3755H38.3177V48.5139C38.314 48.5395 38.3174 48.5655 38.3274 48.5893C38.3374 48.613 38.3537 48.6336 38.3746 48.6488C38.42 48.6806 38.4751 48.6958 38.5305 48.6917H38.9342V49.2057H38.3536C38.2687 49.2111 38.1836 49.1995 38.1033 49.1715C38.023 49.1436 37.9491 49.0998 37.886 49.0428" fill="white"/>
<path d="M40.5178 47.4251C40.4473 47.425 40.3775 47.4396 40.3129 47.468C40.2501 47.4922 40.1924 47.5282 40.143 47.5739C40.0916 47.6235 40.0507 47.6831 40.0231 47.7491C39.9939 47.826 39.9793 47.9076 39.9802 47.9899V49.2001H39.3926V46.862H39.9802V47.3217C40.0188 47.1848 40.0979 47.0628 40.207 46.9715C40.3146 46.8779 40.4542 46.8296 40.5967 46.8366H40.7718V47.4172L40.5178 47.4251Z" fill="white"/>
<path d="M41.0915 47.9222C41.0867 47.7676 41.1132 47.6136 41.1694 47.4695C41.2167 47.3399 41.289 47.2209 41.3822 47.1192C41.479 47.0215 41.5946 46.9443 41.722 46.8924C41.8599 46.8402 42.0063 46.8138 42.1537 46.8145C42.2931 46.8132 42.4311 46.8431 42.5574 46.9021C42.6778 46.9519 42.7847 47.0296 42.8692 47.1289C42.96 47.2297 43.0275 47.3493 43.0671 47.4791C43.1193 47.6219 43.1457 47.7728 43.145 47.9249V48.2366H41.6607C41.6636 48.3811 41.719 48.5197 41.8166 48.6263C41.8668 48.6728 41.9259 48.7087 41.9903 48.7318C42.0546 48.755 42.123 48.765 42.1914 48.7611C42.2932 48.7604 42.3938 48.7393 42.4873 48.6992C42.5808 48.659 42.6654 48.6006 42.7361 48.5273L43.0863 48.8776C42.9758 48.9978 42.8436 49.0961 42.6966 49.1675C42.5283 49.2361 42.3478 49.2698 42.166 49.2664C42.0162 49.2712 41.8671 49.2447 41.7281 49.1885C41.596 49.1398 41.4763 49.0623 41.3779 48.9617C41.2802 48.8621 41.2053 48.7426 41.1581 48.6114C41.1053 48.4663 41.0789 48.313 41.0801 48.1587L41.0915 47.9222ZM42.5802 47.7804C42.5875 47.6547 42.55 47.5306 42.4742 47.4301C42.4331 47.3901 42.3842 47.3588 42.3306 47.3382C42.2771 47.3176 42.2198 47.308 42.1625 47.3101C42.104 47.3075 42.0456 47.3167 41.9908 47.3374C41.936 47.358 41.8859 47.3895 41.8437 47.4301C41.7579 47.5231 41.7077 47.6434 41.7019 47.7699L42.5802 47.7804Z" fill="white"/>
<path d="M44.3181 46.8655V47.1633C44.3886 47.0531 44.4859 46.9627 44.6009 46.9006C44.7217 46.8395 44.8553 46.808 44.9906 46.8086C45.1221 46.8084 45.2523 46.8349 45.3733 46.8865C45.4888 46.9382 45.5925 47.013 45.678 47.1063C45.7658 47.2054 45.8331 47.3209 45.8759 47.4461C45.9257 47.5893 45.9498 47.7402 45.9468 47.8918V48.1834C45.9502 48.3325 45.9262 48.4809 45.8759 48.6213C45.8331 48.7465 45.7658 48.862 45.678 48.961C45.5944 49.0565 45.4902 49.1317 45.3733 49.1808C45.2523 49.2325 45.1221 49.259 44.9906 49.2588C44.8572 49.2621 44.7253 49.2304 44.6079 49.1668C44.493 49.1083 44.3937 49.0234 44.3181 48.919V50.1712H43.7305V46.8655H44.3181ZM44.3181 48.2316C44.3238 48.3711 44.3791 48.5039 44.4739 48.6064C44.5226 48.653 44.5804 48.6891 44.6437 48.7123C44.707 48.7355 44.7744 48.7454 44.8417 48.7412C44.9149 48.7466 44.9883 48.7347 45.056 48.7064C45.1237 48.6781 45.1838 48.6342 45.2314 48.5784C45.3279 48.4536 45.3758 48.298 45.3663 48.1405V47.9277C45.3758 47.7703 45.3279 47.6147 45.2314 47.4899C45.1838 47.434 45.1237 47.3902 45.056 47.3619C44.9883 47.3336 44.9149 47.3216 44.8417 47.327C44.7744 47.3229 44.707 47.3328 44.6437 47.356C44.5804 47.3792 44.5226 47.4152 44.4739 47.4619C44.3791 47.5643 44.3238 47.6972 44.3181 47.8367V48.2316Z" fill="white"/>
<path d="M47.6749 47.4268C47.5362 47.43 47.4032 47.4828 47.3001 47.5757C47.2508 47.6256 47.2123 47.6853 47.1871 47.7508C47.1582 47.8277 47.144 47.9094 47.1451 47.9916V49.2018H46.5566V46.8637H47.1372V47.3235C47.1789 47.1879 47.2574 47.0666 47.364 46.9732C47.4724 46.8809 47.6115 46.8327 47.7537 46.8383H47.9376V47.4189L47.6749 47.4268Z" fill="white"/>
<path d="M48.2461 47.9222C48.2449 47.7679 48.2713 47.6145 48.3241 47.4695C48.3738 47.3395 48.4485 47.2205 48.5439 47.1192C48.6381 47.0216 48.7514 46.9444 48.8766 46.8924C49.0167 46.8402 49.165 46.8138 49.3145 46.8145C49.4515 46.814 49.587 46.8439 49.7112 46.902C49.8326 46.95 49.9399 47.0281 50.0229 47.1288C50.1159 47.2293 50.1858 47.3488 50.2278 47.4791C50.2776 47.6223 50.3017 47.7732 50.2987 47.9248V48.2366H48.8407C48.8436 48.3811 48.899 48.5196 48.9966 48.6263C49.0468 48.6727 49.1059 48.7086 49.1703 48.7318C49.2347 48.755 49.3031 48.7649 49.3714 48.7611C49.4733 48.7612 49.5741 48.7405 49.6678 48.7003C49.7614 48.6601 49.8459 48.6012 49.9161 48.5273L50.2558 48.8531C50.1467 48.9749 50.0142 49.0734 49.8662 49.1429C49.6995 49.2111 49.5208 49.2448 49.3407 49.2419C49.1884 49.246 49.0369 49.2195 48.895 49.1639C48.7654 49.1164 48.6489 49.0386 48.5552 48.9371C48.4555 48.8379 48.3781 48.7185 48.3284 48.5868C48.2757 48.4418 48.2493 48.2885 48.2505 48.1341L48.2461 47.9222ZM49.74 47.7803C49.7342 47.6539 49.684 47.5336 49.5982 47.4406C49.5573 47.4002 49.5085 47.3687 49.4548 47.3481C49.4012 47.3274 49.3439 47.3181 49.2864 47.3206C49.1685 47.3168 49.0539 47.36 48.9677 47.4406C48.8848 47.5354 48.835 47.6547 48.8258 47.7803H49.74Z" fill="white"/>
<path d="M52.9985 49.2023H52.3855V47.7864C52.3887 47.6576 52.343 47.5325 52.2577 47.4361C52.2115 47.3891 52.1565 47.3517 52.0957 47.3262C52.035 47.3007 51.9698 47.2876 51.9039 47.2876C51.838 47.2876 51.7728 47.3007 51.712 47.3262C51.6513 47.3517 51.5962 47.3891 51.5501 47.4361C51.4632 47.5315 51.4175 47.6574 51.4231 47.7864V49.2023H50.832V46.8669H51.4196V47.2496C51.4848 47.1184 51.5851 47.0081 51.7095 46.9308C51.8287 46.8508 51.9695 46.8089 52.1132 46.8108C52.2304 46.8076 52.3468 46.8319 52.4529 46.8818C52.5516 46.9255 52.6408 46.988 52.7156 47.0657C52.7884 47.1467 52.8459 47.2401 52.8855 47.3415C52.9227 47.4509 52.942 47.5657 52.9424 47.6813L52.9985 49.2023Z" fill="white"/>
<path d="M53.5987 47.9222C53.5975 47.7679 53.6239 47.6145 53.6766 47.4695C53.729 47.3408 53.8034 47.2223 53.8964 47.1192C53.9906 47.0216 54.1039 46.9444 54.2292 46.8924C54.3692 46.8402 54.5176 46.8138 54.667 46.8145C54.8064 46.8139 54.9441 46.8438 55.0707 46.902C55.19 46.9538 55.2965 47.0312 55.3825 47.1288C55.4707 47.2315 55.538 47.3505 55.5804 47.4791C55.6302 47.6223 55.6542 47.7732 55.6513 47.9248V48.2366H54.1793C54.1787 48.3818 54.2346 48.5215 54.3351 48.6263C54.3849 48.6734 54.4439 48.7098 54.5084 48.733C54.5729 48.7562 54.6415 48.7658 54.7099 48.7611C54.8106 48.7602 54.9102 48.7391 55.0025 48.6989C55.0949 48.6587 55.1782 48.6004 55.2476 48.5273L55.5979 48.8776C55.4888 48.9994 55.3562 49.098 55.2082 49.1674C55.0418 49.2364 54.8629 49.2701 54.6828 49.2664C54.5305 49.2705 54.3789 49.244 54.237 49.1884C54.1074 49.1409 53.9909 49.0631 53.8973 48.9616C53.7974 48.8639 53.722 48.7439 53.6775 48.6114C53.6179 48.4679 53.5881 48.3139 53.5899 48.1586L53.5987 47.9222ZM55.0926 47.7803C55.0859 47.6554 55.0385 47.5361 54.9577 47.4406C54.9155 47.4 54.8655 47.3685 54.8107 47.3478C54.7559 47.3272 54.6975 47.3179 54.639 47.3206C54.5816 47.3185 54.5244 47.328 54.4708 47.3487C54.4172 47.3693 54.3684 47.4005 54.3272 47.4406C54.2418 47.5345 54.1895 47.6539 54.1784 47.7803H55.0926Z" fill="white"/>
<path d="M56.2383 46.8672H56.8259V48.2832C56.822 48.412 56.8678 48.5374 56.9537 48.6335C56.9988 48.6823 57.0535 48.7212 57.1144 48.7479C57.1753 48.7745 57.241 48.7883 57.3075 48.7883C57.374 48.7883 57.4397 48.7745 57.5006 48.7479C57.5615 48.7212 57.6162 48.6823 57.6613 48.6335C57.7051 48.5867 57.7391 48.5316 57.761 48.4714C57.783 48.4112 57.7926 48.3472 57.7891 48.2832V46.8672H58.3767V49.2035H57.7637V48.8427C57.7011 48.9752 57.6032 49.0879 57.4809 49.1685C57.359 49.2419 57.2195 49.2809 57.0772 49.2815C56.9599 49.2847 56.8436 49.2604 56.7374 49.2105C56.636 49.1685 56.5445 49.1059 56.4686 49.0266C56.3956 48.9471 56.3401 48.8531 56.3057 48.7508C56.2628 48.6427 56.2411 48.5273 56.2418 48.411L56.2383 46.8672Z" fill="white"/>
<path d="M60.1726 47.4268C60.0339 47.43 59.9009 47.4828 59.7978 47.5757C59.7485 47.6256 59.71 47.6853 59.6848 47.7508C59.6534 47.8273 59.6365 47.9089 59.6349 47.9916V49.2018H59.043V46.8637H59.6306V47.3235C59.6722 47.1879 59.7507 47.0666 59.8574 46.9732C59.9657 46.8809 60.1048 46.8327 60.247 46.8383H60.4309V47.4189L60.1726 47.4268Z" fill="white"/>
<path d="M61.8583 49.2511C61.7238 49.2546 61.5897 49.2354 61.4616 49.1942C61.3465 49.1626 61.2384 49.1097 61.1428 49.0383C61.0493 48.9719 60.9699 48.8877 60.909 48.7905C60.8492 48.6903 60.8085 48.5798 60.7891 48.4648H61.3408C61.365 48.5636 61.4257 48.6496 61.5106 48.7056C61.6148 48.7723 61.7374 48.8045 61.8609 48.7975C61.9437 48.8022 62.0258 48.7797 62.0947 48.7336C62.1228 48.714 62.1455 48.6878 62.1608 48.6572C62.1761 48.6266 62.1835 48.5926 62.1823 48.5585C62.1834 48.5342 62.1789 48.51 62.169 48.4878C62.1591 48.4656 62.1442 48.446 62.1254 48.4306C62.0788 48.3851 62.0196 48.3546 61.9555 48.343L61.4739 48.2301C61.0421 48.1311 60.8293 47.9043 60.8293 47.5225C60.8288 47.4198 60.8506 47.3182 60.8933 47.2248C60.9328 47.1343 60.9927 47.0543 61.0684 46.991C61.1505 46.9249 61.244 46.8745 61.3443 46.8421C61.4569 46.8034 61.5754 46.7842 61.6945 46.7852C61.8216 46.7852 61.948 46.8044 62.0693 46.8421C62.1814 46.8791 62.2867 46.9341 62.3811 47.005C62.467 47.0781 62.5411 47.1641 62.6009 47.2598C62.6573 47.361 62.6955 47.4712 62.7138 47.5856H62.1473C62.1251 47.4858 62.0672 47.3977 61.9844 47.3378C61.9015 47.2741 61.7989 47.2415 61.6945 47.2458C61.6182 47.2409 61.5427 47.2636 61.4817 47.3097C61.4568 47.3288 61.4367 47.3534 61.4231 47.3818C61.4096 47.4101 61.4029 47.4412 61.4038 47.4726C61.4038 47.5859 61.4957 47.6638 61.6796 47.7064L62.1254 47.8124C62.3012 47.8283 62.4646 47.91 62.5828 48.0412C62.7011 48.1724 62.7654 48.3434 62.7629 48.5199C62.7656 48.6259 62.7411 48.7308 62.6919 48.8247C62.5917 49.008 62.424 49.145 62.2243 49.2065C62.1073 49.2413 61.9856 49.2582 61.8635 49.2564" fill="white"/>
<path d="M65.4266 49.2021H64.839V47.7869C64.8422 47.6582 64.7965 47.5331 64.7112 47.4367C64.665 47.3896 64.61 47.3523 64.5492 47.3268C64.4885 47.3013 64.4233 47.2882 64.3574 47.2882C64.2915 47.2882 64.2263 47.3013 64.1656 47.3268C64.1048 47.3523 64.0498 47.3896 64.0036 47.4367C63.9167 47.5321 63.8711 47.658 63.8766 47.7869V49.2029H63.2891V45.9629H63.8766V47.2475C63.9415 47.1184 64.039 47.0085 64.1595 46.9288C64.2823 46.8509 64.4247 46.8093 64.5702 46.8088C64.6873 46.8071 64.8033 46.8313 64.91 46.8797C65.0086 46.9235 65.0978 46.9859 65.1727 47.0636C65.2457 47.1432 65.3011 47.2371 65.3355 47.3395C65.3785 47.4476 65.4002 47.5629 65.3995 47.6792L65.4266 49.2021Z" fill="white"/>
<path d="M66.4248 46.5554C66.3816 46.5572 66.3385 46.5499 66.2982 46.5341C66.258 46.5182 66.2214 46.4942 66.191 46.4635C66.1583 46.4342 66.1324 46.3981 66.1153 46.3577C66.0982 46.3172 66.0903 46.2735 66.092 46.2297C66.0907 46.1848 66.0987 46.1402 66.1158 46.0987C66.1329 46.0572 66.1585 46.0198 66.191 45.9889C66.2214 45.9581 66.258 45.9341 66.2982 45.9183C66.3385 45.9025 66.3816 45.8952 66.4248 45.8969C66.4691 45.8946 66.5134 45.9016 66.5549 45.9175C66.5964 45.9333 66.6341 45.9576 66.6656 45.9889C66.7267 46.0539 66.7597 46.1404 66.7576 46.2297C66.7593 46.2729 66.752 46.316 66.7362 46.3563C66.7204 46.3965 66.6963 46.433 66.6656 46.4635C66.6341 46.4947 66.5964 46.519 66.5549 46.5349C66.5134 46.5507 66.4691 46.5577 66.4248 46.5554ZM66.7225 49.2026H66.1349V46.8663H66.7225V49.2026Z" fill="white"/>
<path d="M68.0186 46.8665V47.1643C68.0956 47.0491 68.2015 46.9562 68.3256 46.8948C68.4498 46.8333 68.5878 46.8055 68.7261 46.814C68.8576 46.8145 68.9876 46.841 69.1088 46.8919C69.2222 46.9438 69.3236 47.0186 69.4065 47.1117C69.4966 47.2104 69.5662 47.3258 69.6114 47.4515C69.6578 47.5956 69.6818 47.7459 69.6824 47.8972V48.1853C69.6819 48.3341 69.6579 48.4819 69.6114 48.6232C69.5662 48.7488 69.4966 48.8643 69.4065 48.9629C69.3257 49.058 69.2242 49.1332 69.1097 49.1827C68.9885 49.2337 68.8584 49.2601 68.727 49.2607C68.5939 49.2638 68.4623 49.2321 68.3452 49.1687C68.2279 49.1106 68.1259 49.0257 68.0474 48.9209V50.174H67.459V46.8665H68.0186ZM68.0186 48.2326C68.0269 48.3729 68.0846 48.5057 68.1814 48.6074C68.2299 48.6544 68.2876 48.6907 68.351 48.7139C68.4143 48.7372 68.4819 48.7468 68.5492 48.7423C68.6224 48.7477 68.6958 48.7357 68.7635 48.7074C68.8312 48.6791 68.8913 48.6353 68.9389 48.5794C69.0354 48.4546 69.0833 48.299 69.0738 48.1416V47.9288C69.0833 47.7713 69.0354 47.6157 68.9389 47.4909C68.8913 47.4351 68.8312 47.3913 68.7635 47.363C68.6958 47.3347 68.6224 47.3227 68.5492 47.328C68.4819 47.3235 68.4143 47.3332 68.351 47.3564C68.2876 47.3796 68.2299 47.4159 68.1814 47.4629C68.0846 47.5647 68.0269 47.6974 68.0186 47.8377V48.2326Z" fill="white"/>
<path d="M2.67522 52.5368C2.65354 52.3516 2.5655 52.1805 2.4274 52.0552C2.2944 51.9448 2.12557 51.8868 1.95278 51.8923C1.84917 51.8884 1.74597 51.9074 1.65049 51.9478C1.555 51.9882 1.46957 52.0491 1.40022 52.1261C1.24825 52.3107 1.17217 52.5461 1.18743 52.7847V53.0894C1.18328 53.2193 1.20256 53.349 1.24435 53.4721C1.2738 53.5771 1.32715 53.6739 1.40022 53.7549C1.46488 53.8322 1.54759 53.8924 1.64103 53.9301C1.74059 53.9679 1.84626 53.9872 1.95278 53.987C2.12926 53.9848 2.29854 53.9167 2.4274 53.7961C2.56655 53.6716 2.6548 53.5 2.67522 53.3144H3.26281C3.25014 53.4899 3.20187 53.6609 3.12094 53.8171C3.05126 53.9588 2.95528 54.086 2.8381 54.1919C2.72148 54.299 2.58406 54.381 2.43441 54.4327C2.28053 54.491 2.11731 54.5206 1.95278 54.5203C1.75877 54.5228 1.56618 54.4868 1.38621 54.4143C1.22177 54.3525 1.07396 54.2533 0.954494 54.1245C0.830171 53.9979 0.73381 53.8466 0.671647 53.6805C0.601605 53.4927 0.568021 53.2933 0.572694 53.0929V52.7671C0.578756 52.5666 0.624595 52.3693 0.70755 52.1866C0.769371 52.0176 0.8657 51.8635 0.990397 51.7338C1.10989 51.6083 1.25464 51.5095 1.41511 51.444C1.59508 51.3715 1.78767 51.3355 1.98168 51.338C2.15106 51.3388 2.31893 51.3699 2.47731 51.43C2.60813 51.4906 2.72682 51.5746 2.82759 51.6778C2.94713 51.7846 3.04341 51.9148 3.11044 52.0605C3.18595 52.2133 3.23172 52.3791 3.24529 52.5491L2.67522 52.5368Z" fill="white"/>
<path d="M3.7307 53.1799C3.72785 53.026 3.75185 52.8728 3.80163 52.7272C3.85156 52.5973 3.9262 52.4784 4.02142 52.3769C4.11377 52.2771 4.22755 52.1996 4.35419 52.1501C4.49265 52.0914 4.64164 52.0616 4.79203 52.0625C4.93144 52.0612 5.06938 52.0912 5.19572 52.1501C5.3147 52.2025 5.42102 52.2798 5.50747 52.3769C5.59575 52.4796 5.66299 52.5986 5.70537 52.7272C5.75521 52.8704 5.77922 53.0213 5.7763 53.1729V53.4847H4.30427C4.3037 53.6299 4.3596 53.7696 4.46014 53.8743C4.50989 53.9215 4.56889 53.9579 4.6334 53.9811C4.69791 54.0043 4.76654 54.0139 4.83494 54.0092C4.93449 54.0136 5.03385 53.9969 5.1265 53.9602C5.21916 53.9236 5.30303 53.8677 5.37261 53.7964L5.73339 54.1467C5.62469 54.2689 5.49206 54.3676 5.34371 54.4365C5.17405 54.4983 4.99298 54.5225 4.81305 54.5075C4.6614 54.5101 4.51075 54.4824 4.36995 54.426C4.23998 54.3779 4.12234 54.3015 4.02556 54.2023C3.92878 54.1031 3.85528 53.9836 3.81038 53.8524C3.75412 53.7083 3.72761 53.5543 3.73245 53.3997L3.7307 53.1799ZM5.21936 53.0381C5.21607 52.9124 5.16828 52.792 5.08451 52.6983C5.04229 52.6577 4.99226 52.6262 4.93746 52.6055C4.88267 52.5849 4.82425 52.5757 4.76576 52.5783C4.70838 52.5762 4.65118 52.5858 4.5976 52.6064C4.54401 52.627 4.49517 52.6583 4.45401 52.6983C4.36857 52.7922 4.31628 52.9116 4.30515 53.0381H5.21936Z" fill="white"/>
<path d="M8.49464 54.4621H7.90705V53.089C7.91038 52.9634 7.8645 52.8415 7.7792 52.7492C7.73791 52.7022 7.68657 52.665 7.62897 52.6404C7.57137 52.6159 7.50899 52.6046 7.44644 52.6074C7.38343 52.604 7.32045 52.6144 7.26181 52.6376C7.20316 52.6609 7.15024 52.6966 7.10667 52.7422C7.06122 52.7881 7.02577 52.843 7.00256 52.9032C6.97935 52.9635 6.96888 53.028 6.97182 53.0925V54.5085H6.37109V52.1336H6.95868V52.5084C7.02592 52.38 7.12515 52.2711 7.24678 52.1923C7.36605 52.1123 7.50685 52.0704 7.65047 52.0723C7.76738 52.0725 7.88301 52.0967 7.99024 52.1433C8.08844 52.1878 8.17752 52.2501 8.25295 52.3271C8.32568 52.4081 8.38323 52.5016 8.42283 52.603C8.46093 52.7158 8.48016 52.8342 8.47975 52.9533L8.49464 54.4621Z" fill="white"/>
<path d="M9.59837 54.299C9.49207 54.1889 9.43354 54.0413 9.43549 53.8883V52.6352H8.96875V52.1255H9.43286V51.418H10.0205V52.1255H10.615V52.6352H9.99243V53.7963C9.99074 53.8217 9.995 53.8471 10.0049 53.8705C10.0148 53.8939 10.03 53.9147 10.0493 53.9312C10.0978 53.9621 10.1548 53.9771 10.2122 53.9741H10.6159V54.4837H10.0353C9.95047 54.4892 9.86538 54.4775 9.78507 54.4496C9.70476 54.4216 9.63086 54.3778 9.56772 54.3209" fill="white"/>
<path d="M12.26 52.6858C12.1895 52.6855 12.1198 52.6998 12.0551 52.7279C11.9905 52.7519 11.9324 52.7906 11.8852 52.8408C11.8321 52.8891 11.791 52.949 11.7653 53.016C11.7358 53.0928 11.7216 53.1746 11.7232 53.2568V54.4591H11.1348V52.1333H11.7215V52.586C11.7621 52.45 11.8408 52.3284 11.9483 52.2357C12.0586 52.1477 12.1969 52.1023 12.338 52.1079H12.5131V52.6815L12.26 52.6858Z" fill="white"/>
<path d="M12.8337 53.1799C12.8296 53.0254 12.8561 52.8715 12.9116 52.7272C12.9564 52.5964 13.029 52.4769 13.1244 52.3769C13.2194 52.277 13.3355 52.1995 13.4642 52.1501C13.6005 52.0913 13.7475 52.0614 13.8959 52.0625C14.0353 52.0612 14.1732 52.0912 14.2996 52.1501C14.4186 52.2025 14.5249 52.2798 14.6113 52.3769C14.7021 52.4778 14.7697 52.5973 14.8092 52.7272C14.8615 52.87 14.8879 53.0209 14.8872 53.1729V53.4847H13.4073C13.4101 53.6292 13.4655 53.7677 13.5631 53.8743C13.6134 53.9208 13.6724 53.9567 13.7368 53.9799C13.8012 54.0031 13.8696 54.013 13.9379 54.0092C14.0397 54.0084 14.1403 53.9874 14.2339 53.9472C14.3274 53.9071 14.412 53.8487 14.4826 53.7754L14.8329 54.1257C14.7242 54.2479 14.5916 54.3466 14.4432 54.4155C14.2759 54.4875 14.0946 54.5213 13.9125 54.5145C13.7528 54.5236 13.5931 54.4969 13.4449 54.4365C13.3145 54.3876 13.1954 54.3129 13.0946 54.2167C12.9977 54.1166 12.9229 53.9973 12.8749 53.8665C12.8221 53.7214 12.7957 53.5681 12.7969 53.4137L12.8337 53.1799ZM14.3224 53.0381C14.3191 52.9124 14.2713 52.792 14.1875 52.6983C14.1464 52.6583 14.0975 52.627 14.0439 52.6064C13.9903 52.5858 13.9331 52.5762 13.8758 52.5783C13.8173 52.5757 13.7589 52.5849 13.7041 52.6055C13.6493 52.6262 13.5992 52.6577 13.557 52.6983C13.4712 52.7913 13.421 52.9116 13.4151 53.0381H14.3224Z" fill="white"/>
<path d="M16.543 54.4606V51.3887H18.6446V51.9193H17.1516V52.6628H18.5956V53.1882H17.1516V54.4623L16.543 54.4606Z" fill="white"/>
<path d="M21.2356 53.418C21.2368 53.5723 21.2104 53.7256 21.1577 53.8707C21.1096 54.0032 21.0321 54.123 20.9308 54.221C20.8356 54.3189 20.7195 54.394 20.5911 54.4408C20.4492 54.4963 20.2977 54.5228 20.1454 54.5187C19.9976 54.5228 19.8506 54.4963 19.7136 54.4408C19.5819 54.3946 19.4622 54.3195 19.3634 54.221C19.2651 54.1205 19.188 54.0014 19.1366 53.8707C19.0844 53.7255 19.058 53.5723 19.0586 53.418V53.1701C19.0574 53.0158 19.0838 52.8625 19.1366 52.7174C19.1863 52.5858 19.2636 52.4663 19.3634 52.3671C19.459 52.2679 19.5749 52.1906 19.7031 52.1403C19.9888 52.0366 20.3019 52.0366 20.5876 52.1403C20.7132 52.1925 20.8283 52.2669 20.9273 52.3601C21.0256 52.4606 21.1027 52.5797 21.1541 52.7104C21.207 52.8579 21.2334 53.0135 21.2321 53.1701L21.2356 53.418ZM20.655 53.1842C20.6619 53.0281 20.6169 52.8741 20.5272 52.7463C20.4796 52.6923 20.4205 52.6496 20.3543 52.6214C20.2881 52.5933 20.2164 52.5803 20.1445 52.5834C20.0738 52.5804 20.0033 52.5936 19.9384 52.6218C19.8734 52.65 19.8158 52.6926 19.7697 52.7463C19.6799 52.8741 19.635 53.0281 19.6418 53.1842V53.3969C19.6332 53.5557 19.6782 53.7127 19.7697 53.8427C19.8158 53.8964 19.8734 53.939 19.9384 53.9672C20.0033 53.9954 20.0738 54.0085 20.1445 54.0056C20.2164 54.0087 20.2881 53.9957 20.3543 53.9675C20.4205 53.9394 20.4796 53.8967 20.5272 53.8427C20.6186 53.7127 20.6637 53.5557 20.655 53.3969V53.1842Z" fill="white"/>
<path d="M22.9768 52.6858C22.9063 52.6858 22.8365 52.7004 22.7719 52.7287C22.7072 52.7548 22.6487 52.794 22.6 52.8439C22.5513 52.8938 22.5135 52.9533 22.4891 53.0186C22.4536 53.0938 22.4365 53.1763 22.4391 53.2594V54.4591H21.8516V52.1333H22.4391V52.586C22.4784 52.4527 22.5518 52.332 22.6519 52.2357C22.7623 52.1477 22.9006 52.1023 23.0416 52.1079H23.2168V52.6815L22.9768 52.6858Z" fill="white"/>
<path d="M24.8105 51.3887H26.9122V51.9193H25.4191V52.6628H26.8684V53.1882H25.4191V53.9282H26.9131V54.4588H24.8114L24.8105 51.3887Z" fill="white"/>
<path d="M28.0666 53.2862L27.2171 52.125H27.8897L28.3923 52.8544L28.902 52.125H29.5535L28.697 53.2792L29.5727 54.4613H28.902L28.3713 53.7109L27.8546 54.4613H27.2031L28.0666 53.2862Z" fill="white"/>
<path d="M31.3727 52.8906H29.8438V53.4073H31.3727V52.8906Z" fill="white"/>
<path d="M31.9884 52.7632C31.9865 52.5654 32.0201 52.3687 32.0873 52.1826C32.1543 52.0128 32.2556 51.8587 32.385 51.7299C32.5104 51.6016 32.6626 51.5027 32.8308 51.4401C33.0132 51.3676 33.2081 51.3316 33.4043 51.3341C33.6029 51.3317 33.8 51.3677 33.9849 51.4401C34.1512 51.5062 34.3027 51.6048 34.4306 51.7299C34.5553 51.8609 34.6537 52.0146 34.7205 52.1826C34.7935 52.3674 34.8295 52.5646 34.8265 52.7632V53.089C34.8295 53.2876 34.7935 53.4849 34.7205 53.6696C34.6553 53.8384 34.5567 53.9924 34.4306 54.1223C34.3047 54.2499 34.1526 54.3487 33.9849 54.4121C33.8 54.4845 33.6029 54.5205 33.4043 54.5181C33.2081 54.5206 33.0132 54.4846 32.8308 54.4121C32.6613 54.3523 32.5085 54.2529 32.385 54.1223C32.2541 53.9948 32.1525 53.8403 32.0873 53.6696C32.0201 53.4835 31.9865 53.2869 31.9884 53.089V52.7632ZM32.6013 53.068C32.6007 53.1977 32.6199 53.3267 32.6583 53.4506C32.6962 53.555 32.7539 53.651 32.8281 53.7335C32.8954 53.811 32.9804 53.8711 33.076 53.9086C33.2865 53.9843 33.5169 53.9843 33.7275 53.9086C33.8243 53.8697 33.9113 53.8099 33.9823 53.7335C34.0569 53.6524 34.1125 53.5558 34.1452 53.4506C34.1892 53.3282 34.2109 53.1989 34.2091 53.0688V52.786C34.2227 52.5453 34.1412 52.3088 33.9823 52.1275C33.8265 51.9769 33.6184 51.8928 33.4017 51.8928C33.1851 51.8928 32.9769 51.9769 32.8211 52.1275C32.664 52.3095 32.5851 52.5461 32.6013 52.786V53.068Z" fill="white"/>
<path d="M35.2363 52.1324H35.7039V51.6727C35.701 51.5983 35.7133 51.5241 35.7401 51.4547C35.7669 51.3853 35.8076 51.3221 35.8598 51.269C35.9216 51.2096 35.9951 51.1638 36.0756 51.1345C36.1562 51.1052 36.2419 51.0932 36.3274 51.0991H36.887V51.6727H36.4492C36.4284 51.6716 36.4076 51.6748 36.3881 51.6822C36.3687 51.6896 36.351 51.701 36.3362 51.7156C36.3051 51.7534 36.2898 51.8017 36.2933 51.8505V52.1692H36.8879V52.6719H36.2933V54.4968H35.7057V52.6351H35.2363V52.1324Z" fill="white"/>
<path d="M37.1621 52.1328H37.6297V51.6731C37.6281 51.5982 37.6417 51.5239 37.6697 51.4545C37.6977 51.3851 37.7395 51.3221 37.7926 51.2694C37.8539 51.2093 37.9274 51.1631 38.008 51.1338C38.0887 51.1045 38.1747 51.0928 38.2602 51.0995H38.8198V51.6731H38.3819C38.3379 51.6712 38.2949 51.6866 38.262 51.716C38.2309 51.7538 38.2156 51.802 38.2191 51.8508V52.1696H38.8207V52.6722H38.2261V54.4971H37.6385V52.6354H37.1621V52.1328Z" fill="white"/>
<path d="M39.0744 53.18C39.0738 53.0257 39.1002 52.8724 39.1523 52.7272C39.1969 52.5947 39.2722 52.4747 39.3721 52.3769C39.4645 52.2772 39.5783 52.1996 39.7049 52.1501C39.8431 52.0906 39.9923 52.0608 40.1427 52.0626C40.2798 52.0621 40.4153 52.092 40.5394 52.1501C40.6584 52.2025 40.7647 52.2799 40.8512 52.3769C40.9416 52.4793 41.0112 52.5983 41.0561 52.7272C41.1025 52.8713 41.1264 53.0216 41.127 53.1729V53.4847H39.6383C39.6412 53.6292 39.6966 53.7677 39.7942 53.8744C39.8444 53.9209 39.9035 53.9568 39.9679 53.9799C40.0323 54.0031 40.1007 54.0131 40.169 54.0092C40.2709 54.0093 40.3718 53.9886 40.4654 53.9484C40.5591 53.9082 40.6435 53.8493 40.7137 53.7754L41.064 54.1257C40.9553 54.2479 40.8226 54.3466 40.6743 54.4155C40.5086 54.4871 40.3292 54.5209 40.1489 54.5145C39.9966 54.5186 39.845 54.4921 39.7031 54.4366C39.5753 54.3888 39.4594 54.3138 39.3634 54.2168C39.2643 54.117 39.187 53.9977 39.1366 53.8665C39.0838 53.7214 39.0574 53.5681 39.0586 53.4138L39.0744 53.18ZM40.5683 53.0381C40.5625 52.9117 40.5123 52.7914 40.4265 52.6983C40.3853 52.6583 40.3365 52.627 40.2829 52.6064C40.2293 52.5858 40.1721 52.5762 40.1147 52.5784C40.0562 52.5757 39.9978 52.585 39.943 52.6056C39.8882 52.6262 39.8382 52.6578 39.796 52.6983C39.7102 52.7914 39.6599 52.9117 39.6541 53.0381H40.5683Z" fill="white"/>
<path d="M43.8224 54.4607H43.2348V53.0877C43.2382 52.9621 43.1923 52.8401 43.107 52.7479C43.065 52.6999 43.0125 52.6621 42.9536 52.6375C42.8947 52.6129 42.8309 52.6022 42.7672 52.606C42.7042 52.6027 42.6412 52.613 42.5826 52.6363C42.5239 52.6596 42.471 52.6953 42.4274 52.7409C42.3402 52.8362 42.2942 52.9621 42.2996 53.0912V54.5072H41.7129V52.1323H42.2996V52.5071C42.3645 52.378 42.462 52.2681 42.5824 52.1883C42.7053 52.1104 42.8477 52.0688 42.9931 52.0684C43.1099 52.0701 43.2252 52.0941 43.3329 52.1393C43.4301 52.1856 43.5189 52.2477 43.5956 52.3232C43.6686 52.4027 43.7241 52.4967 43.7585 52.599C43.8024 52.7105 43.8241 52.8295 43.8224 52.9493V54.4607Z" fill="white"/>
<path d="M46.0594 54.4605V54.1558C45.9871 54.266 45.8903 54.358 45.7766 54.4246C45.6545 54.489 45.5178 54.5207 45.3799 54.5166C45.2479 54.5228 45.1163 54.5 44.994 54.4499C44.8718 54.3999 44.762 54.3237 44.6723 54.2267C44.5853 54.1259 44.516 54.011 44.4674 53.887C44.421 53.7429 44.3971 53.5926 44.3965 53.4412V53.1514C44.3971 53.0001 44.421 52.8497 44.4674 52.7057C44.5543 52.46 44.735 52.2587 44.9701 52.1461C45.0912 52.0952 45.2213 52.0687 45.3527 52.0682C45.488 52.0683 45.6214 52.0998 45.7424 52.1601C45.8592 52.2189 45.959 52.3066 46.0323 52.4149V51.2188H46.6199V54.4588L46.0594 54.4605ZM46.0594 53.1864C46.0677 53.0291 46.0199 52.874 45.9246 52.7486C45.8745 52.6939 45.813 52.6509 45.7445 52.6227C45.6759 52.5946 45.6019 52.5819 45.5279 52.5857C45.4549 52.582 45.382 52.5947 45.3145 52.6229C45.2471 52.6511 45.1868 52.694 45.1382 52.7486C45.0428 52.874 44.9951 53.0291 45.0033 53.1864V53.3992C44.9967 53.5587 45.0442 53.7158 45.1382 53.8449C45.1868 53.8995 45.2471 53.9425 45.3145 53.9707C45.382 53.9988 45.4549 54.0115 45.5279 54.0078C45.6019 54.0116 45.6759 53.999 45.7445 53.9708C45.813 53.9426 45.8745 53.8997 45.9246 53.8449C46.0185 53.7158 46.066 53.5587 46.0594 53.3992V53.1864Z" fill="white"/>
<path d="M47.2569 53.1799C47.2528 53.0254 47.2793 52.8715 47.3348 52.7272C47.3796 52.5964 47.4522 52.4769 47.5476 52.3769C47.6413 52.2755 47.7577 52.1977 47.8874 52.1501C48.0235 52.0908 48.1706 52.0609 48.3191 52.0626C48.4585 52.0613 48.5964 52.0912 48.7228 52.1501C48.8418 52.2025 48.9481 52.2799 49.0345 52.3769C49.1228 52.4796 49.1901 52.5986 49.2324 52.7272C49.2847 52.87 49.311 53.0209 49.3104 53.1729V53.4847H47.8305C47.8299 53.6299 47.8858 53.7696 47.9863 53.8744C48.0361 53.9215 48.0951 53.9579 48.1596 53.9811C48.2241 54.0043 48.2927 54.0139 48.3611 54.0092C48.4629 54.0085 48.5635 53.9874 48.6571 53.9473C48.7506 53.9071 48.8352 53.8487 48.9058 53.7754L49.2561 54.1257C49.1474 54.2479 49.0147 54.3466 48.8664 54.4155C48.6991 54.4875 48.5178 54.5213 48.3357 54.5145C48.1834 54.5186 48.0319 54.4921 47.89 54.4366C47.76 54.3884 47.6424 54.312 47.5456 54.2128C47.4488 54.1136 47.3753 53.9941 47.3304 53.863C47.2742 53.7189 47.2477 53.5649 47.2525 53.4102L47.2569 53.1799ZM48.7456 53.0381C48.7423 52.9124 48.6945 52.792 48.6107 52.6983C48.5685 52.6577 48.5185 52.6262 48.4637 52.6056C48.4089 52.5849 48.3504 52.5757 48.292 52.5783C48.2346 52.5762 48.1774 52.5858 48.1238 52.6064C48.0702 52.627 48.0214 52.6583 47.9802 52.6983C47.8948 52.7922 47.8425 52.9116 47.8313 53.0381H48.7456Z" fill="white"/>
<path d="M51.0159 52.6857C50.9454 52.6862 50.8757 52.7008 50.811 52.7286C50.7463 52.7546 50.6878 52.7938 50.6391 52.8438C50.5904 52.8937 50.5526 52.9531 50.5281 53.0184C50.4958 53.0946 50.4789 53.1765 50.4782 53.2592V54.4589H49.8906V52.1331H50.4782V52.5858C50.5215 52.4511 50.5998 52.3302 50.705 52.2356C50.8159 52.1486 50.9538 52.1034 51.0947 52.1077H51.2786V52.6813L51.0159 52.6857Z" fill="white"/>
<path d="M52.6923 54.5034C52.5583 54.5056 52.4248 54.4888 52.2956 54.4534C52.1801 54.4194 52.0721 54.3641 51.9768 54.2906C51.8833 54.2242 51.8039 54.1399 51.743 54.0427C51.6832 53.9425 51.6425 53.8321 51.623 53.717H52.1756C52.2012 53.817 52.2614 53.9048 52.3455 53.9648C52.4515 54.0268 52.573 54.0572 52.6958 54.0524C52.7786 54.057 52.8606 54.0345 52.9296 53.9884C52.9569 53.9694 52.9791 53.9439 52.9944 53.9143C53.0096 53.8847 53.0175 53.8519 53.0171 53.8186C53.0183 53.7933 53.0138 53.768 53.004 53.7447C52.9941 53.7214 52.9792 53.7005 52.9602 53.6837C52.9101 53.6433 52.8523 53.6135 52.7903 53.5961L52.3087 53.4832C51.877 53.3842 51.6642 53.1574 51.6642 52.7756C51.6626 52.6706 51.6845 52.5665 51.7281 52.4709C51.7676 52.3804 51.8276 52.3004 51.9033 52.2371C51.9854 52.171 52.0789 52.1206 52.1791 52.0882C52.2918 52.0495 52.4102 52.0303 52.5294 52.0313C52.7821 52.0307 53.029 52.1074 53.2369 52.2511C53.3229 52.3242 53.397 52.4102 53.4567 52.5059C53.5131 52.6071 53.5514 52.7173 53.5697 52.8317H53.0101C52.9829 52.7324 52.923 52.6451 52.8403 52.5838C52.7574 52.5202 52.6548 52.4876 52.5504 52.4919C52.4741 52.487 52.3986 52.5097 52.3376 52.5558C52.3135 52.5756 52.294 52.6004 52.2805 52.6286C52.267 52.6567 52.2599 52.6875 52.2597 52.7187C52.2597 52.8317 52.3516 52.9096 52.5355 52.9595L52.9812 53.0585C53.406 53.1644 53.6187 53.3842 53.6187 53.766C53.6214 53.872 53.597 53.9769 53.5478 54.0708C53.5014 54.1593 53.4391 54.2386 53.3639 54.3046C53.2802 54.3721 53.1841 54.4226 53.0811 54.4534C52.964 54.4883 52.8424 54.5051 52.7203 54.5034" fill="white"/>
<path d="M108.853 42.1817C101.775 31.2102 103.19 19.2545 105.221 7.19976C105.441 7.73042 105.639 8.27598 105.887 8.79263C108.208 13.6623 111.033 14.7245 115.797 12.0984C118.848 10.4205 121.637 8.26197 124.999 6.01758C116.264 16.8621 107.246 27.1216 108.846 42.1835" fill="white"/>
<path d="M115.204 7.48861C114.704 8.11769 113.988 8.53846 113.195 8.66921C112.402 8.79997 111.589 8.63137 110.913 8.19616C110.754 8.08965 110.611 7.96077 110.488 7.81349C108.953 5.99468 110.078 2.01644 112.272 0.621465C113.737 -0.305888 115.103 -0.298883 116.138 1.32902C117.172 2.95692 116.845 5.46314 115.203 7.47985" fill="white"/>
<path d="M107.87 39.8599C107.729 26.8121 99.9778 17.6122 91.6605 8.65039C91.7665 9.21696 91.9013 9.77565 91.9793 10.3492C92.7227 15.6865 90.9459 18.1358 85.5167 18.5605C82.0481 18.8364 78.5305 18.5605 74.4883 18.5605C87.7462 22.8076 100.926 26.4251 107.87 39.8739" fill="white"/>
<path d="M83.4843 14.3836C84.248 14.6298 85.0757 14.5853 85.8087 14.2587C86.5416 13.9321 87.1281 13.3463 87.4556 12.6138C87.5281 12.4366 87.5782 12.2509 87.6044 12.0612C87.8803 9.69687 84.7734 6.99275 82.1612 7.03566C80.4194 7.03566 79.3301 7.82378 79.3301 9.7608C79.3301 11.6978 80.9939 13.6138 83.4922 14.3827" fill="white"/>
<path d="M116.491 38.9308C114.245 40.8649 111.683 42.3974 108.917 43.4607C106.993 44.1193 104.951 44.3632 102.926 44.1765C100.901 43.9898 98.9383 43.3767 97.167 42.3775C94.8168 41.1352 92.6032 39.6501 90.5625 37.9465C90.4161 37.827 90.298 37.6764 90.2169 37.5056C90.1358 37.3349 90.0938 37.1482 90.0938 36.9591C90.0938 36.7701 90.1358 36.5834 90.2169 36.4127C90.298 36.2419 90.4161 36.0913 90.5625 35.9718C90.7076 35.8887 90.8694 35.8393 91.0361 35.827C91.2028 35.8147 91.3701 35.84 91.5258 35.9009C93.4295 36.7932 95.2772 37.8046 97.1889 38.64C99.725 39.846 102.533 40.3659 105.333 40.148C108.22 39.8613 110.875 38.4405 112.716 36.1977C114.132 34.5558 115.285 32.7572 116.573 31.0373C117.469 29.6678 118.723 28.569 120.198 27.8594C120.617 27.6156 121.099 27.4987 121.584 27.5226C122.068 27.5465 122.536 27.7104 122.93 27.9943C123.312 28.3314 123.583 28.7757 123.71 29.2694C123.836 29.763 123.811 30.2832 123.637 30.7623C123.197 32.2662 122.329 33.61 121.141 34.6311C119.626 36.1032 118.033 37.4771 116.49 38.9351" fill="white"/>
</g>
<defs>
<clipPath id="clip0">
<rect width="125" height="54.5203" fill="white"/>
</clipPath>
</defs>
</svg>
