<svg width="100" height="33" viewBox="0 0 100 33" fill="none" xmlns="http://www.w3.org/2000/svg">
<path d="M7.88785 11.6392V12.0037C7.98068 15.1887 8.07103 18.3766 8.15888 21.5672L8.27477 25.9962C8.27477 26.4149 8.27477 26.4224 7.87103 26.4224H0.411215C0 26.4224 0 26.4224 0 25.9962V0.00553692H11.215C11.3131 -0.00349143 11.4111 0.0252044 11.4888 0.085791C11.5666 0.146378 11.6184 0.234307 11.6336 0.331705L16.1682 13.827C16.1991 13.8794 16.2383 13.9264 16.2841 13.9663C16.3211 14.0165 16.3627 14.0631 16.4084 14.1055C16.4467 14.0513 16.5093 14.0121 16.5243 13.9504C16.6402 13.5766 16.7495 13.1747 16.8579 12.8177C18.0604 8.65071 19.2667 4.48342 20.4766 0.315817C20.5383 0.0989949 20.6159 0.00553692 20.8561 0.00553692H32.4907V25.9728C32.4907 26.4074 32.4907 26.4074 32.0486 26.4074H24.2916C23.8804 26.4074 23.8804 26.4074 23.8804 26.0121C23.9371 22.9099 23.9888 19.8258 24.0355 16.7597L24.129 12.1065V11.6719H24.0187C23.9568 11.7766 23.9024 11.8856 23.8561 11.9981C23.1654 13.9682 22.4907 15.9074 21.8701 17.8467C20.9654 20.608 20.0555 23.3666 19.1402 26.1224C19.0701 26.3551 18.9467 26.4093 18.7215 26.4093H13.2009C13.1433 26.418 13.0845 26.4153 13.0279 26.4012C12.9713 26.3871 12.9181 26.3619 12.8713 26.3272C12.8244 26.2924 12.785 26.2488 12.7551 26.1987C12.7252 26.1486 12.7055 26.0931 12.6972 26.0354C11.1769 21.3196 9.65047 16.6115 8.11776 11.9111C8.07944 11.8027 8.0243 11.7018 7.9785 11.6009L7.88785 11.6392Z" fill="white"/>
<path d="M77.8724 11.6398C77.8257 11.7407 77.7566 11.8332 77.7173 11.9426C76.9883 14.1529 76.2509 16.3632 75.522 18.5781C74.6921 21.0912 73.8547 23.6118 73.0323 26.1323C73.0156 26.2197 72.9662 26.2974 72.894 26.3496C72.8219 26.4017 72.7326 26.4243 72.6444 26.4127H67.022C66.973 26.419 66.9233 26.4155 66.8758 26.4025C66.8282 26.3894 66.7836 26.3671 66.7447 26.3368C66.7058 26.3065 66.6732 26.2688 66.649 26.2258C66.6247 26.1828 66.6092 26.1355 66.6033 26.0865C65.0519 21.3656 63.5161 16.6395 61.9958 11.908C61.9584 11.8071 61.9144 11.7088 61.864 11.6136H61.7706V11.894C61.869 15.7202 61.9724 19.5438 62.0809 23.365C62.0809 24.2417 62.0809 25.1258 62.151 26.0024C62.151 26.2893 62.0893 26.3903 61.7865 26.3903H54.2547C53.9678 26.3903 53.8809 26.2893 53.8809 26.0164V0.0136226H65.1528C65.2535 0.000225827 65.3555 0.0268921 65.4368 0.087887C65.518 0.148882 65.5721 0.239334 65.5874 0.339791L69.1556 10.9734L70.1332 13.8706C70.1801 13.9623 70.2375 14.0482 70.3042 14.1267C70.3594 14.0491 70.4061 13.9657 70.4435 13.8781C71.7407 9.37157 73.0407 4.86658 74.3435 0.363155C74.3502 0.308313 74.3679 0.255387 74.3955 0.207538C74.4232 0.159689 74.4601 0.1179 74.5043 0.0846642C74.5484 0.0514288 74.5988 0.0274295 74.6524 0.0140995C74.706 0.000769603 74.7618 -0.0016176 74.8164 0.0070805H86.3575V25.9884C86.3575 26.4146 86.3575 26.4146 85.9154 26.4146H78.1584C77.7397 26.4146 77.7323 26.4146 77.7397 25.9884C77.812 21.9604 77.8843 17.9348 77.9566 13.9118V11.6893L77.8724 11.6398Z" fill="white"/>
<path d="M53.036 18.6212V25.9511C53.036 26.424 53.036 26.424 52.5687 26.424H35.9033C35.4453 26.424 35.4453 26.424 35.4453 25.9745V0.0371094H44.3491V18.6212H53.036Z" fill="white"/>
<path d="M83.1338 32.9507H67.16C66.5161 32.9507 66.3301 32.7638 66.3301 32.1096V27.4554C66.3301 26.9358 66.5469 26.6797 67.1058 26.6797H99.2235C99.7432 26.6797 99.9992 26.9049 99.9992 27.4554V32.2217C99.9992 32.7488 99.7824 32.9974 99.2235 32.9974L83.1338 32.9507ZM84.7936 31.2442C84.5067 30.3208 84.2039 29.3358 83.8936 28.3591C83.7852 28.018 83.7544 27.5834 83.5198 27.3974C83.2852 27.2115 82.8376 27.3591 82.4918 27.3358C82.2591 27.3358 82.1815 27.4133 82.1179 27.6227C81.7441 28.8479 81.3422 30.0741 80.9777 31.2993C80.8843 31.5797 80.7992 31.8657 80.7067 32.1834H81.9946C82.0413 31.99 82.0796 31.7881 82.1422 31.5937C82.2049 31.3993 82.2581 31.4068 82.3207 31.4003H83.5619C83.6086 31.5872 83.6628 31.7414 83.6862 31.8965C83.6981 31.991 83.7457 32.0774 83.8191 32.138C83.8926 32.1986 83.9864 32.2289 84.0815 32.2227H88.6609V31.1292H86.3964C86.4815 31.0049 86.5357 30.9274 86.5983 30.8488C87.1591 30.1432 87.6843 29.4059 88.289 28.747C88.6843 28.3049 88.5693 27.8395 88.5834 27.3582H85.0852V28.3974H87.0591L84.7936 31.2442ZM72.2703 27.3657H70.7974C70.7273 27.3657 70.6189 27.4974 70.5955 27.5909C70.4404 28.2731 70.3011 28.9713 70.1534 29.6619C70.133 29.8035 70.094 29.9417 70.0376 30.0731C69.8207 29.2507 69.6497 28.4442 69.4712 27.6376C69.4712 27.5367 69.3628 27.3741 69.3002 27.3741H67.788V32.2339H68.5245C68.7647 32.2339 68.8114 32.1638 68.8114 31.9395V28.9984H68.8731L69.5553 32.2096H69.703C70.4787 32.2096 70.4787 32.2096 70.6488 31.4806C70.8357 30.604 71.0291 29.7274 71.2151 28.8591H71.2693V32.1788H72.2703V27.3657ZM94.6852 27.3657H93.4834V29.9404L93.274 29.5918L92.1179 27.5601C92.0712 27.475 91.9787 27.3582 91.9011 27.3507H90.8385V32.1909H92.0254V29.7358C92.4327 30.2627 92.7862 30.8291 93.0806 31.4264C93.1613 31.7087 93.3495 31.9481 93.6048 32.0931C93.8601 32.2382 94.1621 32.2773 94.446 32.2021C94.6628 32.2021 94.7329 32.1245 94.7329 31.8993V28.5348L94.6852 27.3657ZM80.6011 28.6573C80.6063 28.5929 80.6063 28.5282 80.6011 28.4638C80.5207 28.1154 80.3223 27.8054 80.0396 27.5864C79.7569 27.3674 79.4072 27.2528 79.0497 27.2619C78.795 27.211 78.5328 27.2107 78.2781 27.2611C78.0233 27.3115 77.7809 27.4116 77.5648 27.5556C77.3487 27.6997 77.1631 27.8849 77.0186 28.1007C76.8741 28.3165 76.7735 28.5587 76.7226 28.8133C76.5029 29.5401 76.5245 30.3186 76.7843 31.032C76.8642 31.3064 77.0121 31.5562 77.2141 31.7583C77.4162 31.9603 77.666 32.1082 77.9404 32.1881C78.3888 32.3213 78.864 32.337 79.3202 32.2337C79.7765 32.1305 80.1986 31.9117 80.546 31.5984C80.575 31.5791 80.5997 31.5539 80.6184 31.5244C80.6371 31.4949 80.6493 31.4619 80.6544 31.4274V29.4647H78.7478V30.4731H79.5777C79.5925 30.6181 79.5713 30.7645 79.5161 30.8993C79.4193 31.0099 79.2975 31.0958 79.1609 31.1499C79.0242 31.2039 78.8767 31.2246 78.7304 31.2102C78.5842 31.1957 78.4435 31.1466 78.3201 31.0668C78.1966 30.9871 78.094 30.879 78.0207 30.7517C77.8845 30.4452 77.8141 30.1136 77.8141 29.7783C77.8141 29.443 77.8845 29.1113 78.0207 28.8049C78.0585 28.7101 78.1161 28.6245 78.1897 28.5538C78.2633 28.4832 78.3512 28.4291 78.4474 28.3952C78.5437 28.3614 78.6461 28.3486 78.7477 28.3577C78.8494 28.3668 78.9479 28.3975 79.0366 28.4479C79.1967 28.5854 79.3423 28.7388 79.4712 28.9059L80.6011 28.6573ZM98.3469 29.1386H96.4703V28.3629H98.502V27.3545H95.2133V32.1788H98.5544V31.0311H96.4759V30.1395H98.3525L98.3469 29.1386ZM72.3563 32.2031H73.4263C73.6048 32.2031 73.6665 32.1414 73.7133 31.9778C73.8684 31.3881 73.8759 31.3881 74.489 31.3881H74.6133C75.2105 31.3881 75.203 31.3881 75.389 31.9694C75.389 32.0545 75.5048 32.1862 75.5675 32.1862H76.7544C76.7077 32.0236 76.6768 31.8993 76.6385 31.775L75.5637 28.3713C75.4628 28.0302 75.4394 27.5956 75.2151 27.4021C74.9908 27.2087 74.5095 27.3479 74.1525 27.3245C74.1112 27.317 74.0687 27.3178 74.0277 27.3271C73.9867 27.3364 73.948 27.3538 73.914 27.3785C73.8799 27.4031 73.8512 27.4344 73.8295 27.4704C73.8079 27.5064 73.7938 27.5465 73.788 27.5881C73.5011 28.5657 73.1908 29.5348 72.888 30.504L72.3563 32.2031ZM88.9852 32.2031H89.9198C90.2142 32.2031 90.2535 32.1414 90.246 31.8853V27.3619H89.0049L88.9852 32.2031Z" fill="white"/>
<path d="M83.2928 30.3248H82.4629L82.8507 28.7734H82.9049L83.2928 30.3248Z" fill="white"/>
<path d="M74.9549 30.317H74.125L74.5129 28.7656H74.5745L74.9549 30.317Z" fill="white"/>
</svg>
