<svg width="125" height="20" viewBox="0 0 125 20" fill="none" xmlns="http://www.w3.org/2000/svg">
<path d="M29.6761 16.2981C29.6754 16.2935 29.6759 16.2888 29.6774 16.2844C29.6788 16.2799 29.6814 16.2759 29.6847 16.2726C29.688 16.2693 29.6921 16.2669 29.6965 16.2654C29.701 16.264 29.7057 16.2636 29.7103 16.2643H30.5711C30.7515 16.2575 30.9299 16.3036 31.0845 16.397C31.2236 16.4878 31.3256 16.6255 31.372 16.785C31.4541 17.2054 31.4541 17.6378 31.372 18.0582C31.3252 18.207 31.2329 18.3374 31.108 18.4308C30.9507 18.5383 30.7621 18.5904 30.5719 18.5789H29.7112C29.7065 18.5796 29.7018 18.5792 29.6974 18.5778C29.6929 18.5763 29.6889 18.5739 29.6855 18.5706C29.6822 18.5673 29.6797 18.5633 29.6782 18.5588C29.6767 18.5544 29.6763 18.5497 29.6769 18.5451L29.6761 16.2981ZM30.1972 18.1331H30.4586C30.6927 18.1331 30.8353 18.0475 30.8864 17.8764C30.9366 17.5744 30.9366 17.2662 30.8864 16.9643C30.8346 16.7931 30.6913 16.7076 30.4586 16.7076H30.1972C30.1944 16.7071 30.1915 16.7074 30.1888 16.7082C30.1861 16.7091 30.1837 16.7106 30.1817 16.7126C30.1797 16.7146 30.1782 16.7171 30.1773 16.7197C30.1764 16.7224 30.1762 16.7253 30.1766 16.7281V18.11C30.1757 18.1129 30.1755 18.1161 30.1762 18.1192C30.1768 18.1222 30.1782 18.125 30.1803 18.1274C30.1824 18.1297 30.185 18.1315 30.188 18.1325C30.1909 18.1335 30.1941 18.1337 30.1972 18.1331Z" fill="white"/>
<path d="M33.3206 16.2978C33.32 16.2932 33.3204 16.2885 33.3219 16.284C33.3234 16.2796 33.3259 16.2756 33.3292 16.2723C33.3325 16.269 33.3366 16.2666 33.341 16.2651C33.3455 16.2637 33.3502 16.2633 33.3548 16.264H33.7869C33.7916 16.2633 33.7963 16.2637 33.8007 16.2651C33.8052 16.2666 33.8092 16.269 33.8126 16.2723C33.8159 16.2756 33.8184 16.2796 33.8199 16.284C33.8214 16.2885 33.8218 16.2932 33.8212 16.2978V18.5448C33.8218 18.5494 33.8214 18.5541 33.8199 18.5585C33.8184 18.563 33.8159 18.567 33.8126 18.5703C33.8092 18.5736 33.8052 18.576 33.8007 18.5774C33.7963 18.5789 33.7916 18.5793 33.7869 18.5786H33.3548C33.3502 18.5793 33.3455 18.5789 33.341 18.5774C33.3366 18.576 33.3325 18.5736 33.3292 18.5703C33.3259 18.567 33.3234 18.563 33.3219 18.5585C33.3204 18.5541 33.32 18.5494 33.3206 18.5448V16.2978Z" fill="white"/>
<path d="M35.7184 17.8492C35.703 17.7072 35.6969 17.5643 35.7 17.4214C35.7 17.2931 35.703 17.181 35.7086 17.0813C35.7142 16.9817 35.733 16.8833 35.7646 16.7887C35.8154 16.616 35.9265 16.4673 36.0778 16.3698C36.2395 16.2714 36.4263 16.2218 36.6155 16.2269C36.7895 16.2251 36.961 16.2672 37.1144 16.3493C37.2638 16.4298 37.3791 16.5615 37.4391 16.7202C37.4421 16.7243 37.4442 16.7291 37.4451 16.7341C37.4461 16.7391 37.4459 16.7443 37.4447 16.7492C37.4434 16.7542 37.4411 16.7588 37.4378 16.7627C37.4345 16.7666 37.4305 16.7698 37.4258 16.772L37.0618 16.9247C37.0365 16.9315 37.019 16.9247 37.0138 16.9076C36.9764 16.8346 36.9192 16.7736 36.8488 16.7315C36.7784 16.6894 36.6976 16.6678 36.6155 16.6693C36.5334 16.6616 36.4511 16.6831 36.3833 16.73C36.3154 16.777 36.2663 16.8464 36.2446 16.926C36.2115 17.0882 36.199 17.2539 36.2074 17.4193C36.1989 17.586 36.2114 17.7532 36.2446 17.9168C36.2673 17.9972 36.3177 18.067 36.3868 18.114C36.4559 18.1609 36.5393 18.182 36.6224 18.1735C36.7051 18.1752 36.7866 18.1533 36.8573 18.1102C36.9231 18.0712 36.9717 18.0086 36.9933 17.9352C37.0133 17.8608 37.0225 17.7838 37.0207 17.7068C37.021 17.704 37.0207 17.7012 37.0198 17.6985C37.0189 17.6959 37.0174 17.6935 37.0154 17.6915C37.0135 17.6895 37.0111 17.688 37.0084 17.6871C37.0058 17.6862 37.0029 17.6859 37.0002 17.6862H36.687C36.6824 17.6869 36.6777 17.6864 36.6733 17.685C36.6689 17.6835 36.665 17.681 36.6617 17.6777C36.6584 17.6745 36.6559 17.6705 36.6545 17.6661C36.653 17.6617 36.6526 17.657 36.6532 17.6524V17.3277C36.6526 17.3231 36.653 17.3184 36.6545 17.314C36.656 17.3096 36.6584 17.3056 36.6617 17.3023C36.6649 17.299 36.6689 17.2965 36.6733 17.2949C36.6777 17.2934 36.6824 17.2929 36.687 17.2935H37.4836C37.4882 17.2928 37.493 17.2933 37.4974 17.2948C37.5019 17.2963 37.5059 17.2988 37.5092 17.3021C37.5125 17.3054 37.515 17.3095 37.5165 17.3139C37.518 17.3183 37.5185 17.3231 37.5178 17.3277V17.5181C37.5245 17.6937 37.5049 17.8694 37.4596 18.0392C37.4099 18.2137 37.3004 18.3651 37.1503 18.467C36.9915 18.5705 36.805 18.6233 36.6155 18.6185C36.4262 18.6238 36.2394 18.5742 36.0778 18.4756C35.9265 18.3781 35.8154 18.2294 35.7646 18.0567C35.7447 17.9887 35.7292 17.9193 35.7184 17.8492Z" fill="white"/>
<path d="M39.3987 16.2978C39.3981 16.2932 39.3986 16.2884 39.4001 16.284C39.4017 16.2796 39.4042 16.2756 39.4076 16.2723C39.411 16.269 39.415 16.2666 39.4195 16.2652C39.424 16.2637 39.4287 16.2633 39.4333 16.264H39.865C39.8696 16.2633 39.8743 16.2637 39.8788 16.2651C39.8832 16.2666 39.8873 16.269 39.8906 16.2723C39.8939 16.2756 39.8965 16.2796 39.898 16.284C39.8994 16.2885 39.8999 16.2932 39.8992 16.2978V18.5448C39.8999 18.5494 39.8994 18.5541 39.898 18.5585C39.8965 18.563 39.8939 18.567 39.8906 18.5703C39.8873 18.5736 39.8832 18.576 39.8788 18.5774C39.8743 18.5789 39.8696 18.5793 39.865 18.5786H39.4333C39.4287 18.5792 39.424 18.5789 39.4195 18.5774C39.415 18.576 39.411 18.5735 39.4076 18.5703C39.4042 18.567 39.4017 18.563 39.4001 18.5586C39.3986 18.5541 39.3981 18.5494 39.3987 18.5448V16.2978Z" fill="white"/>
<path d="M42.3499 18.5786C42.3453 18.5792 42.3406 18.5788 42.3362 18.5773C42.3319 18.5758 42.3279 18.5733 42.3246 18.5701C42.3213 18.5668 42.3188 18.5628 42.3174 18.5584C42.3159 18.554 42.3155 18.5493 42.3161 18.5448V16.7303C42.3165 16.7276 42.3163 16.7247 42.3154 16.722C42.3146 16.7193 42.3131 16.7169 42.3111 16.7149C42.3091 16.7129 42.3066 16.7114 42.3039 16.7105C42.3012 16.7096 42.2984 16.7094 42.2956 16.7098H41.7103C41.7057 16.7105 41.701 16.7102 41.6965 16.7087C41.6921 16.7073 41.688 16.7048 41.6847 16.7015C41.6814 16.6982 41.6789 16.6942 41.6774 16.6898C41.6759 16.6854 41.6754 16.6806 41.6761 16.676V16.2978C41.6754 16.2932 41.6759 16.2885 41.6774 16.284C41.6789 16.2796 41.6814 16.2756 41.6847 16.2723C41.688 16.269 41.6921 16.2666 41.6965 16.2651C41.701 16.2637 41.7057 16.2633 41.7103 16.264H43.4216C43.4262 16.2634 43.4309 16.2638 43.4353 16.2653C43.4397 16.2668 43.4437 16.2692 43.447 16.2725C43.4503 16.2758 43.4528 16.2798 43.4544 16.2841C43.4559 16.2885 43.4564 16.2932 43.4558 16.2978V16.676C43.4564 16.6806 43.4559 16.6853 43.4544 16.6897C43.4528 16.6941 43.4503 16.6981 43.447 16.7013C43.4437 16.7046 43.4397 16.7071 43.4353 16.7085C43.4309 16.71 43.4262 16.7104 43.4216 16.7098H42.8359C42.8331 16.7095 42.8303 16.7097 42.8277 16.7106C42.8251 16.7116 42.8227 16.7131 42.8207 16.7151C42.8188 16.7171 42.8173 16.7195 42.8165 16.7221C42.8156 16.7248 42.8154 16.7276 42.8158 16.7303V18.5448C42.8165 18.5494 42.816 18.5541 42.8145 18.5585C42.813 18.563 42.8105 18.567 42.8072 18.5703C42.8039 18.5736 42.7998 18.576 42.7954 18.5774C42.7909 18.5789 42.7862 18.5793 42.7816 18.5786H42.3499Z" fill="white"/>
<path d="M45.6423 16.2975C45.6444 16.2877 45.6498 16.2791 45.6577 16.2729C45.6655 16.2667 45.6752 16.2635 45.6851 16.2637H46.1129C46.1229 16.2635 46.1326 16.2667 46.1404 16.2729C46.1482 16.2791 46.1536 16.2877 46.1557 16.2975L46.9386 18.5444C46.9455 18.5671 46.9386 18.5782 46.9151 18.5782H46.4719C46.4619 18.5784 46.4522 18.5752 46.4444 18.569C46.4366 18.5628 46.4312 18.5541 46.4291 18.5444L46.2965 18.1393H45.4866L45.3583 18.5444C45.3562 18.5541 45.3508 18.5628 45.343 18.569C45.3351 18.5752 45.3254 18.5784 45.3155 18.5782H44.8697C44.847 18.5782 44.8393 18.5671 44.8462 18.5444L45.6423 16.2975ZM46.1626 17.714L45.9012 16.9011H45.8905L45.6282 17.714H46.1626Z" fill="white"/>
<path d="M48.7112 16.2978C48.7106 16.2932 48.711 16.2885 48.7125 16.284C48.714 16.2796 48.7165 16.2756 48.7198 16.2723C48.7232 16.269 48.7272 16.2666 48.7317 16.2651C48.7361 16.2637 48.7408 16.2633 48.7455 16.264H49.1776C49.1822 16.2633 49.1869 16.2637 49.1914 16.2651C49.1958 16.2666 49.1999 16.269 49.2032 16.2723C49.2065 16.2756 49.209 16.2796 49.2105 16.284C49.212 16.2885 49.2124 16.2932 49.2118 16.2978V18.1122C49.2113 18.115 49.2116 18.1179 49.2125 18.1206C49.2133 18.1233 49.2148 18.1257 49.2168 18.1277C49.2188 18.1297 49.2213 18.1312 49.224 18.1321C49.2267 18.133 49.2295 18.1332 49.2323 18.1328H50.2535C50.2581 18.1321 50.2628 18.1326 50.2672 18.134C50.2716 18.1355 50.2756 18.138 50.2789 18.1412C50.2821 18.1445 50.2846 18.1485 50.2861 18.1529C50.2875 18.1573 50.288 18.162 50.2873 18.1666V18.5448C50.288 18.5493 50.2875 18.554 50.2861 18.5584C50.2846 18.5628 50.2821 18.5668 50.2789 18.5701C50.2756 18.5733 50.2716 18.5758 50.2672 18.5773C50.2628 18.5788 50.2581 18.5792 50.2535 18.5786H48.7455C48.7408 18.5793 48.7361 18.5789 48.7317 18.5774C48.7272 18.576 48.7232 18.5736 48.7198 18.5703C48.7165 18.567 48.714 18.563 48.7125 18.5585C48.711 18.5541 48.7106 18.5494 48.7112 18.5448V16.2978Z" fill="white"/>
<path d="M52.0823 16.2978C52.0817 16.2932 52.0821 16.2885 52.0836 16.284C52.0851 16.2796 52.0876 16.2756 52.0909 16.2723C52.0943 16.269 52.0983 16.2666 52.1028 16.2651C52.1072 16.2637 52.1119 16.2633 52.1166 16.264H52.5482C52.5529 16.2633 52.5576 16.2637 52.5621 16.2652C52.5665 16.2666 52.5706 16.269 52.574 16.2723C52.5773 16.2756 52.5799 16.2796 52.5814 16.284C52.583 16.2884 52.5835 16.2932 52.5829 16.2978V18.5448C52.5835 18.5494 52.583 18.5541 52.5814 18.5586C52.5799 18.563 52.5773 18.567 52.574 18.5703C52.5706 18.5735 52.5665 18.576 52.5621 18.5774C52.5576 18.5789 52.5529 18.5792 52.5482 18.5786H52.1166C52.1119 18.5793 52.1072 18.5789 52.1028 18.5774C52.0983 18.576 52.0943 18.5736 52.0909 18.5703C52.0876 18.567 52.0851 18.563 52.0836 18.5585C52.0821 18.5541 52.0817 18.5494 52.0823 18.5448V16.2978Z" fill="white"/>
<path d="M54.7984 18.525C54.6564 18.4765 54.5255 18.4001 54.4133 18.3004C54.409 18.297 54.4055 18.2927 54.4029 18.2879C54.4004 18.283 54.3989 18.2777 54.3985 18.2722C54.3982 18.2667 54.399 18.2612 54.4008 18.256C54.4027 18.2509 54.4057 18.2462 54.4095 18.2422L54.6662 17.9462C54.6799 17.9278 54.6966 17.9269 54.7171 17.9428C54.8854 18.0899 55.0995 18.1742 55.3229 18.1815C55.4213 18.1872 55.5189 18.1602 55.6005 18.1049C55.6323 18.0823 55.658 18.0522 55.6755 18.0174C55.693 17.9826 55.7018 17.9441 55.7011 17.9051C55.702 17.8725 55.695 17.8401 55.6807 17.8107C55.6664 17.7814 55.6452 17.7559 55.6189 17.7366C55.5357 17.6848 55.4412 17.6539 55.3434 17.6467L55.2211 17.6296C54.7328 17.5617 54.4888 17.3303 54.4891 16.9352C54.4855 16.8383 54.5039 16.7418 54.5428 16.6529C54.5816 16.564 54.6401 16.485 54.7137 16.4218C54.8818 16.2862 55.0939 16.2171 55.3096 16.2276C55.456 16.2272 55.6016 16.2491 55.7413 16.2926C55.8689 16.3302 55.9888 16.39 56.0955 16.4693C56.1001 16.4716 56.1041 16.4749 56.1071 16.479C56.11 16.4831 56.112 16.4879 56.1126 16.493C56.1133 16.498 56.1127 16.5031 56.1109 16.5079C56.1092 16.5127 56.1062 16.5169 56.1024 16.5202L55.8949 16.8304C55.8927 16.8345 55.8896 16.838 55.8859 16.8408C55.8822 16.8436 55.878 16.8455 55.8734 16.8464C55.8689 16.8473 55.8642 16.8473 55.8597 16.8462C55.8552 16.8452 55.851 16.8431 55.8474 16.8403C55.6892 16.7301 55.5023 16.6687 55.3096 16.6636C55.2276 16.6586 55.1465 16.6834 55.0812 16.7333C55.0547 16.7555 55.0337 16.7834 55.0196 16.8149C55.0055 16.8464 54.9988 16.8806 54.9999 16.9151C54.9999 17.0517 55.1201 17.1373 55.3605 17.1718L55.4833 17.1889C55.9682 17.2542 56.2106 17.488 56.2106 17.8901C56.2136 17.99 56.1939 18.0892 56.1529 18.1803C56.1119 18.2714 56.0508 18.352 55.974 18.4159C55.7816 18.5624 55.5428 18.6344 55.3015 18.6187C55.1296 18.6175 54.9592 18.5858 54.7984 18.525Z" fill="white"/>
<path d="M58.0511 16.2978C58.0504 16.2932 58.0509 16.2885 58.0524 16.284C58.0538 16.2796 58.0564 16.2756 58.0597 16.2723C58.063 16.269 58.0671 16.2666 58.0715 16.2651C58.076 16.2637 58.0807 16.2633 58.0853 16.264H58.5174C58.522 16.2633 58.5267 16.2637 58.5312 16.2651C58.5356 16.2666 58.5397 16.269 58.543 16.2723C58.5463 16.2756 58.5489 16.2796 58.5504 16.284C58.5518 16.2885 58.5523 16.2932 58.5516 16.2978V18.5448C58.5523 18.5494 58.5518 18.5541 58.5504 18.5585C58.5489 18.563 58.5463 18.567 58.543 18.5703C58.5397 18.5736 58.5356 18.576 58.5312 18.5774C58.5267 18.5789 58.522 18.5793 58.5174 18.5786H58.0853C58.0807 18.5793 58.076 18.5789 58.0715 18.5774C58.0671 18.576 58.063 18.5736 58.0597 18.5703C58.0564 18.567 58.0538 18.563 58.0524 18.5585C58.0509 18.5541 58.0504 18.5494 58.0511 18.5448V16.2978Z" fill="white"/>
<path d="M60.4929 16.2978C60.4923 16.2932 60.4927 16.2885 60.4942 16.284C60.4957 16.2796 60.4982 16.2756 60.5015 16.2723C60.5048 16.269 60.5089 16.2666 60.5133 16.2651C60.5178 16.2637 60.5225 16.2633 60.5271 16.264H60.9353C60.9472 16.2638 60.9589 16.2668 60.9691 16.2727C60.9794 16.2787 60.9878 16.2874 60.9935 16.2978L61.8106 17.7546H61.8273V16.2978C61.8266 16.2932 61.8271 16.2885 61.8286 16.284C61.8301 16.2796 61.8326 16.2756 61.8359 16.2723C61.8392 16.269 61.8433 16.2666 61.8477 16.2651C61.8522 16.2637 61.8569 16.2633 61.8615 16.264H62.2466C62.2512 16.2634 62.2558 16.2638 62.2602 16.2653C62.2646 16.2668 62.2686 16.2692 62.2719 16.2725C62.2752 16.2758 62.2776 16.2798 62.2791 16.2842C62.2806 16.2886 62.281 16.2932 62.2804 16.2978V18.5448C62.281 18.5493 62.2806 18.554 62.2791 18.5584C62.2776 18.5628 62.2752 18.5668 62.2719 18.5701C62.2686 18.5733 62.2646 18.5758 62.2602 18.5773C62.2558 18.5788 62.2512 18.5792 62.2466 18.5786H61.8414C61.8296 18.5788 61.8178 18.5758 61.8076 18.5698C61.7973 18.5639 61.7889 18.5552 61.7832 18.5448L60.9635 17.0902H60.946V18.5448C60.9466 18.5494 60.9462 18.5541 60.9447 18.5585C60.9432 18.563 60.9407 18.567 60.9374 18.5703C60.934 18.5736 60.93 18.576 60.9255 18.5774C60.9211 18.5789 60.9164 18.5793 60.9118 18.5786H60.5267C60.5221 18.5793 60.5174 18.5789 60.5129 18.5774C60.5085 18.576 60.5044 18.5736 60.5011 18.5703C60.4978 18.567 60.4953 18.563 60.4938 18.5585C60.4923 18.5541 60.4918 18.5494 60.4925 18.5448L60.4929 16.2978Z" fill="white"/>
<path d="M64.179 17.8492C64.1638 17.7072 64.1578 17.5643 64.161 17.4214C64.161 17.2931 64.1636 17.181 64.1691 17.0813C64.1747 16.9817 64.1936 16.8833 64.2252 16.7887C64.2761 16.6161 64.3872 16.4675 64.5383 16.3698C64.7001 16.2714 64.8868 16.2218 65.0761 16.2269C65.25 16.2251 65.4216 16.2672 65.575 16.3493C65.7245 16.4295 65.8399 16.5613 65.8997 16.7202C65.9028 16.7243 65.9049 16.729 65.9059 16.7341C65.9069 16.7391 65.9068 16.7443 65.9055 16.7493C65.9042 16.7542 65.9018 16.7589 65.8985 16.7628C65.8952 16.7667 65.8911 16.7699 65.8864 16.772L65.5223 16.9247C65.4975 16.9315 65.4795 16.9247 65.4748 16.9076C65.4372 16.8346 65.3799 16.7737 65.3095 16.7316C65.239 16.6895 65.1582 16.6679 65.0761 16.6693C64.994 16.6616 64.9117 16.6831 64.8438 16.73C64.776 16.777 64.7269 16.8464 64.7052 16.926C64.6723 17.0882 64.6598 17.2539 64.668 17.4193C64.6597 17.586 64.6722 17.7532 64.7052 17.9168C64.728 17.9972 64.7784 18.0671 64.8476 18.114C64.9167 18.161 65.0002 18.182 65.0834 18.1735C65.166 18.1752 65.2473 18.1532 65.3178 18.1102C65.3838 18.0712 65.4325 18.0087 65.4543 17.9352C65.4739 17.8607 65.483 17.7838 65.4813 17.7068C65.4817 17.704 65.4815 17.7011 65.4806 17.6984C65.4797 17.6957 65.4782 17.6933 65.4762 17.6913C65.4742 17.6893 65.4718 17.6878 65.4691 17.6869C65.4664 17.686 65.4635 17.6858 65.4607 17.6862H65.1476C65.143 17.6869 65.1383 17.6864 65.1339 17.685C65.1295 17.6835 65.1255 17.681 65.1222 17.6777C65.119 17.6745 65.1165 17.6705 65.115 17.6661C65.1136 17.6617 65.1131 17.657 65.1138 17.6524V17.3277C65.1131 17.3231 65.1136 17.3184 65.115 17.314C65.1165 17.3096 65.119 17.3056 65.1222 17.3023C65.1255 17.299 65.1295 17.2965 65.1339 17.2949C65.1383 17.2934 65.1429 17.2929 65.1476 17.2935H65.9442C65.9488 17.2928 65.9535 17.2933 65.958 17.2948C65.9624 17.2963 65.9665 17.2988 65.9698 17.3021C65.9731 17.3054 65.9756 17.3095 65.9771 17.3139C65.9786 17.3183 65.979 17.3231 65.9784 17.3277V17.5181C65.9851 17.6937 65.9655 17.8694 65.9202 18.0392C65.8705 18.2137 65.761 18.3651 65.6109 18.467C65.4521 18.5705 65.2656 18.6233 65.0761 18.6185C64.8868 18.6238 64.7 18.5741 64.5383 18.4756C64.3872 18.3779 64.2761 18.2293 64.2252 18.0567C64.2054 17.9886 64.19 17.9193 64.179 17.8492Z" fill="white"/>
<path d="M70.7832 16.2975C70.7853 16.2877 70.7907 16.2791 70.7985 16.2729C70.8063 16.2667 70.816 16.2635 70.8259 16.2637H71.2538C71.2637 16.2635 71.2734 16.2667 71.2812 16.2729C71.2891 16.2791 71.2945 16.2877 71.2966 16.2975L72.0799 18.5444C72.0867 18.5671 72.0799 18.5782 72.0559 18.5782H71.6131C71.6032 18.5784 71.5935 18.5752 71.5857 18.569C71.5779 18.5628 71.5725 18.5541 71.5704 18.5444L71.4373 18.1393H70.6274L70.4991 18.5444C70.497 18.5541 70.4916 18.5628 70.4838 18.569C70.476 18.5752 70.4663 18.5784 70.4563 18.5782H70.0105C69.9878 18.5782 69.9801 18.5671 69.9866 18.5444L70.7832 16.2975ZM71.3038 17.714L71.042 16.9011H71.0317L70.7695 17.714H71.3038Z" fill="white"/>
<path d="M73.8518 16.2978C73.8512 16.2932 73.8517 16.2884 73.8533 16.284C73.8548 16.2796 73.8574 16.2756 73.8607 16.2723C73.8641 16.269 73.8682 16.2666 73.8726 16.2652C73.8771 16.2637 73.8818 16.2633 73.8865 16.264H75.3701C75.3748 16.2633 75.3795 16.2637 75.3839 16.2651C75.3884 16.2666 75.3924 16.269 75.3958 16.2723C75.3991 16.2756 75.4016 16.2796 75.4031 16.284C75.4046 16.2885 75.405 16.2932 75.4044 16.2978V16.6623C75.405 16.667 75.4046 16.6717 75.4031 16.6761C75.4016 16.6805 75.3991 16.6846 75.3958 16.6878C75.3924 16.6911 75.3884 16.6936 75.3839 16.695C75.3795 16.6965 75.3748 16.6968 75.3701 16.6961H74.3729C74.3701 16.6958 74.3673 16.696 74.3647 16.697C74.362 16.6979 74.3597 16.6994 74.3577 16.7014C74.3558 16.7034 74.3543 16.7058 74.3534 16.7084C74.3526 16.7111 74.3524 16.7139 74.3528 16.7167V17.2031C74.3528 17.2172 74.3592 17.2236 74.3729 17.2236H75.2054C75.2101 17.223 75.2148 17.2234 75.2192 17.2249C75.2237 17.2264 75.2277 17.2289 75.231 17.2322C75.2344 17.2356 75.2369 17.2396 75.2384 17.244C75.2399 17.2485 75.2403 17.2532 75.2397 17.2579V17.6189C75.2403 17.6236 75.2399 17.6283 75.2384 17.6327C75.2369 17.6371 75.2344 17.6412 75.231 17.6445C75.2277 17.6477 75.2237 17.6502 75.2192 17.6516C75.2148 17.6531 75.2101 17.6535 75.2054 17.6527H74.375C74.3723 17.6524 74.3695 17.6527 74.3668 17.6536C74.3642 17.6545 74.3618 17.656 74.3598 17.658C74.3579 17.66 74.3564 17.6624 74.3556 17.665C74.3547 17.6677 74.3545 17.6705 74.3549 17.6733V18.5448C74.3555 18.5494 74.355 18.5541 74.3534 18.5586C74.3519 18.563 74.3493 18.567 74.346 18.5703C74.3426 18.5735 74.3386 18.576 74.3341 18.5774C74.3296 18.5789 74.3249 18.5792 74.3203 18.5785H73.8886C73.884 18.5792 73.8792 18.5789 73.8748 18.5774C73.8703 18.576 73.8662 18.5735 73.8629 18.5703C73.8595 18.567 73.857 18.563 73.8554 18.5586C73.8539 18.5541 73.8534 18.5494 73.8539 18.5448L73.8518 16.2978Z" fill="white"/>
<path d="M78.5304 18.579C78.5193 18.5798 78.5082 18.5769 78.499 18.5708C78.4897 18.5647 78.4827 18.5557 78.479 18.5452L78.0807 17.6977H77.7714C77.7686 17.6972 77.7657 17.6975 77.763 17.6983C77.7603 17.6992 77.7579 17.7007 77.7559 17.7027C77.7539 17.7047 77.7524 17.7072 77.7515 17.7099C77.7506 17.7126 77.7504 17.7154 77.7509 17.7182V18.5452C77.7515 18.5498 77.7511 18.5545 77.7496 18.559C77.7481 18.5634 77.7456 18.5674 77.7422 18.5707C77.7389 18.574 77.7349 18.5764 77.7304 18.5779C77.726 18.5793 77.7212 18.5797 77.7166 18.579H77.2845C77.2799 18.5797 77.2752 18.5793 77.2707 18.5779C77.2663 18.5764 77.2622 18.574 77.2589 18.5707C77.2556 18.5674 77.2531 18.5634 77.2516 18.559C77.2501 18.5545 77.2496 18.5498 77.2503 18.5452V16.2983C77.2496 16.2936 77.2501 16.2889 77.2516 16.2845C77.2531 16.2801 77.2556 16.276 77.2589 16.2728C77.2622 16.2695 77.2663 16.267 77.2707 16.2656C77.2752 16.2641 77.2799 16.2638 77.2845 16.2645H78.2069C78.4152 16.2552 78.6188 16.3271 78.7751 16.4651C78.8466 16.5305 78.9031 16.6106 78.9408 16.6998C78.9785 16.7891 78.9964 16.8855 78.9933 16.9824C78.9956 17.1198 78.9572 17.2548 78.8829 17.3704C78.8098 17.4838 78.7049 17.5731 78.5813 17.6271L79.0373 18.5392C79.0397 18.5434 79.0409 18.5481 79.0409 18.5529C79.0409 18.5577 79.0397 18.5624 79.0373 18.5666C79.0351 18.5708 79.0317 18.5743 79.0275 18.5767C79.0234 18.5791 79.0186 18.5801 79.0138 18.5798L78.5304 18.579ZM78.4059 17.192C78.4344 17.1653 78.4568 17.1327 78.4715 17.0965C78.4863 17.0603 78.4931 17.0214 78.4914 16.9824C78.4932 16.9437 78.4864 16.9051 78.4716 16.8693C78.4568 16.8335 78.4344 16.8015 78.4059 16.7753C78.3433 16.7213 78.2625 16.6932 78.18 16.6966H77.7714C77.7686 16.6961 77.7657 16.6964 77.763 16.6972C77.7603 16.6981 77.7579 16.6996 77.7559 16.7016C77.7539 16.7036 77.7524 16.7061 77.7515 16.7088C77.7506 16.7114 77.7504 16.7143 77.7509 16.7171V17.2515C77.7504 17.2543 77.7506 17.2571 77.7515 17.2598C77.7524 17.2625 77.7539 17.2649 77.7559 17.2669C77.7579 17.2689 77.7603 17.2704 77.763 17.2713C77.7657 17.2722 77.7686 17.2724 77.7714 17.272H78.18C78.2627 17.2753 78.3436 17.2467 78.4059 17.192Z" fill="white"/>
<path d="M80.8713 16.2978C80.8707 16.2932 80.8713 16.2884 80.8728 16.284C80.8744 16.2796 80.8769 16.2756 80.8803 16.2723C80.8836 16.269 80.8877 16.2666 80.8921 16.2652C80.8966 16.2637 80.9013 16.2633 80.906 16.264H81.3377C81.3423 16.2633 81.347 16.2637 81.3515 16.2651C81.3559 16.2666 81.36 16.269 81.3633 16.2723C81.3666 16.2756 81.3691 16.2796 81.3706 16.284C81.3721 16.2885 81.3725 16.2932 81.3719 16.2978V18.5448C81.3725 18.5494 81.3721 18.5541 81.3706 18.5585C81.3691 18.563 81.3666 18.567 81.3633 18.5703C81.36 18.5736 81.3559 18.576 81.3515 18.5774C81.347 18.5789 81.3423 18.5793 81.3377 18.5786H80.906C80.9013 18.5792 80.8966 18.5789 80.8921 18.5774C80.8877 18.576 80.8836 18.5735 80.8803 18.5703C80.8769 18.567 80.8744 18.563 80.8728 18.5586C80.8713 18.5541 80.8707 18.5494 80.8713 18.5448V16.2978Z" fill="white"/>
<path d="M83.2731 17.8508C83.2576 17.7088 83.2515 17.5658 83.2547 17.423C83.2547 17.3143 83.2565 17.2089 83.2599 17.1068C83.2641 17.0013 83.2841 16.897 83.3194 16.7975C83.3702 16.6258 83.4776 16.4763 83.624 16.3731C83.7771 16.2802 83.9524 16.2303 84.1315 16.2286C84.3106 16.2268 84.4869 16.2734 84.6418 16.3633C84.7823 16.4536 84.8903 16.5864 84.9502 16.7423C84.9614 16.7629 84.9558 16.777 84.9331 16.7851L84.5622 16.952C84.5581 16.9548 84.5534 16.9566 84.5485 16.9573C84.5435 16.958 84.5385 16.9574 84.5338 16.9557C84.5291 16.9541 84.5249 16.9513 84.5215 16.9477C84.5181 16.944 84.5156 16.9396 84.5143 16.9348C84.4889 16.8576 84.4396 16.7905 84.3734 16.7433C84.3072 16.6961 84.2276 16.6714 84.1463 16.6726C84.0675 16.6676 83.9895 16.6906 83.926 16.7376C83.8625 16.7846 83.8177 16.8525 83.7994 16.9293C83.7497 17.2588 83.7497 17.594 83.7994 17.9235C83.8177 18.0004 83.8625 18.0682 83.926 18.1152C83.9895 18.1622 84.0675 18.1852 84.1463 18.1802C84.2276 18.1815 84.3072 18.1567 84.3734 18.1095C84.4396 18.0623 84.4889 17.9952 84.5143 17.918C84.5156 17.9132 84.5181 17.9088 84.5215 17.9052C84.5249 17.9015 84.5291 17.8987 84.5338 17.8971C84.5385 17.8954 84.5435 17.8949 84.5485 17.8955C84.5534 17.8962 84.5581 17.898 84.5622 17.9009L84.9331 18.0677C84.9558 18.0741 84.9614 18.0883 84.9502 18.1105C84.8903 18.2664 84.7823 18.3992 84.6418 18.4896C84.4869 18.5795 84.3106 18.626 84.1315 18.6243C83.9524 18.6225 83.7771 18.5726 83.624 18.4797C83.4777 18.3766 83.3704 18.2273 83.3194 18.0557C83.2992 17.9886 83.2838 17.9201 83.2731 17.8508Z" fill="white"/>
<path d="M87.3923 16.2975C87.3944 16.2877 87.3998 16.2791 87.4077 16.2729C87.4155 16.2667 87.4252 16.2635 87.4351 16.2637H87.8629C87.8729 16.2635 87.8826 16.2667 87.8904 16.2729C87.8982 16.2791 87.9036 16.2877 87.9057 16.2975L88.6891 18.5444C88.6959 18.5671 88.6891 18.5782 88.6655 18.5782H88.2223C88.2124 18.5784 88.2027 18.5752 88.1948 18.569C88.187 18.5628 88.1816 18.5541 88.1795 18.5444L88.0465 18.1393H87.2366L87.1083 18.5444C87.1062 18.5541 87.1008 18.5628 87.093 18.569C87.0852 18.5752 87.0754 18.5784 87.0655 18.5782H86.6197C86.597 18.5782 86.5893 18.5671 86.5962 18.5444L87.3923 16.2975ZM87.913 17.714L87.6516 16.9011H87.6409L87.3787 17.714H87.913Z" fill="white"/>
<path d="M33.7083 1.19032C34.4303 1.17713 35.147 1.31408 35.8132 1.59248C36.3978 1.84074 36.9262 2.20454 37.3667 2.66204C37.7857 3.10255 38.1142 3.62104 38.3336 4.18809C38.5546 4.75228 38.6679 5.35291 38.6677 5.95885C38.6681 6.56432 38.5572 7.1647 38.3404 7.73005C38.1251 8.29762 37.7985 8.81645 37.3799 9.2561C36.9381 9.71497 36.4074 10.0789 35.8201 10.3257C35.1513 10.6036 34.4324 10.7405 33.7083 10.7278H30.207V1.19032H33.7083ZM32.4142 3.09756V8.81929H33.5997C34.0095 8.82651 34.4161 8.74523 34.7916 8.58099C35.1284 8.43139 35.4301 8.21277 35.6772 7.93925C35.917 7.67277 36.1041 7.36327 36.2287 7.02713C36.4831 6.33899 36.4831 5.58257 36.2287 4.89442C36.1052 4.55571 35.918 4.24377 35.6772 3.97546C35.4299 3.7022 35.1283 3.48362 34.7916 3.33372C34.4161 3.16934 34.0095 3.08791 33.5997 3.095L32.4142 3.09756Z" fill="white"/>
<path d="M46.3265 4.16057V10.7272H44.2418V9.80101C44.1561 9.95997 44.0458 10.1044 43.9149 10.2288C43.7745 10.364 43.6162 10.4792 43.4443 10.5711C43.2603 10.6691 43.0662 10.7469 42.8655 10.803C42.6616 10.8613 42.4507 10.8911 42.2387 10.8915C41.7911 10.8966 41.3475 10.806 40.9377 10.6259C40.5538 10.4567 40.2084 10.211 39.9229 9.90368C39.6345 9.58726 39.4126 9.21612 39.2705 8.81231C38.9619 7.92569 38.9619 6.96085 39.2705 6.07423C39.4133 5.67075 39.6358 5.30006 39.9246 4.98414C40.2102 4.67698 40.5555 4.43138 40.9394 4.26239C41.3492 4.08205 41.7927 3.99132 42.2404 3.99629C42.4524 3.99687 42.6634 4.02682 42.8672 4.08527C43.0689 4.14147 43.2632 4.22147 43.446 4.32357C43.6183 4.4197 43.7766 4.53888 43.9166 4.67781C44.0442 4.80315 44.1541 4.94519 44.2435 5.10007V4.15886L46.3265 4.16057ZM42.6751 9.11948C42.8965 9.12301 43.1159 9.07635 43.3168 8.98301C43.5025 8.89623 43.6693 8.77367 43.8075 8.62235C43.9467 8.4671 44.0552 8.28697 44.1275 8.09142C44.205 7.88429 44.2441 7.66482 44.243 7.44369C44.2463 7.01306 44.0913 6.59623 43.8075 6.27231C43.6707 6.11751 43.5037 5.99231 43.3168 5.90438C43.1154 5.81442 42.8972 5.76792 42.6766 5.76792C42.4559 5.76792 42.2378 5.81442 42.0363 5.90438C41.8494 5.99231 41.6824 6.11751 41.5456 6.27231C41.2622 6.59626 41.1072 7.01283 41.1101 7.44327C41.109 7.66443 41.1483 7.88395 41.226 8.09099C41.2982 8.28661 41.4068 8.46678 41.546 8.62192C41.6843 8.77324 41.8511 8.8958 42.0368 8.98258C42.2365 9.07563 42.4547 9.12243 42.6751 9.11948Z" fill="white"/>
<path d="M51.6774 2.71699C51.5763 2.69146 51.4739 2.67119 51.3707 2.65624C51.2601 2.64136 51.1486 2.6345 51.037 2.6357C50.9226 2.63516 50.8083 2.64202 50.6947 2.65624C50.5916 2.66738 50.4931 2.70479 50.4085 2.76491C50.3218 2.8302 50.2536 2.91708 50.2109 3.01689C50.1551 3.15999 50.1298 3.31312 50.1364 3.46654V4.16132H51.6766V5.71433H50.1514V10.728H48.067V5.71433H46.8828V4.16132H48.0683V3.5889C48.0464 3.10958 48.1278 2.63114 48.307 2.18606C48.439 1.88332 48.6479 1.62035 48.9128 1.42325C49.1513 1.25358 49.427 1.14368 49.7167 1.10281C49.9919 1.06287 50.2695 1.04229 50.5476 1.0412C50.7669 1.03893 50.9859 1.05741 51.2017 1.09639C51.3636 1.12499 51.5231 1.16589 51.6787 1.21875L51.6774 2.71699Z" fill="white"/>
<path d="M56.8974 6.05553C56.7759 6.02432 56.653 5.99933 56.529 5.98066C56.4071 5.96587 56.2843 5.95902 56.1615 5.96013C55.9101 5.94826 55.6589 5.98677 55.4226 6.07339C55.1863 6.16001 54.9698 6.293 54.7856 6.46453C54.4399 6.80052 54.2674 7.36824 54.268 8.1677V10.7287H52.1836V4.16198H54.268V5.2247C54.4473 4.88861 54.7132 4.6065 55.038 4.40755C55.4044 4.16915 55.8336 4.04579 56.2706 4.05332C56.4848 4.04756 56.698 4.0845 56.8978 4.16198L56.8974 6.05553Z" fill="white"/>
<path d="M57.0199 1.98109C57.0158 1.80645 57.0475 1.63283 57.1132 1.47094C57.1788 1.30905 57.2769 1.16235 57.4015 1.03988C57.526 0.914701 57.6748 0.816313 57.8387 0.750759C58.0026 0.685206 58.1782 0.653872 58.3547 0.658684C58.537 0.657005 58.7179 0.691919 58.8865 0.761361C59.0451 0.826938 59.1902 0.921375 59.3143 1.03988C59.4376 1.15962 59.5349 1.30351 59.6001 1.46256C59.6685 1.62653 59.7033 1.80257 59.7023 1.98023C59.7038 2.15573 59.669 2.32963 59.6001 2.49105C59.5327 2.6489 59.4357 2.79238 59.3143 2.91374C59.1918 3.03614 59.0465 3.13324 58.8865 3.19953C58.7178 3.26883 58.537 3.30359 58.3547 3.30178C58.1748 3.30403 57.9964 3.26922 57.8306 3.19953C57.512 3.06346 57.2582 2.80966 57.1221 2.49105C57.0534 2.32989 57.0186 2.15629 57.0199 1.98109ZM57.3194 4.16299H59.4042V10.7297H57.3194V4.16299Z" fill="white"/>
<path d="M65.9404 5.68761H70.886V7.33601H69.9054C69.814 7.85558 69.639 8.35692 69.3873 8.82056C69.1444 9.2628 68.8155 9.65204 68.42 9.96542C67.9976 10.2952 67.5194 10.5466 67.0082 10.7077C66.4154 10.8925 65.7971 10.982 65.1763 10.9729C64.4449 10.9865 63.7187 10.8475 63.044 10.5648C62.4509 10.3126 61.917 9.93909 61.4769 9.46829C61.0526 9.00574 60.724 8.46384 60.51 7.87379C60.2857 7.2607 60.1726 6.61252 60.1759 5.9597C60.1746 5.31539 60.2906 4.67622 60.5181 4.07342C60.7401 3.47213 61.0814 2.92195 61.5215 2.45596C61.9616 1.98998 62.4914 1.61782 63.0791 1.36187C63.7411 1.07567 64.4564 0.933908 65.1775 0.946029C65.7627 0.939731 66.3449 1.02963 66.9008 1.21214C67.3912 1.37202 67.8498 1.61626 68.2562 1.93387C68.6265 2.22559 68.9366 2.58652 69.1692 2.99659C69.3935 3.39273 69.5326 3.83134 69.5777 4.28434H67.2213C67.184 4.09053 67.1099 3.90566 67.0031 3.73972C66.8901 3.56215 66.745 3.4072 66.5753 3.2828C66.3871 3.14555 66.1779 3.03978 65.9558 2.96964C65.3017 2.77559 64.5994 2.82639 63.9801 3.11253C63.6498 3.28044 63.3594 3.51739 63.1287 3.80732C62.8935 4.1049 62.7176 4.44491 62.6106 4.80885C62.3817 5.58283 62.3842 6.40687 62.6179 7.17943C62.7288 7.54347 62.9117 7.88156 63.1556 8.17369C63.4045 8.46665 63.7161 8.69987 64.0673 8.85607C64.4734 9.0315 64.9125 9.1173 65.3547 9.10763C65.6602 9.11237 65.9642 9.06387 66.2531 8.96431C66.5019 8.87763 66.7328 8.74612 66.9342 8.57627C67.3072 8.2594 67.5539 7.8191 67.6294 7.33558H65.9395L65.9404 5.68761Z" fill="white"/>
<path d="M76.1752 6.05553C76.0537 6.02431 75.9308 5.99932 75.8068 5.98066C75.6849 5.96587 75.5621 5.95901 75.4393 5.96012C75.1878 5.9483 74.9366 5.98682 74.7002 6.07344C74.4639 6.16006 74.2472 6.29302 74.063 6.46453C73.7181 6.80051 73.5457 7.36823 73.5457 8.1677V10.7287H71.4609V4.16198H73.5457V5.22469C73.7251 4.8886 73.9909 4.6065 74.3158 4.40755C74.6821 4.16915 75.1114 4.04578 75.5484 4.05331C75.7626 4.04759 75.9758 4.08453 76.1756 4.16198L76.1752 6.05553Z" fill="white"/>
<path d="M79.4694 10.9049C78.9497 10.9128 78.4336 10.818 77.9506 10.6259C77.5234 10.4545 77.1346 10.1998 76.8066 9.8768C76.4936 9.56429 76.2477 9.19117 76.084 8.78029C75.748 7.92183 75.748 6.96826 76.084 6.10981C76.2475 5.69869 76.4934 5.32538 76.8066 5.01287C77.1347 4.68998 77.5235 4.43537 77.9506 4.26375C78.9338 3.89125 80.0192 3.89125 81.0023 4.26375C81.4294 4.43537 81.8183 4.68998 82.1463 5.01287C82.4595 5.32538 82.7054 5.69869 82.8689 6.10981C83.2049 6.96826 83.2049 7.92183 82.8689 8.78029C82.7052 9.19117 82.4593 9.5643 82.1463 9.8768C81.8184 10.1998 81.4295 10.4545 81.0023 10.6259C80.5147 10.8189 79.9938 10.9136 79.4694 10.9049ZM79.4694 9.12041C79.6919 9.12331 79.9126 9.0796 80.1171 8.99206C80.3073 8.90934 80.477 8.78594 80.6143 8.63055C80.7519 8.47415 80.8602 8.29432 80.9343 8.09962C81.0883 7.67963 81.0883 7.2186 80.9343 6.79861C80.8622 6.60272 80.7536 6.42228 80.6143 6.26682C80.4743 6.11466 80.3052 5.99204 80.1171 5.90617C79.9138 5.81392 79.6927 5.76734 79.4694 5.76969C79.248 5.76652 79.0287 5.81316 78.8277 5.90617C78.6402 5.99275 78.4723 6.11649 78.3342 6.26989C78.196 6.4233 78.0904 6.60317 78.0238 6.79861C77.8789 7.22018 77.8789 7.67805 78.0238 8.09962C78.0939 8.2947 78.2001 8.47481 78.337 8.63055C78.4727 8.78482 78.6401 8.90811 78.8277 8.99206C79.0299 9.08032 79.2488 9.12409 79.4694 9.12041Z" fill="white"/>
<path d="M90.3948 4.16211V10.7288H88.3104V9.78757C88.1255 10.1367 87.8377 10.4205 87.486 10.6004C87.1069 10.7756 86.697 10.8743 86.2797 10.8906C85.8624 10.907 85.4459 10.8408 85.0543 10.6958C84.7647 10.5787 84.5106 10.388 84.3171 10.1427C84.1081 9.88945 83.9675 9.58692 83.9086 9.26391C83.8393 8.86589 83.8074 8.46227 83.8132 8.05831V4.16211H85.8843V7.52737C85.8672 7.92628 85.9539 8.32279 86.1358 8.67822C86.2301 8.82949 86.365 8.95121 86.5252 9.0295C86.6853 9.10779 86.8642 9.1395 87.0415 9.12102C87.2268 9.13501 87.4126 9.10099 87.5809 9.02222C87.7493 8.94346 87.8944 8.82262 88.0024 8.67138C88.2241 8.30738 88.3309 7.88497 88.3087 7.45935V4.16211H90.3948Z" fill="white"/>
<path d="M93.7089 5.10202C93.7983 4.94725 93.9081 4.80521 94.0354 4.67976C94.177 4.53969 94.3377 4.42042 94.5128 4.32552C94.6963 4.22488 94.8905 4.14496 95.0917 4.08722C95.2976 4.02785 95.5109 3.99789 95.7253 3.99824C96.1729 3.99332 96.6165 4.08405 97.0263 4.26434C97.4102 4.43333 97.7555 4.67893 98.0411 4.98608C98.3299 5.30195 98.5524 5.67246 98.6956 6.07575C99.0047 6.96228 99.0047 7.92731 98.6956 8.81383C98.5527 9.21708 98.3304 9.58759 98.0419 9.9035C97.7564 10.2108 97.4111 10.4566 97.0271 10.6257C96.6173 10.8058 96.1738 10.8964 95.7261 10.8913C95.5118 10.8918 95.2985 10.862 95.0925 10.8028C94.8913 10.7451 94.6972 10.6651 94.5137 10.5645C94.3397 10.4703 94.1792 10.3534 94.0362 10.2167C93.9054 10.0922 93.7953 9.94783 93.7098 9.78884V13.6992H91.625V4.16209H93.7098L93.7089 5.10202ZM95.2889 5.76943C95.0659 5.76698 94.845 5.81357 94.642 5.9059C94.4539 5.99168 94.2848 6.11432 94.1449 6.26656C94.0053 6.42189 93.8966 6.60236 93.8244 6.79835C93.6704 7.21614 93.6704 7.67515 93.8244 8.09294C93.8966 8.28867 94.0053 8.46886 94.1449 8.62387C94.2846 8.77638 94.4537 8.89906 94.642 8.98453C94.8449 9.07727 95.0658 9.12387 95.2889 9.121C95.5056 9.12339 95.72 9.07674 95.9161 8.98453C96.1016 8.89763 96.2682 8.77509 96.4064 8.62387C96.5456 8.46873 96.6542 8.28856 96.7264 8.09294C96.881 7.67525 96.881 7.21604 96.7264 6.79835C96.6542 6.60247 96.5457 6.42202 96.4064 6.26656C96.2677 6.11501 96.1007 5.99205 95.9148 5.90462C95.7189 5.81345 95.505 5.76725 95.2889 5.76943Z" fill="white"/>
<path d="M102.551 1.19176H106.542C107.033 1.18478 107.521 1.27991 107.973 1.47113C108.384 1.64686 108.756 1.90135 109.07 2.22025C109.375 2.53509 109.613 2.90816 109.771 3.3172C110.098 4.16777 110.098 5.1093 109.771 5.95987C109.613 6.36896 109.375 6.74204 109.07 7.05681C108.757 7.37598 108.384 7.63052 107.973 7.80593C107.521 7.99716 107.033 8.09229 106.542 8.0853H104.758V10.7284H102.551V1.19176ZM106.268 6.28673C106.484 6.28905 106.699 6.24254 106.894 6.15068C107.079 6.06485 107.244 5.94193 107.378 5.78959C107.513 5.63551 107.617 5.45759 107.685 5.26508C107.83 4.85995 107.83 4.41712 107.685 4.01198C107.617 3.81952 107.512 3.64162 107.378 3.48747C107.243 3.33539 107.079 3.21251 106.894 3.12639C106.699 3.03452 106.484 2.98802 106.268 2.99034H104.756V6.28673H106.268Z" fill="white"/>
<path d="M115.572 8.82037V10.728H110.652V1.19141H112.86V8.82037H115.572Z" fill="white"/>
<path d="M124.999 7.30779C124.91 7.81202 124.732 8.29651 124.474 8.73886C124.214 9.18489 123.875 9.57958 123.473 9.9034C123.045 10.2454 122.561 10.5104 122.042 10.6867C120.749 11.1062 119.35 11.063 118.085 10.5644C117.481 10.3105 116.934 9.93759 116.477 9.46787C116.036 9.00809 115.693 8.46342 115.469 7.86696C115.236 7.25348 115.119 6.60251 115.121 5.94645C115.119 5.30403 115.235 4.66673 115.463 4.06617C115.687 3.46666 116.029 2.91828 116.469 2.45368C116.909 1.98909 117.438 1.61779 118.024 1.36189C118.686 1.07592 119.4 0.934161 120.121 0.946043C120.79 0.935372 121.456 1.04164 122.089 1.26007C122.628 1.44682 123.127 1.73315 123.56 2.10416C123.961 2.45371 124.287 2.87992 124.521 3.35769C124.758 3.8425 124.914 4.36271 124.984 4.89786H122.681C122.63 4.62585 122.536 4.36381 122.402 4.12178C122.136 3.63662 121.699 3.26764 121.176 3.08645C120.88 2.98344 120.569 2.93277 120.257 2.93671C119.832 2.92841 119.411 3.01432 119.023 3.18827C118.679 3.34633 118.371 3.5735 118.118 3.85568C117.871 4.13658 117.682 4.46302 117.561 4.81657C117.434 5.1799 117.369 5.56228 117.37 5.94731C117.367 6.34867 117.434 6.74746 117.568 7.12596C117.695 7.48785 117.896 7.8191 118.159 8.09827C118.421 8.37744 118.74 8.59831 119.093 8.74656C119.497 8.91245 119.931 8.99356 120.368 8.98486C120.632 8.9867 120.894 8.94329 121.144 8.85651C121.385 8.7719 121.612 8.65257 121.819 8.50228C122.021 8.35397 122.198 8.17446 122.343 7.97049C122.486 7.77068 122.592 7.5468 122.656 7.3095L124.999 7.30779Z" fill="white"/>
<path d="M24.5217 9.8006C21.2848 12.9802 18.064 16.1441 14.8593 19.2923L10.149 14.6577L9.1898 13.7135C9.0144 13.5423 8.83913 13.3698 8.66401 13.1958L7.70996 12.2572L6.76104 11.3237C6.58307 11.1474 6.40438 10.9714 6.22498 10.7957C6.47055 10.5493 6.7157 10.3037 6.96041 10.059C7.1555 9.86434 7.10544 9.76381 6.95014 9.60893C6.69174 9.35224 6.43362 9.0944 6.17578 8.83543C6.47783 8.53082 6.77816 8.22692 7.07678 7.92373C7.58846 7.40664 8.09885 6.88997 8.60796 6.37372C8.61566 6.36602 8.62294 6.35875 8.62978 6.35105C8.93268 6.0453 9.2343 5.7394 9.53463 5.43337L14.9038 0C15.4814 0.563445 16.0376 1.10507 16.5937 1.6467C16.7811 1.83023 16.954 2.03174 17.1572 2.19517C17.3779 2.37271 17.3219 2.50191 17.1542 2.67262C15.4306 4.42584 13.7085 6.18092 11.9878 7.93785L11.0842 8.85939C11.0774 8.86709 11.0701 8.87479 11.0624 8.88206L10.3706 9.58754C10.3193 9.63974 10.276 9.70091 10.202 9.78947C10.5215 10.1063 10.8399 10.4228 11.1574 10.7388L11.681 11.2595C11.9996 11.5758 12.3176 11.8919 12.6351 12.208C12.7091 12.2811 12.7831 12.3551 12.8571 12.4287C13.4402 13.008 14.0294 13.5813 14.6035 14.1695C14.7909 14.3608 14.9299 14.3766 15.1297 14.1862C16.657 12.7316 18.1882 11.2819 19.7233 9.83696C19.74 9.82199 19.7421 9.79161 19.7335 9.813C19.289 9.3424 18.8638 8.88463 18.418 8.44397C18.3658 8.42307 18.3092 8.41557 18.2534 8.42214C18.1976 8.42872 18.1443 8.44916 18.0984 8.48162C17.7292 8.83543 17.3861 9.21619 17.0207 9.57342C16.9286 9.66883 16.8063 9.72932 16.6746 9.74455L14.9462 8.07604L18.6422 3.97748L24.5217 9.8006Z" fill="white"/>
<path d="M10.2023 9.78976C10.6968 10.2815 11.1898 10.7715 11.6813 11.2598C10.8504 12.0783 10.0196 12.8963 9.18876 13.7138C8.69591 13.2289 8.20263 12.744 7.70892 12.2592C6.23806 13.7352 4.7779 15.2223 3.30746 16.6983C3.00371 17.0033 2.69396 17.3032 2.3808 17.604C2.07476 17.2865 1.75903 16.9595 1.43359 16.623C2.0702 16.0078 2.69995 15.4204 3.30746 14.8099C4.46088 13.6513 5.61173 12.4899 6.76001 11.3257C7.06291 11.0199 7.36638 10.7142 7.67042 10.4084C7.91199 10.1663 8.15343 9.92453 8.39472 9.68324C8.58938 9.48858 8.53976 9.38804 8.38403 9.23316C7.94765 8.79735 7.51155 8.36154 7.07574 7.92573C5.48424 6.33537 3.89273 4.74515 2.30122 3.15507C2.82017 2.62713 3.34212 2.09449 3.88075 1.54688C5.46427 3.16405 7.03966 4.77367 8.60692 6.37573C8.91667 6.06213 9.8305 5.14445 10.1394 4.83086C10.9562 5.66511 11.7738 6.50008 12.5921 7.33576C12.2832 7.65064 11.3707 8.56918 11.0626 8.88406L10.3708 9.58954C10.3195 9.64003 10.2763 9.70121 10.2023 9.78976Z" fill="white"/>
<path d="M12.6372 12.2083C11.8067 13.0254 10.9775 13.842 10.1498 14.658L9.19066 13.7138C8.6978 13.2289 8.20452 12.744 7.71081 12.2592C7.93899 12.0296 8.16716 11.8004 8.39533 11.5717C8.58999 11.377 8.54036 11.2765 8.38463 11.1216L7.67102 10.4084C7.15935 9.89786 6.64824 9.38704 6.1377 8.87593C4.69337 7.43245 3.24903 5.98926 1.8047 4.54635C1.36147 4.10355 1.35848 4.11125 1.78587 3.6783C1.957 3.50374 2.12813 3.33005 2.30183 3.15507C2.82078 2.62713 3.34273 2.09449 3.88136 1.54688C5.46488 3.16405 7.04027 4.77367 8.60753 6.37573C9.42639 7.21141 10.245 8.04752 11.0632 8.88406L10.3715 9.58954C10.3201 9.64174 10.2769 9.70291 10.2029 9.79147C10.6975 10.2832 11.1904 10.7732 11.6819 11.2615C12.0013 11.5766 12.3198 11.8922 12.6372 12.2083Z" fill="white"/>
<path d="M12.0595 9.85348C11.7595 10.1487 11.46 10.4437 11.1611 10.7387C10.3291 11.5592 9.49756 12.3782 8.66644 13.1956L2.34063 19.4231L0 16.9973C0.636603 16.3825 1.26679 15.7951 1.87387 15.1846C3.32847 13.7244 4.77238 12.2544 6.2257 10.7947C6.47127 10.5483 6.71641 10.3027 6.96113 10.058C7.15622 9.86332 7.10616 9.76279 6.95086 9.60791C6.69246 9.35122 6.43433 9.09338 6.1765 8.8344C4.24159 6.90149 2.3064 4.96759 0.370924 3.03268C-0.0723021 2.58988 -0.0757241 2.59758 0.3521 2.16462C1.04304 1.46513 1.73055 0.761788 2.44844 0.0332031C4.52039 2.15051 6.57438 4.2477 8.63178 6.35003L11.0875 8.85836L12.0595 9.85348Z" fill="white"/>
</svg>
