<svg width="100" height="59" viewBox="0 0 100 59" fill="none" xmlns="http://www.w3.org/2000/svg">
<g clip-path="url(#clip0)">
<path d="M12.6514 9.31257C12.9211 9.54497 13.1368 9.83349 13.2834 10.158C13.43 10.4824 13.5039 10.835 13.5001 11.191C13.5119 11.7353 13.327 12.2657 12.9795 12.6848C12.8098 12.8864 12.5961 13.0464 12.3547 13.1524C12.1134 13.2583 11.851 13.3074 11.5876 13.2958C11.1249 13.3085 10.675 13.1424 10.3316 12.8319C10.1583 12.6684 10.0222 12.4697 9.93237 12.2491C9.84256 12.0285 9.80118 11.7911 9.81102 11.5531C9.81984 11.1776 9.92955 10.8113 10.1287 10.4928C10.3278 10.1742 10.6089 9.91508 10.9426 9.74258C10.86 9.63057 10.75 9.5416 10.6233 9.48416C10.4965 9.42671 10.3571 9.4027 10.2184 9.41442C9.32295 9.42717 8.46881 9.79323 7.84203 10.4329C7.11025 11.1362 6.53898 11.9893 6.16725 12.9337C5.78148 13.8121 5.57378 14.7583 5.55618 15.7175V22.8126C5.51358 23.2172 5.57308 23.6259 5.72925 24.0015C5.88542 24.3771 6.13328 24.7076 6.45015 24.9627C7.26041 25.4143 8.18376 25.6225 9.10943 25.5624V26.264H8.30599C6.04277 26.1961 4.583 26.1622 3.9493 26.1622C3.3156 26.1622 2.05952 26.1622 0 26.298V25.5964C0.701217 25.6666 1.40426 25.4818 1.98031 25.0758C2.19669 24.815 2.35831 24.5132 2.45552 24.1885C2.55273 23.8638 2.58354 23.5229 2.54611 23.1861V12.6621C2.61582 11.8657 2.41661 11.0689 1.98031 10.3989C1.72627 10.1489 1.41994 9.95827 1.08337 9.84086C0.74681 9.72345 0.388394 9.68216 0.0339482 9.71995V9.0523C0.74686 9.1202 1.43714 9.15415 2.1161 9.15415C3.29135 9.18405 4.46392 9.02745 5.59013 8.69019V12.8771C5.99656 11.7324 6.6583 10.6953 7.52518 9.84443C7.90025 9.44051 8.3534 9.11692 8.85717 8.89324C9.36095 8.66955 9.90488 8.55043 10.456 8.54308C11.2586 8.51422 12.0425 8.78899 12.6514 9.31257Z" fill="white"/>
<path d="M25.9826 10.8078C27.3707 12.3166 28.0685 14.5798 28.076 17.5974C28.0836 20.615 27.3857 22.8782 25.9826 24.387C25.2788 25.1359 24.4228 25.7253 23.4723 26.1156C22.5217 26.506 21.4985 26.6883 20.4716 26.6503C19.4447 26.6883 18.4216 26.506 17.471 26.1156C16.5204 25.7253 15.6645 25.1359 14.9607 24.387C13.5726 22.8782 12.8748 20.615 12.8672 17.5974C12.8597 14.5798 13.5575 12.3166 14.9607 10.8078C15.6631 10.0572 16.5188 9.46658 17.4697 9.07607C18.4206 8.68555 19.4445 8.50428 20.4716 8.54457C21.4988 8.50428 22.5226 8.68555 23.4735 9.07607C24.4245 9.46658 25.2802 10.0572 25.9826 10.8078ZM17.2918 11.317C16.398 13.3197 16.0094 15.5113 16.1602 17.6993C16.0066 19.8837 16.3953 22.0723 17.2918 24.0702C17.5705 24.6795 18.0183 25.1958 18.5821 25.5579C19.1458 25.9199 19.8017 26.1124 20.4716 26.1124C21.1416 26.1124 21.7975 25.9199 22.3612 25.5579C22.9249 25.1958 23.3728 24.6795 23.6515 24.0702C24.548 22.0723 24.9367 19.8837 24.7831 17.6993C24.9339 15.5113 24.5453 13.3197 23.6515 11.317C23.3763 10.7039 22.9297 10.1834 22.3656 9.81817C21.8014 9.45298 21.1437 9.25869 20.4716 9.25869C19.7996 9.25869 19.1419 9.45298 18.5777 9.81817C18.0135 10.1834 17.567 10.7039 17.2918 11.317Z" fill="white"/>
<path d="M43.8845 9.05273V9.7317C43.4487 9.79289 43.0482 10.0051 42.7529 10.3314C42.3199 10.8465 41.9861 11.4374 41.7684 12.0741L36.2462 26.4342L35.1146 29.3424C34.8098 30.2281 34.3021 31.0303 33.6322 31.6848C33.2901 31.9982 32.8793 32.2269 32.4327 32.3525C31.9768 32.4858 31.5045 32.5544 31.0295 32.5562C30.4342 32.5842 29.8497 32.3907 29.3887 32.013C29.1746 31.8345 29.0048 31.6087 28.8929 31.3534C28.781 31.0981 28.7299 30.8203 28.7437 30.5419C28.7332 30.3061 28.7699 30.0706 28.8515 29.8491C28.9331 29.6276 29.058 29.4246 29.2189 29.2519C29.3893 29.0836 29.5933 28.9532 29.8175 28.8694C30.0418 28.7855 30.2813 28.75 30.5203 28.7653C30.9597 28.7543 31.3874 28.9076 31.7198 29.1953C31.8797 29.3361 32.0063 29.5106 32.0905 29.7063C32.1746 29.9021 32.2142 30.114 32.2064 30.3269C32.2186 30.6402 32.1395 30.9503 31.9788 31.2195C31.8181 31.4887 31.5827 31.7054 31.3011 31.8433H31.5048C32.7382 31.8433 33.6775 30.9833 34.3564 29.2406L35.488 26.1852L29.4566 11.5875C29.2107 10.9994 28.8217 10.482 28.325 10.0825C27.9915 9.85325 27.5979 9.7273 27.1934 9.72038V9.05273C28.2812 9.19632 29.3777 9.26438 30.475 9.25642C31.6066 9.25642 33.0438 9.18853 34.8317 9.05273V9.76565C34.2405 9.73534 33.6483 9.8003 33.0777 9.95802C32.8895 10.0345 32.7325 10.172 32.6319 10.3486C32.5313 10.5251 32.493 10.7303 32.5232 10.9312C32.547 11.4987 32.6816 12.0561 32.9193 12.572L36.9478 22.5641L40.6595 12.8776C40.8733 12.3819 41.0033 11.8542 41.0442 11.3159C41.0549 11.0909 41.0049 10.8671 40.8994 10.668C40.7939 10.4689 40.6367 10.3018 40.4445 10.1843C39.8473 9.86914 39.1845 9.69859 38.5094 9.68643V9.05273C39.641 9.12063 40.6255 9.15458 41.3158 9.15458C42.3116 9.1244 43.1679 9.09045 43.8845 9.05273Z" fill="white"/>
<path d="M44.3354 25.4497C43.6226 24.6454 43.2566 23.5919 43.317 22.5189C43.2865 21.6132 43.5884 20.7278 44.1657 20.0293C44.7013 19.3921 45.3593 18.8688 46.1007 18.4903C47.0621 18.027 48.0525 17.6264 49.0656 17.2908C50.0281 17.0051 50.9604 16.6261 51.8493 16.1592C52.1177 16.0261 52.3443 15.8215 52.504 15.5679C52.6637 15.3144 52.7504 15.0217 52.7546 14.7221V12.5947C52.8107 12.1192 52.7672 11.6372 52.6269 11.1793C52.4867 10.7215 52.2527 10.2979 51.9398 9.93541C51.2973 9.42923 50.4936 9.17206 49.6766 9.21118C49.0683 9.14809 48.4536 9.22433 47.8791 9.43412C47.3047 9.64391 46.7855 9.98174 46.361 10.422C46.8039 10.528 47.2007 10.7741 47.4926 11.1236C47.7985 11.5001 47.9592 11.9739 47.9453 12.4589C47.959 12.7061 47.9173 12.9532 47.8233 13.1823C47.7294 13.4113 47.5854 13.6165 47.4021 13.7829C47.0262 14.1168 46.5351 14.2913 46.0329 14.2695C45.769 14.2901 45.5041 14.2474 45.26 14.1451C45.016 14.0427 44.7999 13.8836 44.6297 13.681C44.3083 13.2809 44.1399 12.7795 44.1544 12.2665C44.137 11.7883 44.2717 11.3168 44.5391 10.9199C44.8548 10.4858 45.2366 10.1039 45.6707 9.7883C46.301 9.37157 46.9919 9.05475 47.7189 8.84907C48.6028 8.60163 49.517 8.47973 50.4348 8.48695C51.8557 8.4093 53.2537 8.86991 54.3501 9.77698C54.9018 10.2754 55.2952 10.9245 55.4818 11.6441C55.6998 12.5823 55.7987 13.5442 55.776 14.5071V23.8202C55.7431 24.2367 55.8212 24.6545 56.0023 25.031C56.0943 25.1548 56.2164 25.2531 56.357 25.3165C56.4976 25.3798 56.6521 25.4062 56.8057 25.3931C57.0695 25.3964 57.33 25.3342 57.5639 25.2121C57.8343 25.0659 58.0885 24.8914 58.3221 24.6915L58.6842 25.2574C58.2244 25.6336 57.7233 25.9563 57.1905 26.2192C56.6989 26.4198 56.171 26.5161 55.6402 26.5021C55.2267 26.5481 54.8082 26.4997 54.4162 26.3605C54.0242 26.2214 53.6689 25.9951 53.377 25.6987C52.9275 25.062 52.7044 24.2931 52.7433 23.5147C52.2277 24.4924 51.4421 25.3015 50.4801 25.8458C49.5617 26.296 48.5492 26.521 47.5266 26.5021C46.9509 26.5552 46.3705 26.4892 45.8214 26.3081C45.2724 26.1271 44.7666 25.8349 44.3354 25.4497ZM52.732 22.632V16.0687C52.5229 16.3923 52.2346 16.6572 51.8946 16.8382C51.5325 17.0419 50.9893 17.3135 50.2537 17.6416C49.5419 17.9318 48.8534 18.2761 48.1942 18.6714C47.6543 19.0086 47.1916 19.4559 46.8363 19.9841C46.4338 20.6267 46.2364 21.3766 46.2705 22.1341C46.2074 22.956 46.4718 23.7696 47.006 24.3973C47.2565 24.6574 47.5599 24.8606 47.8957 24.9934C48.2314 25.1261 48.5918 25.1853 48.9524 25.1668C49.7501 25.1157 50.52 24.8542 51.1839 24.409C51.8478 23.9637 52.3819 23.3506 52.732 22.632Z" fill="white"/>
<path d="M62.9859 23.1527C62.9484 23.4895 62.9792 23.8304 63.0765 24.1551C63.1737 24.4798 63.3353 24.7816 63.5517 25.0424C64.1277 25.4484 64.8308 25.6332 65.532 25.563V26.2646C63.4725 26.174 62.1372 26.1288 61.4808 26.1288C60.8245 26.1288 59.4779 26.1288 57.4297 26.2646V25.563C58.1274 25.6335 58.827 25.4485 59.3987 25.0424C59.6253 24.7866 59.7966 24.4867 59.9018 24.1614C60.007 23.8362 60.0437 23.4928 60.0097 23.1527V4.0172C60.0806 3.2191 59.877 2.4207 59.4326 1.75399C59.1686 1.50392 58.8508 1.31777 58.5035 1.20987C58.1563 1.10196 57.7889 1.07519 57.4297 1.13161V0.37343C58.12 0.37343 58.8102 0.463958 59.5005 0.463958C60.6798 0.49939 61.8569 0.34269 62.9859 0V23.1527Z" fill="white"/>
<path d="M5.58939 48.8405C5.55127 49.18 5.5828 49.5237 5.68203 49.8506C5.78126 50.1774 5.94611 50.4806 6.16651 50.7416C6.74036 51.1431 7.43821 51.3276 8.1355 51.2622V51.9638C6.08729 51.8732 4.74068 51.828 4.08435 51.828C3.42802 51.828 2.09273 51.828 0.0332031 51.9638V51.2622C0.734015 51.3274 1.43534 51.143 2.01351 50.7416C2.22967 50.4784 2.39107 50.1746 2.48823 49.8482C2.58539 49.5217 2.61636 49.1791 2.57932 48.8405V38.3619C2.64468 37.5658 2.44582 36.7703 2.01351 36.0987C1.75533 35.8439 1.44367 35.6497 1.10115 35.5303C0.758628 35.4109 0.393826 35.3693 0.0332031 35.4084L0.0332031 34.7068C0.746115 34.7747 1.43639 34.8086 2.11536 34.8086C3.29156 34.8412 4.46515 34.6806 5.58939 34.3333V48.8405ZM5.36307 26.9666C5.56391 27.1636 5.72345 27.3987 5.83237 27.6581C5.94128 27.9175 5.99738 28.196 5.99738 28.4773C5.99738 28.7586 5.94128 29.0371 5.83237 29.2965C5.72345 29.5559 5.56391 29.791 5.36307 29.988C5.1654 30.1958 4.92755 30.3613 4.66396 30.4744C4.40038 30.5874 4.11656 30.6457 3.82974 30.6457C3.54293 30.6457 3.2591 30.5874 2.99552 30.4744C2.73193 30.3613 2.49408 30.1958 2.29641 29.988C2.00177 29.6875 1.8018 29.3071 1.7213 28.894C1.6408 28.4809 1.6833 28.0533 1.84355 27.6641C2.00379 27.2749 2.27472 26.9414 2.62276 26.7047C2.9708 26.4681 3.38063 26.3388 3.80145 26.3329C4.09145 26.3246 4.38001 26.3766 4.64884 26.4857C4.91767 26.5948 5.16089 26.7585 5.36307 26.9666Z" fill="white"/>
<path d="M23.1533 34.7066V35.3743C22.6948 35.4223 22.2709 35.6403 21.9651 35.9853C21.5213 36.4948 21.1829 37.0871 20.9693 37.728L15.481 52.1334H14.9039L8.74795 37.3433C8.5393 36.7756 8.20686 36.2614 7.77477 35.8382C7.51711 35.5894 7.18123 35.4374 6.82422 35.4082V34.7066C7.986 34.7972 8.9705 34.8424 9.77771 34.8424C11.4978 34.8424 12.9462 34.7972 14.1231 34.7066V35.4082C13.5171 35.3837 12.9109 35.4485 12.3238 35.6006C11.9391 35.7138 11.7467 36.0419 11.7467 36.5511C11.7922 37.0582 11.9182 37.5549 12.1201 38.0222L16.2392 48.2067L19.9282 38.5315C20.1311 38.0256 20.2533 37.491 20.2903 36.9472C20.3073 36.7225 20.2611 36.4976 20.1572 36.2976C20.0532 36.0977 19.8956 35.9308 19.7019 35.8156C19.1111 35.5327 18.467 35.3784 17.8121 35.363V34.6953C18.9814 34.7632 19.9207 34.7972 20.6298 34.7972C21.472 34.8097 22.3142 34.7794 23.1533 34.7066Z" fill="white"/>
<path d="M37.7955 34.707V35.3747C37.3345 35.4252 36.9079 35.6426 36.596 35.9857C36.1605 36.4991 35.8264 37.0905 35.6115 37.7284L30.1232 52.1338L28.9916 55.042C28.7003 55.9235 28.2084 56.7254 27.5545 57.3844C27.2116 57.7051 26.7962 57.9381 26.3437 58.0634C25.8863 58.1883 25.4146 58.253 24.9405 58.2557C24.3413 58.2866 23.7522 58.0929 23.2883 57.7126C23.0755 57.533 22.9068 57.307 22.7949 57.052C22.6831 56.7969 22.6312 56.5197 22.6433 56.2415C22.6309 56.0055 22.6666 55.7694 22.7484 55.5476C22.8301 55.3258 22.956 55.123 23.1186 54.9515C23.2889 54.7831 23.4929 54.6528 23.7172 54.5689C23.9415 54.4851 24.181 54.4496 24.4199 54.4649C24.8656 54.445 25.3022 54.5946 25.6421 54.8836C25.802 55.0243 25.9286 55.1989 26.0127 55.3946C26.0969 55.5903 26.1365 55.8023 26.1286 56.0152C26.1401 56.3268 26.0606 56.6351 25.8998 56.9023C25.7391 57.1696 25.504 57.3842 25.2234 57.5202C25.2905 57.5349 25.36 57.5349 25.4271 57.5202C26.6643 57.5202 27.6148 56.6489 28.2787 54.9062L29.4103 51.8622L23.3902 37.3437C23.1402 36.7579 22.7519 36.2414 22.2586 35.8386C21.9261 35.606 21.5326 35.4761 21.127 35.4652V34.7636C22.2148 34.9072 23.3113 34.9753 24.4086 34.9673C25.5402 34.9673 26.9774 34.8994 28.7653 34.7636V35.4652C28.1734 35.4374 27.581 35.5062 27.0113 35.6689C26.8231 35.7454 26.6661 35.8829 26.5655 36.0594C26.4649 36.236 26.4266 36.4412 26.4568 36.6421C26.4809 37.2109 26.6194 37.7689 26.8642 38.2829L30.8814 48.2637L34.5931 38.5884C34.8008 38.0953 34.9269 37.5717 34.9665 37.0381C34.9797 36.8127 34.9307 36.5879 34.825 36.3884C34.7192 36.1889 34.5607 36.0222 34.3667 35.9065C33.7728 35.6071 33.1193 35.4447 32.4543 35.4313V34.7636C33.6425 34.8315 34.5704 34.8655 35.272 34.8655C36.2301 34.8277 37.0713 34.7749 37.7955 34.707Z" fill="white"/>
<path d="M54.0568 46.6342L53.2194 49.0785C52.416 51.3417 51.0694 52.5299 49.1683 52.5299C48.7623 52.5726 48.3523 52.5047 47.9818 52.3333C47.6113 52.162 47.294 51.8937 47.0635 51.5567C46.8583 51.2166 46.7634 50.8213 46.7919 50.4251C46.8515 49.5308 47.0422 48.65 47.3577 47.8111L50.5488 38.2264C50.7276 37.6956 50.8378 37.1442 50.877 36.5856C50.877 35.8048 50.5262 35.454 49.7454 35.454C49.1634 35.5591 48.6078 35.7781 48.1107 36.0985C47.6135 36.4189 47.1846 36.8344 46.8485 37.3211C45.5665 38.8757 44.4937 40.5914 43.6574 42.4247C42.5481 44.7456 41.6395 47.1571 40.9415 49.633L40.3983 52.0546H37.4788L41.496 37.6832C41.6223 37.2787 41.7021 36.8611 41.7336 36.4385C41.7336 35.884 41.4847 35.6011 40.9981 35.6011C40.7367 35.611 40.4814 35.6829 40.2532 35.8107C40.025 35.9386 39.8304 36.1188 39.6854 36.3366C39.1445 37.1697 38.7182 38.0717 38.418 39.0185L37.9767 40.2633H37.377L38.2143 37.819C39.0178 35.5558 40.3531 34.3676 42.1976 34.3676C42.4738 34.3393 42.7528 34.3701 43.0162 34.4579C43.2796 34.5457 43.5213 34.6885 43.7253 34.8768C44.0498 35.2916 44.2109 35.811 44.1779 36.3366C44.1264 37.2565 43.9708 38.1676 43.7139 39.0525L42.5823 43.6468C43.5505 41.047 44.9381 38.6234 46.6901 36.4724C47.2128 35.8417 47.8633 35.329 48.5986 34.9682C49.334 34.6073 50.1375 34.4065 50.9562 34.3789C52.7668 34.3789 53.6721 35.2163 53.6721 36.8911C53.6449 37.7611 53.4768 38.621 53.1742 39.4372L49.8246 49.2143C49.6766 49.6257 49.5889 50.0564 49.5644 50.493C49.5493 50.602 49.5598 50.713 49.5949 50.8174C49.6299 50.9217 49.6887 51.0165 49.7665 51.0943C49.8443 51.1721 49.9391 51.2309 50.0434 51.2659C50.1477 51.301 50.2588 51.3114 50.3678 51.2964C50.626 51.2754 50.8762 51.1963 51.0996 51.065C51.323 50.9337 51.5138 50.7536 51.6578 50.5383C52.2224 49.7237 52.6576 48.8267 52.9478 47.879L53.3779 46.6342H54.0568Z" fill="white"/>
<path d="M68.9713 46.5988H69.605L68.7676 49.043C68.4536 50.073 67.8625 50.9969 67.0589 51.7136C66.4618 52.2246 65.7059 52.5125 64.9201 52.5284C64.5307 52.5393 64.1438 52.462 63.7885 52.302C63.4901 52.1567 63.2361 51.934 63.053 51.657C62.8499 51.3147 62.7443 50.9234 62.7475 50.5254C62.7569 49.9892 62.8368 49.4566 62.9851 48.9412L63.2906 47.8096L63.8904 45.3992C63.1294 47.3921 62.0223 49.2348 60.62 50.8423C60.1871 51.3431 59.657 51.7509 59.0617 52.0407C58.4665 52.3305 57.8186 52.4964 57.1573 52.5284C56.7032 52.5519 56.2505 52.4605 55.8411 52.2627C55.4317 52.0649 55.0787 51.7671 54.8149 51.3968C54.2339 50.525 53.9482 49.4896 54.0001 48.4433C54.0845 46.3537 54.5887 44.3024 55.4826 42.4118C56.3691 40.3097 57.6392 38.3909 59.2282 36.7538C59.8134 36.0679 60.5309 35.5069 61.3378 35.1044C62.1446 34.702 63.0243 34.4663 63.9243 34.4114C64.2045 34.4012 64.4832 34.4562 64.7385 34.572C64.9937 34.6879 65.2186 34.8614 65.3954 35.079C65.8115 35.6186 66.0453 36.2764 66.0631 36.9575L66.6062 34.8753C67.6482 34.8567 68.6831 34.7007 69.6842 34.4114L65.4973 49.2128L65.3615 49.7333C65.2967 49.9694 65.2625 50.2128 65.2596 50.4575C65.2596 51.012 65.5086 51.2949 65.9952 51.2949C66.9759 51.2949 67.8359 50.1633 68.5752 47.9001L68.9713 46.5988ZM60.3937 49.9936C61.402 48.8258 62.261 47.5372 62.9511 46.1574C63.8036 44.5267 64.4971 42.8176 65.022 41.0539L65.667 38.7001C65.6816 38.4514 65.6816 38.202 65.667 37.9533C65.7018 37.2022 65.5337 36.4556 65.1804 35.7919C65.0456 35.5513 64.8482 35.3517 64.6091 35.2142C64.3701 35.0768 64.0982 35.0066 63.8225 35.0111C62.8606 35.0111 61.8422 35.7466 60.7785 37.2743C59.6034 38.9557 58.6914 40.8064 58.0739 42.7626C57.3692 44.7407 56.9871 46.8192 56.9423 48.9185C56.9004 49.5893 57.0046 50.2611 57.2479 50.8875C57.3129 51.0665 57.4313 51.2211 57.5872 51.3304C57.7431 51.4397 57.9288 51.4984 58.1192 51.4986C59.037 51.3085 59.8492 50.7791 60.3937 50.0162V49.9936Z" fill="white"/>
<path d="M74.7991 36.4489C74.7991 35.8945 74.5502 35.6116 74.0636 35.6116C73.7876 35.6256 73.5191 35.706 73.2807 35.8459C73.0424 35.9857 72.8412 36.1809 72.6943 36.415C72.1513 37.2242 71.7211 38.1036 71.4156 39.029L70.9517 40.2738H70.3066L71.178 37.8295C71.4797 36.7681 72.1095 35.8293 72.9772 35.1476C73.6616 34.6503 74.4851 34.3811 75.331 34.3781C76.8134 34.3781 77.5942 35.0797 77.5942 36.4829C77.5425 37.372 77.3357 38.2451 76.9831 39.063L73.4072 49.2474C73.2539 49.6461 73.1623 50.0658 73.1357 50.4922C73.1172 50.6033 73.1249 50.7173 73.1582 50.8249C73.1915 50.9325 73.2495 51.0309 73.3275 51.1122C73.4055 51.1935 73.5014 51.2555 73.6076 51.2932C73.7138 51.331 73.8273 51.3434 73.9391 51.3296C74.2009 51.3114 74.4549 51.2324 74.6808 51.0988C74.9068 50.9653 75.0984 50.7808 75.2404 50.5601C75.7963 49.7412 76.238 48.8503 76.5531 47.9121L77.0171 46.6673H77.6621L76.7907 49.1116C76.4737 50.1478 75.86 51.0684 75.0254 51.7596C74.3514 52.2806 73.5236 52.5632 72.6717 52.563C71.0988 52.563 70.318 51.884 70.318 50.5261C70.3732 49.6157 70.5798 48.7208 70.929 47.8782L74.5049 37.6937C74.6648 37.2959 74.764 36.8763 74.7991 36.4489ZM76.2928 27.3961C76.5087 27.1526 76.7735 26.9572 77.0698 26.8227C77.3661 26.6882 77.6875 26.6175 78.0129 26.6153C78.2452 26.6133 78.4753 26.6608 78.6879 26.7544C78.9006 26.848 79.0909 26.9858 79.2463 27.1585C79.5551 27.4984 79.7212 27.9441 79.7103 28.4032C79.6748 29.0539 79.3995 29.6683 78.9377 30.128C78.4759 30.5877 77.8602 30.8602 77.2094 30.8928C76.9867 30.8993 76.765 30.8594 76.5585 30.7756C76.352 30.6918 76.1652 30.566 76.0099 30.4062C75.8531 30.2445 75.7303 30.0531 75.6486 29.8432C75.567 29.6333 75.5282 29.4092 75.5347 29.184C75.5346 28.8487 75.6016 28.5168 75.7318 28.2077C75.862 27.8987 76.0528 27.6189 76.2928 27.3848V27.3961Z" fill="white"/>
<path d="M80.5595 50.3898C80.5595 50.9896 80.8198 51.2951 81.329 51.2951C81.5941 51.2843 81.8525 51.2084 82.0815 51.0743C82.3104 50.9401 82.5028 50.7517 82.6417 50.5256C83.1837 49.7069 83.6066 48.8153 83.8978 47.8776L84.3391 46.6329H84.9049L84.0675 49.0771C83.2867 51.3404 81.9514 52.5285 80.0503 52.5285C78.5415 52.5285 77.7871 51.8043 77.7871 50.3559C77.8331 49.502 77.9891 48.6577 78.2511 47.8437L83.7167 29.738C83.8057 29.4321 83.8588 29.1169 83.8751 28.7988C83.8883 28.6041 83.8465 28.4096 83.7544 28.2375C83.6624 28.0655 83.5239 27.9227 83.3546 27.8256C82.8013 27.5907 82.2003 27.4898 81.6006 27.5314L81.8383 26.8298C82.916 26.8194 83.9895 26.6942 85.0407 26.4563C85.997 26.2289 86.9237 25.891 87.8018 25.4492L80.7972 49.2129C80.6647 49.5926 80.5848 49.9885 80.5595 50.3898Z" fill="white"/>
<path d="M87.2463 51.7938C87.5376 51.8452 87.8332 51.868 88.1289 51.8617C88.5763 51.8733 89.0216 51.7962 89.4392 51.635C89.8567 51.4738 90.2383 51.2317 90.5619 50.9225C90.8886 50.5879 91.1411 50.1882 91.3029 49.7495C91.4647 49.3108 91.5323 48.8429 91.5011 48.3763C91.5045 47.6596 91.3701 46.9489 91.105 46.2829C90.7528 45.4539 90.3006 44.6711 89.7584 43.9518C89.1438 43.1542 88.5915 42.3106 88.1063 41.4283C87.7427 40.7063 87.5638 39.9053 87.5857 39.0972C87.5868 38.2348 87.8341 37.3908 88.2987 36.6642C88.7654 35.9424 89.4182 35.3598 90.1884 34.9781C90.9957 34.5734 91.8881 34.3677 92.7911 34.3784C93.7995 34.3444 94.8 34.5663 95.6994 35.0234C96.083 35.2548 96.393 35.5903 96.5933 35.991C96.7936 36.3916 96.876 36.8409 96.831 37.2866C96.8181 37.6937 96.6841 38.0877 96.4462 38.4182C96.3198 38.5995 96.15 38.7462 95.9524 38.845C95.7547 38.9439 95.5355 38.9916 95.3146 38.984C95.1357 38.9877 94.9579 38.9544 94.7924 38.8863C94.6269 38.8181 94.4772 38.7166 94.3527 38.588C94.0997 38.3143 93.9619 37.9535 93.968 37.5808C94.0167 36.7421 94.3477 35.9444 94.9072 35.3176C94.3964 35.0331 93.8166 34.8959 93.2325 34.9216C92.8437 34.9096 92.4566 34.9789 92.0962 35.125C91.7357 35.2711 91.4097 35.4909 91.139 35.7703C90.5711 36.4097 90.2783 37.2474 90.3242 38.1014C90.3176 38.6203 90.4258 39.1342 90.6411 39.6064C90.985 40.2338 91.3628 40.8419 91.7727 41.4283L92.3724 42.2996C92.9404 43.1409 93.44 44.0264 93.8662 44.9476C94.1864 45.6591 94.3523 46.4305 94.3527 47.2108C94.367 48.175 94.091 49.1213 93.5606 49.9266C93.0422 50.732 92.3147 51.3813 91.4558 51.8051C90.5693 52.2552 89.5871 52.4842 88.5929 52.4728C87.466 52.5116 86.3513 52.2291 85.3791 51.658C84.9554 51.3979 84.6099 51.0283 84.3788 50.5881C84.1478 50.148 84.0399 49.6536 84.0665 49.1572C84.0635 48.786 84.1741 48.4227 84.3833 48.1161C84.4962 47.9605 84.6469 47.8363 84.8211 47.7551C84.9954 47.674 85.1874 47.6385 85.3791 47.6521C85.6051 47.635 85.8314 47.6822 86.0317 47.7883C86.2319 47.8945 86.398 48.0552 86.5107 48.2519C86.7595 48.7247 86.8694 49.2582 86.8276 49.7909C86.8014 50.3778 86.7219 50.9611 86.5899 51.5335C86.7965 51.6485 87.0171 51.736 87.2463 51.7938Z" fill="white"/>
<path d="M98.1449 51.8503C99.1698 51.8503 100.001 51.0195 100.001 49.9945C100.001 48.9696 99.1698 48.1387 98.1449 48.1387C97.1199 48.1387 96.2891 48.9696 96.2891 49.9945C96.2891 51.0195 97.1199 51.8503 98.1449 51.8503Z" fill="white"/>
</g>
<defs>
<clipPath id="clip0">
<rect width="100" height="58.2585" fill="white"/>
</clipPath>
</defs>
</svg>
