<svg width="125" height="28" viewBox="0 0 125 28" fill="none" xmlns="http://www.w3.org/2000/svg">
<g clip-path="url(#clip0)">
<path d="M123.978 18.334H123.804C123.679 18.3951 123.568 18.4802 123.476 18.5845C123.384 18.6888 123.314 18.8101 123.269 18.9416C123.268 18.961 123.268 18.9804 123.269 18.9998C123.193 19.1392 123.084 19.2583 122.951 19.347C122.76 19.4911 122.588 19.6588 122.438 19.8461L122.308 19.9112C122.154 19.9496 122.012 20.026 121.894 20.1333C121.777 20.2406 121.688 20.3755 121.636 20.5258C121.522 20.7949 121.492 21.0925 121.55 21.3791V21.4659C121.511 21.5393 121.459 21.6053 121.398 21.6612C121.202 21.8257 121.065 22.0489 121.007 22.2975C120.935 22.5373 120.956 22.7954 121.065 23.0206V23.1222C121.036 23.2716 121.04 23.4257 121.078 23.5733C121.115 23.7208 121.185 23.8582 121.282 23.9755C121.373 24.0766 121.485 24.1572 121.61 24.212C121.734 24.2667 121.869 24.2944 122.005 24.2932C122.366 24.2927 122.712 24.1498 122.967 23.8956C123.157 23.6809 123.311 23.4367 123.423 23.1725C123.553 22.8419 123.739 22.5362 123.972 22.2689C124.131 22.0945 124.247 21.8855 124.311 21.6584C124.375 21.4313 124.386 21.1924 124.341 20.9607C124.338 20.9223 124.338 20.8837 124.341 20.8453C124.457 20.7543 124.55 20.6377 124.612 20.5047C124.675 20.3716 124.706 20.2258 124.702 20.0788C124.72 19.5343 124.606 18.9936 124.37 18.5024C124.321 18.4476 124.261 18.4042 124.193 18.3754C124.126 18.3466 124.053 18.3331 123.979 18.3357L123.978 18.334ZM123.819 20.0475C123.819 20.1343 123.819 20.1343 123.747 20.1994C123.687 20.2513 123.632 20.307 123.58 20.3661C123.517 20.4648 123.474 20.5752 123.454 20.6908C123.434 20.8063 123.438 20.9247 123.465 21.0388C123.491 21.2407 123.461 21.446 123.378 21.6317C123.075 21.9751 122.831 22.3657 122.655 22.788C122.579 22.9708 122.484 23.1453 122.373 23.3088C122.275 23.3911 122.153 23.4372 122.025 23.439C121.994 23.4444 121.963 23.4444 121.932 23.439C121.916 23.3822 121.916 23.3222 121.932 23.2654C121.957 23.0754 121.927 22.882 121.845 22.709C121.832 22.6844 121.825 22.6572 121.825 22.6296C121.825 22.6019 121.832 22.5747 121.845 22.5501C121.845 22.4633 121.895 22.4269 122.004 22.3262C122.175 22.1749 122.303 21.9799 122.373 21.7619C122.411 21.6152 122.411 21.4608 122.373 21.314C122.338 21.1789 122.351 21.0363 122.409 20.9095C122.409 20.8158 122.409 20.8158 122.546 20.7862C122.763 20.7284 122.956 20.6017 123.096 20.4251C123.194 20.2975 123.311 20.1854 123.443 20.0927C123.582 19.9952 123.706 19.8783 123.812 19.7454C123.821 19.8458 123.824 19.9467 123.821 20.0475H123.819Z" fill="white"/>
<path d="M121.233 18.1815V18.047C121.162 17.6501 121.028 17.2671 120.836 16.9125C120.655 16.5435 120.626 16.4862 120.836 16.139C120.944 15.9871 121.841 14.6928 122.087 14.3968C122.352 14.0746 122.653 13.7834 122.983 13.5288C123.57 13.1079 124.028 12.5324 124.306 11.8664C124.393 11.6425 124.495 11.4324 124.58 11.2371C124.827 10.8083 124.97 10.3281 125 9.83433C124.981 9.60847 124.875 9.39899 124.703 9.25141C124.531 9.10383 124.307 9.03006 124.081 9.04613C123.769 9.06012 123.463 9.14155 123.185 9.28485C122.888 9.44756 122.569 9.56461 122.238 9.63207H122.172C122.145 9.55558 122.109 9.48271 122.064 9.41506C121.932 9.0568 121.713 8.73663 121.428 8.48276C121.296 8.37227 121.15 8.28 120.994 8.20846C120.835 8.12165 120.574 7.9845 120.553 7.89075C120.476 7.42944 120.246 7.00716 119.902 6.6911C119.776 6.59837 119.691 6.46154 119.663 6.30828C119.632 5.88116 119.435 5.4831 119.114 5.19978C119.056 5.14961 119.003 5.09378 118.955 5.03311C118.75 4.83398 118.597 4.58713 118.51 4.31453C118.423 4.04192 118.404 3.75202 118.456 3.47061C118.51 3.24078 118.506 3.00142 118.445 2.77341C118.385 2.54539 118.269 2.33564 118.109 2.16245C117.661 1.66332 117.119 1.61992 116.23 2.0904C116.134 2.14852 116.024 2.18082 115.912 2.18415C115.732 2.17545 115.554 2.13884 115.384 2.07565C115.013 1.92932 114.619 1.84855 114.22 1.83693C113.703 1.83068 113.203 2.02512 112.825 2.37947L112.688 2.48797C112.258 2.12548 111.769 1.8395 111.242 1.64249C110.931 1.52704 110.909 1.41158 110.866 1.14335C110.834 0.826531 110.681 0.534147 110.44 0.326515C110.252 0.180137 110.02 0.10343 109.782 0.109501C109.673 0.101831 109.565 0.101831 109.456 0.109501C109.256 0.152533 109.049 0.152533 108.849 0.109501C108.333 -0.0365002 107.788 -0.0365002 107.272 0.109501C106.998 0.175302 106.716 0.209378 106.434 0.211063C106.248 0.222289 106.063 0.222289 105.877 0.211063H105.393C105.094 0.211031 104.797 0.271183 104.521 0.387944C104.246 0.504705 103.996 0.675693 103.788 0.890751C103.481 1.18264 103.263 1.55597 103.159 1.96714C103.137 2.13288 103.068 2.28885 102.961 2.41688C102.853 2.54491 102.711 2.63971 102.552 2.69023C102.158 2.82145 101.797 3.03599 101.493 3.31924C101.19 3.60249 100.951 3.94782 100.792 4.33172C100.709 4.48797 100.607 4.63368 100.488 4.76575C100.246 5.02417 100.07 5.33714 99.9742 5.67817C99.8785 6.01921 99.8665 6.37826 99.939 6.72495C100.008 7.13432 99.9149 7.55459 99.6786 7.89596C99.5221 8.09943 99.425 8.34229 99.3982 8.59758C99.3714 8.85287 99.4159 9.11059 99.5267 9.34214C99.6239 9.56125 99.7584 9.76185 99.9242 9.93502L100.474 9.24839C100.411 9.17688 100.36 9.09641 100.322 9.00967C100.206 8.72756 100.257 8.64856 100.423 8.37339C100.756 7.86587 100.888 7.25233 100.792 6.6529C100.741 6.42195 100.747 6.18191 100.81 5.95384C100.873 5.72576 100.991 5.51661 101.153 5.34474C101.316 5.16012 101.454 4.956 101.566 4.7371C101.68 4.43951 101.861 4.17173 102.094 3.95389C102.327 3.73604 102.606 3.57378 102.91 3.47929C103.193 3.37552 103.444 3.19916 103.638 2.96789C103.831 2.73663 103.961 2.45857 104.013 2.16158C104.067 1.8868 104.204 1.63483 104.403 1.43849C104.531 1.29433 104.688 1.17909 104.864 1.1005C105.039 1.0219 105.23 0.98176 105.422 0.982764H105.835C106.044 1.00723 106.254 1.0194 106.464 1.01922C106.812 1.01748 107.159 0.976124 107.498 0.895959C107.872 0.790976 108.267 0.790976 108.64 0.895959C108.953 0.970434 109.277 0.98516 109.595 0.939362H109.805C109.85 0.925018 109.898 0.925018 109.942 0.939362C109.993 0.982764 110.008 1.04092 110.044 1.22842C110.066 1.49118 110.166 1.74139 110.331 1.94727C110.496 2.15315 110.718 2.3054 110.969 2.38467C111.404 2.56363 111.808 2.80744 112.169 3.10776C112.322 3.24018 112.516 3.31456 112.719 3.31783C112.977 3.30003 113.219 3.18678 113.398 3.00013C113.624 2.79717 113.919 2.68844 114.222 2.69631C114.516 2.70633 114.806 2.76258 115.082 2.86297C115.338 2.95512 115.606 3.00639 115.877 3.01488C116.13 3.01302 116.379 2.94829 116.6 2.82651C116.793 2.70596 117.011 2.62949 117.237 2.60256C117.295 2.60256 117.345 2.60256 117.439 2.71106C117.533 2.81957 117.641 2.94197 117.591 3.3621C117.529 3.76619 117.562 4.17913 117.688 4.56818C117.813 4.95723 118.028 5.31169 118.314 5.60342L118.531 5.82044C118.622 5.89719 118.695 5.99228 118.746 6.09942C118.797 6.20657 118.824 6.32332 118.827 6.44197C118.881 6.7757 119.05 7.08007 119.304 7.30221C119.529 7.50011 119.676 7.77208 119.717 8.0687C119.786 8.27822 119.902 8.46919 120.056 8.62702C120.21 8.78485 120.398 8.90534 120.606 8.97929C120.703 9.02203 120.795 9.0753 120.88 9.13815C121.063 9.30928 121.202 9.52264 121.284 9.75967C121.338 9.96085 121.455 10.1396 121.618 10.2697C121.78 10.3998 121.98 10.4744 122.188 10.4828H122.362C122.776 10.4027 123.175 10.2614 123.547 10.0635C124.047 9.83259 124.169 9.91158 124.14 9.92634C124.06 10.2573 123.941 10.5777 123.786 10.8812C123.699 11.0835 123.598 11.3074 123.504 11.5322C123.278 12.0665 122.907 12.5271 122.434 12.8621C122.071 13.1577 121.741 13.4921 121.45 13.8595C121.168 14.2067 120.243 15.5366 120.156 15.652C119.964 15.8814 119.852 16.1668 119.837 16.4653C119.821 16.7637 119.903 17.0593 120.069 17.3074C120.226 17.5829 120.334 17.8837 120.387 18.1963V18.3413C120.532 19.1581 120.64 19.7874 119.664 20.3439C119.23 20.5394 118.865 20.8599 118.615 21.2644C118.365 21.6688 118.242 22.1388 118.261 22.6138C118.261 22.9463 118.261 23.0696 118.124 23.1781L117.943 23.3517C117.436 23.841 116.971 24.373 116.554 24.942C116.33 25.2515 116.089 25.5483 115.831 25.8309C115.325 26.3517 115.008 26.4602 114.826 26.4602C114.778 26.4711 114.729 26.4711 114.681 26.4602C114.505 26.397 114.319 26.3652 114.132 26.3664C113.886 26.3745 113.642 26.4184 113.409 26.4967C113.295 26.5386 113.175 26.5654 113.054 26.5765C113.01 26.5888 112.962 26.5888 112.917 26.5765C112.737 26.4532 112.679 26.251 112.585 25.8534C112.456 25.211 112.189 24.6042 111.804 24.0748C111.745 23.9919 111.704 23.8976 111.684 23.798C111.664 23.6984 111.666 23.5957 111.688 23.4967C111.399 23.5563 111.107 23.5997 110.813 23.6269C110.799 23.9741 110.903 24.3158 111.109 24.5956C111.423 25.026 111.64 25.5194 111.745 26.0418C111.774 26.2874 111.854 26.5245 111.978 26.7383C112.102 26.9522 112.269 27.1382 112.468 27.2848C112.649 27.4096 112.864 27.4754 113.083 27.4732C113.29 27.4662 113.495 27.4272 113.691 27.3578C113.919 27.258 114.174 27.2402 114.414 27.3074C115.035 27.5314 115.722 27.3074 116.488 26.4975C116.774 26.1902 117.042 25.8667 117.291 25.5288C117.722 24.9365 118.206 24.3845 118.737 23.8795C118.891 23.7261 119.009 23.5399 119.082 23.3345C119.155 23.1292 119.18 22.9102 119.156 22.6937C119.156 22.1946 119.156 21.718 120.14 21.1468C120.638 20.8568 121.02 20.4021 121.22 19.8609C121.419 19.3197 121.424 18.7259 121.233 18.1815Z" fill="white"/>
<path d="M15.8238 7.54765C14.3586 6.55995 12.6058 6.08921 10.8429 6.20998H10.3516C9.68663 6.20998 8.75434 6.20998 7.54687 6.27508H6.82378C5.54427 6.27508 4.56684 6.27508 3.93229 6.20998L3.86719 6.65095C4.27916 6.61906 4.69193 6.70167 5.0599 6.88967C5.17217 6.97165 5.2612 7.08141 5.31827 7.20817C5.37533 7.33493 5.39847 7.47435 5.38542 7.61276C5.3684 7.93721 5.30856 8.25798 5.20747 8.56675L2.27604 19.5121C2.17418 19.9312 2.02173 20.3363 1.82205 20.7187C1.68464 20.96 1.4635 21.1425 1.20052 21.2317C0.832113 21.3436 0.450063 21.4044 0.0651042 21.4122L0 21.8463C0.780671 21.8029 1.88686 21.7812 3.31858 21.7812C3.96181 21.7812 4.71354 21.7812 5.56684 21.8246H6.93229C8.92505 21.8413 10.8846 21.3139 12.5998 20.2994C14.17 19.3633 15.451 18.0114 16.3012 16.3931C17.109 14.8746 17.5356 13.1825 17.5443 11.4626C17.5891 10.7198 17.4565 9.97696 17.1573 9.29558C16.8581 8.61421 16.401 8.01385 15.8238 7.54418V7.54765ZM13.0911 15.8541C12.5821 17.3795 11.7143 18.7605 10.5608 19.881C9.58981 20.8311 8.30094 21.3872 6.94358 21.4417H6.50955C6.26004 21.4567 6.01091 21.4068 5.78646 21.2968C5.70072 21.2381 5.63214 21.1576 5.58775 21.0636C5.54336 20.9697 5.52476 20.8656 5.53385 20.7621C5.58451 20.3507 5.669 19.9442 5.78646 19.5468L8.67448 8.50859C8.77155 8.08372 8.90455 7.66787 9.07205 7.26553C9.16347 7.0471 9.32342 6.86431 9.52778 6.7447C9.79497 6.63289 10.0841 6.58332 10.3733 6.59974C10.8769 6.55604 11.3838 6.62848 11.8549 6.81148C12.3261 6.99448 12.7491 7.28315 13.0911 7.65529C13.7305 8.56622 14.0345 9.67051 13.9514 10.7803C13.9555 12.5082 13.6645 14.2241 13.0911 15.8541Z" fill="white"/>
<path d="M29.6392 10.1135C28.5855 10.3308 27.5129 10.4445 26.437 10.4529L26.1115 11.5588C26.099 11.1655 25.9481 10.7892 25.6852 10.4963C25.5582 10.3721 25.4077 10.2743 25.2427 10.2086C25.0776 10.1429 24.9011 10.1106 24.7234 10.1135C23.521 10.1901 22.3923 10.7196 21.5646 11.5952C20.4479 12.639 19.5431 13.8884 18.8997 15.2749C18.2422 16.5676 17.8838 17.9916 17.851 19.4416C17.8075 20.1638 18.0315 20.8767 18.4804 21.4442C18.7153 21.6933 19.0025 21.8873 19.3212 22.0123C19.64 22.1373 19.9825 22.1903 20.3241 22.1673C21.0629 22.1715 21.7795 21.9155 22.3484 21.4442C23.0792 20.7949 23.6506 19.9861 24.0186 19.0805C23.8917 19.5032 23.8237 19.9413 23.8163 20.3826C23.7914 20.7758 23.901 21.1658 24.1271 21.4885C24.3211 21.7294 24.572 21.9183 24.8572 22.0381C25.1424 22.158 25.4529 22.2051 25.7608 22.1751C26.3732 22.1764 26.9713 21.9897 27.4743 21.6404C28.0635 21.2049 28.4927 20.5874 28.6957 19.8834L29.2521 18.2714H28.8328L28.4352 19.3339C28.0377 20.4902 27.5819 21.0761 27.062 21.0761C26.7877 21.0761 26.6427 20.9173 26.6427 20.5918C26.6512 20.3807 26.6877 20.1717 26.7512 19.9702L29.6392 10.1135ZM25.8797 12.3904L24.8962 15.8964L25.0047 15.3687C24.7574 16.4035 24.4136 17.4128 23.9778 18.3834C23.884 18.5935 23.7825 18.7958 23.6887 18.9763C23.4471 19.4591 23.1509 19.9126 22.8059 20.3279C22.6842 20.5084 22.5261 20.6615 22.3418 20.7773C22.1575 20.8932 21.951 20.9692 21.7356 21.0006C21.633 21.0032 21.5321 20.974 21.4467 20.9172C21.3613 20.8603 21.2954 20.7785 21.2582 20.6829C21.1435 20.3434 21.0944 19.9852 21.1132 19.6273C21.13 18.2894 21.357 16.9625 21.7859 15.6951C22.1618 14.483 22.7146 13.3332 23.4266 12.2827C24.0628 11.386 24.634 10.9312 25.1401 10.9312C25.25 10.9265 25.3593 10.9508 25.4569 11.0015C25.5545 11.0522 25.6371 11.1276 25.6965 11.2202C25.7645 11.3292 25.8136 11.449 25.8415 11.5744C25.8749 11.7337 25.8917 11.896 25.8918 12.0588C25.8933 12.1703 25.8837 12.2816 25.8632 12.3912L25.8797 12.3904Z" fill="white"/>
<path d="M37.592 5.13197C37.2477 4.87297 36.8224 4.74496 36.3924 4.77086C35.8161 4.75004 35.2516 4.93739 34.8021 5.29864C34.5894 5.47401 34.4192 5.69518 34.3041 5.9456C34.1889 6.19603 34.1319 6.46924 34.1372 6.74482C34.1122 6.93689 34.1332 7.13214 34.1986 7.31447C34.2639 7.4968 34.3717 7.66097 34.513 7.79343C34.8534 8.07403 35.2882 8.21379 35.7283 8.18405C36.3259 8.20152 36.9084 7.99536 37.362 7.60593C37.5735 7.42926 37.7429 7.20757 37.8578 6.95707C37.9727 6.70657 38.0302 6.43357 38.0261 6.15801C38.0386 5.96487 38.006 5.77145 37.9306 5.59317C37.8553 5.41489 37.7393 5.25666 37.592 5.1311V5.13197Z" fill="white"/>
<path d="M36.1443 13.2077C36.3046 12.7922 36.3879 12.351 36.39 11.9056C36.4105 11.4303 36.2445 10.9659 35.9273 10.6113C35.7325 10.4348 35.5039 10.2997 35.2553 10.2144C35.0066 10.129 34.7433 10.0951 34.4811 10.1148C33.7869 10.0891 33.1047 10.3004 32.5466 10.7141C31.9886 11.1278 31.588 11.7192 31.4108 12.3908L30.7962 14.0679H31.2155L31.6565 12.9473C31.8258 12.4662 32.0698 12.0148 32.3796 11.6096C32.4599 11.4895 32.567 11.3898 32.6925 11.3183C32.818 11.2467 32.9584 11.2053 33.1026 11.1973C33.37 11.1973 33.5002 11.3492 33.5002 11.6382C33.4429 11.8612 33.3605 12.077 33.2546 12.2815L31.0844 18.6435C30.8804 19.1799 30.768 19.7468 30.752 20.3205C30.752 21.5419 31.4169 22.1565 32.7615 22.1565C33.4448 22.1807 34.1154 21.9669 34.6586 21.5516C35.2018 21.1363 35.584 20.5453 35.7398 19.8796L36.3179 18.2676H35.8987L35.5011 19.3301C35.3411 19.824 35.0965 20.2864 34.778 20.6964C34.6995 20.8037 34.5987 20.8928 34.4826 20.9577C34.3665 21.0226 34.2378 21.0616 34.1053 21.0723C33.8092 21.0723 33.6643 20.9204 33.6643 20.6096C33.6757 20.3899 33.7196 20.1732 33.7945 19.9664L36.1443 13.2077Z" fill="white"/>
<path d="M42.412 19.8774L42.9684 18.2654H42.5422L42.1446 19.3279C41.7184 20.492 41.2765 21.0701 40.8217 21.0701C40.5109 21.0701 40.359 20.8895 40.359 20.5206C40.3607 20.3319 40.3899 20.1445 40.4458 19.9642L45.0873 4.28711C44.3144 4.58019 43.5158 4.80048 42.7019 4.9451C41.7973 5.10415 40.8808 5.18633 39.9623 5.19076L39.8104 5.65343C40.2066 5.62382 40.604 5.69333 40.9667 5.85569C41.0778 5.91859 41.1687 6.01183 41.2288 6.12451C41.2889 6.23718 41.3157 6.36463 41.3061 6.49197C41.2959 6.70285 41.2594 6.91164 41.1976 7.1135L37.7253 18.6803C37.5638 19.1806 37.4761 19.7017 37.4649 20.2272C37.4482 20.4899 37.4844 20.7532 37.5713 21.0016C37.6582 21.25 37.7941 21.4785 37.971 21.6734C38.1729 21.858 38.4105 21.9994 38.669 22.089C38.9275 22.1785 39.2016 22.2143 39.4745 22.1942C40.0931 22.1865 40.695 21.9926 41.2019 21.6378C41.7907 21.2027 42.2167 20.5829 42.412 19.8774Z" fill="white"/>
<path d="M52.8153 10.1134C52.6171 10.1045 52.4191 10.1366 52.2338 10.2075C52.0485 10.2784 51.8797 10.3868 51.7381 10.5257C51.5994 10.6706 51.4913 10.842 51.4205 11.0296C51.3496 11.2173 51.3174 11.4173 51.3257 11.6177C51.3129 12.2031 51.5075 12.7741 51.8752 13.2297C52.2599 13.7436 52.7539 14.1658 53.3214 14.4658C53.0712 15.4253 52.7221 16.3562 52.2797 17.2436C51.7951 18.2316 51.2347 19.1806 50.6035 20.0821L49.6348 12.5057C49.5921 11.8265 49.3395 11.1774 48.9117 10.6481C48.7186 10.4668 48.4911 10.3261 48.2427 10.2343C47.9943 10.1424 47.7301 10.1013 47.4655 10.1134C46.8882 10.1 46.323 10.2806 45.8605 10.6264C45.3275 11.0952 44.9408 11.7076 44.7467 12.3903L44.1903 14.0023H44.6139L45.0115 12.925C45.1436 12.4725 45.3204 12.0343 45.5393 11.6169C45.5834 11.5278 45.6486 11.451 45.7292 11.393C45.8099 11.3351 45.9035 11.2978 46.002 11.2844C46.0744 11.284 46.1455 11.3042 46.207 11.3426C46.2685 11.381 46.3178 11.4361 46.3492 11.5014C46.4635 11.7641 46.5412 12.0413 46.5801 12.3252L48.3006 22.8868C47.4543 23.7175 46.4775 24.4036 45.4091 24.9181C45.1741 24.4879 44.8353 24.1232 44.4236 23.8571C44.0119 23.5911 43.5402 23.4321 43.0514 23.3946C42.6488 23.3803 42.2557 23.52 41.9525 23.7853C41.8144 23.9068 41.7047 24.0572 41.631 24.2258C41.5574 24.3944 41.5216 24.5771 41.5263 24.761C41.5195 24.9336 41.5524 25.1054 41.6226 25.2633C41.6927 25.4212 41.7981 25.5609 41.9308 25.6715C42.2563 25.9047 42.6516 26.0201 43.0514 25.9988C43.5873 25.9797 44.1158 25.8684 44.6139 25.6698C45.6214 25.3176 46.5642 24.8023 47.4047 24.1446C48.3198 23.4444 49.154 22.6443 49.8917 21.7592C51.1244 20.2686 52.1572 18.6233 52.9638 16.8651C53.7243 15.3962 54.1626 13.7818 54.2493 12.1299C54.2754 10.7853 53.791 10.1134 52.8153 10.1134Z" fill="white"/>
<path d="M64.5929 6.10156H60.8707L55.1953 21.8246V21.9045H58.7014L59.6562 19.2083H66.0182L66.9575 21.8681H70.2899L64.6076 6.14497L64.5929 6.10156ZM60.7257 16.2005L62.8368 10.2439L64.9549 16.2005H60.7257Z" fill="white"/>
<path d="M75.4792 9.27413C75.4792 8.45729 75.862 8.05278 76.6571 8.05278C76.8161 8.04259 76.9756 8.04259 77.1345 8.05278H77.2066V5.26979L76.2161 5.21945C75.1536 5.16862 74.1141 5.5403 73.3246 6.2533C72.9454 6.66921 72.6549 7.15805 72.4709 7.68996C72.2869 8.22187 72.2132 8.78571 72.2543 9.34705V10.2151H70.5703V12.8028H72.2257V21.9043H75.4792V12.8028H77.2717V10.2151H75.4792V9.27413Z" fill="white"/>
<path d="M81.9991 11.5589V10.2142H78.9844V21.9035H82.2378V16.1205C82.1706 15.3074 82.4134 14.499 82.9175 13.8575C83.1909 13.6033 83.5135 13.4079 83.8655 13.2835C84.2174 13.1591 84.5912 13.1084 84.9635 13.1344C85.1677 13.1361 85.3713 13.1579 85.5712 13.1995H85.6432V10.1153H85.2092C84.5953 10.0659 83.9789 10.1726 83.4174 10.4254C82.8558 10.6783 82.3673 11.0691 81.9974 11.5615L81.9991 11.5589Z" fill="white"/>
<path d="M90.1331 4.93045C89.8657 4.91606 89.5984 4.95896 89.349 5.05627C89.0996 5.15358 88.8738 5.30306 88.6869 5.49469C88.5171 5.68333 88.3864 5.90372 88.3022 6.14314C88.218 6.38256 88.1821 6.63627 88.1964 6.88965C88.2095 7.27396 88.3329 7.64638 88.552 7.96242C88.7711 8.27846 89.0765 8.52474 89.4318 8.67185C89.787 8.81896 90.1772 8.86068 90.5555 8.79201C90.9339 8.72334 91.2844 8.54719 91.5654 8.28462C91.7474 8.10197 91.8901 7.88397 91.9846 7.64404C92.0791 7.40412 92.1234 7.14737 92.1148 6.88965C92.1229 6.63018 92.0778 6.37181 91.9821 6.13046C91.8865 5.88911 91.7425 5.6699 91.559 5.48633C91.3754 5.30277 91.1562 5.15875 90.9148 5.06315C90.6735 4.96754 90.4151 4.92238 90.1556 4.93045H90.1331Z" fill="white"/>
<path d="M87.1113 13.0273H88.5063V21.9041H91.7598V10.2148H87.1113V13.0273Z" fill="white"/>
<path d="M103.161 12.9342L103.985 11.9941L105.553 10.2155H101.461L101.374 10.324L100.709 11.1478L97.324 15.3622V5.2207H94.0723V21.9056H97.3257V19.2815L99.0098 17.3717L101.988 21.9047H105.841L101.164 15.2033L103.161 12.9342Z" fill="white"/>
<path d="M113.598 20.7553V21.9047H116.49V14.317C116.523 13.717 116.423 13.117 116.198 12.5598C115.973 12.0026 115.628 11.5018 115.188 11.093C114.09 10.2584 112.725 9.85226 111.349 9.95066C109.97 9.84888 108.601 10.2638 107.511 11.1147C107.402 11.2086 107.301 11.3102 107.207 11.4185C106.543 12.1257 106.143 13.0391 106.072 14.0062V14.0644H109.289V14.014C109.314 13.7697 109.401 13.5358 109.541 13.3343C109.751 13.0837 110.021 12.8901 110.325 12.7713C110.63 12.6525 110.959 12.6124 111.283 12.6547C112.635 12.6547 113.301 13.1677 113.301 14.231V14.6573H111.059C110.646 14.6464 110.233 14.6658 109.823 14.7154C109.534 14.7368 109.247 14.7753 108.963 14.8309C108.306 14.9443 107.678 15.1903 107.119 15.554C106.671 15.8832 106.316 16.3221 106.087 16.8285C105.858 17.3349 105.763 17.8917 105.811 18.4454C105.79 18.9404 105.868 19.4346 106.041 19.899C106.213 20.3633 106.477 20.7885 106.816 21.1494C107.238 21.5258 107.731 21.8127 108.267 21.993C108.802 22.1732 109.369 22.243 109.932 22.1981H110.394C110.711 22.1868 111.025 22.1482 111.335 22.0826C112.233 21.9542 113.045 21.4794 113.598 20.7597L113.598 20.7553ZM109.984 19.5626C109.698 19.5434 109.432 19.413 109.242 19.1994C109.052 18.9857 108.953 18.706 108.967 18.4203C108.939 18.206 108.983 17.9886 109.091 17.8018C109.2 17.6149 109.367 17.469 109.566 17.3864C109.778 17.3027 109.999 17.2467 110.224 17.2198C110.521 17.1713 110.821 17.1446 111.121 17.1399H113.291V17.2119C113.337 17.8687 113.125 18.5175 112.698 19.0192C112.19 19.4456 111.538 19.6628 110.875 19.6269H110.651C110.427 19.6283 110.204 19.6068 109.984 19.5626Z" fill="white"/>
</g>
<defs>
<clipPath id="clip0">
<rect width="125" height="27.4722" fill="white"/>
</clipPath>
</defs>
</svg>
