<svg width="110" height="28" viewBox="0 0 110 28" fill="none" xmlns="http://www.w3.org/2000/svg">
<g clip-path="url(#clip0)">
<path d="M0 27.2601C0.263203 25.6903 0.517006 24.2051 0.770808 22.7293C1.44762 18.7938 2.13069 14.8645 2.82003 10.9416C2.88583 10.575 3.00803 10.4434 3.37464 10.4434H26.7339C26.8636 10.4529 26.9923 10.4717 27.1193 10.4998C26.8091 12.2764 26.5177 14.0248 26.1793 15.7732C25.8409 17.5216 25.6059 19.4205 25.2393 21.2253C24.8751 22.9185 23.9466 24.4378 22.606 25.5342C21.2653 26.6307 19.592 27.2392 17.8602 27.2601H0Z" fill="white"/>
<path d="M3.28125 8.15882C3.49745 6.8428 3.70425 5.58319 3.92046 4.32357C4.13666 3.06396 4.37166 1.84195 4.55026 0.563532C4.62546 0.149927 4.78527 -0.000474449 5.24587 -0.000474449C11.0551 -0.000474449 16.9208 -0.000474449 22.6925 -0.000474449C23.4397 -0.0280144 24.1837 0.110476 24.8709 0.405024C25.5582 0.699573 26.1716 1.14285 26.6669 1.70294C27.1623 2.26303 27.5273 2.92599 27.7357 3.64408C27.944 4.36218 27.9906 5.11755 27.8719 5.85579C27.7873 6.6078 27.6463 7.35981 27.5241 8.14002L3.28125 8.15882Z" fill="white"/>
<path d="M31.5195 21.1601V7.86835C31.6655 7.84047 31.813 7.82164 31.9613 7.81195C33.9166 7.81195 35.8906 7.72735 37.827 7.91535C39.3325 8.01992 40.7425 8.69084 41.7732 9.79309C42.804 10.8953 43.379 12.3471 43.3825 13.8562C43.4289 14.9312 43.289 16.0062 42.9689 17.0335C42.6517 18.0803 42.0398 19.0138 41.2064 19.7222C40.3729 20.4307 39.3531 20.8841 38.2688 21.0285C37.8693 21.1067 37.4633 21.1476 37.0562 21.1507C35.1856 21.1695 33.3902 21.1601 31.5195 21.1601ZM34.0294 18.7349C34.9694 18.7349 35.7966 18.7349 36.652 18.7349C37.201 18.78 37.7533 18.7089 38.273 18.5262C38.7927 18.3435 39.268 18.0534 39.668 17.6746C40.068 17.2959 40.3837 16.8371 40.5945 16.3282C40.8053 15.8193 40.9065 15.2717 40.8914 14.721C41.0262 13.7054 40.7569 12.6775 40.1417 11.8584C39.5264 11.0392 38.6143 10.4942 37.6014 10.3406C36.4091 10.2557 35.2123 10.2557 34.02 10.3406L34.0294 18.7349Z" fill="white"/>
<path d="M77.082 7.85756C79.4603 7.85756 81.7821 7.70716 84.0945 7.90456C84.7059 7.94512 85.3023 8.11133 85.8465 8.39282C86.3907 8.6743 86.8711 9.065 87.2575 9.5405C87.6439 10.016 87.928 10.5661 88.0922 11.1564C88.2564 11.7467 88.2971 12.3645 88.2118 12.9712C88.1275 14.1497 87.5917 15.2502 86.7162 16.0434C85.8406 16.8367 84.6927 17.2615 83.5117 17.2295C82.2239 17.2295 80.9455 17.2295 79.6107 17.2295V21.1023H77.082V7.85756ZM79.5919 14.87C81.0489 14.87 82.4119 14.9546 83.7937 14.87C84.348 14.8131 84.8572 14.5387 85.2096 14.107C85.562 13.6753 85.7289 13.1215 85.6737 12.567C85.7098 11.9964 85.5185 11.4347 85.1415 11.0049C84.7645 10.575 84.2325 10.312 83.6621 10.2734C82.2991 10.1794 80.9267 10.2734 79.5261 10.2734L79.5919 14.87Z" fill="white"/>
<path d="M96.7368 11.7785H98.88V21.1128H96.7462L96.6428 20.1728C95.9489 20.6191 95.2081 20.9879 94.4337 21.2726C91.5291 22.0246 89.0945 20.1352 88.7937 16.9956C88.4177 13.3671 91.4163 10.6881 94.7627 11.7033C95.4178 11.9564 96.0473 12.2711 96.6428 12.6433L96.7368 11.7785ZM96.5676 16.4786C96.5707 16.1193 96.503 15.763 96.3683 15.43C96.2337 15.0969 96.0348 14.7936 95.783 14.5374C95.5312 14.2812 95.2313 14.0772 94.9007 13.9368C94.57 13.7965 94.2149 13.7227 93.8556 13.7196C93.4964 13.7165 93.1401 13.7842 92.807 13.9189C92.474 14.0535 92.1707 14.2524 91.9145 14.5042C91.6583 14.756 91.4542 15.0558 91.3139 15.3865C91.1736 15.7172 91.0998 16.0723 91.0967 16.4316C91.0936 16.7908 91.1613 17.1471 91.2959 17.4801C91.4306 17.8132 91.6295 18.1165 91.8813 18.3727C92.1331 18.6289 92.4329 18.8329 92.7636 18.9733C93.0943 19.1136 93.4494 19.1874 93.8086 19.1905C94.1679 19.1936 94.5242 19.1259 94.8572 18.9913C95.1903 18.8566 95.4936 18.6577 95.7498 18.4059C96.006 18.1541 96.21 17.8543 96.3504 17.5236C96.4907 17.1929 96.5645 16.8378 96.5676 16.4786Z" fill="white"/>
<path d="M54.6353 21.1228H52.5109L52.3699 20.023C50.1891 21.903 47.4536 21.856 45.7428 20.023C44.9297 19.0084 44.4922 17.7441 44.5041 16.444C44.5161 15.1438 44.977 13.8878 45.8086 12.8884C46.689 12.0361 47.8639 11.5557 49.0892 11.547C50.3145 11.5382 51.4962 12.0018 52.3887 12.8414L52.5391 11.7885H54.6823L54.6353 21.1228ZM46.8614 16.4228C46.8614 17.1483 47.1496 17.844 47.6626 18.357C48.1756 18.87 48.8714 19.1582 49.5968 19.1582C50.3223 19.1582 51.0181 18.87 51.5311 18.357C52.0441 17.844 52.3323 17.1483 52.3323 16.4228C52.3323 15.6973 52.0441 15.0015 51.5311 14.4885C51.0181 13.9756 50.3223 13.6874 49.5968 13.6874C48.8714 13.6874 48.1756 13.9756 47.6626 14.4885C47.1496 15.0015 46.8614 15.6973 46.8614 16.4228Z" fill="white"/>
<path d="M101.739 25.08C102.284 23.7922 102.811 22.6548 103.262 21.4798C103.374 21.1572 103.374 20.806 103.262 20.4834C102.2 17.8043 101.109 15.1441 100.028 12.4745C99.9435 12.2677 99.8683 12.0609 99.7461 11.7413C100.62 11.7413 101.419 11.7413 102.209 11.7413C102.359 11.7413 102.557 12.0515 102.632 12.2489C103.252 14.0067 103.863 15.7739 104.512 17.5317C104.587 17.7573 104.672 17.9923 104.803 18.3401L105.236 17.2591C105.922 15.5671 106.608 13.8845 107.276 12.1831C107.307 12.0308 107.396 11.8965 107.524 11.8074C107.651 11.7183 107.808 11.6812 107.962 11.7037C108.62 11.7037 109.268 11.7037 110.03 11.7037C109.936 11.9669 109.87 12.1737 109.785 12.3711C108.056 16.3943 106.317 20.4176 104.606 24.4596C104.555 24.6603 104.429 24.834 104.255 24.9457C104.08 25.0573 103.87 25.0986 103.666 25.0612C103.046 25.0518 102.463 25.08 101.739 25.08Z" fill="white"/>
<path d="M55.7227 13.9308V11.891H57.4241C57.3395 10.0674 57.7813 8.45994 59.6613 7.83954C60.2864 7.62564 60.9533 7.56353 61.6071 7.65833C62.2609 7.75313 62.8828 8.00213 63.4213 8.38474L62.6035 10.0674C61.8139 9.73836 61.0243 9.31535 60.2535 9.94516C59.6707 10.4152 59.6989 11.1202 59.7647 11.8722C60.5073 11.8722 61.2217 11.8722 61.9361 11.8722C62.3873 11.8722 62.5377 12.0226 62.5095 12.455C62.4813 12.8874 62.5095 13.348 62.5095 13.8932H59.7553V21.1313H57.4711V13.9308H55.7227Z" fill="white"/>
<path d="M66.5907 12.5673C68.1982 11.2513 70.2192 11.1855 71.5258 12.4733L70.5858 14.2687C69.9718 14.0849 69.3426 13.9559 68.7058 13.8833C68.4187 13.8527 68.1284 13.885 67.8551 13.9782C67.5819 14.0713 67.3323 14.223 67.1237 14.4226C66.9151 14.6223 66.7526 14.865 66.6476 15.1339C66.5426 15.4028 66.4975 15.6914 66.5156 15.9796C66.4686 17.4366 66.5156 18.903 66.5156 20.3694V21.1684C65.8011 21.1684 65.1713 21.1684 64.5509 21.1684C64.4667 21.1447 64.3902 21.0992 64.3291 21.0365C64.2681 20.9737 64.2246 20.8961 64.2031 20.8112C64.2031 17.8408 64.2031 14.8798 64.2031 11.7683C64.8287 11.7148 65.4576 11.7148 66.0831 11.7683C66.2429 11.8153 66.3839 12.2665 66.5907 12.5673Z" fill="white"/>
<path d="M74.7138 21.123H72.4766V11.7793H74.7138V21.123Z" fill="white"/>
<path d="M73.5951 10.5008C73.415 10.5125 73.2343 10.4867 73.0646 10.4251C72.8949 10.3636 72.7398 10.2675 72.6091 10.1429C72.4784 10.0184 72.3749 9.86812 72.3051 9.70158C72.2354 9.53505 72.2009 9.35587 72.2039 9.17535C72.1882 8.98621 72.2119 8.79587 72.2735 8.61635C72.3352 8.43684 72.4333 8.27206 72.5619 8.13241C72.6904 7.99277 72.8465 7.88131 73.0203 7.80506C73.1941 7.72882 73.3818 7.68945 73.5716 7.68945C73.7614 7.68945 73.9492 7.72882 74.123 7.80506C74.2968 7.88131 74.4529 7.99277 74.5814 8.13241C74.7099 8.27206 74.8081 8.43684 74.8697 8.61635C74.9313 8.79587 74.955 8.98621 74.9394 9.17535C74.9447 9.35246 74.9134 9.52877 74.8475 9.69324C74.7816 9.85772 74.6825 10.0068 74.5563 10.1312C74.4301 10.2556 74.2797 10.3527 74.1143 10.4163C73.9489 10.4798 73.7722 10.5086 73.5951 10.5008Z" fill="white"/>
</g>
<defs>
<clipPath id="clip0">
<rect width="110" height="27.2509" fill="white"/>
</clipPath>
</defs>
</svg>
