<svg width="100" height="70" viewBox="0 0 100 70" fill="none" xmlns="http://www.w3.org/2000/svg">
<g clip-path="url(#clip0)">
<path d="M15.1153 11.1678C15.4402 11.4431 15.7009 11.7862 15.879 12.173C16.0572 12.5597 16.1485 12.9808 16.1465 13.4066C16.1607 14.0593 15.9391 14.6952 15.5224 15.1977C15.1242 15.6412 14.5664 15.9088 13.9713 15.9419C13.3762 15.9749 12.7922 15.7707 12.3474 15.3741C12.137 15.183 11.9718 14.9475 11.8639 14.6846C11.7559 14.4218 11.7078 14.1382 11.7232 13.8544C11.7323 13.4037 11.8633 12.964 12.1022 12.5818C12.3411 12.1995 12.679 11.8891 13.0801 11.6834C12.9825 11.5466 12.8514 11.4373 12.6992 11.366C12.5471 11.2947 12.3792 11.2638 12.2117 11.2764C11.136 11.2952 10.1116 11.7392 9.36228 12.5111C8.48936 13.3529 7.80491 14.3704 7.35414 15.4962C6.90322 16.5526 6.6591 17.6857 6.63501 18.834V27.3415C6.5912 27.8187 6.66902 28.2992 6.86122 28.7381C7.05341 29.1771 7.3537 29.5602 7.73406 29.8517C8.70068 30.4069 9.81064 30.6619 10.9227 30.5844V31.4256H9.9593C7.24559 31.3442 5.48168 31.3035 4.73541 31.3035C3.98915 31.3035 2.4559 31.3035 0 31.4663V30.6251C0.840309 30.7032 1.68123 30.4822 2.37449 30.0009C2.63395 29.6882 2.82773 29.3263 2.94429 28.937C3.06085 28.5477 3.0978 28.1389 3.05292 27.735V15.1705C3.13232 14.2159 2.8938 13.2618 2.37449 12.4568C2.0637 12.1537 1.68946 11.9235 1.27882 11.7827C0.868171 11.6419 0.431378 11.5941 0 11.6427L0 10.8557C0.85934 10.9372 1.68702 10.9779 2.48304 10.9779C3.89786 11.0177 5.30963 10.8251 6.66214 10.408V15.4283C7.1482 14.0623 7.93673 12.8239 8.96879 11.8055C9.41883 11.3206 9.96195 10.9313 10.5657 10.6609C11.1695 10.3905 11.8216 10.2445 12.483 10.2316C13.4484 10.1924 14.3915 10.5279 15.1153 11.1678Z" fill="white"/>
<path d="M31.099 12.9449C32.7634 14.754 33.6001 17.4904 33.6091 21.1539C33.6182 24.8174 32.7815 27.5311 31.099 29.295C30.2546 30.1921 29.2282 30.8984 28.0885 31.3664C26.9488 31.8345 25.7223 32.0534 24.4911 32.0087C23.2597 32.0552 22.0326 31.837 20.8927 31.3689C19.7528 30.9008 18.7265 30.1935 17.8832 29.295C16.2098 27.4858 15.373 24.7721 15.373 21.1539C15.373 17.5356 16.2098 14.7993 17.8832 12.9449C18.7254 12.0449 19.7515 11.3368 20.8917 10.8685C22.0318 10.4003 23.2594 10.1829 24.4911 10.2312C25.7225 10.1847 26.9496 10.4029 28.0895 10.871C29.2294 11.3391 30.2557 12.0463 31.099 12.9449ZM20.6783 13.5691C19.605 15.9652 19.139 18.589 19.3215 21.2081C19.1373 23.8274 19.6034 26.4516 20.6783 28.8472C21.0125 29.5778 21.5495 30.1969 22.2254 30.631C22.9013 31.0651 23.6878 31.2959 24.4911 31.2959C25.2944 31.2959 26.0808 31.0651 26.7568 30.631C27.4327 30.1969 27.9697 29.5778 28.3039 28.8472C29.3788 26.4516 29.8449 23.8274 29.6607 21.2081C29.8432 18.589 29.3772 15.9652 28.3039 13.5691C27.9739 12.8339 27.4385 12.2098 26.762 11.7719C26.0855 11.334 25.2969 11.101 24.4911 11.101C23.6853 11.101 22.8966 11.334 22.2202 11.7719C21.5437 12.2098 21.0083 12.8339 20.6783 13.5691Z" fill="white"/>
<path d="M52.5509 10.8555V11.656C52.0301 11.7348 51.5516 11.9884 51.194 12.3751C50.6778 12.9948 50.2779 13.7027 50.0136 14.4647L43.4193 31.6831L42.0624 35.1703C41.701 36.2414 41.0867 37.2095 40.2714 37.9925C39.8595 38.3731 39.3612 38.6478 38.8195 38.7931C38.2731 38.9538 37.7066 39.036 37.137 39.0373C36.4262 39.066 35.7285 38.8398 35.1696 38.3996C34.9185 38.1816 34.7198 37.9098 34.5882 37.6044C34.4567 37.299 34.3957 36.9679 34.4098 36.6357C34.3962 36.3539 34.4383 36.0723 34.5338 35.8068C34.6292 35.5414 34.7762 35.2974 34.9661 35.0889C35.1729 34.8867 35.4199 34.7303 35.691 34.6298C35.9622 34.5292 36.2514 34.4869 36.54 34.5054C37.0738 34.4856 37.596 34.6645 38.0054 35.0074C38.1964 35.1768 38.3477 35.3862 38.4486 35.6208C38.5494 35.8553 38.5973 36.1091 38.5889 36.3643C38.5992 36.7373 38.5024 37.1056 38.3101 37.4254C38.1177 37.7452 37.8378 38.0032 37.5034 38.1689C37.5792 38.1868 37.6582 38.1868 37.7341 38.1689C39.2175 38.1689 40.3573 37.1241 41.1533 35.0346L42.5102 31.3846L35.2782 13.8948C34.9869 13.1876 34.5199 12.5664 33.9213 12.0902C33.5238 11.809 33.0513 11.6531 32.5645 11.6424V10.8555C33.8688 11.0283 35.1836 11.1099 36.4993 11.0997C37.829 11.0997 39.5658 11.0183 41.7096 10.8555V11.6967C41 11.6643 40.2898 11.7468 39.6065 11.941C39.3808 12.0326 39.1926 12.1976 39.072 12.4092C38.9514 12.6209 38.9055 12.8669 38.9417 13.1078C38.972 13.7896 39.138 14.4585 39.4301 15.0753L44.2469 27.0291L48.6974 15.4281C48.9491 14.8377 49.1004 14.2094 49.1452 13.5692C49.161 13.2988 49.1023 13.0294 48.9755 12.7901C48.8487 12.5508 48.6586 12.351 48.426 12.2123C47.7173 11.8391 46.9335 11.6304 46.133 11.6017V10.8555C47.4898 10.9369 48.6703 10.9776 49.498 10.9776C50.6829 10.9414 51.7006 10.9007 52.5509 10.8555Z" fill="white"/>
<path d="M53.0934 30.4875C52.6677 30.0115 52.3405 29.4559 52.1309 28.8527C51.9213 28.2494 51.8334 27.6107 51.8722 26.9732C51.8516 25.8893 52.2225 24.8342 52.917 24.0017C53.5672 23.2404 54.36 22.6135 55.2508 22.1564C56.4025 21.5985 57.5901 21.118 58.8057 20.7182C59.958 20.3704 61.0755 19.9161 62.1436 19.3613C62.4522 19.193 62.709 18.9435 62.8859 18.6397C63.0629 18.336 63.1534 17.9896 63.1477 17.6381V15.1008C63.2144 14.5285 63.162 13.9487 62.9939 13.3976C62.8258 12.8465 62.5455 12.3362 62.1707 11.8986C61.3984 11.2965 60.435 10.993 59.457 11.0438C58.7222 10.9611 57.9782 11.0477 57.282 11.297C56.5859 11.5463 55.956 11.9517 55.4408 12.4821C55.9725 12.6073 56.4489 12.9027 56.7976 13.3233C57.1697 13.7771 57.3628 14.3515 57.3403 14.938C57.3566 15.2331 57.3079 15.5282 57.1977 15.8025C57.0875 16.0768 56.9185 16.3236 56.7026 16.5255C56.247 16.9161 55.6605 17.1197 55.0608 17.0954C54.7439 17.1185 54.426 17.068 54.1318 16.948C53.8376 16.828 53.5751 16.6416 53.3648 16.4034C52.9905 15.9133 52.7942 15.3103 52.8085 14.6937C52.7848 14.1242 52.9467 13.5623 53.2698 13.0926C53.6445 12.5689 54.1029 12.1105 54.6266 11.7358C55.3779 11.2282 56.2077 10.8477 57.0825 10.6096C58.1356 10.3017 59.2283 10.1508 60.3254 10.1618C62.0677 10.0444 63.7881 10.6033 65.1287 11.7222C65.7916 12.313 66.2639 13.0876 66.4855 13.9475C66.734 15.0743 66.8479 16.2266 66.8247 17.3803V28.4929C66.7903 28.9877 66.8837 29.483 67.0961 29.9312C67.203 30.0841 67.3484 30.2061 67.5175 30.2847C67.6867 30.3633 67.8737 30.3958 68.0595 30.3789C68.375 30.3761 68.6858 30.3019 68.9686 30.1618C69.2898 29.9817 69.5941 29.7728 69.8777 29.5377L70.3119 30.2161C69.7607 30.6638 69.1597 31.0462 68.5208 31.3559C67.9332 31.6028 67.2988 31.7185 66.6619 31.6951C66.167 31.7561 65.6647 31.7021 65.1941 31.5374C64.7234 31.3726 64.2971 31.1016 63.9482 30.7453C63.3966 29.9875 63.1234 29.0625 63.1748 28.1266C62.5523 29.2958 61.6114 30.2649 60.4611 30.9217C59.3609 31.449 58.1532 31.7138 56.9333 31.6951C56.2446 31.7688 55.5481 31.6996 54.8874 31.4918C54.2267 31.284 53.6159 30.9421 53.0934 30.4875ZM63.1477 27.1361V19.2663C62.9029 19.6593 62.5558 19.9782 62.1436 20.189C61.5052 20.5444 60.8484 20.866 60.1762 21.1524C59.324 21.5031 58.4986 21.9158 57.7067 22.3871C57.0606 22.7883 56.5096 23.3254 56.092 23.961C55.6046 24.73 55.3632 25.6293 55.4 26.5391C55.3317 27.5237 55.6479 28.4964 56.282 29.2528C56.5839 29.5624 56.948 29.8047 57.3502 29.9638C57.7524 30.1228 58.1837 30.1949 58.6158 30.1754C59.5723 30.1141 60.4955 29.8005 61.2915 29.2667C62.0875 28.7328 62.7279 27.9977 63.1477 27.1361Z" fill="white"/>
<path d="M75.4414 27.7476C75.3966 28.1515 75.4335 28.5603 75.5501 28.9496C75.6666 29.3389 75.8604 29.7008 76.1199 30.0136C76.8131 30.4948 77.654 30.7159 78.4943 30.6377V31.479C76.0249 31.3704 74.4238 31.3161 73.6368 31.3161C72.8499 31.3161 71.2352 31.3161 68.7793 31.479V30.6377C69.6154 30.7162 70.4521 30.495 71.1402 30.0136C71.4048 29.7035 71.6028 29.3424 71.7218 28.9525C71.8409 28.5627 71.8784 28.1526 71.8322 27.7476V4.81682C71.9194 3.85968 71.6751 2.90164 71.1402 2.10312C70.8282 1.80913 70.4538 1.58935 70.0451 1.46014C69.6363 1.33092 69.2036 1.29562 68.7793 1.35685V0.434193C69.6025 0.515604 70.4301 0.556309 71.2623 0.556309C72.6763 0.598794 74.0878 0.410902 75.4414 0V27.7476Z" fill="white"/>
<path d="M6.66214 58.5348C6.61648 58.9387 6.65304 59.3477 6.76964 59.7372C6.88623 60.1266 7.08044 60.4884 7.34057 60.8008C8.03129 61.2875 8.87427 61.5091 9.71506 61.4249V62.2662C7.25916 62.1576 5.64451 62.1033 4.85753 62.1033C4.07056 62.1033 2.4559 62.1033 0 62.2662V61.4249C0.840795 61.5091 1.68377 61.2875 2.37449 60.8008C2.63462 60.4884 2.82883 60.1266 2.94542 59.7372C3.06202 59.3477 3.09858 58.9387 3.05292 58.5348V45.9704C3.1365 45.0154 2.89764 44.06 2.37449 43.2567C2.06538 42.9512 1.69136 42.7193 1.28025 42.5784C0.869136 42.4374 0.431531 42.391 0 42.4425L0 41.5877C0.85934 41.6691 1.68702 41.7098 2.48304 41.7098C3.89673 41.7467 5.30731 41.5589 6.66214 41.1535V58.5348ZM6.3772 32.3204C6.62102 32.5535 6.81507 32.8336 6.94765 33.1438C7.08023 33.4539 7.14858 33.7877 7.14858 34.125C7.14858 34.4624 7.08023 34.7962 6.94765 35.1063C6.81507 35.4165 6.62102 35.6966 6.3772 35.9297C6.14141 36.1655 5.85934 36.3499 5.54876 36.4713C5.23817 36.5928 4.9058 36.6486 4.57259 36.6352C4.23068 36.6537 3.88868 36.6005 3.56855 36.479C3.24843 36.3575 2.95724 36.1704 2.7137 35.9297C2.47329 35.6946 2.28226 35.4139 2.15184 35.104C2.02142 34.7941 1.95423 34.4613 1.95423 34.125C1.95423 33.7888 2.02142 33.456 2.15184 33.1461C2.28226 32.8362 2.47329 32.5555 2.7137 32.3204C2.94631 32.0768 3.22656 31.8836 3.53701 31.7529C3.84746 31.6222 4.18149 31.5567 4.51832 31.5606C4.86454 31.5465 5.20973 31.607 5.53048 31.7382C5.85122 31.8693 6.14 32.0678 6.3772 32.3204Z" fill="white"/>
<path d="M27.7064 41.5876V42.4017C27.1563 42.4477 26.6455 42.7056 26.2817 43.1208C25.7525 43.7337 25.347 44.4433 25.0877 45.2104L18.507 62.4153H17.8285L10.4337 44.6812C10.1875 44.0018 9.79358 43.3854 9.28038 42.8766C8.96011 42.6078 8.55856 42.4548 8.14062 42.4424V41.5876C9.49748 41.6961 10.7051 41.7504 11.6684 41.7504C13.4114 41.7882 15.1551 41.7338 16.8923 41.5876V42.4424C16.162 42.4103 15.4309 42.4834 14.7214 42.6595C14.26 42.8087 14.0429 43.1887 14.0429 43.7992C14.0979 44.4057 14.2443 45.0004 14.4771 45.5632L19.4161 57.7748L23.8123 46.133C24.054 45.5307 24.2005 44.8944 24.2465 44.247C24.2668 43.9776 24.2115 43.7079 24.0868 43.4681C23.9622 43.2284 23.7731 43.0283 23.5409 42.8902C22.8327 42.552 22.0596 42.3715 21.275 42.361V41.5469C22.677 41.6283 23.8032 41.669 24.6535 41.669C25.6719 41.7007 26.6912 41.6735 27.7064 41.5876Z" fill="white"/>
<path d="M45.2501 41.5877V42.4018C44.7 42.4478 44.1892 42.7057 43.8254 43.1209C43.2962 43.7338 42.8907 44.4434 42.6314 45.2105L36.0506 62.4154L34.6938 65.9025C34.342 66.9654 33.7474 67.9317 32.957 68.7247C32.5468 69.1004 32.0542 69.3746 31.5188 69.5253C30.9671 69.6818 30.3961 69.7594 29.8227 69.7559C29.1214 69.8127 28.423 69.6152 27.8553 69.1996C27.6034 68.9823 27.4041 68.7106 27.2725 68.405C27.1409 68.0995 27.0803 67.7681 27.0954 67.4357C27.0829 67.153 27.1268 66.8705 27.2247 66.6049C27.3225 66.3394 27.4723 66.0959 27.6653 65.8889C27.8695 65.6871 28.1141 65.5308 28.3831 65.4302C28.652 65.3297 28.9392 65.2871 29.2257 65.3055C29.7595 65.2856 30.2816 65.4645 30.6911 65.8075C30.8828 65.9763 31.0346 66.1856 31.1355 66.4202C31.2364 66.6549 31.2839 66.9091 31.2745 67.1643C31.2865 67.5377 31.1905 67.9066 30.9979 68.2267C30.8054 68.5468 30.5245 68.8046 30.189 68.969C30.2695 68.9866 30.3528 68.9866 30.4333 68.969C31.8987 68.969 33.0384 67.9242 33.839 65.8482L35.1958 62.1847L27.9774 44.6813C27.6825 43.9761 27.2161 43.3558 26.6205 42.8767C26.2207 42.6018 25.7488 42.4508 25.2637 42.4425V41.5877C26.5681 41.7598 27.8829 41.8415 29.1985 41.8319C30.5554 41.8319 32.2786 41.7505 34.4224 41.5877V42.4425C33.7091 42.4075 32.9948 42.4853 32.3057 42.6732C32.084 42.7691 31.9001 42.9353 31.7824 43.1463C31.6646 43.3572 31.6197 43.601 31.6544 43.8401C31.6775 44.5213 31.8391 45.1907 32.1293 45.8075L36.9462 57.7749L41.3966 46.1331C41.6347 45.5438 41.7811 44.9215 41.8308 44.2878C41.8437 44.0179 41.7837 43.7496 41.6572 43.5109C41.5307 43.2721 41.3423 43.0718 41.1117 42.931C40.4004 42.5712 39.6156 42.3808 38.8186 42.3747V41.5605C40.2478 41.642 41.374 41.6827 42.1972 41.6827C43.2158 41.7063 44.2349 41.6746 45.2501 41.5877Z" fill="white"/>
<path d="M46.6219 62.0626C46.9712 62.1243 47.3256 62.1516 47.6802 62.1441C48.2296 62.1812 48.7806 62.099 49.2952 61.903C49.8098 61.707 50.2758 61.4019 50.6613 61.0087C51.0468 60.6155 51.3426 60.1434 51.5283 59.6251C51.714 59.1067 51.7853 58.5542 51.7372 58.0057C51.7345 57.1469 51.5735 56.2959 51.2623 55.4955C50.8347 54.5041 50.2928 53.5661 49.6477 52.7004C48.9138 51.7419 48.2517 50.7305 47.6667 49.6746C47.2307 48.8088 47.0163 47.8484 47.0425 46.8795C47.029 45.8369 47.3215 44.8132 47.8838 43.9351C48.4561 43.0602 49.259 42.3606 50.204 41.9134C51.1691 41.4336 52.2334 41.1873 53.3112 41.1943C54.5265 41.1493 55.7327 41.4205 56.8119 41.9812C57.273 42.2574 57.6456 42.6595 57.886 43.1402C58.1263 43.621 58.2244 44.1604 58.1687 44.6949C58.1533 45.183 57.9926 45.6554 57.7074 46.0518C57.5045 46.343 57.2127 46.5605 56.8757 46.6718C56.5387 46.783 56.1748 46.782 55.8384 46.6689C55.5021 46.5557 55.2115 46.3366 55.0102 46.0443C54.809 45.752 54.708 45.4023 54.7223 45.0477C54.7754 44.0408 55.173 43.0827 55.8485 42.334C55.239 41.984 54.5425 41.8146 53.8404 41.8455C53.3727 41.8295 52.907 41.9131 52.4743 42.0909C52.0415 42.2687 51.6515 42.5366 51.3302 42.8768C50.9903 43.2525 50.7279 43.6916 50.5579 44.1689C50.388 44.6462 50.3138 45.1523 50.3397 45.6583C50.3139 46.288 50.4347 46.915 50.6925 47.4901C51.0996 48.2453 51.5527 48.9749 52.0493 49.6746L52.7684 50.7194C53.4444 51.7312 54.0431 52.7926 54.5595 53.8944C54.9389 54.7491 55.1376 55.673 55.1429 56.6081C55.1534 57.7634 54.823 58.8961 54.1931 59.8645C53.5707 60.8261 52.6983 61.6 51.6694 62.1033C50.607 62.6462 49.4296 62.9254 48.2366 62.9175C46.8841 62.9592 45.5477 62.6157 44.3831 61.927C43.8762 61.6173 43.4623 61.1765 43.1853 60.651C42.9082 60.1256 42.7783 59.5351 42.8091 58.9419C42.8098 58.4974 42.942 58.0631 43.1891 57.6936C43.3507 57.506 43.5537 57.3584 43.782 57.2624C44.0104 57.1665 44.2578 57.1247 44.505 57.1405C44.7522 57.1563 44.9923 57.2291 45.2066 57.3533C45.4209 57.4776 45.6034 57.6497 45.7399 57.8564C46.0451 58.4211 46.1817 59.0616 46.1334 59.7017C46.1021 60.4054 46.0067 61.1048 45.8485 61.7913C46.0911 61.9204 46.3518 62.0119 46.6219 62.0626Z" fill="white"/>
<path d="M75.8476 42.6181C76.6665 43.8713 77.0525 45.3582 76.9466 46.8515C76.9003 49.2669 76.4129 51.6534 75.5083 53.8936C74.6357 56.3081 73.2465 58.503 71.4378 60.325C70.6219 61.1717 69.641 61.8421 68.5558 62.2949C67.4706 62.7476 66.3042 62.9731 65.1284 62.9573C64.424 62.9569 63.7368 62.7389 63.161 62.3332C62.5696 61.9085 62.1241 61.3114 61.8856 60.6235L60.3523 65.9288C60.2445 66.2386 60.1895 66.5642 60.1895 66.8922C60.1715 67.1987 60.246 67.5035 60.4032 67.7672C60.5605 68.0309 60.7933 68.2413 61.0714 68.3712C61.8727 68.7094 62.7401 68.8625 63.6088 68.8189L63.3645 69.6602H62.5233C60.1895 69.5788 58.6834 69.5381 57.9914 69.5381C57.2994 69.5381 55.7797 69.5381 53.5273 69.7009L53.7716 68.8596C54.5077 68.9223 55.2436 68.736 55.8611 68.3305C56.431 67.7904 56.8237 67.0902 56.9873 66.3223L64.4907 39.5516C63.7508 41.2386 62.8076 42.8288 61.682 44.287C60.46 45.8085 59.1314 47.2413 57.7064 48.5747L57.2587 48.0591C58.5206 46.8243 59.5789 45.7253 60.4201 44.7619C61.3599 43.6645 62.2042 42.4888 62.9439 41.2477C63.9122 39.6245 64.7516 37.9277 65.4541 36.1731L65.6169 35.6168C66.8312 35.5893 68.0361 35.3976 69.199 35.0469L65.1284 49.6602C66.0134 47.3133 67.2836 45.1304 68.8869 43.2016C69.3683 42.6063 69.9702 42.1197 70.6531 41.7736C71.3359 41.4275 72.0842 41.2298 72.8489 41.1934C73.4256 41.178 73.9978 41.299 74.5189 41.5466C75.04 41.7942 75.4952 42.1613 75.8476 42.6181ZM69.199 59.3617C70.5768 57.3957 71.6262 55.219 72.3062 52.9166C73.0522 50.6884 73.4548 48.3596 73.5002 46.0102C73.5487 45.1182 73.3762 44.228 72.9982 43.4187C72.8768 43.1597 72.6854 42.9399 72.4456 42.7841C72.2058 42.6282 71.9272 42.5425 71.6413 42.5367C70.8815 42.5367 70.0131 43.1337 69.009 44.3549C67.8145 45.875 66.7992 47.5277 65.9832 49.2803C64.9129 51.4718 64.0058 53.7394 63.2695 56.0645L62.2248 59.7144C62.4536 60.4272 62.8708 61.0648 63.4324 61.5598C63.9243 61.9419 64.5328 62.1431 65.1556 62.1296C65.9934 61.9992 66.7914 61.683 67.491 61.204C68.1907 60.725 68.7743 60.0955 69.199 59.3617Z" fill="white"/>
<path d="M94.3288 55.8474H95.1022L94.0981 58.7782C93.7169 60.0071 93.0087 61.1093 92.0493 61.9668C91.3316 62.5873 90.4198 62.9376 89.4713 62.9573C89.0024 62.9755 88.5363 62.8776 88.1144 62.6723C87.7578 62.5023 87.4533 62.24 87.2324 61.9125C86.9933 61.5002 86.8669 61.0322 86.8661 60.5556C86.8775 59.9172 86.9734 59.283 87.151 58.6696C87.341 57.9776 87.4495 57.5299 87.5038 57.3128L88.2365 54.4227C87.3275 56.8138 85.9996 59.0238 84.3152 60.9491C83.7994 61.5546 83.1647 62.0477 82.4505 62.3978C81.7363 62.7479 80.9578 62.9476 80.1632 62.9844C79.6189 63.0113 79.0766 62.9012 78.5859 62.6641C78.0952 62.4271 77.6718 62.0707 77.3546 61.6276C76.6619 60.586 76.324 59.3487 76.3912 58.0997C76.4673 55.5838 77.0535 53.1096 78.1144 50.827C79.1774 48.3064 80.7004 46.0058 82.6056 44.0427C83.3073 43.2203 84.1676 42.5477 85.1351 42.0651C86.1026 41.5825 87.1574 41.2999 88.2365 41.2341C88.5717 41.2269 88.9042 41.2951 89.2095 41.4337C89.5148 41.5722 89.7851 41.7776 90.0004 42.0346C90.5232 42.6611 90.8406 43.4332 90.9095 44.2463L91.5472 41.7497C92.8016 41.735 94.0481 41.5478 95.2514 41.1934L90.2311 58.941L90.0683 59.5651C89.9906 59.8436 89.9495 60.1309 89.9461 60.42C89.9461 61.0984 90.2447 61.424 90.8281 61.424C92.0086 61.424 93.0398 60.0672 93.9217 57.3535L94.3288 55.8474ZM84.0574 59.9179C85.2663 58.5178 86.2964 56.9727 87.1239 55.3182C88.1294 53.3711 88.9428 51.3307 89.5527 49.2259L90.2854 46.3765V45.481C90.3273 44.5847 90.1257 43.6938 89.7019 42.903C89.5432 42.611 89.3076 42.3681 89.0205 42.2006C88.7334 42.0332 88.406 41.9476 88.0737 41.9532C86.9204 41.9532 85.6992 42.8487 84.4238 44.6669C83.0147 46.683 81.9212 48.902 81.1809 51.2476C80.3348 53.6144 79.8766 56.1024 79.824 58.6153C79.7743 59.424 79.8993 60.2338 80.1904 60.9898C80.2737 61.1997 80.4175 61.3801 80.6035 61.5082C80.7895 61.6362 81.0094 61.7061 81.2352 61.709C81.8133 61.6329 82.3691 61.4366 82.8668 61.1328C83.3646 60.829 83.7932 60.4244 84.1253 59.9451L84.0574 59.9179Z" fill="white"/>
<path d="M97.7741 62.1438C99.003 62.1438 99.9993 61.1476 99.9993 59.9186C99.9993 58.6896 99.003 57.6934 97.7741 57.6934C96.5451 57.6934 95.5488 58.6896 95.5488 59.9186C95.5488 61.1476 96.5451 62.1438 97.7741 62.1438Z" fill="white"/>
</g>
<defs>
<clipPath id="clip0">
<rect width="100" height="69.7653" fill="white"/>
</clipPath>
</defs>
</svg>
