<svg width="140" height="16" viewBox="0 0 140 16" fill="none" xmlns="http://www.w3.org/2000/svg">
<g clip-path="url(#clip0)">
<path d="M19.1055 4.13103H22.587C23.8509 4.06913 25.0918 4.48541 26.0626 5.29701C26.5001 5.69458 26.8444 6.18375 27.0711 6.72966C27.2978 7.27557 27.4013 7.86476 27.3742 8.45525C27.3949 9.07655 27.2801 9.69491 27.0378 10.2674C26.7954 10.8398 26.4313 11.3527 25.9708 11.7702C24.9941 12.6402 23.7191 13.0993 22.4119 13.0516H19.1055V4.13103ZM22.587 11.2344C22.9153 11.2508 23.2434 11.1998 23.5512 11.0845C23.859 10.9693 24.1399 10.7922 24.3766 10.5642C24.6076 10.3122 24.7856 10.0164 24.9003 9.6944C25.0149 9.37238 25.0639 9.03063 25.0442 8.68937C25.067 8.32215 25.0157 7.9541 24.8933 7.60711C24.771 7.26012 24.5801 6.94128 24.332 6.66956C24.0786 6.42454 23.7777 6.2341 23.4477 6.11003C23.1178 5.98595 22.7659 5.93088 22.4139 5.9482H21.3292V11.2351L22.587 11.2344Z" fill="white"/>
<path d="M34.9808 6.31249V13.0506H32.9197V12.2099C32.6749 12.5463 32.3521 12.8183 31.979 13.0025C31.606 13.1868 31.1938 13.2778 30.7779 13.2677C30.385 13.2736 29.9954 13.1963 29.6345 13.0409C29.2736 12.8855 28.9497 12.6555 28.684 12.366C28.3961 12.0592 28.1717 11.6984 28.0238 11.3045C27.8759 10.9106 27.8074 10.4913 27.8223 10.0708C27.8103 9.56869 27.9043 9.06971 28.0982 8.60642C28.2922 8.14313 28.5816 7.72594 28.9476 7.38207C29.3051 7.03064 29.729 6.75391 30.1946 6.56802C30.6601 6.38213 31.158 6.29081 31.6593 6.29938C32.3117 6.30919 32.9578 6.42821 33.5709 6.65153L34.9808 6.31249ZM32.839 10.9764V8.25164C32.4926 8.03803 32.0938 7.92454 31.6868 7.92375C31.4705 7.91706 31.2551 7.95429 31.0535 8.03319C30.852 8.11209 30.6686 8.23101 30.5143 8.38279C30.3485 8.5654 30.2216 8.77975 30.1411 9.01286C30.0606 9.24596 30.0283 9.49298 30.0461 9.73895C30.0207 10.2127 30.1674 10.6797 30.4592 11.0538C30.5964 11.2149 30.7685 11.3426 30.9625 11.4272C31.1565 11.5117 31.3672 11.5509 31.5786 11.5417C31.8179 11.5507 32.0561 11.5043 32.2746 11.4063C32.493 11.3082 32.686 11.1611 32.8384 10.9764H32.839Z" fill="white"/>
<path d="M38.6398 5.31711C38.4392 5.57259 38.3425 5.89441 38.369 6.21815V6.54604H40.6603V8.19993H38.3683V13.0527H36.2266V6.30013C36.2266 4.33847 37.2207 3.35764 39.2091 3.35764C39.895 3.35196 40.5773 3.45737 41.2295 3.66979V5.35056C40.6845 5.13903 40.1058 5.02794 39.5212 5.02267C39.3619 5.00823 39.2014 5.02694 39.0497 5.07761C38.898 5.12829 38.7585 5.20984 38.6398 5.31711Z" fill="white"/>
<path d="M46.1089 6.42136V8.4956C45.7993 8.38817 45.4739 8.3332 45.1462 8.33296C44.7646 8.31515 44.3859 8.40634 44.0542 8.59586C43.7225 8.78538 43.4517 9.06541 43.2733 9.40319V13.0506H41.1328V6.74728L43.1933 6.3125V7.82079C43.4251 7.38547 43.7546 7.00973 44.156 6.72302C44.4991 6.47258 44.9116 6.33507 45.3364 6.32955C45.5967 6.32699 45.8564 6.35784 46.1089 6.42136Z" fill="white"/>
<path d="M46.8058 5.41234C46.6883 5.3054 46.5953 5.17433 46.5331 5.02809C46.471 4.88185 46.4412 4.7239 46.4458 4.56507C46.4428 4.40647 46.4734 4.24903 46.5354 4.10304C46.5975 3.95704 46.6896 3.82577 46.8058 3.7178C46.9232 3.60375 47.0623 3.51436 47.2147 3.45489C47.3672 3.39543 47.5301 3.36709 47.6937 3.37155C47.8582 3.36765 48.0218 3.39622 48.1751 3.45564C48.3285 3.51505 48.4687 3.60414 48.5876 3.7178C48.7055 3.82471 48.7992 3.95565 48.8623 4.10179C48.9254 4.24794 48.9565 4.40591 48.9535 4.56507C48.958 4.72445 48.9277 4.88289 48.8644 5.02927C48.8012 5.17564 48.7067 5.3064 48.5876 5.41234C48.3434 5.63392 48.0233 5.75299 47.6937 5.74482C47.3657 5.75413 47.047 5.63481 46.8058 5.41234ZM46.636 6.74882L48.7777 6.31404V13.0522H46.636V6.74882Z" fill="white"/>
<path d="M49.332 5.94737V4.13086H57.5345V5.94737H54.552V13.0514H52.3276V5.94737H49.332Z" fill="white"/>
<path d="M64.744 12.1296C63.83 12.9191 62.657 13.3438 61.4494 13.3225C60.4434 13.3675 59.4563 13.0394 58.6774 12.4011C58.3278 12.0979 58.0508 11.7199 57.867 11.2951C57.6832 10.8703 57.5973 10.4096 57.6157 9.94718C57.6038 9.45665 57.6961 8.96916 57.8866 8.51697C58.077 8.06478 58.3614 7.65817 58.7207 7.32405C59.0865 6.97682 59.5174 6.70536 59.9885 6.52529C60.4596 6.34522 60.9617 6.26009 61.4658 6.27481C62.3167 6.23668 63.1495 6.52792 63.7912 7.08797C64.0843 7.35752 64.3154 7.6874 64.4687 8.05489C64.622 8.42238 64.6938 8.81873 64.6791 9.21664C64.6866 9.61153 64.6127 10.0037 64.4621 10.3688H59.7798C60.0421 11.2362 60.7517 11.6701 61.9085 11.6706C62.6497 11.6569 63.374 11.4462 64.007 11.06L64.744 12.1296ZM60.4257 8.05591C60.11 8.26577 59.8779 8.57977 59.77 8.94318H62.8069C62.7769 8.6125 62.6274 8.30408 62.3865 8.07558C62.1287 7.84938 61.7933 7.73185 61.4507 7.74769C61.086 7.74656 60.7291 7.85408 60.4257 8.05656V8.05591Z" fill="white"/>
<path d="M66.0587 12.387C65.7312 12.0758 65.4735 11.6986 65.3028 11.2803C65.1321 10.862 65.0522 10.4122 65.0685 9.96064C65.0528 9.46621 65.1426 8.97411 65.3319 8.51707C65.5212 8.06003 65.8056 7.64855 66.1663 7.30998C66.8884 6.62216 67.854 6.24904 68.851 6.27253C69.6422 6.27139 70.4226 6.45698 71.1286 6.8142V8.65695C70.5588 8.21443 69.8571 7.97568 69.1356 7.97887C68.638 7.95623 68.1512 8.12924 67.7795 8.46087C67.6082 8.6232 67.4735 8.82029 67.3846 9.03892C67.2957 9.25755 67.2546 9.49267 67.264 9.72849C67.2511 9.96893 67.2878 10.2095 67.3718 10.4351C67.4559 10.6608 67.5855 10.8667 67.7526 11.0401C67.9305 11.2052 68.1398 11.3328 68.3681 11.4154C68.5963 11.498 68.8388 11.5338 69.0812 11.5207C69.737 11.5077 70.3741 11.3 70.9115 10.924L71.6984 12.1162C71.2945 12.4976 70.8203 12.7969 70.3023 12.9976C69.7773 13.2124 69.2157 13.3238 68.6484 13.3255C67.6951 13.3668 66.7642 13.0295 66.0587 12.387Z" fill="white"/>
<path d="M78.4194 7.05251C78.9135 7.62905 79.1619 8.37633 79.1113 9.13395V13.0522H76.9695V9.79826C76.9695 8.67731 76.5808 8.11706 75.8035 8.11749C75.5115 8.12535 75.2255 8.20187 74.9685 8.34087C74.7116 8.47987 74.4911 8.67743 74.3247 8.91755V13.0529H72.1836V3.91394L74.3247 3.48047V7.31744C74.6178 6.99575 74.9765 6.74084 75.3767 6.56999C75.7769 6.39913 76.2092 6.31633 76.6442 6.32721C76.9745 6.31619 77.3034 6.37512 77.6093 6.50011C77.9153 6.62511 78.1913 6.81335 78.4194 7.05251Z" fill="white"/>
<path d="M86.4577 7.05156C86.9514 7.62835 87.1995 8.37552 87.1489 9.13301V13.0513H85.0052V9.79666C85.0052 8.67571 84.6165 8.11546 83.8392 8.1159C83.5525 8.12536 83.2717 8.19988 83.018 8.33382C82.7643 8.46777 82.5444 8.65763 82.3748 8.88906V13.0506H80.2344V6.74728L82.2942 6.3125V7.39716C82.5849 7.05332 82.9518 6.78207 83.3657 6.60498C83.7798 6.42162 84.2277 6.3267 84.6806 6.32627C85.0112 6.31518 85.3404 6.37406 85.6466 6.49905C85.9529 6.62404 86.2293 6.81232 86.4577 7.05156Z" fill="white"/>
<path d="M88.8915 12.3459C88.5443 12.0424 88.2679 11.6666 88.0817 11.2448C87.8954 10.823 87.8038 10.3655 87.8134 9.90447C87.8023 9.41721 87.8961 8.93326 88.0885 8.48543C88.2808 8.0376 88.5672 7.63636 88.9282 7.30889C89.6829 6.61192 90.6812 6.23934 91.7081 6.27145C92.6975 6.24071 93.6607 6.59309 94.3968 7.25512C94.7435 7.56023 95.0195 7.93725 95.2057 8.35991C95.3919 8.78257 95.4838 9.24073 95.4749 9.70249C95.4848 10.1878 95.3904 10.6695 95.198 11.1151C95.0057 11.5608 94.7199 11.9599 94.36 12.2856C93.605 12.982 92.6068 13.3541 91.5802 13.3217C90.5921 13.3526 89.6298 13.0034 88.8915 12.3459ZM92.8576 11.2272C93.1543 10.8475 93.3036 10.3732 93.278 9.89201C93.3072 9.36113 93.146 8.83724 92.8235 8.41454C92.672 8.23513 92.4812 8.09293 92.266 7.9989C92.0507 7.90487 91.8168 7.86153 91.5822 7.87221C91.3651 7.86188 91.1486 7.9011 90.9489 7.98688C90.7493 8.07266 90.5718 8.20276 90.4299 8.36732C90.1318 8.75136 89.9825 9.23019 90.0096 9.71561C89.981 10.2426 90.1422 10.7623 90.464 11.1806C90.6155 11.3598 90.806 11.5019 91.021 11.5958C91.236 11.6897 91.4697 11.733 91.7041 11.7223C91.9214 11.7326 92.1381 11.6934 92.3379 11.6076C92.5378 11.5219 92.7155 11.3918 92.8576 11.2272Z" fill="white"/>
<path d="M96.2305 3.91394L98.3723 3.48047V13.0549H96.2305V3.91394Z" fill="white"/>
<path d="M100.211 12.3459C99.8642 12.0423 99.588 11.6664 99.4019 11.2446C99.2157 10.8228 99.1242 10.3654 99.1337 9.90448C99.1226 9.41721 99.2165 8.93327 99.4088 8.48544C99.6011 8.03761 99.8875 7.63636 100.249 7.3089C101.003 6.6119 102.001 6.23931 103.028 6.27145C104.017 6.24092 104.98 6.59327 105.716 7.25512C106.063 7.56038 106.339 7.93744 106.525 8.36008C106.711 8.78271 106.803 9.2408 106.794 9.7025C106.804 10.1878 106.709 10.6695 106.517 11.1152C106.325 11.5608 106.039 11.9599 105.679 12.2856C104.924 12.982 103.926 13.3541 102.899 13.3217C101.911 13.3524 100.949 13.0032 100.211 12.3459ZM104.177 11.2272C104.474 10.8475 104.623 10.3732 104.598 9.89201C104.627 9.36113 104.466 8.83725 104.143 8.41454C103.992 8.23431 103.801 8.0914 103.585 7.99689C103.37 7.90238 103.135 7.85882 102.9 7.86959C102.683 7.85926 102.466 7.89848 102.267 7.98426C102.067 8.07005 101.89 8.20015 101.748 8.3647C101.45 8.74874 101.3 9.22758 101.327 9.71299C101.3 10.241 101.462 10.7614 101.785 11.18C101.936 11.3592 102.127 11.5012 102.342 11.5952C102.557 11.6891 102.791 11.7323 103.025 11.7216C103.242 11.7316 103.458 11.6924 103.657 11.6067C103.857 11.5211 104.034 11.3913 104.176 11.2272H104.177Z" fill="white"/>
<path d="M115.483 8.34752L113.897 8.23866C114.148 8.59554 114.281 9.0225 114.276 9.45907C114.277 9.84167 114.188 10.2191 114.016 10.5608C113.844 10.9026 113.594 11.1991 113.286 11.4264C112.57 11.9788 111.682 12.262 110.778 12.2265C110.668 12.2282 110.559 12.2236 110.45 12.2127L109.393 13.8941C110.3 13.2471 111.383 12.8922 112.497 12.877C114.159 12.877 115.058 13.7951 115.196 15.6313L112.958 15.9028C112.952 15.7211 112.909 15.5425 112.834 15.3773C112.758 15.212 112.65 15.0634 112.517 14.9401C112.244 14.755 111.918 14.6644 111.588 14.6824C110.476 14.7072 109.392 15.0405 108.457 15.6451L107.155 14.8142L108.497 11.6277C108.082 11.4072 107.736 11.0767 107.497 10.6725C107.258 10.2683 107.135 9.80607 107.141 9.33644C107.14 8.92741 107.232 8.52345 107.409 8.15483C107.586 7.7862 107.844 7.46244 108.165 7.20778C108.879 6.6086 109.79 6.2947 110.722 6.32641C111.183 6.32476 111.641 6.3983 112.078 6.54413H115.481L115.483 8.34752ZM111.795 10.3463C111.935 10.2197 112.046 10.0634 112.119 9.88872C112.192 9.71408 112.225 9.52545 112.216 9.33644C112.224 9.13615 112.188 8.93655 112.111 8.75158C112.033 8.56662 111.917 8.40075 111.769 8.26555C111.473 7.99526 111.085 7.84939 110.684 7.85831C110.299 7.84821 109.924 7.98381 109.635 8.23801C109.493 8.36567 109.381 8.52302 109.308 8.69884C109.234 8.87467 109.2 9.06462 109.208 9.25513C109.201 9.45432 109.239 9.65247 109.319 9.83528C109.398 10.0181 109.517 10.181 109.667 10.3122C109.969 10.5816 110.361 10.727 110.766 10.7195C111.143 10.7291 111.51 10.5958 111.793 10.3463H111.795Z" fill="white"/>
<path d="M116.067 5.41231C115.949 5.30534 115.857 5.17424 115.794 5.028C115.732 4.88175 115.703 4.72383 115.708 4.56504C115.704 4.40648 115.735 4.24906 115.797 4.10307C115.859 3.95707 115.951 3.82578 116.067 3.71777C116.184 3.60384 116.323 3.51453 116.476 3.45507C116.628 3.39561 116.791 3.3672 116.955 3.37152C117.119 3.36741 117.283 3.39588 117.437 3.45531C117.591 3.51473 117.731 3.60393 117.85 3.71777C117.968 3.82468 118.062 3.95562 118.125 4.10176C118.188 4.24791 118.219 4.40588 118.216 4.56504C118.22 4.72442 118.19 4.88286 118.127 5.02924C118.064 5.17561 117.969 5.30637 117.85 5.41231C117.606 5.63427 117.285 5.75337 116.955 5.74479C116.627 5.75383 116.308 5.63454 116.067 5.41231ZM115.898 6.74879L118.039 6.31401V13.0522H115.898V6.74879Z" fill="white"/>
<path d="M125.943 12.1277C125.028 12.9172 123.855 13.3419 122.647 13.3205C121.641 13.3655 120.654 13.0374 119.875 12.3992C119.525 12.0962 119.248 11.7183 119.063 11.2935C118.879 10.8687 118.793 10.4079 118.811 9.94525C118.799 9.45476 118.892 8.96738 119.082 8.51524C119.273 8.06309 119.557 7.65645 119.916 7.32212C120.282 6.97502 120.713 6.70365 121.184 6.52359C121.655 6.34352 122.157 6.25832 122.662 6.27287C123.513 6.23462 124.345 6.52587 124.987 7.08604C125.28 7.35558 125.511 7.68547 125.665 8.05296C125.818 8.42044 125.89 8.8168 125.875 9.21471C125.883 9.60968 125.809 10.002 125.657 10.3669H120.98C121.243 11.2343 121.952 11.6682 123.109 11.6686C123.85 11.655 124.575 11.4443 125.207 11.0581L125.943 12.1277ZM121.624 8.05398C121.308 8.26376 121.076 8.57779 120.968 8.94125H124.005C123.975 8.61057 123.825 8.30215 123.584 8.07365C123.327 7.84732 122.991 7.72978 122.649 7.74576C122.284 7.74495 121.928 7.85246 121.624 8.05463V8.05398Z" fill="white"/>
<path d="M127.763 13.0578C127.209 12.9131 126.677 12.6924 126.184 12.402L126.739 11.1271C127.63 11.5894 128.621 11.8269 129.624 11.819C130.439 11.819 130.845 11.6336 130.845 11.2629C130.848 11.188 130.825 11.1144 130.781 11.054C130.737 10.9937 130.673 10.9501 130.601 10.9304C130.309 10.8457 130.009 10.7891 129.706 10.7612C129.552 10.7428 129.43 10.7291 129.34 10.7212C128.942 10.6708 128.547 10.5934 128.159 10.4897C127.842 10.4029 127.535 10.2803 127.245 10.1244C126.976 9.98594 126.753 9.77425 126.6 9.51391C126.45 9.23976 126.376 8.931 126.384 8.61877C126.371 8.28347 126.443 7.95036 126.592 7.64966C126.74 7.34895 126.962 7.09015 127.236 6.89669C127.932 6.44549 128.754 6.22731 129.582 6.2737C130.517 6.26726 131.445 6.45157 132.307 6.81538V8.42925C131.92 8.20014 131.499 8.03307 131.061 7.93413C130.586 7.81528 130.099 7.75407 129.609 7.75183C128.769 7.75183 128.349 7.94157 128.349 8.32105C128.347 8.40222 128.374 8.48146 128.425 8.54472C128.476 8.60798 128.547 8.65117 128.627 8.66664C128.977 8.75719 129.332 8.82293 129.691 8.86338C130.052 8.91759 130.351 8.96721 130.586 9.01224C130.864 9.06872 131.138 9.14341 131.406 9.23586C131.672 9.31566 131.923 9.44151 132.145 9.60769C132.339 9.76844 132.498 9.96675 132.614 10.1907C132.748 10.4502 132.816 10.7391 132.81 11.0314C132.821 11.3578 132.75 11.6817 132.604 11.974C132.459 12.2663 132.243 12.5179 131.976 12.7063C131.297 13.1523 130.492 13.3684 129.681 13.3227C129.032 13.3225 128.387 13.2334 127.763 13.0578Z" fill="white"/>
<path d="M0.0338624 1.22852C0.546027 1.74855 1.02081 2.23514 1.50084 2.71648C4.57077 5.78816 7.64289 8.85808 10.7172 11.9263C10.7506 11.9491 10.7786 11.9788 10.7994 12.0134C10.8203 12.048 10.8334 12.0868 10.8379 12.1269C10.8423 12.1671 10.8381 12.2077 10.8254 12.2461C10.8127 12.2845 10.7919 12.3197 10.7644 12.3492C10.3131 13.0835 9.6893 13.6965 8.94723 14.1349C8.92024 14.1577 8.88887 14.1746 8.85505 14.1847C8.82124 14.1949 8.78571 14.1979 8.75066 14.1937C8.71562 14.1896 8.6818 14.1782 8.65132 14.1604C8.62083 14.1427 8.59432 14.1188 8.57344 14.0903C5.75664 11.2648 2.93722 8.44145 0.115179 5.62028C0.052296 5.55695 0.0141475 5.47321 0.0076312 5.3842C0.00172917 4.04312 0.00369651 2.70271 0.0076312 1.36164C0.0136478 1.31677 0.022408 1.27231 0.0338624 1.22852Z" fill="white"/>
<path d="M11.4969 10.5106L2.20256 1.21094C2.18289 1.2293 2.19338 1.21094 2.20256 1.21094C3.61839 1.2234 5.03816 1.18864 6.45202 1.26406C7.22222 1.28017 7.9784 1.47305 8.66222 1.8278C9.34604 2.18256 9.93919 2.6897 10.3959 3.31009C11.0587 4.22847 11.4693 5.30449 11.5868 6.43095C11.6596 6.99623 11.6563 7.57135 11.6825 8.14254C11.7185 8.93651 11.6561 9.73188 11.4969 10.5106Z" fill="white"/>
<path d="M0.00178893 7.68164L7.10127 14.8205C6.52812 14.8723 5.96087 14.9615 5.39296 14.9667C3.6617 14.9838 1.92978 14.9667 0.197868 14.9667C-0.0270653 14.9667 0.00113319 14.831 0.00113319 14.6959C0.0041935 12.9952 0.00725377 11.2948 0.0103141 9.59455C0.0103141 9.04501 0.0044121 8.49678 0.00113319 7.94723L0.00178893 7.68164Z" fill="white"/>
<path d="M137.553 2.70162H137.212V3.27477H136.785V1.56188H137.615C137.795 1.55124 137.973 1.60468 138.118 1.71271C138.178 1.76165 138.225 1.82387 138.257 1.89443C138.289 1.96499 138.304 2.04197 138.301 2.11929C138.303 2.22489 138.272 2.32856 138.213 2.41636C138.153 2.50486 138.07 2.57517 137.973 2.61965L138.374 3.27543H137.873L137.553 2.70162ZM137.212 2.36324H137.577C137.65 2.36691 137.722 2.34359 137.78 2.29766C137.804 2.27621 137.823 2.24964 137.835 2.21992C137.848 2.19019 137.854 2.15805 137.852 2.12585C137.854 2.09414 137.848 2.06252 137.835 2.03349C137.822 2.00447 137.802 1.97884 137.778 1.95863C137.72 1.91498 137.649 1.89315 137.577 1.89698H137.212V2.36324Z" fill="white"/>
<path d="M137.579 4.8403C136.938 4.83961 136.323 4.5845 135.869 4.13097C135.416 3.67744 135.161 3.06252 135.16 2.42112C135.161 1.77973 135.416 1.16481 135.869 0.711278C136.323 0.257745 136.938 0.00264746 137.579 0.00195312C138.221 0.00264746 138.836 0.257745 139.289 0.711278C139.743 1.16481 139.998 1.77973 139.998 2.42112C139.998 3.06252 139.743 3.67744 139.289 4.13097C138.836 4.5845 138.221 4.83961 137.579 4.8403ZM137.579 0.34755C137.03 0.348244 136.503 0.566929 136.114 0.95565C135.725 1.34437 135.506 1.87139 135.506 2.42112C135.506 2.97086 135.725 3.49788 136.114 3.8866C136.503 4.27532 137.03 4.49401 137.579 4.49471C138.129 4.49401 138.656 4.27532 139.045 3.8866C139.434 3.49788 139.652 2.97086 139.653 2.42112C139.653 1.87105 139.434 1.34353 139.045 0.954379C138.657 0.565233 138.129 0.346274 137.579 0.345579V0.34755Z" fill="white"/>
</g>
<defs>
<clipPath id="clip0">
<rect width="140" height="15.9001" fill="white"/>
</clipPath>
</defs>
</svg>
