<svg width="110" height="49" viewBox="0 0 110 49" fill="none" xmlns="http://www.w3.org/2000/svg">
<g clip-path="url(#clip0)">
<path d="M26.3001 29.6064C25.8766 29.6321 25.4533 29.5528 25.0678 29.3756C24.9166 29.2662 24.7982 29.1175 24.7256 28.9456C24.653 28.7737 24.6288 28.5852 24.6558 28.4006V19.4612C24.6437 19.1806 24.5562 18.9083 24.4024 18.6732C24.2487 18.4381 24.0345 18.2487 23.7823 18.125C22.8338 17.6915 21.7907 17.5065 20.751 17.5873H19.3121C18.7139 17.5766 18.1162 17.6234 17.527 17.7269C17.1271 17.7968 16.7413 17.9313 16.3846 18.125C16.141 18.2519 15.9375 18.4441 15.7969 18.6801C15.6562 18.9161 15.5841 19.1865 15.5884 19.4612V28.3994C15.6154 28.5841 15.5912 28.7726 15.5186 28.9445C15.446 29.1164 15.3276 29.2651 15.1764 29.3745C14.7913 29.5515 14.3684 29.6308 13.9452 29.6052C13.5139 29.64 13.0816 29.5511 12.699 29.3491C12.5633 29.2339 12.4583 29.0868 12.3935 28.9211C12.3286 28.7553 12.3059 28.5761 12.3274 28.3994V19.4612C12.3275 19.2064 12.2657 18.9553 12.1474 18.7296C12.0027 18.4739 11.7887 18.2643 11.5301 18.125C11.1724 17.9307 10.7853 17.7962 10.3842 17.7269C9.79506 17.6232 9.19728 17.5765 8.59915 17.5873H7.16484C6.12516 17.5068 5.08207 17.6918 4.13351 18.125C3.8813 18.2487 3.66708 18.4381 3.51337 18.6732C3.35966 18.9083 3.27214 19.1806 3.26 19.4612V28.3994C3.28723 28.5837 3.26357 28.772 3.19157 28.9438C3.11958 29.1157 3.00199 29.2646 2.85152 29.3745C2.46511 29.5515 2.04109 29.6307 1.61684 29.6052C1.19735 29.6319 0.777898 29.5525 0.397152 29.3745C0.24989 29.2622 0.135327 29.1126 0.0653309 28.9411C-0.00466526 28.7697 -0.0275483 28.5827 -0.000947529 28.3994V19.4612C-0.0401313 18.7966 0.0998113 18.1337 0.404271 17.5416C0.708731 16.9495 1.16654 16.45 1.72992 16.0953C3.21733 15.2787 4.90411 14.8961 6.59827 14.991H9.13687C10.8376 14.8597 12.5322 15.3128 13.9406 16.2753C15.3588 15.3154 17.0597 14.8628 18.7674 14.991H21.306C22.9998 14.8958 24.6863 15.2785 26.1732 16.0953C26.7368 16.4498 27.1947 16.9493 27.4992 17.5414C27.8037 18.1335 27.9435 18.7966 27.9041 19.4612V28.3994C27.9307 28.5827 27.9078 28.7697 27.8378 28.9411C27.7678 29.1126 27.6532 29.2622 27.506 29.3745C27.1295 29.5507 26.7151 29.6305 26.3001 29.6064Z" fill="white"/>
<path d="M48.7456 14.8901C49.1647 14.8626 49.584 14.942 49.9641 15.1208C50.1116 15.233 50.2264 15.3825 50.2966 15.554C50.3668 15.7254 50.3898 15.9125 50.3634 16.0959V25.0352C50.3634 28.0154 47.9402 29.5051 43.0937 29.5043H36.9561C32.1097 29.5043 29.6864 28.0146 29.6864 25.0352V16.0959C29.6596 15.9114 29.6837 15.723 29.7561 15.5512C29.8285 15.3793 29.9464 15.2305 30.0972 15.1208C30.4827 14.9433 30.9061 14.864 31.3296 14.8901C31.7491 14.8627 32.1688 14.9421 32.5493 15.1208C32.6966 15.2331 32.8111 15.3827 32.8811 15.5542C32.9511 15.7256 32.974 15.9126 32.9474 16.0959V25.0352C32.9686 25.3269 33.0714 25.6067 33.244 25.8428C33.4166 26.0788 33.6521 26.2616 33.9236 26.3703C34.9107 26.7946 35.9843 26.9793 37.0565 26.9092H42.9922C44.0647 26.9791 45.1386 26.7945 46.1262 26.3703C46.3974 26.2615 46.6326 26.0786 46.8048 25.8426C46.977 25.6065 47.0793 25.3267 47.1001 25.0352V16.0959C47.0731 15.9112 47.0973 15.7227 47.1699 15.5508C47.2425 15.3789 47.3608 15.2302 47.5121 15.1208C47.8977 14.9428 48.3216 14.8635 48.7456 14.8901Z" fill="white"/>
<path d="M51.9033 18.8445C51.8898 18.2796 52.025 17.7211 52.2954 17.2249C52.5657 16.7287 52.9617 16.3123 53.4437 16.0174C54.8373 15.2427 56.4246 14.8862 58.0155 14.9904H61.535C61.6803 14.9688 61.8288 14.9873 61.9644 15.0438C62.1 15.1003 62.2176 15.1928 62.3046 15.3112C62.4443 15.6212 62.5061 15.9607 62.4846 16.3001C62.5049 16.6312 62.443 16.9622 62.3046 17.2636C62.2178 17.3822 62.1002 17.4749 61.9646 17.5316C61.8289 17.5884 61.6804 17.607 61.535 17.5856H57.9901C57.2542 17.5423 56.5178 17.6605 55.8323 17.9317C55.637 18.0016 55.4668 18.128 55.3435 18.2948C55.2203 18.4617 55.1494 18.6615 55.14 18.8687V19.5357C55.1527 19.7471 55.2276 19.95 55.3553 20.119C55.483 20.288 55.6578 20.4154 55.8577 20.4853C56.5762 20.7678 57.3475 20.8906 58.1182 20.8454H63.7955C65.5873 20.7112 67.3819 21.0657 68.9881 21.8712C69.486 22.1653 69.8962 22.5872 70.1762 23.0932C70.4562 23.5992 70.5958 24.1709 70.5805 24.749V25.5695C70.6006 26.1623 70.4521 26.7488 70.1523 27.2606C69.8524 27.7725 69.4135 28.1888 68.8865 28.4612C68.1796 28.8382 67.4162 29.0981 66.626 29.2308C65.5327 29.4254 64.4235 29.5158 63.3131 29.5008H52.9049C52.7592 29.5225 52.6105 29.504 52.4746 29.4472C52.3387 29.3905 52.221 29.2977 52.134 29.1789C51.9942 28.8689 51.9324 28.5294 51.954 28.19C51.934 27.8589 51.9958 27.528 52.134 27.2265C52.2211 27.1079 52.3389 27.0153 52.4748 26.9588C52.6106 26.9022 52.7593 26.8839 52.9049 26.9057H63.7943C64.3645 26.9126 64.9346 26.8825 65.5009 26.8157C65.8704 26.7766 66.2333 26.6905 66.581 26.5595C66.7992 26.4824 66.9906 26.3442 67.1326 26.1614C67.2365 26.0012 67.29 25.8135 67.286 25.6225V24.6994C67.2902 24.5085 67.2367 24.3207 67.1326 24.1605C66.993 23.9775 66.8069 23.8353 66.5937 23.7486C66.2621 23.61 65.9124 23.5194 65.5552 23.4797C65.0054 23.4139 64.4519 23.3842 63.8982 23.3909H58.1448C56.5223 23.4965 54.9027 23.1447 53.4703 22.3754C52.9858 22.0927 52.5853 21.6861 52.3099 21.1973C52.0345 20.7086 51.8942 20.1554 51.9033 19.5945V18.8445Z" fill="white"/>
<path d="M96.1525 29.5047C91.306 29.5047 88.8828 28.015 88.8828 25.0356V19.4622C88.8828 16.4821 91.306 14.9924 96.1525 14.9931H108.997C109.142 14.9716 109.29 14.99 109.426 15.0465C109.562 15.1031 109.679 15.1955 109.766 15.3139C109.906 15.624 109.968 15.9635 109.946 16.3028C109.967 16.6339 109.905 16.9649 109.766 17.2663C109.679 17.385 109.562 17.4776 109.426 17.5344C109.291 17.5911 109.142 17.6097 108.997 17.5883H96.2575C95.185 17.5181 94.1112 17.7024 93.1234 18.126C92.8519 18.2349 92.6163 18.4179 92.4437 18.6541C92.2711 18.8904 92.1684 19.1704 92.1472 19.4622V25.0356C92.1724 25.3246 92.2769 25.6009 92.4492 25.8343C92.6214 26.0676 92.8547 26.2488 93.1234 26.358C94.1085 26.7916 95.1836 26.9808 96.2575 26.9096H109.076C109.471 26.9096 109.722 27.0169 109.834 27.2304C109.962 27.5347 110.019 27.8643 110.001 28.1939C110.018 28.5276 109.961 28.861 109.834 29.1701C109.719 29.3928 109.471 29.5047 109.076 29.5047H96.1525Z" fill="white"/>
<path d="M80.406 28.6294L68.6476 13.5132C73.9071 5.71619 85.8582 6.1616 89.733 12.3789C83.8758 9.01061 78.4328 9.081 73.0013 13.3562C74.956 15.926 76.9246 18.3054 78.6555 20.8405C81.5218 25.0257 84.3431 29.2467 86.9879 33.5727C88.1621 35.4414 88.6666 37.6535 88.4188 39.8465C88.171 42.0394 87.1855 44.0832 85.6239 45.6427C84.1498 47.1552 82.2304 48.1562 80.1465 48.4994C78.0625 48.8427 75.9234 48.51 74.0421 47.5501C72.1224 46.5624 70.5725 44.9818 69.6227 43.0431C68.6729 41.1043 68.3738 38.9109 68.7699 36.7887C69.1937 34.6259 70.329 32.667 71.995 31.2241C73.661 29.7812 75.7619 28.9373 77.9631 28.8267C78.6509 28.7679 79.3386 28.7171 80.406 28.6294Z" fill="white"/>
<path d="M12.2644 2.63387C12.5335 2.61742 12.8025 2.66859 13.0468 2.78272C13.1411 2.8551 13.2144 2.95129 13.2593 3.06142C13.3041 3.17154 13.3187 3.29162 13.3018 3.4093V9.13731C13.3018 11.0466 11.7486 12.0017 8.64228 12.0025H4.70744C1.60111 12.0025 0.0479508 11.0474 0.0479508 9.13731V3.40814C0.030606 3.28965 0.0459427 3.16866 0.0923066 3.05825C0.13867 2.94783 0.214302 2.85216 0.311042 2.78157C0.558623 2.6689 0.829912 2.61821 1.10147 2.63387C1.37056 2.61786 1.63941 2.66901 1.88382 2.78272C1.97834 2.85493 2.05182 2.95111 2.09666 3.06128C2.1415 3.17145 2.15606 3.2916 2.13884 3.4093V9.13731C2.15207 9.32424 2.21778 9.50364 2.32841 9.6549C2.43905 9.80615 2.59012 9.92312 2.76426 9.99236C3.39703 10.2653 4.08559 10.3839 4.77322 10.3385H8.58112C9.26873 10.3838 9.95727 10.2652 10.5901 9.99236C10.7642 9.92312 10.9153 9.80615 11.0259 9.6549C11.1366 9.50364 11.2023 9.32424 11.2155 9.13731V3.40814C11.1985 3.28967 11.2141 3.16882 11.2604 3.05847C11.3067 2.94812 11.3821 2.85242 11.4786 2.78157C11.7248 2.66964 11.9944 2.61896 12.2644 2.63387Z" fill="white"/>
<path d="M32.3342 12.0685C32.0625 12.0844 31.791 12.0332 31.5437 11.9197C31.4471 11.8492 31.3715 11.7538 31.3251 11.6436C31.2788 11.5333 31.2634 11.4126 31.2806 11.2942V5.56506C31.2727 5.38527 31.2167 5.21089 31.1185 5.06009C31.0203 4.9093 30.8834 4.78761 30.7221 4.70771C30.1136 4.43021 29.4447 4.31113 28.7778 4.36153H27.8547C27.4708 4.35491 27.0871 4.38466 26.7088 4.45039C26.4529 4.4956 26.2059 4.58171 25.9773 4.7054C25.821 4.78683 25.6905 4.91018 25.6004 5.06161C25.5104 5.21304 25.4642 5.38658 25.4672 5.56276V11.3C25.4845 11.4183 25.4691 11.5391 25.4227 11.6493C25.3764 11.7595 25.3008 11.855 25.2042 11.9254C24.9569 12.0392 24.6854 12.0903 24.4137 12.0743C24.1373 12.0962 23.8603 12.039 23.6152 11.9093C23.5283 11.8353 23.4609 11.7409 23.4193 11.6346C23.3776 11.5283 23.3628 11.4134 23.3764 11.3V5.56506C23.3794 5.38889 23.3332 5.21535 23.2432 5.06392C23.1531 4.91248 23.0226 4.78914 22.8663 4.70771C22.6377 4.58402 22.3907 4.49791 22.1347 4.45269C21.7565 4.38697 21.3728 4.35722 20.9889 4.36384H20.0658C19.3992 4.31323 18.7307 4.43233 18.1226 4.71001C17.9608 4.78937 17.8234 4.91089 17.725 5.06178C17.6265 5.21267 17.5705 5.38734 17.563 5.56737V11.3C17.5802 11.4183 17.5648 11.5391 17.5185 11.6493C17.4721 11.7595 17.3965 11.855 17.2999 11.9254C17.0526 12.0392 16.7811 12.0903 16.5094 12.0743C16.2403 12.0913 15.9712 12.0401 15.7271 11.9254C15.6324 11.8536 15.5587 11.7577 15.5139 11.6477C15.469 11.5376 15.4546 11.4175 15.4721 11.3V5.56506C15.4471 5.139 15.537 4.71404 15.7325 4.33464C15.928 3.95524 16.2218 3.63534 16.5833 3.4084C17.5349 2.88495 18.6145 2.63945 19.6988 2.6999H21.3293C22.4195 2.61536 23.5057 2.90607 24.408 3.52379C25.3171 2.90809 26.4078 2.61774 27.5027 2.6999H29.139C30.2234 2.63907 31.3031 2.88459 32.2545 3.4084C32.616 3.63534 32.9099 3.95524 33.1053 4.33464C33.3008 4.71404 33.3908 5.139 33.3658 5.56506V11.3C33.3833 11.4175 33.3688 11.5376 33.324 11.6477C33.2791 11.7577 33.2054 11.8536 33.1107 11.9254C32.8677 12.0366 32.6009 12.0858 32.3342 12.0685Z" fill="white"/>
<path d="M37.553 8.29866V9.13871C37.5691 9.32379 37.636 9.50083 37.7464 9.65028C37.8568 9.79974 38.0063 9.9158 38.1784 9.98568C38.8099 10.2633 39.499 10.3845 40.1874 10.3388H42.0821C42.3348 10.3388 42.4952 10.408 42.5679 10.5453C42.6505 10.7406 42.6872 10.9522 42.6752 11.1638C42.6866 11.3777 42.6499 11.5914 42.5679 11.7892C42.4963 11.9312 42.3371 12.0027 42.0821 12.0027H40.1204C37.0141 12.0027 35.4609 11.0477 35.4609 9.13755V5.56389C35.4609 3.65455 37.0141 2.6995 40.1204 2.69873H43.9283C45.1592 2.60635 46.3919 2.8513 47.4939 3.40723C47.8518 3.63679 48.142 3.95768 48.3344 4.33679C48.5269 4.7159 48.6148 5.1395 48.589 5.56389V7.45746C48.6151 7.69217 48.5503 7.92797 48.4078 8.11634C48.1679 8.26892 47.8821 8.33261 47.6001 8.29635L37.553 8.29866ZM37.553 6.66934H46.4946V5.56389C46.4913 5.37131 46.4308 5.18407 46.3209 5.02589C46.211 4.86771 46.0566 4.74572 45.8773 4.67538C45.2354 4.4268 44.5472 4.3205 43.8603 4.36382H40.1874C39.4998 4.32026 38.8117 4.43884 38.1784 4.71C38.0045 4.78021 37.8537 4.89774 37.7431 5.04928C37.6326 5.20081 37.5667 5.38029 37.553 5.56735V6.66934Z" fill="white"/>
<path d="M51.6501 12.0671C51.3809 12.0841 51.1118 12.0329 50.8677 11.9183C50.773 11.8465 50.6994 11.7505 50.6545 11.6405C50.6096 11.5305 50.5952 11.4104 50.6127 11.2928V0.773787C50.5953 0.656257 50.6098 0.536215 50.6547 0.426201C50.6995 0.316186 50.7731 0.220234 50.8677 0.148368C51.1116 0.0330437 51.3809 -0.0181883 51.6501 -0.000486705C51.9218 -0.0170187 52.1934 0.0341274 52.4405 0.148368C52.5368 0.219001 52.6121 0.314537 52.6583 0.424723C52.7044 0.534908 52.7197 0.655581 52.7024 0.773787V2.69966H59.0259C62.1322 2.69966 63.6854 3.65472 63.6854 5.56483V11.294C63.7029 11.4123 63.6876 11.5332 63.6412 11.6435C63.5948 11.7537 63.5191 11.8492 63.4223 11.9194C63.175 12.0333 62.9035 12.0844 62.6318 12.0683C62.3631 12.0852 62.0944 12.034 61.8506 11.9194C61.6787 11.8213 61.5956 11.6125 61.5956 11.294V5.56367C61.5819 5.37644 61.5159 5.19681 61.4051 5.04524C61.2944 4.89367 61.1433 4.77624 60.969 4.70632C60.3359 4.4347 59.6476 4.3161 58.9601 4.36014H52.6978V11.294C52.7152 11.4122 52.7 11.5329 52.6538 11.6431C52.6077 11.7533 52.5323 11.8489 52.4359 11.9194C52.1899 12.0319 51.9201 12.0826 51.6501 12.0671Z" fill="white"/>
</g>
<defs>
<clipPath id="clip0">
<rect width="110" height="48.6339" fill="white"/>
</clipPath>
</defs>
</svg>
