<svg width="110" height="30" viewBox="0 0 110 30" fill="none" xmlns="http://www.w3.org/2000/svg">
<path d="M38.7568 0C39.4901 1.14462 40.1876 2.29819 40.9477 3.42492C42.5663 5.83042 44.2117 8.21803 45.857 10.5788C46.0091 10.8024 46.1969 11.008 46.4651 11.3568C47.1 10.4626 47.6634 9.72035 48.2 8.94236C48.9422 7.86034 49.6576 6.76937 50.3998 5.69628C50.5339 5.5085 50.7664 5.26705 50.9542 5.26705C52.2598 5.26705 53.5654 5.26705 54.871 5.26705C54.871 5.26705 54.9514 5.33859 55.0945 5.45484C54.5222 6.34908 53.9409 7.24331 53.306 8.13755C51.9557 10.1049 50.6233 12.099 49.2373 14.0306C49.0374 14.2456 48.9263 14.5284 48.9263 14.822C48.9263 15.1156 49.0374 15.3983 49.2373 15.6134C50.99 18.0815 52.7069 20.5674 54.3881 23.0713C54.5872 23.3545 54.6674 23.7044 54.6116 24.046C54.558 24.2249 54.0572 24.3501 53.7174 24.359C50.6502 24.4305 50.6591 24.4216 48.9243 21.8283C48.191 20.6747 47.3951 19.548 46.5009 18.2961C46.2618 18.5384 46.0378 18.7952 45.8302 19.0651C43.5499 22.3648 41.2696 25.6556 39.0251 28.9822C38.8793 29.2383 38.6622 29.4464 38.4002 29.5814C38.1383 29.7163 37.8427 29.7722 37.5496 29.7423C36.4229 29.7423 35.2872 29.7423 33.9727 29.7423C34.5718 28.8481 35.0547 28.0432 35.5733 27.2831C38.3008 23.3306 41.0192 19.3692 43.7735 15.4345C43.9215 15.2449 43.9934 15.007 43.9752 14.7672C43.957 14.5274 43.85 14.303 43.6751 14.1379C40.4439 9.42823 37.2128 4.71561 33.9816 0H38.7568Z" fill="white"/>
<path d="M0 8.19945C2.03873 8.09334 4.08231 8.1262 6.11658 8.29781C9.0765 8.70916 10.7577 11.3829 10.4804 14.7274C10.4005 16.1224 9.79008 17.434 8.77419 18.3933C7.75831 19.3527 6.41394 19.8871 5.01667 19.8871C3.34444 19.9318 1.67222 19.9497 0 19.9765L0 8.19945ZM2.25348 17.7499C3.25502 17.7499 4.19397 17.8035 5.11503 17.7499C6.9035 17.6158 8.09284 16.3549 8.30746 14.3697C8.49524 12.5812 7.51158 10.7927 5.96456 10.4708C4.7367 10.2758 3.49656 10.1683 2.25348 10.1489V17.7499Z" fill="white"/>
<path d="M98.8574 10.8301L100.261 11.8585C100.187 12.0205 100.094 12.1735 99.9842 12.3145C99.7731 12.4936 99.6402 12.7478 99.6134 13.0232C99.5867 13.2987 99.6684 13.5737 99.8411 13.79C100.263 14.5879 100.386 15.5104 100.188 16.3911C99.9896 17.2718 99.4828 18.0524 98.7591 18.5921C98.7591 18.6457 98.7591 18.7262 98.7591 18.7441C99.3644 19.0998 99.8284 19.6535 100.073 20.3117C100.317 20.9699 100.327 21.6922 100.1 22.3568C99.9113 23.0639 99.5098 23.696 98.9501 24.1677C98.3905 24.6395 97.6995 24.9281 96.9706 24.9948C94.4846 25.4687 92.2043 24.0558 91.9182 21.8739C91.9092 21.719 91.9092 21.5638 91.9182 21.4089H93.7961C94.4936 22.9202 95.3967 23.4209 96.8007 23.0453C97.195 22.9658 97.5489 22.7504 97.8006 22.4366C98.0522 22.1228 98.1858 21.7306 98.1778 21.3284C98.1512 20.9412 97.9901 20.5755 97.7222 20.2946C97.4544 20.0137 97.0968 19.8353 96.7113 19.7903C96.2731 19.7098 95.817 19.7009 95.361 19.6383C94.3989 19.563 93.5024 19.1211 92.8567 18.4039C92.2111 17.6866 91.8655 16.7489 91.8913 15.7841C91.7803 14.7808 92.0548 13.7727 92.6591 12.9641C93.2635 12.1555 94.1526 11.6068 95.1464 11.4292C95.8431 11.2972 96.5602 11.3186 97.2478 11.4918C97.9006 11.6975 98.2494 11.6081 98.5623 11.0536C98.607 10.9821 98.7233 10.9374 98.8574 10.8301ZM98.2046 15.5606C98.232 15.2622 98.1968 14.9615 98.1014 14.6775C98.006 14.3935 97.8524 14.1325 97.6504 13.9112C97.4485 13.6899 97.2026 13.5131 96.9285 13.3921C96.6544 13.2712 96.3581 13.2087 96.0585 13.2087C95.7588 13.2163 95.4639 13.2848 95.1916 13.4101C94.9193 13.5353 94.6753 13.7146 94.4746 13.9372C94.2738 14.1597 94.1204 14.4208 94.0237 14.7045C93.9271 14.9882 93.8892 15.2886 93.9123 15.5874C93.8989 15.8797 93.9453 16.1716 94.0489 16.4453C94.1524 16.719 94.3108 16.9686 94.5143 17.1788C94.7178 17.389 94.9621 17.5554 95.2323 17.6677C95.5025 17.78 95.7927 17.8359 96.0853 17.8319C96.3777 17.8354 96.6675 17.7778 96.9364 17.6628C97.2052 17.5479 97.4471 17.3781 97.6466 17.1643C97.846 16.9505 97.9987 16.6975 98.0948 16.4213C98.1909 16.1452 98.2283 15.852 98.2046 15.5606Z" fill="white"/>
<path d="M18.6551 19.834L18.521 18.8772C18.1219 19.3309 17.6193 19.6816 17.0557 19.8995C16.4922 20.1175 15.8843 20.1962 15.2839 20.1291C14.6864 20.0993 14.104 19.9311 13.5826 19.6378C13.0612 19.3445 12.615 18.9342 12.2792 18.439C11.7177 17.5266 11.4665 16.4569 11.5632 15.3899C11.6599 14.3229 12.0993 13.3158 12.8158 12.5192C14.3002 11.0974 16.5179 11.0616 18.4584 12.4745L18.6641 11.6428H20.5062V19.834H18.6551ZM18.4584 15.6937C18.4584 15.0534 18.204 14.4393 17.7512 13.9865C17.2984 13.5337 16.6843 13.2793 16.044 13.2793C15.4036 13.2793 14.7895 13.5337 14.3367 13.9865C13.8839 14.4393 13.6295 15.0534 13.6295 15.6937C13.6295 16.3341 13.8839 16.9482 14.3367 17.401C14.7895 17.8538 15.4036 18.1082 16.044 18.1082C16.6843 18.1082 17.2984 17.8538 17.7512 17.401C18.204 16.9482 18.4584 16.3341 18.4584 15.6937Z" fill="white"/>
<path d="M78.5753 12.5195L78.6915 11.6252H80.5516V19.8164H78.7631L78.5842 18.8775C78.1486 19.3616 77.5955 19.7254 76.9784 19.9337C76.3613 20.1421 75.7009 20.1879 75.0609 20.0668C74.097 19.9665 73.2062 19.5068 72.566 18.7791C71.9236 17.8855 71.5924 16.8057 71.623 15.7056C71.6537 14.6054 72.0447 13.5458 72.7359 12.6894C74.2204 11.0887 76.5454 11.0082 78.5753 12.5195ZM78.5753 15.7745C78.5954 15.4433 78.5475 15.1114 78.4346 14.7994C78.3217 14.4874 78.1461 14.2017 77.9187 13.9601C77.6913 13.7184 77.4168 13.5259 77.1122 13.3943C76.8076 13.2626 76.4793 13.1947 76.1474 13.1947C75.8156 13.1947 75.4873 13.2626 75.1827 13.3943C74.8781 13.5259 74.6036 13.7184 74.3762 13.9601C74.1488 14.2017 73.9732 14.4874 73.8603 14.7994C73.7474 15.1114 73.6995 15.4433 73.7196 15.7745C73.6995 16.1057 73.7474 16.4375 73.8603 16.7496C73.9732 17.0616 74.1488 17.3472 74.3762 17.5889C74.6036 17.8305 74.8781 18.0231 75.1827 18.1547C75.4873 18.2863 75.8156 18.3542 76.1474 18.3542C76.4793 18.3542 76.8076 18.2863 77.1122 18.1547C77.4168 18.0231 77.6913 17.8305 77.9187 17.5889C78.1461 17.3472 78.3217 17.0616 78.4346 16.7496C78.5475 16.4375 78.5954 16.1057 78.5753 15.7745Z" fill="white"/>
<path d="M70.3315 19.8439H68.2927V16.6157C68.2927 16.2223 68.2927 15.8199 68.2927 15.4264C68.2301 14.1655 67.5862 13.4412 66.5042 13.4233C66.2342 13.4063 65.9636 13.4444 65.7089 13.5353C65.4541 13.6262 65.2205 13.768 65.0222 13.952C64.824 14.136 64.6652 14.3585 64.5556 14.6058C64.4461 14.8531 64.388 15.1201 64.3849 15.3906C64.3223 16.5531 64.3849 17.7246 64.3849 18.8871V19.7813H62.3281V8.15625H64.3491V12.3055C65.1034 11.9552 65.8914 11.6825 66.7009 11.4918C67.1142 11.4141 67.5391 11.4232 67.9487 11.5186C68.3582 11.614 68.7434 11.7936 69.0798 12.0459C69.4163 12.2982 69.6965 12.6177 69.9027 12.9842C70.109 13.3506 70.2367 13.756 70.2779 14.1745C70.3404 14.4693 70.3823 14.7681 70.4031 15.0687C70.3405 16.6604 70.3315 18.1985 70.3315 19.8439Z" fill="white"/>
<path d="M109.989 16.4721H103.444C103.667 18.2606 105.813 18.7703 108.085 17.5184L109.158 18.8419C108.013 20.1117 105.527 20.523 103.614 19.7361C101.932 19.0028 101.056 17.3217 101.244 15.1487C101.314 14.3085 101.647 13.5117 102.194 12.8701C102.74 12.2285 103.475 11.7744 104.293 11.5717C106.484 11.0084 108.594 11.7237 109.346 13.4675C109.66 14.4451 109.876 15.4516 109.989 16.4721ZM107.763 14.7373C107.722 14.4859 107.631 14.2452 107.495 14.0299C107.359 13.8146 107.181 13.6291 106.971 13.4845C106.761 13.34 106.524 13.2394 106.275 13.1888C106.025 13.1382 105.768 13.1387 105.518 13.1903C104.391 13.2439 103.658 13.8163 103.569 14.7373H107.763Z" fill="white"/>
<path d="M90.4511 19.8433H88.4569C88.4569 18.3499 88.4569 16.8834 88.4569 15.4258C88.4778 15.0587 88.3955 14.693 88.2191 14.3703C88.0428 14.0477 87.7795 13.7809 87.4592 13.6002C87.1389 13.4196 86.7744 13.3324 86.407 13.3484C86.0396 13.3644 85.6841 13.4831 85.3808 13.691C85.0563 13.8989 84.7922 14.1885 84.6149 14.5306C84.4376 14.8727 84.3532 15.2554 84.3703 15.6404C84.3703 17.0265 84.3703 18.4125 84.3703 19.8523H82.3672V11.6253H84.1557L84.3434 12.5195C84.9584 12.1566 85.6085 11.857 86.2839 11.6253C86.7618 11.4931 87.2633 11.4703 87.7512 11.5586C88.2391 11.6469 88.7008 11.844 89.1021 12.1352C89.5033 12.4265 89.8338 12.8045 90.0689 13.241C90.304 13.6775 90.4376 14.1614 90.46 14.6567C90.5499 16.3845 90.547 18.1159 90.4511 19.8433Z" fill="white"/>
<path d="M22.9543 13.5738L21.4609 13.4755V11.7943L22.9275 11.6959C22.9275 10.1936 23.2136 8.79862 24.7786 8.1816C25.3416 7.93713 25.9594 7.8464 26.5689 7.91866C27.1785 7.99093 27.7579 8.2236 28.2482 8.59295L27.5686 10.0148C25.5297 9.43353 24.8859 9.84488 25.0915 11.7407H27.3987V13.4844H25.0379V19.8246H22.9543V13.5738Z" fill="white"/>
<path d="M60.0286 17.5449L61.2716 18.7253C60.0733 20.4601 56.9971 20.63 55.1192 19.1009C53.4291 17.7238 53.3308 14.3704 54.8778 12.6713C56.4248 10.9723 59.8855 10.8828 61.1375 12.6713C60.8781 12.9396 60.6009 13.2079 60.3505 13.5119C60.3045 13.5834 60.2445 13.6449 60.1742 13.6928C60.1039 13.7407 60.0247 13.774 59.9413 13.7907C59.8579 13.8074 59.7719 13.8071 59.6886 13.7899C59.6053 13.7728 59.5263 13.739 59.4563 13.6907C58.9576 13.369 58.3534 13.2535 57.7712 13.3686C57.1889 13.4837 56.6741 13.8204 56.3354 14.3078C56.0108 14.7777 55.8499 15.3414 55.8773 15.9118C55.9048 16.4823 56.1192 17.0279 56.4874 17.4644C56.9052 17.8736 57.4498 18.1283 58.0316 18.1868C58.6135 18.2453 59.1979 18.1041 59.6888 17.7863L60.0286 17.5449Z" fill="white"/>
<path d="M30.9691 19.8516H28.957V11.7498C30.2268 11.41 30.7455 11.5352 31.0585 12.3132C31.5174 11.8529 32.1069 11.5451 32.7468 11.4315C33.3868 11.3179 34.0462 11.4041 34.6354 11.6783C35.2793 11.9108 35.485 12.2595 35.0468 12.8765C34.8628 13.1616 34.7013 13.4606 34.5639 13.7708C34.0347 13.6207 33.4929 13.5189 32.9453 13.4667C32.6731 13.4313 32.3964 13.4591 32.1366 13.5478C31.8768 13.6366 31.641 13.7839 31.4473 13.9785C31.2536 14.173 31.1073 14.4095 31.0197 14.6697C30.9321 14.9299 30.9056 15.2067 30.9422 15.4788C30.9512 16.9185 30.9691 18.3314 30.9691 19.8516Z" fill="white"/>
<path d="M36.2539 19.8341V11.625H38.1944V19.8341H36.2539Z" fill="white"/>
<path d="M38.4534 9.23792C38.466 9.39433 38.4455 9.55166 38.3933 9.69964C38.3411 9.84763 38.2583 9.98297 38.1504 10.0968C38.0424 10.2107 37.9116 10.3006 37.7666 10.3606C37.6216 10.4206 37.4656 10.4494 37.3088 10.4451C37.1527 10.4599 36.9952 10.4424 36.8461 10.3938C36.697 10.3452 36.5595 10.2664 36.4421 10.1624C36.3247 10.0585 36.23 9.93149 36.1637 9.78937C36.0974 9.64726 36.061 9.49304 36.0568 9.33628C36.0472 9.17436 36.07 9.01214 36.124 8.85917C36.178 8.70621 36.2621 8.5656 36.3712 8.44561C36.4804 8.32562 36.6125 8.22868 36.7596 8.16049C36.9068 8.09231 37.0662 8.05426 37.2283 8.04858C37.3884 8.0399 37.5486 8.06444 37.6988 8.12066C37.849 8.17689 37.9859 8.26358 38.101 8.37528C38.216 8.48698 38.3068 8.62129 38.3674 8.76974C38.428 8.9182 38.4573 9.0776 38.4534 9.23792Z" fill="white"/>
</svg>
