<svg width="62" height="62" viewBox="0 0 62 62" fill="none" xmlns="http://www.w3.org/2000/svg">
<g filter="url(#filter0_b)">
<path d="M33.6801 4.22837L13.8186 9.47033C6.58079 11.3806 3.57874 16.5019 5.51802 23.6307L10.8346 43.1745C12.7739 50.3033 17.9734 53.26 25.2113 51.3497L45.0728 46.1078C52.3106 44.1975 55.2938 39.0812 53.3545 31.9524L48.0379 12.4087C46.0986 5.27984 40.918 2.31813 33.6801 4.22837Z" fill="url(#paint0_linear)"/>
</g>
<g opacity="0.5" filter="url(#filter1_f)">
<path d="M43.5024 30.0005L39.892 16.5299C38.5824 11.6437 35.3124 9.45086 31.0158 10.5681L16.4636 14.3521C12.0965 15.4876 10.4078 18.9699 11.7173 23.8561L15.3277 37.3267C16.6584 42.2916 19.8505 44.4188 24.2176 43.2832L38.7698 39.4992C43.0664 38.382 44.833 34.9654 43.5024 30.0005Z" fill="#2DDD9D"/>
</g>
<g filter="url(#filter2_b)">
<mask id="path-3-outside-1" maskUnits="userSpaceOnUse" x="12.02" y="12.6836" width="47" height="46" fill="black">
<rect fill="white" x="12.02" y="12.6836" width="47" height="46"/>
<path d="M45.3209 13.6836H24.7587C17.2655 13.6836 13.02 17.8651 13.02 25.2454L13.02 45.4784C13.02 52.8587 17.2655 57.0402 24.7587 57.0402H45.3209C52.8141 57.0402 57.04 52.8587 57.04 45.4784V25.2454C57.04 17.8651 52.8141 13.6836 45.3209 13.6836Z"/>
</mask>
<path d="M45.3209 13.6836H24.7587C17.2655 13.6836 13.02 17.8651 13.02 25.2454L13.02 45.4784C13.02 52.8587 17.2655 57.0402 24.7587 57.0402H45.3209C52.8141 57.0402 57.04 52.8587 57.04 45.4784V25.2454C57.04 17.8651 52.8141 13.6836 45.3209 13.6836Z" fill="#2DDD9D" fill-opacity="0.4"/>
<path d="M45.3209 14.6836C45.8732 14.6836 46.3209 14.2359 46.3209 13.6836C46.3209 13.1313 45.8732 12.6836 45.3209 12.6836V14.6836ZM45.3209 12.6836C44.7686 12.6836 44.3209 13.1313 44.3209 13.6836C44.3209 14.2359 44.7686 14.6836 45.3209 14.6836V12.6836ZM45.3209 12.6836H24.7587V14.6836H45.3209V12.6836ZM24.7587 12.6836C20.8303 12.6836 17.6134 13.7824 15.3777 15.9844C13.1398 18.1886 12.02 21.3651 12.02 25.2454H14.02C14.02 21.7453 15.023 19.141 16.7811 17.4093C18.5415 15.6755 21.1939 14.6836 24.7587 14.6836V12.6836ZM12.02 25.2454V45.4784H14.02V25.2454H12.02ZM12.02 45.4784C12.02 49.3587 13.1398 52.5352 15.3777 54.7394C17.6134 56.9414 20.8303 58.0402 24.7587 58.0402V56.0402C21.1939 56.0402 18.5415 55.0483 16.7811 53.3145C15.023 51.5828 14.02 48.9785 14.02 45.4784H12.02ZM24.7587 58.0402H45.3209V56.0402H24.7587V58.0402ZM45.3209 58.0402C49.2494 58.0402 52.462 56.9413 54.693 54.7385C56.9259 52.5339 58.04 49.3574 58.04 45.4784H56.04C56.04 48.9797 55.0412 51.5841 53.2878 53.3153C51.5326 55.0483 48.8857 56.0402 45.3209 56.0402V58.0402ZM58.04 45.4784V25.2454H56.04V45.4784H58.04ZM58.04 25.2454C58.04 21.3664 56.9259 18.1899 54.693 15.9853C52.462 13.7825 49.2494 12.6836 45.3209 12.6836V14.6836C48.8857 14.6836 51.5326 15.6755 53.2878 17.4085C55.0412 19.1397 56.04 21.7441 56.04 25.2454H58.04Z" fill="url(#paint1_linear)" mask="url(#path-3-outside-1)"/>
</g>
<g filter="url(#filter3_bd)">
<mask id="path-5-inside-2" fill="white">
<path fill-rule="evenodd" clip-rule="evenodd" d="M35.3301 22.8438C34.3156 22.8438 33.4801 23.6543 33.4801 24.6578V46.6966C33.4801 47.6808 34.3156 48.4913 35.3301 48.4913C36.3646 48.4913 37.2001 47.6808 37.2001 46.6966V24.6578C37.2001 23.6543 36.3646 22.8438 35.3301 22.8438ZM24.7901 30.1716C23.7756 30.1716 22.9401 30.9731 22.9401 31.9654V46.7166C22.9401 47.6898 23.7756 48.4913 24.7901 48.4913C25.8246 48.4913 26.6601 47.6898 26.6601 46.7166V31.9654C26.6601 30.9731 25.8246 30.1716 24.7901 30.1716ZM43.4001 39.878C43.4001 38.9 44.2356 38.1102 45.27 38.1102C46.2846 38.1102 47.1201 38.9 47.1201 39.878V46.7423C47.1201 47.7015 46.2846 48.4913 45.2501 48.4913C44.2356 48.4913 43.4001 47.7015 43.4001 46.7423V39.878Z"/>
</mask>
<path fill-rule="evenodd" clip-rule="evenodd" d="M35.3301 22.8438C34.3156 22.8438 33.4801 23.6543 33.4801 24.6578V46.6966C33.4801 47.6808 34.3156 48.4913 35.3301 48.4913C36.3646 48.4913 37.2001 47.6808 37.2001 46.6966V24.6578C37.2001 23.6543 36.3646 22.8438 35.3301 22.8438ZM24.7901 30.1716C23.7756 30.1716 22.9401 30.9731 22.9401 31.9654V46.7166C22.9401 47.6898 23.7756 48.4913 24.7901 48.4913C25.8246 48.4913 26.6601 47.6898 26.6601 46.7166V31.9654C26.6601 30.9731 25.8246 30.1716 24.7901 30.1716ZM43.4001 39.878C43.4001 38.9 44.2356 38.1102 45.27 38.1102C46.2846 38.1102 47.1201 38.9 47.1201 39.878V46.7423C47.1201 47.7015 46.2846 48.4913 45.2501 48.4913C44.2356 48.4913 43.4001 47.7015 43.4001 46.7423V39.878Z" fill="url(#paint2_linear)"/>
<path d="M33.8801 24.6578C33.8801 23.8838 34.5278 23.2438 35.3301 23.2438V22.4437C34.1034 22.4437 33.0801 23.4248 33.0801 24.6578H33.8801ZM33.8801 46.6966V24.6578H33.0801V46.6966H33.8801ZM35.3301 48.0913C34.525 48.0913 33.8801 47.4485 33.8801 46.6966H33.0801C33.0801 47.9131 34.1062 48.8913 35.3301 48.8913V48.0913ZM36.8001 46.6966C36.8001 47.4458 36.158 48.0913 35.3301 48.0913V48.8913C36.5711 48.8913 37.6001 47.9158 37.6001 46.6966H36.8001ZM36.8001 24.6578V46.6966H37.6001V24.6578H36.8001ZM35.3301 23.2438C36.1552 23.2438 36.8001 23.8866 36.8001 24.6578H37.6001C37.6001 23.422 36.5739 22.4437 35.3301 22.4437V23.2438ZM23.3401 31.9654C23.3401 31.2068 23.9835 30.5716 24.7901 30.5716V29.7716C23.5677 29.7716 22.5401 30.7394 22.5401 31.9654H23.3401ZM23.3401 46.7166V31.9654H22.5401V46.7166H23.3401ZM24.7901 48.0913C23.9807 48.0913 23.3401 47.4534 23.3401 46.7166H22.5401C22.5401 47.9263 23.5705 48.8913 24.7901 48.8913V48.0913ZM26.2601 46.7166C26.2601 47.4507 25.6223 48.0913 24.7901 48.0913V48.8913C26.0268 48.8913 27.0601 47.929 27.0601 46.7166H26.2601ZM26.2601 31.9654V46.7166H27.0601V31.9654H26.2601ZM24.7901 30.5716C25.6195 30.5716 26.2601 31.2095 26.2601 31.9654H27.0601C27.0601 30.7367 26.0296 29.7716 24.7901 29.7716V30.5716ZM45.27 37.7102C44.0361 37.7102 43.0001 38.6583 43.0001 39.878H43.8001C43.8001 39.1418 44.435 38.5102 45.27 38.5102V37.7102ZM47.5201 39.878C47.5201 38.661 46.4869 37.7102 45.27 37.7102V38.5102C46.0823 38.5102 46.7201 39.1391 46.7201 39.878H47.5201ZM47.5201 46.7423V39.878H46.7201V46.7423H47.5201ZM45.2501 48.8913C46.4811 48.8913 47.5201 47.9459 47.5201 46.7423H46.7201C46.7201 47.457 46.088 48.0913 45.2501 48.0913V48.8913ZM43.0001 46.7423C43.0001 47.9432 44.0361 48.8913 45.2501 48.8913V48.0913C44.435 48.0913 43.8001 47.4597 43.8001 46.7423H43.0001ZM43.0001 39.878V46.7423H43.8001V39.878H43.0001Z" fill="url(#paint3_linear)" mask="url(#path-5-inside-2)"/>
</g>
<defs>
<filter id="filter0_b" x="-8.05823" y="-9.33789" width="74.991" height="74.2562" filterUnits="userSpaceOnUse" color-interpolation-filters="sRGB">
<feFlood flood-opacity="0" result="BackgroundImageFix"/>
<feGaussianBlur in="BackgroundImage" stdDeviation="6.5"/>
<feComposite in2="SourceAlpha" operator="in" result="effect1_backgroundBlur"/>
<feBlend mode="normal" in="SourceGraphic" in2="effect1_backgroundBlur" result="shape"/>
</filter>
<filter id="filter1_f" x="-1.71509" y="-2.7168" width="58.652" height="59.2997" filterUnits="userSpaceOnUse" color-interpolation-filters="sRGB">
<feFlood flood-opacity="0" result="BackgroundImageFix"/>
<feBlend mode="normal" in="SourceGraphic" in2="BackgroundImageFix" result="shape"/>
<feGaussianBlur stdDeviation="6.5" result="effect1_foregroundBlur"/>
</filter>
<filter id="filter2_b" x="-2.97998" y="-2.31641" width="76.02" height="75.3566" filterUnits="userSpaceOnUse" color-interpolation-filters="sRGB">
<feFlood flood-opacity="0" result="BackgroundImageFix"/>
<feGaussianBlur in="BackgroundImage" stdDeviation="7.5"/>
<feComposite in2="SourceAlpha" operator="in" result="effect1_backgroundBlur"/>
<feBlend mode="normal" in="SourceGraphic" in2="effect1_backgroundBlur" result="shape"/>
</filter>
<filter id="filter3_bd" x="7.94006" y="7.84375" width="54.18" height="55.6476" filterUnits="userSpaceOnUse" color-interpolation-filters="sRGB">
<feFlood flood-opacity="0" result="BackgroundImageFix"/>
<feGaussianBlur in="BackgroundImage" stdDeviation="7.5"/>
<feComposite in2="SourceAlpha" operator="in" result="effect1_backgroundBlur"/>
<feColorMatrix in="SourceAlpha" type="matrix" values="0 0 0 0 0 0 0 0 0 0 0 0 0 0 0 0 0 0 127 0"/>
<feOffset dx="5" dy="5"/>
<feGaussianBlur stdDeviation="5"/>
<feColorMatrix type="matrix" values="0 0 0 0 0.176471 0 0 0 0 0.866667 0 0 0 0 0.615686 0 0 0 0.5 0"/>
<feBlend mode="normal" in2="effect1_backgroundBlur" result="effect2_dropShadow"/>
<feBlend mode="normal" in="SourceGraphic" in2="effect2_dropShadow" result="shape"/>
</filter>
<linearGradient id="paint0_linear" x1="23.7399" y1="6.85185" x2="34.8151" y2="48.8151" gradientUnits="userSpaceOnUse">
<stop stop-color="#2DDD9D"/>
<stop offset="1" stop-color="#2DDD9D" stop-opacity="0"/>
</linearGradient>
<linearGradient id="paint1_linear" x1="20.0273" y1="18.7347" x2="47.5928" y2="53.3976" gradientUnits="userSpaceOnUse">
<stop stop-color="white" stop-opacity="0.25"/>
<stop offset="1" stop-color="white" stop-opacity="0"/>
</linearGradient>
<linearGradient id="paint2_linear" x1="16.6811" y1="41.8799" x2="27.6586" y2="64.8711" gradientUnits="userSpaceOnUse">
<stop stop-color="white"/>
<stop offset="1" stop-color="white" stop-opacity="0.2"/>
</linearGradient>
<linearGradient id="paint3_linear" x1="26.7891" y1="25.8317" x2="43.3263" y2="45.1414" gradientUnits="userSpaceOnUse">
<stop stop-color="white" stop-opacity="0.25"/>
<stop offset="1" stop-color="white" stop-opacity="0"/>
</linearGradient>
</defs>
</svg>
