<svg width="62" height="59" viewBox="0 0 62 59" fill="none" xmlns="http://www.w3.org/2000/svg">
<path fill-rule="evenodd" clip-rule="evenodd" d="M43.6347 10.6802C42.7442 9.64187 41.8538 9.16783 40.4958 9.16783H10.4311C9.71872 9.16783 9.13991 8.62608 9.07313 7.90149L8.65015 2.84513C8.58337 2.07765 8.02682 1.44786 7.26992 1.31017L1.96045 0.499797C1.04772 0.362102 0.179503 0.97383 0.0236699 1.89707C-0.132163 2.79999 0.49117 3.68033 1.38165 3.83835C3.36193 4.18409 4.85949 5.82257 5.02624 7.82588L6.79129 29.0321C7.03617 32.0117 9.48497 34.3119 12.4458 34.3119H36.7335C39.5608 34.3119 41.9651 32.2149 42.3658 29.3684L44.4807 14.5605C44.681 13.2084 44.5252 11.7186 43.6347 10.6802Z" fill="url(#paint0_linear)"/>
<g filter="url(#filter0_f)">
<rect x="10.5865" y="15.207" width="26.6985" height="15.9041" rx="5" fill="#0DB97A" fill-opacity="0.5"/>
</g>
<g filter="url(#filter1_b)">
<mask id="path-3-outside-1" maskUnits="userSpaceOnUse" x="12" y="8.41602" width="52" height="51" fill="black">
<rect fill="white" x="12" y="8.41602" width="52" height="51"/>
<path fill-rule="evenodd" clip-rule="evenodd" d="M17.9647 18.8626C16.488 18.8626 15.5197 19.3781 14.5514 20.5072C13.5831 21.6363 13.4137 23.2563 13.6316 24.7266L15.9313 40.8287C16.367 43.9239 18.9814 46.2042 22.0558 46.2042H48.4662C51.6858 46.2042 54.3486 43.703 54.6149 40.463L56.842 13.7056L60.4973 13.0674C61.4656 12.8955 62.1434 11.9383 61.974 10.9564C61.8045 9.9525 60.8604 9.2873 59.8679 9.43703L54.0944 10.3182C53.2714 10.468 52.6662 11.1528 52.5936 11.9873L52.1336 17.4856C52.061 18.2735 51.4316 18.8626 50.657 18.8626H17.9647ZM48.854 50.0841C50.8874 50.0841 52.5335 51.7532 52.5335 53.8151C52.5335 55.8524 50.8874 57.5215 48.854 57.5215C46.8447 57.5215 45.1986 55.8524 45.1986 53.8151C45.1986 51.7532 46.8447 50.0841 48.854 50.0841ZM21.6206 50.0841C23.654 50.0841 25.3001 51.7532 25.3001 53.8151C25.3001 55.8524 23.654 57.5215 21.6206 57.5215C19.6113 57.5215 17.9652 55.8524 17.9652 53.8151C17.9652 51.7532 19.6113 50.0841 21.6206 50.0841Z"/>
</mask>
<path fill-rule="evenodd" clip-rule="evenodd" d="M17.9647 18.8626C16.488 18.8626 15.5197 19.3781 14.5514 20.5072C13.5831 21.6363 13.4137 23.2563 13.6316 24.7266L15.9313 40.8287C16.367 43.9239 18.9814 46.2042 22.0558 46.2042H48.4662C51.6858 46.2042 54.3486 43.703 54.6149 40.463L56.842 13.7056L60.4973 13.0674C61.4656 12.8955 62.1434 11.9383 61.974 10.9564C61.8045 9.9525 60.8604 9.2873 59.8679 9.43703L54.0944 10.3182C53.2714 10.468 52.6662 11.1528 52.5936 11.9873L52.1336 17.4856C52.061 18.2735 51.4316 18.8626 50.657 18.8626H17.9647ZM48.854 50.0841C50.8874 50.0841 52.5335 51.7532 52.5335 53.8151C52.5335 55.8524 50.8874 57.5215 48.854 57.5215C46.8447 57.5215 45.1986 55.8524 45.1986 53.8151C45.1986 51.7532 46.8447 50.0841 48.854 50.0841ZM21.6206 50.0841C23.654 50.0841 25.3001 51.7532 25.3001 53.8151C25.3001 55.8524 23.654 57.5215 21.6206 57.5215C19.6113 57.5215 17.9652 55.8524 17.9652 53.8151C17.9652 51.7532 19.6113 50.0841 21.6206 50.0841Z" fill="#2DDD9D" fill-opacity="0.35"/>
<path d="M13.6316 24.7266L14.6208 24.5801L14.6215 24.5852L13.6316 24.7266ZM15.9313 40.8287L16.9212 40.6873L16.9215 40.6893L15.9313 40.8287ZM54.6149 40.463L53.6183 40.3811L53.6184 40.38L54.6149 40.463ZM56.842 13.7056L55.8454 13.6226C55.8832 13.1694 56.222 12.7987 56.67 12.7205L56.842 13.7056ZM60.4973 13.0674L60.6721 14.052L60.6693 14.0525L60.4973 13.0674ZM61.974 10.9564L60.9886 11.1265L60.9879 11.1229L61.974 10.9564ZM59.8679 9.43703L59.7171 8.44848L59.7188 8.44822L59.8679 9.43703ZM54.0944 10.3182L53.9155 9.33438C53.9248 9.33268 53.9342 9.33111 53.9436 9.32968L54.0944 10.3182ZM52.5936 11.9873L51.5971 11.904L51.5973 11.9007L52.5936 11.9873ZM52.1336 17.4856L53.1302 17.569L53.1294 17.5774L52.1336 17.4856ZM13.7923 19.8562C14.3341 19.2246 14.9206 18.712 15.6253 18.3646C16.3359 18.0143 17.104 17.8626 17.9647 17.8626V19.8626C17.3487 19.8626 16.8944 19.9687 16.5096 20.1584C16.1189 20.351 15.7371 20.6607 15.3105 21.1582L13.7923 19.8562ZM12.6424 24.8732C12.4049 23.2707 12.5533 21.3011 13.7923 19.8562L15.3105 21.1582C14.613 21.9715 14.4225 23.242 14.6208 24.5801L12.6424 24.8732ZM14.9413 40.9701L12.6416 24.868L14.6215 24.5852L16.9212 40.6873L14.9413 40.9701ZM22.0558 47.2042C18.476 47.2042 15.4453 44.5499 14.941 40.9681L16.9215 40.6893C17.2887 43.2979 19.4868 45.2042 22.0558 45.2042V47.2042ZM48.4662 47.2042H22.0558V45.2042H48.4662V47.2042ZM55.6115 40.5449C55.3038 44.2898 52.2201 47.2042 48.4662 47.2042V45.2042C51.1515 45.2042 53.3935 43.1162 53.6183 40.3811L55.6115 40.5449ZM57.8386 13.7885L55.6115 40.5459L53.6184 40.38L55.8454 13.6226L57.8386 13.7885ZM60.6693 14.0525L57.014 14.6907L56.67 12.7205L60.3253 12.0823L60.6693 14.0525ZM62.9594 10.7863C63.2225 12.3107 62.1822 13.784 60.6721 14.052L60.3226 12.0827C60.749 12.0071 61.0644 11.5658 60.9886 11.1265L62.9594 10.7863ZM59.7188 8.44822C61.2406 8.21863 62.6981 9.23828 62.96 10.79L60.9879 11.1229C60.911 10.6667 60.4803 10.356 60.0171 10.4258L59.7188 8.44822ZM53.9436 9.32968L59.7171 8.44848L60.0188 10.4256L54.2453 11.3068L53.9436 9.32968ZM51.5973 11.9007C51.7077 10.6321 52.6342 9.56746 53.9155 9.33438L54.2734 11.3021C53.9085 11.3685 53.6247 11.6735 53.5898 12.074L51.5973 11.9007ZM51.1371 17.4023L51.5971 11.904L53.5901 12.0707L53.1302 17.569L51.1371 17.4023ZM50.657 17.8626C50.8941 17.8626 51.1107 17.6882 51.1379 17.3938L53.1294 17.5774C53.0113 18.8589 51.9691 19.8626 50.657 19.8626V17.8626ZM17.9647 17.8626H50.657V19.8626H17.9647V17.8626ZM51.5335 53.8151C51.5335 52.2924 50.3221 51.0841 48.854 51.0841V49.0841C51.4527 49.0841 53.5335 51.2141 53.5335 53.8151H51.5335ZM48.854 56.5215C50.3263 56.5215 51.5335 55.3089 51.5335 53.8151H53.5335C53.5335 56.3959 51.4484 58.5215 48.854 58.5215V56.5215ZM46.1986 53.8151C46.1986 55.3132 47.4101 56.5215 48.854 56.5215V58.5215C46.2794 58.5215 44.1986 56.3915 44.1986 53.8151H46.1986ZM48.854 51.0841C47.4143 51.0841 46.1986 52.2881 46.1986 53.8151H44.1986C44.1986 51.2184 46.2751 49.0841 48.854 49.0841V51.0841ZM24.3001 53.8151C24.3001 52.2924 23.0887 51.0841 21.6206 51.0841V49.0841C24.2193 49.0841 26.3001 51.2141 26.3001 53.8151H24.3001ZM21.6206 56.5215C23.0929 56.5215 24.3001 55.3089 24.3001 53.8151H26.3001C26.3001 56.3959 24.2151 58.5215 21.6206 58.5215V56.5215ZM18.9652 53.8151C18.9652 55.3132 20.1767 56.5215 21.6206 56.5215V58.5215C19.046 58.5215 16.9652 56.3915 16.9652 53.8151H18.9652ZM21.6206 51.0841C20.1809 51.0841 18.9652 52.2881 18.9652 53.8151H16.9652C16.9652 51.2184 19.0418 49.0841 21.6206 49.0841V51.0841Z" fill="url(#paint1_linear)" mask="url(#path-3-outside-1)"/>
</g>
<g filter="url(#filter2_bd)">
<mask id="path-5-inside-2" fill="white">
<path fill-rule="evenodd" clip-rule="evenodd" d="M25.9289 31.6233H32.6344C33.6511 31.6233 34.45 30.7887 34.45 29.7823C34.45 28.7514 33.6511 27.9414 32.6344 27.9414H25.9289C24.9122 27.9414 24.1133 28.7514 24.1133 29.7823C24.1133 30.7887 24.9122 31.6233 25.9289 31.6233Z"/>
</mask>
<path fill-rule="evenodd" clip-rule="evenodd" d="M25.9289 31.6233H32.6344C33.6511 31.6233 34.45 30.7887 34.45 29.7823C34.45 28.7514 33.6511 27.9414 32.6344 27.9414H25.9289C24.9122 27.9414 24.1133 28.7514 24.1133 29.7823C24.1133 30.7887 24.9122 31.6233 25.9289 31.6233Z" fill="url(#paint2_linear)"/>
<path d="M25.9289 31.4233H32.6344V31.8233H25.9289V31.4233ZM32.6344 31.4233C33.5363 31.4233 34.25 30.6826 34.25 29.7823H34.65C34.65 30.8948 33.7659 31.8233 32.6344 31.8233V31.4233ZM34.25 29.7823C34.25 28.8592 33.538 28.1414 32.6344 28.1414V27.7414C33.7642 27.7414 34.65 28.6436 34.65 29.7823H34.25ZM32.6344 28.1414H25.9289V27.7414H32.6344V28.1414ZM25.9289 28.1414C25.0253 28.1414 24.3133 28.8592 24.3133 29.7823H23.9133C23.9133 28.6436 24.7991 27.7414 25.9289 27.7414V28.1414ZM24.3133 29.7823C24.3133 30.6826 25.027 31.4233 25.9289 31.4233V31.8233C24.7974 31.8233 23.9133 30.8948 23.9133 29.7823H24.3133Z" fill="url(#paint3_linear)" fill-opacity="0.5" mask="url(#path-5-inside-2)"/>
</g>
<defs>
<filter id="filter0_f" x="-3.41345" y="1.20703" width="54.6985" height="43.9041" filterUnits="userSpaceOnUse" color-interpolation-filters="sRGB">
<feFlood flood-opacity="0" result="BackgroundImageFix"/>
<feBlend mode="normal" in="SourceGraphic" in2="BackgroundImageFix" result="shape"/>
<feGaussianBlur stdDeviation="7" result="effect1_foregroundBlur"/>
</filter>
<filter id="filter1_b" x="-11.4524" y="-15.584" width="98.4525" height="98.1055" filterUnits="userSpaceOnUse" color-interpolation-filters="sRGB">
<feFlood flood-opacity="0" result="BackgroundImageFix"/>
<feGaussianBlur in="BackgroundImage" stdDeviation="12"/>
<feComposite in2="SourceAlpha" operator="in" result="effect1_backgroundBlur"/>
<feBlend mode="normal" in="SourceGraphic" in2="effect1_backgroundBlur" result="shape"/>
</filter>
<filter id="filter2_bd" x="9.1134" y="12.9414" width="40.3366" height="33.6819" filterUnits="userSpaceOnUse" color-interpolation-filters="sRGB">
<feFlood flood-opacity="0" result="BackgroundImageFix"/>
<feGaussianBlur in="BackgroundImage" stdDeviation="7.5"/>
<feComposite in2="SourceAlpha" operator="in" result="effect1_backgroundBlur"/>
<feColorMatrix in="SourceAlpha" type="matrix" values="0 0 0 0 0 0 0 0 0 0 0 0 0 0 0 0 0 0 127 0"/>
<feOffset dx="5" dy="5"/>
<feGaussianBlur stdDeviation="5"/>
<feColorMatrix type="matrix" values="0 0 0 0 0.176471 0 0 0 0 0.866667 0 0 0 0 0.615686 0 0 0 0.5 0"/>
<feBlend mode="normal" in2="effect1_backgroundBlur" result="effect2_dropShadow"/>
<feBlend mode="normal" in="SourceGraphic" in2="effect2_dropShadow" result="shape"/>
</filter>
<linearGradient id="paint0_linear" x1="-0.0002442" y1="4.78629" x2="41.1512" y2="38.6041" gradientUnits="userSpaceOnUse">
<stop stop-color="#66DC91"/>
<stop offset="1" stop-color="#53B9AB"/>
</linearGradient>
<linearGradient id="paint1_linear" x1="54.2871" y1="15.0204" x2="23.6482" y2="53.2414" gradientUnits="userSpaceOnUse">
<stop stop-color="white" stop-opacity="0.25"/>
<stop offset="1" stop-color="white" stop-opacity="0"/>
</linearGradient>
<linearGradient id="paint2_linear" x1="24.8462" y1="28.6063" x2="36.2767" y2="29.6526" gradientUnits="userSpaceOnUse">
<stop stop-color="white"/>
<stop offset="1" stop-color="white" stop-opacity="0.2"/>
</linearGradient>
<linearGradient id="paint3_linear" x1="33.3365" y1="29.1765" x2="24.5611" y2="29.3125" gradientUnits="userSpaceOnUse">
<stop stop-color="white"/>
<stop offset="1" stop-color="white" stop-opacity="0"/>
</linearGradient>
</defs>
</svg>
