<svg
  className="fill"
  width="14"
  height="18"
  viewBox="0 0 14 18"
  fill="none"
  xmlns="http://www.w3.org/2000/svg"
>
  <path
    d="M12.6538 2.25H9.69231V1.6875C9.69231 0.755509 8.96909 0 8.07692 0H5.92308C5.03091 0 4.30769 0.755509 4.30769 1.6875V2.25H1.34615C0.602707 2.25 0 2.87962 0 3.65625V4.78126C0 5.09193 0.241063 5.34376 0.538462 5.34376H13.4615C13.7589 5.34376 14 5.09193 14 4.78126V3.65625C14 2.87962 13.3973 2.25 12.6538 2.25ZM5.38462 1.6875C5.38462 1.37742 5.62625 1.125 5.92308 1.125H8.07692C8.37375 1.125 8.61539 1.37742 8.61539 1.6875V2.25H5.38462V1.6875Z"
    fill="#FD5353"
  />
  <path
    d="M1.02178 6.46875C0.925696 6.46875 0.849134 6.55263 0.853711 6.6529L1.29794 16.3927C1.339 17.2941 2.04775 18 2.91131 18H11.0885C11.9521 18 12.6608 17.2941 12.7019 16.3927L13.1461 6.6529C13.1507 6.55263 13.0741 6.46875 12.978 6.46875H1.02178ZM9.15376 7.875C9.15376 7.56422 9.39472 7.3125 9.69222 7.3125C9.98972 7.3125 10.2307 7.56422 10.2307 7.875V15.1875C10.2307 15.4983 9.98972 15.75 9.69222 15.75C9.39472 15.75 9.15376 15.4983 9.15376 15.1875V7.875ZM6.46145 7.875C6.46145 7.56422 6.70241 7.3125 6.99991 7.3125C7.29741 7.3125 7.53837 7.56422 7.53837 7.875V15.1875C7.53837 15.4983 7.29741 15.75 6.99991 15.75C6.70241 15.75 6.46145 15.4983 6.46145 15.1875V7.875ZM3.76914 7.875C3.76914 7.56422 4.01011 7.3125 4.30761 7.3125C4.60511 7.3125 4.84607 7.56422 4.84607 7.875V15.1875C4.84607 15.4983 4.60511 15.75 4.30761 15.75C4.01011 15.75 3.76914 15.4983 3.76914 15.1875V7.875Z"
    fill="#FD5353"
  />
</svg>
