<svg width="91" height="92" viewBox="0 0 91 92" fill="none" xmlns="http://www.w3.org/2000/svg">
<g filter="url(#filter0_b)">
<path d="M76.8954 44.4471C76.8954 62.9199 61.9211 77.8942 43.4482 77.8942C24.9753 77.8942 10.001 62.9199 10.001 44.4471C10.001 25.9776 24.9753 11 43.4482 11C61.9211 11 76.8954 25.9776 76.8954 44.4471Z" fill="url(#paint0_linear)"/>
</g>
<g filter="url(#filter1_f)">
<path d="M43.5353 22.6772C31.658 22.6772 22.0186 32.3188 22.0186 44.1939C22.0186 56.0732 31.658 65.7105 43.5353 65.7105C55.434 65.7105 65.052 56.0732 65.052 44.1939C65.052 32.3188 55.434 22.6772 43.5353 22.6772Z" fill="url(#paint1_linear)"/>
</g>
<g filter="url(#filter2_b)">
<path d="M90.0009 57.5531C90.0009 76.0259 75.0266 91.0002 56.5537 91.0002C38.0808 91.0002 23.1064 76.0259 23.1064 57.5531C23.1064 39.0836 38.0808 24.106 56.5537 24.106C75.0266 24.106 90.0009 39.0836 90.0009 57.5531Z" fill="#2DDD9D" fill-opacity="0.35"/>
<path d="M56.5537 91.5002C75.3027 91.5002 90.5009 76.302 90.5009 57.5531C90.5009 38.8075 75.3028 23.606 56.5537 23.606C37.8046 23.606 22.6064 38.8075 22.6064 57.5531C22.6064 76.302 37.8046 91.5002 56.5537 91.5002Z" stroke="url(#paint2_linear)" stroke-linecap="round" stroke-linejoin="round"/>
</g>
<g filter="url(#filter3_bd)">
<mask id="path-5-inside-1" fill="white">
<path d="M52.3901 67.8767C51.6584 67.8767 50.9267 67.599 50.3681 67.0404L42.6162 59.2886C41.499 58.1714 41.499 56.3617 42.6162 55.2478C43.7334 54.1306 45.5399 54.1273 46.6571 55.2445L52.3901 60.9775L65.875 47.4927C66.9922 46.3755 68.7987 46.3755 69.9159 47.4927C71.0331 48.6099 71.0331 50.4196 69.9159 51.5368L54.4122 67.0404C53.8536 67.599 53.1219 67.8767 52.3901 67.8767Z"/>
</mask>
<path d="M52.3901 67.8767C51.6584 67.8767 50.9267 67.599 50.3681 67.0404L42.6162 59.2886C41.499 58.1714 41.499 56.3617 42.6162 55.2478C43.7334 54.1306 45.5399 54.1273 46.6571 55.2445L52.3901 60.9775L65.875 47.4927C66.9922 46.3755 68.7987 46.3755 69.9159 47.4927C71.0331 48.6099 71.0331 50.4196 69.9159 51.5368L54.4122 67.0404C53.8536 67.599 53.1219 67.8767 52.3901 67.8767Z" fill="url(#paint3_linear)"/>
<path d="M42.6162 55.2478L42.7574 55.3894L42.7576 55.3892L42.6162 55.2478ZM52.3901 60.9775L52.2487 61.1189L52.3901 61.2603L52.5316 61.1189L52.3901 60.9775ZM69.9159 51.5368L69.7745 51.3954L69.9159 51.5368ZM54.4122 67.0404L54.5536 67.1818L54.4122 67.0404ZM52.3901 67.6767C51.709 67.6767 51.0289 67.4184 50.5095 66.899L50.2266 67.1818C50.8244 67.7796 51.6078 68.0767 52.3901 68.0767V67.6767ZM50.5095 66.899L42.7576 59.1472L42.4748 59.43L50.2266 67.1818L50.5095 66.899ZM42.7576 59.1472C41.7184 58.108 41.7187 56.425 42.7574 55.3894L42.475 55.1061C41.2793 56.2983 41.2796 58.2349 42.4748 59.43L42.7576 59.1472ZM42.7576 55.3892C43.797 54.3498 45.4769 54.3471 46.5157 55.3859L46.7985 55.1031C45.6029 53.9075 43.6698 53.9113 42.4748 55.1063L42.7576 55.3892ZM46.5157 55.3859L52.2487 61.1189L52.5316 60.8361L46.7985 55.1031L46.5157 55.3859ZM52.5316 61.1189L66.0164 47.6341L65.7336 47.3513L52.2487 60.8361L52.5316 61.1189ZM66.0164 47.6341C67.0555 46.595 68.7354 46.595 69.7745 47.6341L70.0573 47.3513C68.862 46.156 66.9289 46.156 65.7336 47.3513L66.0164 47.6341ZM69.7745 47.6341C70.8136 48.6732 70.8136 50.3563 69.7745 51.3954L70.0573 51.6782C71.2526 50.4829 71.2526 48.5466 70.0573 47.3513L69.7745 47.6341ZM69.7745 51.3954L54.2708 66.899L54.5536 67.1818L70.0573 51.6782L69.7745 51.3954ZM54.2708 66.899C53.7514 67.4184 53.0713 67.6767 52.3901 67.6767V68.0767C53.1725 68.0767 53.9558 67.7796 54.5536 67.1818L54.2708 66.899Z" fill="url(#paint4_linear)" fill-opacity="0.5" mask="url(#path-5-inside-1)"/>
</g>
<defs>
<filter id="filter0_b" x="-2.99902" y="-2" width="92.8945" height="92.8942" filterUnits="userSpaceOnUse" color-interpolation-filters="sRGB">
<feFlood flood-opacity="0" result="BackgroundImageFix"/>
<feGaussianBlur in="BackgroundImage" stdDeviation="6.5"/>
<feComposite in2="SourceAlpha" operator="in" result="effect1_backgroundBlur"/>
<feBlend mode="normal" in="SourceGraphic" in2="effect1_backgroundBlur" result="shape"/>
</filter>
<filter id="filter1_f" x="0.0185547" y="0.677246" width="87.0334" height="87.0332" filterUnits="userSpaceOnUse" color-interpolation-filters="sRGB">
<feFlood flood-opacity="0" result="BackgroundImageFix"/>
<feBlend mode="normal" in="SourceGraphic" in2="BackgroundImageFix" result="shape"/>
<feGaussianBlur stdDeviation="11" result="effect1_foregroundBlur"/>
</filter>
<filter id="filter2_b" x="7.10645" y="8.10596" width="98.8945" height="98.8942" filterUnits="userSpaceOnUse" color-interpolation-filters="sRGB">
<feFlood flood-opacity="0" result="BackgroundImageFix"/>
<feGaussianBlur in="BackgroundImage" stdDeviation="7.5"/>
<feComposite in2="SourceAlpha" operator="in" result="effect1_backgroundBlur"/>
<feBlend mode="normal" in="SourceGraphic" in2="effect1_backgroundBlur" result="shape"/>
</filter>
<filter id="filter3_bd" x="26.7783" y="31.6548" width="58.9755" height="51.2219" filterUnits="userSpaceOnUse" color-interpolation-filters="sRGB">
<feFlood flood-opacity="0" result="BackgroundImageFix"/>
<feGaussianBlur in="BackgroundImage" stdDeviation="7.5"/>
<feComposite in2="SourceAlpha" operator="in" result="effect1_backgroundBlur"/>
<feColorMatrix in="SourceAlpha" type="matrix" values="0 0 0 0 0 0 0 0 0 0 0 0 0 0 0 0 0 0 127 0"/>
<feOffset dx="5" dy="5"/>
<feGaussianBlur stdDeviation="5"/>
<feColorMatrix type="matrix" values="0 0 0 0 0.176471 0 0 0 0 0.866667 0 0 0 0 0.615686 0 0 0 0.5 0"/>
<feBlend mode="normal" in2="effect1_backgroundBlur" result="effect2_dropShadow"/>
<feBlend mode="normal" in="SourceGraphic" in2="effect2_dropShadow" result="shape"/>
</filter>
<linearGradient id="paint0_linear" x1="43.4482" y1="11" x2="43.4482" y2="77.8942" gradientUnits="userSpaceOnUse">
<stop stop-color="#2DDD9D"/>
<stop offset="1" stop-color="#2DDD9D" stop-opacity="0"/>
</linearGradient>
<linearGradient id="paint1_linear" x1="43.5353" y1="22.6772" x2="43.5353" y2="65.7105" gradientUnits="userSpaceOnUse">
<stop stop-color="#2DDD9D"/>
<stop offset="1" stop-color="#2DDD9D" stop-opacity="0"/>
</linearGradient>
<linearGradient id="paint2_linear" x1="33.755" y1="31.8992" x2="76.4263" y2="84.7489" gradientUnits="userSpaceOnUse">
<stop stop-color="white" stop-opacity="0.25"/>
<stop offset="1" stop-color="white" stop-opacity="0"/>
</linearGradient>
<linearGradient id="paint3_linear" x1="68.6994" y1="50.487" x2="36.4531" y2="51.9225" gradientUnits="userSpaceOnUse">
<stop stop-color="white"/>
<stop offset="1" stop-color="white" stop-opacity="0.2"/>
</linearGradient>
<linearGradient id="paint4_linear" x1="44.8996" y1="53.7737" x2="69.5031" y2="53.9591" gradientUnits="userSpaceOnUse">
<stop stop-color="white"/>
<stop offset="1" stop-color="white" stop-opacity="0"/>
</linearGradient>
</defs>
</svg>
