<svg width="80" height="80" viewBox="0 0 80 80" fill="none" xmlns="http://www.w3.org/2000/svg">
<g clip-path="url(#clip0)">
<path d="M48.4739 39.5376L26.9675 15.1937C24.7041 12.5824 20.91 12.5613 18.5313 15.1781C17.7024 16.0528 17.1301 17.1864 16.8556 18.3773L8.62292 52.3912C8.17123 56.0566 10.4692 59.3913 13.7386 59.799C14.3883 59.8623 15.0585 59.8236 15.7014 59.6663L45.5943 50.1899C47.1048 49.6131 48.341 48.4135 49.0898 46.8078C49.8376 45.1976 49.987 43.3659 49.5129 41.6804C49.304 40.9609 48.9994 40.3011 48.4739 39.5376Z" fill="url(#paint0_linear)"/>
<g filter="url(#filter0_f)">
<path d="M40.1126 41.928L27.7824 27.971C26.4847 26.4739 24.3095 26.4618 22.9457 27.9621C22.4705 28.4635 22.1424 29.1135 21.985 29.7963L17.265 49.2973C17.006 51.3988 18.3235 53.3106 20.198 53.5444C20.5705 53.5807 20.9547 53.5585 21.3233 53.4683L38.4616 48.0352C39.3276 47.7045 40.0364 47.0167 40.4657 46.0962C40.8944 45.173 40.9801 44.1228 40.7083 43.1565C40.5885 42.744 40.4139 42.3657 40.1126 41.928Z" fill="#FD5353"/>
</g>
<g filter="url(#filter1_b)">
<path d="M75.5547 56.8747L54.0391 15.385C51.7899 10.9528 46.67 9.32331 42.645 11.8034C41.2541 12.6181 40.1295 13.8858 39.3896 15.3556L17.726 57.168C15.9799 61.8576 18.0516 67.2675 22.3429 69.1903C23.2011 69.5488 24.1186 69.7802 25.036 69.8421H68.3631C70.5827 69.7117 72.6248 68.6363 74.1341 66.8145C75.6435 64.9862 76.4129 62.6105 76.2946 60.1663C76.2354 59.1201 76.0282 58.1131 75.5547 56.8747Z" fill="#FD5353" fill-opacity="0.5"/>
<path d="M76.0217 56.6961C76.015 56.6785 76.0072 56.6613 75.9985 56.6445L54.485 15.1587C54.4847 15.1581 54.4843 15.1574 54.484 15.1568C52.1169 10.4948 46.6858 8.73003 42.3875 11.3748C40.9071 12.2433 39.7216 13.5852 38.9443 15.1281C38.9439 15.129 38.9434 15.1299 38.943 15.1308L17.2821 56.938C17.2728 56.956 17.2645 56.9745 17.2575 56.9935C15.4292 61.9039 17.5818 67.6049 22.1384 69.6466L22.1383 69.6467L22.1501 69.6517C23.0536 70.0291 24.0247 70.275 25.0023 70.341C25.0135 70.3417 25.0248 70.3421 25.036 70.3421H68.3631C68.3729 70.3421 68.3826 70.3418 68.3924 70.3412C70.761 70.2021 72.9283 69.0536 74.5191 67.1335L74.5197 67.1328C76.1114 65.2048 76.9181 62.7057 76.794 60.1421L76.7938 60.138C76.7314 59.0365 76.5122 57.9788 76.0217 56.6961Z" stroke="url(#paint1_linear)" stroke-linecap="round" stroke-linejoin="round"/>
</g>
<g filter="url(#filter2_bd)">
<mask id="path-5-inside-1" fill="white">
<path fill-rule="evenodd" clip-rule="evenodd" d="M46.4157 48.7999C47.7322 48.7999 48.8019 47.5391 48.8019 46.0299V37.1353C48.8019 35.623 47.7322 34.3999 46.4157 34.3999C45.0991 34.3999 44.002 35.623 44.002 37.1353V46.0299C44.002 47.5391 45.0991 48.7999 46.4157 48.7999ZM44.002 56.0013C44.002 57.3069 45.0991 58.3999 46.4157 58.3999C47.7322 58.3999 48.8019 57.3069 48.8019 55.9713C48.8019 54.6657 47.7322 53.5999 46.4157 53.5999C45.0991 53.5999 44.002 54.6902 44.002 56.0013Z"/>
</mask>
<path fill-rule="evenodd" clip-rule="evenodd" d="M46.4157 48.7999C47.7322 48.7999 48.8019 47.5391 48.8019 46.0299V37.1353C48.8019 35.623 47.7322 34.3999 46.4157 34.3999C45.0991 34.3999 44.002 35.623 44.002 37.1353V46.0299C44.002 47.5391 45.0991 48.7999 46.4157 48.7999ZM44.002 56.0013C44.002 57.3069 45.0991 58.3999 46.4157 58.3999C47.7322 58.3999 48.8019 57.3069 48.8019 55.9713C48.8019 54.6657 47.7322 53.5999 46.4157 53.5999C45.0991 53.5999 44.002 54.6902 44.002 56.0013Z" fill="url(#paint2_linear)"/>
<path d="M48.4019 46.0299C48.4019 47.3781 47.4558 48.3999 46.4157 48.3999V49.1999C48.0087 49.1999 49.2019 47.7001 49.2019 46.0299H48.4019ZM48.4019 37.1353V46.0299H49.2019V37.1353H48.4019ZM46.4157 34.7999C47.4621 34.7999 48.4019 35.7912 48.4019 37.1353H49.2019C49.2019 35.4548 48.0024 33.9999 46.4157 33.9999V34.7999ZM44.402 37.1353C44.402 35.7974 45.3638 34.7999 46.4157 34.7999V33.9999C44.8344 33.9999 43.602 35.4485 43.602 37.1353H44.402ZM44.402 46.0299V37.1353H43.602V46.0299H44.402ZM46.4157 48.3999C45.3701 48.3999 44.402 47.3719 44.402 46.0299H43.602C43.602 47.7064 44.8281 49.1999 46.4157 49.1999V48.3999ZM46.4157 57.9999C45.3179 57.9999 44.402 57.0839 44.402 56.0013H43.602C43.602 57.5299 44.8803 58.7999 46.4157 58.7999V57.9999ZM48.4019 55.9713C48.4019 57.0931 47.5043 57.9999 46.4157 57.9999V58.7999C47.9602 58.7999 49.2019 57.5207 49.2019 55.9713H48.4019ZM46.4157 53.9999C47.5134 53.9999 48.4019 54.8886 48.4019 55.9713H49.2019C49.2019 54.4427 47.9511 53.1999 46.4157 53.1999V53.9999ZM44.402 56.0013C44.402 54.9132 45.3179 53.9999 46.4157 53.9999V53.1999C44.8803 53.1999 43.602 54.4672 43.602 56.0013H44.402Z" fill="url(#paint3_linear)" mask="url(#path-5-inside-1)"/>
</g>
</g>
<defs>
<filter id="filter0_f" x="-1.76758" y="7.84229" width="61.6316" height="64.7185" filterUnits="userSpaceOnUse" color-interpolation-filters="sRGB">
<feFlood flood-opacity="0" result="BackgroundImageFix"/>
<feBlend mode="normal" in="SourceGraphic" in2="BackgroundImageFix" result="shape"/>
<feGaussianBlur stdDeviation="9.5" result="effect1_foregroundBlur"/>
</filter>
<filter id="filter1_b" x="-7.8916" y="-14.3604" width="109.199" height="109.203" filterUnits="userSpaceOnUse" color-interpolation-filters="sRGB">
<feFlood flood-opacity="0" result="BackgroundImageFix"/>
<feGaussianBlur in="BackgroundImage" stdDeviation="12"/>
<feComposite in2="SourceAlpha" operator="in" result="effect1_backgroundBlur"/>
<feBlend mode="normal" in="SourceGraphic" in2="effect1_backgroundBlur" result="shape"/>
</filter>
<filter id="filter2_bd" x="29.002" y="19.3999" width="34.8" height="54" filterUnits="userSpaceOnUse" color-interpolation-filters="sRGB">
<feFlood flood-opacity="0" result="BackgroundImageFix"/>
<feGaussianBlur in="BackgroundImage" stdDeviation="7.5"/>
<feComposite in2="SourceAlpha" operator="in" result="effect1_backgroundBlur"/>
<feColorMatrix in="SourceAlpha" type="matrix" values="0 0 0 0 0 0 0 0 0 0 0 0 0 0 0 0 0 0 127 0"/>
<feOffset dx="5" dy="5"/>
<feGaussianBlur stdDeviation="5"/>
<feColorMatrix type="matrix" values="0 0 0 0 0.991667 0 0 0 0 0.326424 0 0 0 0 0.326424 0 0 0 1 0"/>
<feBlend mode="normal" in2="effect1_backgroundBlur" result="effect2_dropShadow"/>
<feBlend mode="normal" in="SourceGraphic" in2="effect2_dropShadow" result="shape"/>
</filter>
<linearGradient id="paint0_linear" x1="29.5114" y1="36.1238" x2="-3.37651" y2="63.6708" gradientUnits="userSpaceOnUse">
<stop stop-color="#FF7A7A"/>
<stop offset="1" stop-color="#FD5353"/>
</linearGradient>
<linearGradient id="paint1_linear" x1="26.5301" y1="17.539" x2="64.2934" y2="64.3097" gradientUnits="userSpaceOnUse">
<stop stop-color="white" stop-opacity="0.25"/>
<stop offset="1" stop-color="white" stop-opacity="0"/>
</linearGradient>
<linearGradient id="paint2_linear" x1="46.5342" y1="31.7653" x2="41.7966" y2="31.3655" gradientUnits="userSpaceOnUse">
<stop stop-color="white" stop-opacity="0.75"/>
<stop offset="1" stop-color="white" stop-opacity="0.2"/>
</linearGradient>
<linearGradient id="paint3_linear" x1="44.766" y1="37.1959" x2="52.0761" y2="39.0067" gradientUnits="userSpaceOnUse">
<stop stop-color="white" stop-opacity="0.25"/>
<stop offset="1" stop-color="white" stop-opacity="0"/>
</linearGradient>
<clipPath id="clip0">
<rect width="80" height="80" fill="white" transform="translate(0.000976562)"/>
</clipPath>
</defs>
</svg>
